<?xml version="1.0" standalone="no"?>
<!DOCTYPE svg PUBLIC "-//W3C//DTD SVG 1.1//EN" "http://www.w3.org/Graphics/SVG/1.1/DTD/svg11.dtd" >
<svg>
<metadata>
Created by FontForge 20090914 at Thu Aug 14 10:57:15 2014
 By www-data
Copyright (c) 2006 Parachute&#194;&#168;, www.parachute.gr.  All rights reserved.
</metadata>
<defs>
<font id="PFAgoraSansPro-ThinItalic" horiz-adv-x="1818" >
  <font-face 
    font-family="PF Agora Sans Pro Thin"
    font-weight="200"
    font-style="italic"
    font-stretch="normal"
    units-per-em="1000"
    panose-1="2 0 5 0 0 0 0 9 0 4"
    ascent="750"
    descent="-250"
    x-height="486"
    cap-height="683"
    bbox="-242.003 -246.002 1760 913.002"
    underline-thickness="50"
    underline-position="-50"
    slope="-12"
    unicode-range="U+0020-U+FB05"
  />
<missing-glyph horiz-adv-x="427" 
d="M0 684h427v-684h-427v684zM376 26l-162 292l-163 -292h325zM376 658h-325l163 -292zM26 41l170 301l-170 301v-602zM401 39v609l-170 -306z" />
    <glyph glyph-name="fj" unicode="fj" horiz-adv-x="480" 
d="M394 20c-3.33301 -29.333 -8.00879 -56.1641 -14.0088 -80.4971s-15 -46 -27 -65s-28.167 -35.667 -48.5 -50s-46.5 -25.833 -78.5 -34.5l-10 28c26.667 9.33301 48.334 20.5 65.001 33.5s29.834 27.5 39.501 43.5s16.834 33.667 21.501 53s8.33398 40 11.001 62l47 444
h-236c0 -0.666992 -1 -10.167 -3 -28.5s-4.66699 -41.333 -8 -69s-6.66602 -57.667 -9.99902 -90s-6.66602 -62.333 -9.99902 -90s-6 -50.667 -8 -69s-3 -27.833 -3 -28.5c-4.66699 -39.333 -10 -77 -16 -113s-15.333 -67.5 -28 -94.5s-29.667 -48.5 -51 -64.5
s-49.333 -24 -84 -24c-21.333 0 -46.666 3.66699 -75.999 11l8 29c13.333 -2.66699 25.166 -4.5 35.499 -5.5s19.833 -1.5 28.5 -1.5c18.667 0 35.167 3 49.5 9s26.833 16.333 37.5 31s19.667 34 27 58s13.333 53.667 18 89l16 125.5c4.66699 35.667 8.83398 70 12.501 103
l11 101.5c3.66699 34.667 8.16699 75 13.5 121h-71l3 24l73 11l11 86c4 28.667 11.167 52.5 21.5 71.5s23.333 34 39 45s33.5 18.833 53.5 23.5s41.667 7 65 7c20.667 0 41.5 -1.16699 62.5 -3.5s40.833 -5.5 59.5 -9.5l-7 -33c-18.667 3.33301 -37.5 6.16602 -56.5 8.49902
s-37.167 3.5 -54.5 3.5c-23.333 0 -43.5 -2 -60.5 -6s-31.167 -10.833 -42.5 -20.5s-20.5 -22.834 -27.5 -39.501s-11.833 -37.334 -14.5 -62.001l-10 -75h116c7.33301 0 16.833 0.166992 28.5 0.5s24.334 0.833008 38.001 1.5s27.834 1.66699 42.501 3s29 3.33301 43 6
l9 -5z" />
    <glyph glyph-name="ffj" unicode="ffj" horiz-adv-x="755" 
d="M445 454c-5.33301 -49.333 -10.1689 -92.1641 -14.502 -128.497l-11.5 -97.5l-9 -78l-8 -70c-4.66699 -37.333 -10.167 -72.5 -16.5 -105.5s-15.833 -62 -28.5 -87s-29.334 -44.833 -50.001 -59.5s-47.334 -22 -80.001 -22c-10.667 0 -22.5 0.833008 -35.5 2.5
s-26.167 4.16699 -39.5 7.5l9 30c16 -3.33301 29.167 -5.33301 39.5 -6s17.833 -1 22.5 -1c42.667 0 73.5 16 92.5 48s32.167 78.667 39.5 140l52 427h-240l-14.5 -132l-12 -105l-10.5 -86c-3.33301 -26 -6.33301 -50.667 -9 -74
c-5.33301 -42.667 -11.333 -80.834 -18 -114.501s-16.167 -62.334 -28.5 -86.001s-28.666 -41.834 -48.999 -54.501s-46.833 -19 -79.5 -19c-22 0 -47 3.66699 -75 11l8 29c13.333 -2.66699 24.833 -4.66699 34.5 -6s19.167 -2 28.5 -2c20.667 0 38.167 3.5 52.5 10.5
s26.333 17.333 36 31s17.667 30.834 24 51.501s11.5 44.667 15.5 72l18 145.5l14.5 114.5l12.5 103.5c4 33.667 8 70.5 12 110.5h-70c0.666992 3.33301 1.16699 7 1.5 11s0.5 7.66699 0.5 11c12 1.33301 24 3.16602 36 5.49902s24 4.5 36 6.5l7 57
c9.33301 58 30.333 100.333 63 127s78.334 40 137.001 40c19.333 0 40.5 -1.33301 63.5 -4s44.5 -7.33398 64.5 -14.001c15.333 14.667 34.5 25.667 57.5 33s49.167 11 78.5 11c20 0 40.167 -1.33301 60.5 -4s39.166 -5.66699 56.499 -9l-7 -32
c-18.667 3.33301 -36.834 6 -54.501 8s-35.167 3 -52.5 3c-45.333 0 -79.666 -9.16699 -102.999 -27.5s-37.666 -51.833 -42.999 -100.5c-2 -16.667 -3.66699 -32.167 -5 -46.5s-3 -29.166 -5 -44.499h112c7.33301 0 16.833 0.166992 28.5 0.5s24.334 0.833008 38.001 1.5
s28 1.66699 43 3s29.5 3.33301 43.5 6c4 -2.66699 7 -4.33398 9 -5.00098l-10.5 -95.5l-11.5 -103l-12 -103.5c-4 -34 -8 -66 -12 -96c-4 -30.667 -8.5 -60.5 -13.5 -89.5s-13.333 -55.667 -25 -80s-28.167 -45.666 -49.5 -63.999s-50.333 -31.833 -87 -40.5l-9 29
c32 10 56.5 22.833 73.5 38.5s29.833 33.5 38.5 53.5s14.667 41.833 18 65.5l11 74.5c2.66699 16 5.83398 40.167 9.50098 72.5l11.5 104l12 109l10 88.5h-232zM409.997 485.002l5.99902 52.5c2 17.667 4.33301 35.167 7 52.5c2 16 4.66699 29.833 8 41.5
s7.33301 22.167 12 31.5c-18 4.66699 -37.167 8.16699 -57.5 10.5s-35.5 3.5 -45.5 3.5c-26.667 0 -49.667 -2.33301 -69 -7s-35.5 -12.667 -48.5 -24s-23.167 -26.333 -30.5 -45s-12.666 -42 -15.999 -70l-6 -46h240z" />
    <glyph glyph-name="ff" unicode="ff" horiz-adv-x="577" 
d="M166 454c-6 -48.667 -11.0107 -90.9971 -15.0107 -126.997l-11 -98.5l-9.5 -84.5l-9.5 -85c-4 -37.333 -9.33301 -72.833 -16 -106.5s-16.167 -63 -28.5 -88s-29 -44.833 -50 -59.5s-47.833 -22 -80.5 -22c-10.667 0 -22.667 1 -36 3s-26.666 4.66699 -39.999 8
c2 8 4.66699 17.333 8 28c13.333 -2 25 -3.66699 35 -5s19.333 -2 28 -2c18.667 0 35.167 3.16699 49.5 9.5s26.833 16.833 37.5 31.5s19.834 34 27.501 58s13.834 54 18.501 90l16 126.5l13 106c4 33.667 7.83301 67.834 11.5 102.501l12.5 115h-70
c0 3.33301 0.166992 7 0.5 11s0.833008 7.66699 1.5 11c12 1.33301 24.167 3.16602 36.5 5.49902s24.5 4.5 36.5 6.5l7 49c8.66699 61.333 28.167 105.833 58.5 133.5s76.5 41.5 138.5 41.5c18.667 0 38.5 -1.33301 59.5 -4s42.5 -7.66699 64.5 -15c26 28 63.333 42 112 42
c24.667 0 50 -3 76 -9l-9 -32c-10.667 2 -21.667 3.66699 -33 5s-21.666 2 -30.999 2c-33.333 0 -58.833 -6.83301 -76.5 -20.5s-29.834 -38.167 -36.501 -73.5c-3.33301 -18 -6.5 -37 -9.5 -57l-9.5 -65h140l-3 -31h-141c-6 -48 -11 -90.167 -15 -126.5
s-7.83301 -69.333 -11.5 -99l-10 -83c-3 -25.667 -5.83301 -52.5 -8.5 -80.5c-4 -38.667 -9.16699 -73.834 -15.5 -105.501s-15.666 -59 -27.999 -82s-29 -40.833 -50 -53.5s-47.833 -19 -80.5 -19c-9.33301 0 -20.666 1 -33.999 3s-26.666 4.66699 -39.999 8
c2 8 4.66699 17.333 8 28c12 -2 23 -3.66699 33 -5s19.333 -2 28 -2c18.667 0 35.334 2.83301 50.001 8.5s27.334 15.667 38.001 30s19.834 33.666 27.501 57.999s13.834 55.166 18.501 92.499c0.666992 7.33301 2.5 22 5.5 44s6.16699 47.667 9.5 77l11 93.5l11.5 93.5
l9.5 76.5c2.66699 21.667 4.33398 36.167 5.00098 43.5h-235zM339.989 677.003c-29.333 0 -53.499 -2.66797 -72.499 -8.00098s-34.667 -13.833 -47 -25.5s-21.833 -26.667 -28.5 -45s-12 -40.166 -16 -65.499l-6 -48h234c1.33301 10.667 2.66602 20.167 3.99902 28.5
s2.5 16.833 3.5 25.5s2.33301 18.167 4 28.5s3.5 22.5 5.5 36.5c2 12 4.33301 22.5 7 31.5s6.66699 17.5 12 25.5c-19.333 6 -38.833 10.167 -58.5 12.5s-33.5 3.5 -41.5 3.5z" />
    <glyph glyph-name="fi" unicode="fi" horiz-adv-x="483" 
d="M348 0l54.001 453.003h-239l-23 -203l-23 -204c-4 -38 -9.16699 -73 -15.5 -105s-15.666 -59.667 -27.999 -83s-28.833 -41.5 -49.5 -54.5s-47.334 -19.5 -80.001 -19.5c-11.333 0 -23.5 0.833008 -36.5 2.5s-26.167 4.16699 -39.5 7.5l8 30
c13.333 -2.66699 25.166 -4.5 35.499 -5.5s19.833 -1.5 28.5 -1.5c20.667 0 38.5 3 53.5 9s27.833 17.167 38.5 33.5s19.667 38.666 27 66.999s13.666 64.5 18.999 108.5l14 120c4 34 7.5 66.333 10.5 97l9.5 93l12 108h-71l2 24l74 11
c1.33301 13.333 2.83301 26.666 4.5 39.999s3.5 26.666 5.5 39.999c4 29.333 11.167 53.833 21.5 73.5s23.166 35.5 38.499 47.5s33 20.5 53 25.5s42 7.5 66 7.5c20 0 40.5 -0.833008 61.5 -2.5s41.167 -5.5 60.5 -11.5l-7 -32c-38.667 7.33301 -75.667 11 -111 11
c-23.333 0 -43.5 -2 -60.5 -6s-31.167 -10.833 -42.5 -20.5s-20.333 -22.667 -27 -39s-11.667 -36.833 -15 -61.5l-10 -75h120h28.5c11.667 0 24.334 0.333008 38.001 1s27.834 1.66699 42.501 3s29 3.33301 43 6c1.33301 -0.666992 2.83301 -1.5 4.5 -2.5
s3.16699 -1.83301 4.5 -2.5c-5.33301 -37.333 -13 -98.333 -23 -183l-37 -307h-40z" />
    <glyph glyph-name="fl" unicode="fl" horiz-adv-x="485" 
d="M473 709l-40.4971 -336.498l-41.5 -336.5l65 2c1.33301 -4.66699 2 -9.33398 2 -14.001s0.333008 -9.33398 1 -14.001c-12 -5.33301 -24.5 -9.16602 -37.5 -11.499s-24.167 -3.5 -33.5 -3.5c-13.333 0 -22.833 2.16699 -28.5 6.5s-8.5 12.166 -8.5 23.499v8.5
c0 3 0.333008 6.5 1 10.5l44.5 360.5l32.5 271.5c-16 3.33301 -33.667 5.83301 -53 7.5s-37 2.5 -53 2.5c-22.667 0 -42.334 -1.83301 -59.001 -5.5s-30.834 -10.167 -42.501 -19.5s-21 -22.333 -28 -39s-12.167 -38 -15.5 -64l-10 -73h152l-4 -32h-151
c-9.33301 -67.333 -17.166 -133.5 -23.499 -198.5s-14.5 -134.5 -24.5 -208.5c-5.33301 -37.333 -11 -72 -17 -104s-15 -59.667 -27 -83s-28.167 -41.833 -48.5 -55.5s-46.833 -20.5 -79.5 -20.5c-22.667 0 -48 3.66699 -76 11l8 29
c13.333 -2.66699 25.166 -4.5 35.499 -5.5s20.166 -1.5 29.499 -1.5c19.333 0 36.166 3.16699 50.499 9.5s26.833 17.5 37.5 33.5s19.667 37.667 27 65s13.666 62 18.999 104c6 44.667 11 84.5 15 119.5l11.5 100c3.66699 31.667 7.16699 63.834 10.5 96.501
s7.33301 69 12 109h-71l3 24l72 11l5.5 40.5c1.66699 12.333 4.16699 27.166 7.5 44.499c4.66699 30.667 12.834 55.667 24.501 75s25.834 34.5 42.501 45.5s35.167 18.333 55.5 22s41.833 5.5 64.5 5.5c16 0 33.333 -1 52 -3s35.667 -4.66699 51 -8l36 5z" />
    <glyph glyph-name="ffi" unicode="ffi" horiz-adv-x="754" 
d="M619 1l54.9922 453.999h-228l-14 -122.5l-10.5 -92.5c-3 -27.333 -5.83301 -52 -8.5 -74l-8 -66c-4.66699 -39.333 -10 -77 -16 -113s-15.333 -67.5 -28 -94.5s-29.667 -48.5 -51 -64.5s-49.333 -24 -84 -24c-9.33301 0 -20.666 1 -33.999 3s-26.666 4.66699 -39.999 8
l9 29c12.667 -2 24 -3.66699 34 -5s19.333 -2 28 -2c40 0 70 15 90 45s34 78 42 144c0.666992 4.66699 2.33398 18.334 5.00098 41.001l10 81l12.5 100.5c4.33301 35.667 8.16602 68.667 11.499 99s6.33301 55.666 9 75.999s4 30.833 4 31.5h-240
c-4.66699 -47.333 -9 -89.333 -13 -126s-7.83301 -70 -11.5 -100l-10 -81.5l-8.5 -69.5c-4 -39.333 -9.16699 -76.833 -15.5 -112.5s-15.666 -67 -27.999 -94s-29.166 -48.5 -50.499 -64.5s-49.333 -24 -84 -24c-22.667 0 -48 3.66699 -76 11l8 28
c13.333 -2.66699 25 -4.5 35 -5.5s19.667 -1.5 29 -1.5c18.667 0 35.334 3.16699 50.001 9.5s27.334 17 38.001 32s19.667 34.5 27 58.5s13.333 54 18 90l24.5 196.5c9.66699 76.333 19.167 160.833 28.5 253.5h-70l2 21c2 0.666992 6.5 1.5 13.5 2.5s14.5 2.16699 22.5 3.5
s15.5 2.5 22.5 3.5s11.5 1.83301 13.5 2.5l7 60c4 30.667 11.833 56.5 23.5 77.5s26.167 38 43.5 51s37.5 22.333 60.5 28s47.833 8.5 74.5 8.5c19.333 0 40.166 -1.5 62.499 -4.5s43.5 -7.5 63.5 -13.5c14.667 14 34 24.667 58 32s50 11 78 11
c20.667 0 40.834 -1.16699 60.501 -3.5s38.167 -5.16602 55.5 -8.49902l-7 -33c-36.667 7.33301 -71.667 11 -105 11c-45.333 0 -80 -9 -104 -27s-38.667 -51.667 -44 -101l-10 -90h109h28.5c11.667 0 24.334 0.333008 38.001 1s27.834 1.66699 42.501 3s29 3.33301 43 6
l9 -5c-5.33301 -37.333 -12.833 -98.333 -22.5 -183l-36.5 -307h-41zM421.992 591.999c2 15.333 5 28.6709 9 40.0039s8.33301 21.666 13 30.999c-18 5.33301 -37.167 9.16602 -57.5 11.499s-35.5 3.5 -45.5 3.5c-26.667 0 -49.667 -2.5 -69 -7.5s-35.5 -13.167 -48.5 -24.5
s-23.333 -26.333 -31 -45s-13.167 -42 -16.5 -70c0 -0.666992 -0.333008 -3.33398 -1 -8.00098s-1.16699 -9.66699 -1.5 -15s-0.833008 -10.333 -1.5 -15s-1 -7.33398 -1 -8.00098h238z" />
    <glyph glyph-name="ffl" unicode="ffl" horiz-adv-x="765" 
d="M754 727l-42.0039 -344.999l-42 -345l65 2l3 -28c-12 -5.33301 -24.5 -9.16602 -37.5 -11.499s-24.167 -3.5 -33.5 -3.5c-24.667 0 -37 10 -37 30v9c0 3.33301 0.333008 7 1 11l9.5 77.5l14.5 118.5l16.5 138l16 135.5l13.5 111.5c4 32 7 54.333 9 67
c-16.667 3.33301 -34.667 5.83301 -54 7.5s-36.666 2.5 -51.999 2.5c-41.333 0 -73.833 -8.83301 -97.5 -26.5s-38.834 -49.167 -45.501 -94.5l-12 -98h150l-5 -31h-149l-14 -124l-11 -95.5l-9 -76.5l-8 -67c-4.66699 -38.667 -9.83398 -75.334 -15.501 -110.001
s-14.667 -65.167 -27 -91.5s-29.166 -47.166 -50.499 -62.499s-49.333 -23 -84 -23c-9.33301 0 -20.666 0.833008 -33.999 2.5s-26.666 4.16699 -39.999 7.5l9 30c12.667 -2 24 -3.66699 34 -5s19.333 -2 28 -2c40 0 70 14.833 90 44.5s34.333 78.167 43 145.5
c0.666992 7.33301 2.5 22 5.5 44s6.16699 47.833 9.5 77.5l11 94l11 93.5l8.5 76c2.33301 21.333 3.83301 35.333 4.5 42h-239l-14.5 -132l-12 -105.5c-3.66699 -31.667 -7.16699 -60.334 -10.5 -86.001s-6.33301 -50.5 -9 -74.5
c-4.66699 -38.667 -10.167 -74.667 -16.5 -108s-15.666 -62.166 -27.999 -86.499s-28.833 -43.5 -49.5 -57.5s-47.667 -21 -81 -21c-22.667 0 -48 3.66699 -76 11l8 28c13.333 -2 25 -3.66699 35 -5s19.667 -2 29 -2c20.667 0 38.334 3.33301 53.001 10s27 17.5 37 32.5
s18.333 34.5 25 58.5s12.334 53.333 17.001 88c2.66699 24 6.16699 52.333 10.5 85l13.5 107l14.5 123.5c5 43.667 9.83301 88.5 14.5 134.5h-70c0.666992 3.33301 1.16699 7 1.5 11s0.5 7.66699 0.5 11l72 12c1.33301 15.333 3.16602 28.666 5.49902 39.999
s4.16602 23 5.49902 35c9.33301 54 31 92.5 65 115.5s76.333 34.5 127 34.5c19.333 0 40.833 -1.33301 64.5 -4s46.167 -7.66699 67.5 -15c14.667 15.333 33.834 26.666 57.501 33.999s49.5 11 77.5 11c17.333 0 35.5 -0.833008 54.5 -2.5s38.167 -4.16699 57.5 -7.5l35 3z
M421.996 590.001c2.66699 16 5.66602 29.833 8.99902 41.5s7.33301 22.167 12 31.5c-19.333 5.33301 -38.5 9 -57.5 11s-34.833 3 -47.5 3c-26 0 -48.5 -2.66699 -67.5 -8s-35 -13.666 -48 -24.999s-23.167 -26.333 -30.5 -45s-12.666 -41.334 -15.999 -68.001l-6 -46h239z
" />
    <glyph glyph-name="ft" unicode="ft" horiz-adv-x="583" 
d="M433 452l-41.999 -340.003c-0.666992 -5.33301 -1 -10.166 -1 -14.499v-13.5c0 -16 3.66699 -28.833 11 -38.5s22.666 -14.5 45.999 -14.5c12 0 26.833 1.33301 44.5 4s35.834 6.66699 54.501 12l8 -27c-17.333 -7.33301 -37 -13.166 -59 -17.499s-41.333 -6.5 -58 -6.5
c-26 0 -47.167 5.5 -63.5 16.5s-24.5 31.5 -24.5 61.5c0 3.33301 0.166992 7 0.5 11s0.833008 8 1.5 12l43 355h-229l-20.5 -191c-7 -65.333 -14.167 -127.333 -21.5 -186c-4.66699 -41.333 -10 -79.833 -16 -115.5s-15.167 -66.5 -27.5 -92.5s-29.166 -46.333 -50.499 -61
s-49.333 -22 -84 -22c-9.33301 0 -20.833 0.833008 -34.5 2.5s-27.5 4.16699 -41.5 7.5l8 30c13.333 -2.66699 25 -4.5 35 -5.5s19.667 -1.5 29 -1.5c18.667 0 35.334 3 50.001 9s27.167 16.167 37.5 30.5s19.166 33.666 26.499 57.999s13.333 54.833 18 91.5l19 150.5
c6 49 11.167 93.667 15.5 134l11 103.5c3 28.667 5.16699 48 6.5 58h-79c0 2.66699 0.333008 6.66699 1 12s1 9 1 11c2 0.666992 7 1.66699 15 3s16.5 2.66602 25.5 3.99902s17.5 2.66602 25.5 3.99902s13 2.33301 15 3l3 25c3.33301 34 8.66602 64.167 15.999 90.5
s17.666 48.333 30.999 66s30 31.167 50 40.5s44.333 14 73 14c9.33301 0 20.333 -0.5 33 -1.5s25.667 -3.16699 39 -6.5l-7 -33c-13.333 2.66699 -25 4.33398 -35 5.00098s-19.667 1 -29 1c-16.667 0 -32.167 -1.83301 -46.5 -5.5s-27.166 -11.667 -38.499 -24
s-20.833 -30.166 -28.5 -53.499s-13.167 -54.666 -16.5 -93.999c-0.666992 -1.33301 -1.33398 -5.83301 -2.00098 -13.5s-1 -12.5 -1 -14.5h227c0.666992 2.66699 2.33398 8.83398 5.00098 18.501l8.5 31l8 30.5c2.33301 9.33301 4.16602 15.333 5.49902 18l25 4l-12 -102
h138l-4 -33h-138z" />
    <glyph glyph-name=".notdef" horiz-adv-x="427" 
d="M0 684h427v-684h-427v684zM376 26l-162 292l-163 -292h325zM376 658h-325l163 -292zM26 41l170 301l-170 301v-602zM401 39v609l-170 -306z" />
    <glyph glyph-name="space" unicode=" " horiz-adv-x="252" 
 />
    <glyph glyph-name="exclam" unicode="!" horiz-adv-x="191" 
d="M81 161l23.001 240c3.33301 30.667 6.83301 61.167 10.5 91.5l10 85l8 69.5c2.33301 20 4.16602 34.667 5.49902 44h40l-16.5 -136c-5.66699 -48.667 -12.167 -101 -19.5 -157l-36 -237h-25zM82.001 65c9.33301 0 16.833 -2.99805 22.5 -8.99805s8.5 -13.667 8.5 -23v-1
c0 -12 -4.16699 -22 -12.5 -30s-17.5 -12 -27.5 -12c-9.33301 0 -17 3.16699 -23 9.5s-9 14.166 -9 23.499c0 11.333 4.16699 21.166 12.5 29.499s17.833 12.5 28.5 12.5z" />
    <glyph glyph-name="quotedbl" unicode="&#x22;" horiz-adv-x="200" 
d="M170 499l14 184h41l-32 -184h-23zM91 499l11 184h42l-32 -184h-21z" />
    <glyph glyph-name="numbersign" unicode="#" horiz-adv-x="495" 
d="M409 425c-3.33301 -11.333 -7.83301 -25.666 -13.5 -42.999l-17.5 -54l-18 -54c-6 -17.333 -10.667 -31.333 -14 -42h80l-9 -27h-80l-67 -205h-28l66 205h-167l-67 -205h-28l67 205h-71l9 27h70c4 10.667 8.83301 24.667 14.5 42l18 54l18 54
c5.66699 17.333 10.167 31.666 13.5 42.999h-74l10 26h74c2.66699 9.33301 6.5 21.833 11.5 37.5l16 49l16.5 49l13 37.5h28l-57 -173h167l57 173h29l-57 -173h77l-10 -26h-77zM151 232l165 0.000976562c4 10.667 8.83301 24.667 14.5 42l18 54l18.5 54
c6 17.333 10.667 31.666 14 42.999h-167z" />
    <glyph glyph-name="dollar" unicode="$" horiz-adv-x="502" 
d="M325 728l25.999 0.00195312l-8 -63c19.333 -1.33301 39.333 -5.33301 60 -12s38.667 -14.667 54 -24l-18 -32c-20 11.333 -37.833 19 -53.5 23s-31.167 7 -46.5 9l-34 -275c18 -8 35.333 -16.833 52 -26.5s31.334 -20.667 44.001 -33s22.834 -27 30.501 -44
s11.5 -36.833 11.5 -59.5c0 -28.667 -4.83301 -53.834 -14.5 -75.501s-22.834 -40.167 -39.501 -55.5s-36 -27.333 -58 -36s-45 -14.334 -69 -17.001l-10 -83h-26zM191.999 -75.998l-24.9971 0.000976562l10 81c-25.333 2.66699 -50.333 8.16699 -75 16.5s-46 18.5 -64 30.5
l18 29c27.333 -15.333 50.666 -25.5 69.999 -30.5s37.666 -8.83301 54.999 -11.5l38 304c-17.333 6.66699 -33.333 14.5 -48 23.5s-27.334 19.5 -38.001 31.5s-19.167 25.667 -25.5 41s-9.5 32.666 -9.5 51.999c0 25.333 4.33301 47.833 13 67.5s20.334 36.667 35.001 51
s31.667 25.833 51 34.5s39.666 14.667 60.999 18l8 66h25zM267.002 42.0029c18.667 2.66699 36.5 7.33398 53.5 14.001s31.833 16 44.5 28s22.667 26.667 30 44s11 37.666 11 60.999c0 30.667 -10 56 -30 76s-45.333 36.333 -76 49zM254.002 625.003
c-16 -3.33301 -31 -8.3291 -45 -14.9961s-26.5 -15.334 -37.5 -26.001s-19.667 -23.334 -26 -38.001s-9.5 -32 -9.5 -52c0 -30.667 8.33301 -54.334 25 -71.001s37.667 -30.334 63 -41.001z" />
    <glyph glyph-name="percent" unicode="%" horiz-adv-x="780" 
d="M244 667c25.333 0 46.1699 -4.33301 62.5029 -13s29 -19.834 38 -33.501s15.167 -29.334 18.5 -47.001s5 -35.5 5 -53.5c0 -23.333 -2.33301 -49.833 -7 -79.5s-13.334 -57.667 -26.001 -84s-30.167 -48.5 -52.5 -66.5s-51.5 -27 -87.5 -27
c-26 0 -47.333 3.83301 -64 11.5s-30 17.834 -40 30.501s-16.833 27.5 -20.5 44.5s-5.5 34.833 -5.5 53.5c0 10.667 0.666992 24.667 2 42s4 35.833 8 55.5s10 39.334 18 59.001s18.667 37.5 32 53.5s29.666 29 48.999 39s42.666 15 69.999 15zM242.004 637
c-22.667 0 -41.9961 -4.99902 -57.9961 -14.999s-29.333 -22.5 -40 -37.5s-18.834 -31.833 -24.501 -50.5s-9.83398 -36.667 -12.501 -54s-4.33398 -33 -5.00098 -47s-1 -24 -1 -30c0 -32 6.83301 -58.333 20.5 -79s39.5 -31 77.5 -31c27.333 0 49.666 7.83301 66.999 23.5
s31 35 41 58s16.833 47.333 20.5 73s5.5 48.5 5.5 68.5c0 14 -1.16699 28.333 -3.5 43s-6.83301 27.667 -13.5 39s-16 20.666 -28 27.999s-27.333 11 -46 11zM251.008 -22.999h-33l365 721h30zM631.008 401.001c26 0 47.0029 -4.33398 63.0029 -13.001s28.5 -20 37.5 -34
s15.167 -29.833 18.5 -47.5s5 -35.5 5 -53.5c0 -24 -2.33301 -50.833 -7 -80.5s-13.334 -57.5 -26.001 -83.5s-30.167 -48 -52.5 -66s-51.5 -27 -87.5 -27c-26 0 -47.333 3.83301 -64 11.5s-29.834 17.834 -39.501 30.501s-16.334 27.5 -20.001 44.5s-5.5 34.833 -5.5 53.5
c0 10.667 0.666992 24.667 2 42s4 35.833 8 55.5s10 39.5 18 59.5s18.667 38 32 54s29.5 29 48.5 39s42.167 15 69.5 15zM630.011 370c-23.333 0 -42.833 -5.00098 -58.5 -15.001s-28.834 -22.5 -39.501 -37.5s-19 -31.833 -25 -50.5s-10.333 -36.667 -13 -54
s-4.33398 -33 -5.00098 -47s-1 -24 -1 -30c0 -16 1.5 -30.667 4.5 -44s8.33301 -24.833 16 -34.5s17.834 -17.167 30.501 -22.5s28.667 -8 48 -8c27.333 0 49.666 7.83301 66.999 23.5s30.833 34.834 40.5 57.501s16.334 46.834 20.001 72.501s5.5 48.5 5.5 68.5
c0 14 -1.16699 28.333 -3.5 43s-6.66602 27.667 -12.999 39s-15.5 20.666 -27.5 27.999s-27.333 11 -46 11z" />
    <glyph glyph-name="ampersand" unicode="&#x26;" horiz-adv-x="809" 
d="M317 462c16.667 0 30.6631 -2.66992 41.9961 -8.00293s20.5 -12.166 27.5 -20.499s11.833 -17.166 14.5 -26.499s4 -18 4 -26c0 -12.667 -3.83301 -27.167 -11.5 -43.5s-20.834 -32.166 -39.501 -47.499c0 -0.666992 0.333008 -1.33398 1 -2.00098
c21.333 4.66699 42.333 8.33398 63 11.001s40.334 4 59.001 4c20 0 42.167 -1.33301 66.5 -4s51.166 -7 80.499 -13c4.66699 18 8.33398 36.167 11.001 54.5s4 35.833 4 52.5c0 32.667 -4.33301 64 -13 94s-23 56.333 -43 79s-46.167 40.667 -78.5 54s-71.833 20 -118.5 20
s-88.834 -8.33301 -126.501 -25s-70.167 -39.334 -97.5 -68.001s-49.833 -62.167 -67.5 -100.5s-29.834 -79.166 -36.501 -122.499c-5.33301 0.666992 -10.666 1 -15.999 1s-10.666 0.666992 -15.999 2c6.66699 42.667 18.834 84.667 36.501 126s41.5 78.166 71.5 110.499
s66.5 58.5 109.5 78.5s92.833 30 149.5 30c50 0 92.833 -7.33301 128.5 -22s64.834 -34.5 87.501 -59.5s39.334 -54.333 50.001 -88s16 -69.167 16 -106.5c0 -17.333 -1.33301 -36 -4 -56s-6.66699 -39.667 -12 -59c9.33301 -1.33301 18 -2.66602 26 -3.99902
s15.667 -2 23 -2c25.333 0 46.166 5.16699 62.499 15.5s31.833 26.166 46.5 47.499c3.33301 -2.66699 6.83301 -5 10.5 -7s7.16699 -4.33301 10.5 -7c-14 -24.667 -31.5 -44 -52.5 -58s-48.167 -21 -81.5 -21c-4.66699 0 -11.5 0.333008 -20.5 1s-20.167 2.66699 -33.5 6
c-12.667 -34 -29.667 -66.5 -51 -97.5s-46.166 -58.333 -74.499 -82s-59.5 -42.667 -93.5 -57s-70 -21.5 -108 -21.5c-35.333 0 -65.5 5.33301 -90.5 16s-45.167 24.834 -60.5 42.501s-26.5 37.667 -33.5 60s-10.5 45.5 -10.5 69.5c0 46.667 5.83301 87.5 17.5 122.5
s26.834 64.167 45.501 87.5s39 40.833 61 52.5s43.667 17.5 65 17.5zM313.996 429.997c-16 0 -32.835 -5.00195 -50.502 -15.002s-34 -25 -49 -45s-27.333 -45.167 -37 -75.5s-14.5 -65.833 -14.5 -106.5c0 -54 15 -95 45 -123s70 -42 120 -42c28 0 56.333 5.83301 85 17.5
s55.667 27.834 81 48.501s48.5 45.334 69.5 74.001s37.833 60 50.5 94c-54.667 11.333 -103 17 -145 17c-25.333 0 -50.666 -2.16699 -75.999 -6.5s-51.666 -10.833 -78.999 -19.5c-3.33301 2.66699 -6 6.5 -8 11.5s-4.33301 9.83301 -7 14.5
c20.667 15.333 37.667 31.833 51 49.5s20 34.5 20 50.5s-5 29.333 -15 40s-23.667 16 -41 16z" />
    <glyph glyph-name="quotesingle" unicode="'" horiz-adv-x="145" 
d="M98 499l12 184h43l-32 -184h-23z" />
    <glyph glyph-name="parenleft" unicode="(" horiz-adv-x="254" 
d="M101 157c0 -43.333 2.50098 -82.168 7.50098 -116.501s10.833 -64.666 17.5 -90.999s13.5 -48.5 20.5 -66.5s12.833 -32.333 17.5 -43l-19 -12c-5.33301 9.33301 -12.666 23.666 -21.999 42.999s-18.5 43.5 -27.5 72.5s-17 62.833 -24 101.5s-10.5 82 -10.5 130
c0 73.333 8 140 24 200s34.667 112.667 56 158s42.666 83.166 63.999 113.499s37.666 52.5 48.999 66.5l15 -12c-10 -13.333 -24.333 -35.166 -43 -65.499s-37.167 -68.666 -55.5 -114.999s-34.5 -100 -48.5 -161s-21 -128.5 -21 -202.5z" />
    <glyph glyph-name="parenright" unicode=")" horiz-adv-x="255" 
d="M171 395c0 40.667 -2.66504 77.8291 -7.99805 111.496s-11.5 63.334 -18.5 89.001s-14.333 47.334 -22 65.001s-13.834 31.167 -18.501 40.5l19 12l23 -44.5c10 -19.667 19.833 -43.667 29.5 -72s18 -61 25 -98s10.5 -77.833 10.5 -122.5
c0 -77.333 -8.66699 -147.333 -26 -210s-37.333 -117.167 -60 -163.5s-44.667 -84.333 -66 -114s-36.333 -49.834 -45 -60.501l-16 12c8.66699 12.667 22.667 34.334 42 65.001s38.666 69.334 57.999 116.001s36.333 101.334 51 164.001s22 132.667 22 210z" />
    <glyph glyph-name="asterisk" unicode="*" horiz-adv-x="331" 
d="M335 612c7.33301 -14.667 9.66602 -30.999 6.99902 -48.999l-118 -17c2 -2 6.33301 -7.33301 13 -16l21 -28l21 -28c6.66699 -8.66699 11 -14 13 -16c-5.33301 -7.33301 -11.833 -13.333 -19.5 -18s-15.5 -8.33398 -23.5 -11.001c-0.666992 2.66699 -3 9.16699 -7 19.5
l-13.5 33.5l-14 33.5c-4.33301 10.333 -6.83301 16.833 -7.5 19.5l-65 -107c-8 3.33301 -15.167 7.33301 -21.5 12s-11.166 10.667 -14.499 18l16 16l28 28l28 28c8.66699 8.66699 14.334 14 17.001 16l-112 21c1.33301 9.33301 3.66602 18 6.99902 26s8 15.667 14 23
c2 -1.33301 8 -4.5 18 -9.5l31.5 -16.5l31.5 -16.5c10 -5 16 -8.16699 18 -9.5v22v38v37.5v21.5c7.33301 2.66699 15.5 4.16699 24.5 4.5s17.167 -1.16699 24.5 -4.5l-30 -119z" />
    <glyph glyph-name="plus" unicode="+" horiz-adv-x="502" 
d="M278 279l-21 -169h-34l20 169h-161l4 35h161l20 163h36l-20 -163h159l-4 -35h-160z" />
    <glyph glyph-name="comma" unicode="," horiz-adv-x="140" 
d="M50 66c10 0 18.002 -3.16504 24.002 -9.49805s9 -15.5 9 -27.5c0 -9.33301 -2 -20 -6 -32s-9.33301 -24 -16 -36s-14.834 -23.5 -24.501 -34.5s-19.834 -20.167 -30.501 -27.5l-10 14c12 13.333 21.167 27.333 27.5 42s10.833 28.667 13.5 42
c-7.33301 1.33301 -13.333 4.66602 -18 9.99902s-7 11.666 -7 18.999c0 10.667 3.66699 20 11 28s16.333 12 27 12z" />
    <glyph glyph-name="hyphen" unicode="-" horiz-adv-x="324" 
d="M53 235l5 39h225l-5 -39h-225z" />
    <glyph glyph-name="period" unicode="." horiz-adv-x="155" 
d="M59 67c8.66699 0 15.832 -3 21.499 -9s8.5 -13.333 8.5 -22c0 -10.667 -4 -20 -12 -28s-16.667 -12 -26 -12s-16.666 3 -21.999 9s-8 13.333 -8 22c0 10.667 3.83301 20 11.5 28s16.5 12 26.5 12z" />
    <glyph glyph-name="slash" unicode="/" horiz-adv-x="306" 
d="M13 -26h-33l340 724h32z" />
    <glyph glyph-name="zero" unicode="0" horiz-adv-x="502" 
d="M306 673c39.333 0 71.334 -7.33301 96.001 -22s43.834 -34 57.501 -58s23 -50.833 28 -80.5s7.5 -59.5 7.5 -89.5c0 -28 -1.66699 -57.833 -5 -89.5s-8.83301 -63.5 -16.5 -95.5s-18 -62.667 -31 -92s-29.333 -55.333 -49 -78s-43 -40.834 -70 -54.501
s-58.167 -20.5 -93.5 -20.5c-39.333 0 -71.333 6.33301 -96 19s-44.334 29.834 -59.001 51.501s-24.834 46.5 -30.501 74.5s-8.5 57.667 -8.5 89c0 18 0.833008 41.333 2.5 70s5.66699 59.5 12 92.5s15.333 66.333 27 100s27.5 64.167 47.5 91.5s44.667 49.5 74 66.5
s65 25.5 107 25.5zM306.001 637c-37.333 0 -69 -8.66406 -95 -25.9971s-47.5 -39.5 -64.5 -66.5s-30.167 -57 -39.5 -90s-16.166 -64.667 -20.499 -95s-7 -57.833 -8 -82.5s-1.5 -42.334 -1.5 -53.001c0 -28.667 2.33301 -55 7 -79s13 -44.667 25 -62
s28.167 -30.833 48.5 -40.5s46.166 -14.5 77.499 -14.5c30.667 0 57.334 6.5 80.001 19.5s42.167 30.167 58.5 51.5s29.666 45.666 39.999 72.999s18.5 55.666 24.5 84.999s10.167 58.333 12.5 87s3.5 55 3.5 79c0 25.333 -1.83301 50.833 -5.5 76.5
s-10.834 48.667 -21.501 69s-25.667 36.833 -45 49.5s-44.666 19 -75.999 19z" />
    <glyph glyph-name="one" unicode="1" horiz-adv-x="502" 
d="M302 618l-157 -26l1 27l161 43h40l-81 -662h-40z" />
    <glyph glyph-name="two" unicode="2" horiz-adv-x="502" 
d="M284 670c23.333 0 45.002 -2.83789 65.002 -8.50488s37.5 -14.5 52.5 -26.5s26.667 -27 35 -45s12.5 -39.333 12.5 -64c0 -40 -11.333 -80.167 -34 -120.5s-52.334 -81.166 -89.001 -122.499s-78 -82.666 -124 -123.999l-139 -125h350l-3 -34h-405l3 33l151 134.5
c48 43.667 90.333 85.834 127 126.501s65.834 79.834 87.501 117.501s32.5 73.167 32.5 106.5c0 40 -11.833 69 -35.5 87s-53.834 27 -90.501 27c-24.667 0 -52.5 -4.5 -83.5 -13.5s-62.5 -23.5 -94.5 -43.5l-17 29c33.333 22.667 67.666 39.334 102.999 50.001
s67.333 16 96 16z" />
    <glyph glyph-name="three" unicode="3" horiz-adv-x="502" 
d="M284 372c20 -2.66699 39.666 -8.33203 58.999 -16.999s36.5 -20.167 51.5 -34.5s27.167 -31.166 36.5 -50.499s14 -41 14 -65c0 -28.667 -5.83301 -56 -17.5 -82s-28.334 -48.667 -50.001 -68s-48 -34.833 -79 -46.5s-65.833 -17.5 -104.5 -17.5
c-41.333 0 -77.5 3.16699 -108.5 9.5s-56.167 14.5 -75.5 24.5c2.66699 5.33301 5 10.5 7 15.5s4.33301 9.83301 7 14.5c39.333 -14 72.166 -22.5 98.499 -25.5s49.166 -4.5 68.499 -4.5c28 0 54.833 3.83301 80.5 11.5s48.334 19 68.001 34s35.334 33.333 47.001 55
s17.5 46.5 17.5 74.5c0 24 -4.66699 45.167 -14 63.5s-22.166 33.666 -38.499 45.999s-35.666 21.666 -57.999 27.999s-46.166 9.5 -71.499 9.5c-13.333 0 -26.333 -1 -39 -3l-7 33c44 8 80.667 18.333 110 31s53 26.5 71 41.5s30.667 30.5 38 46.5s11 31.667 11 47
c0 27.333 -10.667 50.833 -32 70.5s-56 29.5 -104 29.5c-22 0 -46.333 -3.33301 -73 -10s-58 -17.667 -94 -33c-1.33301 2.66699 -3.33301 7.5 -6 14.5s-4.66699 11.833 -6 14.5c33.333 17.333 66.166 30 98.499 38s61.166 12 86.499 12c30.667 0 56.834 -3.5 78.501 -10.5
s39.5 -16.5 53.5 -28.5s24.167 -25.667 30.5 -41s9.5 -31.333 9.5 -48c0 -16 -3.16699 -32.5 -9.5 -49.5s-16.166 -33.333 -29.499 -49s-30.333 -30.167 -51 -43.5s-45.334 -24.333 -74.001 -33v-4z" />
    <glyph glyph-name="four" unicode="4" horiz-adv-x="502" 
d="M440 661l-27.5 -217l-26.5 -217h96l-4 -34h-97l-21 -193h-42l23 193h-322c1.33301 6 2.33301 11.833 3 17.5l2 17.5l187 217l185 216h44zM346 227c7.33301 64 15.001 127.667 23.001 191l24 190h-2c-4.66699 -6 -14.834 -18.167 -30.501 -36.5l-55 -64.5l-68.5 -79.5
l-70.5 -82l-61 -71.5l-40.5 -47h281z" />
    <glyph glyph-name="five" unicode="5" horiz-adv-x="502" 
d="M256 369c-19.333 0 -39.9971 -2.5 -61.9971 -7.5s-42.667 -12.167 -62 -21.5l-27 18l51 304h319l-5 -36h-283l-41 -247l19 7c7.33301 2.66699 16 5.5 26 8.5s21.833 5.5 35.5 7.5s29.834 3 48.501 3c22 0 43.5 -3 64.5 -9s39.833 -16 56.5 -30s30 -32 40 -54
s15 -49 15 -81c0 -41.333 -7 -77 -21 -107s-32.5 -54.833 -55.5 -74.5s-49.167 -34.334 -78.5 -44.001s-59.666 -14.5 -90.999 -14.5c-36.667 0 -69.167 2.83301 -97.5 8.5s-55.833 14.5 -82.5 26.5l15 33c32 -13.333 60.833 -21.833 86.5 -25.5s48.167 -5.5 67.5 -5.5
c31.333 0 60.166 4 86.499 12s49.166 20.167 68.499 36.5s34.333 37.166 45 62.499s16 55 16 89c0 24 -3.83301 44.833 -11.5 62.5s-18.334 32.334 -32.001 44.001s-29.834 20.334 -48.501 26.001s-39.334 8.5 -62.001 8.5z" />
    <glyph glyph-name="six" unicode="6" horiz-adv-x="502" 
d="M344 671c31.333 0 57.9971 -3 79.9971 -9s40 -12.667 54 -20l-14 -32c-24 10 -46.333 16.667 -67 20s-39 5 -55 5c-26.667 0 -50.5 -5.16699 -71.5 -15.5s-39.667 -23.666 -56 -39.999s-30.5 -35 -42.5 -56s-22.167 -41.833 -30.5 -62.5s-15.166 -40.334 -20.499 -59.001
s-9 -34.334 -11 -47.001c1.33301 -0.666992 2 -1.16699 2 -1.5s0.333008 -0.833008 1 -1.5c23.333 14.667 51.166 27.167 83.499 37.5s66.833 15.5 103.5 15.5c22.667 0 44.167 -3 64.5 -9s37.833 -15.667 52.5 -29s26.334 -30.833 35.001 -52.5s13 -48.167 13 -79.5
c0 -37.333 -5.83301 -70.833 -17.5 -100.5s-27.667 -55 -48 -76s-44.666 -37.167 -72.999 -48.5s-59.166 -17 -92.499 -17c-34 0 -62.5 5.5 -85.5 16.5s-41.167 26.333 -54.5 46s-22.833 42.834 -28.5 69.501s-8.5 56 -8.5 88c0 63.333 6.66699 122.833 20 178.5
s32.333 104.167 57 145.5s54.667 74 90 98s75.333 36 120 36zM289.997 369c-27.333 0 -52.1689 -3.00098 -74.502 -9.00098s-41.5 -12.5 -57.5 -19.5s-28.5 -13.667 -37.5 -20s-14.167 -9.83301 -15.5 -10.5c-1.33301 -14.667 -3 -30.167 -5 -46.5s-3 -34.166 -3 -53.499
c0 -22 1.83301 -43.833 5.5 -65.5s10.5 -41.167 20.5 -58.5s24 -31.333 42 -42s41 -16 69 -16c30 0 56.833 5.16699 80.5 15.5s43.667 24.5 60 42.5s28.833 39.333 37.5 64s13 51.667 13 81c0 20.667 -2.33301 39.5 -7 56.5s-12.167 31.5 -22.5 43.5
s-24.166 21.333 -41.499 28s-38.666 10 -63.999 10z" />
    <glyph glyph-name="seven" unicode="7" horiz-adv-x="502" 
d="M107 626l5 36h366l5 -36l-348 -626h-42l349 626h-335z" />
    <glyph glyph-name="eight" unicode="8" horiz-adv-x="502" 
d="M310 638c-30.667 0 -56.168 -5.49609 -76.501 -16.4961s-36.5 -23.833 -48.5 -38.5s-20.333 -29.834 -25 -45.501s-7 -27.834 -7 -36.501c0 -18.667 4.83301 -34.834 14.5 -48.501s22.334 -25.834 38.001 -36.501s33.667 -20.5 54 -29.5l62.5 -26.5
c47.333 30.667 79.5 60 96.5 88s25.5 54 25.5 78c0 13.333 -2 26.666 -6 39.999s-11 25.333 -21 36s-23.667 19.334 -41 26.001s-39.333 10 -66 10zM230.999 27.0039c32 0 59.668 5.00195 83.001 15.002s42.333 22.833 57 38.5s25.5 32.667 32.5 51s10.5 36.166 10.5 53.499
c0 25.333 -4.33301 46.5 -13 63.5s-21 31.833 -37 44.5s-35.833 24.167 -59.5 34.5l-80.5 33.5c-28 -14 -51.5 -29.333 -70.5 -46s-34.5 -34 -46.5 -52s-20.5 -36 -25.5 -54s-7.5 -35.333 -7.5 -52s2.66699 -32.834 8 -48.501s14.166 -29.5 26.499 -41.5
s28.5 -21.667 48.5 -29s44.667 -11 74 -11zM317 673.006c20.667 0 41.1689 -2.66797 61.502 -8.00098s38.166 -13.666 53.499 -24.999s27.833 -26 37.5 -44s14.5 -39.333 14.5 -64c0 -34 -10.333 -66.5 -31 -97.5s-53.334 -61.167 -98.001 -90.5
c33.333 -17.333 58.166 -38.833 74.499 -64.5s24.5 -56.5 24.5 -92.5c0 -23.333 -4.83301 -46.666 -14.5 -69.999s-24 -44.166 -43 -62.499s-42.833 -33.166 -71.5 -44.499s-61.667 -17 -99 -17c-34 0 -63.333 4.33301 -88 13s-44.667 20.167 -60 34.5
s-26.666 31.166 -33.999 50.499s-11 39.666 -11 60.999c0 44 13.333 86.167 40 126.5s67 73.5 121 99.5c-53.333 31.333 -80 71.666 -80 120.999c0 22 5 43.5 15 64.5s23.833 39.667 41.5 56s39 29.333 64 39s52.5 14.5 82.5 14.5z" />
    <glyph glyph-name="nine" unicode="9" horiz-adv-x="502" 
d="M185 -7c-31.333 0 -57.998 3 -79.998 9s-40 12.667 -54 20l14 32c24 -10 46.333 -16.667 67 -20s39 -5 55 -5c26.667 0 50.5 5.16699 71.5 15.5s39.667 23.666 56 39.999s30.5 35 42.5 56s22.167 41.833 30.5 62.5s15 40.334 20 59.001s8.83301 34.334 11.5 47.001
c-1.33301 0.666992 -2 1.16699 -2 1.5s-0.333008 0.833008 -1 1.5c-23.333 -14.667 -51.166 -27.167 -83.499 -37.5s-66.833 -15.5 -103.5 -15.5c-23.333 0 -45 3 -65 9s-37.333 15.667 -52 29s-26.334 30.833 -35.001 52.5s-13 48.167 -13 79.5
c0 36.667 5.83301 70 17.5 100s27.667 55.5 48 76.5s44.666 37.167 72.999 48.5s59.166 17 92.499 17c34 0 62.5 -5.5 85.5 -16.5s41.167 -26.333 54.5 -46s22.833 -42.834 28.5 -69.501s8.5 -56 8.5 -88c0 -63.333 -6.66699 -122.833 -20 -178.5
s-32.333 -104.167 -57 -145.5s-54.667 -74 -90 -98s-75.333 -36 -120 -36zM239.002 295c27.333 0 52.168 3.00098 74.501 9.00098s41.5 12.5 57.5 19.5s28.5 13.667 37.5 20s14.167 9.83301 15.5 10.5c1.33301 14.667 3 30.167 5 46.5s3 34.166 3 53.499
c0 22 -1.83301 43.833 -5.5 65.5s-10.5 41.167 -20.5 58.5s-24 31.333 -42 42s-41 16 -69 16c-30 0 -56.833 -5.16699 -80.5 -15.5s-43.667 -24.5 -60 -42.5s-28.833 -39.333 -37.5 -64s-13 -51.667 -13 -81c0 -20.667 2.16699 -39.5 6.5 -56.5s11.833 -31.5 22.5 -43.5
s24.667 -21.333 42 -28s38.666 -10 63.999 -10z" />
    <glyph glyph-name="colon" unicode=":" horiz-adv-x="154" 
d="M61 68c8 0 14.8311 -3 20.498 -9s8.5 -13.333 8.5 -22c0 -10.667 -3.83301 -20 -11.5 -28s-16.5 -12 -26.5 -12c-9.33301 0 -16.666 3 -21.999 9s-8 13.333 -8 22c0 10.667 3.83301 20 11.5 28s16.834 12 27.501 12zM98.998 377c8.66699 0 15.8301 -3.16699 21.4971 -9.5
s8.5 -13.833 8.5 -22.5c0 -10.667 -4.16699 -19.834 -12.5 -27.501s-17.166 -11.5 -26.499 -11.5s-16.666 3 -21.999 9s-8 13.667 -8 23c0 10.667 3.83301 19.834 11.5 27.501s16.834 11.5 27.501 11.5z" />
    <glyph glyph-name="semicolon" unicode=";" horiz-adv-x="154" 
d="M59 66c9.33301 0 17.167 -3.16504 23.5 -9.49805s9.5 -15.5 9.5 -27.5c0 -9.33301 -2 -20 -6 -32s-9.5 -24 -16.5 -36s-15.333 -23.5 -25 -34.5s-19.834 -20.167 -30.501 -27.5l-10 14c12 13.333 21.333 27.333 28 42s11 28.667 13 42
c-7.33301 1.33301 -13.166 4.66602 -17.499 9.99902s-6.5 11.666 -6.5 18.999c0 10.667 3.5 20 10.5 28s16.167 12 27.5 12zM99.001 377.002c8.66699 0 15.8301 -3.16699 21.4971 -9.5s8.5 -13.833 8.5 -22.5c0 -10.667 -4.16699 -19.834 -12.5 -27.501
s-17.166 -11.5 -26.499 -11.5s-16.666 3 -21.999 9s-8 13.667 -8 23c0 10.667 3.83301 19.834 11.5 27.501s16.834 11.5 27.501 11.5z" />
    <glyph glyph-name="less" unicode="&#x3c;" horiz-adv-x="502" 
d="M416 87l-334 191l4 36l381 190l-5 -41l-342 -167c0.666992 -0.666992 8.5 -5.16699 23.5 -13.5l55.5 -31l71.5 -40l71.5 -40l55.5 -31c15 -8.33301 22.833 -12.833 23.5 -13.5z" />
    <glyph glyph-name="equal" unicode="=" horiz-adv-x="502" 
d="M88 353l4 35h361l-4 -35h-361zM71 213l4 34h361l-5 -34h-360z" />
    <glyph glyph-name="greater" unicode="&#x3e;" horiz-adv-x="502" 
d="M64 128l342 169c-0.666992 0 -8.5 4.16699 -23.5 12.5l-56 31l-71.5 40l-71.5 40l-56 30.5c-15 8 -22.833 12.333 -23.5 13l5 40l335 -190l-5 -36l-381 -191z" />
    <glyph glyph-name="question" unicode="?" horiz-adv-x="402" 
d="M266 702c54 0 93.8301 -10.1641 119.497 -30.4971s38.5 -48.5 38.5 -84.5c0 -17.333 -3 -33.333 -9 -48s-14.167 -28.5 -24.5 -41.5s-22.166 -25.333 -35.499 -37s-27 -22.834 -41 -33.501c-27.333 -20 -50.666 -38.333 -69.999 -55s-35.166 -33 -47.499 -49
s-21.5 -32.5 -27.5 -49.5s-9 -35.833 -9 -56.5c0 -7.33301 0.166992 -14.5 0.5 -21.5s0.833008 -14.5 1.5 -22.5l-36 -7c-0.666992 9.33301 -1.16699 18 -1.5 26s-0.5 15.667 -0.5 23c0 20.667 2.33301 40.167 7 58.5s12.834 36.166 24.501 53.499
s27.167 35.166 46.5 53.499s43.666 38.5 72.999 60.5c31.333 23.333 57 45.5 77 66.5s30 46.167 30 75.5c0 15.333 -3.16699 28.333 -9.5 39s-14.833 19.167 -25.5 25.5s-23.167 11 -37.5 14s-29.833 4.5 -46.5 4.5c-19.333 0 -42 -1.83301 -68 -5.5
s-56 -10.834 -90 -21.501l-9 33c30.667 10.667 61 18.334 91 23.001s56.333 7 79 7zM149.997 65.0029c9.33301 0 16.832 -2.99902 22.499 -8.99902s8.5 -13.333 8.5 -22c0 -12 -4.16699 -22 -12.5 -30s-17.166 -12 -26.499 -12c-8.66699 0 -16.167 3.16699 -22.5 9.5
s-9.5 14.166 -9.5 23.499c0 10.667 4 20 12 28s17.333 12 28 12z" />
    <glyph glyph-name="at" unicode="@" horiz-adv-x="853" 
d="M509 704c48.667 0 92.0059 -6.6709 130.006 -20.0039s70 -32.166 96 -56.499s45.833 -54 59.5 -89s20.5 -74.5 20.5 -118.5c0 -46.667 -6.5 -86.667 -19.5 -120s-29.5 -60.833 -49.5 -82.5s-41.667 -37.667 -65 -48s-45.333 -15.5 -66 -15.5
c-33.333 0 -57 10.167 -71 30.5s-21 46.166 -21 77.499c0 3.33301 0.166992 6.5 0.5 9.5s0.5 6.16699 0.5 9.5c-21.333 -47.333 -45.833 -80.333 -73.5 -99s-54.834 -28 -81.501 -28c-32 0 -57.167 11.833 -75.5 35.5s-27.5 56.5 -27.5 98.5
c0 36.667 4.16699 71.334 12.5 104.001s20.666 61.334 36.999 86.001s36.833 44.334 61.5 59.001s53.667 22 87 22c17.333 0 34.5 -2.16699 51.5 -6.5s34.167 -10.166 51.5 -17.499l9 22c5.33301 -0.666992 10 -1.16699 14 -1.5s8.33301 -0.5 13 -0.5
c-5.33301 -28.667 -11 -57.667 -17 -87l-16.5 -84c-5 -26.667 -9 -50.667 -12 -72s-4.5 -38 -4.5 -50c0 -23.333 5.66699 -42 17 -56s27.666 -21 48.999 -21c15.333 0 32.5 4.33301 51.5 13s36.667 22.334 53 41.001s30.166 42.667 41.499 72s17 64.666 17 105.999
c0 83.333 -24.167 146.833 -72.5 190.5s-115.833 65.5 -202.5 65.5c-57.333 0 -109.833 -10.167 -157.5 -30.5s-88.667 -47.833 -123 -82.5s-61.166 -75 -80.499 -121s-29 -94.333 -29 -145c0 -42 6.66699 -80.667 20 -116s32.166 -65.666 56.499 -90.999
s53.666 -45.166 87.999 -59.499s72.5 -21.5 114.5 -21.5c18 0 36.5 0.833008 55.5 2.5s40.167 6.16699 63.5 13.5c1.33301 -4.66699 2.83301 -9.33398 4.5 -14.001s3.16699 -9.33398 4.5 -14.001c-8 -3.33301 -17.5 -6.16602 -28.5 -8.49902s-22.333 -4.33301 -34 -6
s-23.334 -2.83398 -35.001 -3.50098s-21.834 -1 -30.501 -1c-48 0 -91.167 7.66699 -129.5 23s-71.166 37 -98.499 65s-48.333 61.333 -63 100s-22 81.334 -22 128.001c0 58 10.833 112 32.5 162s51.5 93.667 89.5 131s83 66.666 135 87.999s108.333 32 169 32z
M378.006 184.996c16 0 32.332 4.83398 48.999 14.501s33 26.5 49 50.5s31 56.5 45 97.5s26.667 93.167 38 156.5c-18 9.33301 -35.667 15.666 -53 18.999s-32.666 5 -45.999 5c-24.667 0 -46.834 -6.16699 -66.501 -18.5s-36.167 -29 -49.5 -50s-23.666 -45.5 -30.999 -73.5
s-11 -57.333 -11 -88c0 -38 6.83301 -66.333 20.5 -85s32.167 -28 55.5 -28z" />
    <glyph glyph-name="A" unicode="A" horiz-adv-x="519" 
d="M433 0c-6.66699 32 -12.833 63.833 -18.5 95.5l-17.5 95.5h-279l-81 -191h-45l150.5 345.5l147.5 336.5h56l64.5 -341l65.5 -341h-43zM312.001 643l-31.5 -71.5l-33.5 -79.5l-54.5 -129l-58.5 -136h256l-47 259l-28 157h-3z" />
    <glyph glyph-name="B" unicode="B" horiz-adv-x="550" 
d="M395 354c20.667 -7.33301 37.5 -16.999 50.5 -28.999s22.833 -25 29.5 -39s11.167 -28.333 13.5 -43s3.5 -28 3.5 -40c0 -30 -5.5 -57.333 -16.5 -82s-25.667 -46 -44 -64s-39.333 -32 -63 -42s-48.5 -15 -74.5 -15h-244l83 682h210c29.333 0 54.666 -3.66699 75.999 -11
s38.833 -17.5 52.5 -30.5s23.834 -28.5 30.501 -46.5s10 -38 10 -60c0 -15.333 -1.66699 -31.5 -5 -48.5s-9.5 -33.5 -18.5 -49.5s-21 -30.833 -36 -44.5s-33.833 -24.834 -56.5 -33.501zM133 336.001l-18.0039 -150c-6 -50 -12.333 -100 -19 -150h188
c28.667 0 53.334 4.5 74.001 13.5s37.834 21.333 51.501 37s23.834 33.667 30.501 54s10 41.5 10 63.5c0 18 -2.83301 35 -8.5 51s-14 30 -25 42s-24.667 21.5 -41 28.5s-35.166 10.5 -56.499 10.5h-186zM171.996 646.001c-6 -46 -11.667 -91.5 -17 -136.5l-16 -136.5h169
c23.333 0 44.833 3.83301 64.5 11.5s36.667 18.5 51 32.5s25.5 30.833 33.5 50.5s12 41.167 12 64.5c0 34 -10.667 61.5 -32 82.5s-56 31.5 -104 31.5h-161z" />
    <glyph glyph-name="C" unicode="C" horiz-adv-x="540" 
d="M386 693c34.667 0 65.8301 -2.66895 93.4971 -8.00195s50.167 -11.333 67.5 -18l-13 -34c-24 8 -48.833 14 -74.5 18s-49.834 6 -72.501 6c-46.667 0 -87 -10 -121 -30s-62.167 -48 -84.5 -84s-39 -78.833 -50 -128.5s-16.5 -103.834 -16.5 -162.501
c0 -30.667 2.66699 -59.5 8 -86.5s15.166 -50.5 29.499 -70.5s34 -35.833 59 -47.5s57.5 -17.5 97.5 -17.5c8.66699 0 19.5 0.333008 32.5 1s26.833 2 41.5 4s29.834 4.5 45.501 7.5s30.834 6.5 45.501 10.5l9 -33c-12.667 -4.66699 -26.667 -8.66699 -42 -12
s-31.166 -6.16602 -47.499 -8.49902s-32.666 -4 -48.999 -5s-31.5 -1.5 -45.5 -1.5c-42 0 -77.5 6 -106.5 18s-52.5 29.333 -70.5 52s-31.167 50.334 -39.5 83.001s-12.5 69.334 -12.5 110.001c0 24 1.66699 51.5 5 82.5s9.16602 62.667 17.499 95s20 64 35 95
s34.333 58.667 58 83s51.834 44 84.501 59s71.334 22.5 116.001 22.5z" />
    <glyph glyph-name="D" unicode="D" horiz-adv-x="591" 
d="M51 0l83 683h192c44 0 80.5 -6.83301 109.5 -20.5s52 -32.5 69 -56.5s29 -52.167 36 -84.5s10.5 -67.166 10.5 -104.499c0 -55.333 -5.33301 -108 -16 -158s-28.5 -94.333 -53.5 -133s-57.667 -69.334 -98 -92.001s-89.833 -34 -148.5 -34h-184zM172 647
l-74.001 -609.999h134c10 0 23.833 0.833008 41.5 2.5s36.667 6.16699 57 13.5s41 18.666 62 33.999s40 36.833 57 64.5s31 62.5 42 104.5s16.5 93.667 16.5 155c0 58 -7.16699 102.833 -21.5 134.5s-31.666 55 -51.999 70s-41.833 24 -64.5 27s-42 4.5 -58 4.5h-140z" />
    <glyph glyph-name="E" unicode="E" horiz-adv-x="489" 
d="M51 0l83 683h362l-4 -36h-320l-33 -267h282l-4 -36h-283l-37 -308h347l-3 -36h-390z" />
    <glyph glyph-name="F" unicode="F" horiz-adv-x="467" 
d="M51 0l83 683h362l-4 -37h-320l-33 -267h280l-5 -37h-280l-41 -342h-42z" />
    <glyph glyph-name="G" unicode="G" horiz-adv-x="581" 
d="M400 693c34.667 0 65.502 -2.3291 92.502 -6.99609s50.833 -10.334 71.5 -17.001l-12 -35c-26 7.33301 -52.333 12.833 -79 16.5s-51 5.5 -73 5.5c-47.333 0 -88.833 -9.83301 -124.5 -29.5s-65.5 -47.167 -89.5 -82.5s-42 -78 -54 -128s-18 -105 -18 -165
c0 -30 2.83301 -58.333 8.5 -85s15.667 -50 30 -70s34.333 -35.833 60 -47.5s58.5 -17.5 98.5 -17.5c9.33301 0 20.166 0.5 32.499 1.5s25 2.33301 38 4s25.667 3.66699 38 6s23.166 5.16602 32.499 8.49902l36 291h41l-40 -321c-32 -10 -64 -17.167 -96 -21.5
s-63.333 -6.5 -94 -6.5c-41.333 0 -76.5 6 -105.5 18s-52.667 29.167 -71 51.5s-31.666 49.666 -39.999 81.999s-12.5 68.833 -12.5 109.5c0 24 1.66699 51.5 5 82.5s9.5 62.667 18.5 95s21.333 64.166 37 95.499s35.667 59.333 60 84s53.666 44.5 87.999 59.5
s74.833 22.5 121.5 22.5z" />
    <glyph glyph-name="H" unicode="H" horiz-adv-x="590" 
d="M443 0l42.0039 342.002h-350l-41 -342h-43l83 683h43c-0.666992 -4.66699 -1.83398 -14.834 -3.50098 -30.501s-3.83398 -34 -6.50098 -55s-5.33398 -43.167 -8.00098 -66.5s-5.33398 -45.333 -8.00098 -66l-7 -54.5c-2 -15.667 -3.33301 -25.834 -4 -30.501h349l37 303
h44l-83 -683h-44z" />
    <glyph glyph-name="I" unicode="I" horiz-adv-x="216" 
d="M61 0l83 683h43l-84 -683h-42z" />
    <glyph glyph-name="J" unicode="J" horiz-adv-x="261" 
d="M179 683h42l-69 -574c-5.33301 -39.333 -12.833 -74.333 -22.5 -105s-23.334 -57.5 -41.001 -80.5s-39.5 -42.667 -65.5 -59s-57.333 -30.5 -94 -42.5l-12 34c34 12 62.167 25.833 84.5 41.5s40.833 33.5 55.5 53.5s25.834 42.833 33.501 68.5s13.5 54.5 17.5 86.5z" />
    <glyph glyph-name="K" unicode="K" horiz-adv-x="515" 
d="M93 0h-42l83 683h42l-42 -340l365 340h52l-296 -274l217 -409h-46l-201 379l-97 -89z" />
    <glyph glyph-name="L" unicode="L" horiz-adv-x="507" 
d="M72 0l83 683h42l-79 -647h354l-4 -36h-396z" />
    <glyph glyph-name="M" unicode="M" horiz-adv-x="734" 
d="M364 111l58.001 131.002l200 441h48l-9 -683h-41l7 456l4 149h-4c-2 -4 -5.16699 -11 -9.5 -21l-15 -34.5l-18.5 -42l-20 -44.5l-187 -404h-43l-98 403c-7.33301 29.333 -13.833 57.666 -19.5 84.999s-9.83398 45.666 -12.501 54.999h-4
c-3.33301 -15.333 -7.5 -36 -12.5 -62l-15.5 -83l-13 -69l-21.5 -111.5l-27 -135.5l-28.5 -141h-43l139 683h45l108 -442l29 -130h4z" />
    <glyph glyph-name="N" unicode="N" horiz-adv-x="623" 
d="M486 76l74 607h43l-84 -683h-42l-249 493l-58 119l-3 -1l-74 -611h-42l83 683h43l24.5 -48l46 -90.5l56.5 -112.5l56.5 -112.5l46 -90.5l24.5 -48l52 -105h3z" />
    <glyph glyph-name="O" unicode="O" horiz-adv-x="643" 
d="M379 693c43.333 0 79.333 -7.33594 108 -22.0029s51.667 -34.667 69 -60s29.5 -54.666 36.5 -87.999s10.5 -69 10.5 -107c0 -57.333 -6.5 -111.666 -19.5 -162.999s-32.167 -96.166 -57.5 -134.499s-56.833 -68.833 -94.5 -91.5s-81.167 -34 -130.5 -34
c-42 0 -77.667 6 -107 18s-53.166 29.5 -71.499 52.5s-31.666 50.833 -39.999 83.5s-12.5 70 -12.5 112c0 53.333 5.33301 105.833 16 157.5s28.167 98 52.5 139s56.166 74.167 95.499 99.5s87.666 38 144.999 38zM380 657.997c-52 0 -95.333 -12.333 -130 -37
s-62.167 -56.334 -82.5 -95.001s-34.666 -81.667 -42.999 -129s-12.5 -93.333 -12.5 -138c0 -75.333 14.667 -132.666 44 -171.999s77 -59 143 -59c46.667 0 86.5 11.5 119.5 34.5s60 52.833 81 89.5s36.333 78.167 46 124.5s14.5 92.833 14.5 139.5
c0 30 -2.5 59.5 -7.5 88.5s-14 54.833 -27 77.5s-31.333 41 -55 55s-53.834 21 -90.501 21z" />
    <glyph glyph-name="P" unicode="P" horiz-adv-x="489" 
d="M330 683c24.667 0 47.5 -3.33301 68.5 -10s39.167 -16.834 54.5 -30.501s27.333 -30.834 36 -51.501s13 -45 13 -73c0 -23.333 -3.5 -48.166 -10.5 -74.499s-18.833 -50.666 -35.5 -72.999s-39 -40.833 -67 -55.5s-63 -22 -105 -22h-155l-35 -293h-43l83 683h196z
M173 647l-39 -318h157c16.667 0 35 2.83301 55 8.5s38.333 15.667 55 30s30.667 33.5 42 57.5s17 54.333 17 91c0 22 -3.33301 41.167 -10 57.5s-16 30 -28 41s-26.167 19.167 -42.5 24.5s-33.833 8 -52.5 8h-154z" />
    <glyph glyph-name="Q" unicode="Q" horiz-adv-x="644" 
d="M379 692c43.333 0 79.332 -7.33301 107.999 -22s51.667 -34.5 69 -59.5s29.5 -54.333 36.5 -88s10.5 -69.5 10.5 -107.5c0 -48 -4.5 -93.833 -13.5 -137.5s-22.5 -83.5 -40.5 -119.5s-40.333 -67 -67 -93s-57.334 -45 -92.001 -57l157 -43l-22 -44l-207 74
c-3.33301 -0.666992 -6.33301 -1.16699 -9 -1.5s-5.66699 -0.5 -9 -0.5c-42 0 -77.667 6 -107 18s-53.166 29.5 -71.499 52.5s-31.666 50.833 -39.999 83.5s-12.5 70 -12.5 112c0 52.667 5.33301 105 16 157s28.167 98.333 52.5 139s56.333 73.667 96 99s88.167 38 145.5 38
zM378.999 657c-52 0 -95.1689 -12.333 -129.502 -37s-61.666 -56.334 -81.999 -95.001s-34.666 -81.5 -42.999 -128.5s-12.5 -92.833 -12.5 -137.5c0 -76.667 14.5 -134.334 43.5 -173.001s76.833 -58 143.5 -58c46.667 0 86.334 11.333 119.001 34s59.5 52.334 80.5 89.001
s36.333 78.167 46 124.5s14.5 92.833 14.5 139.5c0 30.667 -2.5 60.5 -7.5 89.5s-14 54.833 -27 77.5s-31.333 40.834 -55 54.501s-53.834 20.5 -90.501 20.5z" />
    <glyph glyph-name="R" unicode="R" horiz-adv-x="532" 
d="M504 516c-0.666992 -20 -4.00195 -40.167 -10.002 -60.5s-14.833 -39.5 -26.5 -57.5s-26.167 -33.667 -43.5 -47s-38 -22.666 -62 -27.999c26.667 -9.33301 46 -23.833 58 -43.5s20.667 -43.5 26 -71.5l35 -208h-43l-35 200c-4 22.667 -10.333 41.167 -19 55.5
s-19 25.666 -31 33.999s-25.5 14.166 -40.5 17.499s-30.833 5 -47.5 5h-133l-39 -312h-42l83 683h198c32.667 0 60.334 -4.33301 83.001 -13s40.834 -20.5 54.501 -35.5s23.167 -32.667 28.5 -53s7.33301 -42.166 6 -65.499zM291.998 348c22.667 0 44 3.33398 64 10.001
s37.5 16.667 52.5 30s27 30.5 36 51.5s14.167 45.833 15.5 74.5c2 45.333 -9.33301 78.666 -34 99.999s-57.667 32 -99 32h-155l-37 -298h157z" />
    <glyph glyph-name="S" unicode="S" horiz-adv-x="519" 
d="M315 694c22 0 48.1699 -2.00098 78.5029 -6.00098s59.166 -12.333 86.499 -25l-17 -36c-31.333 11.333 -59 18.833 -83 22.5s-47.667 5.5 -71 5.5c-20.667 0 -41.167 -2.16699 -61.5 -6.5s-38.666 -12 -54.999 -23s-29.666 -25.5 -39.999 -43.5s-15.5 -40.333 -15.5 -67
c0 -21.333 3.66699 -39.166 11 -53.499s17.666 -26.666 30.999 -36.999s29.666 -19.333 48.999 -27s40.666 -15.5 63.999 -23.5c22 -7.33301 44.333 -15.333 67 -24s43.167 -19.834 61.5 -33.501s33.166 -30.5 44.499 -50.5s17 -44.667 17 -74
c0 -37.333 -7.33301 -68.666 -22 -93.999s-34 -45.833 -58 -61.5s-51 -26.834 -81 -33.501s-60 -10 -90 -10c-32.667 0 -66.334 3.66699 -101.001 11s-67 20 -97 38l18 34c34 -18.667 65.667 -31 95 -37s58 -9 86 -9c24 0 48.167 2.5 72.5 7.5s46.5 13.5 66.5 25.5
s36.167 28.167 48.5 48.5s18.5 45.5 18.5 75.5c0 20.667 -3.66699 38.5 -11 53.5s-17.666 28.167 -30.999 39.5s-29.5 21.333 -48.5 30s-40.5 16.667 -64.5 24c-28 8.66699 -53.667 17.834 -77 27.501s-43.5 21.167 -60.5 34.5s-30.167 29.166 -39.5 47.499
s-14 40.833 -14 67.5c0 32.667 6 60.5 18 83.5s28.167 41.833 48.5 56.5s44 25.5 71 32.5s55.5 10.5 85.5 10.5z" />
    <glyph glyph-name="T" unicode="T" horiz-adv-x="501" 
d="M205 0l78 646h-213l5 37h466l-4 -37h-212l-80 -646h-40z" />
    <glyph glyph-name="U" unicode="U" horiz-adv-x="629" 
d="M558 241c-4.66699 -36.667 -13.165 -70.167 -25.498 -100.5s-29 -56.5 -50 -78.5s-46.667 -39 -77 -51s-65.833 -18 -106.5 -18c-83.333 0 -142.833 22 -178.5 66s-48.834 104.667 -39.501 182l54 442h41l-53 -440c-8.66699 -70.667 2.16602 -124 32.499 -160
s78.833 -54 145.5 -54c64 0 113.833 19.333 149.5 58s57.5 90.667 65.5 156l54 440h42z" />
    <glyph glyph-name="V" unicode="V" horiz-adv-x="494" 
d="M228 45l54 134l212 504h43l-288 -683h-54l-122 683h44l86 -507l22 -131h3z" />
    <glyph glyph-name="W" unicode="W" horiz-adv-x="765" 
d="M422 619l-31.5 -90l-30.5 -90l-154 -439h-56l-78 682h42l24 -225.5l25 -224.5l19 -185h3l49 141l87 246.5l87 247.5h45c4.66699 -36.667 10 -76 16 -118l18 -126.5l18 -125.5l16 -114c3.33301 -27.333 6.83301 -53.833 10.5 -79.5l10.5 -71.5h3l27 77.5l26 77.5l84 239.5
l84 240.5h41l-122.5 -345l-120.5 -337h-53l-31 220.5l-31 221.5c-3.33301 30 -7 59.5 -11 88.5l-12 88.5h-4z" />
    <glyph glyph-name="X" unicode="X" horiz-adv-x="494" 
d="M258 319l-223 -319h-47l250 353l-154 329h46l136 -296l208 296h46l-117 -165l-118 -165l83 -176.5l83 -175.5h-46z" />
    <glyph glyph-name="Y" unicode="Y" horiz-adv-x="465" 
d="M221 306l-148 377h44l84 -216l43 -118h3l72 112l145 222h47l-246 -373l-38 -310h-43z" />
    <glyph glyph-name="Z" unicode="Z" horiz-adv-x="471" 
d="M99 683h386l5 -38l-444 -607h387l-5 -38h-428l-4 38l445 608h-347z" />
    <glyph glyph-name="bracketleft" unicode="[" horiz-adv-x="228" 
d="M13 -160l106 856h132c0 -2.66699 -0.666992 -8.66699 -2 -18s-2 -15.333 -2 -18h-93l-96 -784h92l-4 -36h-133z" />
    <glyph glyph-name="backslash" unicode="\" horiz-adv-x="306" 
d="M69 698h32l162 -724h-33z" />
    <glyph glyph-name="bracketright" unicode="]" horiz-adv-x="228" 
d="M-7 -160c0.666992 3.33301 1.5 9.5 2.5 18.5s1.5 14.833 1.5 17.5h93l96 784h-93l5 36h133l-7 -58l-12 -100l-15.5 -128l-17.5 -142l-17.5 -142l-16 -128l-12.5 -100l-7 -58h-133z" />
    <glyph glyph-name="asciicircum" unicode="^" horiz-adv-x="410" 
d="M368 397l-108 250l-170 -250h-40l198 286h34l123 -286h-37z" />
    <glyph glyph-name="underscore" unicode="_" horiz-adv-x="485" 
d="M-39 -119l3 29h484l-3 -29h-484z" />
    <glyph glyph-name="grave" unicode="`" horiz-adv-x="461" 
d="M182 672l38 30l100 -144l-22 -16z" />
    <glyph glyph-name="a" unicode="a" horiz-adv-x="478" 
d="M277 492c21.333 0 42.5039 -2.49902 63.5039 -7.49902s41.833 -12.167 62.5 -21.5l8 26l29 -1c-0.666992 -6 -2.5 -20.167 -5.5 -42.5l-10.5 -80l-12.5 -99.5l-12.5 -100.5l-10.5 -83c-3 -23.667 -4.83301 -39.5 -5.5 -47.5l63 2l2 -26
c-13.333 -5.33301 -25.833 -9.16602 -37.5 -11.499s-21.5 -3.5 -29.5 -3.5c-14.667 0 -24.667 3.16699 -30 9.5s-7.33301 16.166 -6 29.499c0 0.666992 0.166992 2.5 0.5 5.5s0.666016 6.5 0.999023 10.5s0.666016 7.66699 0.999023 11s0.5 5.33301 0.5 6l-1 2
c-30 -24.667 -59.333 -43.5 -88 -56.5s-57.334 -19.5 -86.001 -19.5c-38.667 0 -70.5 14.333 -95.5 43s-37.833 70 -38.5 124c0 40 4.66699 79.833 14 119.5s23.666 75.167 42.999 106.5s44 56.666 74 75.999s65.667 29 107 29zM274.004 458.001
c-26.667 0 -51.667 -6.66406 -75 -19.9971s-43.833 -32.333 -61.5 -57s-31.5 -54.834 -41.5 -90.501s-15 -75.834 -15 -120.501c0 -50 10 -86.167 30 -108.5s44 -33.5 72 -33.5c28.667 0 57.334 8 86.001 24s56.334 35 83.001 57l43 319
c-22.667 11.333 -43.834 19.166 -63.501 23.499s-38.834 6.5 -57.501 6.5z" />
    <glyph glyph-name="b" unicode="b" horiz-adv-x="479" 
d="M39 36l85.002 678h40l-18 -153c-6 -52 -12.667 -100 -20 -144l2 -3c31.333 24.667 61.333 44.167 90 58.5s57 21.5 85 21.5c38 0 70.167 -14 96.5 -42s39.5 -70 39.5 -126c0 -41.333 -4.83301 -82 -14.5 -122s-24.834 -75.5 -45.501 -106.5s-46.334 -56 -77.001 -75
s-67 -28.5 -109 -28.5c-25.333 0 -50.833 2.83301 -76.5 8.5s-50.167 14.167 -73.5 25.5zM195.002 28c26.667 0 52.166 6.33496 76.499 19.002s45.833 31.5 64.5 56.5s33.5 55.667 44.5 92s16.5 78.166 16.5 125.499c0 49.333 -10.167 84.666 -30.5 105.999
s-44.5 32 -72.5 32c-14 0 -28.5 -2.5 -43.5 -7.5s-29.667 -11.333 -44 -19s-28.5 -16.5 -42.5 -26.5s-27.333 -20 -40 -30l-42 -323c20.667 -10 40.334 -16.667 59.001 -20s36.667 -5 54 -5z" />
    <glyph glyph-name="c" unicode="c" horiz-adv-x="413" 
d="M207 26c26 0 50.165 2.83301 72.498 8.5s47.5 14.167 75.5 25.5c0.666992 -2.66699 2.33398 -7.16699 5.00098 -13.5s4.66699 -10.833 6 -13.5c-20 -11.333 -44.5 -20.833 -73.5 -28.5s-58.5 -11.5 -88.5 -11.5s-55.5 4.33301 -76.5 13s-38 21 -51 37
s-22.333 35.167 -28 57.5s-8.5 47.166 -8.5 74.499c0 17.333 1.16699 37.166 3.5 59.499s6.5 45.333 12.5 69s14.5 46.834 25.5 69.501s25.167 43 42.5 61s38.333 32.5 63 43.5s54 16.5 88 16.5c25.333 0 49 -2.5 71 -7.5s41.667 -12.167 59 -21.5l-14 -29
c-24 10.667 -46.333 17.334 -67 20.001s-38 4 -52 4c-31.333 0 -58.833 -7.16699 -82.5 -21.5s-43.667 -34.333 -60 -60s-28.666 -55.834 -36.999 -90.501s-12.5 -72 -12.5 -112c0 -20.667 2 -40.167 6 -58.5s11 -34.166 21 -47.499s23.167 -24 39.5 -32s36.5 -12 60.5 -12z
" />
    <glyph glyph-name="d" unicode="d" horiz-adv-x="465" 
d="M340 0l9.00195 68.002l-2 2c-30 -24.667 -59.333 -43.5 -88 -56.5s-57 -19.5 -85 -19.5c-39.333 0 -71.5 14.333 -96.5 43s-37.5 70 -37.5 124c0 40 4.5 79.833 13.5 119.5s23.167 75.167 42.5 106.5s44 56.666 74 75.999s65.667 29 107 29
c21.333 0 42.166 -2.33301 62.499 -7s40.166 -11.334 59.499 -20.001l31 244h38l-89 -709h-39zM274.002 458.002c-26.667 0 -51.667 -6.66406 -75 -19.9971s-43.833 -32.333 -61.5 -57s-31.5 -54.834 -41.5 -90.501s-15 -75.834 -15 -120.501c0 -50 10 -86.167 30 -108.5
s44 -33.5 72 -33.5c28.667 0 57.5 8 86.5 24s56.833 35 83.5 57l41 319c-22.667 11.333 -43.5 19.166 -62.5 23.499s-38.167 6.5 -57.5 6.5z" />
    <glyph glyph-name="e" unicode="e" horiz-adv-x="420" 
d="M278 494c22 0 41.0029 -3.16992 57.0029 -9.50293s29 -14.666 39 -24.999s17.333 -22.166 22 -35.499s7 -27 7 -41c0 -32.667 -8.83301 -60 -26.5 -82s-41.167 -39.833 -70.5 -53.5s-63.5 -24 -102.5 -31s-79.833 -11.833 -122.5 -14.5
c-0.666992 -7.33301 -1 -13.5 -1 -18.5v-13.5c0 -16.667 1.66699 -33.5 5 -50.5s9.66602 -32.5 18.999 -46.5s22 -25.333 38 -34s37 -13 63 -13c48.667 0 97 11 145 33l11 -27c-21.333 -12 -45.833 -21.333 -73.5 -28s-57.5 -10 -89.5 -10s-58.333 4.83301 -79 14.5
s-36.834 23 -48.501 40s-19.834 36.5 -24.501 58.5s-7 45.667 -7 71c0 30.667 3.66699 64.334 11 101.001s20.166 71 38.499 103s42.833 58.667 73.5 80s69.334 32 116.001 32zM272.003 458.997c-28 0 -52.833 -6.16699 -74.5 -18.5s-40.5 -28.833 -56.5 -49.5
s-28.833 -44.667 -38.5 -72s-16.167 -56 -19.5 -86c88.667 4.66699 157.5 18.5 206.5 41.5s73.5 57.167 73.5 102.5c0 24.667 -7.33301 44.5 -22 59.5s-37.667 22.5 -69 22.5z" />
    <glyph glyph-name="f" unicode="f" horiz-adv-x="287" 
d="M164 452l-42.0029 -379.002c-4.66699 -38.667 -10.167 -75.5 -16.5 -110.5s-15.666 -65.667 -27.999 -92s-29.166 -47.333 -50.499 -63s-49 -23.5 -83 -23.5c-10 0 -21.833 0.833008 -35.5 2.5s-27.167 4.16699 -40.5 7.5l8 30c13.333 -2.66699 25 -4.66699 35 -6
s19.667 -2 29 -2c19.333 0 36.333 3.33301 51 10s27.334 17.5 38.001 32.5s19.5 34.5 26.5 58.5s12.833 53.667 17.5 89c16 124.667 28.167 225 36.5 301s13.5 124.333 15.5 145h-80l3 23c2 0.666992 7 1.66699 15 3s16.5 2.66602 25.5 3.99902s17.5 2.66602 25.5 3.99902
s13 2.33301 15 3l5 37c4 32 9.66699 60.333 17 85s17.333 45.334 30 62.001s28.667 29.334 48 38.001s42.666 13 69.999 13c10 0 21.667 -0.5 35 -1.5s26.666 -3.16699 39.999 -6.5c-0.666992 -3.33301 -1.66699 -8.83301 -3 -16.5s-2.66602 -13.167 -3.99902 -16.5
c-13.333 2.66699 -25.166 4.33398 -35.499 5.00098s-20.166 1 -29.499 1c-16.667 0 -32 -1.83301 -46 -5.5s-26.667 -11.667 -38 -24s-21 -30.166 -29 -53.499s-14 -54.333 -18 -93c0 -2 -0.333008 -6.83301 -1 -14.5s-1.33398 -12.167 -2.00098 -13.5h139l-4 -33h-139z" />
    <glyph glyph-name="g" unicode="g" horiz-adv-x="479" 
d="M384 5c-3.33301 -24.667 -8.16699 -50.166 -14.5 -76.499s-17.333 -50.5 -33 -72.5s-37.167 -40 -64.5 -54s-64 -21 -110 -21c-25.333 0 -49.333 3.16699 -72 9.5s-41 12.833 -55 19.5c2 5.33301 4.16699 10.833 6.5 16.5s4.83301 11.167 7.5 16.5
c17.333 -8 36.666 -14.333 57.999 -19s41.666 -7 60.999 -7c36 0 65 5.66699 87 17s39.333 26.666 52 45.999s22 42.333 28 69s11 55 15 85c0.666992 6.66699 1.33398 12.834 2.00098 18.501s1.66699 11.5 3 17.5c0 0.666992 -0.333008 1 -1 1s-1 0.333008 -1 1
c-30 -25.333 -59.5 -44.833 -88.5 -58.5s-57.833 -20.5 -86.5 -20.5c-38 0 -70 13.667 -96 41s-39.333 69.333 -40 126v3c0 41.333 5 81.666 15 120.999s25.167 74.5 45.5 105.5s46 55.833 77 74.5s67.167 28 108.5 28c25.333 0 50.833 -2.83301 76.5 -8.5
s49.834 -14.167 72.501 -25.5l4 -8zM285.999 458.001c-26.667 0 -52.167 -6.33301 -76.5 -19s-45.833 -31.5 -64.5 -56.5s-33.5 -55.667 -44.5 -92s-16.5 -77.833 -16.5 -124.5c0 -50 10.167 -85.833 30.5 -107.5s44.5 -32.5 72.5 -32.5c28.667 0 57.667 8.5 87 25.5
s57.333 36.5 84 58.5l42 323c-21.333 10 -41.333 16.667 -60 20s-36.667 5 -54 5z" />
    <glyph glyph-name="h" unicode="h" horiz-adv-x="464" 
d="M125 408c35.333 28 69.3359 49.3359 102.003 64.0029s63 22 91 22c20 0 36.833 -2.66699 50.5 -8s24.5 -12.5 32.5 -21.5s13.667 -19.5 17 -31.5s5 -24.667 5 -38v-15.5c0 -5 -0.666992 -10.167 -2 -15.5l-40 -364h-40l39 339c2 14 3 27.333 3 40
c0 23.333 -5.16699 42.666 -15.5 57.999s-30.833 23 -61.5 23c-28.667 0 -58.834 -8.66699 -90.501 -26s-63.834 -39.333 -96.501 -66l-22 -184l-23 -184h-39l86 714h40c-1.33301 -8.66699 -3 -21.334 -5 -38.001l-7 -56l-8 -65
c-2.66699 -22.667 -5.33398 -43.834 -8.00098 -63.501l-7 -51.5c-2 -14.667 -3.33301 -24.667 -4 -30z" />
    <glyph glyph-name="i" unicode="i" horiz-adv-x="199" 
d="M53 0l59 486h40l-60 -486h-39zM149 644c8.66699 0 15.499 -2.66699 20.499 -8s7.5 -12.333 7.5 -21c0 -10 -3.16699 -18.667 -9.5 -26s-14.833 -11 -25.5 -11c-7.33301 0 -13.666 2.83301 -18.999 8.5s-8 12.5 -8 20.5c0 10.667 3.5 19.5 10.5 26.5
s14.833 10.5 23.5 10.5z" />
    <glyph glyph-name="j" unicode="j" horiz-adv-x="213" 
d="M166 486c-0.666992 -5.33301 -2.33301 -20.333 -5 -45s-6.16699 -54 -10.5 -88l-13.5 -109l-13 -107l-10 -82c-2.66699 -22 -4 -33.667 -4 -35c-4 -30 -8.83301 -57.167 -14.5 -81.5s-14.667 -46 -27 -65s-28.666 -35.667 -48.999 -50s-46.833 -25.833 -79.5 -34.5l-9 31
c28 9.33301 50.5 20.166 67.5 32.499s30.167 26.333 39.5 42s16.166 32.834 20.499 51.501s7.83301 39 10.5 61l57 479h40zM162.001 644c8 0 14.667 -2.66699 20 -8s8 -12.333 8 -21c0 -10 -3.16699 -18.667 -9.5 -26s-14.833 -11 -25.5 -11c-8 0 -14.5 2.83301 -19.5 8.5
s-7.5 12.5 -7.5 20.5c0 10.667 3.33301 19.5 10 26.5s14.667 10.5 24 10.5z" />
    <glyph glyph-name="k" unicode="k" horiz-adv-x="402" 
d="M109 252l35 31.501l48 43.5l71.5 64.5l105.5 95.5h48c-3.33301 -3.33301 -10.5 -9.83301 -21.5 -19.5l-38 -34.5l-46.5 -42.5l-46.5 -42.5l-38 -34.5c-11 -9.66699 -18.167 -16.167 -21.5 -19.5l23 -34l142 -260h-44l-146 272l-80 -70l-24 -202h-39l86 709h39l-38 -316
c-3.33301 -23.333 -6.33301 -46.333 -9 -69s-5.66699 -46.334 -9 -71.001z" />
    <glyph glyph-name="l" unicode="l" horiz-adv-x="199" 
d="M173 714c-0.666992 -5.33301 -2.16699 -18.499 -4.5 -39.499s-5.5 -47.167 -9.5 -78.5l-13 -105l-14.5 -118l-14.5 -117.5l-13 -104c-4 -31 -7.16699 -56.833 -9.5 -77.5s-3.83301 -33.334 -4.5 -38.001l65 2l3 -27c-12 -6 -24.5 -10.333 -37.5 -13s-24.167 -4 -33.5 -4
c-25.333 0 -38 10.667 -38 32v8c0 4 0.333008 8 1 12l84 668h39z" />
    <glyph glyph-name="m" unicode="m" horiz-adv-x="748" 
d="M125 409c35.333 28 67.501 49.3301 96.501 63.9971s56.833 22 83.5 22c19.333 0 35.5 -2.33301 48.5 -7s23.667 -11.167 32 -19.5s14.5 -18 18.5 -29s6.33301 -22.833 7 -35.5c35.333 30 69.166 52.667 101.499 68s61.5 23 87.5 23c21.333 0 38.833 -2.66699 52.5 -8
s24.5 -12.666 32.5 -21.999s13.5 -20.166 16.5 -32.499s4.5 -25.5 4.5 -39.5c0 -5.33301 -0.166992 -10.166 -0.5 -14.499s-0.833008 -9.16602 -1.5 -14.499l-41 -364h-39l40 346c1.33301 6.66699 2 13.334 2 20.001v18c0 23.333 -5.16699 41.833 -15.5 55.5
s-30.833 20.5 -61.5 20.5c-28 0 -56.833 -8.33301 -86.5 -25s-60.5 -38.667 -92.5 -66c0 -2.66699 -0.166992 -5.83398 -0.5 -9.50098s-0.833008 -8.16699 -1.5 -13.5l-39 -346h-39l40 344c0.666992 6 1.33398 12.667 2.00098 20s1 13.666 1 18.999
c0 10.667 -1.16699 20.667 -3.5 30s-6.5 17.5 -12.5 24.5s-14 12.5 -24 16.5s-23 6 -39 6c-27.333 0 -55.5 -8.66699 -84.5 -26s-59.167 -39.333 -90.5 -66l-22 -184l-22 -184h-40l29.5 244l28.5 242h39c-0.666992 -4.66699 -1.33398 -10.5 -2.00098 -17.5
s-1.5 -14 -2.5 -21l-3 -20.5c-1 -6.66699 -1.83301 -12 -2.5 -16z" />
    <glyph glyph-name="n" unicode="n" horiz-adv-x="465" 
d="M342 0l40 350.002c1.33301 5.33301 2 11 2 17v17c0 22.667 -5.33301 41.167 -16 55.5s-31.667 21.5 -63 21.5c-28.667 0 -58.334 -8.83301 -89.001 -26.5s-62 -39.5 -94 -65.5l-47 -369h-39c1.33301 8 3.5 24.5 6.5 49.5l10.5 87.5l13 106l13.5 106l11 87.5
c3 25 4.83301 41.833 5.5 50.5h39l-5 -38.5c-2 -15.667 -3.66699 -27.834 -5 -36.501c0 -0.666992 0.333008 -1 1 -1s1.33398 -0.333008 2.00098 -1c36 27.333 69.5 48.5 100.5 63.5s60.5 22.5 88.5 22.5c20.667 0 38 -2.83301 52 -8.5s25 -13.167 33 -22.5
s13.667 -20.333 17 -33s5 -26 5 -40c0 -4 -0.166992 -8.33301 -0.5 -13s-0.833008 -9.33398 -1.5 -14.001l-41 -365h-39z" />
    <glyph glyph-name="o" unicode="o" horiz-adv-x="466" 
d="M263 459c-35.333 0 -64.832 -9.33398 -88.499 -28.001s-42.5 -42 -56.5 -70s-24 -58.5 -30 -91.5s-9 -63.833 -9 -92.5c0 -19.333 1.83301 -38.166 5.5 -56.499s10.167 -34.5 19.5 -48.5s22.5 -25.167 39.5 -33.5s38.5 -12.5 64.5 -12.5c36.667 0 66.667 9.66699 90 29
s41.666 43 54.999 71s22.333 57.5 27 88.5s7 58.5 7 82.5c0 20 -1.83301 39.833 -5.5 59.5s-10.167 37 -19.5 52s-22 27.167 -38 36.5s-36.333 14 -61 14zM264.001 492.999c30.667 0 56.4961 -5.33594 77.4961 -16.0029s38 -24.834 51 -42.501s22.167 -38.167 27.5 -61.5
s8 -47.666 8 -72.999c0 -31.333 -3.33301 -65 -10 -101s-18.5 -69.167 -35.5 -99.5s-40 -55.666 -69 -75.999s-65.5 -30.5 -109.5 -30.5c-32 0 -58.667 5 -80 15s-38.166 23.5 -50.499 40.5s-21.166 37 -26.499 60s-8 47.167 -8 72.5c0 34 3.83301 69.333 11.5 106
s20.334 70.334 38.001 101.001s40.834 55.834 69.501 75.501s64 29.5 106 29.5z" />
    <glyph glyph-name="p" unicode="p" horiz-adv-x="472" 
d="M133 486l-9.00098 -67.001l2 -3c30.667 25.333 60.167 44.333 88.5 57s56.833 19 85.5 19c38.667 0 70.5 -14.333 95.5 -43s37.833 -70 38.5 -124c0 -40 -4.66699 -79.833 -14 -119.5s-23.666 -75.167 -42.999 -106.5s-44 -56.666 -74 -75.999s-65.667 -29 -107 -29
c-21.333 0 -41.833 2.5 -61.5 7.5s-39.5 11.833 -59.5 20.5c-0.666992 -8 -2.5 -23.5 -5.5 -46.5l-9.5 -73.5l-9 -72l-5 -41h-38l86 697h39zM199.999 28.999c26.667 0 51.6699 6.50098 75.0029 19.501s43.666 32 60.999 57s31 55.167 41 90.5s15 75.666 15 120.999
c0 49.333 -10 85.333 -30 108s-44 34 -72 34c-28.667 0 -57.334 -8 -86.001 -24s-56.667 -35 -84 -57l-41 -320c22.667 -11.333 43.667 -19 63 -23s38.666 -6 57.999 -6z" />
    <glyph glyph-name="q" unicode="q" horiz-adv-x="475" 
d="M316 -211c6 50.667 12.165 99.832 18.498 147.499l18.5 133.5l-2 2c-30 -25.333 -59.667 -45 -89 -59s-58.333 -21 -87 -21c-38 0 -70 13.833 -96 41.5s-39.333 69.834 -40 126.501c0 41.333 4.83301 82 14.5 122s24.834 75.667 45.501 107s46.334 56.5 77.001 75.5
s67 28.5 109 28.5c25.333 0 50.833 -3 76.5 -9s50.167 -14.667 73.5 -26l4 -7l-82 -662h-41zM282.998 457.998c-26.667 0 -52.167 -6.33398 -76.5 -19.001s-45.833 -31.5 -64.5 -56.5s-33.5 -55.667 -44.5 -92s-16.5 -77.833 -16.5 -124.5c0 -50 10.167 -85.667 30.5 -107
s44.5 -32 72.5 -32c28.667 0 57.667 8.33301 87 25s57 36.334 83 59.001l43 322c-21.333 10.667 -41.333 17.5 -60 20.5s-36.667 4.5 -54 4.5z" />
    <glyph glyph-name="r" unicode="r" horiz-adv-x="280" 
d="M141 487c-2 -16.667 -3.66504 -31.833 -4.99805 -45.5s-3.33301 -28.834 -6 -45.501h3c18.667 34 37.167 58.5 55.5 73.5s38.166 22.5 59.499 22.5c11.333 0 22.5 -2.16699 33.5 -6.5s20.167 -12.5 27.5 -24.5l-16 -27c-9.33301 4 -17.666 6.66699 -24.999 8
s-14.333 2 -21 2c-15.333 0 -29.166 -3.33301 -41.499 -10s-23.333 -15.167 -33 -25.5s-18.334 -22.166 -26.001 -35.499s-14.5 -27 -20.5 -41c-2.66699 -19.333 -5.83398 -43.833 -9.50098 -73.5l-11.5 -92.5l-11.5 -92.5
c-3.66699 -29.667 -6.83398 -54.167 -9.50098 -73.5h-39l29 238l30 249h37v0z" />
    <glyph glyph-name="s" unicode="s" horiz-adv-x="385" 
d="M23 59c24 -13.333 48 -22.166 72 -26.499s44.667 -6.5 62 -6.5c19.333 0 38.166 1.83301 56.499 5.5s34.5 9.66699 48.5 18s25.167 19.166 33.5 32.499s12.5 30 12.5 50c0 14 -2.83301 26 -8.5 36s-13.5 18.833 -23.5 26.5s-21.667 14.667 -35 21s-28 12.5 -44 18.5
c-17.333 6.66699 -34 13.667 -50 21s-30.167 15.666 -42.5 24.999s-22.333 20.5 -30 33.5s-11.5 28.167 -11.5 45.5c0 24.667 4.83301 45.5 14.5 62.5s22.5 30.667 38.5 41s34.167 17.833 54.5 22.5s40.833 7 61.5 7c7.33301 0 16.166 -0.5 26.499 -1.5s21 -2.66699 32 -5
s22 -5.33301 33 -9s21.5 -8.16699 31.5 -13.5l-15 -29c-21.333 9.33301 -41.666 15.833 -60.999 19.5s-35.666 5.5 -48.999 5.5c-15.333 0 -30.5 -1.66699 -45.5 -5s-28.5 -8.66602 -40.5 -15.999s-21.833 -17.333 -29.5 -30s-11.5 -28 -11.5 -46
c0 -12.667 3.16699 -23.667 9.5 -33s14.5 -17.666 24.5 -24.999s21.167 -13.833 33.5 -19.5s24.5 -10.834 36.5 -15.501c17.333 -6.66699 34.333 -13.667 51 -21s31.667 -15.833 45 -25.5s24 -21.334 32 -35.001s12 -30.167 12 -49.5c0 -25.333 -5 -47.166 -15 -65.499
s-23.5 -33.333 -40.5 -45s-36.667 -20.167 -59 -25.5s-45.833 -8 -70.5 -8c-28 0 -56 3 -84 9s-51.333 15.333 -70 28z" />
    <glyph glyph-name="t" unicode="t" horiz-adv-x="312" 
d="M167 454l-21.499 -172.003l-21.5 -171c-0.666992 -4.66699 -1 -9.33398 -1 -14.001v-13c0 -16.667 3.66699 -29.667 11 -39s22.666 -14 45.999 -14c12 0 26.833 1.33301 44.5 4s35.834 6.66699 54.501 12l8 -28c-17.333 -7.33301 -37 -12.833 -59 -16.5
s-41.333 -5.5 -58 -5.5c-28.667 0 -50.334 6.33301 -65.001 19s-22 34.667 -22 66c0 2.66699 0.166992 6.33398 0.5 11.001s0.833008 8.33398 1.5 11.001l42 350h-68l3 23c12 2.66699 23.833 4.83398 35.5 6.50098s23.167 3.83398 34.5 6.50098l25 92
c4.66699 1.33301 9 2 13 2s8 0.666992 12 2c-2 -16.667 -3.83301 -33.334 -5.5 -50.001s-3.83398 -33.334 -6.50098 -50.001h138c-0.666992 -5.33301 -1.16699 -10.666 -1.5 -15.999s-1.16602 -10.666 -2.49902 -15.999h-137v0z" />
    <glyph glyph-name="u" unicode="u" horiz-adv-x="450" 
d="M126 487l-41 -351.001c-1.33301 -5.33301 -2 -11 -2 -17v-17c0 -22.667 5 -41 15 -55s30.667 -21 62 -21c26 0 54.167 8 84.5 24s62.833 38.667 97.5 68l46 369h38c-1.33301 -8 -3.5 -24.333 -6.5 -49l-10.5 -87l-12.5 -106l-12.5 -106l-10.5 -88
c-3 -25.333 -4.83301 -42.333 -5.5 -51h-38l9 75l-1 1c-0.666992 0 -1.33398 0.333008 -2.00098 1c-38 -30 -72 -51.833 -102 -65.5s-58.667 -20.5 -86 -20.5c-21.333 0 -38.666 2.66699 -51.999 8s-24 12.833 -32 22.5s-13.5 20.667 -16.5 33s-4.5 25.5 -4.5 39.5
c0 4 0.166992 8.33301 0.5 13s0.833008 9.33398 1.5 14.001l41 366h40z" />
    <glyph glyph-name="v" unicode="v" horiz-adv-x="394" 
d="M138 0c-16 78.667 -33 157.833 -51 237.5s-35.667 162.5 -53 248.5h41l29 -135.5l29 -138.5l17.5 -87l16.5 -87h3l33.5 80.5l41.5 93.5l124 285l38 -12c-4 -8 -11.5 -24.333 -22.5 -49l-39 -87l-48 -106l-48 -106l-39 -87.5c-11 -25 -18.5 -41.5 -22.5 -49.5h-50v0z" />
    <glyph glyph-name="w" unicode="w" horiz-adv-x="640" 
d="M442 40l50 134l123 323l37 -9l-191 -488h-49l-57 302l-24 132h-2l-47 -120l-127 -314h-50l-71 487h39l41 -298l20 -149h3l62 157l117 290h41l59 -318l23 -129h3z" />
    <glyph glyph-name="x" unicode="x" horiz-adv-x="385" 
d="M195 230l-168 -244l-37 18l186 252l-113 230h44l95 -202l151 216l35 -17l-168 -224l129 -259h-44z" />
    <glyph glyph-name="y" unicode="y" horiz-adv-x="398" 
d="M155 -110c-14 -30.667 -30.498 -56.168 -49.498 -76.501s-44.167 -30.5 -75.5 -30.5c-8.66699 0 -20.5 1 -35.5 3s-33.167 6.66699 -54.5 14l11 31c17.333 -5.33301 31.666 -9.16602 42.999 -11.499s22.333 -3.5 33 -3.5c6.66699 0 13.667 0.833008 21 2.5
s14.666 5.16699 21.999 10.5s14.833 13 22.5 23s15.167 23.667 22.5 41l48 107h-22l-49 243l-50 243h40l57 -288l33 -169h4c2 3.33301 5.16699 10.333 9.5 21l16.5 39l22.5 52.5l26.5 62.5l125 290l37 -10z" />
    <glyph glyph-name="z" unicode="z" horiz-adv-x="394" 
d="M49 34h299l-3 -34h-345l-6 29l173.5 211l173.5 211l-1 1h-267l5 34h304l9 -31l-346 -419z" />
    <glyph glyph-name="braceleft" unicode="{" horiz-adv-x="229" 
d="M134 -162c-28 0 -47.1699 5.50781 -57.5029 16.5078s-15.5 27.5 -15.5 49.5c0 5.33301 0.166992 10.666 0.5 15.999s0.833008 11 1.5 17l29 233c2 10.667 3 22 3 34c0 18 -3.83301 34.667 -11.5 50s-22.5 25 -44.5 29l4 29c15.333 3.33301 27.833 8.66602 37.5 15.999
s17.334 16.166 23.001 26.499s9.83398 21.666 12.501 33.999s5 25.5 7 39.5l27 196c2.66699 19.333 10.667 36.5 24 51.5s31.333 22.5 54 22.5h35l-4 -36h-22c-18.667 0 -31.334 -5.5 -38.001 -16.5s-11.667 -27.167 -15 -48.5l-23 -163
c-1.33301 -12.667 -3.5 -26.334 -6.5 -41.001s-7.33301 -28.834 -13 -42.501s-12.667 -25.834 -21 -36.501s-18.5 -18 -30.5 -22c17.333 -8.66699 28.833 -20.334 34.5 -35.001s8.5 -30.667 8.5 -48c0 -14 -1 -28 -3 -42l-27 -213c-0.666992 -6 -1.5 -12.5 -2.5 -19.5
s-1.5 -14.167 -1.5 -21.5c0 -11.333 2.33301 -21 7 -29s14.334 -12 29.001 -12h27c-1.33301 -6 -2.16602 -11.833 -2.49902 -17.5s-0.833008 -11.167 -1.5 -16.5h-24z" />
    <glyph glyph-name="bar" unicode="|" horiz-adv-x="208" 
d="M100 -136v833h34v-833h-34z" />
    <glyph glyph-name="braceright" unicode="}" horiz-adv-x="229" 
d="M112 698c28.667 0 48.1729 -6.3418 58.5059 -19.0088s15.5 -29 15.5 -49c0 -10 -1 -20.333 -3 -31l-24 -172c-0.666992 -5.33301 -1.33398 -11.166 -2.00098 -17.499s-1 -12.5 -1 -18.5c0 -9.33301 0.833008 -18.5 2.5 -27.5s4.66699 -17.167 9 -24.5
s10.166 -13.666 17.499 -18.999s16.666 -9 27.999 -11l-4 -29c-15.333 -3.33301 -27.833 -8.66602 -37.5 -15.999s-17.334 -16.166 -23.001 -26.499s-9.83398 -21.666 -12.501 -33.999s-5 -25.5 -7 -39.5l-33 -252c-2.66699 -19.333 -10.667 -36.5 -24 -51.5
s-31.333 -22.5 -54 -22.5h-35l4 36h22c18.667 0 31.5 5.5 38.5 16.5s11.833 27.167 14.5 48.5l29 219c1.33301 12.667 3.5 26.334 6.5 41.001s7.33301 28.834 13 42.501s12.667 25.834 21 36.501s18.5 18 30.5 22c-17.333 8.66699 -28.833 20.334 -34.5 35.001
s-8.5 30.667 -8.5 48c0 14 1 28 3 42l21 157c0.666992 6 1.5 12.5 2.5 19.5s1.5 14.167 1.5 21.5c0 11.333 -2.33301 21 -7 29s-14.334 12 -29.001 12h-27l4 34h24z" />
    <glyph glyph-name="asciitilde" unicode="~" horiz-adv-x="502" 
d="M374 248c-17.333 0 -36.335 2 -57.002 6s-41.334 8.5 -62.001 13.5s-40.5 9.5 -59.5 13.5s-35.5 6 -49.5 6l-55 -42l-17 14c12.667 22 25.334 38.167 38.001 48.5s27 15.5 43 15.5c14.667 0 32.5 -2 53.5 -6s42.333 -8.5 64 -13.5s42.334 -9.5 62.001 -13.5
s35.834 -6 48.501 -6l53 40l15 -13c-21.333 -42 -47 -63 -77 -63z" />
    <glyph glyph-name="exclamdown" unicode="&#xa1;" horiz-adv-x="191" 
d="M136 494c8.66699 0 15.832 -3.16699 21.499 -9.5s8.5 -14.5 8.5 -24.5c0 -11.333 -4 -21 -12 -29s-17.667 -12 -29 -12c-9.33301 0 -16.833 3 -22.5 9s-8.5 13.667 -8.5 23c0 12 4.33301 22.167 13 30.5s18.334 12.5 29.001 12.5zM124.998 322l-20 -215l-37 -315h-41
l40 315l33 215h25z" />
    <glyph glyph-name="cent" unicode="&#xa2;" horiz-adv-x="502" 
d="M319 493c24.667 0 48.166 -2.49707 70.499 -7.49707s41.833 -11.833 58.5 -20.5l-14 -29c-24 10.667 -46.333 17.167 -67 19.5s-37.667 3.5 -51 3.5h-3l-53 -433c23.333 0.666992 45.833 3.66699 67.5 9s45.167 13.333 70.5 24c2 -4.66699 4 -9 6 -13
s3.66699 -8.66699 5 -14c-19.333 -10.667 -42.666 -19.5 -69.999 -26.5s-55 -10.833 -83 -11.5l-10 -81h-29l9 81c-26 2 -48.167 7.66699 -66.5 17s-33 21.833 -44 37.5s-19.167 34.167 -24.5 55.5s-8 44.666 -8 69.999c0 24.667 2.5 54 7.5 88s14.667 67.167 29 99.5
s35 60.666 62 84.999s62.5 39.166 106.5 44.499l10 77h29l-9 -75h1zM122.999 176.003c0 -19.333 1.83105 -37.6689 5.49805 -55.002s9.66699 -32.666 18 -45.999s19.333 -24.166 33 -32.499s30.834 -13.5 51.501 -15.5l53 429c-26 -4.66699 -49.167 -15 -69.5 -31
s-37.166 -36.333 -50.499 -61s-23.5 -53 -30.5 -85s-10.5 -66.333 -10.5 -103z" />
    <glyph glyph-name="sterling" unicode="&#xa3;" horiz-adv-x="502" 
d="M151 354l19.001 121.997c4 26 10.167 50.5 18.5 73.5s20 43.333 35 61s33.667 31.5 56 41.5s49.5 15 81.5 15c12.667 0 25.834 -0.666992 39.501 -2s27 -3.16602 40 -5.49902s25.167 -5.16602 36.5 -8.49902s21 -7 29 -11l-15 -33c-24 9.33301 -46.5 15.666 -67.5 18.999
s-41.833 5 -62.5 5c-27.333 0 -50 -4 -68 -12s-32.5 -19.167 -43.5 -33.5s-19.5 -31.166 -25.5 -50.499s-11 -40.333 -15 -63l-20 -118h195l-3 -32h-197l-17 -100c-2.66699 -17.333 -6.33398 -35 -11.001 -53s-10.5 -35.5 -17.5 -52.5s-15.167 -32.667 -24.5 -47
s-20 -25.833 -32 -34.5h348l-3 -35h-406l5 36c16 6.66699 29.667 16.834 41 30.501s21.166 29.167 29.499 46.5s15 35.5 20 54.5s8.83301 37.167 11.5 54.5l17 100h-68l3 32h71z" />
    <glyph glyph-name="currency" unicode="&#xa4;" horiz-adv-x="511" 
d="M124 306c0 -20.667 4.00098 -40.167 12.001 -58.5s18.667 -34.166 32 -47.499s29.166 -24 47.499 -32s37.5 -12 57.5 -12s39 4 57 12s33.667 18.667 47 32s24 29.166 32 47.499s12 37.833 12 58.5c0 20 -3.83301 39.167 -11.5 57.5s-18.334 34.166 -32.001 47.499
s-29.5 24 -47.5 32s-37 12 -57 12s-39.167 -4 -57.5 -12s-34.166 -18.667 -47.499 -32s-24 -29.166 -32 -47.499s-12 -37.5 -12 -57.5zM70.001 487l23.002 23.9971l64 -63c34 28 73 42 117 42c21.333 0 41.666 -3.66699 60.999 -11s37.666 -17.666 54.999 -30.999l64 63
l24 -25l-66 -62c16 -19.333 27.167 -38.5 33.5 -57.5s9.5 -38.833 9.5 -59.5c0 -41.333 -14 -80.666 -42 -117.999l14 -13.5l18.5 -17l18.5 -16.5c6 -5.33301 10.667 -9.66602 14 -12.999l-24 -27l-65 63c-19.333 -16 -38.5 -27 -57.5 -33s-38.167 -9 -57.5 -9
s-38.666 3 -57.999 9s-38.666 17 -57.999 33l-64 -64l-25 26l64 62c-16.667 20 -27.834 40 -33.501 60s-8.5 38.667 -8.5 56c0 20 3.16699 40.333 9.5 61s17.166 39.667 32.499 57z" />
    <glyph glyph-name="yen" unicode="&#xa5;" horiz-adv-x="502" 
d="M75 282l3.99902 29.002h153l-13 35l-24 63l-29 77l-29 77l-24 63c-6.66699 18 -11 30 -13 36h43c0.666992 -3.33301 3 -10.333 7 -21l13.5 -37.5l16.5 -46.5l16.5 -46.5l13 -37.5c3.66699 -10.667 6.16699 -17.667 7.5 -21l46 -122h2l77 122
c0.666992 1.33301 4.16699 7.16602 10.5 17.499l23.5 38.5l30.5 49l30.5 49l24 38.5c6.66699 10.333 10.334 16.166 11.001 17.499h44l-22.5 -35.5l-40.5 -63.5l-49 -77l-49 -77l-40.5 -63l-22.5 -35h156l-4 -29h-369zM438.999 237.002l-4 -27h-165l-26 -210h-40l25 210
h-163l4 27h369z" />
    <glyph glyph-name="brokenbar" unicode="&#xa6;" horiz-adv-x="208" 
d="M108 352v345h34v-345h-34zM142 252v-388h-34v388h34z" />
    <glyph glyph-name="section" unicode="&#xa7;" horiz-adv-x="433" 
d="M286 714c26 0 50.3271 -2.16504 72.9941 -6.49805s42.667 -9.5 60 -15.5l-12 -33c-21.333 7.33301 -42 12.5 -62 15.5s-40.667 4.5 -62 4.5c-14.667 0 -29.834 -2 -45.501 -6s-30 -10.333 -43 -19s-23.667 -20.334 -32 -35.001s-12.5 -32.334 -12.5 -53.001
c0 -14 3.83301 -26.667 11.5 -38s17.667 -21.666 30 -30.999s26 -18 41 -26l44.5 -24c40.667 -22 69.5 -42.833 86.5 -62.5s25.5 -41.834 25.5 -66.501c0 -46 -28.667 -94 -86 -144c14 -10 25.333 -20.167 34 -30.5s15.334 -20.5 20.001 -30.5s7.83398 -19.333 9.50098 -28
s2.5 -16.334 2.5 -23.001c0 -27.333 -5.66699 -51 -17 -71s-26.166 -36.667 -44.499 -50s-39.166 -23.166 -62.499 -29.499s-47.333 -9.5 -72 -9.5c-27.333 0 -52.666 2.33301 -75.999 7s-44 10.334 -62 17.001l12 31c24.667 -8.66699 47.834 -14.667 69.501 -18
s42.5 -5 62.5 -5c19.333 0 38.166 2.5 56.499 7.5s34.5 12.833 48.5 23.5s25.333 23.834 34 39.501s13 34.167 13 55.5c0 24 -7.83301 43.667 -23.5 59s-35.167 29.666 -58.5 42.999c-19.333 10 -39.333 19.833 -60 29.5s-39.667 20.167 -57 31.5
s-31.666 24.833 -42.999 40.5s-17 34.5 -17 56.5c0 25.333 7.66699 50.5 23 75.5s39 48.5 71 70.5c-19.333 15.333 -33.166 30.833 -41.499 46.5s-12.5 32.5 -12.5 50.5c0 25.333 4.83301 47.5 14.5 66.5s22.5 34.667 38.5 47s34.5 21.666 55.5 27.999s42.833 9.5 65.5 9.5z
M191.994 451.002c-26 -18 -46.333 -37.8301 -61 -59.4971s-22 -42.5 -22 -62.5c0 -18.667 5.16699 -34.5 15.5 -47.5s23.666 -24.5 39.999 -34.5s34.333 -19.333 54 -28s38.834 -18.334 57.501 -29.001c28 23.333 47.5 45.666 58.5 66.999s16.5 39.666 16.5 54.999
c0 16 -5 30.167 -15 42.5s-22.667 24 -38 35s-32.333 21.5 -51 31.5z" />
    <glyph glyph-name="dieresis" unicode="&#xa8;" horiz-adv-x="463" 
d="M370 612c0 -10 -3.5 -18.333 -10.5 -25s-15.167 -10 -24.5 -10c-8 0 -14.5 2.5 -19.5 7.5s-7.5 11.833 -7.5 20.5c0 9.33301 3.5 17.5 10.5 24.5s14.833 10.5 23.5 10.5c8 0 14.667 -2.5 20 -7.5s8 -11.833 8 -20.5zM225 612c0 -10 -3.5 -18.333 -10.5 -25
s-15.167 -10 -24.5 -10c-8 0 -14.5 2.5 -19.5 7.5s-7.5 11.833 -7.5 20.5c0 9.33301 3.5 17.5 10.5 24.5s14.833 10.5 23.5 10.5c18.667 0 28 -9.33301 28 -28z" />
    <glyph glyph-name="copyright" unicode="&#xa9;" horiz-adv-x="824" 
d="M799 334c0 -49.333 -9.5 -95.666 -28.5 -138.999s-45 -81.166 -78 -113.499s-71.5 -57.833 -115.5 -76.5s-90.667 -28 -140 -28c-50 0 -96.833 9.33301 -140.5 28s-81.667 44.167 -114 76.5s-58 70.166 -77 113.499s-28.5 89.666 -28.5 138.999
c0 48.667 9.5 94.667 28.5 138s44.667 81.166 77 113.499s70.333 57.833 114 76.5s90.5 28 140.5 28c49.333 0 96 -9.33301 140 -28s82.5 -44.167 115.5 -76.5s59 -70.166 78 -113.499s28.5 -89.333 28.5 -138zM769 334c0 45.333 -8.66699 88 -26 128s-41 74.833 -71 104.5
s-65.167 53 -105.5 70s-83.5 25.5 -129.5 25.5s-89.167 -8.5 -129.5 -25.5s-75.5 -40.333 -105.5 -70s-53.667 -64.5 -71 -104.5s-26 -82.667 -26 -128s8.66699 -87.833 26 -127.5s41 -74.334 71 -104.001s65.167 -53.167 105.5 -70.5s83.5 -26 129.5 -26
s89.167 8.66699 129.5 26s75.5 40.833 105.5 70.5s53.667 64.334 71 104.001s26 82.167 26 127.5zM275 325c0 -29.333 2.33301 -57.167 7 -83.5s13.5 -49.5 26.5 -69.5s30.667 -36 53 -48s51.5 -18 87.5 -18c13.333 0 31.5 1.33301 54.5 4s44.167 7 63.5 13l8 -27
c-15.333 -6.66699 -35.5 -11.834 -60.5 -15.501s-48.833 -5.5 -71.5 -5.5c-36.667 0 -68 5.83301 -94 17.5s-47.167 28.334 -63.5 50.001s-28.333 48 -36 79s-11.5 65.833 -11.5 104.5c0 25.333 3 53 9 83s16.833 58 32.5 84s37 47.833 64 65.5s61.5 26.5 103.5 26.5
c26.667 0 50 -1.83301 70 -5.5s36.667 -8.16699 50 -13.5l-8 -30c-20 7.33301 -39.333 12.333 -58 15s-36.334 4 -53.001 4c-29.333 0 -54.666 -5.5 -75.999 -16.5s-39.333 -26.5 -54 -46.5s-25.5 -44.167 -32.5 -72.5s-10.5 -59.833 -10.5 -94.5z" />
    <glyph glyph-name="ordfeminine" unicode="&#xaa;" horiz-adv-x="340" 
d="M335 298c0.666992 -4.66699 1.16699 -8.83496 1.5 -12.502s0.5 -7.5 0.5 -11.5c-10 -4 -19.333 -6.83301 -28 -8.5s-16 -2.5 -22 -2.5c-19.333 0 -29 8.33301 -29 25c0 4.66699 0.666992 10.334 2 17.001c-20 -14.667 -39.167 -25.667 -57.5 -33s-37.166 -11 -56.499 -11
c-28.667 0 -51.834 9.5 -69.501 28.5s-26.5 46.833 -26.5 83.5c0 26.667 3.33301 53 10 79s16.667 49.167 30 69.5s30.5 36.833 51.5 49.5s45.833 19 74.5 19c14 0 28 -1.66699 42 -5s27.667 -7.66602 41 -12.999l5 15h28l-20 -143c-6.66699 -48.667 -13 -98 -19 -148z
M213 558.999c-17.333 0 -33.6689 -4.16797 -49.002 -12.501s-28.666 -20.166 -39.999 -35.499s-20.5 -34.333 -27.5 -57s-10.5 -48 -10.5 -76c0 -30.667 6.83301 -52.667 20.5 -66s29.167 -20 46.5 -20c33.333 0 70.333 16.333 111 49l27 202
c-13.333 6 -26.666 10.167 -39.999 12.5s-26 3.5 -38 3.5z" />
    <glyph glyph-name="guillemotleft" unicode="&#xab;" horiz-adv-x="374" 
d="M63 198l152 146l17 -16l-127 -147l91 -146l-21 -16l-116 146zM173 198l152 146l17 -16l-127 -147l92 -146l-21 -16l-116 146z" />
    <glyph glyph-name="logicalnot" unicode="&#xac;" horiz-adv-x="502" 
d="M418 110h-36l21 169h-321l4 35h356z" />
    <glyph glyph-name="sfthyphen" unicode="&#xad;" horiz-adv-x="324" 
d="M53 235l5 39h225l-5 -39h-225z" />
    <glyph glyph-name="registered" unicode="&#xae;" horiz-adv-x="568" 
d="M547 474c0 -32.667 -6.16699 -62.999 -18.5 -90.999s-29.166 -52.333 -50.499 -73s-46.166 -36.834 -74.499 -48.501s-58.5 -17.5 -90.5 -17.5s-62.333 5.66699 -91 17s-53.5 27.333 -74.5 48s-37.667 45 -50 73s-18.5 58.667 -18.5 92c0 32 6.16699 62 18.5 90
s29 52.5 50 73.5s45.833 37.667 74.5 50s59 18.5 91 18.5s62.167 -6.16699 90.5 -18.5s53.166 -29 74.499 -50s38.166 -45.5 50.499 -73.5s18.5 -58 18.5 -90zM522 474.001c0 28.667 -5.50195 55.667 -16.502 81s-25.833 47.5 -44.5 66.5s-40.834 34 -66.501 45
s-52.834 16.5 -81.501 16.5s-55.667 -5.5 -81 -16.5s-47.5 -26 -66.5 -45s-34 -41.167 -45 -66.5s-16.5 -52.333 -16.5 -81c0 -29.333 5.33301 -56.666 16 -81.999s25.334 -47.166 44.001 -65.499s40.834 -32.833 66.501 -43.5s53.167 -16 82.5 -16
c28.667 0 55.834 5.16699 81.501 15.5s47.834 24.666 66.501 42.999s33.5 40.166 44.5 65.499s16.5 53 16.5 83zM383.998 541.001c0 21.333 -6 36.168 -18 44.501s-25.667 12.5 -41 12.5h-62v-114h62c14.667 0 28.167 3.66699 40.5 11s18.5 22.666 18.5 45.999z
M384.998 331.003l-60 130h-62v-130h-29v290h90c25.333 0 46.5 -6.16699 63.5 -18.5s25.5 -32.5 25.5 -60.5c0 -14 -4 -28.833 -12 -44.5s-23.667 -27.167 -47 -34.5l62 -132h-31z" />
    <glyph glyph-name="macron" unicode="&#xaf;" horiz-adv-x="463" 
d="M135 634h289l-4 -37h-290z" />
    <glyph glyph-name="degree" unicode="&#xb0;" horiz-adv-x="333" 
d="M307 547c0 -16 -2.99902 -31.166 -8.99902 -45.499s-14.333 -26.833 -25 -37.5s-23.167 -19 -37.5 -25s-29.833 -9 -46.5 -9c-38 0 -67.333 11.167 -88 33.5s-31 50.166 -31 83.499c0 16 3.33301 31.167 10 45.5s15.5 27 26.5 38s23.667 19.833 38 26.5
s29.833 10 46.5 10c16 0 31.167 -3.33301 45.5 -10s26.666 -15.5 36.999 -26.5s18.5 -23.667 24.5 -38s9 -29.5 9 -45.5zM277.001 545.001c0 12 -2.5 23.5 -7.5 34.5s-11.667 20.667 -20 29s-17.833 15 -28.5 20s-21.667 7.5 -33 7.5c-12 0 -23.333 -2.5 -34 -7.5
s-20 -11.667 -28 -20s-14.333 -18 -19 -29s-7 -22.5 -7 -34.5s2.16699 -23.167 6.5 -33.5s10.5 -19.333 18.5 -27s17.333 -13.834 28 -18.501s22 -7 34 -7s23.333 2.33301 34 7s20.167 10.834 28.5 18.501s15 16.667 20 27s7.5 21.5 7.5 33.5z" />
    <glyph glyph-name="plusminus" unicode="&#xb1;" horiz-adv-x="502" 
d="M278 278l-21 -167h-35l21 167h-161l4 36h161l20 162h35l-20 -162h160l-4 -36h-160zM413 48l-4 -34h-363l5 34h362z" />
    <glyph glyph-name="twosuperior" unicode="&#xb2;" horiz-adv-x="364" 
d="M35 356l3.99902 28.001l96.5 79.5c30.333 25 56.666 49 78.999 72s40.166 45 53.499 66s20 40.833 20 59.5c0 22.667 -7.5 38.834 -22.5 48.501s-33.833 14.5 -56.5 14.5c-13.333 0 -30.166 -2.83301 -50.499 -8.5s-41.166 -14.834 -62.499 -27.501l-16 26
c24 15.333 47.833 26.166 71.5 32.499s44.834 9.5 63.501 9.5c31.333 0 57.833 -7.16699 79.5 -21.5s32.5 -36.833 32.5 -67.5c0 -23.333 -6.83301 -46.5 -20.5 -69.5s-31.5 -46.333 -53.5 -70s-47 -47.167 -75 -70.5l-85 -69h214l-3 -32h-269z" />
    <glyph glyph-name="threesuperior" unicode="&#xb3;" horiz-adv-x="364" 
d="M205 759c42 0 71.833 -7.83105 89.5 -23.498s26.5 -33.834 26.5 -54.501c0 -18.667 -7 -38 -21 -58s-36.333 -34.333 -67 -43v-4c25.333 -5.33301 46 -16.5 62 -33.5s24 -37.833 24 -62.5c0 -18 -4 -34.833 -12 -50.5s-19.167 -29.334 -33.5 -41.001
s-31.833 -20.834 -52.5 -27.501s-43.334 -10 -68.001 -10c-25.333 0 -48.333 2.33301 -69 7s-37.667 10 -51 16l12 28c27.333 -10 48.833 -15.833 64.5 -17.5s29.5 -2.5 41.5 -2.5c17.333 0 34 2.16699 50 6.5s30 10.5 42 18.5s21.667 17.833 29 29.5s11 24.834 11 39.501
c0 26 -10 46.167 -30 60.5s-46.667 21.5 -80 21.5c-10 0 -21 -1 -33 -3l-4 27c28.667 4.66699 52.5 10.5 71.5 17.5s34.167 14.833 45.5 23.5s19.333 17.5 24 26.5s7 17.833 7 26.5c0 14.667 -6 27 -18 37s-33.333 15 -64 15c-13.333 0 -28.833 -1.83301 -46.5 -5.5
s-39.167 -10.5 -64.5 -20.5l-11 25c22.667 11.333 44.834 19.5 66.501 24.5s41.167 7.5 58.5 7.5z" />
    <glyph glyph-name="acute" unicode="&#xb4;" horiz-adv-x="462" 
d="M215 549l-21 17l120 150l34 -32z" />
    <glyph glyph-name="mu" unicode="&#xb5;" horiz-adv-x="454" 
d="M73 18l-28 -228h-39l83 696h38l-42 -370c-0.666992 -3.33301 -1 -6.83301 -1 -10.5v-10.5c0 -22.667 6 -40 18 -52s32 -18 60 -18c26.667 0 55.167 8 85.5 24s62.833 38.667 97.5 68l22 185l23 184h39l-59 -486h-39l10 75l-3 2c-38 -30 -71.833 -51.667 -101.5 -65
s-58.5 -20 -86.5 -20c-36 0 -61 9 -75 27z" />
    <glyph glyph-name="mu" unicode="&#x3bc;" horiz-adv-x="454" 
d="M73 18l-28 -228h-39l83 696h38l-42 -370c-0.666992 -3.33301 -1 -6.83301 -1 -10.5v-10.5c0 -22.667 6 -40 18 -52s32 -18 60 -18c26.667 0 55.167 8 85.5 24s62.833 38.667 97.5 68l22 185l23 184h39l-59 -486h-39l10 75l-3 2c-38 -30 -71.833 -51.667 -101.5 -65
s-58.5 -20 -86.5 -20c-36 0 -61 9 -75 27z" />
    <glyph glyph-name="paragraph" unicode="&#xb6;" horiz-adv-x="457" 
d="M325 -173l-34 -0.000976562l102 832h-75l-51.5 -416l-50.5 -416h-35l66 540c-22 0 -42.333 3.33301 -61 10s-35 16 -49 28s-25 26.833 -33 44.5s-12 37.834 -12 60.501c0 27.333 4.83301 52.333 14.5 75s22.667 42 39 58s35.333 28.333 57 37s44.5 13 68.5 13h160z" />
    <glyph glyph-name="periodcentered" unicode="&#xb7;" horiz-adv-x="161" 
d="M97 318c8.66699 0 16.165 -3.16699 22.498 -9.5s9.5 -14.166 9.5 -23.499c0 -11.333 -4.5 -21.5 -13.5 -30.5s-18.167 -13.5 -27.5 -13.5s-17.166 3.66699 -23.499 11s-9.5 15.666 -9.5 24.999c0 10.667 4.33301 20.167 13 28.5s18.334 12.5 29.001 12.5z" />
    <glyph glyph-name="cedilla" unicode="&#xb8;" horiz-adv-x="494" 
d="M284 6l-34.499 -37.999l-34.5 -39c32 -0.666992 57.333 -5.66699 76 -15s28 -26 28 -50c0 -13.333 -3.5 -26.166 -10.5 -38.499s-17.833 -23.333 -32.5 -33s-32.834 -17.5 -54.501 -23.5s-47.5 -9 -77.5 -9c0.666992 3.33301 1.16699 7 1.5 11s0.5 8 0.5 12
c47.333 3.33301 81.333 12.166 102 26.499s31 31.166 31 50.499c0 14.667 -7 25.167 -21 31.5s-31.667 9.83301 -53 10.5h-24l-7 15l46 52l46 51l18 -14v0z" />
    <glyph glyph-name="onesuperior" unicode="&#xb9;" horiz-adv-x="364" 
d="M220 713l-106 -15v26l113 28h34l-48 -395h-36z" />
    <glyph glyph-name="ordmasculine" unicode="&#xba;" horiz-adv-x="318" 
d="M192 593c22 0 40.1689 -3.49805 54.502 -10.498s25.833 -16.5 34.5 -28.5s15 -25.833 19 -41.5s6 -32.167 6 -49.5c0 -20.667 -2.33301 -42.667 -7 -66s-12.834 -44.833 -24.501 -64.5s-27.5 -36 -47.5 -49s-45.667 -19.5 -77 -19.5c-22 0 -40.5 3.33301 -55.5 10
s-26.833 15.667 -35.5 27s-14.834 24.666 -18.501 39.999s-5.5 31.666 -5.5 48.999c0 22 2.5 45 7.5 69s13.5 45.833 25.5 65.5s28.167 36 48.5 49s45.5 19.5 75.5 19.5zM191.002 565.002c-25.333 0 -45.833 -6.00293 -61.5 -18.0029s-28.167 -27 -37.5 -45
s-15.666 -37.5 -18.999 -58.5s-5 -40.5 -5 -58.5c0 -12.667 1.16699 -24.667 3.5 -36s6.83301 -21.166 13.5 -29.499s15.5 -15 26.5 -20s25.167 -7.5 42.5 -7.5c24.667 0 44.667 6 60 18s27.166 26.833 35.499 44.5s14 36.334 17 56.001s4.5 37.167 4.5 52.5
c0 12.667 -1.16699 25.167 -3.5 37.5s-6.5 23.333 -12.5 33s-14.167 17.334 -24.5 23.001s-23.5 8.5 -39.5 8.5z" />
    <glyph glyph-name="guillemotright" unicode="&#xbb;" horiz-adv-x="374" 
d="M315 165l-153 -146l-17 16l127 146l-90 147l21 16l115 -146zM205 165l-154 -146l-16 16l126 146l-89 147l21 16l115 -146z" />
    <glyph glyph-name="onequarter" unicode="&#xbc;" horiz-adv-x="780" 
d="M619 112l-13 -112h-36l14 112h-205l3 28l118.5 128l119.5 128h34l-31 -254h62l-3 -30h-63zM216 -23h-33l365 721h30zM241 623l-106 -15v26l113 28h34l-48 -395h-36zM610 344l-42.5 -46l-50 -54l-50 -55l-43.5 -47h163l25 203z" />
    <glyph glyph-name="onehalf" unicode="&#xbd;" horiz-adv-x="780" 
d="M411 0l3 27.9961l96.5 79.5c30.333 25 56.833 49 79.5 72s40.667 44.833 54 65.5s20 40.334 20 59.001c0 22.667 -7.66699 38.834 -23 48.501s-34 14.5 -56 14.5c-13.333 0 -30.333 -2.83301 -51 -8.5s-41.667 -14.834 -63 -27.501l-15 27
c23.333 14.667 46.833 25.334 70.5 32.001s45.167 10 64.5 10c15.333 0 29.833 -1.66699 43.5 -5s25.5 -8.66602 35.5 -15.999s17.833 -16.666 23.5 -27.999s8.5 -25 8.5 -41c0 -23.333 -6.83301 -46.5 -20.5 -69.5s-31.5 -46.333 -53.5 -70s-47 -47.167 -75 -70.5l-85 -69
h215l-4 -31h-268zM196 -23.0039h-33l365 721h30zM223 622.996l-106 -15v26l113 28h34l-48 -395h-36z" />
    <glyph glyph-name="threequarters" unicode="&#xbe;" horiz-adv-x="780" 
d="M687 112l-13 -112h-36l14 112h-205l3 28l118.5 128l119.5 128h34l-31 -254h62l-3 -30h-63zM239 669c42 0 71.833 -7.83105 89.5 -23.498s26.5 -33.834 26.5 -54.501c0 -18.667 -7 -38 -21 -58s-36.333 -34.333 -67 -43v-4c25.333 -5.33301 46 -16.5 62 -33.5
s24 -37.833 24 -62.5c0 -18 -4 -34.833 -12 -50.5s-19.167 -29.334 -33.5 -41.001s-31.833 -20.834 -52.5 -27.501s-43.334 -10 -68.001 -10c-25.333 0 -48.333 2.33301 -69 7s-37.667 10 -51 16l12 28c27.333 -10 48.833 -15.833 64.5 -17.5s29.5 -2.5 41.5 -2.5
c17.333 0 34 2.16699 50 6.5s30 10.5 42 18.5s21.667 17.833 29 29.5s11 24.834 11 39.501c0 26 -10 46.167 -30 60.5s-46.667 21.5 -80 21.5c-10 0 -21 -1 -33 -3l-4 27c28.667 4.66699 52.5 10.5 71.5 17.5s34.167 14.833 45.5 23.5s19.333 17.5 24 26.5s7 17.833 7 26.5
c0 14.667 -6 27 -18 37s-33.333 15 -64 15c-13.333 0 -28.833 -1.83301 -46.5 -5.5s-39.167 -10.5 -64.5 -20.5l-11 25c22.667 11.333 44.834 19.5 66.501 24.5s41.167 7.5 58.5 7.5zM275 -22.998h-33l365 721h30zM678 344.002l-42.5 -46l-50 -54l-50 -55l-43.5 -47h163
l25 203z" />
    <glyph glyph-name="questiondown" unicode="&#xbf;" horiz-adv-x="402" 
d="M152 -215c-54 0 -93.6689 10.002 -119.002 30.002s-38 48 -38 84c0 17.333 3.16699 33.666 9.5 48.999s14.833 29.666 25.5 42.999s22.834 26 36.501 38s27.834 23.667 42.501 35c26.667 20 49.5 38.167 68.5 54.5s34.5 32.333 46.5 48s20.667 31.5 26 47.5
s8 33.667 8 53c0 7.33301 -0.166992 14.666 -0.5 21.999s-0.833008 15.333 -1.5 24l36 7c0.666992 -9.33301 1.16699 -18 1.5 -26s0.5 -15.667 0.5 -23c0 -22 -2.5 -42.167 -7.5 -60.5s-13.333 -36.166 -25 -53.499s-27 -35 -46 -53s-42.833 -37.667 -71.5 -59
c-16 -11.333 -30.5 -22.333 -43.5 -33s-24.333 -21.667 -34 -33s-17.167 -23 -22.5 -35s-8 -25.333 -8 -40c0 -15.333 3.16699 -28.333 9.5 -39s14.833 -19.167 25.5 -25.5s23.167 -11 37.5 -14s29.833 -4.5 46.5 -4.5c19.333 0 42 1.83301 68 5.5s56.333 10.834 91 21.501
l4 -16.5l4 -16.5c-30 -10.667 -60 -18.334 -90 -23.001s-56.667 -7 -80 -7zM268.998 421.002c-9.33301 0 -16.999 2.99902 -22.999 8.99902s-9 13.333 -9 22c0 12 4.16699 22 12.5 30s17.166 12 26.499 12s17 -3.16699 23 -9.5s9 -14.166 9 -23.499
c0 -10.667 -4 -20 -12 -28s-17 -12 -27 -12z" />
    <glyph glyph-name="Agrave" unicode="&#xc0;" horiz-adv-x="519" 
d="M433 0c-6.66699 32 -12.833 63.833 -18.5 95.5l-17.5 95.5h-279l-81 -191h-45l150.5 345.5l147.5 336.5h56l64.5 -341l65.5 -341h-43zM312.001 643l-31.5 -71.5l-33.5 -79.5l-54.5 -129l-58.5 -136h256l-47 259l-28 157h-3zM210.001 833l32 36l102 -134l-18 -19z" />
    <glyph glyph-name="Aacute" unicode="&#xc1;" horiz-adv-x="519" 
d="M433 0c-6.66699 32 -12.833 63.833 -18.5 95.5l-17.5 95.5h-279l-81 -191h-45l150.5 345.5l147.5 336.5h56l64.5 -341l65.5 -341h-43zM312.001 643l-31.5 -71.5l-33.5 -79.5l-54.5 -129l-58.5 -136h256l-47 259l-28 157h-3zM312.001 716l-16 18l134 135l26 -34z" />
    <glyph glyph-name="Acircumflex" unicode="&#xc2;" horiz-adv-x="519" 
d="M433 0c-6.66699 32 -12.833 63.833 -18.5 95.5l-17.5 95.5h-279l-81 -191h-45l150.5 345.5l147.5 336.5h56l64.5 -341l65.5 -341h-43zM312.001 643l-31.5 -71.5l-33.5 -79.5l-54.5 -129l-58.5 -136h256l-47 259l-28 157h-3zM452.001 703l-122 101l-148 -102l-12 17
l147 129h35l115 -128z" />
    <glyph glyph-name="Atilde" unicode="&#xc3;" horiz-adv-x="519" 
d="M433 0c-6.66699 32 -12.833 63.833 -18.5 95.5l-17.5 95.5h-279l-81 -191h-45l150.5 345.5l147.5 336.5h56l64.5 -341l65.5 -341h-43zM312.001 643l-31.5 -71.5l-33.5 -79.5l-54.5 -129l-58.5 -136h256l-47 259l-28 157h-3zM378.001 740
c-10 0 -21.1641 2.00098 -33.4971 6.00098s-24.666 8.33301 -36.999 13s-24.333 9 -36 13s-21.834 6 -30.501 6l-54 -40l-16 11c8.66699 19.333 20.167 34.666 34.5 45.999s29.166 17 44.499 17c10.667 0 22 -2 34 -6l36 -12.5l35 -12.5c11.333 -4 21.666 -6 30.999 -6
l52 39l15 -12c-8.66699 -16.667 -19.334 -31.167 -32.001 -43.5s-27 -18.5 -43 -18.5z" />
    <glyph glyph-name="Adieresis" unicode="&#xc4;" horiz-adv-x="519" 
d="M433 0c-6.66699 32 -12.833 63.833 -18.5 95.5l-17.5 95.5h-279l-81 -191h-45l150.5 345.5l147.5 336.5h56l64.5 -341l65.5 -341h-43zM312.001 643l-31.5 -71.5l-33.5 -79.5l-54.5 -129l-58.5 -136h256l-47 259l-28 157h-3zM282.001 765
c-0.666992 -10 -4.33301 -18.333 -11 -25s-14.667 -10 -24 -10c-8 0 -14.5 2.5 -19.5 7.5s-7.5 11.833 -7.5 20.5c0 9.33301 3.5 17.333 10.5 24s14.833 10 23.5 10c8 0 14.667 -2.5 20 -7.5s8 -11.5 8 -19.5zM426.002 765c0 -10 -3.50098 -18.333 -10.501 -25
s-15.167 -10 -24.5 -10c-8 0 -14.333 2.5 -19 7.5s-7 11.5 -7 19.5c0 9.33301 3.33301 17.5 10 24.5s14.334 10.5 23.001 10.5s15.5 -2.5 20.5 -7.5s7.5 -11.5 7.5 -19.5z" />
    <glyph glyph-name="Aring" unicode="&#xc5;" horiz-adv-x="519" 
d="M433 0c-6.66699 32 -12.833 63.833 -18.5 95.5l-17.5 95.5h-279l-81 -191h-45l150.5 345.5l147.5 336.5h56l64.5 -341l65.5 -341h-43zM312.001 643l-31.5 -71.5l-33.5 -79.5l-54.5 -129l-58.5 -136h256l-47 259l-28 157h-3zM316.001 706
c-25.333 0 -44.833 7.99902 -58.5 23.999s-19.834 35 -18.501 57c0.666992 12.667 3.33398 24.834 8.00098 36.501s11.334 22 20.001 31s19 16.167 31 21.5s25.333 8 40 8c24 0 43 -7.83301 57 -23.5s20.333 -35.5 19 -59.5c-1.33301 -27.333 -11.333 -50 -30 -68
s-41.334 -27 -68.001 -27zM335.001 857.999c-19.333 0 -35 -7 -47 -21s-18.667 -31 -20 -51c-0.666992 -16.667 3.5 -30 12.5 -40s22.167 -15 39.5 -15s32.5 6.33301 45.5 19s19.833 29.667 20.5 51c1.33301 16 -2.5 29.5 -11.5 40.5s-22.167 16.5 -39.5 16.5z" />
    <glyph glyph-name="AE" unicode="&#xc6;" horiz-adv-x="843" 
d="M437 199h-275l-134 -199h-46l464 682h366c0 -6 -0.166992 -11.833 -0.5 -17.5s-0.5 -11.5 -0.5 -17.5h-303l-18 -268h263l-2 -35h-263l-9.5 -154.5l-9.5 -154.5h325l-2 -35h-368zM186 235h252l31 410h-4z" />
    <glyph glyph-name="Ccedilla" unicode="&#xc7;" horiz-adv-x="540" 
d="M386 693c34.667 0 65.833 -2.66504 93.5 -7.99805s50.167 -11.333 67.5 -18l-13 -34c-24 8 -48.833 14 -74.5 18s-49.834 6 -72.501 6c-46.667 0 -87 -10 -121 -30s-62.167 -48 -84.5 -84s-39 -78.833 -50 -128.5s-16.5 -103.834 -16.5 -162.501
c0 -30.667 2.66699 -59.5 8 -86.5s15.166 -50.5 29.499 -70.5s34 -35.833 59 -47.5s57.5 -17.5 97.5 -17.5c8.66699 0 19.5 0.333008 32.5 1s26.833 2 41.5 4s29.834 4.5 45.501 7.5s30.834 6.5 45.501 10.5l9 -33c-12 -4.66699 -25.333 -8.66699 -40 -12s-30 -6 -46 -8
s-31.833 -3.66699 -47.5 -5s-30.5 -2 -44.5 -2l-30.5 -34l-30.5 -35c32 -0.666992 57.333 -5.66699 76 -15s28 -26 28 -50c0 -13.333 -3.5 -26.166 -10.5 -38.499s-17.833 -23.333 -32.5 -33s-32.834 -17.5 -54.501 -23.5s-47.5 -9 -77.5 -9
c0.666992 3.33301 1.16699 7 1.5 11s0.5 8 0.5 12c47.333 3.33301 81.333 12.166 102 26.499s31 31.166 31 50.499c0 14.667 -7 25.167 -21 31.5s-31.667 9.83301 -53 10.5h-24l-7 15c11.333 14 23.166 27.833 35.499 41.5l36.5 40.5c-37.333 2 -69 9.5 -95 22.5
s-47.167 30.833 -63.5 53.5s-28.166 49.667 -35.499 81s-11 66.333 -11 105c0 24 1.66699 51.5 5 82.5s9.16602 62.667 17.499 95s20 64 35 95s34.333 58.667 58 83s51.834 44 84.501 59s71.334 22.5 116.001 22.5z" />
    <glyph glyph-name="Egrave" unicode="&#xc8;" horiz-adv-x="489" 
d="M51 0l83 683h362l-4 -36h-320l-33 -267h282l-4 -36h-283l-37 -308h347l-3 -36h-390zM238 833l32 36l102 -134l-18 -19z" />
    <glyph glyph-name="Eacute" unicode="&#xc9;" horiz-adv-x="489" 
d="M51 0l83 683h362l-4 -36h-320l-33 -267h282l-4 -36h-283l-37 -308h347l-3 -36h-390zM291 716l-16 18l134 135l26 -34z" />
    <glyph glyph-name="Ecircumflex" unicode="&#xca;" horiz-adv-x="489" 
d="M51 0l83 683h362l-4 -36h-320l-33 -267h282l-4 -36h-283l-37 -308h347l-3 -36h-390zM448 714l-122 101l-148 -102l-12 17l147 129h35l115 -128z" />
    <glyph glyph-name="Edieresis" unicode="&#xcb;" horiz-adv-x="489" 
d="M51 0l83 683h362l-4 -36h-320l-33 -267h282l-4 -36h-283l-37 -308h347l-3 -36h-390zM425 770c0 -10 -3.50098 -18.333 -10.501 -25s-15.167 -10 -24.5 -10c-8 0 -14.333 2.5 -19 7.5s-7 11.5 -7 19.5c0 9.33301 3.33301 17.5 10 24.5s14.334 10.5 23.001 10.5
s15.5 -2.5 20.5 -7.5s7.5 -11.5 7.5 -19.5zM280.999 770c-0.666992 -10 -4.33301 -18.333 -11 -25s-14.667 -10 -24 -10c-8 0 -14.5 2.5 -19.5 7.5s-7.5 11.833 -7.5 20.5c0 9.33301 3.5 17.333 10.5 24s14.833 10 23.5 10c8 0 14.667 -2.5 20 -7.5s8 -11.5 8 -19.5z" />
    <glyph glyph-name="Igrave" unicode="&#xcc;" horiz-adv-x="216" 
d="M61 0l83 683h43l-84 -683h-42zM55 833l32 36l102 -134l-18 -19z" />
    <glyph glyph-name="Iacute" unicode="&#xcd;" horiz-adv-x="216" 
d="M61 0l83 683h43l-84 -683h-42zM161 716l-16 18l134 135l26 -34z" />
    <glyph glyph-name="Icircumflex" unicode="&#xce;" horiz-adv-x="216" 
d="M61 0l83 683h43l-84 -683h-42zM300 705l-122 101l-148 -102l-12 17l147 129h35l115 -128z" />
    <glyph glyph-name="Idieresis" unicode="&#xcf;" horiz-adv-x="216" 
d="M61 0l83 683h43l-84 -683h-42zM281 772c0 -10 -3.50098 -18.333 -10.501 -25s-15.167 -10 -24.5 -10c-8 0 -14.333 2.5 -19 7.5s-7 11.5 -7 19.5c0 9.33301 3.33301 17.5 10 24.5s14.334 10.5 23.001 10.5s15.5 -2.5 20.5 -7.5s7.5 -11.5 7.5 -19.5zM136.999 772
c-0.666992 -10 -4.33301 -18.333 -11 -25s-14.667 -10 -24 -10c-8 0 -14.5 2.5 -19.5 7.5s-7.5 11.833 -7.5 20.5c0 9.33301 3.5 17.333 10.5 24s14.833 10 23.5 10c8 0 14.667 -2.5 20 -7.5s8 -11.5 8 -19.5z" />
    <glyph glyph-name="Eth" unicode="&#xd0;" horiz-adv-x="591" 
d="M51 0l41 340h-61l4 30h60l39 313h192c44 0 80.5 -6.83301 109.5 -20.5s52 -32.5 69 -56.5s29 -52.167 36 -84.5s10.5 -67.166 10.5 -104.499c0 -55.333 -5.33301 -108 -16 -158s-28.5 -94.333 -53.5 -133s-57.667 -69.334 -98 -92.001s-89.833 -34 -148.5 -34h-184z
M172 647l-33.001 -276.999h187l-4 -30h-187l-37 -303h134c10 0 23.833 0.833008 41.5 2.5s36.667 6.16699 57 13.5s41 18.666 62 33.999s40 36.833 57 64.5s31 62.5 42 104.5s16.5 93.667 16.5 155c0 58 -7.16699 102.833 -21.5 134.5s-31.666 55 -51.999 70
s-41.833 24 -64.5 27s-42 4.5 -58 4.5h-140z" />
    <glyph glyph-name="Ntilde" unicode="&#xd1;" horiz-adv-x="623" 
d="M486 76l74 607h43l-84 -683h-42l-249 493l-58 119l-3 -1l-74 -611h-42l83 683h43l24.5 -48l46 -90.5l56.5 -112.5l56.5 -112.5l46 -90.5l24.5 -48l52 -105h3zM453 746c-10 0 -21.1641 2.00098 -33.4971 6.00098s-24.666 8.33301 -36.999 13s-24.333 9 -36 13
s-21.834 6 -30.501 6l-54 -40l-16 11c8.66699 19.333 20.167 34.666 34.5 45.999s29.166 17 44.499 17c10.667 0 22 -2 34 -6l36 -12.5l35 -12.5c11.333 -4 21.666 -6 30.999 -6l52 39l15 -12c-8.66699 -16.667 -19.334 -31.167 -32.001 -43.5s-27 -18.5 -43 -18.5z" />
    <glyph glyph-name="Ograve" unicode="&#xd2;" horiz-adv-x="643" 
d="M379 693c43.333 0 79.333 -7.33594 108 -22.0029s51.667 -34.667 69 -60s29.5 -54.666 36.5 -87.999s10.5 -69 10.5 -107c0 -57.333 -6.5 -111.666 -19.5 -162.999s-32.167 -96.166 -57.5 -134.499s-56.833 -68.833 -94.5 -91.5s-81.167 -34 -130.5 -34
c-42 0 -77.667 6 -107 18s-53.166 29.5 -71.499 52.5s-31.666 50.833 -39.999 83.5s-12.5 70 -12.5 112c0 53.333 5.33301 105.833 16 157.5s28.167 98 52.5 139s56.166 74.167 95.499 99.5s87.666 38 144.999 38zM380 657.997c-52 0 -95.333 -12.333 -130 -37
s-62.167 -56.334 -82.5 -95.001s-34.666 -81.667 -42.999 -129s-12.5 -93.333 -12.5 -138c0 -75.333 14.667 -132.666 44 -171.999s77 -59 143 -59c46.667 0 86.5 11.5 119.5 34.5s60 52.833 81 89.5s36.333 78.167 46 124.5s14.5 92.833 14.5 139.5
c0 30 -2.5 59.5 -7.5 88.5s-14 54.833 -27 77.5s-31.333 41 -55 55s-53.834 21 -90.501 21zM292 832.997l32 36l102 -134l-18 -19z" />
    <glyph glyph-name="Oacute" unicode="&#xd3;" horiz-adv-x="643" 
d="M379 693c43.333 0 79.333 -7.33594 108 -22.0029s51.667 -34.667 69 -60s29.5 -54.666 36.5 -87.999s10.5 -69 10.5 -107c0 -57.333 -6.5 -111.666 -19.5 -162.999s-32.167 -96.166 -57.5 -134.499s-56.833 -68.833 -94.5 -91.5s-81.167 -34 -130.5 -34
c-42 0 -77.667 6 -107 18s-53.166 29.5 -71.499 52.5s-31.666 50.833 -39.999 83.5s-12.5 70 -12.5 112c0 53.333 5.33301 105.833 16 157.5s28.167 98 52.5 139s56.166 74.167 95.499 99.5s87.666 38 144.999 38zM380 657.997c-52 0 -95.333 -12.333 -130 -37
s-62.167 -56.334 -82.5 -95.001s-34.666 -81.667 -42.999 -129s-12.5 -93.333 -12.5 -138c0 -75.333 14.667 -132.666 44 -171.999s77 -59 143 -59c46.667 0 86.5 11.5 119.5 34.5s60 52.833 81 89.5s36.333 78.167 46 124.5s14.5 92.833 14.5 139.5
c0 30 -2.5 59.5 -7.5 88.5s-14 54.833 -27 77.5s-31.333 41 -55 55s-53.834 21 -90.501 21zM389 715.997l-16 18l134 135l26 -34z" />
    <glyph glyph-name="Ocircumflex" unicode="&#xd4;" horiz-adv-x="643" 
d="M379 693c43.333 0 79.333 -7.33594 108 -22.0029s51.667 -34.667 69 -60s29.5 -54.666 36.5 -87.999s10.5 -69 10.5 -107c0 -57.333 -6.5 -111.666 -19.5 -162.999s-32.167 -96.166 -57.5 -134.499s-56.833 -68.833 -94.5 -91.5s-81.167 -34 -130.5 -34
c-42 0 -77.667 6 -107 18s-53.166 29.5 -71.499 52.5s-31.666 50.833 -39.999 83.5s-12.5 70 -12.5 112c0 53.333 5.33301 105.833 16 157.5s28.167 98 52.5 139s56.166 74.167 95.499 99.5s87.666 38 144.999 38zM380 657.997c-52 0 -95.333 -12.333 -130 -37
s-62.167 -56.334 -82.5 -95.001s-34.666 -81.667 -42.999 -129s-12.5 -93.333 -12.5 -138c0 -75.333 14.667 -132.666 44 -171.999s77 -59 143 -59c46.667 0 86.5 11.5 119.5 34.5s60 52.833 81 89.5s36.333 78.167 46 124.5s14.5 92.833 14.5 139.5
c0 30 -2.5 59.5 -7.5 88.5s-14 54.833 -27 77.5s-31.333 41 -55 55s-53.834 21 -90.501 21zM525 713.997l-122 101l-148 -102l-12 17l147 129h35l115 -128z" />
    <glyph glyph-name="Otilde" unicode="&#xd5;" horiz-adv-x="643" 
d="M379 693c43.333 0 79.333 -7.33594 108 -22.0029s51.667 -34.667 69 -60s29.5 -54.666 36.5 -87.999s10.5 -69 10.5 -107c0 -57.333 -6.5 -111.666 -19.5 -162.999s-32.167 -96.166 -57.5 -134.499s-56.833 -68.833 -94.5 -91.5s-81.167 -34 -130.5 -34
c-42 0 -77.667 6 -107 18s-53.166 29.5 -71.499 52.5s-31.666 50.833 -39.999 83.5s-12.5 70 -12.5 112c0 53.333 5.33301 105.833 16 157.5s28.167 98 52.5 139s56.166 74.167 95.499 99.5s87.666 38 144.999 38zM380 657.997c-52 0 -95.333 -12.333 -130 -37
s-62.167 -56.334 -82.5 -95.001s-34.666 -81.667 -42.999 -129s-12.5 -93.333 -12.5 -138c0 -75.333 14.667 -132.666 44 -171.999s77 -59 143 -59c46.667 0 86.5 11.5 119.5 34.5s60 52.833 81 89.5s36.333 78.167 46 124.5s14.5 92.833 14.5 139.5
c0 30 -2.5 59.5 -7.5 88.5s-14 54.833 -27 77.5s-31.333 41 -55 55s-53.834 21 -90.501 21zM462 765.997c-10 0 -21.1641 2.00098 -33.4971 6.00098s-24.666 8.33301 -36.999 13s-24.333 9 -36 13s-21.834 6 -30.501 6l-54 -40l-16 11
c8.66699 19.333 20.167 34.666 34.5 45.999s29.166 17 44.499 17c10.667 0 22 -2 34 -6l36 -12.5l35 -12.5c11.333 -4 21.666 -6 30.999 -6l52 39l15 -12c-8.66699 -16.667 -19.334 -31.167 -32.001 -43.5s-27 -18.5 -43 -18.5z" />
    <glyph glyph-name="Odieresis" unicode="&#xd6;" horiz-adv-x="643" 
d="M379 693c43.333 0 79.333 -7.33594 108 -22.0029s51.667 -34.667 69 -60s29.5 -54.666 36.5 -87.999s10.5 -69 10.5 -107c0 -57.333 -6.5 -111.666 -19.5 -162.999s-32.167 -96.166 -57.5 -134.499s-56.833 -68.833 -94.5 -91.5s-81.167 -34 -130.5 -34
c-42 0 -77.667 6 -107 18s-53.166 29.5 -71.499 52.5s-31.666 50.833 -39.999 83.5s-12.5 70 -12.5 112c0 53.333 5.33301 105.833 16 157.5s28.167 98 52.5 139s56.166 74.167 95.499 99.5s87.666 38 144.999 38zM380 657.997c-52 0 -95.333 -12.333 -130 -37
s-62.167 -56.334 -82.5 -95.001s-34.666 -81.667 -42.999 -129s-12.5 -93.333 -12.5 -138c0 -75.333 14.667 -132.666 44 -171.999s77 -59 143 -59c46.667 0 86.5 11.5 119.5 34.5s60 52.833 81 89.5s36.333 78.167 46 124.5s14.5 92.833 14.5 139.5
c0 30 -2.5 59.5 -7.5 88.5s-14 54.833 -27 77.5s-31.333 41 -55 55s-53.834 21 -90.501 21zM497 778.997c0 -10 -3.50098 -18.333 -10.501 -25s-15.167 -10 -24.5 -10c-8 0 -14.333 2.5 -19 7.5s-7 11.5 -7 19.5c0 9.33301 3.33301 17.5 10 24.5s14.334 10.5 23.001 10.5
s15.5 -2.5 20.5 -7.5s7.5 -11.5 7.5 -19.5zM352.999 778.997c-0.666992 -10 -4.33301 -18.333 -11 -25s-14.667 -10 -24 -10c-8 0 -14.5 2.5 -19.5 7.5s-7.5 11.833 -7.5 20.5c0 9.33301 3.5 17.333 10.5 24s14.833 10 23.5 10c8 0 14.667 -2.5 20 -7.5s8 -11.5 8 -19.5z
" />
    <glyph glyph-name="multiply" unicode="&#xd7;" horiz-adv-x="523" 
d="M266 260l-136 -127l-22 26l136 126l-107 126l28 25l106 -126l131 125l21 -26l-130 -125l106 -125l-27 -25z" />
    <glyph glyph-name="Oslash" unicode="&#xd8;" horiz-adv-x="624" 
d="M377 693c40 0 73.501 -6.33789 100.501 -19.0049s49.167 -29.667 66.5 -51c1.33301 2 5 6.33301 11 13s12.167 14 18.5 22l18 22.5c5.66699 7 9.16699 11.5 10.5 13.5h34l-77 -92c15.333 -25.333 26.166 -54.166 32.499 -86.499s9.5 -66.5 9.5 -102.5
c0 -57.333 -6.66699 -111.333 -20 -162s-32.666 -95.167 -57.999 -133.5s-57 -68.666 -95 -90.999s-81.333 -33.5 -130 -33.5c-44 0 -80.667 6.33301 -110 19s-53.333 31.334 -72 56.001c-1.33301 -1.33301 -5 -5.66602 -11 -12.999l-19.5 -23.5l-19.5 -23.5
c-6 -7.33301 -9.66699 -11.666 -11 -12.999h-33c2 2 7 7.66699 15 17l25 30l24.5 30c7.66699 9.33301 12.5 15.333 14.5 18c-22.667 42.667 -34 98.334 -34 167.001c0 53.333 5.33301 106 16 158s28.167 98.667 52.5 140s56.166 74.666 95.499 99.999s88 38 146 38z
M557.001 414.995c0 28 -2.00098 55 -6.00098 81s-11.333 49.667 -22 71c-6 -6.66699 -18.833 -22 -38.5 -46l-69 -84l-85 -103l-85 -103.5l-69 -84.5c-19.667 -24 -32.5 -39.333 -38.5 -46c15.333 -24 35.333 -42 60 -54s55.667 -18 93 -18
c46.667 0 86.334 11.5 119.001 34.5s59.5 52.833 80.5 89.5s36.333 78 46 124s14.5 92.333 14.5 139zM377 656.995c-52 0 -95.1699 -12.333 -129.503 -37s-61.666 -56.167 -81.999 -94.5s-34.666 -80.833 -42.999 -127.5s-12.5 -92.334 -12.5 -137.001
c0 -55.333 7.33301 -100.666 22 -135.999l25.5 30.5l44.5 54l57.5 70l64.5 78.5l64.5 78.5l57.5 70l44.5 54l25.5 30.5c-13.333 20 -31.166 36 -53.499 48s-50.833 18 -85.5 18z" />
    <glyph glyph-name="Ugrave" unicode="&#xd9;" horiz-adv-x="629" 
d="M558 241c-4.66699 -36.667 -13.165 -70.167 -25.498 -100.5s-29 -56.5 -50 -78.5s-46.667 -39 -77 -51s-65.833 -18 -106.5 -18c-83.333 0 -142.833 22 -178.5 66s-48.834 104.667 -39.501 182l54 442h41l-53 -440c-8.66699 -70.667 2.16602 -124 32.499 -160
s78.833 -54 145.5 -54c64 0 113.833 19.333 149.5 58s57.5 90.667 65.5 156l54 440h42zM282.002 833l32 36l102 -134l-18 -19z" />
    <glyph glyph-name="Uacute" unicode="&#xda;" horiz-adv-x="629" 
d="M558 241c-4.66699 -36.667 -13.165 -70.167 -25.498 -100.5s-29 -56.5 -50 -78.5s-46.667 -39 -77 -51s-65.833 -18 -106.5 -18c-83.333 0 -142.833 22 -178.5 66s-48.834 104.667 -39.501 182l54 442h41l-53 -440c-8.66699 -70.667 2.16602 -124 32.499 -160
s78.833 -54 145.5 -54c64 0 113.833 19.333 149.5 58s57.5 90.667 65.5 156l54 440h42zM354.002 716l-16 18l134 135l26 -34z" />
    <glyph glyph-name="Ucircumflex" unicode="&#xdb;" horiz-adv-x="629" 
d="M558 241c-4.66699 -36.667 -13.165 -70.167 -25.498 -100.5s-29 -56.5 -50 -78.5s-46.667 -39 -77 -51s-65.833 -18 -106.5 -18c-83.333 0 -142.833 22 -178.5 66s-48.834 104.667 -39.501 182l54 442h41l-53 -440c-8.66699 -70.667 2.16602 -124 32.499 -160
s78.833 -54 145.5 -54c64 0 113.833 19.333 149.5 58s57.5 90.667 65.5 156l54 440h42zM516.002 714l-126 99l-154 -100l-13 17l153 126h36l120 -125z" />
    <glyph glyph-name="Udieresis" unicode="&#xdc;" horiz-adv-x="629" 
d="M558 241c-4.66699 -36.667 -13.165 -70.167 -25.498 -100.5s-29 -56.5 -50 -78.5s-46.667 -39 -77 -51s-65.833 -18 -106.5 -18c-83.333 0 -142.833 22 -178.5 66s-48.834 104.667 -39.501 182l54 442h41l-53 -440c-8.66699 -70.667 2.16602 -124 32.499 -160
s78.833 -54 145.5 -54c64 0 113.833 19.333 149.5 58s57.5 90.667 65.5 156l54 440h42zM487.002 768c0 -10 -3.50098 -18.333 -10.501 -25s-15.167 -10 -24.5 -10c-8 0 -14.333 2.5 -19 7.5s-7 11.5 -7 19.5c0 9.33301 3.33301 17.5 10 24.5s14.334 10.5 23.001 10.5
s15.5 -2.5 20.5 -7.5s7.5 -11.5 7.5 -19.5zM343.001 768c-0.666992 -10 -4.33301 -18.333 -11 -25s-14.667 -10 -24 -10c-8 0 -14.5 2.5 -19.5 7.5s-7.5 11.833 -7.5 20.5c0 9.33301 3.5 17.333 10.5 24s14.833 10 23.5 10c8 0 14.667 -2.5 20 -7.5s8 -11.5 8 -19.5z" />
    <glyph glyph-name="Yacute" unicode="&#xdd;" horiz-adv-x="465" 
d="M221 306l-148 377h44l84 -216l43 -118h3l72 112l145 222h47l-246 -373l-38 -310h-43zM270 715l-16 18l134 135l26 -34z" />
    <glyph glyph-name="Thorn" unicode="&#xde;" horiz-adv-x="490" 
d="M160 557l154.999 -0.00195312c24.667 0 47.5 -3.16699 68.5 -9.5s39.333 -16.166 55 -29.499s27.834 -30.166 36.501 -50.499s13 -44.5 13 -72.5c0 -24 -3.5 -49.167 -10.5 -75.5s-18.833 -50.5 -35.5 -72.5s-39 -40.167 -67 -54.5s-63 -21.5 -105 -21.5h-155l-21 -171
h-43l82 683h43zM156.999 522.998l-38 -318h156c17.333 0 35.833 3 55.5 9s38 16.167 55 30.5s31.167 33.5 42.5 57.5s17 54 17 90c0 22 -3.33301 41.167 -10 57.5s-16 30 -28 41s-26 19.167 -42 24.5s-33.333 8 -52 8h-156z" />
    <glyph glyph-name="germandbls" unicode="&#xdf;" horiz-adv-x="532" 
d="M177 528c-9.33301 -78.667 -18.002 -157.167 -26.002 -235.5s-17.333 -156.5 -28 -234.5c-5.33301 -37.333 -11.166 -72.5 -17.499 -105.5s-15.666 -62 -27.999 -87s-28.666 -44.833 -48.999 -59.5s-47.166 -22 -80.499 -22c-9.33301 0 -20.833 1 -34.5 3
s-27.5 4.66699 -41.5 8l9 29c12.667 -2 24 -3.66699 34 -5s19.667 -2 29 -2c18 0 34 2.83301 48 8.5s26.167 15.334 36.5 29.001s19.166 31.5 26.499 53.5s13.333 49.333 18 82c2.66699 14 5.16699 29.833 7.5 47.5l9 71l13.5 112.5l20 172h-71
c0.666992 5.33301 1.16699 10.666 1.5 15.999s1.16602 10.666 2.49902 15.999h69c2.66699 17.333 4.83398 34.5 6.50098 51.5s3.5 33.833 5.5 50.5c2 15.333 6.33301 33.666 13 54.999s17.167 41.833 31.5 61.5s33.333 36.334 57 50.001s53.167 20.5 88.5 20.5
c24.667 0 45.5 -3.5 62.5 -10.5s30.667 -15.667 41 -26s17.666 -22 21.999 -35s6.5 -25.5 6.5 -37.5c0 -18 -3.33301 -34.167 -10 -48.5s-15 -27.5 -25 -39.5s-21 -23.333 -33 -34s-23 -21 -33 -31s-18.333 -20 -25 -30s-10 -20.333 -10 -31c0 -14 4 -27.167 12 -39.5
s18.167 -24.5 30.5 -36.5l40 -37.5c14.333 -13 27.666 -26.833 39.999 -41.5s22.5 -30.834 30.5 -48.501s12 -37.167 12 -58.5c0 -14 -2.66699 -29.333 -8 -46s-14.166 -32 -26.499 -46s-28.833 -25.833 -49.5 -35.5s-46.334 -14.5 -77.001 -14.5
c-21.333 0 -44.166 2.16699 -68.499 6.5s-43.833 9.83301 -58.5 16.5l6 16c2 5.33301 4.33301 10.666 7 15.999c25.333 -10.667 47.5 -17.167 66.5 -19.5s35.167 -3.5 48.5 -3.5c38 0 67.167 9.83301 87.5 29.5s30.5 44.5 30.5 74.5c0 14 -2 26.667 -6 38
s-9 21.833 -15 31.5s-13 18.834 -21 27.501l-24 25l-33 33c-11.333 11.333 -21.666 23 -30.999 35s-17 24.167 -23 36.5s-9 25.166 -9 38.499c0 19.333 7 37.333 21 54s29.333 33 46 49s32 32.333 46 49s21 34.667 21 54c0 4.66699 -0.666992 11.834 -2 21.501
s-5.33301 19.334 -12 29.001s-16.834 18 -30.501 25s-32.834 10.5 -57.501 10.5c-21.333 0 -40.166 -4.33301 -56.499 -13s-30.166 -20.167 -41.499 -34.5s-20.333 -30.666 -27 -48.999s-11.334 -36.833 -14.001 -55.5z" />
    <glyph glyph-name="agrave" unicode="&#xe0;" horiz-adv-x="478" 
d="M277 492c21.333 0 42.5039 -2.49902 63.5039 -7.49902s41.833 -12.167 62.5 -21.5l8 26l29 -1c-0.666992 -6 -2.5 -20.167 -5.5 -42.5l-10.5 -80l-12.5 -99.5l-12.5 -100.5l-10.5 -83c-3 -23.667 -4.83301 -39.5 -5.5 -47.5l63 2l2 -26
c-13.333 -5.33301 -25.833 -9.16602 -37.5 -11.499s-21.5 -3.5 -29.5 -3.5c-14.667 0 -24.667 3.16699 -30 9.5s-7.33301 16.166 -6 29.499c0 0.666992 0.166992 2.5 0.5 5.5s0.666016 6.5 0.999023 10.5s0.666016 7.66699 0.999023 11s0.5 5.33301 0.5 6l-1 2
c-30 -24.667 -59.333 -43.5 -88 -56.5s-57.334 -19.5 -86.001 -19.5c-38.667 0 -70.5 14.333 -95.5 43s-37.833 70 -38.5 124c0 40 4.66699 79.833 14 119.5s23.666 75.167 42.999 106.5s44 56.666 74 75.999s65.667 29 107 29zM274.004 458.001
c-26.667 0 -51.667 -6.66406 -75 -19.9971s-43.833 -32.333 -61.5 -57s-31.5 -54.834 -41.5 -90.501s-15 -75.834 -15 -120.501c0 -50 10 -86.167 30 -108.5s44 -33.5 72 -33.5c28.667 0 57.334 8 86.001 24s56.334 35 83.001 57l43 319
c-22.667 11.333 -43.834 19.166 -63.501 23.499s-38.834 6.5 -57.501 6.5zM189.004 672.004l38 30l100 -144l-22 -16z" />
    <glyph glyph-name="aacute" unicode="&#xe1;" horiz-adv-x="478" 
d="M277 492c21.333 0 42.5039 -2.49902 63.5039 -7.49902s41.833 -12.167 62.5 -21.5l8 26l29 -1c-0.666992 -6 -2.5 -20.167 -5.5 -42.5l-10.5 -80l-12.5 -99.5l-12.5 -100.5l-10.5 -83c-3 -23.667 -4.83301 -39.5 -5.5 -47.5l63 2l2 -26
c-13.333 -5.33301 -25.833 -9.16602 -37.5 -11.499s-21.5 -3.5 -29.5 -3.5c-14.667 0 -24.667 3.16699 -30 9.5s-7.33301 16.166 -6 29.499c0 0.666992 0.166992 2.5 0.5 5.5s0.666016 6.5 0.999023 10.5s0.666016 7.66699 0.999023 11s0.5 5.33301 0.5 6l-1 2
c-30 -24.667 -59.333 -43.5 -88 -56.5s-57.334 -19.5 -86.001 -19.5c-38.667 0 -70.5 14.333 -95.5 43s-37.833 70 -38.5 124c0 40 4.66699 79.833 14 119.5s23.666 75.167 42.999 106.5s44 56.666 74 75.999s65.667 29 107 29zM274.004 458.001
c-26.667 0 -51.667 -6.66406 -75 -19.9971s-43.833 -32.333 -61.5 -57s-31.5 -54.834 -41.5 -90.501s-15 -75.834 -15 -120.501c0 -50 10 -86.167 30 -108.5s44 -33.5 72 -33.5c28.667 0 57.334 8 86.001 24s56.334 35 83.001 57l43 319
c-22.667 11.333 -43.834 19.166 -63.501 23.499s-38.834 6.5 -57.501 6.5zM262.004 549.004l-21 17l120 150l34 -32z" />
    <glyph glyph-name="acircumflex" unicode="&#xe2;" horiz-adv-x="478" 
d="M277 492c21.333 0 42.5039 -2.49902 63.5039 -7.49902s41.833 -12.167 62.5 -21.5l8 26l29 -1c-0.666992 -6 -2.5 -20.167 -5.5 -42.5l-10.5 -80l-12.5 -99.5l-12.5 -100.5l-10.5 -83c-3 -23.667 -4.83301 -39.5 -5.5 -47.5l63 2l2 -26
c-13.333 -5.33301 -25.833 -9.16602 -37.5 -11.499s-21.5 -3.5 -29.5 -3.5c-14.667 0 -24.667 3.16699 -30 9.5s-7.33301 16.166 -6 29.499c0 0.666992 0.166992 2.5 0.5 5.5s0.666016 6.5 0.999023 10.5s0.666016 7.66699 0.999023 11s0.5 5.33301 0.5 6l-1 2
c-30 -24.667 -59.333 -43.5 -88 -56.5s-57.334 -19.5 -86.001 -19.5c-38.667 0 -70.5 14.333 -95.5 43s-37.833 70 -38.5 124c0 40 4.66699 79.833 14 119.5s23.666 75.167 42.999 106.5s44 56.666 74 75.999s65.667 29 107 29zM274.004 458.001
c-26.667 0 -51.667 -6.66406 -75 -19.9971s-43.833 -32.333 -61.5 -57s-31.5 -54.834 -41.5 -90.501s-15 -75.834 -15 -120.501c0 -50 10 -86.167 30 -108.5s44 -33.5 72 -33.5c28.667 0 57.334 8 86.001 24s56.334 35 83.001 57l43 319
c-22.667 11.333 -43.834 19.166 -63.501 23.499s-38.834 6.5 -57.501 6.5zM421.004 546.004l-122 101l-148 -102l-12 17l147 128h35l116 -127z" />
    <glyph glyph-name="atilde" unicode="&#xe3;" horiz-adv-x="478" 
d="M277 492c21.333 0 42.5039 -2.49902 63.5039 -7.49902s41.833 -12.167 62.5 -21.5l8 26l29 -1c-0.666992 -6 -2.5 -20.167 -5.5 -42.5l-10.5 -80l-12.5 -99.5l-12.5 -100.5l-10.5 -83c-3 -23.667 -4.83301 -39.5 -5.5 -47.5l63 2l2 -26
c-13.333 -5.33301 -25.833 -9.16602 -37.5 -11.499s-21.5 -3.5 -29.5 -3.5c-14.667 0 -24.667 3.16699 -30 9.5s-7.33301 16.166 -6 29.499c0 0.666992 0.166992 2.5 0.5 5.5s0.666016 6.5 0.999023 10.5s0.666016 7.66699 0.999023 11s0.5 5.33301 0.5 6l-1 2
c-30 -24.667 -59.333 -43.5 -88 -56.5s-57.334 -19.5 -86.001 -19.5c-38.667 0 -70.5 14.333 -95.5 43s-37.833 70 -38.5 124c0 40 4.66699 79.833 14 119.5s23.666 75.167 42.999 106.5s44 56.666 74 75.999s65.667 29 107 29zM274.004 458.001
c-26.667 0 -51.667 -6.66406 -75 -19.9971s-43.833 -32.333 -61.5 -57s-31.5 -54.834 -41.5 -90.501s-15 -75.834 -15 -120.501c0 -50 10 -86.167 30 -108.5s44 -33.5 72 -33.5c28.667 0 57.334 8 86.001 24s56.334 35 83.001 57l43 319
c-22.667 11.333 -43.834 19.166 -63.501 23.499s-38.834 6.5 -57.501 6.5zM353.004 581.004c-10 0 -21.1641 2.00098 -33.4971 6.00098s-24.666 8.33301 -36.999 13s-24.333 9 -36 13s-21.834 6 -30.501 6l-54 -40l-16 11c8.66699 19.333 20.167 34.666 34.5 45.999
s29.166 17 44.499 17c10.667 0 22 -2 34 -6l36 -12.5l35 -12.5c11.333 -4 21.666 -6 30.999 -6l52 39l15 -12c-8.66699 -16.667 -19.334 -31.167 -32.001 -43.5s-27 -18.5 -43 -18.5z" />
    <glyph glyph-name="adieresis" unicode="&#xe4;" horiz-adv-x="478" 
d="M277 492c21.333 0 42.5039 -2.49902 63.5039 -7.49902s41.833 -12.167 62.5 -21.5l8 26l29 -1c-0.666992 -6 -2.5 -20.167 -5.5 -42.5l-10.5 -80l-12.5 -99.5l-12.5 -100.5l-10.5 -83c-3 -23.667 -4.83301 -39.5 -5.5 -47.5l63 2l2 -26
c-13.333 -5.33301 -25.833 -9.16602 -37.5 -11.499s-21.5 -3.5 -29.5 -3.5c-14.667 0 -24.667 3.16699 -30 9.5s-7.33301 16.166 -6 29.499c0 0.666992 0.166992 2.5 0.5 5.5s0.666016 6.5 0.999023 10.5s0.666016 7.66699 0.999023 11s0.5 5.33301 0.5 6l-1 2
c-30 -24.667 -59.333 -43.5 -88 -56.5s-57.334 -19.5 -86.001 -19.5c-38.667 0 -70.5 14.333 -95.5 43s-37.833 70 -38.5 124c0 40 4.66699 79.833 14 119.5s23.666 75.167 42.999 106.5s44 56.666 74 75.999s65.667 29 107 29zM274.004 458.001
c-26.667 0 -51.667 -6.66406 -75 -19.9971s-43.833 -32.333 -61.5 -57s-31.5 -54.834 -41.5 -90.501s-15 -75.834 -15 -120.501c0 -50 10 -86.167 30 -108.5s44 -33.5 72 -33.5c28.667 0 57.334 8 86.001 24s56.334 35 83.001 57l43 319
c-22.667 11.333 -43.834 19.166 -63.501 23.499s-38.834 6.5 -57.501 6.5zM396.004 612.004c0 -10 -3.5 -18.333 -10.5 -25s-15.167 -10 -24.5 -10c-8 0 -14.5 2.5 -19.5 7.5s-7.5 11.833 -7.5 20.5c0 9.33301 3.5 17.5 10.5 24.5s14.833 10.5 23.5 10.5
c8 0 14.667 -2.5 20 -7.5s8 -11.833 8 -20.5zM251.004 612.004c0 -10 -3.5 -18.333 -10.5 -25s-15.167 -10 -24.5 -10c-8 0 -14.5 2.5 -19.5 7.5s-7.5 11.833 -7.5 20.5c0 9.33301 3.5 17.5 10.5 24.5s14.833 10.5 23.5 10.5c18.667 0 28 -9.33301 28 -28z" />
    <glyph glyph-name="aring" unicode="&#xe5;" horiz-adv-x="478" 
d="M277 492c21.333 0 42.5039 -2.49902 63.5039 -7.49902s41.833 -12.167 62.5 -21.5l8 26l29 -1c-0.666992 -6 -2.5 -20.167 -5.5 -42.5l-10.5 -80l-12.5 -99.5l-12.5 -100.5l-10.5 -83c-3 -23.667 -4.83301 -39.5 -5.5 -47.5l63 2l2 -26
c-13.333 -5.33301 -25.833 -9.16602 -37.5 -11.499s-21.5 -3.5 -29.5 -3.5c-14.667 0 -24.667 3.16699 -30 9.5s-7.33301 16.166 -6 29.499c0 0.666992 0.166992 2.5 0.5 5.5s0.666016 6.5 0.999023 10.5s0.666016 7.66699 0.999023 11s0.5 5.33301 0.5 6l-1 2
c-30 -24.667 -59.333 -43.5 -88 -56.5s-57.334 -19.5 -86.001 -19.5c-38.667 0 -70.5 14.333 -95.5 43s-37.833 70 -38.5 124c0 40 4.66699 79.833 14 119.5s23.666 75.167 42.999 106.5s44 56.666 74 75.999s65.667 29 107 29zM274.004 458.001
c-26.667 0 -51.667 -6.66406 -75 -19.9971s-43.833 -32.333 -61.5 -57s-31.5 -54.834 -41.5 -90.501s-15 -75.834 -15 -120.501c0 -50 10 -86.167 30 -108.5s44 -33.5 72 -33.5c28.667 0 57.334 8 86.001 24s56.334 35 83.001 57l43 319
c-22.667 11.333 -43.834 19.166 -63.501 23.499s-38.834 6.5 -57.501 6.5zM288.004 547.004c-25.333 0 -44.833 7.99902 -58.5 23.999s-19.834 35 -18.501 57c0.666992 12.667 3.33398 24.834 8.00098 36.501s11.334 22 20.001 31s19 16.167 31 21.5s25.333 8 40 8
c24 0 43 -7.83301 57 -23.5s20.333 -35.5 19 -59.5c-1.33301 -27.333 -11.333 -50 -30 -68s-41.334 -27 -68.001 -27zM307.004 699.003c-19.333 0 -35 -7 -47 -21s-18.667 -31 -20 -51c-0.666992 -16.667 3.5 -30 12.5 -40s22.167 -15 39.5 -15s32.5 6.33301 45.5 19
s19.833 29.667 20.5 51c1.33301 16 -2.5 29.5 -11.5 40.5s-22.167 16.5 -39.5 16.5z" />
    <glyph glyph-name="ae" unicode="&#xe6;" horiz-adv-x="714" 
d="M255 492c39.333 0 70.165 -8.00293 92.498 -24.0029s35.166 -46.333 38.499 -91c18 32.667 42 60.167 72 82.5s68.333 33.5 115 33.5c22 0 41 -3.16699 57 -9.5s29 -14.666 39 -24.999s17.333 -22.166 22 -35.499s7 -27 7 -41c0 -30 -8.5 -55 -25.5 -75
s-40 -36.167 -69 -48.5s-63 -21.166 -102 -26.499s-80.5 -8 -124.5 -8c-1.33301 -8 -2.16602 -17.5 -2.49902 -28.5s-0.5 -19.167 -0.5 -24.5c0 -16.667 1.66699 -33.667 5 -51s9.66602 -33 18.999 -47s22.166 -25.5 38.499 -34.5s37.5 -13.5 63.5 -13.5
c24.667 0 48.834 2.83301 72.501 8.5s47.834 14.167 72.501 25.5l11 -27c-21.333 -12 -45.833 -21.333 -73.5 -28s-57.5 -10 -89.5 -10c-39.333 0 -70 7 -92 21s-37.667 32 -47 54c-23.333 -17.333 -46 -31 -68 -41s-42.5 -17.667 -61.5 -23s-36.5 -8.66602 -52.5 -9.99902
s-29.333 -2 -40 -2c-22 0 -40.167 3 -54.5 9s-25.666 14.167 -33.999 24.5s-14.166 22.166 -17.499 35.499s-5 27 -5 41c0 31.333 7.66699 56.833 23 76.5s37 35 65 46s61.5 18.5 100.5 22.5s82.167 6 129.5 6c4 19.333 7.5 37.833 10.5 55.5s4.5 33.167 4.5 46.5
c0 36 -8.33301 62.167 -25 78.5s-45 24.5 -85 24.5c-22 0 -46.5 -2.66699 -73.5 -8s-52.5 -12.333 -76.5 -21l-9 29c28.667 12 57.667 20.5 87 25.5s57 7.5 83 7.5zM153.999 24.9971c11.333 0 24.333 1.00098 39 3.00098s30.334 5.66699 47.001 11s33.667 12.666 51 21.999
s34.666 21 51.999 35c-7.33301 25.333 -11 52 -11 80c0 16.667 1 33 3 49c-37.333 -0.666992 -72.5 -2.5 -105.5 -5.5s-61.833 -8.66699 -86.5 -17s-44.167 -20 -58.5 -35s-21.5 -34.833 -21.5 -59.5c0 -55.333 30.333 -83 91 -83zM566.999 458.998
c-28 0 -52.999 -5.99902 -74.999 -17.999s-40.833 -27.833 -56.5 -47.5s-28.334 -41.834 -38.001 -66.501s-16.167 -49.334 -19.5 -74.001c88.667 0.666992 157.667 10.834 207 30.501s74 50.5 74 92.5c0 24.667 -7.5 44.667 -22.5 60s-38.167 23 -69.5 23z" />
    <glyph glyph-name="ccedilla" unicode="&#xe7;" horiz-adv-x="413" 
d="M207 26c26 0 50.165 2.83203 72.498 8.49902s47.5 14.167 75.5 25.5c0.666992 -2.66699 2.33398 -7.16699 5.00098 -13.5s4.66699 -10.833 6 -13.5c-18 -10 -39.667 -18.667 -65 -26s-51.666 -11.666 -78.999 -12.999l-28.5 -32l-28.5 -33
c32 -0.666992 57.333 -5.66699 76 -15s28 -26 28 -50c0 -13.333 -3.5 -26.166 -10.5 -38.499s-17.833 -23.333 -32.5 -33s-32.834 -17.5 -54.501 -23.5s-47.5 -9 -77.5 -9c0.666992 3.33301 1.16699 7 1.5 11s0.5 8 0.5 12c47.333 3.33301 81.333 12.166 102 26.499
s31 31.166 31 50.499c0 14.667 -7 25.167 -21 31.5s-31.667 9.83301 -53 10.5h-24l-7 15l33.5 38.5l33.5 37.5c-55.333 2.66699 -94.333 20.5 -117 53.5s-34 75.833 -34 128.5c0 17.333 1.16699 37.166 3.5 59.499s6.5 45.333 12.5 69s14.5 46.834 25.5 69.501
s25.167 43 42.5 61s38.333 32.5 63 43.5s54 16.5 88 16.5c25.333 0 49 -2.5 71 -7.5s41.667 -12.167 59 -21.5l-14 -29c-24 10.667 -46.333 17.334 -67 20.001s-38 4 -52 4c-31.333 0 -58.833 -7.16699 -82.5 -21.5s-43.667 -34.333 -60 -60
s-28.666 -55.834 -36.999 -90.501s-12.5 -72 -12.5 -112c0 -20.667 2 -40.167 6 -58.5s11 -34.166 21 -47.499s23.167 -24 39.5 -32s36.5 -12 60.5 -12z" />
    <glyph glyph-name="egrave" unicode="&#xe8;" horiz-adv-x="420" 
d="M278 494c22 0 41.0029 -3.16992 57.0029 -9.50293s29 -14.666 39 -24.999s17.333 -22.166 22 -35.499s7 -27 7 -41c0 -32.667 -8.83301 -60 -26.5 -82s-41.167 -39.833 -70.5 -53.5s-63.5 -24 -102.5 -31s-79.833 -11.833 -122.5 -14.5
c-0.666992 -7.33301 -1 -13.5 -1 -18.5v-13.5c0 -16.667 1.66699 -33.5 5 -50.5s9.66602 -32.5 18.999 -46.5s22 -25.333 38 -34s37 -13 63 -13c48.667 0 97 11 145 33l11 -27c-21.333 -12 -45.833 -21.333 -73.5 -28s-57.5 -10 -89.5 -10s-58.333 4.83301 -79 14.5
s-36.834 23 -48.501 40s-19.834 36.5 -24.501 58.5s-7 45.667 -7 71c0 30.667 3.66699 64.334 11 101.001s20.166 71 38.499 103s42.833 58.667 73.5 80s69.334 32 116.001 32zM272.003 458.997c-28 0 -52.833 -6.16699 -74.5 -18.5s-40.5 -28.833 -56.5 -49.5
s-28.833 -44.667 -38.5 -72s-16.167 -56 -19.5 -86c88.667 4.66699 157.5 18.5 206.5 41.5s73.5 57.167 73.5 102.5c0 24.667 -7.33301 44.5 -22 59.5s-37.667 22.5 -69 22.5zM177.003 671.997l38 30l100 -144l-22 -16z" />
    <glyph glyph-name="eacute" unicode="&#xe9;" horiz-adv-x="420" 
d="M278 494c22 0 41.0029 -3.16992 57.0029 -9.50293s29 -14.666 39 -24.999s17.333 -22.166 22 -35.499s7 -27 7 -41c0 -32.667 -8.83301 -60 -26.5 -82s-41.167 -39.833 -70.5 -53.5s-63.5 -24 -102.5 -31s-79.833 -11.833 -122.5 -14.5
c-0.666992 -7.33301 -1 -13.5 -1 -18.5v-13.5c0 -16.667 1.66699 -33.5 5 -50.5s9.66602 -32.5 18.999 -46.5s22 -25.333 38 -34s37 -13 63 -13c48.667 0 97 11 145 33l11 -27c-21.333 -12 -45.833 -21.333 -73.5 -28s-57.5 -10 -89.5 -10s-58.333 4.83301 -79 14.5
s-36.834 23 -48.501 40s-19.834 36.5 -24.501 58.5s-7 45.667 -7 71c0 30.667 3.66699 64.334 11 101.001s20.166 71 38.499 103s42.833 58.667 73.5 80s69.334 32 116.001 32zM272.003 458.997c-28 0 -52.833 -6.16699 -74.5 -18.5s-40.5 -28.833 -56.5 -49.5
s-28.833 -44.667 -38.5 -72s-16.167 -56 -19.5 -86c88.667 4.66699 157.5 18.5 206.5 41.5s73.5 57.167 73.5 102.5c0 24.667 -7.33301 44.5 -22 59.5s-37.667 22.5 -69 22.5zM269.003 548.997l-21 17l120 150l34 -32z" />
    <glyph glyph-name="ecircumflex" unicode="&#xea;" horiz-adv-x="420" 
d="M278 494c22 0 41.0029 -3.16992 57.0029 -9.50293s29 -14.666 39 -24.999s17.333 -22.166 22 -35.499s7 -27 7 -41c0 -32.667 -8.83301 -60 -26.5 -82s-41.167 -39.833 -70.5 -53.5s-63.5 -24 -102.5 -31s-79.833 -11.833 -122.5 -14.5
c-0.666992 -7.33301 -1 -13.5 -1 -18.5v-13.5c0 -16.667 1.66699 -33.5 5 -50.5s9.66602 -32.5 18.999 -46.5s22 -25.333 38 -34s37 -13 63 -13c48.667 0 97 11 145 33l11 -27c-21.333 -12 -45.833 -21.333 -73.5 -28s-57.5 -10 -89.5 -10s-58.333 4.83301 -79 14.5
s-36.834 23 -48.501 40s-19.834 36.5 -24.501 58.5s-7 45.667 -7 71c0 30.667 3.66699 64.334 11 101.001s20.166 71 38.499 103s42.833 58.667 73.5 80s69.334 32 116.001 32zM272.003 458.997c-28 0 -52.833 -6.16699 -74.5 -18.5s-40.5 -28.833 -56.5 -49.5
s-28.833 -44.667 -38.5 -72s-16.167 -56 -19.5 -86c88.667 4.66699 157.5 18.5 206.5 41.5s73.5 57.167 73.5 102.5c0 24.667 -7.33301 44.5 -22 59.5s-37.667 22.5 -69 22.5zM404.003 533.997l-122 101l-148 -102l-12 17l147 128h35l116 -127z" />
    <glyph glyph-name="edieresis" unicode="&#xeb;" horiz-adv-x="420" 
d="M278 494c22 0 41.0029 -3.16992 57.0029 -9.50293s29 -14.666 39 -24.999s17.333 -22.166 22 -35.499s7 -27 7 -41c0 -32.667 -8.83301 -60 -26.5 -82s-41.167 -39.833 -70.5 -53.5s-63.5 -24 -102.5 -31s-79.833 -11.833 -122.5 -14.5
c-0.666992 -7.33301 -1 -13.5 -1 -18.5v-13.5c0 -16.667 1.66699 -33.5 5 -50.5s9.66602 -32.5 18.999 -46.5s22 -25.333 38 -34s37 -13 63 -13c48.667 0 97 11 145 33l11 -27c-21.333 -12 -45.833 -21.333 -73.5 -28s-57.5 -10 -89.5 -10s-58.333 4.83301 -79 14.5
s-36.834 23 -48.501 40s-19.834 36.5 -24.501 58.5s-7 45.667 -7 71c0 30.667 3.66699 64.334 11 101.001s20.166 71 38.499 103s42.833 58.667 73.5 80s69.334 32 116.001 32zM272.003 458.997c-28 0 -52.833 -6.16699 -74.5 -18.5s-40.5 -28.833 -56.5 -49.5
s-28.833 -44.667 -38.5 -72s-16.167 -56 -19.5 -86c88.667 4.66699 157.5 18.5 206.5 41.5s73.5 57.167 73.5 102.5c0 24.667 -7.33301 44.5 -22 59.5s-37.667 22.5 -69 22.5zM397.003 611.997c0 -10 -3.5 -18.333 -10.5 -25s-15.167 -10 -24.5 -10
c-8 0 -14.5 2.5 -19.5 7.5s-7.5 11.833 -7.5 20.5c0 9.33301 3.5 17.5 10.5 24.5s14.833 10.5 23.5 10.5c8 0 14.667 -2.5 20 -7.5s8 -11.833 8 -20.5zM252.003 611.997c0 -10 -3.5 -18.333 -10.5 -25s-15.167 -10 -24.5 -10c-8 0 -14.5 2.5 -19.5 7.5
s-7.5 11.833 -7.5 20.5c0 9.33301 3.5 17.5 10.5 24.5s14.833 10.5 23.5 10.5c18.667 0 28 -9.33301 28 -28z" />
    <glyph glyph-name="igrave" unicode="&#xec;" horiz-adv-x="199" 
d="M53 0l59 486h40l-60 -486h-39zM31 672l38 30l100 -144l-22 -16z" />
    <glyph glyph-name="iacute" unicode="&#xed;" horiz-adv-x="199" 
d="M53 0l59 486h40l-60 -486h-39zM137 549l-21 17l120 150l34 -32z" />
    <glyph glyph-name="icircumflex" unicode="&#xee;" horiz-adv-x="214" 
d="M68 0l59 486h40l-60 -486h-39zM287 545l-122 101l-148 -102l-12 17l147 128h35l116 -127z" />
    <glyph glyph-name="idieresis" unicode="&#xef;" horiz-adv-x="199" 
d="M53 0l59 486h40l-60 -486h-39zM103 612c0 -10 -3.5 -18.333 -10.5 -25s-15.167 -10 -24.5 -10c-8 0 -14.5 2.5 -19.5 7.5s-7.5 11.833 -7.5 20.5c0 9.33301 3.5 17.5 10.5 24.5s14.833 10.5 23.5 10.5c18.667 0 28 -9.33301 28 -28zM248 612
c0 -10 -3.5 -18.333 -10.5 -25s-15.167 -10 -24.5 -10c-8 0 -14.5 2.5 -19.5 7.5s-7.5 11.833 -7.5 20.5c0 9.33301 3.5 17.5 10.5 24.5s14.833 10.5 23.5 10.5c8 0 14.667 -2.5 20 -7.5s8 -11.833 8 -20.5z" />
    <glyph glyph-name="eth" unicode="&#xf0;" horiz-adv-x="457" 
d="M255 449c14 0 27.834 -1.49902 41.501 -4.49902s26.667 -6.83301 39 -11.5s23.5 -10 33.5 -16s18 -12 24 -18l2 2c-5.33301 30 -13.333 58.833 -24 86.5s-26.334 54.834 -47.001 81.501l-100 -64l-13 21c16 11.333 32.167 22 48.5 32l48.5 31
c-15.333 18 -32.666 34.5 -51.999 49.5s-40.333 29.167 -63 42.5c5.33301 9.33301 10 18 14 26c26 -13.333 50 -28.333 72 -45s41.333 -34.667 58 -54l42.5 27.5l43.5 27.5l12 -22l-40.5 -26l-40.5 -27c26.667 -34 46.334 -72 59.001 -114s19 -87 19 -135
c0 -16.667 -1 -36.834 -3 -60.501s-5.83301 -48.334 -11.5 -74.001s-13.834 -51 -24.501 -76s-24.5 -47.5 -41.5 -67.5s-37.667 -36.167 -62 -48.5s-53.5 -18.5 -87.5 -18.5c-30 0 -55.333 5 -76 15s-37.5 23.333 -50.5 40s-22.333 36 -28 58s-8.5 45.333 -8.5 70
c0 29.333 4.16699 60 12.5 92s21.333 61.333 39 88s40.167 48.667 67.5 66s59.666 26 96.999 26zM253.001 416.001c-34 0 -62.334 -8.83203 -85.001 -26.499s-40.5 -39.167 -53.5 -64.5s-22.167 -51.833 -27.5 -79.5s-8 -51.5 -8 -71.5c0 -18.667 2 -36.834 6 -54.501
s10.833 -33.5 20.5 -47.5s22.834 -25.167 39.501 -33.5s38 -12.5 64 -12.5c39.333 0 71 11.5 95 34.5s42.667 50.833 56 83.5s22.333 66.667 27 102s7 65.666 7 90.999v16c-17.333 20.667 -38.833 36.334 -64.5 47.001s-51.167 16 -76.5 16z" />
    <glyph glyph-name="ntilde" unicode="&#xf1;" horiz-adv-x="465" 
d="M342 0l40 350.002c1.33301 5.33301 2 11 2 17v17c0 22.667 -5.33301 41.167 -16 55.5s-31.667 21.5 -63 21.5c-28.667 0 -58.334 -8.83301 -89.001 -26.5s-62 -39.5 -94 -65.5l-47 -369h-39c1.33301 8 3.5 24.5 6.5 49.5l10.5 87.5l13 106l13.5 106l11 87.5
c3 25 4.83301 41.833 5.5 50.5h39l-5 -38.5c-2 -15.667 -3.66699 -27.834 -5 -36.501c0 -0.666992 0.333008 -1 1 -1s1.33398 -0.333008 2.00098 -1c36 27.333 69.5 48.5 100.5 63.5s60.5 22.5 88.5 22.5c20.667 0 38 -2.83301 52 -8.5s25 -13.167 33 -22.5
s13.667 -20.333 17 -33s5 -26 5 -40c0 -4 -0.166992 -8.33301 -0.5 -13s-0.833008 -9.33398 -1.5 -14.001l-41 -365h-39zM336 592.002c-10 0 -21.1641 2.00098 -33.4971 6.00098s-24.666 8.33301 -36.999 13s-24.333 9 -36 13s-21.834 6 -30.501 6l-54 -40l-16 11
c8.66699 19.333 20.167 34.666 34.5 45.999s29.166 17 44.499 17c10.667 0 22 -2 34 -6l36 -12.5l35 -12.5c11.333 -4 21.666 -6 30.999 -6l52 39l15 -12c-8.66699 -16.667 -19.334 -31.167 -32.001 -43.5s-27 -18.5 -43 -18.5z" />
    <glyph glyph-name="ograve" unicode="&#xf2;" horiz-adv-x="466" 
d="M263 459c-35.333 0 -64.832 -9.33398 -88.499 -28.001s-42.5 -42 -56.5 -70s-24 -58.5 -30 -91.5s-9 -63.833 -9 -92.5c0 -19.333 1.83301 -38.166 5.5 -56.499s10.167 -34.5 19.5 -48.5s22.5 -25.167 39.5 -33.5s38.5 -12.5 64.5 -12.5c36.667 0 66.667 9.66699 90 29
s41.666 43 54.999 71s22.333 57.5 27 88.5s7 58.5 7 82.5c0 20 -1.83301 39.833 -5.5 59.5s-10.167 37 -19.5 52s-22 27.167 -38 36.5s-36.333 14 -61 14zM264.001 492.999c30.667 0 56.4961 -5.33594 77.4961 -16.0029s38 -24.834 51 -42.501s22.167 -38.167 27.5 -61.5
s8 -47.666 8 -72.999c0 -31.333 -3.33301 -65 -10 -101s-18.5 -69.167 -35.5 -99.5s-40 -55.666 -69 -75.999s-65.5 -30.5 -109.5 -30.5c-32 0 -58.667 5 -80 15s-38.166 23.5 -50.499 40.5s-21.166 37 -26.499 60s-8 47.167 -8 72.5c0 34 3.83301 69.333 11.5 106
s20.334 70.334 38.001 101.001s40.834 55.834 69.501 75.501s64 29.5 106 29.5zM178.997 671.996l38 30l100 -144l-22 -16z" />
    <glyph glyph-name="oacute" unicode="&#xf3;" horiz-adv-x="466" 
d="M263 459c-35.333 0 -64.832 -9.33398 -88.499 -28.001s-42.5 -42 -56.5 -70s-24 -58.5 -30 -91.5s-9 -63.833 -9 -92.5c0 -19.333 1.83301 -38.166 5.5 -56.499s10.167 -34.5 19.5 -48.5s22.5 -25.167 39.5 -33.5s38.5 -12.5 64.5 -12.5c36.667 0 66.667 9.66699 90 29
s41.666 43 54.999 71s22.333 57.5 27 88.5s7 58.5 7 82.5c0 20 -1.83301 39.833 -5.5 59.5s-10.167 37 -19.5 52s-22 27.167 -38 36.5s-36.333 14 -61 14zM264.001 492.999c30.667 0 56.4961 -5.33594 77.4961 -16.0029s38 -24.834 51 -42.501s22.167 -38.167 27.5 -61.5
s8 -47.666 8 -72.999c0 -31.333 -3.33301 -65 -10 -101s-18.5 -69.167 -35.5 -99.5s-40 -55.666 -69 -75.999s-65.5 -30.5 -109.5 -30.5c-32 0 -58.667 5 -80 15s-38.166 23.5 -50.499 40.5s-21.166 37 -26.499 60s-8 47.167 -8 72.5c0 34 3.83301 69.333 11.5 106
s20.334 70.334 38.001 101.001s40.834 55.834 69.501 75.501s64 29.5 106 29.5zM259.997 548.996l-21 17l120 150l34 -32z" />
    <glyph glyph-name="ocircumflex" unicode="&#xf4;" horiz-adv-x="466" 
d="M263 459c-35.333 0 -64.832 -9.33398 -88.499 -28.001s-42.5 -42 -56.5 -70s-24 -58.5 -30 -91.5s-9 -63.833 -9 -92.5c0 -19.333 1.83301 -38.166 5.5 -56.499s10.167 -34.5 19.5 -48.5s22.5 -25.167 39.5 -33.5s38.5 -12.5 64.5 -12.5c36.667 0 66.667 9.66699 90 29
s41.666 43 54.999 71s22.333 57.5 27 88.5s7 58.5 7 82.5c0 20 -1.83301 39.833 -5.5 59.5s-10.167 37 -19.5 52s-22 27.167 -38 36.5s-36.333 14 -61 14zM264.001 492.999c30.667 0 56.4961 -5.33594 77.4961 -16.0029s38 -24.834 51 -42.501s22.167 -38.167 27.5 -61.5
s8 -47.666 8 -72.999c0 -31.333 -3.33301 -65 -10 -101s-18.5 -69.167 -35.5 -99.5s-40 -55.666 -69 -75.999s-65.5 -30.5 -109.5 -30.5c-32 0 -58.667 5 -80 15s-38.166 23.5 -50.499 40.5s-21.166 37 -26.499 60s-8 47.167 -8 72.5c0 34 3.83301 69.333 11.5 106
s20.334 70.334 38.001 101.001s40.834 55.834 69.501 75.501s64 29.5 106 29.5zM412.997 545.996l-122 101l-148 -102l-12 17l147 128h35l116 -127z" />
    <glyph glyph-name="otilde" unicode="&#xf5;" horiz-adv-x="466" 
d="M263 459c-35.333 0 -64.832 -9.33398 -88.499 -28.001s-42.5 -42 -56.5 -70s-24 -58.5 -30 -91.5s-9 -63.833 -9 -92.5c0 -19.333 1.83301 -38.166 5.5 -56.499s10.167 -34.5 19.5 -48.5s22.5 -25.167 39.5 -33.5s38.5 -12.5 64.5 -12.5c36.667 0 66.667 9.66699 90 29
s41.666 43 54.999 71s22.333 57.5 27 88.5s7 58.5 7 82.5c0 20 -1.83301 39.833 -5.5 59.5s-10.167 37 -19.5 52s-22 27.167 -38 36.5s-36.333 14 -61 14zM264.001 492.999c30.667 0 56.4961 -5.33594 77.4961 -16.0029s38 -24.834 51 -42.501s22.167 -38.167 27.5 -61.5
s8 -47.666 8 -72.999c0 -31.333 -3.33301 -65 -10 -101s-18.5 -69.167 -35.5 -99.5s-40 -55.666 -69 -75.999s-65.5 -30.5 -109.5 -30.5c-32 0 -58.667 5 -80 15s-38.166 23.5 -50.499 40.5s-21.166 37 -26.499 60s-8 47.167 -8 72.5c0 34 3.83301 69.333 11.5 106
s20.334 70.334 38.001 101.001s40.834 55.834 69.501 75.501s64 29.5 106 29.5zM353.997 580.996c-10 0 -21.1641 2.00098 -33.4971 6.00098s-24.666 8.33301 -36.999 13s-24.333 9 -36 13s-21.834 6 -30.501 6l-54 -40l-16 11c8.66699 19.333 20.167 34.666 34.5 45.999
s29.166 17 44.499 17c10.667 0 22 -2 34 -6l36 -12.5l35 -12.5c11.333 -4 21.666 -6 30.999 -6l52 39l15 -12c-8.66699 -16.667 -19.334 -31.167 -32.001 -43.5s-27 -18.5 -43 -18.5z" />
    <glyph glyph-name="odieresis" unicode="&#xf6;" horiz-adv-x="466" 
d="M263 459c-35.333 0 -64.832 -9.33398 -88.499 -28.001s-42.5 -42 -56.5 -70s-24 -58.5 -30 -91.5s-9 -63.833 -9 -92.5c0 -19.333 1.83301 -38.166 5.5 -56.499s10.167 -34.5 19.5 -48.5s22.5 -25.167 39.5 -33.5s38.5 -12.5 64.5 -12.5c36.667 0 66.667 9.66699 90 29
s41.666 43 54.999 71s22.333 57.5 27 88.5s7 58.5 7 82.5c0 20 -1.83301 39.833 -5.5 59.5s-10.167 37 -19.5 52s-22 27.167 -38 36.5s-36.333 14 -61 14zM264.001 492.999c30.667 0 56.4961 -5.33594 77.4961 -16.0029s38 -24.834 51 -42.501s22.167 -38.167 27.5 -61.5
s8 -47.666 8 -72.999c0 -31.333 -3.33301 -65 -10 -101s-18.5 -69.167 -35.5 -99.5s-40 -55.666 -69 -75.999s-65.5 -30.5 -109.5 -30.5c-32 0 -58.667 5 -80 15s-38.166 23.5 -50.499 40.5s-21.166 37 -26.499 60s-8 47.167 -8 72.5c0 34 3.83301 69.333 11.5 106
s20.334 70.334 38.001 101.001s40.834 55.834 69.501 75.501s64 29.5 106 29.5zM391.997 611.996c0 -10 -3.5 -18.333 -10.5 -25s-15.167 -10 -24.5 -10c-8 0 -14.5 2.5 -19.5 7.5s-7.5 11.833 -7.5 20.5c0 9.33301 3.5 17.5 10.5 24.5s14.833 10.5 23.5 10.5
c8 0 14.667 -2.5 20 -7.5s8 -11.833 8 -20.5zM246.997 611.996c0 -10 -3.5 -18.333 -10.5 -25s-15.167 -10 -24.5 -10c-8 0 -14.5 2.5 -19.5 7.5s-7.5 11.833 -7.5 20.5c0 9.33301 3.5 17.5 10.5 24.5s14.833 10.5 23.5 10.5c18.667 0 28 -9.33301 28 -28z" />
    <glyph glyph-name="divide" unicode="&#xf7;" horiz-adv-x="502" 
d="M316 440c0 -10.667 -4.16895 -19.999 -12.502 -27.999s-17.166 -12 -26.499 -12s-17 3.16699 -23 9.5s-9 14.166 -9 23.499c0.666992 10 5.16699 19 13.5 27s17.5 12 27.5 12c8.66699 0 15.834 -3 21.501 -9s8.5 -13.667 8.5 -23zM80.998 279.001l4 35h357l-4 -35h-357z
M281.998 159.001c0 -11.333 -4.16699 -20.833 -12.5 -28.5s-17.166 -11.5 -26.499 -11.5s-17 3 -23 9s-9 13.667 -9 23c0.666992 10.667 4.66699 20 12 28s16.666 12 27.999 12c9.33301 0 16.833 -3.16699 22.5 -9.5s8.5 -13.833 8.5 -22.5z" />
    <glyph glyph-name="oslash" unicode="&#xf8;" horiz-adv-x="459" 
d="M264 493c29.333 0 53.8311 -4.66895 73.498 -14.002s36.167 -21.666 49.5 -36.999l43 51h28c-2 -2 -5.83301 -6.33301 -11.5 -13l-18 -21.5l-18 -21.5c-5.66699 -6.66699 -9.16699 -11 -10.5 -13c10.667 -17.333 18.167 -37.333 22.5 -60s6.5 -46 6.5 -70
c0 -31.333 -3.5 -64.666 -10.5 -99.999s-19.167 -67.833 -36.5 -97.5s-40.333 -54.334 -69 -74.001s-64.667 -29.5 -108 -29.5c-30 0 -55.167 4.16699 -75.5 12.5s-36.833 20.166 -49.5 35.499l-39 -46c-2 0 -6.5 -0.166992 -13.5 -0.5s-11.5 -0.5 -13.5 -0.5l53 65
c-9.33301 16 -16.166 34.333 -20.499 55s-6.5 42.334 -6.5 65.001c0 34.667 3.66699 70.5 11 107.5s19.833 70.833 37.5 101.5s40.834 55.834 69.501 75.501s64 29.5 106 29.5zM208.998 25.998c36.667 0 66.667 9.66602 90 28.999s41.5 42.833 54.5 70.5s21.833 57 26.5 88
s7 58.167 7 81.5c0 16.667 -1.16699 33.167 -3.5 49.5s-6.83301 31.833 -13.5 46.5l-26 -31.5l-47.5 -57.5l-58.5 -71l-58.5 -71l-47.5 -57.5l-26 -31.5c9.33301 -13.333 22.333 -24.166 39 -32.499s38 -12.5 64 -12.5zM263.998 458.997
c-35.333 0 -64.833 -9.16602 -88.5 -27.499s-42.5 -41.5 -56.5 -69.5s-24 -58.333 -30 -91s-9 -63.334 -9 -92.001c0 -16 1.16699 -31.5 3.5 -46.5s6.5 -28.833 12.5 -41.5l26.5 31.5l47.5 57.5l58 71l58.5 71.5l47.5 58l26 31.5c-9.33301 14 -21.833 25.333 -37.5 34
s-35.167 13 -58.5 13z" />
    <glyph glyph-name="ugrave" unicode="&#xf9;" horiz-adv-x="450" 
d="M126 487l-41 -351.001c-1.33301 -5.33301 -2 -11 -2 -17v-17c0 -22.667 5 -41 15 -55s30.667 -21 62 -21c26 0 54.167 8 84.5 24s62.833 38.667 97.5 68l46 369h38c-1.33301 -8 -3.5 -24.333 -6.5 -49l-10.5 -87l-12.5 -106l-12.5 -106l-10.5 -88
c-3 -25.333 -4.83301 -42.333 -5.5 -51h-38l9 75l-1 1c-0.666992 0 -1.33398 0.333008 -2.00098 1c-38 -30 -72 -51.833 -102 -65.5s-58.667 -20.5 -86 -20.5c-21.333 0 -38.666 2.66699 -51.999 8s-24 12.833 -32 22.5s-13.5 20.667 -16.5 33s-4.5 25.5 -4.5 39.5
c0 4 0.166992 8.33301 0.5 13s0.833008 9.33398 1.5 14.001l41 366h40zM153 671.999l38 30l100 -144l-22 -16z" />
    <glyph glyph-name="uacute" unicode="&#xfa;" horiz-adv-x="450" 
d="M126 487l-41 -351.001c-1.33301 -5.33301 -2 -11 -2 -17v-17c0 -22.667 5 -41 15 -55s30.667 -21 62 -21c26 0 54.167 8 84.5 24s62.833 38.667 97.5 68l46 369h38c-1.33301 -8 -3.5 -24.333 -6.5 -49l-10.5 -87l-12.5 -106l-12.5 -106l-10.5 -88
c-3 -25.333 -4.83301 -42.333 -5.5 -51h-38l9 75l-1 1c-0.666992 0 -1.33398 0.333008 -2.00098 1c-38 -30 -72 -51.833 -102 -65.5s-58.667 -20.5 -86 -20.5c-21.333 0 -38.666 2.66699 -51.999 8s-24 12.833 -32 22.5s-13.5 20.667 -16.5 33s-4.5 25.5 -4.5 39.5
c0 4 0.166992 8.33301 0.5 13s0.833008 9.33398 1.5 14.001l41 366h40zM250 548.999l-21 17l120 150l34 -32z" />
    <glyph glyph-name="ucircumflex" unicode="&#xfb;" horiz-adv-x="450" 
d="M126 487l-41 -351.001c-1.33301 -5.33301 -2 -11 -2 -17v-17c0 -22.667 5 -41 15 -55s30.667 -21 62 -21c26 0 54.167 8 84.5 24s62.833 38.667 97.5 68l46 369h38c-1.33301 -8 -3.5 -24.333 -6.5 -49l-10.5 -87l-12.5 -106l-12.5 -106l-10.5 -88
c-3 -25.333 -4.83301 -42.333 -5.5 -51h-38l9 75l-1 1c-0.666992 0 -1.33398 0.333008 -2.00098 1c-38 -30 -72 -51.833 -102 -65.5s-58.667 -20.5 -86 -20.5c-21.333 0 -38.666 2.66699 -51.999 8s-24 12.833 -32 22.5s-13.5 20.667 -16.5 33s-4.5 25.5 -4.5 39.5
c0 4 0.166992 8.33301 0.5 13s0.833008 9.33398 1.5 14.001l41 366h40zM397 545.999l-122 101l-148 -102l-12 17l147 128h35l116 -127z" />
    <glyph glyph-name="udieresis" unicode="&#xfc;" horiz-adv-x="450" 
d="M126 487l-41 -351.001c-1.33301 -5.33301 -2 -11 -2 -17v-17c0 -22.667 5 -41 15 -55s30.667 -21 62 -21c26 0 54.167 8 84.5 24s62.833 38.667 97.5 68l46 369h38c-1.33301 -8 -3.5 -24.333 -6.5 -49l-10.5 -87l-12.5 -106l-12.5 -106l-10.5 -88
c-3 -25.333 -4.83301 -42.333 -5.5 -51h-38l9 75l-1 1c-0.666992 0 -1.33398 0.333008 -2.00098 1c-38 -30 -72 -51.833 -102 -65.5s-58.667 -20.5 -86 -20.5c-21.333 0 -38.666 2.66699 -51.999 8s-24 12.833 -32 22.5s-13.5 20.667 -16.5 33s-4.5 25.5 -4.5 39.5
c0 4 0.166992 8.33301 0.5 13s0.833008 9.33398 1.5 14.001l41 366h40zM225 611.999c0 -10 -3.5 -18.333 -10.5 -25s-15.167 -10 -24.5 -10c-8 0 -14.5 2.5 -19.5 7.5s-7.5 11.833 -7.5 20.5c0 9.33301 3.5 17.5 10.5 24.5s14.833 10.5 23.5 10.5
c18.667 0 28 -9.33301 28 -28zM370 611.999c0 -10 -3.5 -18.333 -10.5 -25s-15.167 -10 -24.5 -10c-8 0 -14.5 2.5 -19.5 7.5s-7.5 11.833 -7.5 20.5c0 9.33301 3.5 17.5 10.5 24.5s14.833 10.5 23.5 10.5c8 0 14.667 -2.5 20 -7.5s8 -11.833 8 -20.5z" />
    <glyph glyph-name="yacute" unicode="&#xfd;" horiz-adv-x="398" 
d="M155 -110c-14 -30.667 -30.498 -56.168 -49.498 -76.501s-44.167 -30.5 -75.5 -30.5c-8.66699 0 -20.5 1 -35.5 3s-33.167 6.66699 -54.5 14l11 31c17.333 -5.33301 31.666 -9.16602 42.999 -11.499s22.333 -3.5 33 -3.5c6.66699 0 13.667 0.833008 21 2.5
s14.666 5.16699 21.999 10.5s14.833 13 22.5 23s15.167 23.667 22.5 41l48 107h-22l-49 243l-50 243h40l57 -288l33 -169h4c2 3.33301 5.16699 10.333 9.5 21l16.5 39l22.5 52.5l26.5 62.5l125 290l37 -10zM213.002 543.999l-21 17l120 150l34 -32z" />
    <glyph glyph-name="thorn" unicode="&#xfe;" horiz-adv-x="465" 
d="M160 714c-0.666992 -6.66699 -2.00195 -17.668 -4.00195 -33.001s-4.16699 -33 -6.5 -53s-5 -41.167 -8 -63.5s-5.66699 -43.5 -8 -63.5s-4.66602 -37.5 -6.99902 -52.5s-3.83301 -25.167 -4.5 -30.5l2 -2c62 50.667 120.667 76 176 76c38.667 0 70.5 -14.333 95.5 -43
s37.833 -70 38.5 -124c0 -40 -4.66699 -79.833 -14 -119.5s-23.666 -75.167 -42.999 -106.5s-44 -56.666 -74 -75.999s-65.667 -29 -107 -29c-21.333 0 -41.833 2.5 -61.5 7.5s-39.5 11.833 -59.5 20.5c0 -3.33301 -0.833008 -10.833 -2.5 -22.5s-3.5 -25.5 -5.5 -41.5
l-6.5 -51.5l-6.5 -52c-2 -16.333 -3.83301 -30.5 -5.5 -42.5s-2.5 -19.667 -2.5 -23h-38l114 925h38zM199.998 28.999c26.667 0 51.6699 6.50098 75.0029 19.501s43.666 32 60.999 57s31 55.167 41 90.5s15 75.666 15 120.999c0 49.333 -10 85.333 -30 108s-44 34 -72 34
c-28.667 0 -57.334 -8 -86.001 -24s-56.667 -35 -84 -57l-41 -320c22.667 -11.333 43.667 -19 63 -23s38.666 -6 57.999 -6z" />
    <glyph glyph-name="ydieresis" unicode="&#xff;" horiz-adv-x="398" 
d="M155 -110c-14 -30.667 -30.498 -56.168 -49.498 -76.501s-44.167 -30.5 -75.5 -30.5c-8.66699 0 -20.5 1 -35.5 3s-33.167 6.66699 -54.5 14l11 31c17.333 -5.33301 31.666 -9.16602 42.999 -11.499s22.333 -3.5 33 -3.5c6.66699 0 13.667 0.833008 21 2.5
s14.666 5.16699 21.999 10.5s14.833 13 22.5 23s15.167 23.667 22.5 41l48 107h-22l-49 243l-50 243h40l57 -288l33 -169h4c2 3.33301 5.16699 10.333 9.5 21l16.5 39l22.5 52.5l26.5 62.5l125 290l37 -10zM205.002 611.999c0 -10 -3.5 -18.333 -10.5 -25
s-15.167 -10 -24.5 -10c-8 0 -14.5 2.5 -19.5 7.5s-7.5 11.833 -7.5 20.5c0 9.33301 3.5 17.5 10.5 24.5s14.833 10.5 23.5 10.5c18.667 0 28 -9.33301 28 -28zM350.002 611.999c0 -10 -3.5 -18.333 -10.5 -25s-15.167 -10 -24.5 -10c-8 0 -14.5 2.5 -19.5 7.5
s-7.5 11.833 -7.5 20.5c0 9.33301 3.5 17.5 10.5 24.5s14.833 10.5 23.5 10.5c8 0 14.667 -2.5 20 -7.5s8 -11.833 8 -20.5z" />
    <glyph glyph-name="Amacron" unicode="&#x100;" horiz-adv-x="519" 
d="M433 0c-6.66699 32 -12.833 63.833 -18.5 95.5l-17.5 95.5h-279l-81 -191h-45l150.5 345.5l147.5 336.5h56l64.5 -341l65.5 -341h-43zM312.001 643l-31.5 -71.5l-33.5 -79.5l-54.5 -129l-58.5 -136h256l-47 259l-28 157h-3zM185.001 785h291l-4 -37h-292z" />
    <glyph glyph-name="amacron" unicode="&#x101;" horiz-adv-x="478" 
d="M277 492c21.333 0 42.5039 -2.49902 63.5039 -7.49902s41.833 -12.167 62.5 -21.5l8 26l29 -1c-0.666992 -6 -2.5 -20.167 -5.5 -42.5l-10.5 -80l-12.5 -99.5l-12.5 -100.5l-10.5 -83c-3 -23.667 -4.83301 -39.5 -5.5 -47.5l63 2l2 -26
c-13.333 -5.33301 -25.833 -9.16602 -37.5 -11.499s-21.5 -3.5 -29.5 -3.5c-14.667 0 -24.667 3.16699 -30 9.5s-7.33301 16.166 -6 29.499c0 0.666992 0.166992 2.5 0.5 5.5s0.666016 6.5 0.999023 10.5s0.666016 7.66699 0.999023 11s0.5 5.33301 0.5 6l-1 2
c-30 -24.667 -59.333 -43.5 -88 -56.5s-57.334 -19.5 -86.001 -19.5c-38.667 0 -70.5 14.333 -95.5 43s-37.833 70 -38.5 124c0 40 4.66699 79.833 14 119.5s23.666 75.167 42.999 106.5s44 56.666 74 75.999s65.667 29 107 29zM274.004 458.001
c-26.667 0 -51.667 -6.66406 -75 -19.9971s-43.833 -32.333 -61.5 -57s-31.5 -54.834 -41.5 -90.501s-15 -75.834 -15 -120.501c0 -50 10 -86.167 30 -108.5s44 -33.5 72 -33.5c28.667 0 57.334 8 86.001 24s56.334 35 83.001 57l43 319
c-22.667 11.333 -43.834 19.166 -63.501 23.499s-38.834 6.5 -57.501 6.5zM164.004 634.004h289l-4 -37h-290z" />
    <glyph glyph-name="Abreve" unicode="&#x102;" horiz-adv-x="519" 
d="M433 0c-6.66699 32 -12.833 63.833 -18.5 95.5l-17.5 95.5h-279l-81 -191h-45l150.5 345.5l147.5 336.5h56l64.5 -341l65.5 -341h-43zM312.001 643l-31.5 -71.5l-33.5 -79.5l-54.5 -129l-58.5 -136h256l-47 259l-28 157h-3zM316.001 721
c-15.333 0 -29.4961 2.66602 -42.4961 7.99902s-24.833 12.5 -35.5 21.5s-20.334 19.333 -29.001 31s-16.334 23.834 -23.001 36.501l32 20c13.333 -24 28.833 -43.333 46.5 -58s37.167 -22 58.5 -22c15.333 0 34.166 5 56.499 15s50.166 30 83.499 60l15 -14
c-30.667 -37.333 -59.667 -63 -87 -77s-52.333 -21 -75 -21z" />
    <glyph glyph-name="abreve" unicode="&#x103;" horiz-adv-x="478" 
d="M277 492c21.333 0 42.5039 -2.49902 63.5039 -7.49902s41.833 -12.167 62.5 -21.5l8 26l29 -1c-0.666992 -6 -2.5 -20.167 -5.5 -42.5l-10.5 -80l-12.5 -99.5l-12.5 -100.5l-10.5 -83c-3 -23.667 -4.83301 -39.5 -5.5 -47.5l63 2l2 -26
c-13.333 -5.33301 -25.833 -9.16602 -37.5 -11.499s-21.5 -3.5 -29.5 -3.5c-14.667 0 -24.667 3.16699 -30 9.5s-7.33301 16.166 -6 29.499c0 0.666992 0.166992 2.5 0.5 5.5s0.666016 6.5 0.999023 10.5s0.666016 7.66699 0.999023 11s0.5 5.33301 0.5 6l-1 2
c-30 -24.667 -59.333 -43.5 -88 -56.5s-57.334 -19.5 -86.001 -19.5c-38.667 0 -70.5 14.333 -95.5 43s-37.833 70 -38.5 124c0 40 4.66699 79.833 14 119.5s23.666 75.167 42.999 106.5s44 56.666 74 75.999s65.667 29 107 29zM274.004 458.001
c-26.667 0 -51.667 -6.66406 -75 -19.9971s-43.833 -32.333 -61.5 -57s-31.5 -54.834 -41.5 -90.501s-15 -75.834 -15 -120.501c0 -50 10 -86.167 30 -108.5s44 -33.5 72 -33.5c28.667 0 57.334 8 86.001 24s56.334 35 83.001 57l43 319
c-22.667 11.333 -43.834 19.166 -63.501 23.499s-38.834 6.5 -57.501 6.5zM274.004 561.004c-15.333 0 -29.499 2.66602 -42.499 7.99902s-24.833 12.5 -35.5 21.5s-20.334 19.333 -29.001 31s-16.334 23.834 -23.001 36.501l33 20
c12.667 -23.333 27.834 -42.333 45.501 -57s37.167 -22 58.5 -22c8 0 16.667 1 26 3s19.666 5.66699 30.999 11s24 12.833 38 22.5s29 22.167 45 37.5l15 -14c-30 -36.667 -58.667 -62.167 -86 -76.5s-52.666 -21.5 -75.999 -21.5z" />
    <glyph glyph-name="Aogonek" unicode="&#x104;" horiz-adv-x="519" 
d="M447 0c-26 -23.333 -44.667 -46.333 -56 -69s-17.666 -41 -18.999 -55c0 -18 4.66699 -30.167 14 -36.5s22.666 -9.5 39.999 -9.5c12.667 0 25 1 37 3s22.667 4.33301 32 7c1.33301 -8 2.66602 -14.667 3.99902 -20c-15.333 -7.33301 -31.166 -12.833 -47.499 -16.5
s-31.833 -5.5 -46.5 -5.5c-26 0 -44.833 5.5 -56.5 16.5s-17.5 24.833 -17.5 41.5c0 18 6.66699 40.333 20 67s40 55 80 85l-17.5 91l-16.5 92h-279l-81 -191h-45l150.5 345.5l147.5 336.5h56l64.5 -341l65.5 -341h-29zM312 643l-31.5 -71.5l-33.5 -79.5l-54.5 -129
l-58.5 -136h256l-47 259l-28 157h-3z" />
    <glyph glyph-name="aogonek" unicode="&#x105;" horiz-adv-x="478" 
d="M277 492c21.333 0 42.5049 -2.50098 63.5049 -7.50098s41.833 -12.167 62.5 -21.5l8 26l29 -1c-0.666992 -6 -2.5 -20.167 -5.5 -42.5l-10.5 -80l-12.5 -99.5l-12.5 -100.5l-10.5 -83c-3 -23.667 -4.83301 -39.5 -5.5 -47.5l63 2l2 -26
c-13.333 -5.33301 -25.833 -9.16602 -37.5 -11.499s-21.5 -3.5 -29.5 -3.5c-5.33301 0 -9.83301 0.333008 -13.5 1s-7.16699 1.66699 -10.5 3c-24.667 -22.667 -42.5 -45 -53.5 -67s-17.167 -40 -18.5 -54c0 -18 4.66699 -30.167 14 -36.5s22.666 -9.5 39.999 -9.5
c12.667 0 25 1 37 3s22.667 4.33301 32 7c1.33301 -8 2.66602 -14.667 3.99902 -20c-15.333 -7.33301 -31.166 -12.833 -47.499 -16.5s-31.833 -5.5 -46.5 -5.5c-26 0 -44.833 5.5 -56.5 16.5s-17.5 24.833 -17.5 41.5c0 8.66699 1.5 18.834 4.5 30.501s8.33301 24 16 37
s18 26.833 31 41.5s29.833 29.667 50.5 45c-2 4.66699 -2.33301 12 -1 22c0 0.666992 0.166992 2.5 0.5 5.5s0.666016 6.5 0.999023 10.5s0.666016 7.66699 0.999023 11s0.5 5.33301 0.5 6l-1 2c-30 -24.667 -59.333 -43.5 -88 -56.5s-57.334 -19.5 -86.001 -19.5
c-38.667 0 -70.5 14.333 -95.5 43s-37.833 70 -38.5 124c0 40 4.66699 79.833 14 119.5s23.666 75.167 42.999 106.5s44 56.666 74 75.999s65.667 29 107 29zM274.005 457.999c-26.667 0 -51.667 -6.66406 -75 -19.9971s-43.833 -32.333 -61.5 -57
s-31.5 -54.834 -41.5 -90.501s-15 -75.834 -15 -120.501c0 -50 10 -86.167 30 -108.5s44 -33.5 72 -33.5c28.667 0 57.334 8 86.001 24s56.334 35 83.001 57l43 319c-22.667 11.333 -43.834 19.166 -63.501 23.499s-38.834 6.5 -57.501 6.5z" />
    <glyph glyph-name="Cacute" unicode="&#x106;" horiz-adv-x="540" 
d="M386 693c34.667 0 65.8301 -2.66895 93.4971 -8.00195s50.167 -11.333 67.5 -18l-13 -34c-24 8 -48.833 14 -74.5 18s-49.834 6 -72.501 6c-46.667 0 -87 -10 -121 -30s-62.167 -48 -84.5 -84s-39 -78.833 -50 -128.5s-16.5 -103.834 -16.5 -162.501
c0 -30.667 2.66699 -59.5 8 -86.5s15.166 -50.5 29.499 -70.5s34 -35.833 59 -47.5s57.5 -17.5 97.5 -17.5c8.66699 0 19.5 0.333008 32.5 1s26.833 2 41.5 4s29.834 4.5 45.501 7.5s30.834 6.5 45.501 10.5l9 -33c-12.667 -4.66699 -26.667 -8.66699 -42 -12
s-31.166 -6.16602 -47.499 -8.49902s-32.666 -4 -48.999 -5s-31.5 -1.5 -45.5 -1.5c-42 0 -77.5 6 -106.5 18s-52.5 29.333 -70.5 52s-31.167 50.334 -39.5 83.001s-12.5 69.334 -12.5 110.001c0 24 1.66699 51.5 5 82.5s9.16602 62.667 17.499 95s20 64 35 95
s34.333 58.667 58 83s51.834 44 84.501 59s71.334 22.5 116.001 22.5zM355.996 715.998l-16 18l134 135l26 -34z" />
    <glyph glyph-name="cacute" unicode="&#x107;" horiz-adv-x="413" 
d="M207 26c26 0 50.165 2.83301 72.498 8.5s47.5 14.167 75.5 25.5c0.666992 -2.66699 2.33398 -7.16699 5.00098 -13.5s4.66699 -10.833 6 -13.5c-20 -11.333 -44.5 -20.833 -73.5 -28.5s-58.5 -11.5 -88.5 -11.5s-55.5 4.33301 -76.5 13s-38 21 -51 37
s-22.333 35.167 -28 57.5s-8.5 47.166 -8.5 74.499c0 17.333 1.16699 37.166 3.5 59.499s6.5 45.333 12.5 69s14.5 46.834 25.5 69.501s25.167 43 42.5 61s38.333 32.5 63 43.5s54 16.5 88 16.5c25.333 0 49 -2.5 71 -7.5s41.667 -12.167 59 -21.5l-14 -29
c-24 10.667 -46.333 17.334 -67 20.001s-38 4 -52 4c-31.333 0 -58.833 -7.16699 -82.5 -21.5s-43.667 -34.333 -60 -60s-28.666 -55.834 -36.999 -90.501s-12.5 -72 -12.5 -112c0 -20.667 2 -40.167 6 -58.5s11 -34.166 21 -47.499s23.167 -24 39.5 -32s36.5 -12 60.5 -12z
M247.998 549l-21 17l120 150l34 -32z" />
    <glyph glyph-name="Ccircumflex" unicode="&#x108;" horiz-adv-x="540" 
d="M386 693c34.667 0 65.8301 -2.66895 93.4971 -8.00195s50.167 -11.333 67.5 -18l-13 -34c-24 8 -48.833 14 -74.5 18s-49.834 6 -72.501 6c-46.667 0 -87 -10 -121 -30s-62.167 -48 -84.5 -84s-39 -78.833 -50 -128.5s-16.5 -103.834 -16.5 -162.501
c0 -30.667 2.66699 -59.5 8 -86.5s15.166 -50.5 29.499 -70.5s34 -35.833 59 -47.5s57.5 -17.5 97.5 -17.5c8.66699 0 19.5 0.333008 32.5 1s26.833 2 41.5 4s29.834 4.5 45.501 7.5s30.834 6.5 45.501 10.5l9 -33c-12.667 -4.66699 -26.667 -8.66699 -42 -12
s-31.166 -6.16602 -47.499 -8.49902s-32.666 -4 -48.999 -5s-31.5 -1.5 -45.5 -1.5c-42 0 -77.5 6 -106.5 18s-52.5 29.333 -70.5 52s-31.167 50.334 -39.5 83.001s-12.5 69.334 -12.5 110.001c0 24 1.66699 51.5 5 82.5s9.16602 62.667 17.499 95s20 64 35 95
s34.333 58.667 58 83s51.834 44 84.501 59s71.334 22.5 116.001 22.5zM493.996 713.998l-122 101l-148 -102l-12 17l147 129h35l115 -128z" />
    <glyph glyph-name="ccircumflex" unicode="&#x109;" horiz-adv-x="413" 
d="M207 26c26 0 50.165 2.83301 72.498 8.5s47.5 14.167 75.5 25.5c0.666992 -2.66699 2.33398 -7.16699 5.00098 -13.5s4.66699 -10.833 6 -13.5c-20 -11.333 -44.5 -20.833 -73.5 -28.5s-58.5 -11.5 -88.5 -11.5s-55.5 4.33301 -76.5 13s-38 21 -51 37
s-22.333 35.167 -28 57.5s-8.5 47.166 -8.5 74.499c0 17.333 1.16699 37.166 3.5 59.499s6.5 45.333 12.5 69s14.5 46.834 25.5 69.501s25.167 43 42.5 61s38.333 32.5 63 43.5s54 16.5 88 16.5c25.333 0 49 -2.5 71 -7.5s41.667 -12.167 59 -21.5l-14 -29
c-24 10.667 -46.333 17.334 -67 20.001s-38 4 -52 4c-31.333 0 -58.833 -7.16699 -82.5 -21.5s-43.667 -34.333 -60 -60s-28.666 -55.834 -36.999 -90.501s-12.5 -72 -12.5 -112c0 -20.667 2 -40.167 6 -58.5s11 -34.166 21 -47.499s23.167 -24 39.5 -32s36.5 -12 60.5 -12z
M400.998 544l-122 101l-148 -102l-12 17l147 128h35l116 -127z" />
    <glyph glyph-name="Cdotaccent" unicode="&#x10a;" horiz-adv-x="540" 
d="M386 693c34.667 0 65.8301 -2.66895 93.4971 -8.00195s50.167 -11.333 67.5 -18l-13 -34c-24 8 -48.833 14 -74.5 18s-49.834 6 -72.501 6c-46.667 0 -87 -10 -121 -30s-62.167 -48 -84.5 -84s-39 -78.833 -50 -128.5s-16.5 -103.834 -16.5 -162.501
c0 -30.667 2.66699 -59.5 8 -86.5s15.166 -50.5 29.499 -70.5s34 -35.833 59 -47.5s57.5 -17.5 97.5 -17.5c8.66699 0 19.5 0.333008 32.5 1s26.833 2 41.5 4s29.834 4.5 45.501 7.5s30.834 6.5 45.501 10.5l9 -33c-12.667 -4.66699 -26.667 -8.66699 -42 -12
s-31.166 -6.16602 -47.499 -8.49902s-32.666 -4 -48.999 -5s-31.5 -1.5 -45.5 -1.5c-42 0 -77.5 6 -106.5 18s-52.5 29.333 -70.5 52s-31.167 50.334 -39.5 83.001s-12.5 69.334 -12.5 110.001c0 24 1.66699 51.5 5 82.5s9.16602 62.667 17.499 95s20 64 35 95
s34.333 58.667 58 83s51.834 44 84.501 59s71.334 22.5 116.001 22.5zM408.996 801.998c-0.666992 -10 -4.83203 -19.001 -12.499 -27.001s-16.834 -12 -27.501 -12c-9.33301 0 -16.833 3 -22.5 9s-8.5 13.333 -8.5 22c0 10.667 4.16699 19.834 12.5 27.501
s17.5 11.5 27.5 11.5c8.66699 0 16 -3 22 -9s9 -13.333 9 -22z" />
    <glyph glyph-name="cdotaccent" unicode="&#x10b;" horiz-adv-x="413" 
d="M207 26c26 0 50.165 2.83301 72.498 8.5s47.5 14.167 75.5 25.5c0.666992 -2.66699 2.33398 -7.16699 5.00098 -13.5s4.66699 -10.833 6 -13.5c-20 -11.333 -44.5 -20.833 -73.5 -28.5s-58.5 -11.5 -88.5 -11.5s-55.5 4.33301 -76.5 13s-38 21 -51 37
s-22.333 35.167 -28 57.5s-8.5 47.166 -8.5 74.499c0 17.333 1.16699 37.166 3.5 59.499s6.5 45.333 12.5 69s14.5 46.834 25.5 69.501s25.167 43 42.5 61s38.333 32.5 63 43.5s54 16.5 88 16.5c25.333 0 49 -2.5 71 -7.5s41.667 -12.167 59 -21.5l-14 -29
c-24 10.667 -46.333 17.334 -67 20.001s-38 4 -52 4c-31.333 0 -58.833 -7.16699 -82.5 -21.5s-43.667 -34.333 -60 -60s-28.666 -55.834 -36.999 -90.501s-12.5 -72 -12.5 -112c0 -20.667 2 -40.167 6 -58.5s11 -34.166 21 -47.499s23.167 -24 39.5 -32s36.5 -12 60.5 -12z
M313.998 606c-0.666992 -9.33301 -4.49902 -17.999 -11.499 -25.999s-15.167 -12 -24.5 -12c-8 0 -14.667 3 -20 9s-8 13 -8 21c0 10.667 3.66699 19.667 11 27s15.666 11 24.999 11c7.33301 0 13.833 -2.83301 19.5 -8.5s8.5 -12.834 8.5 -21.501z" />
    <glyph glyph-name="Ccaron" unicode="&#x10c;" horiz-adv-x="540" 
d="M386 693c34.667 0 65.8301 -2.66895 93.4971 -8.00195s50.167 -11.333 67.5 -18l-13 -34c-24 8 -48.833 14 -74.5 18s-49.834 6 -72.501 6c-46.667 0 -87 -10 -121 -30s-62.167 -48 -84.5 -84s-39 -78.833 -50 -128.5s-16.5 -103.834 -16.5 -162.501
c0 -30.667 2.66699 -59.5 8 -86.5s15.166 -50.5 29.499 -70.5s34 -35.833 59 -47.5s57.5 -17.5 97.5 -17.5c8.66699 0 19.5 0.333008 32.5 1s26.833 2 41.5 4s29.834 4.5 45.501 7.5s30.834 6.5 45.501 10.5l9 -33c-12.667 -4.66699 -26.667 -8.66699 -42 -12
s-31.166 -6.16602 -47.499 -8.49902s-32.666 -4 -48.999 -5s-31.5 -1.5 -45.5 -1.5c-42 0 -77.5 6 -106.5 18s-52.5 29.333 -70.5 52s-31.167 50.334 -39.5 83.001s-12.5 69.334 -12.5 110.001c0 24 1.66699 51.5 5 82.5s9.16602 62.667 17.499 95s20 64 35 95
s34.333 58.667 58 83s51.834 44 84.501 59s71.334 22.5 116.001 22.5zM537.996 845.998l-146 -125h-35l-116 126l16 17l123 -100l146 99z" />
    <glyph glyph-name="ccaron" unicode="&#x10d;" horiz-adv-x="413" 
d="M207 26c26 0 50.165 2.83301 72.498 8.5s47.5 14.167 75.5 25.5c0.666992 -2.66699 2.33398 -7.16699 5.00098 -13.5s4.66699 -10.833 6 -13.5c-20 -11.333 -44.5 -20.833 -73.5 -28.5s-58.5 -11.5 -88.5 -11.5s-55.5 4.33301 -76.5 13s-38 21 -51 37
s-22.333 35.167 -28 57.5s-8.5 47.166 -8.5 74.499c0 17.333 1.16699 37.166 3.5 59.499s6.5 45.333 12.5 69s14.5 46.834 25.5 69.501s25.167 43 42.5 61s38.333 32.5 63 43.5s54 16.5 88 16.5c25.333 0 49 -2.5 71 -7.5s41.667 -12.167 59 -21.5l-14 -29
c-24 10.667 -46.333 17.334 -67 20.001s-38 4 -52 4c-31.333 0 -58.833 -7.16699 -82.5 -21.5s-43.667 -34.333 -60 -60s-28.666 -55.834 -36.999 -90.501s-12.5 -72 -12.5 -112c0 -20.667 2 -40.167 6 -58.5s11 -34.166 21 -47.499s23.167 -24 39.5 -32s36.5 -12 60.5 -12z
M437.998 684l-146 -128h-35l-116 129l16 17l122 -102l148 101z" />
    <glyph glyph-name="Dcaron" unicode="&#x10e;" horiz-adv-x="591" 
d="M51 0l83 683h192c44 0 80.5 -6.83301 109.5 -20.5s52 -32.5 69 -56.5s29 -52.167 36 -84.5s10.5 -67.166 10.5 -104.499c0 -55.333 -5.33301 -108 -16 -158s-28.5 -94.333 -53.5 -133s-57.667 -69.334 -98 -92.001s-89.833 -34 -148.5 -34h-184zM172 647
l-74.001 -609.999h134c10 0 23.833 0.833008 41.5 2.5s36.667 6.16699 57 13.5s41 18.666 62 33.999s40 36.833 57 64.5s31 62.5 42 104.5s16.5 93.667 16.5 155c0 58 -7.16699 102.833 -21.5 134.5s-31.666 55 -51.999 70s-41.833 24 -64.5 27s-42 4.5 -58 4.5h-140z
M474.999 846.001l-146 -125h-35l-116 126l16 17l123 -100l146 99z" />
    <glyph glyph-name="dcaron" unicode="&#x10f;" horiz-adv-x="538" 
d="M566 712c9.33301 0 16.999 -3.16895 22.999 -9.50195s9 -15.166 9 -26.499c0 -19.333 -6.5 -38.166 -19.5 -56.499s-30.167 -34.5 -51.5 -48.5l-9 13c11.333 11.333 19.333 21 24 29s8.33398 18.667 11.001 32c-8 1.33301 -14.167 4.33301 -18.5 9s-6.5 10.667 -6.5 18
c0 11.333 3.5 20.833 10.5 28.5s16.167 11.5 27.5 11.5zM339.999 -0.00195312l9.00195 68.002l-2 2c-30 -24.667 -59.333 -43.5 -88 -56.5s-57 -19.5 -85 -19.5c-39.333 0 -71.5 14.333 -96.5 43s-37.5 70 -37.5 124c0 40 4.5 79.833 13.5 119.5s23.167 75.167 42.5 106.5
s44 56.666 74 75.999s65.667 29 107 29c21.333 0 42.166 -2.33301 62.499 -7s40.166 -11.334 59.499 -20.001l31 244h38l-89 -709h-39zM274.001 458c-26.667 0 -51.667 -6.66406 -75 -19.9971s-43.833 -32.333 -61.5 -57s-31.5 -54.834 -41.5 -90.501
s-15 -75.834 -15 -120.501c0 -50 10 -86.167 30 -108.5s44 -33.5 72 -33.5c28.667 0 57.5 8 86.5 24s56.833 35 83.5 57l41 319c-22.667 11.333 -43.5 19.166 -62.5 23.499s-38.167 6.5 -57.5 6.5z" />
    <glyph glyph-name="Dcroat" unicode="&#x110;" horiz-adv-x="591" 
d="M51 0l41 340h-61l4 30h60l39 313h192c44 0 80.5 -6.83301 109.5 -20.5s52 -32.5 69 -56.5s29 -52.167 36 -84.5s10.5 -67.166 10.5 -104.499c0 -55.333 -5.33301 -108 -16 -158s-28.5 -94.333 -53.5 -133s-57.667 -69.334 -98 -92.001s-89.833 -34 -148.5 -34h-184z
M172 647l-33.001 -276.999h187l-4 -30h-187l-37 -303h134c10 0 23.833 0.833008 41.5 2.5s36.667 6.16699 57 13.5s41 18.666 62 33.999s40 36.833 57 64.5s31 62.5 42 104.5s16.5 93.667 16.5 155c0 58 -7.16699 102.833 -21.5 134.5s-31.666 55 -51.999 70
s-41.833 24 -64.5 27s-42 4.5 -58 4.5h-140z" />
    <glyph glyph-name="dcroat" unicode="&#x111;" horiz-adv-x="466" 
d="M341 0l8.00195 68.002l-2 2c-30 -24.667 -59.333 -43.5 -88 -56.5s-57 -19.5 -85 -19.5c-39.333 0 -71.5 14.333 -96.5 43s-37.5 70 -37.5 124c0 40 4.5 79.833 13.5 119.5s23.167 75.167 42.5 106.5s44 56.666 74 75.999s65.667 29 107 29
c21.333 0 42.166 -2.33301 62.499 -7s40.166 -11.334 59.499 -20.001l11 84h-157l4 29h157l16 131h38l-16 -131h61l-4 -29h-61l-69 -549h-38zM274.002 458.002c-26.667 0 -51.667 -6.66406 -75 -19.9971s-43.833 -32.333 -61.5 -57s-31.5 -54.834 -41.5 -90.501
s-15 -75.834 -15 -120.501c0 -50 10 -86.167 30 -108.5s44 -33.5 72 -33.5c28.667 0 57.5 8 86.5 24s56.833 35 83.5 57l41 319c-22.667 11.333 -43.5 19.166 -62.5 23.499s-38.167 6.5 -57.5 6.5z" />
    <glyph glyph-name="Emacron" unicode="&#x112;" horiz-adv-x="489" 
d="M51 0l83 683h362l-4 -36h-320l-33 -267h282l-4 -36h-283l-37 -308h347l-3 -36h-390zM191 785h291l-4 -37h-292z" />
    <glyph glyph-name="emacron" unicode="&#x113;" horiz-adv-x="420" 
d="M278 494c22 0 41.0029 -3.16992 57.0029 -9.50293s29 -14.666 39 -24.999s17.333 -22.166 22 -35.499s7 -27 7 -41c0 -32.667 -8.83301 -60 -26.5 -82s-41.167 -39.833 -70.5 -53.5s-63.5 -24 -102.5 -31s-79.833 -11.833 -122.5 -14.5
c-0.666992 -7.33301 -1 -13.5 -1 -18.5v-13.5c0 -16.667 1.66699 -33.5 5 -50.5s9.66602 -32.5 18.999 -46.5s22 -25.333 38 -34s37 -13 63 -13c48.667 0 97 11 145 33l11 -27c-21.333 -12 -45.833 -21.333 -73.5 -28s-57.5 -10 -89.5 -10s-58.333 4.83301 -79 14.5
s-36.834 23 -48.501 40s-19.834 36.5 -24.501 58.5s-7 45.667 -7 71c0 30.667 3.66699 64.334 11 101.001s20.166 71 38.499 103s42.833 58.667 73.5 80s69.334 32 116.001 32zM272.003 458.997c-28 0 -52.833 -6.16699 -74.5 -18.5s-40.5 -28.833 -56.5 -49.5
s-28.833 -44.667 -38.5 -72s-16.167 -56 -19.5 -86c88.667 4.66699 157.5 18.5 206.5 41.5s73.5 57.167 73.5 102.5c0 24.667 -7.33301 44.5 -22 59.5s-37.667 22.5 -69 22.5zM149.003 633.997h289l-4 -37h-290z" />
    <glyph glyph-name="Ebreve" unicode="&#x114;" horiz-adv-x="489" 
d="M51 0l83 683h362l-4 -36h-320l-33 -267h282l-4 -36h-283l-37 -308h347l-3 -36h-390zM325 721c-15.333 0 -29.4961 2.66602 -42.4961 7.99902s-24.833 12.5 -35.5 21.5s-20.334 19.333 -29.001 31s-16.334 23.834 -23.001 36.501l32 20
c13.333 -24 28.833 -43.333 46.5 -58s37.167 -22 58.5 -22c15.333 0 34.166 5 56.499 15s50.166 30 83.499 60l15 -14c-30.667 -37.333 -59.667 -63 -87 -77s-52.333 -21 -75 -21z" />
    <glyph glyph-name="ebreve" unicode="&#x115;" horiz-adv-x="420" 
d="M278 494c22 0 41.0029 -3.16992 57.0029 -9.50293s29 -14.666 39 -24.999s17.333 -22.166 22 -35.499s7 -27 7 -41c0 -32.667 -8.83301 -60 -26.5 -82s-41.167 -39.833 -70.5 -53.5s-63.5 -24 -102.5 -31s-79.833 -11.833 -122.5 -14.5
c-0.666992 -7.33301 -1 -13.5 -1 -18.5v-13.5c0 -16.667 1.66699 -33.5 5 -50.5s9.66602 -32.5 18.999 -46.5s22 -25.333 38 -34s37 -13 63 -13c48.667 0 97 11 145 33l11 -27c-21.333 -12 -45.833 -21.333 -73.5 -28s-57.5 -10 -89.5 -10s-58.333 4.83301 -79 14.5
s-36.834 23 -48.501 40s-19.834 36.5 -24.501 58.5s-7 45.667 -7 71c0 30.667 3.66699 64.334 11 101.001s20.166 71 38.499 103s42.833 58.667 73.5 80s69.334 32 116.001 32zM272.003 458.997c-28 0 -52.833 -6.16699 -74.5 -18.5s-40.5 -28.833 -56.5 -49.5
s-28.833 -44.667 -38.5 -72s-16.167 -56 -19.5 -86c88.667 4.66699 157.5 18.5 206.5 41.5s73.5 57.167 73.5 102.5c0 24.667 -7.33301 44.5 -22 59.5s-37.667 22.5 -69 22.5zM274.003 560.997c-15.333 0 -29.499 2.66602 -42.499 7.99902s-24.833 12.5 -35.5 21.5
s-20.334 19.333 -29.001 31s-16.334 23.834 -23.001 36.501l33 20c12.667 -23.333 27.834 -42.333 45.501 -57s37.167 -22 58.5 -22c8 0 16.667 1 26 3s19.666 5.66699 30.999 11s24 12.833 38 22.5s29 22.167 45 37.5l15 -14c-30 -36.667 -58.667 -62.167 -86 -76.5
s-52.666 -21.5 -75.999 -21.5z" />
    <glyph glyph-name="Edotaccent" unicode="&#x116;" horiz-adv-x="489" 
d="M51 0l83 683h362l-4 -36h-320l-33 -267h282l-4 -36h-283l-37 -308h347l-3 -36h-390zM373 794c-0.666992 -10 -4.83203 -19.001 -12.499 -27.001s-16.834 -12 -27.501 -12c-9.33301 0 -16.833 3 -22.5 9s-8.5 13.333 -8.5 22c0 10.667 4.16699 19.834 12.5 27.501
s17.5 11.5 27.5 11.5c8.66699 0 16 -3 22 -9s9 -13.333 9 -22z" />
    <glyph glyph-name="edotaccent" unicode="&#x117;" horiz-adv-x="420" 
d="M278 494c22 0 41.0029 -3.16992 57.0029 -9.50293s29 -14.666 39 -24.999s17.333 -22.166 22 -35.499s7 -27 7 -41c0 -32.667 -8.83301 -60 -26.5 -82s-41.167 -39.833 -70.5 -53.5s-63.5 -24 -102.5 -31s-79.833 -11.833 -122.5 -14.5
c-0.666992 -7.33301 -1 -13.5 -1 -18.5v-13.5c0 -16.667 1.66699 -33.5 5 -50.5s9.66602 -32.5 18.999 -46.5s22 -25.333 38 -34s37 -13 63 -13c48.667 0 97 11 145 33l11 -27c-21.333 -12 -45.833 -21.333 -73.5 -28s-57.5 -10 -89.5 -10s-58.333 4.83301 -79 14.5
s-36.834 23 -48.501 40s-19.834 36.5 -24.501 58.5s-7 45.667 -7 71c0 30.667 3.66699 64.334 11 101.001s20.166 71 38.499 103s42.833 58.667 73.5 80s69.334 32 116.001 32zM272.003 458.997c-28 0 -52.833 -6.16699 -74.5 -18.5s-40.5 -28.833 -56.5 -49.5
s-28.833 -44.667 -38.5 -72s-16.167 -56 -19.5 -86c88.667 4.66699 157.5 18.5 206.5 41.5s73.5 57.167 73.5 102.5c0 24.667 -7.33301 44.5 -22 59.5s-37.667 22.5 -69 22.5zM325.003 600.997c-0.666992 -10 -4.83203 -19.001 -12.499 -27.001s-16.834 -12 -27.501 -12
c-9.33301 0 -16.833 3 -22.5 9s-8.5 13.333 -8.5 22c0 10.667 4.16699 19.834 12.5 27.501s17.5 11.5 27.5 11.5c8.66699 0 16 -3 22 -9s9 -13.333 9 -22z" />
    <glyph glyph-name="Eogonek" unicode="&#x118;" horiz-adv-x="489" 
d="M413 0c-25.333 -23.333 -43.667 -46.168 -55 -68.501s-17.666 -40.5 -18.999 -54.5c0 -18 4.66699 -30.167 14 -36.5s22.666 -9.5 39.999 -9.5c12.667 0 25 1 37 3s22.667 4.33301 32 7c1.33301 -8 2.66602 -14.667 3.99902 -20
c-15.333 -7.33301 -31.166 -12.833 -47.499 -16.5s-31.833 -5.5 -46.5 -5.5c-26 0 -44.833 5.5 -56.5 16.5s-17.5 24.833 -17.5 41.5c0 8.66699 1.33301 18.334 4 29.001s7.33398 22 14.001 34s15.667 24.833 27 38.5s25.666 27.5 42.999 41.5h-335l83 683h362l-4 -36h-320
l-33 -267h282l-4 -36h-283l-37 -308h347l-3 -36h-28z" />
    <glyph glyph-name="eogonek" unicode="&#x119;" horiz-adv-x="420" 
d="M278 494c22 0 41.0039 -3.16797 57.0039 -9.50098s29 -14.666 39 -24.999s17.333 -22.166 22 -35.499s7 -27 7 -41c0 -32.667 -8.83301 -60 -26.5 -82s-41.167 -39.833 -70.5 -53.5s-63.5 -24 -102.5 -31s-79.833 -11.833 -122.5 -14.5
c-0.666992 -7.33301 -1 -13.5 -1 -18.5v-13.5c0 -16.667 1.66699 -33.5 5 -50.5s9.66602 -32.5 18.999 -46.5s22 -25.333 38 -34s37 -13 63 -13c48.667 0 97 11 145 33l11 -27c-4 -2.66699 -8.16699 -5 -12.5 -7l-13.5 -6c-25.333 -22.667 -43.5 -45.167 -54.5 -67.5
s-17.167 -40.5 -18.5 -54.5c0 -18 4.66699 -30.167 14 -36.5s22.666 -9.5 39.999 -9.5c12.667 0 25 1 37 3s22.667 4.33301 32 7c1.33301 -8 2.66602 -14.667 3.99902 -20c-15.333 -7.33301 -31.166 -12.833 -47.499 -16.5s-31.833 -5.5 -46.5 -5.5
c-26 0 -44.833 5.5 -56.5 16.5s-17.5 24.833 -17.5 41.5c0 15.333 4.66699 34.166 14 56.499s28 46.166 56 71.499c-29.333 -7.33301 -60.333 -11 -93 -11c-32 0 -58.333 4.83301 -79 14.5s-36.834 23 -48.501 40s-19.834 36.5 -24.501 58.5s-7 45.667 -7 71
c0 30.667 3.66699 64.334 11 101.001s20.166 71 38.499 103s42.833 58.667 73.5 80s69.334 32 116.001 32zM272.004 458.999c-28 0 -52.833 -6.16699 -74.5 -18.5s-40.5 -28.833 -56.5 -49.5s-28.833 -44.667 -38.5 -72s-16.167 -56 -19.5 -86
c88.667 4.66699 157.5 18.5 206.5 41.5s73.5 57.167 73.5 102.5c0 24.667 -7.33301 44.5 -22 59.5s-37.667 22.5 -69 22.5z" />
    <glyph glyph-name="Ecaron" unicode="&#x11a;" horiz-adv-x="489" 
d="M51 0l83 683h362l-4 -36h-320l-33 -267h282l-4 -36h-283l-37 -308h347l-3 -36h-390zM489 846l-146 -125h-35l-116 126l16 17l123 -100l146 99z" />
    <glyph glyph-name="ecaron" unicode="&#x11b;" horiz-adv-x="420" 
d="M278 494c22 0 41.0029 -3.16992 57.0029 -9.50293s29 -14.666 39 -24.999s17.333 -22.166 22 -35.499s7 -27 7 -41c0 -32.667 -8.83301 -60 -26.5 -82s-41.167 -39.833 -70.5 -53.5s-63.5 -24 -102.5 -31s-79.833 -11.833 -122.5 -14.5
c-0.666992 -7.33301 -1 -13.5 -1 -18.5v-13.5c0 -16.667 1.66699 -33.5 5 -50.5s9.66602 -32.5 18.999 -46.5s22 -25.333 38 -34s37 -13 63 -13c48.667 0 97 11 145 33l11 -27c-21.333 -12 -45.833 -21.333 -73.5 -28s-57.5 -10 -89.5 -10s-58.333 4.83301 -79 14.5
s-36.834 23 -48.501 40s-19.834 36.5 -24.501 58.5s-7 45.667 -7 71c0 30.667 3.66699 64.334 11 101.001s20.166 71 38.499 103s42.833 58.667 73.5 80s69.334 32 116.001 32zM272.003 458.997c-28 0 -52.833 -6.16699 -74.5 -18.5s-40.5 -28.833 -56.5 -49.5
s-28.833 -44.667 -38.5 -72s-16.167 -56 -19.5 -86c88.667 4.66699 157.5 18.5 206.5 41.5s73.5 57.167 73.5 102.5c0 24.667 -7.33301 44.5 -22 59.5s-37.667 22.5 -69 22.5zM447.003 675.997l-146 -128h-35l-116 129l16 17l122 -102l148 101z" />
    <glyph glyph-name="Gcircumflex" unicode="&#x11c;" horiz-adv-x="581" 
d="M400 693c34.667 0 65.502 -2.3291 92.502 -6.99609s50.833 -10.334 71.5 -17.001l-12 -35c-26 7.33301 -52.333 12.833 -79 16.5s-51 5.5 -73 5.5c-47.333 0 -88.833 -9.83301 -124.5 -29.5s-65.5 -47.167 -89.5 -82.5s-42 -78 -54 -128s-18 -105 -18 -165
c0 -30 2.83301 -58.333 8.5 -85s15.667 -50 30 -70s34.333 -35.833 60 -47.5s58.5 -17.5 98.5 -17.5c9.33301 0 20.166 0.5 32.499 1.5s25 2.33301 38 4s25.667 3.66699 38 6s23.166 5.16602 32.499 8.49902l36 291h41l-40 -321c-32 -10 -64 -17.167 -96 -21.5
s-63.333 -6.5 -94 -6.5c-41.333 0 -76.5 6 -105.5 18s-52.667 29.167 -71 51.5s-31.666 49.666 -39.999 81.999s-12.5 68.833 -12.5 109.5c0 24 1.66699 51.5 5 82.5s9.5 62.667 18.5 95s21.333 64.166 37 95.499s35.667 59.333 60 84s53.666 44.5 87.999 59.5
s74.833 22.5 121.5 22.5zM524.002 714.004l-122 101l-148 -102l-12 17l147 129h35l115 -128z" />
    <glyph glyph-name="gcircumflex" unicode="&#x11d;" horiz-adv-x="479" 
d="M384 5c-3.33301 -24.667 -8.16699 -50.166 -14.5 -76.499s-17.333 -50.5 -33 -72.5s-37.167 -40 -64.5 -54s-64 -21 -110 -21c-25.333 0 -49.333 3.16699 -72 9.5s-41 12.833 -55 19.5c2 5.33301 4.16699 10.833 6.5 16.5s4.83301 11.167 7.5 16.5
c17.333 -8 36.666 -14.333 57.999 -19s41.666 -7 60.999 -7c36 0 65 5.66699 87 17s39.333 26.666 52 45.999s22 42.333 28 69s11 55 15 85c0.666992 6.66699 1.33398 12.834 2.00098 18.501s1.66699 11.5 3 17.5c0 0.666992 -0.333008 1 -1 1s-1 0.333008 -1 1
c-30 -25.333 -59.5 -44.833 -88.5 -58.5s-57.833 -20.5 -86.5 -20.5c-38 0 -70 13.667 -96 41s-39.333 69.333 -40 126v3c0 41.333 5 81.666 15 120.999s25.167 74.5 45.5 105.5s46 55.833 77 74.5s67.167 28 108.5 28c25.333 0 50.833 -2.83301 76.5 -8.5
s49.834 -14.167 72.501 -25.5l4 -8zM285.999 458.001c-26.667 0 -52.167 -6.33301 -76.5 -19s-45.833 -31.5 -64.5 -56.5s-33.5 -55.667 -44.5 -92s-16.5 -77.833 -16.5 -124.5c0 -50 10.167 -85.833 30.5 -107.5s44.5 -32.5 72.5 -32.5c28.667 0 57.667 8.5 87 25.5
s57.333 36.5 84 58.5l42 323c-21.333 10 -41.333 16.667 -60 20s-36.667 5 -54 5zM431.999 546.001l-122 101l-148 -102l-12 17l147 128h35l116 -127z" />
    <glyph glyph-name="Gbreve" unicode="&#x11e;" horiz-adv-x="581" 
d="M400 693c34.667 0 65.502 -2.3291 92.502 -6.99609s50.833 -10.334 71.5 -17.001l-12 -35c-26 7.33301 -52.333 12.833 -79 16.5s-51 5.5 -73 5.5c-47.333 0 -88.833 -9.83301 -124.5 -29.5s-65.5 -47.167 -89.5 -82.5s-42 -78 -54 -128s-18 -105 -18 -165
c0 -30 2.83301 -58.333 8.5 -85s15.667 -50 30 -70s34.333 -35.833 60 -47.5s58.5 -17.5 98.5 -17.5c9.33301 0 20.166 0.5 32.499 1.5s25 2.33301 38 4s25.667 3.66699 38 6s23.166 5.16602 32.499 8.49902l36 291h41l-40 -321c-32 -10 -64 -17.167 -96 -21.5
s-63.333 -6.5 -94 -6.5c-41.333 0 -76.5 6 -105.5 18s-52.667 29.167 -71 51.5s-31.666 49.666 -39.999 81.999s-12.5 68.833 -12.5 109.5c0 24 1.66699 51.5 5 82.5s9.5 62.667 18.5 95s21.333 64.166 37 95.499s35.667 59.333 60 84s53.666 44.5 87.999 59.5
s74.833 22.5 121.5 22.5zM388.002 735.004c-15.333 0 -29.4961 2.66602 -42.4961 7.99902s-24.833 12.5 -35.5 21.5s-20.334 19.333 -29.001 31s-16.334 23.834 -23.001 36.501l32 20c13.333 -24 28.833 -43.333 46.5 -58s37.167 -22 58.5 -22c15.333 0 34.166 5 56.499 15
s50.166 30 83.499 60l15 -14c-30.667 -37.333 -59.667 -63 -87 -77s-52.333 -21 -75 -21z" />
    <glyph glyph-name="gbreve" unicode="&#x11f;" horiz-adv-x="479" 
d="M384 5c-3.33301 -24.667 -8.16699 -50.166 -14.5 -76.499s-17.333 -50.5 -33 -72.5s-37.167 -40 -64.5 -54s-64 -21 -110 -21c-25.333 0 -49.333 3.16699 -72 9.5s-41 12.833 -55 19.5c2 5.33301 4.16699 10.833 6.5 16.5s4.83301 11.167 7.5 16.5
c17.333 -8 36.666 -14.333 57.999 -19s41.666 -7 60.999 -7c36 0 65 5.66699 87 17s39.333 26.666 52 45.999s22 42.333 28 69s11 55 15 85c0.666992 6.66699 1.33398 12.834 2.00098 18.501s1.66699 11.5 3 17.5c0 0.666992 -0.333008 1 -1 1s-1 0.333008 -1 1
c-30 -25.333 -59.5 -44.833 -88.5 -58.5s-57.833 -20.5 -86.5 -20.5c-38 0 -70 13.667 -96 41s-39.333 69.333 -40 126v3c0 41.333 5 81.666 15 120.999s25.167 74.5 45.5 105.5s46 55.833 77 74.5s67.167 28 108.5 28c25.333 0 50.833 -2.83301 76.5 -8.5
s49.834 -14.167 72.501 -25.5l4 -8zM285.999 458.001c-26.667 0 -52.167 -6.33301 -76.5 -19s-45.833 -31.5 -64.5 -56.5s-33.5 -55.667 -44.5 -92s-16.5 -77.833 -16.5 -124.5c0 -50 10.167 -85.833 30.5 -107.5s44.5 -32.5 72.5 -32.5c28.667 0 57.667 8.5 87 25.5
s57.333 36.5 84 58.5l42 323c-21.333 10 -41.333 16.667 -60 20s-36.667 5 -54 5zM281.999 561.001c-15.333 0 -29.499 2.66602 -42.499 7.99902s-24.833 12.5 -35.5 21.5s-20.334 19.333 -29.001 31s-16.334 23.834 -23.001 36.501l33 20
c12.667 -23.333 27.834 -42.333 45.501 -57s37.167 -22 58.5 -22c8 0 16.667 1 26 3s19.666 5.66699 30.999 11s24 12.833 38 22.5s29 22.167 45 37.5l15 -14c-30 -36.667 -58.667 -62.167 -86 -76.5s-52.666 -21.5 -75.999 -21.5z" />
    <glyph glyph-name="Gdotaccent" unicode="&#x120;" horiz-adv-x="581" 
d="M400 693c34.667 0 65.502 -2.3291 92.502 -6.99609s50.833 -10.334 71.5 -17.001l-12 -35c-26 7.33301 -52.333 12.833 -79 16.5s-51 5.5 -73 5.5c-47.333 0 -88.833 -9.83301 -124.5 -29.5s-65.5 -47.167 -89.5 -82.5s-42 -78 -54 -128s-18 -105 -18 -165
c0 -30 2.83301 -58.333 8.5 -85s15.667 -50 30 -70s34.333 -35.833 60 -47.5s58.5 -17.5 98.5 -17.5c9.33301 0 20.166 0.5 32.499 1.5s25 2.33301 38 4s25.667 3.66699 38 6s23.166 5.16602 32.499 8.49902l36 291h41l-40 -321c-32 -10 -64 -17.167 -96 -21.5
s-63.333 -6.5 -94 -6.5c-41.333 0 -76.5 6 -105.5 18s-52.667 29.167 -71 51.5s-31.666 49.666 -39.999 81.999s-12.5 68.833 -12.5 109.5c0 24 1.66699 51.5 5 82.5s9.5 62.667 18.5 95s21.333 64.166 37 95.499s35.667 59.333 60 84s53.666 44.5 87.999 59.5
s74.833 22.5 121.5 22.5zM430.002 796.004c-0.666992 -10 -4.83203 -19.001 -12.499 -27.001s-16.834 -12 -27.501 -12c-9.33301 0 -16.833 3 -22.5 9s-8.5 13.333 -8.5 22c0 10.667 4.16699 19.834 12.5 27.501s17.5 11.5 27.5 11.5c8.66699 0 16 -3 22 -9s9 -13.333 9 -22
z" />
    <glyph glyph-name="gdotaccent" unicode="&#x121;" horiz-adv-x="479" 
d="M384 5c-3.33301 -24.667 -8.16699 -50.166 -14.5 -76.499s-17.333 -50.5 -33 -72.5s-37.167 -40 -64.5 -54s-64 -21 -110 -21c-25.333 0 -49.333 3.16699 -72 9.5s-41 12.833 -55 19.5c2 5.33301 4.16699 10.833 6.5 16.5s4.83301 11.167 7.5 16.5
c17.333 -8 36.666 -14.333 57.999 -19s41.666 -7 60.999 -7c36 0 65 5.66699 87 17s39.333 26.666 52 45.999s22 42.333 28 69s11 55 15 85c0.666992 6.66699 1.33398 12.834 2.00098 18.501s1.66699 11.5 3 17.5c0 0.666992 -0.333008 1 -1 1s-1 0.333008 -1 1
c-30 -25.333 -59.5 -44.833 -88.5 -58.5s-57.833 -20.5 -86.5 -20.5c-38 0 -70 13.667 -96 41s-39.333 69.333 -40 126v3c0 41.333 5 81.666 15 120.999s25.167 74.5 45.5 105.5s46 55.833 77 74.5s67.167 28 108.5 28c25.333 0 50.833 -2.83301 76.5 -8.5
s49.834 -14.167 72.501 -25.5l4 -8zM285.999 458.001c-26.667 0 -52.167 -6.33301 -76.5 -19s-45.833 -31.5 -64.5 -56.5s-33.5 -55.667 -44.5 -92s-16.5 -77.833 -16.5 -124.5c0 -50 10.167 -85.833 30.5 -107.5s44.5 -32.5 72.5 -32.5c28.667 0 57.667 8.5 87 25.5
s57.333 36.5 84 58.5l42 323c-21.333 10 -41.333 16.667 -60 20s-36.667 5 -54 5zM329.999 611.001c-0.666992 -10 -4.83203 -19.001 -12.499 -27.001s-16.834 -12 -27.501 -12c-9.33301 0 -16.833 3 -22.5 9s-8.5 13.333 -8.5 22c0 10.667 4.16699 19.834 12.5 27.501
s17.5 11.5 27.5 11.5c8.66699 0 16 -3 22 -9s9 -13.333 9 -22z" />
    <glyph glyph-name="Gcommaaccent" unicode="&#x122;" horiz-adv-x="581" 
d="M400 693c34.667 0 65.502 -2.3291 92.502 -6.99609s50.833 -10.334 71.5 -17.001l-12 -35c-26 7.33301 -52.333 12.833 -79 16.5s-51 5.5 -73 5.5c-47.333 0 -88.833 -9.83301 -124.5 -29.5s-65.5 -47.167 -89.5 -82.5s-42 -78 -54 -128s-18 -105 -18 -165
c0 -30 2.83301 -58.333 8.5 -85s15.667 -50 30 -70s34.333 -35.833 60 -47.5s58.5 -17.5 98.5 -17.5c9.33301 0 20.166 0.5 32.499 1.5s25 2.33301 38 4s25.667 3.66699 38 6s23.166 5.16602 32.499 8.49902l36 291h41l-40 -321c-32 -10 -64 -17.167 -96 -21.5
s-63.333 -6.5 -94 -6.5c-41.333 0 -76.5 6 -105.5 18s-52.667 29.167 -71 51.5s-31.666 49.666 -39.999 81.999s-12.5 68.833 -12.5 109.5c0 24 1.66699 51.5 5 82.5s9.5 62.667 18.5 95s21.333 64.166 37 95.499s35.667 59.333 60 84s53.666 44.5 87.999 59.5
s74.833 22.5 121.5 22.5zM293.002 -67.9961c9.33301 0 16.999 -3.16895 22.999 -9.50195s9 -15.166 9 -26.499c0 -19.333 -6.5 -38.166 -19.5 -56.499s-30.167 -34.5 -51.5 -48.5l-9 13c11.333 11.333 19.333 21 24 29s8.33398 18.667 11.001 32
c-8 1.33301 -14.167 4.33301 -18.5 9s-6.5 10.667 -6.5 18c0 11.333 3.5 20.833 10.5 28.5s16.167 11.5 27.5 11.5z" />
    <glyph glyph-name="gcommaaccent" unicode="&#x123;" horiz-adv-x="479" 
d="M384 5c-3.33301 -24.667 -8.16699 -50.166 -14.5 -76.499s-17.333 -50.5 -33 -72.5s-37.167 -40 -64.5 -54s-64 -21 -110 -21c-25.333 0 -49.333 3.16699 -72 9.5s-41 12.833 -55 19.5c2 5.33301 4.16699 10.833 6.5 16.5s4.83301 11.167 7.5 16.5
c17.333 -8 36.666 -14.333 57.999 -19s41.666 -7 60.999 -7c36 0 65 5.66699 87 17s39.333 26.666 52 45.999s22 42.333 28 69s11 55 15 85c0.666992 6.66699 1.33398 12.834 2.00098 18.501s1.66699 11.5 3 17.5c0 0.666992 -0.333008 1 -1 1s-1 0.333008 -1 1
c-30 -25.333 -59.5 -44.833 -88.5 -58.5s-57.833 -20.5 -86.5 -20.5c-38 0 -70 13.667 -96 41s-39.333 69.333 -40 126v3c0 41.333 5 81.666 15 120.999s25.167 74.5 45.5 105.5s46 55.833 77 74.5s67.167 28 108.5 28c25.333 0 50.833 -2.83301 76.5 -8.5
s49.834 -14.167 72.501 -25.5l4 -8zM285.999 458.001c-26.667 0 -52.167 -6.33301 -76.5 -19s-45.833 -31.5 -64.5 -56.5s-33.5 -55.667 -44.5 -92s-16.5 -77.833 -16.5 -124.5c0 -50 10.167 -85.833 30.5 -107.5s44.5 -32.5 72.5 -32.5c28.667 0 57.667 8.5 87 25.5
s57.333 36.5 84 58.5l42 323c-21.333 10 -41.333 16.667 -60 20s-36.667 5 -54 5zM326.999 626.001c16 -1.33301 24 -10.002 24 -26.002c0 -10.667 -3.5 -20.167 -10.5 -28.5s-15.833 -12.5 -26.5 -12.5c-19.333 0 -30 9.66699 -32 29c0 44 24 81.667 72 113l9 -13
c-11.333 -11.333 -19.5 -21.166 -24.5 -29.499s-8.83301 -19.166 -11.5 -32.499z" />
    <glyph glyph-name="Hcircumflex" unicode="&#x124;" horiz-adv-x="590" 
d="M443 0l42.0039 342.002h-350l-41 -342h-43l83 683h43c-0.666992 -4.66699 -1.83398 -14.834 -3.50098 -30.501s-3.83398 -34 -6.50098 -55s-5.33398 -43.167 -8.00098 -66.5s-5.33398 -45.333 -8.00098 -66l-7 -54.5c-2 -15.667 -3.33301 -25.834 -4 -30.501h349l37 303
h44l-83 -683h-44zM490.004 714.002l-122 101l-148 -102l-12 17l147 129h35l115 -128z" />
    <glyph glyph-name="hcircumflex" unicode="&#x125;" horiz-adv-x="464" 
d="M125 408c35.333 28 69.3359 49.3359 102.003 64.0029s63 22 91 22c20 0 36.833 -2.66699 50.5 -8s24.5 -12.5 32.5 -21.5s13.667 -19.5 17 -31.5s5 -24.667 5 -38v-15.5c0 -5 -0.666992 -10.167 -2 -15.5l-40 -364h-40l39 339c2 14 3 27.333 3 40
c0 23.333 -5.16699 42.666 -15.5 57.999s-30.833 23 -61.5 23c-28.667 0 -58.834 -8.66699 -90.501 -26s-63.834 -39.333 -96.501 -66l-22 -184l-23 -184h-39l86 714h40c-1.33301 -8.66699 -3 -21.334 -5 -38.001l-7 -56l-8 -65
c-2.66699 -22.667 -5.33398 -43.834 -8.00098 -63.501l-7 -51.5c-2 -14.667 -3.33301 -24.667 -4 -30zM279.003 730.003l-122 101l-148 -102l-12 17l147 128h35l116 -127z" />
    <glyph glyph-name="Hbar" unicode="&#x126;" horiz-adv-x="591" 
d="M445 0l42.001 342h-349l-4.5 -34.5l-8 -61.5c-3 -23.333 -6 -48.333 -9 -75s-6 -51.667 -9 -75s-5.5 -43.833 -7.5 -61.5s-3.33301 -29.167 -4 -34.5h-43l62 515h-55l4 29h55l17 139h43c0 -4 -0.833008 -12.833 -2.5 -26.5l-5.5 -43.5l-5.5 -43.5
c-1.66699 -13.667 -2.83398 -22.167 -3.50098 -25.5h349l17 139h44l-17 -139h55l-4 -29h-55l-62 -515h-44zM491.001 380l16.001 135.001h-348c-0.666992 -2.66699 -1.83398 -10.834 -3.50098 -24.501l-5.5 -43.5l-5.5 -43c-1.66699 -13.333 -2.5 -21.333 -2.5 -24h349z" />
    <glyph glyph-name="hbar" unicode="&#x127;" horiz-adv-x="464" 
d="M125 408c35.333 28 69.3359 49.334 102.003 64.001s63 22 91 22c21.333 0 38.833 -2.83301 52.5 -8.5s24.5 -13.167 32.5 -22.5s13.5 -20.333 16.5 -33s4.5 -26 4.5 -40c0 -8.66699 -1 -17.334 -3 -26.001l-40 -364h-40c7.33301 58 14.166 115.667 20.499 173l19.5 173
c1.33301 6.66699 2 12.834 2 18.501v17.5c0 23.333 -5.33301 42.166 -16 56.499s-31 21.5 -61 21.5c-28.667 0 -58.834 -8.66699 -90.501 -26s-63.834 -39.333 -96.501 -66l-22 -184l-23 -184h-39l35 291l35 291h-64l3 28h64l13 104h40l-14 -104h197l-4 -28h-196l-7.5 -56.5
l-6.5 -51l-5 -40.5c-1.33301 -11.333 -2.33301 -19.333 -3 -24z" />
    <glyph glyph-name="Itilde" unicode="&#x128;" horiz-adv-x="216" 
d="M61 0l83 683h43l-84 -683h-42zM243 761c-10 0 -21.1641 2.00098 -33.4971 6.00098s-24.666 8.33301 -36.999 13s-24.333 9 -36 13s-21.834 6 -30.501 6l-54 -40l-16 11c8.66699 19.333 20.167 34.666 34.5 45.999s29.166 17 44.499 17c10.667 0 22 -2 34 -6l36 -12.5
l35 -12.5c11.333 -4 21.666 -6 30.999 -6l52 39l15 -12c-8.66699 -16.667 -19.334 -31.167 -32.001 -43.5s-27 -18.5 -43 -18.5z" />
    <glyph glyph-name="itilde" unicode="&#x129;" horiz-adv-x="199" 
d="M53 0l59 486h40l-60 -486h-39zM212 583c-10 0 -21.1641 2.00098 -33.4971 6.00098s-24.666 8.33301 -36.999 13s-24.333 9 -36 13s-21.834 6 -30.501 6l-54 -40l-16 11c8.66699 19.333 20.167 34.666 34.5 45.999s29.166 17 44.499 17c10.667 0 22 -2 34 -6l36 -12.5
l35 -12.5c11.333 -4 21.666 -6 30.999 -6l52 39l15 -12c-8.66699 -16.667 -19.334 -31.167 -32.001 -43.5s-27 -18.5 -43 -18.5z" />
    <glyph glyph-name="Imacron" unicode="&#x12a;" horiz-adv-x="216" 
d="M61 0l83 683h43l-84 -683h-42zM27 785h291l-4 -37h-292z" />
    <glyph glyph-name="imacron" unicode="&#x12b;" horiz-adv-x="199" 
d="M53 0l59 486h40l-60 -486h-39zM5 634h289l-4 -37h-290z" />
    <glyph glyph-name="Ibreve" unicode="&#x12c;" horiz-adv-x="216" 
d="M164 724c-15.333 0 -29.4961 2.66602 -42.4961 7.99902s-24.833 12.5 -35.5 21.5s-20.334 19.333 -29.001 31s-16.334 23.834 -23.001 36.501l32 20c13.333 -24 28.833 -43.333 46.5 -58s37.167 -22 58.5 -22c15.333 0 34.166 5 56.499 15s50.166 30 83.499 60l15 -14
c-30.667 -37.333 -59.667 -63 -87 -77s-52.333 -21 -75 -21zM61.0039 -0.000976562l83 683h43l-84 -683h-42z" />
    <glyph glyph-name="ibreve" unicode="&#x12d;" horiz-adv-x="209" 
d="M63 0l59 486h40l-60 -486h-39zM145 561c-15.333 0 -29.499 2.66602 -42.499 7.99902s-24.833 12.5 -35.5 21.5s-20.334 19.333 -29.001 31s-16.334 23.834 -23.001 36.501l33 20c12.667 -23.333 27.834 -42.333 45.501 -57s37.167 -22 58.5 -22c8 0 16.667 1 26 3
s19.666 5.66699 30.999 11s24 12.833 38 22.5s29 22.167 45 37.5l15 -14c-30 -36.667 -58.667 -62.167 -86 -76.5s-52.666 -21.5 -75.999 -21.5z" />
    <glyph glyph-name="Iogonek" unicode="&#x12e;" horiz-adv-x="216" 
d="M77 0c-24.667 -22.667 -42.499 -45.168 -53.499 -67.501s-17.167 -40.166 -18.5 -53.499c0 -18 4.66699 -30.167 14 -36.5s22.666 -9.5 39.999 -9.5c12.667 0 25 1 37 3s22.667 4.33301 32 7c1.33301 -8 2.66602 -14.667 3.99902 -20
c-15.333 -7.33301 -31.166 -12.833 -47.499 -16.5s-31.833 -5.5 -46.5 -5.5c-26 0 -44.833 5.5 -56.5 16.5s-17.5 24.833 -17.5 41.5c0 8.66699 1.5 18.667 4.5 30s8.16699 23.5 15.5 36.5s17.333 26.5 30 40.5s28.667 28.667 48 44l82 673h43l-84 -683h-26z" />
    <glyph glyph-name="iogonek" unicode="&#x12f;" horiz-adv-x="199" 
d="M64 0c-23.333 -22 -39.999 -43.668 -49.999 -65.001s-15.667 -38.666 -17 -51.999c0 -18 4.66699 -30.167 14 -36.5s22.666 -9.5 39.999 -9.5c12.667 0 25 1 37 3s22.667 4.33301 32 7c1.33301 -8 2.66602 -14.667 3.99902 -20
c-15.333 -7.33301 -31.166 -12.833 -47.499 -16.5s-31.833 -5.5 -46.5 -5.5c-26 0 -44.833 5.5 -56.5 16.5s-17.5 24.833 -17.5 41.5c0 8.66699 1.5 18.667 4.5 30s8.16699 23.5 15.5 36.5s17.333 26.5 30 40.5s28.667 28.667 48 44l58 472h40l-60 -486h-28z
M149.001 643.999c8.66699 0 15.499 -2.66699 20.499 -8s7.5 -12.333 7.5 -21c0 -10 -3.16699 -18.667 -9.5 -26s-14.833 -11 -25.5 -11c-7.33301 0 -13.666 2.83301 -18.999 8.5s-8 12.5 -8 20.5c0 10.667 3.5 19.5 10.5 26.5s14.833 10.5 23.5 10.5z" />
    <glyph glyph-name="Idotaccent" unicode="&#x130;" horiz-adv-x="216" 
d="M61 0l83 683h43l-84 -683h-42zM216 797c-0.666992 -10 -4.83203 -19.001 -12.499 -27.001s-16.834 -12 -27.501 -12c-9.33301 0 -16.833 3 -22.5 9s-8.5 13.333 -8.5 22c0 10.667 4.16699 19.834 12.5 27.501s17.5 11.5 27.5 11.5c8.66699 0 16 -3 22 -9s9 -13.333 9 -22
z" />
    <glyph glyph-name="dotlessi" unicode="&#x131;" horiz-adv-x="199" 
d="M53 0l59 486h40l-60 -486h-39z" />
    <glyph glyph-name="IJ" unicode="&#x132;" horiz-adv-x="467" 
d="M61 0l83 683h43l-84 -683h-42zM385 683h42l-69 -574c-5.33301 -39.333 -12.833 -74.333 -22.5 -105s-23.334 -57.5 -41.001 -80.5s-39.5 -42.667 -65.5 -59s-57.333 -30.5 -94 -42.5l-12 34c34 12 62.167 25.833 84.5 41.5s40.833 33.5 55.5 53.5
s25.834 42.833 33.501 68.5s13.5 54.5 17.5 86.5z" />
    <glyph glyph-name="ij" unicode="&#x133;" horiz-adv-x="386" 
d="M339 486c-0.666992 -5.33301 -2.33301 -20.333 -5 -45s-6.16699 -54 -10.5 -88l-13.5 -109l-13 -107l-10 -82c-2.66699 -22 -4 -33.667 -4 -35c-4 -30 -8.83301 -57.167 -14.5 -81.5s-14.667 -46 -27 -65s-28.666 -35.667 -48.999 -50s-46.833 -25.833 -79.5 -34.5l-9 31
c28 9.33301 50.5 20.166 67.5 32.499s30.167 26.333 39.5 42s16.166 32.834 20.499 51.501s7.83301 39 10.5 61l57 479h40zM53.001 0l59 486h40l-60 -486h-39zM335.001 644c8 0 14.667 -2.66699 20 -8s8 -12.333 8 -21c0 -10 -3.16699 -18.667 -9.5 -26
s-14.833 -11 -25.5 -11c-8 0 -14.5 2.83301 -19.5 8.5s-7.5 12.5 -7.5 20.5c0 10.667 3.33301 19.5 10 26.5s14.667 10.5 24 10.5zM149.001 644c8.66699 0 15.499 -2.66699 20.499 -8s7.5 -12.333 7.5 -21c0 -10 -3.16699 -18.667 -9.5 -26s-14.833 -11 -25.5 -11
c-7.33301 0 -13.666 2.83301 -18.999 8.5s-8 12.5 -8 20.5c0 10.667 3.5 19.5 10.5 26.5s14.833 10.5 23.5 10.5z" />
    <glyph glyph-name="Jcircumflex" unicode="&#x134;" horiz-adv-x="261" 
d="M179 684h42l-69 -574c-5.33301 -39.333 -12.833 -74.333 -22.5 -105s-23.334 -57.5 -41.001 -80.5s-39.5 -42.667 -65.5 -59s-57.333 -30.5 -94 -42.5l-12 34c34 12 62.167 25.833 84.5 41.5s40.833 33.5 55.5 53.5s25.834 42.833 33.501 68.5s13.5 54.5 17.5 86.5z
M337 714l-122 101l-148 -102l-12 17l147 129h35l115 -128z" />
    <glyph glyph-name="jcircumflex" unicode="&#x135;" horiz-adv-x="213" 
d="M166 486c-0.666992 -5.33301 -2.33301 -20.333 -5 -45s-6.16699 -54 -10.5 -88l-13.5 -109l-13 -107l-10 -82c-2.66699 -22 -4 -33.667 -4 -35c-4 -30 -8.83301 -57.167 -14.5 -81.5s-14.667 -46 -27 -65s-28.666 -35.667 -48.999 -50s-46.833 -25.833 -79.5 -34.5l-9 31
c28 9.33301 50.5 20.166 67.5 32.499s30.167 26.333 39.5 42s16.166 32.834 20.499 51.501s7.83301 39 10.5 61l57 479h40zM283.001 546l-122 101l-148 -102l-11 17l146 128h35l116 -127z" />
    <glyph glyph-name="Kcommaaccent" unicode="&#x136;" horiz-adv-x="515" 
d="M93 0h-42l83 683h42l-42 -340l365 340h52l-296 -274l217 -409h-46l-201 379l-97 -89zM233 -50c9.33301 0 16.999 -3.16895 22.999 -9.50195s9 -15.166 9 -26.499c0 -19.333 -6.5 -38.166 -19.5 -56.499s-30.167 -34.5 -51.5 -48.5l-9 13c11.333 11.333 19.333 21 24 29
s8.33398 18.667 11.001 32c-8 1.33301 -14.167 4.33301 -18.5 9s-6.5 10.667 -6.5 18c0 11.333 3.5 20.833 10.5 28.5s16.167 11.5 27.5 11.5z" />
    <glyph glyph-name="kcommaaccent" unicode="&#x137;" horiz-adv-x="402" 
d="M109 252l35 31.501l48 43.5l71.5 64.5l105.5 95.5h48c-3.33301 -3.33301 -10.5 -9.83301 -21.5 -19.5l-38 -34.5l-46.5 -42.5l-46.5 -42.5l-38 -34.5c-11 -9.66699 -18.167 -16.167 -21.5 -19.5l23 -34l142 -260h-44l-146 272l-80 -70l-24 -202h-39l86 709h39l-38 -316
c-3.33301 -23.333 -6.33301 -46.333 -9 -69s-5.66699 -46.334 -9 -71.001zM182 -45.999c9.33301 0 16.999 -3.16895 22.999 -9.50195s9 -15.166 9 -26.499c0 -19.333 -6.5 -38.166 -19.5 -56.499s-30.167 -34.5 -51.5 -48.5l-9 13c11.333 11.333 19.333 21 24 29
s8.33398 18.667 11.001 32c-8 1.33301 -14.167 4.33301 -18.5 9s-6.5 10.667 -6.5 18c0 11.333 3.5 20.833 10.5 28.5s16.167 11.5 27.5 11.5z" />
    <glyph glyph-name="kgreenlandic" unicode="&#x138;" horiz-adv-x="402" 
d="M135 486l-11 -92.999c-3.33301 -23.333 -6.33301 -46.333 -9 -69s-5.66699 -46.334 -9 -71.001l3 -1l35 31.5l48 43.5l71.5 64.5l105.5 95.5h48c-3.33301 -3.33301 -10.5 -9.83301 -21.5 -19.5l-38 -34.5l-46.5 -42.5l-46.5 -42.5l-38 -34.5
c-11 -9.66699 -18.167 -16.167 -21.5 -19.5l23 -34l142 -260h-44l-146 272l-80 -70l-24 -202h-39l59 486h39z" />
    <glyph glyph-name="Lacute" unicode="&#x139;" horiz-adv-x="507" 
d="M72 0l83 683h42l-79 -647h354l-4 -36h-396zM189 716l-16 18l134 135l26 -34z" />
    <glyph glyph-name="lacute" unicode="&#x13a;" horiz-adv-x="199" 
d="M173 714c-0.666992 -5.33301 -2.16699 -18.499 -4.5 -39.499s-5.5 -47.167 -9.5 -78.5l-13 -105l-14.5 -118l-14.5 -117.5l-13 -104c-4 -31 -7.16699 -56.833 -9.5 -77.5s-3.83301 -33.334 -4.5 -38.001l65 2l3 -27c-12 -6 -24.5 -10.333 -37.5 -13s-24.167 -4 -33.5 -4
c-25.333 0 -38 10.667 -38 32v8c0 4 0.333008 8 1 12l84 668h39zM138 731.001l-16 18l134 135l26 -34z" />
    <glyph glyph-name="Lcommaaccent" unicode="&#x13b;" horiz-adv-x="507" 
d="M72 0l83 683h42l-79 -647h354l-4 -36h-396zM254 -68c9.33301 0 16.999 -3.16895 22.999 -9.50195s9 -15.166 9 -26.499c0 -19.333 -6.5 -38.166 -19.5 -56.499s-30.167 -34.5 -51.5 -48.5l-9 13c11.333 11.333 19.333 21 24 29s8.33398 18.667 11.001 32
c-8 1.33301 -14.167 4.33301 -18.5 9s-6.5 10.667 -6.5 18c0 11.333 3.5 20.833 10.5 28.5s16.167 11.5 27.5 11.5z" />
    <glyph glyph-name="lcommaaccent" unicode="&#x13c;" horiz-adv-x="199" 
d="M173 714c-0.666992 -5.33301 -2.16699 -18.499 -4.5 -39.499s-5.5 -47.167 -9.5 -78.5l-13 -105l-14.5 -118l-14.5 -117.5l-13 -104c-4 -31 -7.16699 -56.833 -9.5 -77.5s-3.83301 -33.334 -4.5 -38.001l65 2l3 -27c-12 -6 -24.5 -10.333 -37.5 -13s-24.167 -4 -33.5 -4
c-25.333 0 -38 10.667 -38 32v8c0 4 0.333008 8 1 12l84 668h39zM71 -67.999c9.33301 0 16.999 -3.16895 22.999 -9.50195s9 -15.166 9 -26.499c0 -19.333 -6.5 -38.166 -19.5 -56.499s-30.167 -34.5 -51.5 -48.5l-9 13c11.333 11.333 19.333 21 24 29
s8.33398 18.667 11.001 32c-8 1.33301 -14.167 4.33301 -18.5 9s-6.5 10.667 -6.5 18c0 11.333 3.5 20.833 10.5 28.5s16.167 11.5 27.5 11.5z" />
    <glyph glyph-name="Lcaron" unicode="&#x13d;" horiz-adv-x="507" 
d="M72 0l83 683h42l-79 -647h354l-4 -36h-396zM409 677c9.33301 0 16.999 -3.16895 22.999 -9.50195s9 -15.166 9 -26.499c0 -19.333 -6.5 -38.166 -19.5 -56.499s-30.167 -34.5 -51.5 -48.5l-9 13c11.333 11.333 19.333 21 24 29s8.33398 18.667 11.001 32
c-8 1.33301 -14.167 4.33301 -18.5 9s-6.5 10.667 -6.5 18c0 11.333 3.5 20.833 10.5 28.5s16.167 11.5 27.5 11.5z" />
    <glyph glyph-name="lcaron" unicode="&#x13e;" horiz-adv-x="251" 
d="M279 709c9.33301 0 16.999 -3.16895 22.999 -9.50195s9 -15.166 9 -26.499c0 -19.333 -6.5 -38.166 -19.5 -56.499s-30.167 -34.5 -51.5 -48.5l-9 13c11.333 11.333 19.333 21 24 29s8.33398 18.667 11.001 32c-8 1.33301 -14.167 4.33301 -18.5 9s-6.5 10.667 -6.5 18
c0 11.333 3.5 20.833 10.5 28.5s16.167 11.5 27.5 11.5zM172.999 713.998c-0.666992 -5.33301 -2.16699 -18.499 -4.5 -39.499s-5.5 -47.167 -9.5 -78.5l-13 -105l-14.5 -118l-14.5 -117.5l-13 -104c-4 -31 -7.16699 -56.833 -9.5 -77.5s-3.83301 -33.334 -4.5 -38.001l65 2
l3 -27c-12 -6 -24.5 -10.333 -37.5 -13s-24.167 -4 -33.5 -4c-25.333 0 -38 10.667 -38 32v8c0 4 0.333008 8 1 12l84 668h39z" />
    <glyph glyph-name="Ldot" unicode="&#x13f;" horiz-adv-x="507" 
d="M72 0l83 683h42l-79 -647h354l-4 -36h-396zM412 394c-0.666992 -10 -4.83203 -19.001 -12.499 -27.001s-16.834 -12 -27.501 -12c-9.33301 0 -16.833 3 -22.5 9s-8.5 13.333 -8.5 22c0 10.667 4.16699 19.834 12.5 27.501s17.5 11.5 27.5 11.5c8.66699 0 16 -3 22 -9
s9 -13.333 9 -22z" />
    <glyph glyph-name="ldot" unicode="&#x140;" horiz-adv-x="243" 
d="M263 369c-0.666992 -10 -4.83203 -19.001 -12.499 -27.001s-16.834 -12 -27.501 -12c-9.33301 0 -16.833 3 -22.5 9s-8.5 13.333 -8.5 22c0 10.667 4.16699 19.834 12.5 27.501s17.5 11.5 27.5 11.5c8.66699 0 16 -3 22 -9s9 -13.333 9 -22zM173.002 713.999
c-0.666992 -5.33301 -2.16699 -18.499 -4.5 -39.499s-5.5 -47.167 -9.5 -78.5l-13 -105l-14.5 -118l-14.5 -117.5l-13 -104c-4 -31 -7.16699 -56.833 -9.5 -77.5s-3.83301 -33.334 -4.5 -38.001l65 2l3 -27c-12 -6 -24.5 -10.333 -37.5 -13s-24.167 -4 -33.5 -4
c-25.333 0 -38 10.667 -38 32v8c0 4 0.333008 8 1 12l84 668h39z" />
    <glyph glyph-name="Lslash" unicode="&#x141;" horiz-adv-x="507" 
d="M70 0l33 270l-73 -40l-12 28l90 50l45 375h43l-43 -350l143 79l11 -27l-159 -89l-31 -260h353l-3 -36h-397z" />
    <glyph glyph-name="lslash" unicode="&#x142;" horiz-adv-x="199" 
d="M173 714c-0.666992 -3.33301 -2 -13.333 -4 -30l-7 -60.5c-2.66699 -23.667 -5.66699 -49 -9 -76l-9.5 -77.5l-8 -65.5c-2.33301 -19 -3.83301 -31.833 -4.5 -38.5l110 61l12 -27l-127 -70l-36 -294l65 2l3 -27c-12 -6 -24.5 -10.333 -37.5 -13s-24.167 -4 -33.5 -4
c-24.667 0 -37 10.667 -37 32v8.5c0 3 0.333008 6.5 1 10.5l32 260l-98 -55l-12 29l115 63l46 372h39z" />
    <glyph glyph-name="Nacute" unicode="&#x143;" horiz-adv-x="623" 
d="M486 76l74 607h43l-84 -683h-42l-249 493l-58 119l-3 -1l-74 -611h-42l83 683h43l24.5 -48l46 -90.5l56.5 -112.5l56.5 -112.5l46 -90.5l24.5 -48l52 -105h3zM361 716l-16 18l134 135l26 -34z" />
    <glyph glyph-name="nacute" unicode="&#x144;" horiz-adv-x="465" 
d="M342 0l40 350.002c1.33301 5.33301 2 11 2 17v17c0 22.667 -5.33301 41.167 -16 55.5s-31.667 21.5 -63 21.5c-28.667 0 -58.334 -8.83301 -89.001 -26.5s-62 -39.5 -94 -65.5l-47 -369h-39c1.33301 8 3.5 24.5 6.5 49.5l10.5 87.5l13 106l13.5 106l11 87.5
c3 25 4.83301 41.833 5.5 50.5h39l-5 -38.5c-2 -15.667 -3.66699 -27.834 -5 -36.501c0 -0.666992 0.333008 -1 1 -1s1.33398 -0.333008 2.00098 -1c36 27.333 69.5 48.5 100.5 63.5s60.5 22.5 88.5 22.5c20.667 0 38 -2.83301 52 -8.5s25 -13.167 33 -22.5
s13.667 -20.333 17 -33s5 -26 5 -40c0 -4 -0.166992 -8.33301 -0.5 -13s-0.833008 -9.33398 -1.5 -14.001l-41 -365h-39zM237 549.002l-21 17l120 150l34 -32z" />
    <glyph glyph-name="Ncommaaccent" unicode="&#x145;" horiz-adv-x="623" 
d="M486 76l74 607h43l-84 -683h-42l-249 493l-58 119l-3 -1l-74 -611h-42l83 683h43l24.5 -48l46 -90.5l56.5 -112.5l56.5 -112.5l46 -90.5l24.5 -48l52 -105h3zM275 -60c9.33301 0 16.999 -3.16895 22.999 -9.50195s9 -15.166 9 -26.499
c0 -19.333 -6.5 -38.166 -19.5 -56.499s-30.167 -34.5 -51.5 -48.5l-9 13c11.333 11.333 19.333 21 24 29s8.33398 18.667 11.001 32c-8 1.33301 -14.167 4.33301 -18.5 9s-6.5 10.667 -6.5 18c0 11.333 3.5 20.833 10.5 28.5s16.167 11.5 27.5 11.5z" />
    <glyph glyph-name="ncommaaccent" unicode="&#x146;" horiz-adv-x="465" 
d="M342 0l40 350.002c1.33301 5.33301 2 11 2 17v17c0 22.667 -5.33301 41.167 -16 55.5s-31.667 21.5 -63 21.5c-28.667 0 -58.334 -8.83301 -89.001 -26.5s-62 -39.5 -94 -65.5l-47 -369h-39c1.33301 8 3.5 24.5 6.5 49.5l10.5 87.5l13 106l13.5 106l11 87.5
c3 25 4.83301 41.833 5.5 50.5h39l-5 -38.5c-2 -15.667 -3.66699 -27.834 -5 -36.501c0 -0.666992 0.333008 -1 1 -1s1.33398 -0.333008 2.00098 -1c36 27.333 69.5 48.5 100.5 63.5s60.5 22.5 88.5 22.5c20.667 0 38 -2.83301 52 -8.5s25 -13.167 33 -22.5
s13.667 -20.333 17 -33s5 -26 5 -40c0 -4 -0.166992 -8.33301 -0.5 -13s-0.833008 -9.33398 -1.5 -14.001l-41 -365h-39zM201 -53.998c9.33301 0 16.999 -3.16895 22.999 -9.50195s9 -15.166 9 -26.499c0 -19.333 -6.5 -38.166 -19.5 -56.499s-30.167 -34.5 -51.5 -48.5
l-9 13c11.333 11.333 19.333 21 24 29s8.33398 18.667 11.001 32c-8 1.33301 -14.167 4.33301 -18.5 9s-6.5 10.667 -6.5 18c0 11.333 3.5 20.833 10.5 28.5s16.167 11.5 27.5 11.5z" />
    <glyph glyph-name="Ncaron" unicode="&#x147;" horiz-adv-x="623" 
d="M486 76l74 607h43l-84 -683h-42l-249 493l-58 119l-3 -1l-74 -611h-42l83 683h43l24.5 -48l46 -90.5l56.5 -112.5l56.5 -112.5l46 -90.5l24.5 -48l52 -105h3zM550 846l-146 -125h-35l-116 126l16 17l123 -100l146 99z" />
    <glyph glyph-name="ncaron" unicode="&#x148;" horiz-adv-x="465" 
d="M342 0l40 350.002c1.33301 5.33301 2 11 2 17v17c0 22.667 -5.33301 41.167 -16 55.5s-31.667 21.5 -63 21.5c-28.667 0 -58.334 -8.83301 -89.001 -26.5s-62 -39.5 -94 -65.5l-47 -369h-39c1.33301 8 3.5 24.5 6.5 49.5l10.5 87.5l13 106l13.5 106l11 87.5
c3 25 4.83301 41.833 5.5 50.5h39l-5 -38.5c-2 -15.667 -3.66699 -27.834 -5 -36.501c0 -0.666992 0.333008 -1 1 -1s1.33398 -0.333008 2.00098 -1c36 27.333 69.5 48.5 100.5 63.5s60.5 22.5 88.5 22.5c20.667 0 38 -2.83301 52 -8.5s25 -13.167 33 -22.5
s13.667 -20.333 17 -33s5 -26 5 -40c0 -4 -0.166992 -8.33301 -0.5 -13s-0.833008 -9.33398 -1.5 -14.001l-41 -365h-39zM424 684.002l-146 -128h-35l-116 129l16 17l122 -102l148 101z" />
    <glyph glyph-name="napostrophe" unicode="&#x149;" horiz-adv-x="521" 
d="M398 0l40 350.002c1.33301 5.33301 2 11 2 17v17c0 22.667 -5.33301 41.167 -16 55.5s-31.667 21.5 -63 21.5c-28.667 0 -58.334 -8.83301 -89.001 -26.5s-62 -39.5 -94 -65.5l-47 -369h-39c0.666992 8 2.66699 24.5 6 49.5s7 54.167 11 87.5l13 106l13.5 106l11 87.5
c3 25 4.83301 41.833 5.5 50.5h39l-5 -38.5c-2 -15.667 -3.66699 -27.834 -5 -36.501c0 -0.666992 0.333008 -1 1 -1s1.33398 -0.333008 2.00098 -1c36 27.333 69.5 48.5 100.5 63.5s60.5 22.5 88.5 22.5c20.667 0 38 -2.83301 52 -8.5s25 -13.167 33 -22.5
s13.667 -20.333 17 -33s5 -26 5 -40c0 -4 -0.166992 -8.33301 -0.5 -13s-0.833008 -9.33398 -1.5 -14.001l-41 -365h-39zM92 632.002c9.33301 0 16.999 -3.16895 22.999 -9.50195s9 -15.166 9 -26.499c0 -19.333 -6.5 -38.166 -19.5 -56.499s-30.167 -34.5 -51.5 -48.5
l-9 13c11.333 11.333 19.333 21 24 29s8.33398 18.667 11.001 32c-8 1.33301 -14.167 4.33301 -18.5 9s-6.5 10.667 -6.5 18c0 11.333 3.5 20.833 10.5 28.5s16.167 11.5 27.5 11.5z" />
    <glyph glyph-name="Eng" unicode="&#x14a;" horiz-adv-x="624" 
d="M488 77l74.001 606h43l-92 -745c-4 -38 -15.333 -66 -34 -84s-46.667 -27 -84 -27c-22 0 -46.333 3 -73 9l9 33c23.333 -4.66699 43.333 -7 60 -7c25.333 0 44.166 5.16699 56.499 15.5s19.833 26.833 22.5 49.5l9 72l-24 48l-45 89.5l-55.5 110l-55.5 110l-45 89
l-24 47.5l-58 119c0 -0.666992 -0.333008 -1 -1 -1h-2l-74 -611h-42l83 683h44l24.5 -48l46 -90.5l56.5 -112l56.5 -112l45.5 -90.5l24 -48l10 -21l15.5 -32l16 -31.5l10.5 -20.5h3z" />
    <glyph glyph-name="eng" unicode="&#x14b;" horiz-adv-x="464" 
d="M127 409c36 28 69.6709 49.3311 101.004 63.998s61 22 89 22c20.667 0 37.834 -2.83301 51.501 -8.5s24.667 -13.167 33 -22.5s14.166 -20.166 17.499 -32.499s5 -25.5 5 -39.5c0 -4.66699 -0.166992 -9.16699 -0.5 -13.5s-0.833008 -9.16602 -1.5 -14.499l-47 -403
c-4 -36.667 -15.167 -64 -33.5 -82s-48.5 -27 -90.5 -27c-10.667 0 -21.5 0.5 -32.5 1.5s-22.167 3.16699 -33.5 6.5l7 32c14 -3.33301 25 -5.16602 33 -5.49902s15.667 -0.5 23 -0.5c52 0 81 23.667 87 71l46 392c1.33301 6 2.16602 12.167 2.49902 18.5
s0.5 12.166 0.5 17.499c0 22 -5.33301 40 -16 54s-31.667 21 -63 21c-28.667 0 -58.334 -8.66699 -89.001 -26s-62.334 -39.333 -95.001 -66l-46 -368h-40l61 486h38c-0.666992 -4.66699 -1.33398 -10.5 -2.00098 -17.5s-1.5 -14 -2.5 -21l-3 -20.5
c-1 -6.66699 -1.83301 -12 -2.5 -16z" />
    <glyph glyph-name="Omacron" unicode="&#x14c;" horiz-adv-x="643" 
d="M379 693c43.333 0 79.333 -7.33594 108 -22.0029s51.667 -34.667 69 -60s29.5 -54.666 36.5 -87.999s10.5 -69 10.5 -107c0 -57.333 -6.5 -111.666 -19.5 -162.999s-32.167 -96.166 -57.5 -134.499s-56.833 -68.833 -94.5 -91.5s-81.167 -34 -130.5 -34
c-42 0 -77.667 6 -107 18s-53.166 29.5 -71.499 52.5s-31.666 50.833 -39.999 83.5s-12.5 70 -12.5 112c0 53.333 5.33301 105.833 16 157.5s28.167 98 52.5 139s56.166 74.167 95.499 99.5s87.666 38 144.999 38zM380 657.997c-52 0 -95.333 -12.333 -130 -37
s-62.167 -56.334 -82.5 -95.001s-34.666 -81.667 -42.999 -129s-12.5 -93.333 -12.5 -138c0 -75.333 14.667 -132.666 44 -171.999s77 -59 143 -59c46.667 0 86.5 11.5 119.5 34.5s60 52.833 81 89.5s36.333 78.167 46 124.5s14.5 92.833 14.5 139.5
c0 30 -2.5 59.5 -7.5 88.5s-14 54.833 -27 77.5s-31.333 41 -55 55s-53.834 21 -90.501 21zM246 784.997h291l-4 -37h-292z" />
    <glyph glyph-name="omacron" unicode="&#x14d;" horiz-adv-x="466" 
d="M263 459c-35.333 0 -64.832 -9.33398 -88.499 -28.001s-42.5 -42 -56.5 -70s-24 -58.5 -30 -91.5s-9 -63.833 -9 -92.5c0 -19.333 1.83301 -38.166 5.5 -56.499s10.167 -34.5 19.5 -48.5s22.5 -25.167 39.5 -33.5s38.5 -12.5 64.5 -12.5c36.667 0 66.667 9.66699 90 29
s41.666 43 54.999 71s22.333 57.5 27 88.5s7 58.5 7 82.5c0 20 -1.83301 39.833 -5.5 59.5s-10.167 37 -19.5 52s-22 27.167 -38 36.5s-36.333 14 -61 14zM264.001 492.999c30.667 0 56.4961 -5.33594 77.4961 -16.0029s38 -24.834 51 -42.501s22.167 -38.167 27.5 -61.5
s8 -47.666 8 -72.999c0 -31.333 -3.33301 -65 -10 -101s-18.5 -69.167 -35.5 -99.5s-40 -55.666 -69 -75.999s-65.5 -30.5 -109.5 -30.5c-32 0 -58.667 5 -80 15s-38.166 23.5 -50.499 40.5s-21.166 37 -26.499 60s-8 47.167 -8 72.5c0 34 3.83301 69.333 11.5 106
s20.334 70.334 38.001 101.001s40.834 55.834 69.501 75.501s64 29.5 106 29.5zM139.997 633.996h289l-4 -37h-290z" />
    <glyph glyph-name="Obreve" unicode="&#x14e;" horiz-adv-x="643" 
d="M379 693c43.333 0 79.333 -7.33594 108 -22.0029s51.667 -34.667 69 -60s29.5 -54.666 36.5 -87.999s10.5 -69 10.5 -107c0 -57.333 -6.5 -111.666 -19.5 -162.999s-32.167 -96.166 -57.5 -134.499s-56.833 -68.833 -94.5 -91.5s-81.167 -34 -130.5 -34
c-42 0 -77.667 6 -107 18s-53.166 29.5 -71.499 52.5s-31.666 50.833 -39.999 83.5s-12.5 70 -12.5 112c0 53.333 5.33301 105.833 16 157.5s28.167 98 52.5 139s56.166 74.167 95.499 99.5s87.666 38 144.999 38zM380 657.997c-52 0 -95.333 -12.333 -130 -37
s-62.167 -56.334 -82.5 -95.001s-34.666 -81.667 -42.999 -129s-12.5 -93.333 -12.5 -138c0 -75.333 14.667 -132.666 44 -171.999s77 -59 143 -59c46.667 0 86.5 11.5 119.5 34.5s60 52.833 81 89.5s36.333 78.167 46 124.5s14.5 92.833 14.5 139.5
c0 30 -2.5 59.5 -7.5 88.5s-14 54.833 -27 77.5s-31.333 41 -55 55s-53.834 21 -90.501 21zM387 731.997c-15.333 0 -29.4961 2.66602 -42.4961 7.99902s-24.833 12.5 -35.5 21.5s-20.334 19.333 -29.001 31s-16.334 23.834 -23.001 36.501l32 20
c13.333 -24 28.833 -43.333 46.5 -58s37.167 -22 58.5 -22c15.333 0 34.166 5 56.499 15s50.166 30 83.499 60l15 -14c-30.667 -37.333 -59.667 -63 -87 -77s-52.333 -21 -75 -21z" />
    <glyph glyph-name="obreve" unicode="&#x14f;" horiz-adv-x="466" 
d="M263 459c-35.333 0 -64.832 -9.33398 -88.499 -28.001s-42.5 -42 -56.5 -70s-24 -58.5 -30 -91.5s-9 -63.833 -9 -92.5c0 -19.333 1.83301 -38.166 5.5 -56.499s10.167 -34.5 19.5 -48.5s22.5 -25.167 39.5 -33.5s38.5 -12.5 64.5 -12.5c36.667 0 66.667 9.66699 90 29
s41.666 43 54.999 71s22.333 57.5 27 88.5s7 58.5 7 82.5c0 20 -1.83301 39.833 -5.5 59.5s-10.167 37 -19.5 52s-22 27.167 -38 36.5s-36.333 14 -61 14zM264.001 492.999c30.667 0 56.4961 -5.33594 77.4961 -16.0029s38 -24.834 51 -42.501s22.167 -38.167 27.5 -61.5
s8 -47.666 8 -72.999c0 -31.333 -3.33301 -65 -10 -101s-18.5 -69.167 -35.5 -99.5s-40 -55.666 -69 -75.999s-65.5 -30.5 -109.5 -30.5c-32 0 -58.667 5 -80 15s-38.166 23.5 -50.499 40.5s-21.166 37 -26.499 60s-8 47.167 -8 72.5c0 34 3.83301 69.333 11.5 106
s20.334 70.334 38.001 101.001s40.834 55.834 69.501 75.501s64 29.5 106 29.5zM273.997 558.996c-15.333 0 -29.3311 2.83398 -41.998 8.50098s-24.334 13 -35.001 22s-20.167 19.5 -28.5 31.5s-15.833 24.333 -22.5 37l33 20c12 -24 26.833 -43.333 44.5 -58
s36.834 -22 57.501 -22c15.333 0 34.166 4.66699 56.499 14s49.5 29.666 81.5 60.999l14 -14c-30 -37.333 -58.333 -63.333 -85 -78s-51.334 -22 -74.001 -22z" />
    <glyph glyph-name="Ohungarumlaut" unicode="&#x150;" horiz-adv-x="643" 
d="M379 693c43.333 0 79.333 -7.33594 108 -22.0029s51.667 -34.667 69 -60s29.5 -54.666 36.5 -87.999s10.5 -69 10.5 -107c0 -57.333 -6.5 -111.666 -19.5 -162.999s-32.167 -96.166 -57.5 -134.499s-56.833 -68.833 -94.5 -91.5s-81.167 -34 -130.5 -34
c-42 0 -77.667 6 -107 18s-53.166 29.5 -71.499 52.5s-31.666 50.833 -39.999 83.5s-12.5 70 -12.5 112c0 53.333 5.33301 105.833 16 157.5s28.167 98 52.5 139s56.166 74.167 95.499 99.5s87.666 38 144.999 38zM380 657.997c-52 0 -95.333 -12.333 -130 -37
s-62.167 -56.334 -82.5 -95.001s-34.666 -81.667 -42.999 -129s-12.5 -93.333 -12.5 -138c0 -75.333 14.667 -132.666 44 -171.999s77 -59 143 -59c46.667 0 86.5 11.5 119.5 34.5s60 52.833 81 89.5s36.333 78.167 46 124.5s14.5 92.833 14.5 139.5
c0 30 -2.5 59.5 -7.5 88.5s-14 54.833 -27 77.5s-31.333 41 -55 55s-53.834 21 -90.501 21zM426 716.997l-17 16l129 141l28 -32zM321 716.997l-17 16l130 141l28 -32z" />
    <glyph glyph-name="ohungarumlaut" unicode="&#x151;" horiz-adv-x="466" 
d="M263 459c-35.333 0 -64.832 -9.33398 -88.499 -28.001s-42.5 -42 -56.5 -70s-24 -58.5 -30 -91.5s-9 -63.833 -9 -92.5c0 -19.333 1.83301 -38.166 5.5 -56.499s10.167 -34.5 19.5 -48.5s22.5 -25.167 39.5 -33.5s38.5 -12.5 64.5 -12.5c36.667 0 66.667 9.66699 90 29
s41.666 43 54.999 71s22.333 57.5 27 88.5s7 58.5 7 82.5c0 20 -1.83301 39.833 -5.5 59.5s-10.167 37 -19.5 52s-22 27.167 -38 36.5s-36.333 14 -61 14zM264.001 492.999c30.667 0 56.4961 -5.33594 77.4961 -16.0029s38 -24.834 51 -42.501s22.167 -38.167 27.5 -61.5
s8 -47.666 8 -72.999c0 -31.333 -3.33301 -65 -10 -101s-18.5 -69.167 -35.5 -99.5s-40 -55.666 -69 -75.999s-65.5 -30.5 -109.5 -30.5c-32 0 -58.667 5 -80 15s-38.166 23.5 -50.499 40.5s-21.166 37 -26.499 60s-8 47.167 -8 72.5c0 34 3.83301 69.333 11.5 106
s20.334 70.334 38.001 101.001s40.834 55.834 69.501 75.501s64 29.5 106 29.5zM207.997 548.996l-21 17l120 150l33 -31zM306.997 548.996l-20 16l119 150l33 -31z" />
    <glyph glyph-name="OE" unicode="&#x152;" horiz-adv-x="741" 
d="M376 693c14.667 0 29.167 -0.999023 43.5 -2.99902s27.166 -4.66699 38.499 -8h287l-4 -35h-296l-33 -268h259l-4 -35h-259l-38 -309h326l-4 -35h-338c-10 -1.33301 -19.833 -2.83301 -29.5 -4.5s-20.167 -2.5 -31.5 -2.5c-42.667 0 -78.667 6.16699 -108 18.5
s-53.166 30 -71.499 53s-31.5 51 -39.5 84s-12 69.833 -12 110.5c0 54.667 5.5 108.167 16.5 160.5s28.833 98.666 53.5 138.999s57 72.833 97 97.5s89 37 147 37zM404 656.001c-4.66699 0.666992 -9.83496 0.999023 -15.502 0.999023h-16.5c-52 0 -95.167 -12 -129.5 -36
s-61.666 -55.167 -81.999 -93.5s-34.666 -81.166 -42.999 -128.499s-12.5 -94.333 -12.5 -141c0 -75.333 14.5 -132.5 43.5 -171.5s76.833 -58.5 143.5 -58.5c6 0 11.833 0.166992 17.5 0.5s11.167 0.833008 16.5 1.5z" />
    <glyph glyph-name="oe" unicode="&#x153;" horiz-adv-x="763" 
d="M542 -6c-25.333 0 -46.834 3.16406 -64.501 9.49707s-32.5 15.333 -44.5 27s-21.5 25.334 -28.5 41.001s-11.833 32.5 -14.5 50.5c-8 -18 -17.5 -34.833 -28.5 -50.5s-24.167 -29.334 -39.5 -41.001s-32.833 -20.834 -52.5 -27.501s-41.5 -10 -65.5 -10
c-32 0 -58.667 5 -80 15s-38.166 23.5 -50.499 40.5s-21 36.833 -26 59.5s-7.5 47 -7.5 73c0 34 3.83301 69.333 11.5 106s20.167 70.334 37.5 101.001s40.333 55.834 69 75.501s64 29.5 106 29.5c24.667 0 46.167 -3.66699 64.5 -11s33.833 -17.333 46.5 -30
s22.5 -27.667 29.5 -45s12.167 -35.666 15.5 -54.999c8.66699 19.333 19 37.5 31 54.5s26.333 32 43 45s35.5 23.167 56.5 30.5s44.833 11 71.5 11c22 0 41 -3.16699 57 -9.5s29 -14.666 39 -24.999s17.333 -22 22 -35s7 -26.5 7 -40.5c0 -32.667 -8.83301 -60 -26.5 -82
s-41.167 -40 -70.5 -54s-63.5 -24.5 -102.5 -31.5s-79.833 -11.5 -122.5 -13.5c-1.33301 -7.33301 -2 -13.5 -2 -18.5v-13.5c0 -16 1.66699 -32.667 5 -50s9.66602 -33 18.999 -47s22.166 -25.5 38.499 -34.5s37.5 -13.5 63.5 -13.5c24.667 0 48.834 2.83301 72.501 8.5
s47.834 14.167 72.501 25.5l11 -27c-21.333 -12 -45.833 -21.333 -73.5 -28s-57.5 -10 -89.5 -10zM263.999 458.997c-35.333 0 -64.833 -9.33398 -88.5 -28.001s-42.5 -42 -56.5 -70s-24 -58.5 -30 -91.5s-9 -63.833 -9 -92.5c0 -19.333 1.83301 -38.166 5.5 -56.499
s10.167 -34.5 19.5 -48.5s22.5 -25.167 39.5 -33.5s38.5 -12.5 64.5 -12.5c36.667 0 66.667 9.66699 90 29s41.5 43 54.5 71s21.833 57.5 26.5 88.5s7 58.5 7 82.5c0 20 -1.83301 39.833 -5.5 59.5s-10 37 -19 52s-21.5 27.167 -37.5 36.5s-36.333 14 -61 14z
M426.999 231.996c88 4.66699 156.834 18.501 206.501 41.501s74.5 57.167 74.5 102.5c0 24.667 -7.5 44.667 -22.5 60s-38.167 23 -69.5 23c-28 0 -53 -6.16699 -75 -18.5s-40.833 -28.833 -56.5 -49.5s-28.334 -44.834 -38.001 -72.501s-16.167 -56.5 -19.5 -86.5z" />
    <glyph glyph-name="Racute" unicode="&#x154;" horiz-adv-x="532" 
d="M504 516c-0.666992 -20 -4.00195 -40.167 -10.002 -60.5s-14.833 -39.5 -26.5 -57.5s-26.167 -33.667 -43.5 -47s-38 -22.666 -62 -27.999c26.667 -9.33301 46 -23.833 58 -43.5s20.667 -43.5 26 -71.5l35 -208h-43l-35 200c-4 22.667 -10.333 41.167 -19 55.5
s-19 25.666 -31 33.999s-25.5 14.166 -40.5 17.499s-30.833 5 -47.5 5h-133l-39 -312h-42l83 683h198c32.667 0 60.334 -4.33301 83.001 -13s40.834 -20.5 54.501 -35.5s23.167 -32.667 28.5 -53s7.33301 -42.166 6 -65.499zM291.998 348c22.667 0 44 3.33398 64 10.001
s37.5 16.667 52.5 30s27 30.5 36 51.5s14.167 45.833 15.5 74.5c2 45.333 -9.33301 78.666 -34 99.999s-57.667 32 -99 32h-155l-37 -298h157zM298.998 716.001l-16 18l134 135l26 -34z" />
    </font>
</defs>
</svg>
