<?xml version="1.0" standalone="no"?>
<!DOCTYPE svg PUBLIC "-//W3C//DTD SVG 1.1//EN" "http://www.w3.org/Graphics/SVG/1.1/DTD/svg11.dtd" >
<svg>
<metadata>
Created by FontForge 20090914 at Thu Aug 14 10:57:40 2014
 By www-data
Copyright (c) 2006 Parachute&#194;&#168;, www.parachute.gr.  All rights reserved.
</metadata>
<defs>
<font id="PFAgoraSansPro-UltraBlackItalic" horiz-adv-x="1818" >
  <font-face 
    font-family="PF Agora Sans Pro UltraBlack"
    font-weight="1000"
    font-style="italic"
    font-stretch="normal"
    units-per-em="1000"
    panose-1="2 0 5 3 0 0 0 9 0 4"
    ascent="750"
    descent="-250"
    x-height="498"
    cap-height="693"
    bbox="-458.997 -351.006 1760 1033"
    underline-thickness="20"
    underline-position="-123"
    unicode-range="U+0020-U+FB05"
  />
<missing-glyph horiz-adv-x="460" 
d="M0 690h458v-690h-458v690zM322 94l-93 164l-92 -164h185zM322 596h-187l94 -162zM95 196l82 150l-82 151v-301zM363 196v300l-82 -152z" />
    <glyph glyph-name="fj" unicode="fj" horiz-adv-x="744" 
d="M675 113c-7.33301 -57.333 -17.1602 -107 -29.4932 -149s-30.333 -77.167 -54 -105.5s-54.334 -50.833 -92.001 -67.5s-84.834 -28.334 -141.501 -35.001l-51 170c28.667 12.667 51 24.834 67 36.501s28.333 25 37 40s14.667 32.333 18 52s6.66602 43.834 9.99902 72.501
l23 205h-117l-27 -235c-6.66699 -56 -15.834 -104.167 -27.501 -144.5s-28.5 -73.333 -50.5 -99s-49.833 -44.5 -83.5 -56.5s-75.834 -18 -126.501 -18c-21.333 0 -47.5 1.66699 -78.5 5s-61.5 10.333 -91.5 21l33 152c14.667 -2 28.5 -3.33301 41.5 -4s24.167 -1 33.5 -1
c18.667 0 34.167 1.83301 46.5 5.5s22.666 10.834 30.999 21.501s15.166 26 20.499 46s10 46.667 14 80l29 227h-71l16 132l75 23l7 56c2.66699 22 7.83398 46.167 15.501 72.5s21.5 51 41.5 74s47.833 42.333 83.5 58s82.5 23.5 140.5 23.5c10.667 0 23.667 -0.5 39 -1.5
s32.5 -2.66699 51.5 -5s39.667 -5.83301 62 -10.5s45.5 -10.667 69.5 -18l-46 -168l-47.5 8.5c-13.667 2.33301 -25.667 4.16602 -36 5.49902s-19.5 2.16602 -27.5 2.49902s-16 0.5 -24 0.5c-33.333 0 -57 -7.33301 -71 -22s-23.667 -41.667 -29 -81h167
c15.333 0 36.666 1.33301 63.999 4s55 6.66699 83 12l42 -24z" />
    <glyph glyph-name="ffj" unicode="ffj" horiz-adv-x="1098" 
d="M699 332l-30.9961 -259.996c-6.66699 -56 -15.334 -103.667 -26.001 -143s-26.167 -71.333 -46.5 -96s-46.833 -42.667 -79.5 -54s-74.334 -17 -125.001 -17c-16 0 -33.667 1 -53 3s-39.666 5.66699 -60.999 11l30 160c5.33301 -0.666992 10.833 -1.16699 16.5 -1.5
s10.5 -0.5 14.5 -0.5c13.333 0 25.333 1.33301 36 4s20.167 9 28.5 19s15.5 24.667 21.5 44s11 45.666 15 78.999c2 12 4.16699 27.667 6.5 47s5 40.333 8 63l9 71l8.5 72h-139c-2 -20 -4.33301 -42 -7 -66s-5.5 -47.833 -8.5 -71.5l-8.5 -69l-7 -58.5
c-6.66699 -56 -15.334 -104.167 -26.001 -144.5s-26.167 -73.333 -46.5 -99s-46.833 -44.5 -79.5 -56.5s-74.334 -18 -125.001 -18c-21.333 0 -45.333 1.66699 -72 5s-55 10.333 -85 21l33 152c14.667 -2 26.834 -3.5 36.501 -4.5s19.167 -1.5 28.5 -1.5
c18.667 0 34.334 2.16699 47.001 6.5s23.167 12.166 31.5 23.499s15 27 20 47s9.5 45.667 13.5 77c2 12.667 4.33301 28.667 7 48l8.5 63.5l9.5 72l10 73.5h-71l16 132l75 23l6 41c4 27.333 10.333 53.666 19 78.999s22.5 47.666 41.5 66.999s44.833 34.833 77.5 46.5
s75 17.5 127 17.5c16.667 0 39.834 -1.33301 69.501 -4s63.5 -8.66699 101.5 -18c20 14.667 45 26.334 75 35.001s67.333 13 112 13c10.667 0 23.667 -0.5 39 -1.5s32.5 -2.66699 51.5 -5s39.667 -5.83301 62 -10.5s45.5 -10.667 69.5 -18l-46 -163l-47.5 8.5
c-13.667 2.33301 -25.667 4.16602 -36 5.49902s-19.5 2.16602 -27.5 2.49902s-16 0.5 -24 0.5c-23.333 0 -41.833 -4.5 -55.5 -13.5s-22.834 -25.167 -27.501 -48.5c-1.33301 -5.33301 -2.5 -11.333 -3.5 -18s-2.16699 -14 -3.5 -22h167c15.333 0 36.666 1.33301 63.999 4
s55 6.66699 83 12l42 -24l-35 -326c-7.33301 -57.333 -17.166 -107 -29.499 -149s-30.333 -77.167 -54 -105.5s-54.334 -50.833 -92.001 -67.5s-84.834 -28.334 -141.501 -35.001l-51 170c28.667 12.667 51 24.834 67 36.501s28.333 25 37 40s14.667 32.333 18 52
s6.66602 43.834 9.99902 72.501l19 170h-117zM440.004 562.004c-31.333 0 -53.1699 -3.83203 -65.5029 -11.499s-20.166 -19.834 -23.499 -36.501c-1.33301 -4.66699 -2.16602 -9.5 -2.49902 -14.5s-1.16602 -10.5 -2.49902 -16.5h136l7 57l3 18
c-9.33301 1.33301 -18.5 2.33301 -27.5 3s-17.167 1 -24.5 1z" />
    <glyph glyph-name="ff" unicode="ff" horiz-adv-x="837" 
d="M311 -38c5.33301 -0.666992 10.165 -1.00098 14.498 -1.00098h13.5c18.667 0 34 2.33301 46 7s21.833 12.834 29.5 24.501s13.667 27.334 18 47.001s8.5 44.5 12.5 74.5c1.33301 9.33301 2.66602 20.166 3.99902 32.499s3 27 5 44s4.16699 37.167 6.5 60.5l8.5 82h-137
l-6.5 -62.5c-2.33301 -21.667 -4.83301 -43.167 -7.5 -64.5l-7.5 -62.5l-6.5 -55.5c-6.66699 -56 -15.334 -104.167 -26.001 -144.5s-26.167 -73.333 -46.5 -99s-46.833 -44.5 -79.5 -56.5s-74.334 -18 -125.001 -18c-21.333 0 -45.333 1.66699 -72 5s-55 10.333 -85 21
l33 152c14.667 -2 26.834 -3.5 36.501 -4.5s19.167 -1.5 28.5 -1.5c18.667 0 34.334 2.16699 47.001 6.5s23.167 12.166 31.5 23.499s15 27 20 47s9.5 45.667 13.5 77l13 101.5l17 135.5h-71l16 132l75 23c3.33301 31.333 8.5 62 15.5 92s19.833 56.833 38.5 80.5
s45.334 42.667 80.001 57s81 21.5 139 21.5c16 0 38.667 -1.16699 68 -3.5s62.333 -7.83301 99 -16.5c19.333 15.333 42.833 26.833 70.5 34.5s61.834 11.5 102.501 11.5c21.333 0 46 -1.66699 74 -5s58 -9.66602 90 -18.999l-36 -159c-16 3.33301 -29.667 5.33301 -41 6
s-21.333 1 -30 1c-18 0 -32.333 -1.66699 -43 -5s-19.167 -9 -25.5 -17s-11 -18.833 -14 -32.5s-5.83301 -30.834 -8.5 -51.501h132l-17 -149h-126l-11.5 -115.5c-3.66699 -36.333 -7.83398 -72.5 -12.501 -108.5c-7.33301 -56 -16 -104.333 -26 -145
s-24.5 -74.167 -43.5 -100.5s-43.667 -45.666 -74 -57.999s-69.166 -18.5 -116.499 -18.5c-16.667 0 -37.167 1 -61.5 3s-48.166 5.66699 -71.499 11zM482.999 482.999c1.33301 13.333 2.66699 25.167 4 35.5s3.33301 23.833 6 40.5c-9.33301 1.33301 -18.5 2.33301 -27.5 3
s-17.5 1 -25.5 1c-17.333 0 -31.5 -1.5 -42.5 -4.5s-20 -7.66699 -27 -14s-12.333 -14.5 -16 -24.5s-6.5 -22.333 -8.5 -37h137z" />
    <glyph glyph-name="fi" unicode="fi" horiz-adv-x="744" 
d="M424 0l38.0039 332h-117l-27 -235c-6.66699 -56 -15.834 -104.167 -27.501 -144.5s-28.5 -73.333 -50.5 -99s-49.833 -44.5 -83.5 -56.5s-75.834 -18 -126.501 -18c-21.333 0 -47.5 1.66699 -78.5 5s-61.5 10.333 -91.5 21l33 152c14.667 -2 28.5 -3.33301 41.5 -4
s24.167 -1 33.5 -1c18.667 0 34.167 1.83301 46.5 5.5s22.666 10.834 30.999 21.501s15.166 26 20.499 46s10 46.667 14 80l29 227h-71l16 132l75 23l7 56c2.66699 22 7.83398 46.167 15.501 72.5s21.5 51 41.5 74s47.833 42.333 83.5 58s82.5 23.5 140.5 23.5
c10.667 0 23.667 -0.5 39 -1.5s32.5 -2.66699 51.5 -5s39.667 -5.83301 62 -10.5s45.5 -10.667 69.5 -18l-46 -168l-47.5 8.5c-13.667 2.33301 -25.667 4.16602 -36 5.49902s-19.5 2.16602 -27.5 2.49902s-16 0.5 -24 0.5c-33.333 0 -57 -7.33301 -71 -22
s-23.667 -41.667 -29 -81h167c15.333 0 36.666 1.33301 63.999 4s55 6.66699 83 12l42 -24c-5.33301 -37.333 -12 -95.666 -20 -174.999s-19.333 -179 -34 -299h-236z" />
    <glyph glyph-name="fl" unicode="fl" horiz-adv-x="772" 
d="M498 582c-8.66699 1.33301 -16.4961 2.33398 -23.4961 3.00098s-13.833 1 -20.5 1c-26.667 0 -48.5 -5.5 -65.5 -16.5s-27.167 -29.5 -30.5 -55.5l-4 -31h94l-19 -150h-90l-12.5 -123c-4.33301 -41.333 -8.5 -79 -12.5 -113
c-6.66699 -56 -15.334 -104.167 -26.001 -144.5s-26.167 -73.333 -46.5 -99s-46.833 -44.5 -79.5 -56.5s-74.334 -18 -125.001 -18c-10.667 0 -23.167 0.333008 -37.5 1s-29.333 2 -45 4s-31.667 4.66699 -48 8s-31.833 7.66602 -46.5 12.999l33 152
c14.667 -2 28.5 -3.33301 41.5 -4s24.167 -1 33.5 -1c18.667 0 34.167 1.83301 46.5 5.5s22.666 10.834 30.999 21.501s15.166 26 20.499 46s10 46.667 14 80l12.5 97l16.5 131h-71l16 132l74 23l7 55c2 14.667 4.83301 30.5 8.5 47.5s9.5 34 17.5 51s18.5 33.167 31.5 48.5
s29.667 29 50 41s44.833 21.667 73.5 29s62.334 11 101.001 11c15.333 0 36 -1 62 -3s55.333 -6.66699 88 -14l158 16l30 -22l-24.5 -205.5l-18 -147.5l-12 -100.5l-7.5 -64.5c-2 -16.667 -3.5 -29.5 -4.5 -38.5s-1.83301 -16.833 -2.5 -23.5l64 1l7 -148
c-36 -14.667 -71.833 -24.5 -107.5 -29.5s-64.834 -7.5 -87.501 -7.5c-23.333 0 -42.833 2.83301 -58.5 8.5s-28 13.5 -37 23.5s-15.333 21.833 -19 35.5s-5.5 28.5 -5.5 44.5c0 13.333 1 27.666 3 42.999z" />
    <glyph glyph-name="ffi" unicode="ffi" horiz-adv-x="1098" 
d="M311 -39c5.33301 -0.666992 10.835 -1.16309 16.502 -1.49609s10.5 -0.5 14.5 -0.5c13.333 0 25.333 1.33301 36 4s20.167 9 28.5 19s15.5 24.667 21.5 44s11 45.666 15 78.999c3.33301 24.667 7.5 57.167 12.5 97.5l15.5 130.5h-139l-6.5 -62.5
c-2.33301 -21.667 -4.83301 -43.167 -7.5 -64.5l-7.5 -62.5l-6.5 -55.5c-6.66699 -56 -15.334 -104.167 -26.001 -144.5s-26.167 -73.333 -46.5 -99s-46.833 -44.5 -79.5 -56.5s-74.334 -18 -125.001 -18c-21.333 0 -45.333 1.66699 -72 5s-55 10.333 -85 21l33 152
c14.667 -2 26.834 -3.5 36.501 -4.5s19.167 -1.5 28.5 -1.5c18.667 0 34.334 2.16699 47.001 6.5s23.167 12.166 31.5 23.499s15 27 20 47s9.5 45.667 13.5 77l14 101.5c6 42.333 12 87.5 18 135.5h-71l16 132l75 23l6 41c4 27.333 10.333 53.666 19 78.999
s22.5 47.666 41.5 66.999s44.833 34.833 77.5 46.5s75 17.5 127 17.5c16.667 0 39.834 -1.33301 69.501 -4s63.5 -8.66699 101.5 -18c20 14.667 45 26.334 75 35.001s67.333 13 112 13c10.667 0 23.667 -0.5 39 -1.5s32.5 -2.66699 51.5 -5s39.667 -5.83301 62 -10.5
s45.5 -10.667 69.5 -18l-46 -163l-47.5 8.5c-13.667 2.33301 -25.667 4.16602 -36 5.49902s-19.5 2.16602 -27.5 2.49902s-16 0.5 -24 0.5c-23.333 0 -41.833 -4.5 -55.5 -13.5s-22.834 -25.167 -27.501 -48.5c-1.33301 -5.33301 -2.5 -11.333 -3.5 -18
s-2.16699 -14 -3.5 -22h167c15.333 0 36.666 1.33301 63.999 4s55 6.66699 83 12l42 -24c-5.33301 -37.333 -12 -95.666 -20 -174.999s-19.333 -179 -34 -299h-236l38 332h-117l-27 -235c-6.66699 -56 -15.334 -103.667 -26.001 -143s-26.167 -71.333 -46.5 -96
s-46.833 -42.667 -79.5 -54s-74.334 -17 -125.001 -17c-16 0 -33.667 1 -53 3s-39.666 5.66699 -60.999 11zM440.002 562.004c-31.333 0 -53.1699 -3.83203 -65.5029 -11.499s-20.166 -19.834 -23.499 -36.501c-1.33301 -4.66699 -2.16602 -9.5 -2.49902 -14.5
s-1.16602 -10.5 -2.49902 -16.5h136l7 57l3 18c-9.33301 1.33301 -18.5 2.33301 -27.5 3s-17.167 1 -24.5 1z" />
    <glyph glyph-name="ffl" unicode="ffl" horiz-adv-x="1132" 
d="M575 716c20.667 15.333 47.1689 28.168 79.502 38.501s73.166 15.5 122.499 15.5c15.333 0 36 -1 62 -3s55.333 -6.66699 88 -14l158 16l30 -22l-24.5 -205.5l-18 -147.5l-12 -100.5l-7.5 -64.5c-2 -16.667 -3.5 -29.5 -4.5 -38.5s-1.83301 -16.833 -2.5 -23.5l64 1
l7 -148c-36 -14.667 -71.833 -24.5 -107.5 -29.5s-64.834 -7.5 -87.501 -7.5c-23.333 0 -42.833 2.83301 -58.5 8.5s-28 13.5 -37 23.5s-15.333 21.833 -19 35.5s-5.5 28.5 -5.5 44.5c0 13.333 1 27.666 3 42.999l53 443c-17.333 2 -32 3 -44 3
c-26.667 0 -48.5 -5.33301 -65.5 -16s-27.167 -29 -30.5 -55l-4 -31h94l-19 -150h-90l-27 -235c-6.66699 -56 -15.334 -103.667 -26.001 -143s-26.167 -71.333 -46.5 -96s-46.833 -42.667 -79.5 -54s-74.334 -17 -125.001 -17c-16 0 -33.667 1 -53 3
s-39.666 5.66699 -60.999 11l30 160c5.33301 -0.666992 10.833 -1.16699 16.5 -1.5s10.5 -0.5 14.5 -0.5c13.333 0 25.333 1.33301 36 4s20.167 9 28.5 19s15.5 24.667 21.5 44s11 45.666 15 78.999c3.33301 24.667 7.5 57.167 12.5 97.5l15.5 130.5h-139l-6.5 -62.5
c-2.33301 -21.667 -4.83301 -43.167 -7.5 -64.5l-7.5 -62.5l-6.5 -55.5c-6.66699 -56 -15.334 -104.167 -26.001 -144.5s-26.167 -73.333 -46.5 -99s-46.833 -44.5 -79.5 -56.5s-74.334 -18 -125.001 -18c-21.333 0 -45.333 1.66699 -72 5s-55 10.333 -85 21l33 152
c14.667 -2 26.834 -3.5 36.501 -4.5s19.167 -1.5 28.5 -1.5c18.667 0 34.334 2.16699 47.001 6.5s23.167 12.166 31.5 23.499s15 27 20 47s9.5 45.667 13.5 77l14 101.5c6 42.333 12 87.5 18 135.5h-71l16 132l75 23l5 38c4 28 10.333 54.833 19 80.5
s22.667 48.334 42 68.001s45.333 35.334 78 47.001s75 17.5 127 17.5c16.667 0 39.834 -1.33301 69.501 -4s63.5 -8.66699 101.5 -18zM440.002 562.002c-28.667 0 -50.3311 -4 -64.998 -12s-23.334 -21.667 -26.001 -41l-3 -26h136l6 47.5
c1.33301 10.333 2.66602 19.5 3.99902 27.5c-9.33301 1.33301 -18.5 2.33301 -27.5 3s-17.167 1 -24.5 1z" />
    <glyph glyph-name="ft" unicode="ft" horiz-adv-x="828" 
d="M485 591c-12 1.33301 -23.332 2.33398 -33.999 3.00098s-20.667 1 -30 1c-21.333 0 -38.833 -4.5 -52.5 -13.5s-22.167 -27.833 -25.5 -56.5l-6 -52h144l67 143l169 12l-19 -154h130l-19 -150h-130c-3.33301 -23.333 -6 -43.5 -8 -60.5s-3 -31.167 -3 -42.5
c0 -21.333 4 -35.833 12 -43.5s22 -11.5 42 -11.5c4 0 12.833 0.666992 26.5 2s29.167 3.33301 46.5 6l20 -157c-14 -5.33301 -29.333 -9.83301 -46 -13.5s-33.334 -6.83398 -50.001 -9.50098s-32.5 -4.5 -47.5 -5.5s-27.833 -1.5 -38.5 -1.5
c-44 0 -79.667 4.16699 -107 12.5s-48.5 19.166 -63.5 32.499s-25 28.833 -30 46.5s-7.5 35.5 -7.5 53.5c0 4 0.166992 8.5 0.5 13.5s1.16602 14 2.49902 27s3.33301 31.333 6 55l11 96.5h-121l-16 -175c-4.66699 -52 -10.334 -98.167 -17.001 -138.5
s-15.334 -75 -26.001 -104s-25.5 -53 -44.5 -72s-43.333 -33 -73 -42s-66.5 -13.5 -110.5 -13.5c-21.333 0 -47 1.66699 -77 5s-60 10.333 -90 21l33 152c14.667 -2 26.834 -3.33301 36.501 -4s19.167 -1 28.5 -1c26.667 0 47.5 5.33301 62.5 16s26.5 29.834 34.5 57.501
s14.333 65.5 19 113.5l18 185h-83l16 132l80 23l6 51c4 30.667 10.333 60.167 19 88.5s22.334 53.333 41.001 75s43.667 39 75 52s71 19.5 119 19.5c17.333 0 38.833 -1.16699 64.5 -3.5s50.834 -6.5 75.501 -12.5z" />
    <glyph glyph-name=".notdef" horiz-adv-x="460" 
d="M0 690h458v-690h-458v690zM322 94l-93 164l-92 -164h185zM322 596h-187l94 -162zM95 196l82 150l-82 151v-301zM363 196v300l-82 -152z" />
    <glyph glyph-name="space" unicode=" " horiz-adv-x="320" 
 />
    <glyph glyph-name="exclam" unicode="!" horiz-adv-x="366" 
d="M177 187c36.667 0 62.501 -8.16797 77.501 -24.501s22.5 -36.166 22.5 -59.499c0 -30.667 -10 -56.667 -30 -78s-51 -32 -93 -32c-34.667 0 -59.334 7.33301 -74.001 22s-22 33.667 -22 57c0 34 9.33301 61.667 28 83s49 32 91 32zM351.001 719.999l-27 -216l-52 -270
h-180l15 270l27 216h217z" />
    <glyph glyph-name="quotedbl" unicode="&#x22;" horiz-adv-x="500" 
d="M106 390l15 305h178l-64 -305h-129zM313 390l14 305h177l-63 -305h-128z" />
    <glyph glyph-name="numbersign" unicode="#" horiz-adv-x="623" 
d="M488 370l-28 -69h88l-10 -101h-111l-74 -201h-114l71 201h-57l-73 -201h-116l73 201h-72l11 101h96l28 69h-84l10 98h110l67 183h114l-66 -183h57l69 183h112l-65 -183h77l-10 -98h-103zM288 301h58l27 69h-57z" />
    <glyph glyph-name="dollar" unicode="$" horiz-adv-x="623" 
d="M257 -77l-57.002 0.00195312l11 87c-28.667 3.33301 -57.834 8.5 -87.501 15.5s-57.5 16.167 -83.5 27.5l52 147c22 -7.33301 39.833 -12.833 53.5 -16.5s25.334 -6.5 35.001 -8.5s18 -3.5 25 -4.5l23.5 -3.5l14 107c-53.333 13.333 -95.166 35.666 -125.499 66.999
s-45.5 72.666 -45.5 123.999c0 33.333 6.16699 62.833 18.5 88.5s28.833 47.5 49.5 65.5s44.334 32.167 71.001 42.5s54 16.833 82 19.5l9 72h57zM388.998 753.002h58.001l-9 -73c24.667 -3.33301 50.667 -8 78 -14s50.333 -13.667 69 -23l-48 -141
c-26 7.33301 -47.5 12.5 -64.5 15.5s-34.833 5.5 -53.5 7.5l-13 -104c20.667 -6 41.667 -14.5 63 -25.5s40.666 -24.667 57.999 -41s31.5 -35.5 42.5 -57.5s16.5 -47.333 16.5 -76c0 -63.333 -20.833 -112.333 -62.5 -147s-97.5 -55 -167.5 -61l-11 -90h-58z
M404.999 201.002c0 7.33301 -0.832031 14 -2.49902 20s-8.16699 10.667 -19.5 14l-8 -67c11.333 2.66699 19.166 7.5 23.499 14.5s6.5 13.167 6.5 18.5zM240 486.002c0 -7.33301 1.16699 -13.668 3.5 -19.001s9.5 -9.66602 21.5 -12.999l8 65
c-11.333 -1.33301 -19.333 -5.33301 -24 -12s-7.66699 -13.667 -9 -21z" />
    <glyph glyph-name="percent" unicode="%" horiz-adv-x="1010" 
d="M278 676c32.667 0 60.168 -4.33301 82.501 -13s40.5 -20.667 54.5 -36s24 -33.666 30 -54.999s9 -44.333 9 -69c0 -32 -4 -62.667 -12 -92s-20.667 -55.333 -38 -78s-39.833 -40.834 -67.5 -54.501s-61.5 -20.5 -101.5 -20.5c-32 0 -59.5 4.16699 -82.5 12.5
s-41.667 20 -56 35s-25 33 -32 54s-10.5 43.833 -10.5 68.5c0 34 4.33301 66 13 96s22 56.333 40 79s41.167 40.5 69.5 53.5s62.166 19.5 101.499 19.5zM266.001 561c-9.33301 0 -17.333 -3.83398 -24 -11.501s-12.334 -17.667 -17.001 -30s-8 -26.666 -10 -42.999
s-3 -32.833 -3 -49.5c0 -34.667 10.667 -52 32 -52c16 0 28.667 11.833 38 35.5s14 56.5 14 98.5c0 16 -2.16699 28.667 -6.5 38s-12.166 14 -23.499 14zM381.001 -18.001h-136l430 738h136zM798.001 411.999c32.667 0 60.168 -4.33301 82.501 -13s40.5 -20.667 54.5 -36
s24 -33.666 30 -54.999s9 -44.333 9 -69c0 -32 -4 -62.667 -12 -92s-20.667 -55.333 -38 -78s-39.833 -40.834 -67.5 -54.501s-61.5 -20.5 -101.5 -20.5c-32 0 -59.5 4.16699 -82.5 12.5s-41.667 20 -56 35s-25 33 -32 54s-10.5 43.833 -10.5 68.5c0 34 4.33301 66 13 96
s22 56.333 40 79s41.167 40.5 69.5 53.5s62.166 19.5 101.499 19.5zM786.002 296.999c-9.33301 0 -17.333 -3.83398 -24 -11.501s-12.334 -17.667 -17.001 -30s-8 -26.666 -10 -42.999s-3 -32.833 -3 -49.5c0 -34.667 10.667 -52 32 -52c16 0 28.667 11.833 38 35.5
s14 56.5 14 98.5c0 16 -2.16699 28.667 -6.5 38s-12.166 14 -23.499 14z" />
    <glyph glyph-name="ampersand" unicode="&#x26;" horiz-adv-x="1032" 
d="M604 335c20.667 -0.666992 38.168 -1.6709 52.501 -3.00391s29.5 -4 45.5 -8c6 24.667 9 48.334 9 71.001c0 30.667 -5 58.334 -15 83.001s-24 45.667 -42 63s-39.667 30.666 -65 39.999s-53 14 -83 14c-51.333 0 -96.333 -9.66699 -135 -29s-71.834 -43.5 -99.501 -72.5
s-50.167 -60.667 -67.5 -95s-30 -66.833 -38 -97.5l-146 27c4 26 11.333 54.333 22 85s25 61.334 43 92.001s40.167 60.5 66.5 89.5s57 54.667 92 77s74.833 40.166 119.5 53.499s94.667 20 150 20c72.667 0 133.167 -11.167 181.5 -33.5s87 -50.666 116 -84.999
s49.667 -72.166 62 -113.499s18.5 -80.666 18.5 -117.999c0 -29.333 -2 -56.333 -6 -81c16 4 31.667 9.5 47 16.5s29.333 15.167 42 24.5l53 -102c-23.333 -20 -51.5 -37.5 -84.5 -52.5s-68.167 -24.167 -105.5 -27.5c-17.333 -32 -39.333 -61.667 -66 -89
s-57.167 -51 -91.5 -71s-71.5 -35.5 -111.5 -46.5s-81.333 -16.5 -124 -16.5c-42 0 -79.167 5.83301 -111.5 17.5s-59.333 28.167 -81 49.5s-38.167 47 -49.5 77s-17 63 -17 99c0 59.333 9.33301 111.166 28 155.499s42.5 81.333 71.5 111s60.833 52 95.5 67
s68 22.5 100 22.5c23.333 0 44.833 -3.5 64.5 -10.5s36.667 -16.167 51 -27.5s25.5 -24.166 33.5 -38.499s12 -28.833 12 -43.5c0 -12 -3 -26.333 -9 -43s-15.667 -31.667 -29 -45zM488.001 113.996c26 0 53.334 6.66699 82.001 20s53.667 33.666 75 60.999
c-15.333 5.33301 -29.5 9.33301 -42.5 12s-26.5 4 -40.5 4c-12.667 0 -26 -1.5 -40 -4.5s-30.667 -8.5 -50 -16.5l-21 8l-32 100c16.667 10.667 26.667 18.5 30 23.5s5 9.16699 5 12.5c0 4.66699 -1.5 8.83398 -4.5 12.501s-7.83301 5.5 -14.5 5.5
c-3.33301 0 -7.83301 -1.83301 -13.5 -5.5s-11.334 -10.334 -17.001 -20.001s-10.5 -23.167 -14.5 -40.5s-6 -39.666 -6 -66.999c0 -34 7 -60 21 -78s41.667 -27 83 -27z" />
    <glyph glyph-name="quotesingle" unicode="'" horiz-adv-x="306" 
d="M106 390l15 305h178l-64 -305h-129z" />
    <glyph glyph-name="parenleft" unicode="(" horiz-adv-x="398" 
d="M411 647c-14 -16.667 -30.167 -38.3359 -48.5 -65.0029s-35.5 -59 -51.5 -97s-29.667 -82 -41 -132s-17 -106.667 -17 -170c0 -38 2.16699 -72.167 6.5 -102.5s9.66602 -57.166 15.999 -80.499s13.333 -43.166 21 -59.499s14.834 -29.5 21.501 -39.5l-105 -71
c-50 58 -86.333 121.167 -109 189.5s-34 136.5 -34 204.5c0 41.333 5.5 83.5 16.5 126.5s27 85.833 48 128.5s47 84.334 78 125.001s66.167 79 105.5 115z" />
    <glyph glyph-name="parenright" unicode=")" horiz-adv-x="398" 
d="M209 713c48.667 -56.667 84.333 -118.668 107 -186.001s34 -135 34 -203c0 -42.667 -5.16699 -85.834 -15.5 -129.501s-26 -86.667 -47 -129s-47.333 -83.666 -79 -123.999s-68.834 -78.5 -111.501 -114.5l-87 75c12.667 14 27.834 34 45.501 60s34.667 58.333 51 97
s30.333 83 42 133s17.5 106 17.5 168c0 36.667 -2.16699 70.167 -6.5 100.5s-9.66602 57.333 -15.999 81s-13.333 44.334 -21 62.001s-14.834 32.5 -21.501 44.5z" />
    <glyph glyph-name="asterisk" unicode="*" horiz-adv-x="461" 
d="M344 491l80 -85l-123 -84l-37 115l-67 -115l-103 84l102 87l-122 16l60 140l100 -65l-9 123h143l-41 -122l119 64l26 -140z" />
    <glyph glyph-name="plus" unicode="+" horiz-adv-x="623" 
d="M395 247l-22 -175h-123l22 175h-160l15 123h160l21 172h123l-21 -172h159l-15 -123h-159z" />
    <glyph glyph-name="comma" unicode="," horiz-adv-x="339" 
d="M156 197c21.333 0 39.165 -2.99902 53.498 -8.99902s25.833 -14 34.5 -24s14.834 -21.667 18.501 -35s5.5 -27.333 5.5 -42c0 -30 -5.83301 -59 -17.5 -87s-27.167 -54.333 -46.5 -79s-41.333 -46.667 -66 -66s-50 -35.333 -76 -48l-49 75c46.667 38 76 79.333 88 124
c-22 3.33301 -38 11.666 -48 24.999s-15 30 -15 50c0 14 2.5 28 7.5 42s12.333 26.5 22 37.5s21.834 19.833 36.501 26.5s32 10 52 10z" />
    <glyph glyph-name="hyphen" unicode="-" horiz-adv-x="424" 
d="M65 201l19 151h292l-19 -151h-292z" />
    <glyph glyph-name="period" unicode="." horiz-adv-x="316" 
d="M156 197c36 0 62.167 -8.33203 78.5 -24.999s24.5 -39 24.5 -67c0 -32.667 -10.333 -59.5 -31 -80.5s-53 -31.5 -97 -31.5c-38 0 -64.5 8.16699 -79.5 24.5s-22.5 37.5 -22.5 63.5c0 16 2.5 31 7.5 45s12.667 26.167 23 36.5s23.5 18.666 39.5 24.999s35 9.5 57 9.5z" />
    <glyph glyph-name="slash" unicode="/" horiz-adv-x="421" 
d="M130 -41h-162l347 756h164z" />
    <glyph glyph-name="zero" unicode="0" horiz-adv-x="623" 
d="M361 680c48.667 0 89.667 -6.83301 123 -20.5s60.333 -33 81 -58s35.667 -54.833 45 -89.5s14 -73 14 -115c0 -58 -6.5 -111.833 -19.5 -161.5s-33.167 -92.667 -60.5 -129s-62.333 -64.833 -105 -85.5s-93.667 -31 -153 -31c-48 0 -88.833 6.83301 -122.5 20.5
s-61.167 32.667 -82.5 57s-36.833 53.5 -46.5 87.5s-14.5 71.333 -14.5 112c0 58 6.66699 112.167 20 162.5s33.833 94 61.5 131s63 66.167 106 87.5s94.167 32 153.5 32zM343 503c-16 0 -29.833 -7.66504 -41.5 -22.998s-21 -35 -28 -59s-12.167 -50.333 -15.5 -79
s-5 -56.334 -5 -83.001c0 -28 3.5 -50.167 10.5 -66.5s19.833 -24.5 38.5 -24.5c14 0 26.667 6.16699 38 18.5s21 29.333 29 51s14 47.167 18 76.5s6 60.666 6 93.999c0 29.333 -3.66699 52.5 -11 69.5s-20.333 25.5 -39 25.5z" />
    <glyph glyph-name="one" unicode="1" horiz-adv-x="623" 
d="M243 465l-123 -17l19 159l153 65h209l-82 -672h-234z" />
    <glyph glyph-name="two" unicode="2" horiz-adv-x="623" 
d="M379 164l209.001 0.00390625l-20 -164h-539l17 143l105.5 75.5c35.667 25.667 68 51.5 97 77.5s53 51.5 72 76.5s29.167 49.5 30.5 73.5c0 5.33301 -0.5 10.666 -1.5 15.999s-3.16699 10.166 -6.5 14.499s-8.33301 7.83301 -15 10.5s-16 4 -28 4
c-19.333 0 -44.5 -3.5 -75.5 -10.5s-62.5 -18.167 -94.5 -33.5l-55 147c48 28.667 97.333 50 148 64s98 21 142 21c75.333 0 131.5 -17.833 168.5 -53.5s55.5 -84.834 55.5 -147.501c0 -32.667 -5.83301 -63.167 -17.5 -91.5s-27.334 -55 -47.001 -80
s-42.5 -48.833 -68.5 -71.5s-53.333 -44.334 -82 -65.001z" />
    <glyph glyph-name="three" unicode="3" horiz-adv-x="623" 
d="M499 372c16.667 -7.33301 30.6641 -16.334 41.9971 -27.001s20.333 -22 27 -34s11.5 -24.167 14.5 -36.5s4.5 -24.5 4.5 -36.5c0 -34.667 -7.16699 -67.167 -21.5 -97.5s-35.166 -56.666 -62.499 -78.999s-61.166 -40 -101.499 -53s-86.5 -19.5 -138.5 -19.5
c-10 0 -24.333 0.666992 -43 2s-39.167 4.16602 -61.5 8.49902s-45.5 10.333 -69.5 18s-46 18.167 -66 31.5l69 153c18 -6 34 -11 48 -15s27 -7.16699 39 -9.5s23.5 -4.16602 34.5 -5.49902s22.167 -2 33.5 -2c13.333 0 26.333 1 39 3s24 5.33301 34 10s18 11 24 19
s9 18.333 9 31c0 13.333 -5.83301 23.833 -17.5 31.5s-27.167 11.5 -46.5 11.5c-4.66699 0 -12.5 -0.333008 -23.5 -1s-25.167 -2.66699 -42.5 -6l-20 137c54.667 10.667 93.334 20.834 116.001 30.501s34 23.5 34 41.5c0 6 -2.66699 11.333 -8 16s-15.333 7 -30 7
c-22 0 -46.333 -2.5 -73 -7.5s-60 -14.5 -100 -28.5l-51 151c30.667 13.333 58.667 24.333 84 33s49.333 15.5 72 20.5s44.334 8.5 65.001 10.5s42 3 64 3c39.333 0 72.666 -4.66699 99.999 -14s49.5 -21.666 66.5 -36.999s29.333 -32.833 37 -52.5s11.5 -40.167 11.5 -61.5
c0 -10.667 -1.66699 -22.167 -5 -34.5s-8.5 -24.833 -15.5 -37.5s-16.5 -24.834 -28.5 -36.501s-26.333 -21.834 -43 -30.501v-7z" />
    <glyph glyph-name="four" unicode="4" horiz-adv-x="623" 
d="M572 672l-45 -363h93l-19 -161h-93l-18 -148h-226l18 148h-273l20 141l288 383h255zM315 434l-95 -125h87l16 125h-8z" />
    <glyph glyph-name="five" unicode="5" horiz-adv-x="623" 
d="M279 289c-11.333 0 -23.835 -1.66504 -37.502 -4.99805s-28.834 -8.66602 -45.501 -15.999l-108 46l76 358h441l-21 -173h-265l-10 -40c7.33301 0.666992 15 1.16699 23 1.5s14.667 0.5 20 0.5c76.667 0 135.5 -17.833 176.5 -53.5s61.5 -84.834 61.5 -147.501
c0 -44.667 -8.5 -83.834 -25.5 -117.501s-40.167 -61.834 -69.5 -84.501s-63.833 -39.667 -103.5 -51s-82.167 -17 -127.5 -17c-9.33301 0 -23.666 0.833008 -42.999 2.5s-40.5 4.66699 -63.5 9s-46.5 10.333 -70.5 18s-46 17.834 -66 30.501l73 156
c20.667 -7.33301 38.667 -13.333 54 -18s29.333 -8.16699 42 -10.5s24.334 -4 35.001 -5s21.334 -1.5 32.001 -1.5c34 0 59.167 6.16699 75.5 18.5s24.5 29.166 24.5 50.499c0 17.333 -7.5 29.833 -22.5 37.5s-33.5 11.5 -55.5 11.5z" />
    <glyph glyph-name="six" unicode="6" horiz-adv-x="623" 
d="M296 415c23.333 11.333 44.834 18.5 64.501 21.5s35.834 4.5 48.501 4.5c56.667 0 101.167 -15.833 133.5 -47.5s48.5 -78.167 48.5 -139.5c0 -43.333 -7.33301 -81.333 -22 -114s-34.667 -60.334 -60 -83.001s-55.333 -39.667 -90 -51s-72.334 -17 -113.001 -17
c-46.667 0 -86.667 6.5 -120 19.5s-60.833 31.167 -82.5 54.5s-37.667 51.333 -48 84s-15.5 69 -15.5 109c0 54.667 7.16699 107.334 21.5 158.001s36.833 95.5 67.5 134.5s70 70.333 118 94s105.667 35.5 173 35.5c33.333 0 61.833 -1.83301 85.5 -5.5
s44.834 -8.16699 63.501 -13.5l-43 -167c-22 5.33301 -42.333 8.83301 -61 10.5s-34.334 2.5 -47.001 2.5c-35.333 0 -63.333 -7.5 -84 -22.5s-35.334 -35.5 -44.001 -61.5zM331.001 278c-9.33301 0 -19.167 -1.99902 -29.5 -5.99902s-20.5 -9 -30.5 -15
c-1.33301 -11.333 -2.16602 -18.833 -2.49902 -22.5s-0.5 -7.16699 -0.5 -10.5c0 -14.667 3.66699 -26.667 11 -36s19.666 -14 36.999 -14c12.667 0 25 4.66699 37 14s18 22.666 18 39.999c0 12.667 -2.16699 24.167 -6.5 34.5s-15.5 15.5 -33.5 15.5z" />
    <glyph glyph-name="seven" unicode="7" horiz-adv-x="623" 
d="M116 499l23 173h459l12 -145l-314 -527h-232l308 499h-256z" />
    <glyph glyph-name="eight" unicode="8" horiz-adv-x="623" 
d="M356 528c-18 0 -32.167 -5.33105 -42.5 -15.998s-15.5 -21.334 -15.5 -32.001c0 -14 7.33301 -24.833 22 -32.5l51 -25.5c15.333 13.333 25.5 25.833 30.5 37.5s7.5 21.5 7.5 29.5c0 11.333 -4.16699 20.666 -12.5 27.999s-21.833 11 -40.5 11zM305 161.002
c14 0 25.3311 2.16699 33.998 6.5s15.334 9.5 20.001 15.5s7.83398 12.333 9.50098 19s2.5 12 2.5 16c0 10 -5 20.333 -15 31s-30.333 21.667 -61 33c-16 -14 -27.5 -27 -34.5 -39s-10.5 -24.667 -10.5 -38c0 -11.333 4.66699 -21.5 14 -30.5s23 -13.5 41 -13.5z
M373.998 683.002c28 0 56.166 -3.33789 84.499 -10.0049s54 -17 77 -31s41.833 -32.167 56.5 -54.5s22 -49.166 22 -80.499c0 -14 -1.33301 -27.667 -4 -41s-7.5 -26.666 -14.5 -39.999s-16.667 -26.5 -29 -39.5s-28.5 -25.833 -48.5 -38.5
c25.333 -13.333 45 -32.166 59 -56.499s21 -52.166 21 -83.499c0 -30 -6.83301 -58.167 -20.5 -84.5s-33.834 -49.333 -60.501 -69s-59.667 -35.167 -99 -46.5s-84.666 -17 -135.999 -17c-41.333 0 -78 4.66699 -110 14s-59.167 22.5 -81.5 39.5s-39.333 37.333 -51 61
s-17.5 49.5 -17.5 77.5c0 13.333 1.5 27.833 4.5 43.5s8.83301 31.667 17.5 48s20.834 32.333 36.501 48s36.167 29.834 61.5 42.501c-16.667 13.333 -29.5 28.333 -38.5 45s-13.5 36.334 -13.5 59.001c0 31.333 7.5 60.166 22.5 86.499s35.5 49 61.5 68
s56.167 33.667 90.5 44s70.833 15.5 109.5 15.5z" />
    <glyph glyph-name="nine" unicode="9" horiz-adv-x="623" 
d="M353 253c-23.333 -11.333 -44.835 -18.499 -64.502 -21.499s-35.834 -4.5 -48.501 -4.5c-56.667 0 -101.167 15.833 -133.5 47.5s-48.5 78.167 -48.5 139.5c0 42.667 7.16699 80.5 21.5 113.5s34.333 60.833 60 83.5s55.834 39.667 90.501 51s72.334 17 113.001 17
c46.667 0 86.667 -6.5 120 -19.5s60.833 -31.167 82.5 -54.5s37.667 -51.333 48 -84s15.5 -69 15.5 -109c0 -54.667 -7.16699 -107.334 -21.5 -158.001s-36.833 -95.5 -67.5 -134.5s-70 -70.333 -118 -94s-105.667 -35.5 -173 -35.5c-33.333 0 -61.833 1.83301 -85.5 5.5
s-44.834 8.16699 -63.501 13.5l43 167c22 -5.33301 42.333 -8.83301 61 -10.5s34.334 -2.5 47.001 -2.5c35.333 0 63.333 7.5 84 22.5s35.334 35.5 44.001 61.5zM317.998 390.001c9.33301 0 19.167 1.99902 29.5 5.99902s20.5 9 30.5 15
c1.33301 11.333 2.16602 18.833 2.49902 22.5s0.5 7.16699 0.5 10.5c0 14.667 -3.66699 26.667 -11 36s-19.666 14 -36.999 14c-12.667 0 -25 -4.66699 -37 -14s-18 -22.666 -18 -39.999c0 -12.667 2.16699 -24.167 6.5 -34.5s15.5 -15.5 33.5 -15.5z" />
    <glyph glyph-name="colon" unicode=":" horiz-adv-x="339" 
d="M199 482c36 0 62.167 -8.33203 78.5 -24.999s24.5 -39 24.5 -67c0 -32.667 -10.333 -59.5 -31 -80.5s-53 -31.5 -97 -31.5c-38 0 -64.5 8.16699 -79.5 24.5s-22.5 37.5 -22.5 63.5c0 16 2.5 31 7.5 45s12.667 26.167 23 36.5s23.5 18.666 39.5 24.999s35 9.5 57 9.5z
M166 199.001c36 0 62.167 -8.33203 78.5 -24.999s24.5 -39 24.5 -67c0 -32.667 -10.333 -59.5 -31 -80.5s-53 -31.5 -97 -31.5c-38 0 -64.5 8.16699 -79.5 24.5s-22.5 37.5 -22.5 63.5c0 16 2.5 31 7.5 45s12.667 26.167 23 36.5s23.5 18.666 39.5 24.999s35 9.5 57 9.5z
" />
    <glyph glyph-name="semicolon" unicode=";" horiz-adv-x="339" 
d="M199 482c36 0 62.167 -8.33203 78.5 -24.999s24.5 -39 24.5 -67c0 -32.667 -10.333 -59.5 -31 -80.5s-53 -31.5 -97 -31.5c-38 0 -64.5 8.16699 -79.5 24.5s-22.5 37.5 -22.5 63.5c0 16 2.5 31 7.5 45s12.667 26.167 23 36.5s23.5 18.666 39.5 24.999s35 9.5 57 9.5z
M156 197.001c21.333 0 39.165 -2.99902 53.498 -8.99902s25.833 -14 34.5 -24s14.834 -21.667 18.501 -35s5.5 -27.333 5.5 -42c0 -30 -5.83301 -59 -17.5 -87s-27.167 -54.333 -46.5 -79s-41.333 -46.667 -66 -66s-50 -35.333 -76 -48l-49 75c46.667 38 76 79.333 88 124
c-22 3.33301 -38 11.666 -48 24.999s-15 30 -15 50c0 14 2.5 28 7.5 42s12.333 26.5 22 37.5s21.834 19.833 36.501 26.5s32 10 52 10z" />
    <glyph glyph-name="less" unicode="&#x3c;" horiz-adv-x="642" 
d="M551 9l-475 242l12 99l535 245l-18 -144l-351 -150l314 -151z" />
    <glyph glyph-name="equal" unicode="=" horiz-adv-x="642" 
d="M113 333l15 119h446l-15 -119h-446zM90 146l15 118h446l-15 -118h-446z" />
    <glyph glyph-name="greater" unicode="&#x3e;" horiz-adv-x="642" 
d="M65 150l350 151l-313 150l18 144l473 -245l-12 -99l-533 -242z" />
    <glyph glyph-name="question" unicode="?" horiz-adv-x="569" 
d="M353 722c75.333 0 131.666 -16.002 168.999 -48.002s56 -77 56 -135c0 -20 -3.66699 -39.333 -11 -58s-16.833 -36.5 -28.5 -53.5s-25 -33 -40 -48s-29.833 -28.5 -44.5 -40.5c-21.333 -17.333 -40.166 -34.666 -56.499 -51.999s-26.166 -36.333 -29.499 -57l-3 -20h-195
l7 54c2.66699 18 6.83398 34.333 12.501 49s12.167 28 19.5 40s15.5 22.833 24.5 32.5l26.5 27.5l45 44.5c13.333 13.667 20 29.5 20 47.5c0 12.667 -5 22.334 -15 29.001s-22.667 10 -38 10c-17.333 0 -37.333 -1.5 -60 -4.5s-48.334 -9.16699 -77.001 -18.5l-38 154
c52.667 20 100.667 32.833 144 38.5s80.666 8.5 111.999 8.5zM264 178.998c35.333 0 60.501 -8.00098 75.501 -24.001s22.5 -37.667 22.5 -65c0 -31.333 -9.83301 -56.666 -29.5 -75.999s-50.167 -29 -91.5 -29c-36.667 0 -61.834 8.16699 -75.501 24.5
s-20.5 36.5 -20.5 60.5c0 30.667 9.33301 56.5 28 77.5s49 31.5 91 31.5z" />
    <glyph glyph-name="at" unicode="@" horiz-adv-x="1012" 
d="M544 206c-11.333 -13.333 -23.3291 -24.5029 -35.9961 -33.5029s-25.167 -16.167 -37.5 -21.5s-24 -9.16602 -35 -11.499s-20.167 -3.5 -27.5 -3.5c-26 0 -47.5 4.33301 -64.5 13s-30.167 19.834 -39.5 33.501s-15.833 29.167 -19.5 46.5s-5.5 35 -5.5 53
c0 34 4.16699 66.167 12.5 96.5s20.833 56.833 37.5 79.5s37.5 40.667 62.5 54s54.167 20 87.5 20c8.66699 0 21.167 -1.5 37.5 -4.5s33.166 -8.16699 50.499 -15.5l10 28l146 -15c-3.33301 -20 -6.83301 -42.667 -10.5 -68s-6.83398 -50 -9.50098 -74
s-4.83398 -45.833 -6.50098 -65.5s-2.5 -33.834 -2.5 -42.501c0 -12 4.16699 -20 12.5 -24s16.5 -6 24.5 -6c10 0 19.667 4 29 12s17.666 19.333 24.999 34s13.166 32 17.499 52s6.5 42 6.5 66c0 31.333 -4.5 60 -13.5 86s-23.167 48.167 -42.5 66.5
s-44.166 32.666 -74.499 42.999s-66.5 15.5 -108.5 15.5c-51.333 0 -98.5 -9.66699 -141.5 -29s-80 -44.833 -111 -76.5s-55.167 -68 -72.5 -109s-26 -83.167 -26 -126.5c0 -34 4.5 -65.5 13.5 -94.5s23.333 -54 43 -75s44.5 -37.5 74.5 -49.5s66 -18 108 -18
c17.333 0 42.166 2 74.499 6s66.833 12.667 103.5 26l36 -110c-38.667 -20 -77.167 -33.333 -115.5 -40s-71.5 -10 -99.5 -10c-64.667 0 -120.667 9 -168 27s-86.5 43 -117.5 75s-54 70.167 -69 114.5s-22.5 92.833 -22.5 145.5c0 64.667 11.833 125.834 35.5 183.501
s57.334 108.167 101.001 151.5s96.667 77.833 159 103.5s132.166 38.5 209.499 38.5c59.333 0 111.833 -7.83301 157.5 -23.5s84 -38 115 -67s54.5 -64 70.5 -105s24 -86.833 24 -137.5c0 -46 -7 -87.667 -21 -125s-33 -69.166 -57 -95.499s-52.167 -46.666 -84.5 -60.999
s-66.833 -21.5 -103.5 -21.5c-14 0 -28.5 1.66699 -43.5 5s-28.833 8.5 -41.5 15.5s-23.667 16 -33 27s-15.666 24.167 -18.999 39.5zM510.004 402.997c-5.33301 0 -10.8311 -1.33105 -16.498 -3.99805s-11.167 -7.5 -16.5 -14.5s-9.66602 -16.167 -12.999 -27.5
s-5 -26 -5 -44c0 -14.667 2.83301 -24.334 8.5 -29.001s12.167 -7 19.5 -7s15.166 4.16699 23.499 12.5s15.166 18.166 20.499 29.499l11 77c-12.667 4.66699 -23.334 7 -32.001 7z" />
    <glyph glyph-name="A" unicode="A" horiz-adv-x="781" 
d="M488 123h-214l-53 -123h-241l326 693h306l139 -693h-245zM431 525l-46 -141l-42 -103h119l-14 116l-9 128h-8z" />
    <glyph glyph-name="B" unicode="B" horiz-adv-x="716" 
d="M584 362c20.667 -6 37.5 -15.167 50.5 -27.5s23 -25.5 30 -39.5s11.667 -28 14 -42s3.5 -26 3.5 -36c0 -34.667 -6.83301 -65.5 -20.5 -92.5s-32.834 -49.667 -57.501 -68s-54.167 -32.333 -88.5 -42s-72.166 -14.5 -113.499 -14.5h-370l85 693h378
c70.667 0 122.5 -14.5 155.5 -43.5s49.5 -70.5 49.5 -124.5c0 -10 -1.66699 -22.167 -5 -36.5s-9.33301 -29 -18 -44s-20.5 -29.333 -35.5 -43s-33.833 -24.5 -56.5 -32.5zM311 279l-13.999 -109h63c17.333 0 32.666 5.66699 45.999 17s20 27.333 20 48
c0 13.333 -4.33301 24 -13 32s-21.667 12 -39 12h-63zM341.001 525l-11.998 -99h51c17.333 0 31.666 5.16699 42.999 15.5s17 23.833 17 40.5c0 13.333 -3.83301 23.833 -11.5 31.5s-17.834 11.5 -30.501 11.5h-57z" />
    <glyph glyph-name="C" unicode="C" horiz-adv-x="663" 
d="M474 710c22 0 50.1611 -2.33301 84.4941 -7s67.5 -11.667 99.5 -21l-41 -179c-23.333 4 -46.166 7 -68.499 9s-43.166 3 -62.499 3c-24 0 -46.667 -2.66699 -68 -8s-39.833 -15.5 -55.5 -30.5s-28.167 -35.833 -37.5 -62.5s-14 -61 -14 -103
c0 -28.667 3.33301 -51.334 10 -68.001s16.334 -29.334 29.001 -38.001s27.667 -14.167 45 -16.5s37 -3.5 59 -3.5c6.66699 0 16 0.333008 28 1s25 1.66699 39 3s28.333 3 43 5s28 4.33301 40 7l27 -170c-19.333 -7.33301 -40 -13.666 -62 -18.999
s-44.333 -9.66602 -67 -12.999s-45.167 -6 -67.5 -8s-43.166 -3 -62.499 -3c-66 0 -119.5 8.33301 -160.5 25s-73.167 38.667 -96.5 66s-39.166 59 -47.499 95s-12.5 73.667 -12.5 113c0 54 6.33301 106.333 19 157s34.834 95.667 66.501 135s74.5 71 128.5 95
s122.333 36 205 36z" />
    <glyph glyph-name="D" unicode="D" horiz-adv-x="742" 
d="M33 0l85 692.998h299c60 0 109.667 -7.33301 149 -22s70.5 -35 93.5 -61s39.167 -56.5 48.5 -91.5s14 -72.833 14 -113.5c0 -56 -7 -108.667 -21 -158s-36.333 -92.166 -67 -128.499s-70.167 -65.166 -118.5 -86.499s-106.5 -32 -174.5 -32h-308zM342 524.998
l-44.001 -354.998h40c24.667 0 45.5 7 62.5 21s30.667 32.167 41 54.5s17.666 47.166 21.999 74.499s6.5 54.666 6.5 81.999c0 18 -1.5 34.5 -4.5 49.5s-8.16699 28 -15.5 39s-17.166 19.5 -29.499 25.5s-28.166 9 -47.499 9h-31z" />
    <glyph glyph-name="E" unicode="E" horiz-adv-x="656" 
d="M32 0l85 693h549l-21 -168h-303l-11 -88h254l-19 -160h-254l-14 -107h315l-20 -170h-561z" />
    <glyph glyph-name="F" unicode="F" horiz-adv-x="621" 
d="M32 0l85 693h544l-21 -168h-300l-14 -113h211l-19 -159h-211l-31 -253h-244z" />
    <glyph glyph-name="G" unicode="G" horiz-adv-x="706" 
d="M486 710c30 0 62.3301 -2.66797 96.9971 -8.00098s68 -12.666 100 -21.999l-42 -174c-23.333 4 -48.5 7.33301 -75.5 10s-50.167 4 -69.5 4c-27.333 0 -52.5 -3.33301 -75.5 -10s-42.667 -18.5 -59 -35.5s-29.166 -40 -38.499 -69s-14 -65.833 -14 -110.5
c0 -42.667 8.5 -72.334 25.5 -89.001s40.5 -25 70.5 -25c6 0 12.333 0.333008 19 1s14 1.66699 22 3l24 197h219l-42 -348c-47.333 -16.667 -94.166 -28.5 -140.499 -35.5s-88.833 -10.5 -127.5 -10.5c-65.333 0 -119.166 8.33301 -161.499 25s-75.833 38.834 -100.5 66.501
s-41.667 59.5 -51 95.5s-14 73 -14 111c0 52 6.5 103.333 19.5 154s36 96 69 136s77.333 72.333 133 97s126.5 37 212.5 37z" />
    <glyph glyph-name="H" unicode="H" horiz-adv-x="779" 
d="M451 0l33 274h-174l-33 -274h-244l85 693h244l-31 -250h174l31 250h245l-85 -693h-245z" />
    <glyph glyph-name="I" unicode="I" horiz-adv-x="370" 
d="M38 0l85 693h243l-85 -693h-243z" />
    <glyph glyph-name="J" unicode="J" horiz-adv-x="444" 
d="M187 694l243 -0.000976562l-63 -510c-6.66699 -55.333 -19.667 -105.833 -39 -151.5s-46 -85.5 -80 -119.5s-75.833 -61.667 -125.5 -83s-108.5 -35 -176.5 -41l-32 167c46.667 17.333 83.334 34.833 110.001 52.5s47 36.334 61 56.001s23.667 41 29 64
s9.66602 48.5 12.999 76.5z" />
    <glyph glyph-name="K" unicode="K" horiz-adv-x="782" 
d="M338 488l82 93l114 112h281l-282 -263l219 -430h-266l-121 280l-65 -56l-25 -224h-242l85 693h239l-26 -203z" />
    <glyph glyph-name="L" unicode="L" horiz-adv-x="630" 
d="M32 0l85 693h244l-65 -523h317l-20 -170h-561z" />
    <glyph glyph-name="M" unicode="M" horiz-adv-x="948" 
d="M492 357l71 202l57 134h288l-13 -693h-237l13 198l13 200h-5l-77 -187l-63 -130h-169l-32 131l-30 161h-5l-32 -186l-37 -187h-234l171 693h251l28 -129l34 -207h8z" />
    <glyph glyph-name="N" unicode="N" horiz-adv-x="816" 
d="M538 335l44 358h236l-85 -693h-248l-112 237l-54 127h-6l-44 -364h-236l85 693h248l116 -244l48 -114h8z" />
    <glyph glyph-name="O" unicode="O" horiz-adv-x="800" 
d="M452 709c56 0 104.5 -7.83496 145.5 -23.502s75 -37.5 102 -65.5s47.167 -61.667 60.5 -101s20 -82.666 20 -129.999c0 -58 -9 -111.667 -27 -161s-44.167 -91.666 -78.5 -126.999s-76.333 -63 -126 -83s-106.167 -30 -169.5 -30c-55.333 0 -103.333 7.66699 -144 23
s-74.334 36.833 -101.001 64.5s-46.667 60.5 -60 98.5s-20 80 -20 126c0 58.667 8.66699 113 26 163s42.833 93.167 76.5 129.5s75.334 64.833 125.001 85.5s106.5 31 170.5 31zM437 533.998c-25.333 0 -46.167 -7.66895 -62.5 -23.002s-29.333 -34.833 -39 -58.5
s-16.334 -50 -20.001 -79s-5.5 -57.5 -5.5 -85.5c0 -37.333 6.33301 -67.833 19 -91.5s35.667 -35.5 69 -35.5c24 0 43.833 7.16699 59.5 21.5s28.334 33.333 38.001 57s16.5 50.334 20.5 80.001s6 59.834 6 90.501c0 38 -6.16699 68.167 -18.5 90.5s-34.5 33.5 -66.5 33.5z
" />
    <glyph glyph-name="P" unicode="P" horiz-adv-x="644" 
d="M425 693c46 0 84.667 -5.33398 116 -16.001s56.333 -25 75 -43s32 -39.167 40 -63.5s12 -50.5 12 -78.5c0 -38 -6.33301 -72.833 -19 -104.5s-31 -58.667 -55 -81s-53.333 -39.666 -88 -51.999s-74 -18.5 -118 -18.5h-83l-28 -236h-245l85 693h308zM341 524.999
l-16 -126.999h30c20 0 36 6.83301 48 20.5s18 32.167 18 55.5c0 19.333 -5.16699 32.666 -15.5 39.999s-23.833 11 -40.5 11h-24z" />
    <glyph glyph-name="Q" unicode="Q" horiz-adv-x="812" 
d="M452 709c56 0 104.501 -7.83398 145.501 -23.501s75 -37.5 102 -65.5s47.167 -61.667 60.5 -101s20 -82.666 20 -129.999c0 -70.667 -12.833 -133.667 -38.5 -189s-62.5 -101 -110.5 -137l64 -20c21.333 -6.66699 42.333 -12.667 63 -18l-88 -178l-379 149
c-40 7.33301 -74.833 20 -104.5 38s-54.334 40.167 -74.001 66.5s-34.334 56.333 -44.001 90s-14.5 70.167 -14.5 109.5c0 58.667 8.66699 113 26 163s42.833 93.167 76.5 129.5s75.334 64.833 125.001 85.5s106.5 31 170.5 31zM437.001 533.999
c-25.333 0 -46.167 -7.66895 -62.5 -23.002s-29.333 -34.833 -39 -58.5s-16.334 -50 -20.001 -79s-5.5 -57.5 -5.5 -85.5c0 -37.333 6.33301 -67.833 19 -91.5s35.667 -35.5 69 -35.5c24 0 43.833 7.16699 59.5 21.5s28.334 33.333 38.001 57s16.5 50.334 20.5 80.001
s6 59.834 6 90.501c0 38 -6.16699 68.167 -18.5 90.5s-34.5 33.5 -66.5 33.5z" />
    <glyph glyph-name="R" unicode="R" horiz-adv-x="718" 
d="M552 303c14.667 -5.33301 26.8369 -11.8311 36.5039 -19.498s17.667 -16.334 24 -26.001s11.166 -20.667 14.499 -33s6.33301 -25.833 9 -40.5l31 -184h-241l-27 168c-4.66699 29.333 -12.334 49.333 -23.001 60s-29.334 16 -56.001 16h-14l-29 -244h-244l85 693h344
c43.333 0 79.5 -5.16699 108.5 -15.5s52.167 -24 69.5 -41s29.666 -36.5 36.999 -58.5s11 -44.667 11 -68c0 -44 -11.5 -83.833 -34.5 -119.5s-56.833 -63.834 -101.5 -84.501v-3zM326.003 405.002h45.999c18.667 0 34.5 6.16699 47.5 18.5s19.5 29.5 19.5 51.5
c0 14 -4.16699 25.833 -12.5 35.5s-21.166 14.5 -38.499 14.5h-47z" />
    <glyph glyph-name="S" unicode="S" horiz-adv-x="684" 
d="M413 710c14.667 0 32.335 -1.16406 53.002 -3.49707s42.334 -5.66602 65.001 -9.99902s45.167 -10.166 67.5 -17.499s42.833 -16 61.5 -26l-68 -168c-16 6 -33.167 11.167 -51.5 15.5s-36.333 7.83301 -54 10.5s-34.834 4.5 -51.501 5.5s-31.667 1.5 -45 1.5
c-30 0 -45 -10.333 -45 -31c0 -8.66699 9.5 -16 28.5 -22s43.167 -12.667 72.5 -20c19.333 -4.66699 41.333 -10.5 66 -17.5s48 -17.833 70 -32.5s40.5 -34.5 55.5 -59.5s22.5 -57.833 22.5 -98.5c0 -34.667 -6.16699 -67.334 -18.5 -98.001s-32.833 -57.334 -61.5 -80.001
s-66.167 -40.5 -112.5 -53.5s-103.5 -19.5 -171.5 -19.5c-16.667 0 -36.167 1 -58.5 3s-45.833 5.33301 -70.5 10s-49.834 10.667 -75.501 18s-49.834 16.666 -72.501 27.999l60 173c28.667 -10 56.667 -17.833 84 -23.5s52.5 -9.83398 75.5 -12.501
s43.167 -4.33398 60.5 -5.00098s30.666 -1 39.999 -1c22 0 37.167 3.33301 45.5 10s12.5 14.667 12.5 24c0 8.66699 -4.33301 15.5 -13 20.5s-21.667 9.83301 -39 14.5c-36 9.33301 -70 19 -102 29s-59.833 22.5 -83.5 37.5s-42.5 34.167 -56.5 57.5s-21 53.333 -21 90
c0 38 6.33301 72.5 19 103.5s32.334 57.333 59.001 79s61 38.5 103 50.5s92 18 150 18z" />
    <glyph glyph-name="T" unicode="T" horiz-adv-x="668" 
d="M187 0l63 520h-207l22 173h658l-22 -173h-208l-63 -520h-243z" />
    <glyph glyph-name="U" unicode="U" horiz-adv-x="758" 
d="M707 279c-6 -47.333 -16.6689 -89.1689 -32.002 -125.502s-36.833 -66.666 -64.5 -90.999s-61.667 -42.666 -102 -54.999s-88.5 -18.5 -144.5 -18.5c-59.333 0 -109.166 6.33301 -149.499 19s-72.5 31.167 -96.5 55.5s-40.167 54.333 -48.5 90s-9.5 76.5 -3.5 122.5
l52 417h240l-55 -441c-7.33301 -60.667 17.334 -91 74.001 -91c20 0 39.167 6.83301 57.5 20.5s29.5 37.167 33.5 70.5l54 441h237z" />
    <glyph glyph-name="V" unicode="V" horiz-adv-x="777" 
d="M396 202c4.66699 12 9.66699 26.833 15 44.5l16.5 55l16 55c5 17.667 9.83301 32.5 14.5 44.5l114 293h260l-319 -694h-303l-145 694h265l39 -288l16 -204h11z" />
    <glyph glyph-name="W" unicode="W" horiz-adv-x="1084" 
d="M560 398c-4 -14 -8.33398 -30.168 -13.001 -48.501l-14.5 -56l-14.5 -56c-4.66699 -18.333 -9 -34.5 -13 -48.5l-59 -189h-309l-72 693h261l13 -260c0.666992 -10 0.833984 -22.167 0.500977 -36.5s-0.5 -29.166 -0.5 -44.499s-0.166992 -30.333 -0.5 -45
s-0.166016 -27 0.500977 -37h8c2.66699 10 5.66699 22.167 9 36.5l10.5 45l11 45c3.66699 14.333 7.16699 26.5 10.5 36.5l81 260h266l17 -253l2 -170h8c2.66699 10 5.66699 22.333 9 37l10 45.5l10 45.5c3.33301 14.667 6.66602 27 9.99902 37l77 258h262l-243 -693h-309
l-14 188l-6 209z" />
    <glyph glyph-name="X" unicode="X" horiz-adv-x="769" 
d="M263 0h-283l281 360l-87 166.5l-87 166.5h270l66 -184l56.5 92l56.5 92h284l-268 -333l92 -180l92 -180h-268l-79 201z" />
    <glyph glyph-name="Y" unicode="Y" horiz-adv-x="751" 
d="M399 387c4.66699 9.33301 9.66699 20.167 15 32.5l16.5 38l16 37.5c5 12 10.167 22.667 15.5 32l89 166h255l-294 -466l-27 -227h-264l26 213l-91.5 240l-90.5 240h249l49 -172l26 -134h10z" />
    <glyph glyph-name="Z" unicode="Z" horiz-adv-x="675" 
d="M340 170h320l-20 -170h-621l-25 148l353 369l-1 8h-267l21 168h579l12 -147l-354 -370z" />
    <glyph glyph-name="bracketleft" unicode="[" horiz-adv-x="387" 
d="M30 -159l106 862h278l-15 -122h-89l-77 -628h89l-14 -112h-278z" />
    <glyph glyph-name="backslash" unicode="\" horiz-adv-x="421" 
d="M60 715h164l162 -756h-163z" />
    <glyph glyph-name="bracketright" unicode="]" horiz-adv-x="387" 
d="M2 -159l14 112h89l77 628h-89l15 122h278l-106 -862h-278z" />
    <glyph glyph-name="asciicircum" unicode="^" horiz-adv-x="541" 
d="M387 316l-81 204l-130 -204h-147l245 360h96l157 -360h-140z" />
    <glyph glyph-name="underscore" unicode="_" horiz-adv-x="485" 
d="M-45 -167l13 108h485l-13 -108h-485z" />
    <glyph glyph-name="grave" unicode="`" horiz-adv-x="554" 
d="M181 677l101 136l201 -191l-70 -85z" />
    <glyph glyph-name="a" unicode="a" horiz-adv-x="681" 
d="M329 348c-4 0 -9.83203 -0.998047 -17.499 -2.99805s-15.334 -6.83301 -23.001 -14.5s-14.5 -19.334 -20.5 -35.001s-9 -37.167 -9 -64.5c0 -24.667 4.5 -41.667 13.5 -51s20.167 -14 33.5 -14c9.33301 0 19 1.66699 29 5s19.333 7.33301 28 12l9.5 76.5
c3 24.333 6.5 49.833 10.5 76.5c-11.333 5.33301 -21.833 8.66602 -31.5 9.99902s-17.167 2 -22.5 2zM636.001 510.002l-26.502 -176.5c-8.33301 -57 -15.833 -115.833 -22.5 -176.5h53l8 -127c-25.333 -13.333 -53.666 -23.5 -84.999 -30.5s-63.666 -10.5 -96.999 -10.5
c-14 0 -26.833 1.16699 -38.5 3.5s-22 6.5 -31 12.5s-16.333 14.333 -22 25s-8.83398 24.667 -9.50098 42l-4 2c-17.333 -20 -35 -35.5 -53 -46.5s-34.833 -19.333 -50.5 -25s-29.5 -9.16699 -41.5 -10.5s-21 -2 -27 -2c-34 0 -61.667 5.5 -83 16.5s-38 25.5 -50 43.5
s-20.167 38.333 -24.5 61s-6.5 45.667 -6.5 69c0 45.333 5.66699 88.166 17 128.499s28.333 75.5 51 105.5s51.334 53.833 86.001 71.5s75.667 26.5 123 26.5c11.333 0 27.833 -1.66699 49.5 -5s44.167 -11.666 67.5 -24.999l14 35z" />
    <glyph glyph-name="b" unicode="b" horiz-adv-x="649" 
d="M20 72l40.5029 326l40.5 326h235l-16 -139c-2.66699 -22.667 -5.66699 -45 -9 -67s-8.33301 -45 -15 -69l7 -3c18.667 16 36.5 28.5 53.5 37.5s32.667 15.833 47 20.5s26.666 7.5 36.999 8.5s18.5 1.5 24.5 1.5c31.333 0 57.5 -5 78.5 -15s37.833 -23.5 50.5 -40.5
s21.667 -37 27 -60s8 -47.5 8 -73.5c0 -20 -1.5 -42.167 -4.5 -66.5s-8.5 -49 -16.5 -74s-19.333 -49.333 -34 -73s-34 -44.667 -58 -63s-52.833 -33 -86.5 -44s-73.834 -16.5 -120.501 -16.5c-9.33301 0 -24.333 0.666992 -45 2s-44.334 4.33301 -71.001 9
s-54.5 11.5 -83.5 20.5s-56.167 20.833 -81.5 35.5zM317.003 154c9.33301 0 18.667 2.16797 28 6.50098s17.833 11.5 25.5 21.5s14 22.833 19 38.5s7.5 34.834 7.5 57.501c0 23.333 -4.33301 39.166 -13 47.499s-19 12.5 -31 12.5c-10 0 -20.333 -1.83301 -31 -5.5
s-20.667 -7.83398 -30 -12.501l-23 -158c9.33301 -3.33301 18.333 -5.5 27 -6.5s15.667 -1.5 21 -1.5z" />
    <glyph glyph-name="c" unicode="c" horiz-adv-x="527" 
d="M324 510c13.333 0 28.1699 -0.831055 44.5029 -2.49805s33.166 -4.5 50.499 -8.5s34.5 -9.5 51.5 -16.5s32.5 -15.833 46.5 -26.5l-54 -140c-18 5.33301 -36 9.83301 -54 13.5s-35.333 5.5 -52 5.5c-13.333 0 -25.833 -1.83301 -37.5 -5.5
s-21.834 -9.83398 -30.501 -18.501s-15.334 -20.334 -20.001 -35.001s-7 -33 -7 -55c0 -23.333 7 -39 21 -47s31.667 -12 53 -12c17.333 0 35.5 1.83301 54.5 5.5s37.167 7.5 54.5 11.5l40 -138c-16.667 -9.33301 -34.834 -17.5 -54.501 -24.5s-39.667 -12.667 -60 -17
s-40.166 -7.5 -59.499 -9.5s-37.333 -3 -54 -3c-39.333 0 -73.333 5.16699 -102 15.5s-52.167 24.5 -70.5 42.5s-32 39.333 -41 64s-13.5 51.667 -13.5 81c0 36 4.16699 72.833 12.5 110.5s23.5 72 45.5 103s52 56.5 90 76.5s86.667 30 146 30z" />
    <glyph glyph-name="d" unicode="d" horiz-adv-x="643" 
d="M329 348c-4 0 -9.83008 -1.16797 -17.4971 -3.50098s-15.334 -7.66602 -23.001 -15.999s-14.5 -20.166 -20.5 -35.499s-9 -36 -9 -62c0 -25.333 4.83301 -42.666 14.5 -51.999s21.167 -14 34.5 -14c9.33301 0 19.166 1.66699 29.499 5s20.166 7.66602 29.499 12.999
l9.5 76.5c3 24.333 6.5 49.833 10.5 76.5c-11.333 5.33301 -22.5 8.66602 -33.5 9.99902s-19.167 2 -24.5 2zM670.003 723.999l-11.5029 -87l-16.5 -127.5l-18 -147.5l-17.5 -147.5l-15 -127.5c-4.33301 -38 -7.5 -67 -9.5 -87h-225c1.33301 8.66699 2.66602 19 3.99902 31
s3 23.333 5 34l-4 2c-19.333 -17.333 -38.166 -31 -56.499 -41s-35.666 -17.667 -51.999 -23s-31.166 -8.83301 -44.499 -10.5s-24.666 -2.5 -33.999 -2.5c-27.333 0 -50.5 5.16699 -69.5 15.5s-34.5 24.333 -46.5 42s-20.667 37.834 -26 60.501s-8 46.667 -8 72
c0 41.333 5.16699 82.166 15.5 122.499s26.333 76.333 48 108s49.334 57.334 83.001 77.001s74.167 29.5 121.5 29.5c6 0 13.667 -0.333008 23 -1s19.333 -1.66699 30 -3s21.667 -3.33301 33 -6s21.666 -6.33398 30.999 -11.001l28 228h232z" />
    <glyph glyph-name="e" unicode="e" horiz-adv-x="588" 
d="M356 513c31.333 0 59.999 -2.83691 85.999 -8.50391s48.333 -14.667 67 -27s33.167 -28.666 43.5 -48.999s15.5 -45.5 15.5 -75.5c0 -15.333 -3.66699 -32 -11 -50s-21.833 -35.167 -43.5 -51.5s-52.167 -30.666 -91.5 -42.999s-90.666 -20.5 -153.999 -24.5v-8
c0 -11.333 3.83301 -19 11.5 -23s23.167 -6 46.5 -6c10 0 21.833 0.833008 35.5 2.5s28.167 3.83398 43.5 6.50098s30.5 5.66699 45.5 9s28.5 7 40.5 11l40 -132c-20 -10.667 -42.167 -19.667 -66.5 -27s-48.5 -13.166 -72.5 -17.499s-46.167 -7.33301 -66.5 -9
s-36.5 -2.5 -48.5 -2.5c-52 0 -94 6.33301 -126 19s-57 29.5 -75 50.5s-30.167 44.667 -36.5 71s-9.5 53.5 -9.5 81.5c0 39.333 6 77.333 18 114s31 69 57 97s59.667 50.333 101 67s91.333 25 150 25zM265.999 273.996c57.333 4 86 21.667 86 53c0 4.66699 -2 10.667 -6 18
s-11.667 11 -23 11c-13.333 0 -25.333 -6 -36 -18s-17.667 -33.333 -21 -64z" />
    <glyph glyph-name="f" unicode="f" horiz-adv-x="462" 
d="M371 734c21.333 0 47.3281 -1.83105 77.9951 -5.49805s61 -10.834 91 -21.501l-38 -152c-9.33301 2 -17.5 3.5 -24.5 4.5s-13.167 1.66699 -18.5 2l-15.5 1c-5 0.333008 -10.5 0.5 -16.5 0.5c-10 0 -19.833 -0.833008 -29.5 -2.5s-18.5 -5 -26.5 -10
s-14.833 -12 -20.5 -21s-9.5 -20.833 -11.5 -35.5l-2 -21h140l-19 -149h-134l-21 -223c-5.33301 -56.667 -12.666 -105.334 -21.999 -146.001s-23.666 -74 -42.999 -100s-45 -45.167 -77 -57.5s-73.333 -18.5 -124 -18.5c-21.333 0 -47 1.66699 -77 5s-60 10.333 -90 21
l33 152c14.667 -2 26.834 -3.33301 36.501 -4s19.167 -1 28.5 -1c18.667 0 34.334 2.33301 47.001 7s23.167 12.834 31.5 24.501s15 27.334 20 47.001s9.5 44.5 13.5 74.5c3.33301 25.333 6.83301 57.166 10.5 95.499l11.5 123.5h-83l16 132l80 23l3 21
c4 30.667 10.333 60.167 19 88.5s22.334 53.166 41.001 74.499s43.5 38.5 74.5 51.5s70.5 19.5 118.5 19.5z" />
    <glyph glyph-name="g" unicode="g" horiz-adv-x="653" 
d="M633 444c-6 -40 -11.502 -78.332 -16.502 -114.999s-9.66699 -73 -14 -109l-12.5 -108c-4 -36 -7.66699 -73 -11 -111c-4 -42.667 -13.833 -78.5 -29.5 -107.5s-35.5 -52.5 -59.5 -70.5s-51.333 -30.833 -82 -38.5s-63 -11.5 -97 -11.5c-20 0 -41.333 1 -64 3
s-45 5 -67 9s-42.833 8.66699 -62.5 14s-36.834 11.333 -51.501 18l46 157c18.667 -5.33301 41 -10.833 67 -16.5s50.667 -8.5 74 -8.5c30 0 53.833 6.5 71.5 19.5s28.834 35.5 33.501 67.5l5 37l-7 3c-18.667 -16 -36.5 -28.5 -53.5 -37.5s-32.667 -15.833 -47 -20.5
s-26.666 -7.5 -36.999 -8.5s-18.5 -1.5 -24.5 -1.5c-31.333 0 -57.5 4.5 -78.5 13.5s-37.833 21.167 -50.5 36.5s-21.667 33.666 -27 54.999s-8 44.333 -8 69c0 20 1.5 42.167 4.5 66.5s8.5 48.833 16.5 73.5s19.333 48.5 34 71.5s34 43.5 58 61.5s52.833 32.5 86.5 43.5
s73.834 16.5 120.501 16.5c8.66699 0 23.5 -0.5 44.5 -1.5s44.5 -3.33301 70.5 -7s53.167 -9.16699 81.5 -16.5s54.5 -17 78.5 -29zM343.998 344.001c-9.33301 0 -18.667 -2.16992 -28 -6.50293s-17.833 -10.833 -25.5 -19.5s-14 -19.667 -19 -33s-7.5 -28.666 -7.5 -45.999
c0 -23.333 4.33301 -39.166 13 -47.499s19 -12.5 31 -12.5c10 0 20.333 1.83301 31 5.5s20.667 7.83398 30 12.501l23 139c-9.33301 3.33301 -18.333 5.5 -27 6.5s-15.667 1.5 -21 1.5z" />
    <glyph glyph-name="h" unicode="h" horiz-adv-x="640" 
d="M295 432c37.333 29.333 72.168 50.166 104.501 62.499s60.166 18.5 83.499 18.5c51.333 0 87 -11.667 107 -35s30 -58.333 30 -105c0 -15.333 -1 -32 -3 -50l-39 -323h-237l35 273c0.666992 3.33301 1 6.33301 1 9v7c0 13.333 -2.83301 22.5 -8.5 27.5
s-15.167 7.5 -28.5 7.5c-6 0 -13.833 -1.33301 -23.5 -4s-19.167 -7.33398 -28.5 -14.001l-39 -306h-239l12 99.5l15.5 125l17 137.5l16.5 137.5l15 124.5c4.66699 38.667 9 72 13 100h233l-21 -161c-3.33301 -21.333 -6.33301 -42.166 -9 -62.499
s-6.66699 -42.166 -12 -65.499z" />
    <glyph glyph-name="i" unicode="i" horiz-adv-x="361" 
d="M37 0c10.667 83.333 20.667 166.333 30 249s19.666 165.667 30.999 249h237c-11.333 -83.333 -21.666 -166.333 -30.999 -249s-19.333 -165.667 -30 -249h-237zM245 759c42 0 72.166 -9.16602 90.499 -27.499s27.5 -42.833 27.5 -73.5c0 -36.667 -12 -66.834 -36 -90.501
s-59 -35.5 -105 -35.5c-40.667 0 -70 9.33301 -88 28s-27 43 -27 73c0 38 11.833 68.5 35.5 91.5s57.834 34.5 102.501 34.5z" />
    <glyph glyph-name="j" unicode="j" horiz-adv-x="363" 
d="M99 498l237.998 -0.000976562l-46 -385c-7.33301 -59.333 -18.166 -110.166 -32.499 -152.499s-34.666 -77.666 -60.999 -105.999s-60 -50.666 -101 -66.999s-91.833 -27.5 -152.5 -33.5l-47 166c32 13.333 57.5 26 76.5 38s34 25.667 45 41s19 33.166 24 53.499
s9.16699 45.166 12.5 74.499zM244.998 758.999c42 0 72.166 -9.16602 90.499 -27.499s27.5 -42.833 27.5 -73.5c0 -36.667 -12 -66.834 -36 -90.501s-59 -35.5 -105 -35.5c-40.667 0 -70 9.33301 -88 28s-27 43 -27 73c0 38 11.833 68.5 35.5 91.5s57.834 34.5 102.501 34.5
z" />
    <glyph glyph-name="k" unicode="k" horiz-adv-x="644" 
d="M297 387l100.999 110.999h256l-199 -195l42 -48l111 -255h-235l-64 178l-41 -43l-17 -135h-241l44 361l44 361h242l-23 -178c-3.33301 -27.333 -6.66602 -53.166 -9.99902 -77.499s-8.33301 -50.833 -15 -79.5h5z" />
    <glyph glyph-name="l" unicode="l" horiz-adv-x="365" 
d="M344 725c-2 -18.667 -4.83203 -42.832 -8.49902 -72.499l-11.5 -97l-13 -109l-13 -109l-11 -97l-8 -72.5l64 1l7 -148c-36 -14.667 -71.833 -24.5 -107.5 -29.5s-64.834 -7.5 -87.501 -7.5c-23.333 0 -42.833 2.83301 -58.5 8.5s-28 13.5 -37 23.5
s-15.333 21.833 -19 35.5s-5.5 28.5 -5.5 44.5c0 13.333 1 27.666 3 42.999l73 586h233z" />
    <glyph glyph-name="m" unicode="m" horiz-adv-x="923" 
d="M289 437c16.667 15.333 33.668 27.8281 51.001 37.4951s34 17.334 50 23.001s30.5 9.5 43.5 11.5s23.833 3 32.5 3c36 0 63.5 -7.16699 82.5 -21.5s31.833 -34.166 38.5 -59.499c18 16 36.167 29.167 54.5 39.5s36 18.5 53 24.5s32.333 10.333 46 13s24.834 4 33.501 4
c24.667 0 45.167 -3.33301 61.5 -10s29.5 -16.167 39.5 -28.5s17.167 -27 21.5 -44s6.5 -35.5 6.5 -55.5c0 -8 -0.333008 -16.167 -1 -24.5s-1.66699 -17.166 -3 -26.499l-39 -323h-234l36 282c0.666992 2.66699 1 6.33398 1 11.001c0 20.667 -10.333 31 -31 31
c-5.33301 0 -12 -1 -20 -3s-15.667 -5 -23 -9l-37 -312h-234l36 282c0.666992 2.66699 1 6.33398 1 11.001c0 20.667 -10.333 31 -31 31c-10.667 0 -23.334 -4.33301 -38.001 -13l-40 -311h-236c10.667 83.333 20.667 166.5 30 249.5s19.666 166.167 30.999 249.5h223
l-10 -59z" />
    <glyph glyph-name="n" unicode="n" horiz-adv-x="640" 
d="M291 432c35.333 28.667 69.834 49.334 103.501 62.001s62.167 19 85.5 19c51.333 0 87.5 -11.667 108.5 -35s31.5 -58.333 31.5 -105c0 -15.333 -1 -32 -3 -50l-39 -323h-237l35 273c0.666992 3.33301 1 6.33301 1 9v7c0 13.333 -2.83301 22.5 -8.5 27.5
s-15.167 7.5 -28.5 7.5c-6 0 -13.833 -1.33301 -23.5 -4s-19.167 -7.33398 -28.5 -14.001l-39 -306h-239c10.667 83.333 20.667 166.5 30 249.5s19.666 166.167 30.999 249.5h226c-2 -11.333 -3.5 -21 -4.5 -29s-3.16699 -19.667 -6.5 -35z" />
    <glyph glyph-name="o" unicode="o" horiz-adv-x="643" 
d="M349 511c46 0 85.832 -5.5 119.499 -16.5s61.5 -26.667 83.5 -47s38.5 -44.833 49.5 -73.5s16.5 -60.334 16.5 -95.001c0 -43.333 -6.66699 -82.833 -20 -118.5s-33.333 -66.167 -60 -91.5s-60.167 -45 -100.5 -59s-87.166 -21 -140.499 -21c-48.667 0 -90 5.5 -124 16.5
s-61.5 26.667 -82.5 47s-36.333 44.833 -46 73.5s-14.5 60.334 -14.5 95.001c0 43.333 7 82.833 21 118.5s34.5 66.167 61.5 91.5s60.333 45 100 59s85.167 21 136.5 21zM334.999 345c-12 0 -21.833 -4.16602 -29.5 -12.499s-14 -19 -19 -32s-8.5 -27.333 -10.5 -43
s-3 -31.167 -3 -46.5c0 -17.333 2.66699 -31.5 8 -42.5s15.333 -16.5 30 -16.5c21.333 0 37.333 12.333 48 37s16 57.667 16 99c0 17.333 -2.83301 31.166 -8.5 41.499s-16.167 15.5 -31.5 15.5z" />
    <glyph glyph-name="p" unicode="p" horiz-adv-x="653" 
d="M323 150c4 0 9.83496 1.16602 17.502 3.49902s15.5 7.66602 23.5 15.999s15 20.5 21 36.5s9 38 9 66c0 24 -4.33301 40.667 -13 50s-19.667 14 -33 14c-10.667 0 -21.5 -2.16699 -32.5 -6.5s-21.5 -9.16602 -31.5 -14.499l-20 -153
c11.333 -5.33301 22.666 -8.66602 33.999 -9.99902s19.666 -2 24.999 -2zM-14.998 -210.001c3.33301 20 7.33496 48.501 12.002 85.501l15.5 124.5l17.5 143.5l17 143.5l14.5 124.5c4.33301 37 7.5 65.5 9.5 85.5h225c-1.33301 -10.667 -2.5 -20.667 -3.5 -30
s-3.16699 -21 -6.5 -35l4 -2c20 17.333 39.167 31.166 57.5 41.499s35.666 18.166 51.999 23.499s31.166 8.66602 44.499 9.99902s24.666 2 33.999 2c27.333 0 50.5 -5.16699 69.5 -15.5s34.5 -24.333 46.5 -42s20.667 -38 26 -61s8 -46.833 8 -71.5
c0 -41.333 -5.16699 -81.666 -15.5 -120.999s-26.333 -74.333 -48 -105s-49.5 -55.334 -83.5 -74.001s-74.333 -28 -121 -28c-6 0 -13.667 0.166992 -23 0.5s-19.333 1.33301 -30 3s-21.667 3.83398 -33 6.50098s-21.666 6.33398 -30.999 11.001
c-4 -36 -8.33301 -72.5 -13 -109.5s-9 -73.833 -13 -110.5h-232z" />
    <glyph glyph-name="q" unicode="q" horiz-adv-x="657" 
d="M324 -210l14.999 127.999c2.66699 22.667 5.66699 45 9 67s8.33301 45 15 69l-7 3c-18.667 -16 -36.5 -28.5 -53.5 -37.5s-32.667 -15.833 -47 -20.5s-26.666 -7.5 -36.999 -8.5s-18.5 -1.5 -24.5 -1.5c-31.333 0 -57.5 5 -78.5 15s-37.833 23.5 -50.5 40.5
s-21.667 37 -27 60s-8 47.5 -8 73.5c0 20 1.5 42.167 4.5 66.5s8.5 49 16.5 74s19.333 49.333 34 73s34 44.667 58 63s52.833 33 86.5 44s73.834 16.5 120.501 16.5c8.66699 0 23.667 -0.5 45 -1.5s45.166 -3.33301 71.499 -7s54 -9.16699 83 -16.5s55.5 -17 79.5 -29l8 -17
c-14 -110 -27 -219.167 -39 -327.5s-25 -217.166 -39 -326.499h-235zM343.999 343.999c-9.33301 0 -18.667 -2.16797 -28 -6.50098s-17.833 -11.5 -25.5 -21.5s-14 -22.833 -19 -38.5s-7.5 -34.834 -7.5 -57.501c0 -23.333 4.33301 -39.166 13 -47.499s19 -12.5 31 -12.5
c10 0 20.333 1.83301 31 5.5s20.667 7.83398 30 12.501l23 158c-9.33301 3.33301 -18.333 5.5 -27 6.5s-15.667 1.5 -21 1.5z" />
    <glyph glyph-name="r" unicode="r" horiz-adv-x="508" 
d="M25 0l29.999 246.002c10.667 84 20.667 168.333 30 253h225c-2 -22 -4.33301 -39.833 -7 -53.5s-5.66699 -30.5 -9 -50.5h4c20 38 41 67 63 87s48.333 30 79 30c16.667 0 32.334 -2.5 47.001 -7.5s28.334 -13.5 41.001 -25.5l-45 -199
c-15.333 3.33301 -29.833 6.16602 -43.5 8.49902s-26.834 3.5 -39.501 3.5c-20 0 -38.833 -2.83301 -56.5 -8.5s-35.167 -14.834 -52.5 -27.501l-31 -256h-235z" />
    <glyph glyph-name="s" unicode="s" horiz-adv-x="549" 
d="M315 512c34.667 0 69.499 -3.16699 104.499 -9.5s67.833 -17.166 98.5 -32.499l-52 -138c-28 10 -53.833 16.667 -77.5 20s-46.167 5 -67.5 5c-10 0 -17.333 -1 -22 -3s-7 -6 -7 -12c0 -4.66699 5.83301 -8.33398 17.5 -11.001l43.5 -10c17.333 -4 36 -9 56 -15
s38.667 -14.833 56 -26.5s31.833 -26.667 43.5 -45s17.5 -41.5 17.5 -69.5c0 -27.333 -5.33301 -52 -16 -74s-27.5 -40.667 -50.5 -56s-52.833 -27 -89.5 -35s-81 -12 -133 -12c-13.333 0 -29 0.666992 -47 2s-37 3.66602 -57 6.99902s-40.667 7.66602 -62 12.999
s-41.666 12.333 -60.999 21l49 144c51.333 -16 91.666 -25.5 120.999 -28.5s51 -4.5 65 -4.5c24 0 36 4.66699 36 14c0 7.33301 -4.33301 12.5 -13 15.5s-22.667 6.5 -42 10.5c-22 4.66699 -43.333 10.167 -64 16.5s-39 15 -55 26s-28.833 24.667 -38.5 41
s-14.5 36.833 -14.5 61.5c0 26.667 4.83301 51.334 14.5 74.001s24.834 42.334 45.501 59.001s47.5 29.5 80.5 38.5s73.167 13.5 120.5 13.5z" />
    <glyph glyph-name="t" unicode="t" horiz-adv-x="469" 
d="M359 652l-19 -153.998h130l-19 -150h-130l-14 -113c-0.666992 -4.66699 -1 -9 -1 -13v-11c0 -20 4.33301 -32.5 13 -37.5s22.334 -7.5 41.001 -7.5c4 0 12.833 0.666992 26.5 2s29.167 3.33301 46.5 6l20 -157c-14 -5.33301 -29.333 -9.83301 -46 -13.5
s-33.334 -6.83398 -50.001 -9.50098s-32.5 -4.5 -47.5 -5.5s-27.833 -1.5 -38.5 -1.5c-44 0 -79.667 4.16699 -107 12.5s-48.5 19.166 -63.5 32.499s-25 28.833 -30 46.5s-7.5 35.5 -7.5 53.5c0 15.333 1 30 3 44l21 172h-64l17 133l84 25l33.5 67l32.5 67z" />
    <glyph glyph-name="u" unicode="u" horiz-adv-x="631" 
d="M341 67c-36 -30.667 -68.835 -51.834 -98.502 -63.501s-56.167 -17.5 -79.5 -17.5c-51.333 0 -87.166 11.667 -107.499 35s-30.5 58.333 -30.5 105c0 15.333 1 32 3 50l39 323h237l-35 -273c-0.666992 -3.33301 -1 -6.33301 -1 -9v-7c0 -13.333 2.83301 -22.5 8.5 -27.5
s15.167 -7.5 28.5 -7.5c6 0 12.333 1.33301 19 4s14.667 7.33398 24 14.001l39 306h239c-10.667 -83.333 -20.667 -166.5 -30 -249.5s-19.666 -166.167 -30.999 -249.5h-219v64z" />
    <glyph glyph-name="v" unicode="v" horiz-adv-x="675" 
d="M321 158l54.998 171l72 197l237 -57l-230 -469h-326c-15.333 83.333 -32.666 166 -51.999 248s-36.666 164.667 -51.999 248h246l25 -168l19 -170h6z" />
    <glyph glyph-name="w" unicode="w" horiz-adv-x="975" 
d="M658 170l35 145.001l59 211l233 -53l-203 -473h-276l-12 183v137h-8l-31 -136l-54 -184h-285l-29 247c-10 81.333 -18.667 164.666 -26 249.999h232l8 -186l-1 -143h5l39 144l60 185h230l13 -183l4 -144h7z" />
    <glyph glyph-name="x" unicode="x" horiz-adv-x="658" 
d="M320 140c-6.66699 -10.667 -14.167 -23.501 -22.5 -38.501l-25.5 -46.5l-25.5 -46.5l-21.5 -38.5l-229 44l183 245c-21.333 38.667 -41.833 78.334 -61.5 119.001s-40.167 80.334 -61.5 119.001h262l37 -125h6c6 9.33301 12.833 20.666 20.5 33.999l24 41l24 41.5
c7.66699 13.667 14.5 25.167 20.5 34.5l228 -43l-178 -220c22.667 -42.667 44 -86.167 64 -130.5s41 -87.5 63 -129.5h-258l-43 140h-6z" />
    <glyph glyph-name="y" unicode="y" horiz-adv-x="630" 
d="M299 143l49.0029 166l73 216l230 -55l-259 -557c-21.333 -47.333 -49.833 -81.833 -85.5 -103.5s-78.834 -32.5 -129.501 -32.5c-24.667 0 -47.334 1.66699 -68.001 5s-45 9 -73 17l33 152c16 -2.66699 28.167 -4.5 36.5 -5.5s19.166 -1.5 32.499 -1.5
c21.333 0 37 3.5 47 10.5s18.667 19.833 26 38.5l6 16.5c2 5.66699 4.33301 11.167 7 16.5h-101l-46.5 236.5l-46.5 235.5h232l19 -192l10 -162z" />
    <glyph glyph-name="z" unicode="z" horiz-adv-x="575" 
d="M333 156h220l-16 -156h-513l-14 118l225 214l-2 9h-179l18 157h471l17 -112l-229 -222z" />
    <glyph glyph-name="braceleft" unicode="{" horiz-adv-x="413" 
d="M234 -163c-53.333 0 -92.002 12.335 -116.002 37.002s-36 56.334 -36 95.001c0 4.66699 0.166992 9.16699 0.5 13.5s0.833008 8.83301 1.5 13.5l20 157c0.666992 3.33301 1 6.16602 1 8.49902v6.5c0 19.333 -5.5 33.166 -16.5 41.499s-28.167 13.5 -51.5 15.5l14 120
c24.667 3.33301 44.167 9.66602 58.5 18.999s23.166 26.666 26.499 51.999l16 132c2.66699 22.667 7.83398 43.667 15.501 63s18.167 36 31.5 50s29.5 25 48.5 33s41.167 12 66.5 12h147l-15 -120h-33c-14 0 -25.5 -1.83301 -34.5 -5.5s-16.167 -8.5 -21.5 -14.5
s-9.16602 -13 -11.499 -21s-4.16602 -16 -5.49902 -24l-16 -138c-3.33301 -26.667 -13.666 -47.834 -30.999 -63.501s-38.333 -25.5 -63 -29.5l-1 -4c25.333 -3.33301 43.666 -13 54.999 -29s17 -34.667 17 -56v-8.5c0 -2.33301 -0.333008 -5.16602 -1 -8.49902l-21 -166
c-0.666992 -3.33301 -1 -6.66602 -1 -9.99902v-10c0 -13.333 3 -24.333 9 -33s18.667 -13 38 -13h44l-15 -115h-120z" />
    <glyph glyph-name="bar" unicode="|" horiz-adv-x="426" 
d="M160 -158v877h157v-877h-157z" />
    <glyph glyph-name="braceright" unicode="}" horiz-adv-x="413" 
d="M202 707c53.333 0 92.0029 -12.333 116.003 -37s36 -56.334 36 -95.001c0 -4.66699 -0.166992 -9.16699 -0.5 -13.5s-0.833008 -8.83301 -1.5 -13.5l-18 -144c0 -2.66699 -0.166992 -5.16699 -0.5 -7.5s-0.5 -4.5 -0.5 -6.5c0 -19.333 5.83301 -32.833 17.5 -40.5
s28.5 -13.5 50.5 -17.5l-14 -120c-26 -2 -45.833 -8 -59.5 -18s-22.167 -27.667 -25.5 -53l-18 -145c-2.66699 -22.667 -7.83398 -43.667 -15.501 -63s-18.167 -36 -31.5 -50s-29.5 -25 -48.5 -33s-41.167 -12 -66.5 -12h-147l15 120h33c14 0 25.5 1.83301 34.5 5.5
s16.167 8.5 21.5 14.5s9.16602 13 11.499 21s4.16602 16 5.49902 24l18 151c3.33301 26.667 13.666 47.834 30.999 63.501s38.333 25.5 63 29.5l1 4c-25.333 3.33301 -43.666 13 -54.999 29s-17 35 -17 57v8c0 2.66699 0.333008 5.33398 1 8.00098l19 153
c0.666992 3.33301 1 6.66602 1 9.99902v10c0 13.333 -3 24.333 -9 33s-18.667 13 -38 13h-44l15 115h120z" />
    <glyph glyph-name="asciitilde" unicode="~" horiz-adv-x="623" 
d="M436 203c-22.667 0 -45.668 2.33203 -69.001 6.99902s-46 9.83398 -68 15.501l-61.5 15.5c-19 4.66699 -35.833 7 -50.5 7l-69 -46l-64 54c12.667 28 25.834 51.167 39.501 69.5s27.334 33 41.001 44s27.667 18.667 42 23s29.166 6.5 44.499 6.5
c20 0 40.5 -2.16699 61.5 -6.5s42 -9.33301 63 -15s41.667 -10.667 62 -15s40.166 -6.5 59.499 -6.5l70 48l64 -54c-23.333 -50 -48.166 -87 -74.499 -111s-56.5 -36 -90.5 -36z" />
    <glyph glyph-name="exclamdown" unicode="&#xa1;" horiz-adv-x="366" 
d="M220 506c34 0 59 -7.83203 75 -23.499s24 -35.834 24 -60.501c0 -14 -2.33301 -27.667 -7 -41s-12 -25 -22 -35s-22.667 -18.167 -38 -24.5s-34 -9.5 -56 -9.5c-32.667 0 -56.834 7.83301 -72.501 23.5s-23.5 35.834 -23.5 60.501c0 14 2.33301 27.667 7 41
s11.834 25.166 21.501 35.499s22 18.5 37 24.5s33.167 9 54.5 9zM21 -220.999l27 216l51 270h180l-14 -270l-27 -216h-217z" />
    <glyph glyph-name="cent" unicode="&#xa2;" horiz-adv-x="623" 
d="M295 615l152.998 0.00195312l-14 -112c20.667 -3.33301 41.334 -8.66602 62.001 -15.999s39.667 -17.666 57 -30.999l-54 -140c-23.333 6 -47 11.333 -71 16s-45.667 4.66699 -65 0s-35 -15.334 -47 -32.001s-18 -43 -18 -79c0 -20.667 6 -35.334 18 -44.001
s27 -13.667 45 -15s37.667 0 59 4s41.666 8.33301 60.999 13l40 -138c-21.333 -12.667 -45.166 -22.834 -71.499 -30.501s-52.166 -13.167 -77.499 -16.5l-16 -126h-153l16 127c-52.667 11.333 -91.334 34.666 -116.001 69.999s-37 77 -37 125
c0 31.333 3.16699 63.5 9.5 96.5s17.5 64 33.5 93s37.833 54.5 65.5 76.5s62.834 37.333 105.501 46z" />
    <glyph glyph-name="sterling" unicode="&#xa3;" horiz-adv-x="623" 
d="M124 391c7.33301 50 17.668 93.8281 31.001 131.495s31.166 69.334 53.499 95.001s50 44.834 83 57.501s73.167 19 120.5 19c46.667 0 85.834 -4.83301 117.501 -14.5s59.167 -19.5 82.5 -29.5l-59 -150c-30.667 12 -56.167 19.167 -76.5 21.5s-35.166 3.5 -44.499 3.5
c-14 0 -26.167 -1.83301 -36.5 -5.5s-19.333 -10.5 -27 -20.5s-14.167 -23.667 -19.5 -41s-10 -39.666 -14 -66.999h106l-14 -107h-113c0 -11.333 -1.83301 -23.5 -5.5 -36.5s-8.16699 -25.5 -13.5 -37.5s-11.5 -23.5 -18.5 -34.5s-13.833 -20.167 -20.5 -27.5h299l-18 -148
h-532l18 146c14 12.667 25.333 24.334 34 35.001s15.667 21.334 21 32.001s9.66602 21.667 12.999 33s6.66602 24 9.99902 38h-52l14 107h61z" />
    <glyph glyph-name="currency" unicode="&#xa4;" horiz-adv-x="586" 
d="M204 305c0 -24 8.5 -44.501 25.5 -61.501s37.5 -25.5 61.5 -25.5c24.667 0 45.667 8.33301 63 25s26 37.334 26 62.001c0 12 -2.16699 23.333 -6.5 34s-10.5 20.167 -18.5 28.5s-17.5 14.833 -28.5 19.5s-22.833 7 -35.5 7c-24 0 -44.5 -8.66699 -61.5 -26
s-25.5 -38.333 -25.5 -63zM32 472.999l91.0039 93.0049l66 -66c15.333 7.33301 32 13.166 50 17.499s35.667 6.5 53 6.5s35.166 -2 53.499 -6s35.5 -10.667 51.5 -20l64 68l92 -93l-66 -66c7.33301 -15.333 13.166 -31.833 17.499 -49.5s6.5 -35.167 6.5 -52.5
c0 -16.667 -2.33301 -34 -7 -52s-10.667 -34.667 -18 -50l67 -64l-92 -93l-66 66c-30.667 -16.667 -65 -25 -103 -25s-72.333 8.33301 -103 25l-66 -66l-91 93l66 65c-8.66699 15.333 -14.834 31.666 -18.501 48.999s-5.5 34.666 -5.5 51.999s2.16699 34.666 6.5 51.999
s10.166 33.666 17.499 48.999z" />
    <glyph glyph-name="yen" unicode="&#xa5;" horiz-adv-x="623" 
d="M330 399l47 114l69 160h229l-146 -274h72l-9 -78h-537l9 78h65l-73 274h227l26 -161l16 -113h5zM587 284l-9 -77h-149l-25 -207h-238l25 207h-150l9 77h537z" />
    <glyph glyph-name="brokenbar" unicode="&#xa6;" horiz-adv-x="426" 
d="M166 365v354h157v-354h-157zM323 232v-390h-157v390h157z" />
    <glyph glyph-name="section" unicode="&#xa7;" horiz-adv-x="576" 
d="M360 720c16.667 0 34.332 -0.994141 52.999 -2.99414s36.834 -4.83301 54.501 -8.5s33.667 -8 48 -13s26.166 -10.167 35.499 -15.5l-46 -125c-25.333 7.33301 -51.666 13 -78.999 17s-51.666 6 -72.999 6c-15.333 0 -28.5 -1.66699 -39.5 -5s-16.5 -10.333 -16.5 -21
c0 -6 4.5 -12.333 13.5 -19s19.333 -12.834 31 -18.501s23.334 -10.834 35.001 -15.501s20.5 -8 26.5 -10c14.667 -6 30.167 -12.833 46.5 -20.5s31.166 -17.5 44.499 -29.5s24.333 -26.167 33 -42.5s13 -35.833 13 -58.5c0 -30 -7.16699 -55 -21.5 -75
s-31.833 -37.667 -52.5 -53c24 -20.667 40.667 -40.5 50 -59.5s14 -39.5 14 -61.5c0 -24 -5.83301 -47 -17.5 -69s-29.667 -41.333 -54 -58s-55.166 -30 -92.499 -40s-81.666 -15 -132.999 -15c-38 0 -73.833 3.5 -107.5 10.5s-63.167 15.833 -88.5 26.5l46 127
c36 -11.333 66.333 -18.5 91 -21.5s48 -4.5 70 -4.5c21.333 0 38.666 2.66699 51.999 8s20 13.666 20 24.999c0 3.33301 -0.666992 6.5 -2 9.5s-4.5 6.33301 -9.5 10s-12.333 7.66699 -22 12s-22.834 9.5 -39.501 15.5c-23.333 8.66699 -45.5 18.167 -66.5 28.5
s-39.667 22.333 -56 36s-29.333 29.167 -39 46.5s-14.5 37.666 -14.5 60.999c0 32.667 7.16699 58.667 21.5 78s32.166 37.333 53.499 54c-11.333 11.333 -21.5 26.333 -30.5 45s-13.5 39.667 -13.5 63c0 33.333 7.33301 61.666 22 84.999s34 42.166 58 56.499
s51.833 24.833 83.5 31.5s64.5 10 98.5 10zM264.998 365.006c-13.333 -11.333 -19.999 -24.332 -19.999 -38.999c0 -8 4.66699 -14.333 14 -19s24.666 -11.667 45.999 -21l42 -17c12 13.333 18 24.666 18 33.999c0 8 -6.83301 17.333 -20.5 28s-40.167 22 -79.5 34z" />
    <glyph glyph-name="dieresis" unicode="&#xa8;" horiz-adv-x="641" 
d="M497 749c33.333 0 57.333 -7.33398 72 -22.001s22 -34 22 -58c0 -31.333 -9.66699 -56.666 -29 -75.999s-48.333 -29 -87 -29c-34 0 -58 8 -72 24s-21 36 -21 60c0 31.333 10.167 56 30.5 74s48.5 27 84.5 27zM251 748.999c33.333 0 57.333 -7.33398 72 -22.001
s22 -34 22 -58c0 -31.333 -9.66699 -56.666 -29 -75.999s-48.333 -29 -87 -29c-34 0 -58 8 -72 24s-21 36 -21 60c0 31.333 10.167 56 30.5 74s48.5 27 84.5 27z" />
    <glyph glyph-name="copyright" unicode="&#xa9;" horiz-adv-x="878" 
d="M860 326c0 -55.333 -10.5 -107.5 -31.5 -156.5s-49.833 -91.667 -86.5 -128s-79.334 -65 -128.001 -86s-100.334 -31.5 -155.001 -31.5c-55.333 0 -107.5 10.5 -156.5 31.5s-91.833 49.667 -128.5 86s-65.667 79 -87 128s-32 101.167 -32 156.5s10.667 107.333 32 156
s50.333 91.167 87 127.5s79.5 65 128.5 86s101.167 31.5 156.5 31.5c54.667 0 106.334 -10.5 155.001 -31.5s91.334 -49.667 128.001 -86s65.5 -78.833 86.5 -127.5s31.5 -100.667 31.5 -156zM774 326c0 43.333 -8.33301 84.166 -25 122.499s-39.167 71.833 -67.5 100.5
s-61.666 51.334 -99.999 68.001s-79.166 25 -122.499 25s-84.333 -8.33301 -123 -25s-72.334 -39.334 -101.001 -68.001s-51.334 -62.167 -68.001 -100.5s-25 -79.166 -25 -122.499s8.33301 -84.166 25 -122.499s39.334 -71.666 68.001 -99.999
s62.334 -50.833 101.001 -67.5s79.667 -25 123 -25s84.166 8.33301 122.499 25s71.666 39.167 99.999 67.5s50.833 61.666 67.5 99.999s25 79.166 25 122.499zM394 324c0 -27.333 3.16699 -48.6689 9.5 -64.002s15 -26.833 26 -34.5s23.667 -12.5 38 -14.5s29.5 -3 45.5 -3
c4.66699 0 11.167 0.166992 19.5 0.5s17.166 1 26.499 2s18.833 2.16699 28.5 3.5s17.834 2.66602 24.501 3.99902l21 -105c-24 -9.33301 -51 -16 -81 -20s-58 -6 -84 -6c-49.333 0 -89.666 6.66699 -120.999 20s-55.833 30.833 -73.5 52.5s-29.834 46.334 -36.501 74.001
s-10 55.834 -10 84.501c0 30 4 59.167 12 87.5s21.833 53.5 41.5 75.5s46.334 39.667 80.001 53s76.5 20 128.5 20c23.333 0 44.166 -1.33301 62.499 -4s39.166 -7.33398 62.499 -14.001l-18 -109c-14.667 2.66699 -29 4.66699 -43 6s-28.333 2 -43 2
c-16 0 -31 -1.66699 -45 -5s-26.167 -9.16602 -36.5 -17.499s-18.666 -19.666 -24.999 -33.999s-9.5 -32.5 -9.5 -54.5z" />
    <glyph glyph-name="ordfeminine" unicode="&#xaa;" horiz-adv-x="481" 
d="M442 377l34.001 0.00292969l5 -97c-8 -3.33301 -17.667 -6.33301 -29 -9s-23 -5 -35 -7s-23.667 -3.5 -35 -4.5s-21 -1.5 -29 -1.5c-6.66699 0 -13.834 0.333008 -21.501 1s-14.834 2.66699 -21.501 6s-12.667 8.16602 -18 14.499s-8.66602 15.166 -9.99902 26.499
c0 1.33301 -0.166992 2.16602 -0.5 2.49902s-0.5 1.16602 -0.5 2.49902c-11.333 -12 -23.333 -21.667 -36 -29s-24.667 -12.666 -36 -15.999s-21.333 -5.5 -30 -6.5s-14.667 -1.5 -18 -1.5c-25.333 0 -45.833 3.5 -61.5 10.5s-27.667 16.167 -36 27.5s-14 24.166 -17 38.499
s-4.5 28.833 -4.5 43.5c0 24 2.5 49.167 7.5 75.5s14.5 50.833 28.5 73.5s33 41.334 57 56.001s55 22 93 22c12.667 0 27.5 -2.33301 44.5 -7s32.833 -12.667 47.5 -24l13 24h140zM242.001 389.003c4 0 9.16602 0.668945 15.499 2.00195s12.5 4.66602 18.5 9.99902l10 79
c-4.66699 3.33301 -9.66699 5.66602 -15 6.99902s-9.66602 2 -12.999 2c-4 0 -8.33301 -0.666992 -13 -2s-9.16699 -4.16602 -13.5 -8.49902s-8 -10.833 -11 -19.5s-4.5 -20.334 -4.5 -35.001c0 -15.333 3 -25 9 -29s11.667 -6 17 -6z" />
    <glyph glyph-name="guillemotleft" unicode="&#xab;" horiz-adv-x="575" 
d="M32 229l218 212l84 -63l-126 -167l82 -163l-102 -68l-161 212zM273 229l218 212l85 -63l-127 -167l82 -163l-101 -68l-162 212z" />
    <glyph glyph-name="logicalnot" unicode="&#xac;" horiz-adv-x="623" 
d="M532 72h-123l22 175h-319l15 123h442z" />
    <glyph glyph-name="sfthyphen" unicode="&#xad;" horiz-adv-x="424" 
d="M65 201l19 151h292l-19 -151h-292z" />
    <glyph glyph-name="registered" unicode="&#xae;" horiz-adv-x="634" 
d="M630 457c0 -38.667 -6.83398 -75 -20.501 -109s-33 -63.833 -58 -89.5s-54.667 -45.834 -89 -60.501s-72.166 -22 -113.499 -22c-40.667 0 -78.334 7.33301 -113.001 22s-64.5 34.834 -89.5 60.501s-44.667 55.5 -59 89.5s-21.5 70.333 -21.5 109
c0 39.333 6.83301 76.166 20.5 110.499s33 64.166 58 89.499s54.833 45.333 89.5 60s73 22 115 22s80.167 -7.33301 114.5 -22s63.833 -34.667 88.5 -60s43.834 -55.166 57.501 -89.499s20.5 -71.166 20.5 -110.499zM566.999 457c0 30 -5.33301 58.167 -16 84.5
s-25.5 49.333 -44.5 69s-42 35.334 -69 47.001s-56.5 17.5 -88.5 17.5s-61.5 -5.83301 -88.5 -17.5s-50 -27.334 -69 -47.001s-33.833 -42.667 -44.5 -69s-16 -54.5 -16 -84.5s5 -58.167 15 -84.5s24.5 -49.333 43.5 -69s42 -35.167 69 -46.5s57.167 -17 90.5 -17
c35.333 0 66.5 5.66699 93.5 17s49.833 26.833 68.5 46.5s32.667 42.667 42 69s14 54.5 14 84.5zM379.999 523c0 18.667 -9.66699 28 -29 28h-20v-60h16c10 0 18 2.33301 24 7s9 13 9 25zM398.999 325l-35.999 107h-32v-107h-99v287h146c21.333 0 39 -2.66699 53 -8
s25 -12.333 33 -21s13.5 -18.5 16.5 -29.5s4.5 -21.833 4.5 -32.5c0 -12.667 -3.33301 -26 -10 -40s-17.334 -24.667 -32.001 -32l55 -124h-99z" />
    <glyph glyph-name="macron" unicode="&#xaf;" horiz-adv-x="625" 
d="M173 704h407l-17 -136h-407z" />
    <glyph glyph-name="degree" unicode="&#xb0;" horiz-adv-x="418" 
d="M417 537c0 -23.333 -4.66699 -45.5 -14 -66.5s-21.833 -39.333 -37.5 -55s-34 -28.167 -55 -37.5s-43.5 -14 -67.5 -14c-23.333 0 -45.5 4.16699 -66.5 12.5s-39.333 20 -55 35s-28.167 33.167 -37.5 54.5s-14 45 -14 71c0 24.667 4.66699 47.5 14 68.5
s21.833 39.167 37.5 54.5s34 27.5 55 36.5s43.167 13.5 66.5 13.5c24 0 46.5 -4.5 67.5 -13.5s39.333 -21.167 55 -36.5s28.167 -33.5 37.5 -54.5s14 -43.833 14 -68.5zM312 537c0 21.333 -6.33301 38.1699 -19 50.5029s-29.334 18.5 -50.001 18.5
c-20 0 -36.333 -6.33301 -49 -19s-19 -29.334 -19 -50.001s6.33301 -37.334 19 -50.001s29 -19 49 -19c20.667 0 37.334 6.16699 50.001 18.5s19 29.166 19 50.499z" />
    <glyph glyph-name="plusminus" unicode="&#xb1;" horiz-adv-x="623" 
d="M400 292l-16 -133h-123l16 133h-160l15 123h160l18 140h123l-18 -140h159l-15 -123h-159zM539 123l-15 -123h-442l15 123h442z" />
    <glyph glyph-name="twosuperior" unicode="&#xb2;" horiz-adv-x="438" 
d="M299 471h112.004l-14 -117h-359l13 103l61 42c21.333 15.333 41.166 30.333 59.499 45s33.666 28.667 45.999 42s19.166 25 20.499 35c0 5.33301 -1.5 9.5 -4.5 12.5s-9.16699 4.5 -18.5 4.5c-10 0 -24.5 -1.66699 -43.5 -5s-38.833 -10.333 -59.5 -21l-43 107
c32.667 19.333 65.167 33.5 97.5 42.5s63.166 13.5 92.499 13.5c54.667 0 94.5 -11.667 119.5 -35s37.5 -54 37.5 -92c0 -32.667 -11 -64.167 -33 -94.5s-50 -55.5 -84 -75.5v-7z" />
    <glyph glyph-name="threesuperior" unicode="&#xb3;" horiz-adv-x="438" 
d="M352 584c13.333 -4 24.1709 -9.16602 32.5039 -15.499s14.666 -13.333 18.999 -21s7.33301 -15.667 9 -24s2.5 -15.833 2.5 -22.5c0 -22 -4.83301 -42.333 -14.5 -61s-23.834 -34.834 -42.501 -48.501s-41.667 -24.334 -69 -32.001s-58.333 -11.5 -93 -11.5
c-6.66699 0 -16 0.5 -28 1.5s-25.5 2.83301 -40.5 5.5s-30.5 6.66699 -46.5 12s-31.333 12.666 -46 21.999l46 99c26 -10 46.333 -16 61 -18s29.334 -3 44.001 -3c16 0 30.5 2.33301 43.5 7s19.5 13.667 19.5 27s-12 20 -36 20c-2.66699 0 -7.33398 -0.166992 -14.001 -0.5
s-18 -1.5 -34 -3.5l-16 91c37.333 6.66699 63.333 12.5 78 17.5s22 12.167 22 21.5c0 3.33301 -1.16699 5.83301 -3.5 7.5s-7.5 2.5 -15.5 2.5c-13.333 0 -29 -1.66699 -47 -5s-41.667 -10 -71 -20l-36 101c21.333 8.66699 40.666 15.834 57.999 21.501s33.666 10 48.999 13
s30 5.16699 44 6.5s28.333 2 43 2c26 0 48.333 -2.66699 67 -8s34 -12.666 46 -21.999s20.833 -20 26.5 -32s8.5 -24.667 8.5 -38s-5 -29 -15 -47s-26.667 -31.333 -50 -40z" />
    <glyph glyph-name="acute" unicode="&#xb4;" horiz-adv-x="554" 
d="M245 537l-65 86l211 187l86 -133z" />
    <glyph glyph-name="mu" unicode="&#xb5;" horiz-adv-x="631" 
d="M340 65c-15.333 -16.667 -33.001 -30.668 -53.001 -42.001c-7.33301 -4 -14.166 -7.5 -20.499 -10.5s-13.166 -5.16699 -20.499 -6.5l-26 -217h-239c16.667 120.667 31.5 239.334 44.5 356.001s27.167 234 42.5 352h235l-35 -286c-1.33301 -10 0 -18.667 4 -26
s12.667 -11 26 -11c4 0 11.167 1.16699 21.5 3.5s19.833 6.83301 28.5 13.5l19 153.5l20 153.5h237c-11.333 -83.333 -21.333 -165.333 -30 -246s-18.334 -164.667 -29.001 -252h-218v59z" />
    <glyph glyph-name="mu" unicode="&#x3bc;" horiz-adv-x="631" 
d="M340 65c-15.333 -16.667 -33.001 -30.668 -53.001 -42.001c-7.33301 -4 -14.166 -7.5 -20.499 -10.5s-13.166 -5.16699 -20.499 -6.5l-26 -217h-239c16.667 120.667 31.5 239.334 44.5 356.001s27.167 234 42.5 352h235l-35 -286c-1.33301 -10 0 -18.667 4 -26
s12.667 -11 26 -11c4 0 11.167 1.16699 21.5 3.5s19.833 6.83301 28.5 13.5l19 153.5l20 153.5h237c-11.333 -83.333 -21.333 -165.333 -30 -246s-18.334 -164.667 -29.001 -252h-218v59z" />
    <glyph glyph-name="paragraph" unicode="&#xb6;" horiz-adv-x="706" 
d="M273 246c-62 0 -111.001 17.5 -147.001 52.5s-54 85.833 -54 152.5c0 37.333 6.33301 72.333 19 105s30.334 61.167 53.001 85.5s50 43.5 82 57.5s67 21 105 21h364l-116 -948h-148l98 800h-48l-98 -800h-151l59 474h-18z" />
    <glyph glyph-name="periodcentered" unicode="&#xb7;" horiz-adv-x="339" 
d="M186 364c36 0 62.167 -8.33203 78.5 -24.999s24.5 -39 24.5 -67c0 -32.667 -10.333 -59.5 -31 -80.5s-53 -31.5 -97 -31.5c-38 0 -64.5 8.16699 -79.5 24.5s-22.5 37.5 -22.5 63.5c0 16 2.5 31 7.5 45s12.667 26.167 23 36.5s23.5 18.666 39.5 24.999s35 9.5 57 9.5z" />
    <glyph glyph-name="cedilla" unicode="&#xb8;" horiz-adv-x="511" 
d="M273 -52c29.333 -4 51.167 -13.8301 65.5 -29.4971s21.5 -35.167 21.5 -58.5c0 -16 -4.16699 -31.833 -12.5 -47.5s-21.5 -29.834 -39.5 -42.501s-41.333 -22.834 -70 -30.501s-63.334 -11.834 -104.001 -12.501l3 69c34 2.66699 58.833 9.16699 74.5 19.5
s23.5 21.166 23.5 32.499c0 8.66699 -4.16699 14.334 -12.5 17.001s-17.166 4 -26.499 4c-5.33301 0 -10 -0.166992 -14 -0.5s-7.66699 -0.5 -11 -0.5l-18 37l124 147l52 -34z" />
    <glyph glyph-name="onesuperior" unicode="&#xb9;" horiz-adv-x="403" 
d="M165 629l-79 -7l-7 102l132 44h144l-51 -414h-173z" />
    <glyph glyph-name="ordmasculine" unicode="&#xba;" horiz-adv-x="446" 
d="M267 605c64 0 111.5 -13.666 142.5 -40.999s46.5 -64 46.5 -110c0 -61.333 -19.5 -108.833 -58.5 -142.5s-93.833 -50.5 -164.5 -50.5c-64 0 -111.167 14.167 -141.5 42.5s-45.5 66.166 -45.5 113.499c0 56.667 18.667 102.167 56 136.5s92.333 51.5 165 51.5z
M258 490.001c-8 0 -14.499 -2.5 -19.499 -7.5s-9 -11.333 -12 -19s-5 -15.834 -6 -24.501s-1.5 -17 -1.5 -25c0 -11.333 1.83301 -20.666 5.5 -27.999s10.167 -11 19.5 -11c13.333 0 23.166 7 29.499 21s9.5 32.667 9.5 56c0 11.333 -1.83301 20.5 -5.5 27.5
s-10.167 10.5 -19.5 10.5z" />
    <glyph glyph-name="guillemotright" unicode="&#xbb;" horiz-adv-x="575" 
d="M553 192l-214 -212l-85 68l121 163l-84 167l101 63l166 -212zM311 192l-213 -212l-86 68l123 163l-85 167l100 63l166 -212z" />
    <glyph glyph-name="onequarter" unicode="&#xbc;" horiz-adv-x="1010" 
d="M211 539l-79 -7l-7 102l132 44h144l-51 -414h-173zM373 -18h-136l430 738h136zM908 414l-26 -207h51l-13 -107h-51l-12 -96h-167l12 96h-174l11 88l185 226h184zM718 270l-47 -63h45l8 63h-6z" />
    <glyph glyph-name="onehalf" unicode="&#xbd;" horiz-adv-x="1010" 
d="M197 539l-79 -7l-7 102l132 44h144l-51 -414h-173zM346 -18h-136l430 738h136zM831 117h112.004l-14 -117h-359l13 103l61 42c21.333 15.333 41.166 30.333 59.499 45s33.666 28.667 45.999 42s19.166 25 20.499 35c0 5.33301 -1.5 9.5 -4.5 12.5s-9.16699 4.5 -18.5 4.5
c-10 0 -24.5 -1.66699 -43.5 -5s-38.833 -10.333 -59.5 -21l-43 107c32.667 19.333 65.167 33.5 97.5 42.5s63.166 13.5 92.499 13.5c54.667 0 94.5 -11.667 119.5 -35s37.5 -54 37.5 -92c0 -32.667 -11 -64.167 -33 -94.5s-50 -55.5 -84 -75.5v-7z" />
    <glyph glyph-name="threequarters" unicode="&#xbe;" horiz-adv-x="1010" 
d="M389 494c13.333 -4 24.1709 -9.16602 32.5039 -15.499s14.666 -13.333 18.999 -21s7.33301 -15.667 9 -24s2.5 -15.833 2.5 -22.5c0 -22 -4.83301 -42.333 -14.5 -61s-23.834 -34.834 -42.501 -48.501s-41.667 -24.334 -69 -32.001s-58.333 -11.5 -93 -11.5
c-6.66699 0 -16 0.5 -28 1.5s-25.5 2.83301 -40.5 5.5s-30.5 6.66699 -46.5 12s-31.333 12.666 -46 21.999l46 99c26 -10 46.333 -16 61 -18s29.334 -3 44.001 -3c16 0 30.5 2.33301 43.5 7s19.5 13.667 19.5 27s-12 20 -36 20c-2.66699 0 -7.33398 -0.166992 -14.001 -0.5
s-18 -1.5 -34 -3.5l-16 91c37.333 6.66699 63.333 12.5 78 17.5s22 12.167 22 21.5c0 3.33301 -1.16699 5.83301 -3.5 7.5s-7.5 2.5 -15.5 2.5c-13.333 0 -29 -1.66699 -47 -5s-41.667 -10 -71 -20l-36 101c21.333 8.66699 40.666 15.834 57.999 21.501s33.666 10 48.999 13
s30 5.16699 44 6.5s28.333 2 43 2c26 0 48.333 -2.66699 67 -8s34 -12.666 46 -21.999s20.833 -20 26.5 -32s8.5 -24.667 8.5 -38s-5 -29 -15 -47s-26.667 -31.333 -50 -40zM404.005 -17.999h-136l430 738h136zM946.005 414.001l-26 -207h51l-13 -107h-51l-12 -96h-167
l12 96h-174l11 88l185 226h184zM756.005 270.001l-47 -63h45l8 63h-6z" />
    <glyph glyph-name="questiondown" unicode="&#xbf;" horiz-adv-x="569" 
d="M260 -231c-75.333 0 -131.668 16.0029 -169.001 48.0029s-56 77 -56 135c0 20 3.66699 39.333 11 58s16.833 36.5 28.5 53.5s24.834 33 39.501 48s29.667 28.5 45 40.5c21.333 17.333 40.166 34.666 56.499 51.999s26.166 36.333 29.499 57l3 20h195l-7 -54
c-4.66699 -36 -15 -65.333 -31 -88s-32.667 -42.334 -50 -59.001l-46.5 -46c-13.667 -14 -20.5 -30 -20.5 -48c0 -12.667 5 -22.334 15 -29.001s22.667 -10 38 -10c17.333 0 37.333 1.5 60 4.5s48.334 9.16699 77.001 18.5l38 -154c-52.667 -20 -100.667 -32.833 -144 -38.5
s-80.666 -8.5 -111.999 -8.5zM348.998 312.003c-35.333 0 -60.501 8.00098 -75.501 24.001s-22.5 37.667 -22.5 65c0 31.333 9.83301 56.666 29.5 75.999s50.167 29 91.5 29c36.667 0 61.834 -8.16699 75.501 -24.5s20.5 -36.5 20.5 -60.5
c0 -30.667 -9.33301 -56.5 -28 -77.5s-49 -31.5 -91 -31.5z" />
    <glyph glyph-name="Agrave" unicode="&#xc0;" horiz-adv-x="781" 
d="M488 123h-214l-53 -123h-241l326 693h306l139 -693h-245zM270 859l101 136l192 -183l-70 -85zM431 525l-46 -141l-42 -103h119l-14 116l-9 128h-8z" />
    <glyph glyph-name="Aacute" unicode="&#xc1;" horiz-adv-x="781" 
d="M488 123h-214l-53 -123h-241l326 693h306l139 -693h-245zM438 723l-62 85l206 184l92 -128zM431 525l-46 -141l-42 -103h119l-14 116l-9 128h-8z" />
    <glyph glyph-name="Acircumflex" unicode="&#xc2;" horiz-adv-x="781" 
d="M488 123h-214l-53 -123h-241l326 693h306l139 -693h-245zM640 713l-164 95l-184 -93l-42 60l174 162h138l138 -162zM431 525l-46 -141l-42 -103h119l-14 116l-9 128h-8z" />
    <glyph glyph-name="Atilde" unicode="&#xc3;" horiz-adv-x="781" 
d="M488 123h-214l-53 -123h-241l326 693h306l139 -693h-245zM538 755c-19.333 0 -38.8311 2.00391 -58.498 6.00391s-38.667 8.33301 -57 13l-51.5 13c-16 4 -30 6 -42 6l-57 -39l-54 48c10.667 23.333 21.667 42.666 33 57.999s22.666 27.666 33.999 36.999
s23 15.833 35 19.5s24.333 5.5 37 5.5c17.333 0 35 -1.83301 53 -5.5s35.667 -7.83398 53 -12.501s34.666 -8.83398 51.999 -12.501s34 -5.5 50 -5.5l58 41l52 -48c-18.667 -42.667 -39 -74 -61 -94s-47.333 -30 -76 -30zM431.002 525.004l-46 -141l-42 -103h119l-14 116
l-9 128h-8z" />
    <glyph glyph-name="Adieresis" unicode="&#xc4;" horiz-adv-x="781" 
d="M488 123h-214l-53 -123h-241l326 693h306l139 -693h-245zM347 914c33.333 0 57.333 -7.33398 72 -22.001s22 -34 22 -58c0 -31.333 -9.66699 -56.666 -29 -75.999s-48.333 -29 -87 -29c-34 0 -58 8 -72 24s-21 36 -21 60c0 31.333 10.167 56 30.5 74s48.5 27 84.5 27z
M593 913.999c33.333 0 57.333 -7.33398 72 -22.001s22 -34 22 -58c0 -31.333 -9.66699 -56.666 -29 -75.999s-48.333 -29 -87 -29c-34 0 -58 8 -72 24s-21 36 -21 60c0 31.333 10.167 56 30.5 74s48.5 27 84.5 27zM431 524.998l-46 -141l-42 -103h119l-14 116l-9 128h-8z
" />
    <glyph glyph-name="Aring" unicode="&#xc5;" horiz-adv-x="781" 
d="M488 123l-214 -0.000976562l-53 -123h-241l326 693h63c-15.333 12 -27.333 27.333 -36 46s-13 39 -13 61c0 20.667 3.83301 40.5 11.5 59.5s18.167 35.667 31.5 50s29.333 25.833 48 34.5s38.667 13 60 13c48 0 82.667 -12.5 104 -37.5s32 -55.5 32 -91.5
c0 -30 -6.83301 -56.667 -20.5 -80s-31.167 -41.666 -52.5 -54.999h78l139 -693h-245zM431 524.999l-46 -141l-42 -103h119l-14 116l-9 128h-8zM472 863.999c-13.333 0 -26.168 -5 -38.501 -15s-18.5 -23.333 -18.5 -40c0 -11.333 3.33301 -22.166 10 -32.499
s18.334 -15.5 35.001 -15.5c17.333 0 30.666 6.16699 39.999 18.5s14 26.166 14 41.499c0 11.333 -3.66699 21.333 -11 30s-17.666 13 -30.999 13z" />
    <glyph glyph-name="AE" unicode="&#xc6;" horiz-adv-x="1156" 
d="M545 141h-215l-31.5 -51.5l-23.5 -37.5l-17.5 -28.5l-14.5 -23.5h-263l462 693h663l-13 -168h-277l-6 -88h233l-11 -160h-233l-8 -107h289l-11 -170h-532zM565 523l-33 -58.001c-10.667 -19.333 -21 -36.666 -31 -51.999c-14 -21.333 -26.667 -41.5 -38 -60.5l-34 -54.5
h126l16 225h-6z" />
    <glyph glyph-name="Ccedilla" unicode="&#xc7;" horiz-adv-x="663" 
d="M474 710c22 0 50.1631 -2.32715 84.4961 -6.99414s67.5 -11.667 99.5 -21l-41 -179c-23.333 4 -46.166 7 -68.499 9s-43.166 3 -62.499 3c-24 0 -46.667 -2.66699 -68 -8s-39.833 -15.5 -55.5 -30.5s-28.167 -35.833 -37.5 -62.5s-14 -61 -14 -103
c0 -28.667 3.33301 -51.334 10 -68.001s16.334 -29.334 29.001 -38.001s27.667 -14.167 45 -16.5s37 -3.5 59 -3.5c6.66699 0 16 0.333008 28 1s25 1.66699 39 3s28.333 3 43 5s28 4.33301 40 7l27 -170c-32 -12 -67.5 -21.333 -106.5 -28s-76.5 -11 -112.5 -13l-46 -59
c29.333 -4 51.166 -13.833 65.499 -29.5s21.5 -35.167 21.5 -58.5c0 -16 -4.16699 -31.833 -12.5 -47.5s-21.5 -29.834 -39.5 -42.501s-41.333 -22.834 -70 -30.501s-63.334 -11.834 -104.001 -12.501l3 69c34 2.66699 58.833 9.16699 74.5 19.5s23.5 21.166 23.5 32.499
c0 8.66699 -4.16699 14.334 -12.5 17.001s-17.166 4 -26.499 4c-5.33301 0 -10 -0.166992 -14 -0.5s-7.66699 -0.5 -11 -0.5l-18 37l85 101c-57.333 3.33301 -103.833 13.833 -139.5 31.5s-63.667 40 -84 67s-34.166 57.667 -41.499 92s-11 70.166 -11 107.499
c0 54 6.33301 106.333 19 157s34.834 95.667 66.501 135s74.5 71 128.5 95s122.333 36 205 36z" />
    <glyph glyph-name="Egrave" unicode="&#xc8;" horiz-adv-x="656" 
d="M32 0l85 693h549l-21 -168h-303l-11 -88h254l-19 -160h-254l-14 -107h315l-20 -170h-561zM220 859l101 136l192 -183l-70 -85z" />
    <glyph glyph-name="Eacute" unicode="&#xc9;" horiz-adv-x="656" 
d="M32 0l85 693h549l-21 -168h-303l-11 -88h254l-19 -160h-254l-14 -107h315l-20 -170h-561zM354 726l-62 85l206 184l92 -128z" />
    <glyph glyph-name="Ecircumflex" unicode="&#xca;" horiz-adv-x="656" 
d="M32 0l85 693h549l-21 -168h-303l-11 -88h254l-19 -160h-254l-14 -107h315l-20 -170h-561zM565 733l-164 95l-184 -93l-42 60l174 162h138l138 -162z" />
    <glyph glyph-name="Edieresis" unicode="&#xcb;" horiz-adv-x="656" 
d="M32 0l85 693h549l-21 -168h-303l-11 -88h254l-19 -160h-254l-14 -107h315l-20 -170h-561zM529 913c33.333 0 57.333 -7.33398 72 -22.001s22 -34 22 -58c0 -31.333 -9.66699 -56.666 -29 -75.999s-48.333 -29 -87 -29c-34 0 -58 8 -72 24s-21 36 -21 60
c0 31.333 10.167 56 30.5 74s48.5 27 84.5 27zM283 912.999c33.333 0 57.333 -7.33398 72 -22.001s22 -34 22 -58c0 -31.333 -9.66699 -56.666 -29 -75.999s-48.333 -29 -87 -29c-34 0 -58 8 -72 24s-21 36 -21 60c0 31.333 10.167 56 30.5 74s48.5 27 84.5 27z" />
    <glyph glyph-name="Igrave" unicode="&#xcc;" horiz-adv-x="370" 
d="M38 0l85 693h243l-85 -693h-243zM61 861l101 136l192 -183l-70 -85z" />
    <glyph glyph-name="Iacute" unicode="&#xcd;" horiz-adv-x="370" 
d="M38 0l85 693h243l-85 -693h-243zM224 737l-62 85l206 184l92 -128z" />
    <glyph glyph-name="Icircumflex" unicode="&#xce;" horiz-adv-x="370" 
d="M38 0l85 693h243l-85 -693h-243zM427 737l-164 95l-184 -93l-42 60l174 162h138l138 -162z" />
    <glyph glyph-name="Idieresis" unicode="&#xcf;" horiz-adv-x="370" 
d="M38 0l85 693h243l-85 -693h-243zM393 931c33.333 0 57.333 -7.33398 72 -22.001s22 -34 22 -58c0 -31.333 -9.66699 -56.666 -29 -75.999s-48.333 -29 -87 -29c-34 0 -58 8 -72 24s-21 36 -21 60c0 31.333 10.167 56 30.5 74s48.5 27 84.5 27zM147 930.999
c33.333 0 57.333 -7.33398 72 -22.001s22 -34 22 -58c0 -31.333 -9.66699 -56.666 -29 -75.999s-48.333 -29 -87 -29c-34 0 -58 8 -72 24s-21 36 -21 60c0 31.333 10.167 56 30.5 74s48.5 27 84.5 27z" />
    <glyph glyph-name="Eth" unicode="&#xd0;" horiz-adv-x="742" 
d="M33 0l38 307.998h-51l12 92h50l36 293h299c60 0 109.667 -7.33301 149 -22s70.5 -35 93.5 -61s39.167 -56.5 48.5 -91.5s14 -72.833 14 -113.5c0 -56 -7 -108.667 -21 -158s-36.333 -92.166 -67 -128.499s-70.167 -65.166 -118.5 -86.499s-106.5 -32 -174.5 -32h-308z
M342 524.998l-16.001 -124.998h66l-12 -92h-65l-17 -138h40c24.667 0 45.5 7 62.5 21s30.667 32.167 41 54.5s17.666 47.166 21.999 74.499s6.5 54.666 6.5 81.999c0 18 -1.5 34.5 -4.5 49.5s-8.16699 28 -15.5 39s-17.166 19.5 -29.499 25.5s-28.166 9 -47.499 9h-31z" />
    <glyph glyph-name="Ntilde" unicode="&#xd1;" horiz-adv-x="816" 
d="M538 335l44 358h236l-85 -693h-248l-112 237l-54 127h-6l-44 -364h-236l85 693h248l116 -244l48 -114h8zM561 756c-19.333 0 -38.8311 2.00391 -58.498 6.00391s-38.667 8.33301 -57 13l-51.5 13c-16 4 -30 6 -42 6l-57 -39l-54 48
c10.667 23.333 21.667 42.666 33 57.999s22.666 27.666 33.999 36.999s23 15.833 35 19.5s24.333 5.5 37 5.5c17.333 0 35 -1.83301 53 -5.5s35.667 -7.83398 53 -12.501s34.666 -8.83398 51.999 -12.501s34 -5.5 50 -5.5l58 41l52 -48c-18.667 -42.667 -39 -74 -61 -94
s-47.333 -30 -76 -30z" />
    <glyph glyph-name="Ograve" unicode="&#xd2;" horiz-adv-x="800" 
d="M452 709c56 0 104.5 -7.83496 145.5 -23.502s75 -37.5 102 -65.5s47.167 -61.667 60.5 -101s20 -82.666 20 -129.999c0 -58 -9 -111.667 -27 -161s-44.167 -91.666 -78.5 -126.999s-76.333 -63 -126 -83s-106.167 -30 -169.5 -30c-55.333 0 -103.333 7.66699 -144 23
s-74.334 36.833 -101.001 64.5s-46.667 60.5 -60 98.5s-20 80 -20 126c0 58.667 8.66699 113 26 163s42.833 93.167 76.5 129.5s75.334 64.833 125.001 85.5s106.5 31 170.5 31zM437 533.998c-25.333 0 -46.167 -7.66895 -62.5 -23.002s-29.333 -34.833 -39 -58.5
s-16.334 -50 -20.001 -79s-5.5 -57.5 -5.5 -85.5c0 -37.333 6.33301 -67.833 19 -91.5s35.667 -35.5 69 -35.5c24 0 43.833 7.16699 59.5 21.5s28.334 33.333 38.001 57s16.5 50.334 20.5 80.001s6 59.834 6 90.501c0 38 -6.16699 68.167 -18.5 90.5s-34.5 33.5 -66.5 33.5z
M298.999 855.996l101 136l192 -183l-70 -85z" />
    <glyph glyph-name="Oacute" unicode="&#xd3;" horiz-adv-x="800" 
d="M452 709c56 0 104.5 -7.83496 145.5 -23.502s75 -37.5 102 -65.5s47.167 -61.667 60.5 -101s20 -82.666 20 -129.999c0 -58 -9 -111.667 -27 -161s-44.167 -91.666 -78.5 -126.999s-76.333 -63 -126 -83s-106.167 -30 -169.5 -30c-55.333 0 -103.333 7.66699 -144 23
s-74.334 36.833 -101.001 64.5s-46.667 60.5 -60 98.5s-20 80 -20 126c0 58.667 8.66699 113 26 163s42.833 93.167 76.5 129.5s75.334 64.833 125.001 85.5s106.5 31 170.5 31zM437 533.998c-25.333 0 -46.167 -7.66895 -62.5 -23.002s-29.333 -34.833 -39 -58.5
s-16.334 -50 -20.001 -79s-5.5 -57.5 -5.5 -85.5c0 -37.333 6.33301 -67.833 19 -91.5s35.667 -35.5 69 -35.5c24 0 43.833 7.16699 59.5 21.5s28.334 33.333 38.001 57s16.5 50.334 20.5 80.001s6 59.834 6 90.501c0 38 -6.16699 68.167 -18.5 90.5s-34.5 33.5 -66.5 33.5z
M455.999 726.996l-62 85l206 184l92 -128z" />
    <glyph glyph-name="Ocircumflex" unicode="&#xd4;" horiz-adv-x="800" 
d="M452 709c56 0 104.5 -7.83496 145.5 -23.502s75 -37.5 102 -65.5s47.167 -61.667 60.5 -101s20 -82.666 20 -129.999c0 -58 -9 -111.667 -27 -161s-44.167 -91.666 -78.5 -126.999s-76.333 -63 -126 -83s-106.167 -30 -169.5 -30c-55.333 0 -103.333 7.66699 -144 23
s-74.334 36.833 -101.001 64.5s-46.667 60.5 -60 98.5s-20 80 -20 126c0 58.667 8.66699 113 26 163s42.833 93.167 76.5 129.5s75.334 64.833 125.001 85.5s106.5 31 170.5 31zM437 533.998c-25.333 0 -46.167 -7.66895 -62.5 -23.002s-29.333 -34.833 -39 -58.5
s-16.334 -50 -20.001 -79s-5.5 -57.5 -5.5 -85.5c0 -37.333 6.33301 -67.833 19 -91.5s35.667 -35.5 69 -35.5c24 0 43.833 7.16699 59.5 21.5s28.334 33.333 38.001 57s16.5 50.334 20.5 80.001s6 59.834 6 90.501c0 38 -6.16699 68.167 -18.5 90.5s-34.5 33.5 -66.5 33.5z
M645.999 732.996l-164 95l-184 -93l-42 60l174 162h138l138 -162z" />
    <glyph glyph-name="Otilde" unicode="&#xd5;" horiz-adv-x="800" 
d="M452 709c56 0 104.5 -7.83496 145.5 -23.502s75 -37.5 102 -65.5s47.167 -61.667 60.5 -101s20 -82.666 20 -129.999c0 -58 -9 -111.667 -27 -161s-44.167 -91.666 -78.5 -126.999s-76.333 -63 -126 -83s-106.167 -30 -169.5 -30c-55.333 0 -103.333 7.66699 -144 23
s-74.334 36.833 -101.001 64.5s-46.667 60.5 -60 98.5s-20 80 -20 126c0 58.667 8.66699 113 26 163s42.833 93.167 76.5 129.5s75.334 64.833 125.001 85.5s106.5 31 170.5 31zM437 533.998c-25.333 0 -46.167 -7.66895 -62.5 -23.002s-29.333 -34.833 -39 -58.5
s-16.334 -50 -20.001 -79s-5.5 -57.5 -5.5 -85.5c0 -37.333 6.33301 -67.833 19 -91.5s35.667 -35.5 69 -35.5c24 0 43.833 7.16699 59.5 21.5s28.334 33.333 38.001 57s16.5 50.334 20.5 80.001s6 59.834 6 90.501c0 38 -6.16699 68.167 -18.5 90.5s-34.5 33.5 -66.5 33.5z
M549.999 769.996c-19.333 0 -38.8311 2.00391 -58.498 6.00391s-38.667 8.33301 -57 13l-51.5 13c-16 4 -30 6 -42 6l-57 -39l-54 48c10.667 23.333 21.667 42.666 33 57.999s22.666 27.666 33.999 36.999s23 15.833 35 19.5s24.333 5.5 37 5.5
c17.333 0 35 -1.83301 53 -5.5s35.667 -7.83398 53 -12.501s34.666 -8.83398 51.999 -12.501s34 -5.5 50 -5.5l58 41l52 -48c-18.667 -42.667 -39 -74 -61 -94s-47.333 -30 -76 -30z" />
    <glyph glyph-name="Odieresis" unicode="&#xd6;" horiz-adv-x="800" 
d="M452 709c56 0 104.5 -7.83496 145.5 -23.502s75 -37.5 102 -65.5s47.167 -61.667 60.5 -101s20 -82.666 20 -129.999c0 -58 -9 -111.667 -27 -161s-44.167 -91.666 -78.5 -126.999s-76.333 -63 -126 -83s-106.167 -30 -169.5 -30c-55.333 0 -103.333 7.66699 -144 23
s-74.334 36.833 -101.001 64.5s-46.667 60.5 -60 98.5s-20 80 -20 126c0 58.667 8.66699 113 26 163s42.833 93.167 76.5 129.5s75.334 64.833 125.001 85.5s106.5 31 170.5 31zM437 533.998c-25.333 0 -46.167 -7.66895 -62.5 -23.002s-29.333 -34.833 -39 -58.5
s-16.334 -50 -20.001 -79s-5.5 -57.5 -5.5 -85.5c0 -37.333 6.33301 -67.833 19 -91.5s35.667 -35.5 69 -35.5c24 0 43.833 7.16699 59.5 21.5s28.334 33.333 38.001 57s16.5 50.334 20.5 80.001s6 59.834 6 90.501c0 38 -6.16699 68.167 -18.5 90.5s-34.5 33.5 -66.5 33.5z
M597.999 935.996c33.333 0 57.333 -7.33398 72 -22.001s22 -34 22 -58c0 -31.333 -9.66699 -56.666 -29 -75.999s-48.333 -29 -87 -29c-34 0 -58 8 -72 24s-21 36 -21 60c0 31.333 10.167 56 30.5 74s48.5 27 84.5 27zM351.999 935.995c33.333 0 57.333 -7.33398 72 -22.001
s22 -34 22 -58c0 -31.333 -9.66699 -56.666 -29 -75.999s-48.333 -29 -87 -29c-34 0 -58 8 -72 24s-21 36 -21 60c0 31.333 10.167 56 30.5 74s48.5 27 84.5 27z" />
    <glyph glyph-name="multiply" unicode="&#xd7;" horiz-adv-x="642" 
d="M332 219l-136 -123l-76 89l135 124l-104 124l95 87l105 -124l133 122l76 -90l-133 -122l104 -123l-95 -87z" />
    <glyph glyph-name="Oslash" unicode="&#xd8;" horiz-adv-x="800" 
d="M452 709c48 0 90.166 -5.66797 126.499 -17.001s67.833 -27.333 94.5 -48l66 65h92l-113 -111c21.333 -27.333 37 -58.5 47 -93.5s15 -73.5 15 -115.5c0 -58 -9 -111.667 -27 -161s-44.167 -91.666 -78.5 -126.999s-76.333 -63 -126 -83s-106.167 -30 -169.5 -30
c-46.667 0 -88.167 5.5 -124.5 16.5s-67.833 26.5 -94.5 46.5l-62 -61h-80l101 101c-22 27.333 -38.333 58.5 -49 93.5s-16 73.5 -16 115.5c0 58.667 8.66699 113 26 163s42.833 93.167 76.5 129.5s75.334 64.833 125.001 85.5s106.5 31 170.5 31zM436.999 533.999
c-25.333 0 -46.166 -7.66699 -62.499 -23s-29.333 -34.833 -39 -58.5s-16.334 -50 -20.001 -79s-5.5 -57.5 -5.5 -85.5v-7l202 201c-6 16.667 -15 29.5 -27 38.5s-28 13.5 -48 13.5zM397.999 160.999c23.333 0 43.001 7.16699 59.001 21.5s28.667 33 38 56
s16.166 49.167 20.499 78.5s6.5 59 6.5 89l-200 -196c6 -15.333 15.167 -27.333 27.5 -36s28.5 -13 48.5 -13z" />
    <glyph glyph-name="Ugrave" unicode="&#xd9;" horiz-adv-x="758" 
d="M707 279c-6 -47.333 -16.6689 -89.1689 -32.002 -125.502s-36.833 -66.666 -64.5 -90.999s-61.667 -42.666 -102 -54.999s-88.5 -18.5 -144.5 -18.5c-59.333 0 -109.166 6.33301 -149.499 19s-72.5 31.167 -96.5 55.5s-40.167 54.333 -48.5 90s-9.5 76.5 -3.5 122.5
l52 417h240l-55 -441c-7.33301 -60.667 17.334 -91 74.001 -91c20 0 39.167 6.83301 57.5 20.5s29.5 37.167 33.5 70.5l54 441h237zM256.998 876.997l101 136l192 -183l-70 -85z" />
    <glyph glyph-name="Uacute" unicode="&#xda;" horiz-adv-x="758" 
d="M707 279c-6 -47.333 -16.6689 -89.1689 -32.002 -125.502s-36.833 -66.666 -64.5 -90.999s-61.667 -42.666 -102 -54.999s-88.5 -18.5 -144.5 -18.5c-59.333 0 -109.166 6.33301 -149.499 19s-72.5 31.167 -96.5 55.5s-40.167 54.333 -48.5 90s-9.5 76.5 -3.5 122.5
l52 417h240l-55 -441c-7.33301 -60.667 17.334 -91 74.001 -91c20 0 39.167 6.83301 57.5 20.5s29.5 37.167 33.5 70.5l54 441h237zM431.998 746.997l-62 85l206 184l92 -128z" />
    <glyph glyph-name="Ucircumflex" unicode="&#xdb;" horiz-adv-x="758" 
d="M707 279c-6 -47.333 -16.6689 -89.1689 -32.002 -125.502s-36.833 -66.666 -64.5 -90.999s-61.667 -42.666 -102 -54.999s-88.5 -18.5 -144.5 -18.5c-59.333 0 -109.166 6.33301 -149.499 19s-72.5 31.167 -96.5 55.5s-40.167 54.333 -48.5 90s-9.5 76.5 -3.5 122.5
l52 417h240l-55 -441c-7.33301 -60.667 17.334 -91 74.001 -91c20 0 39.167 6.83301 57.5 20.5s29.5 37.167 33.5 70.5l54 441h237zM623.998 746.997l-170 93l-191 -91l-44 59l181 159h143l144 -159z" />
    <glyph glyph-name="Udieresis" unicode="&#xdc;" horiz-adv-x="758" 
d="M707 279c-6 -47.333 -16.6689 -89.1689 -32.002 -125.502s-36.833 -66.666 -64.5 -90.999s-61.667 -42.666 -102 -54.999s-88.5 -18.5 -144.5 -18.5c-59.333 0 -109.166 6.33301 -149.499 19s-72.5 31.167 -96.5 55.5s-40.167 54.333 -48.5 90s-9.5 76.5 -3.5 122.5
l52 417h240l-55 -441c-7.33301 -60.667 17.334 -91 74.001 -91c20 0 39.167 6.83301 57.5 20.5s29.5 37.167 33.5 70.5l54 441h237zM577.998 920.997c33.333 0 57.333 -7.33398 72 -22.001s22 -34 22 -58c0 -31.333 -9.66699 -56.666 -29 -75.999s-48.333 -29 -87 -29
c-34 0 -58 8 -72 24s-21 36 -21 60c0 31.333 10.167 56 30.5 74s48.5 27 84.5 27zM331.998 920.996c33.333 0 57.333 -7.33398 72 -22.001s22 -34 22 -58c0 -31.333 -9.66699 -56.666 -29 -75.999s-48.333 -29 -87 -29c-34 0 -58 8 -72 24s-21 36 -21 60
c0 31.333 10.167 56 30.5 74s48.5 27 84.5 27z" />
    <glyph glyph-name="Yacute" unicode="&#xdd;" horiz-adv-x="751" 
d="M399 387c4.66699 9.33301 9.66699 20.167 15 32.5l16.5 38l16 37.5c5 12 10.167 22.667 15.5 32l89 166h255l-294 -466l-27 -227h-264l26 213l-91.5 240l-90.5 240h249l49 -172l26 -134h10zM419 728.001l-62 85l206 184l92 -128z" />
    <glyph glyph-name="Thorn" unicode="&#xde;" horiz-adv-x="644" 
d="M415 573c45.333 0 83.335 -5.16797 114.002 -15.501s55.167 -24.666 73.5 -42.999s31.333 -40 39 -65s11.5 -51.833 11.5 -80.5c0 -36.667 -6.33301 -70.5 -19 -101.5s-30.834 -57.667 -54.501 -80s-52.834 -39.833 -87.501 -52.5s-74 -19 -118 -19h-83l-14 -116h-245
l84 692h245l-14 -119h68zM326.002 404.999l-15 -126.999h30c20 0 35.833 6.83301 47.5 20.5s17.5 32.167 17.5 55.5c0 19.333 -5.16699 32.666 -15.5 39.999s-23.833 11 -40.5 11h-24z" />
    <glyph glyph-name="germandbls" unicode="&#xdf;" horiz-adv-x="752" 
d="M303 101c-5.33301 -56.667 -12.6611 -105.341 -21.9941 -146.008s-23.666 -74 -42.999 -100s-45 -45.167 -77 -57.5s-73.333 -18.5 -124 -18.5c-21.333 0 -45.333 1.66699 -72 5s-55 10.333 -85 21l33 152c14.667 -2 25.167 -3.33301 31.5 -4s14.166 -1 23.499 -1
c18.667 0 34.334 2.33301 47.001 7s23.167 12.834 31.5 24.501s15 27.334 20 47.001s9.5 44.5 13.5 74.5c0.666992 8 1.66699 17.333 3 28s3 25.334 5 44.001l7.5 72.5l11.5 112.5h-58l15 123h58l8 46c3.33301 20.667 9.66602 43.834 18.999 69.501s24.5 49.834 45.5 72.501
s49.333 41.834 85 57.501s82.167 23.5 139.5 23.5c51.333 0 93.166 -5.66699 125.499 -17s57.666 -25.5 75.999 -42.5s30.833 -35 37.5 -54s10 -35.833 10 -50.5c0 -27.333 -5.5 -50.666 -16.5 -69.999s-23.167 -35.5 -36.5 -48.5s-25.666 -23.667 -36.999 -32
s-17.333 -15.5 -18 -21.5c0 -6 4.16699 -12.5 12.5 -19.5s19 -15.333 32 -25s26.833 -20.5 41.5 -32.5s28.5 -25.833 41.5 -41.5s23.667 -33.5 32 -53.5s12.5 -42.333 12.5 -67c0 -34.667 -6.66699 -64.834 -20 -90.501s-31.833 -46.834 -55.5 -63.501s-51.667 -29 -84 -37
s-67.166 -12 -104.499 -12c-15.333 0 -34 1.16699 -56 3.5s-47.667 7.83301 -77 16.5l43 149c11.333 -2 23.166 -3.66699 35.499 -5s23.833 -2 34.5 -2c11.333 0 21.166 1.83301 29.499 5.5s12.5 10.5 12.5 20.5c0 10.667 -3.33301 21.167 -10 31.5s-14.834 21 -24.501 32
s-20.334 22.5 -32.001 34.5s-22.334 24.833 -32.001 38.5s-17.834 28.334 -24.501 44.001s-10 32.834 -10 51.501c0 27.333 5 49.5 15 66.5s21 31.333 33 43s23 21.834 33 30.501s15 18 15 28c0 9.33301 -4 16.333 -12 21s-17.667 7 -29 7c-10 0 -18.833 -2.5 -26.5 -7.5
s-14 -11.5 -19 -19.5s-8.83301 -17 -11.5 -27s-4.66699 -20 -6 -30z" />
    <glyph glyph-name="agrave" unicode="&#xe0;" horiz-adv-x="681" 
d="M329 348c-4 0 -9.83203 -0.998047 -17.499 -2.99805s-15.334 -6.83301 -23.001 -14.5s-14.5 -19.334 -20.5 -35.001s-9 -37.167 -9 -64.5c0 -24.667 4.5 -41.667 13.5 -51s20.167 -14 33.5 -14c9.33301 0 19 1.66699 29 5s19.333 7.33301 28 12l9.5 76.5
c3 24.333 6.5 49.833 10.5 76.5c-11.333 5.33301 -21.833 8.66602 -31.5 9.99902s-17.167 2 -22.5 2zM636.001 510.002l-26.502 -176.5c-8.33301 -57 -15.833 -115.833 -22.5 -176.5h53l8 -127c-25.333 -13.333 -53.666 -23.5 -84.999 -30.5s-63.666 -10.5 -96.999 -10.5
c-14 0 -26.833 1.16699 -38.5 3.5s-22 6.5 -31 12.5s-16.333 14.333 -22 25s-8.83398 24.667 -9.50098 42l-4 2c-17.333 -20 -35 -35.5 -53 -46.5s-34.833 -19.333 -50.5 -25s-29.5 -9.16699 -41.5 -10.5s-21 -2 -27 -2c-34 0 -61.667 5.5 -83 16.5s-38 25.5 -50 43.5
s-20.167 38.333 -24.5 61s-6.5 45.667 -6.5 69c0 45.333 5.66699 88.166 17 128.499s28.333 75.5 51 105.5s51.334 53.833 86.001 71.5s75.667 26.5 123 26.5c11.333 0 27.833 -1.66699 49.5 -5s44.167 -11.666 67.5 -24.999l14 35zM188.999 677.002l101 136l201 -191
l-70 -85z" />
    <glyph glyph-name="aacute" unicode="&#xe1;" horiz-adv-x="681" 
d="M329 348c-4 0 -9.83203 -0.998047 -17.499 -2.99805s-15.334 -6.83301 -23.001 -14.5s-14.5 -19.334 -20.5 -35.001s-9 -37.167 -9 -64.5c0 -24.667 4.5 -41.667 13.5 -51s20.167 -14 33.5 -14c9.33301 0 19 1.66699 29 5s19.333 7.33301 28 12l9.5 76.5
c3 24.333 6.5 49.833 10.5 76.5c-11.333 5.33301 -21.833 8.66602 -31.5 9.99902s-17.167 2 -22.5 2zM636.001 510.002l-26.502 -176.5c-8.33301 -57 -15.833 -115.833 -22.5 -176.5h53l8 -127c-25.333 -13.333 -53.666 -23.5 -84.999 -30.5s-63.666 -10.5 -96.999 -10.5
c-14 0 -26.833 1.16699 -38.5 3.5s-22 6.5 -31 12.5s-16.333 14.333 -22 25s-8.83398 24.667 -9.50098 42l-4 2c-17.333 -20 -35 -35.5 -53 -46.5s-34.833 -19.333 -50.5 -25s-29.5 -9.16699 -41.5 -10.5s-21 -2 -27 -2c-34 0 -61.667 5.5 -83 16.5s-38 25.5 -50 43.5
s-20.167 38.333 -24.5 61s-6.5 45.667 -6.5 69c0 45.333 5.66699 88.166 17 128.499s28.333 75.5 51 105.5s51.334 53.833 86.001 71.5s75.667 26.5 123 26.5c11.333 0 27.833 -1.66699 49.5 -5s44.167 -11.666 67.5 -24.999l14 35zM324.999 537.002l-65 86l211 187l86 -133
z" />
    <glyph glyph-name="acircumflex" unicode="&#xe2;" horiz-adv-x="681" 
d="M329 348c-4 0 -9.83203 -0.998047 -17.499 -2.99805s-15.334 -6.83301 -23.001 -14.5s-14.5 -19.334 -20.5 -35.001s-9 -37.167 -9 -64.5c0 -24.667 4.5 -41.667 13.5 -51s20.167 -14 33.5 -14c9.33301 0 19 1.66699 29 5s19.333 7.33301 28 12l9.5 76.5
c3 24.333 6.5 49.833 10.5 76.5c-11.333 5.33301 -21.833 8.66602 -31.5 9.99902s-17.167 2 -22.5 2zM636.001 510.002l-26.502 -176.5c-8.33301 -57 -15.833 -115.833 -22.5 -176.5h53l8 -127c-25.333 -13.333 -53.666 -23.5 -84.999 -30.5s-63.666 -10.5 -96.999 -10.5
c-14 0 -26.833 1.16699 -38.5 3.5s-22 6.5 -31 12.5s-16.333 14.333 -22 25s-8.83398 24.667 -9.50098 42l-4 2c-17.333 -20 -35 -35.5 -53 -46.5s-34.833 -19.333 -50.5 -25s-29.5 -9.16699 -41.5 -10.5s-21 -2 -27 -2c-34 0 -61.667 5.5 -83 16.5s-38 25.5 -50 43.5
s-20.167 38.333 -24.5 61s-6.5 45.667 -6.5 69c0 45.333 5.66699 88.166 17 128.499s28.333 75.5 51 105.5s51.334 53.833 86.001 71.5s75.667 26.5 123 26.5c11.333 0 27.833 -1.66699 49.5 -5s44.167 -11.666 67.5 -24.999l14 35zM565.999 526.002l-164 98l-187 -96
l-46 60l175 172h138l137 -172z" />
    <glyph glyph-name="atilde" unicode="&#xe3;" horiz-adv-x="681" 
d="M329 348c-4 0 -9.83203 -0.998047 -17.499 -2.99805s-15.334 -6.83301 -23.001 -14.5s-14.5 -19.334 -20.5 -35.001s-9 -37.167 -9 -64.5c0 -24.667 4.5 -41.667 13.5 -51s20.167 -14 33.5 -14c9.33301 0 19 1.66699 29 5s19.333 7.33301 28 12l9.5 76.5
c3 24.333 6.5 49.833 10.5 76.5c-11.333 5.33301 -21.833 8.66602 -31.5 9.99902s-17.167 2 -22.5 2zM636.001 510.002l-26.502 -176.5c-8.33301 -57 -15.833 -115.833 -22.5 -176.5h53l8 -127c-25.333 -13.333 -53.666 -23.5 -84.999 -30.5s-63.666 -10.5 -96.999 -10.5
c-14 0 -26.833 1.16699 -38.5 3.5s-22 6.5 -31 12.5s-16.333 14.333 -22 25s-8.83398 24.667 -9.50098 42l-4 2c-17.333 -20 -35 -35.5 -53 -46.5s-34.833 -19.333 -50.5 -25s-29.5 -9.16699 -41.5 -10.5s-21 -2 -27 -2c-34 0 -61.667 5.5 -83 16.5s-38 25.5 -50 43.5
s-20.167 38.333 -24.5 61s-6.5 45.667 -6.5 69c0 45.333 5.66699 88.166 17 128.499s28.333 75.5 51 105.5s51.334 53.833 86.001 71.5s75.667 26.5 123 26.5c11.333 0 27.833 -1.66699 49.5 -5s44.167 -11.666 67.5 -24.999l14 35zM490.999 562.002
c-19.333 0 -38.8311 2.00391 -58.498 6.00391s-38.667 8.33301 -57 13l-51.5 13c-16 4 -30 6 -42 6l-57 -39l-54 48c10.667 23.333 21.667 42.666 33 57.999s22.666 27.666 33.999 36.999s23 15.833 35 19.5s24.333 5.5 37 5.5c17.333 0 35 -1.83301 53 -5.5
s35.667 -7.83398 53 -12.501s34.666 -8.83398 51.999 -12.501s34 -5.5 50 -5.5l58 41l52 -48c-18.667 -42.667 -39 -74 -61 -94s-47.333 -30 -76 -30z" />
    <glyph glyph-name="adieresis" unicode="&#xe4;" horiz-adv-x="681" 
d="M329 348c-4 0 -9.83203 -0.998047 -17.499 -2.99805s-15.334 -6.83301 -23.001 -14.5s-14.5 -19.334 -20.5 -35.001s-9 -37.167 -9 -64.5c0 -24.667 4.5 -41.667 13.5 -51s20.167 -14 33.5 -14c9.33301 0 19 1.66699 29 5s19.333 7.33301 28 12l9.5 76.5
c3 24.333 6.5 49.833 10.5 76.5c-11.333 5.33301 -21.833 8.66602 -31.5 9.99902s-17.167 2 -22.5 2zM636.001 510.002l-26.502 -176.5c-8.33301 -57 -15.833 -115.833 -22.5 -176.5h53l8 -127c-25.333 -13.333 -53.666 -23.5 -84.999 -30.5s-63.666 -10.5 -96.999 -10.5
c-14 0 -26.833 1.16699 -38.5 3.5s-22 6.5 -31 12.5s-16.333 14.333 -22 25s-8.83398 24.667 -9.50098 42l-4 2c-17.333 -20 -35 -35.5 -53 -46.5s-34.833 -19.333 -50.5 -25s-29.5 -9.16699 -41.5 -10.5s-21 -2 -27 -2c-34 0 -61.667 5.5 -83 16.5s-38 25.5 -50 43.5
s-20.167 38.333 -24.5 61s-6.5 45.667 -6.5 69c0 45.333 5.66699 88.166 17 128.499s28.333 75.5 51 105.5s51.334 53.833 86.001 71.5s75.667 26.5 123 26.5c11.333 0 27.833 -1.66699 49.5 -5s44.167 -11.666 67.5 -24.999l14 35zM528.999 749.002
c33.333 0 57.333 -7.33398 72 -22.001s22 -34 22 -58c0 -31.333 -9.66699 -56.666 -29 -75.999s-48.333 -29 -87 -29c-34 0 -58 8 -72 24s-21 36 -21 60c0 31.333 10.167 56 30.5 74s48.5 27 84.5 27zM282.999 749.001c33.333 0 57.333 -7.33398 72 -22.001s22 -34 22 -58
c0 -31.333 -9.66699 -56.666 -29 -75.999s-48.333 -29 -87 -29c-34 0 -58 8 -72 24s-21 36 -21 60c0 31.333 10.167 56 30.5 74s48.5 27 84.5 27z" />
    <glyph glyph-name="aring" unicode="&#xe5;" horiz-adv-x="681" 
d="M329 348c-4 0 -9.83203 -0.998047 -17.499 -2.99805s-15.334 -6.83301 -23.001 -14.5s-14.5 -19.334 -20.5 -35.001s-9 -37.167 -9 -64.5c0 -24.667 4.5 -41.667 13.5 -51s20.167 -14 33.5 -14c9.33301 0 19 1.66699 29 5s19.333 7.33301 28 12l9.5 76.5
c3 24.333 6.5 49.833 10.5 76.5c-11.333 5.33301 -21.833 8.66602 -31.5 9.99902s-17.167 2 -22.5 2zM636.001 510.002l-26.502 -176.5c-8.33301 -57 -15.833 -115.833 -22.5 -176.5h53l8 -127c-25.333 -13.333 -53.666 -23.5 -84.999 -30.5s-63.666 -10.5 -96.999 -10.5
c-14 0 -26.833 1.16699 -38.5 3.5s-22 6.5 -31 12.5s-16.333 14.333 -22 25s-8.83398 24.667 -9.50098 42l-4 2c-17.333 -20 -35 -35.5 -53 -46.5s-34.833 -19.333 -50.5 -25s-29.5 -9.16699 -41.5 -10.5s-21 -2 -27 -2c-34 0 -61.667 5.5 -83 16.5s-38 25.5 -50 43.5
s-20.167 38.333 -24.5 61s-6.5 45.667 -6.5 69c0 45.333 5.66699 88.166 17 128.499s28.333 75.5 51 105.5s51.334 53.833 86.001 71.5s75.667 26.5 123 26.5c11.333 0 27.833 -1.66699 49.5 -5s44.167 -11.666 67.5 -24.999l14 35zM398.999 543.002
c-19.333 0 -36.999 3.5 -52.999 10.5s-29.5 16.5 -40.5 28.5s-19.5 26 -25.5 42s-9 33 -9 51c0 20.667 3.83301 40.5 11.5 59.5s18.167 35.667 31.5 50s29.333 25.833 48 34.5s38.667 13 60 13c48 0 82.667 -12.5 104 -37.5s32 -55.5 32 -91.5
c0 -24 -4.33301 -45.833 -13 -65.5s-20.334 -36.5 -35.001 -50.5s-31.667 -24.833 -51 -32.5s-39.333 -11.5 -60 -11.5zM423 739.002c-13.333 0 -26.168 -5 -38.501 -15s-18.5 -23.333 -18.5 -40c0 -11.333 3.33301 -22.166 10 -32.499s18.334 -15.5 35.001 -15.5
c17.333 0 30.666 6.16699 39.999 18.5s14 26.166 14 41.499c0 11.333 -3.66699 21.333 -11 30s-17.666 13 -30.999 13z" />
    <glyph glyph-name="ae" unicode="&#xe6;" horiz-adv-x="900" 
d="M668 513c31.333 0 60.0029 -2.83789 86.0029 -8.50488s48.333 -14.667 67 -27s33.167 -28.666 43.5 -48.999s15.5 -45.5 15.5 -75.5c0 -15.333 -3.66699 -32 -11 -50s-21.833 -35.167 -43.5 -51.5s-52.167 -30.666 -91.5 -42.999s-90.666 -20.5 -153.999 -24.5v-8
c0 -11.333 3.83301 -19 11.5 -23s23.167 -6 46.5 -6c10 0 21.833 0.833008 35.5 2.5s28.167 3.83398 43.5 6.50098s30.5 5.66699 45.5 9s28.5 7 40.5 11l40 -132c-20 -10.667 -42.167 -19.667 -66.5 -27s-48.5 -13.166 -72.5 -17.499s-46.167 -7.33301 -66.5 -9
s-36.5 -2.5 -48.5 -2.5c-48.667 0 -88.667 5.5 -120 16.5s-56 26.167 -74 45.5c-21.333 -13.333 -43 -24.666 -65 -33.999s-43.667 -17 -65 -23s-42.166 -10.333 -62.499 -13s-39.166 -4 -56.499 -4c-28 0 -50.833 4 -68.5 12s-31.5 18.167 -41.5 30.5s-16.833 26 -20.5 41
s-5.5 29.833 -5.5 44.5c0 25.333 4.66699 49 14 71s26.5 40.833 51.5 56.5s59.167 27.667 102.5 36s99 12.166 167 11.499c2.66699 8 4 16 4 24c0 15.333 -5.33301 25.833 -16 31.5s-25.334 8.5 -44.001 8.5c-33.333 0 -63.5 -1.66699 -90.5 -5
s-51.5 -7.66602 -73.5 -12.999l-26 142c32 13.333 70.167 23.833 114.5 31.5s91.166 11.5 140.499 11.5c9.33301 0 19.666 -0.833008 30.999 -2.5s22.666 -4.16699 33.999 -7.5s22.166 -7.5 32.499 -12.5s19.5 -11.167 27.5 -18.5c24 13.333 51.667 24 83 32
s66.666 12 105.999 12zM342.003 191.995c-23.333 1.33301 -42.667 -1 -58 -7s-23 -16 -23 -30c0 -8 1.16699 -14.333 3.5 -19s5.5 -8.16699 9.5 -10.5s8.33301 -3.66602 13 -3.99902s9 -0.5 13 -0.5c5.33301 0 13.5 1.83301 24.5 5.5s18.833 8.16699 23.5 13.5
c-1.33301 10.667 -2.5 19.167 -3.5 25.5s-1.83301 15.166 -2.5 26.499zM578.002 273.995c32.667 0 55.167 5 67.5 15s18.5 22.667 18.5 38c0 4.66699 -2 10.667 -6 18s-11.667 11 -23 11c-13.333 0 -25.333 -6 -36 -18s-17.667 -33.333 -21 -64z" />
    <glyph glyph-name="ccedilla" unicode="&#xe7;" horiz-adv-x="527" 
d="M324 510c13.333 0 28.1709 -0.830078 44.5039 -2.49707s33.166 -4.5 50.499 -8.5s34.5 -9.5 51.5 -16.5s32.5 -15.833 46.5 -26.5l-54 -140c-18 5.33301 -36 9.83301 -54 13.5s-35.333 5.5 -52 5.5c-13.333 0 -25.833 -1.83301 -37.5 -5.5
s-21.834 -9.83398 -30.501 -18.501s-15.334 -20.334 -20.001 -35.001s-7 -33 -7 -55c0 -23.333 7 -39 21 -47s31.667 -12 53 -12c17.333 0 35.5 1.83301 54.5 5.5s37.167 7.5 54.5 11.5l40 -138c-30.667 -17.333 -65 -30.166 -103 -38.499s-73 -13.166 -105 -14.499l-31 -40
c29.333 -4 51.166 -13.833 65.499 -29.5s21.5 -35.167 21.5 -58.5c0 -16 -4.16699 -31.833 -12.5 -47.5s-21.5 -29.834 -39.5 -42.501s-41.333 -22.834 -70 -30.501s-63.334 -11.834 -104.001 -12.501l3 69c34 2.66699 58.833 9.16699 74.5 19.5s23.5 21.166 23.5 32.499
c0 8.66699 -4.16699 14.334 -12.5 17.001s-17.166 4 -26.499 4c-5.33301 0 -10 -0.166992 -14 -0.5s-7.66699 -0.5 -11 -0.5l-18 37l73 87c-58.667 9.33301 -101.5 32 -128.5 68s-40.5 79.333 -40.5 130c0 36 4.16699 72.833 12.5 110.5s23.5 72 45.5 103s52 56.5 90 76.5
s86.667 30 146 30z" />
    <glyph glyph-name="egrave" unicode="&#xe8;" horiz-adv-x="588" 
d="M356 513c31.333 0 59.999 -2.83691 85.999 -8.50391s48.333 -14.667 67 -27s33.167 -28.666 43.5 -48.999s15.5 -45.5 15.5 -75.5c0 -15.333 -3.66699 -32 -11 -50s-21.833 -35.167 -43.5 -51.5s-52.167 -30.666 -91.5 -42.999s-90.666 -20.5 -153.999 -24.5v-8
c0 -11.333 3.83301 -19 11.5 -23s23.167 -6 46.5 -6c10 0 21.833 0.833008 35.5 2.5s28.167 3.83398 43.5 6.50098s30.5 5.66699 45.5 9s28.5 7 40.5 11l40 -132c-20 -10.667 -42.167 -19.667 -66.5 -27s-48.5 -13.166 -72.5 -17.499s-46.167 -7.33301 -66.5 -9
s-36.5 -2.5 -48.5 -2.5c-52 0 -94 6.33301 -126 19s-57 29.5 -75 50.5s-30.167 44.667 -36.5 71s-9.5 53.5 -9.5 81.5c0 39.333 6 77.333 18 114s31 69 57 97s59.667 50.333 101 67s91.333 25 150 25zM163.999 676.996l101 136l201 -191l-70 -85zM265.999 273.996
c57.333 4 86 21.667 86 53c0 4.66699 -2 10.667 -6 18s-11.667 11 -23 11c-13.333 0 -25.333 -6 -36 -18s-17.667 -33.333 -21 -64z" />
    <glyph glyph-name="eacute" unicode="&#xe9;" horiz-adv-x="588" 
d="M356 513c31.333 0 59.999 -2.83691 85.999 -8.50391s48.333 -14.667 67 -27s33.167 -28.666 43.5 -48.999s15.5 -45.5 15.5 -75.5c0 -15.333 -3.66699 -32 -11 -50s-21.833 -35.167 -43.5 -51.5s-52.167 -30.666 -91.5 -42.999s-90.666 -20.5 -153.999 -24.5v-8
c0 -11.333 3.83301 -19 11.5 -23s23.167 -6 46.5 -6c10 0 21.833 0.833008 35.5 2.5s28.167 3.83398 43.5 6.50098s30.5 5.66699 45.5 9s28.5 7 40.5 11l40 -132c-20 -10.667 -42.167 -19.667 -66.5 -27s-48.5 -13.166 -72.5 -17.499s-46.167 -7.33301 -66.5 -9
s-36.5 -2.5 -48.5 -2.5c-52 0 -94 6.33301 -126 19s-57 29.5 -75 50.5s-30.167 44.667 -36.5 71s-9.5 53.5 -9.5 81.5c0 39.333 6 77.333 18 114s31 69 57 97s59.667 50.333 101 67s91.333 25 150 25zM292.999 536.996l-65 86l211 187l86 -133zM265.999 273.996
c57.333 4 86 21.667 86 53c0 4.66699 -2 10.667 -6 18s-11.667 11 -23 11c-13.333 0 -25.333 -6 -36 -18s-17.667 -33.333 -21 -64z" />
    <glyph glyph-name="ecircumflex" unicode="&#xea;" horiz-adv-x="588" 
d="M356 513c31.333 0 59.999 -2.83691 85.999 -8.50391s48.333 -14.667 67 -27s33.167 -28.666 43.5 -48.999s15.5 -45.5 15.5 -75.5c0 -15.333 -3.66699 -32 -11 -50s-21.833 -35.167 -43.5 -51.5s-52.167 -30.666 -91.5 -42.999s-90.666 -20.5 -153.999 -24.5v-8
c0 -11.333 3.83301 -19 11.5 -23s23.167 -6 46.5 -6c10 0 21.833 0.833008 35.5 2.5s28.167 3.83398 43.5 6.50098s30.5 5.66699 45.5 9s28.5 7 40.5 11l40 -132c-20 -10.667 -42.167 -19.667 -66.5 -27s-48.5 -13.166 -72.5 -17.499s-46.167 -7.33301 -66.5 -9
s-36.5 -2.5 -48.5 -2.5c-52 0 -94 6.33301 -126 19s-57 29.5 -75 50.5s-30.167 44.667 -36.5 71s-9.5 53.5 -9.5 81.5c0 39.333 6 77.333 18 114s31 69 57 97s59.667 50.333 101 67s91.333 25 150 25zM522.999 525.996l-164 98l-187 -96l-46 60l175 172h138l137 -172z
M265.999 273.996c57.333 4 86 21.667 86 53c0 4.66699 -2 10.667 -6 18s-11.667 11 -23 11c-13.333 0 -25.333 -6 -36 -18s-17.667 -33.333 -21 -64z" />
    <glyph glyph-name="edieresis" unicode="&#xeb;" horiz-adv-x="588" 
d="M356 513c31.333 0 59.999 -2.83691 85.999 -8.50391s48.333 -14.667 67 -27s33.167 -28.666 43.5 -48.999s15.5 -45.5 15.5 -75.5c0 -15.333 -3.66699 -32 -11 -50s-21.833 -35.167 -43.5 -51.5s-52.167 -30.666 -91.5 -42.999s-90.666 -20.5 -153.999 -24.5v-8
c0 -11.333 3.83301 -19 11.5 -23s23.167 -6 46.5 -6c10 0 21.833 0.833008 35.5 2.5s28.167 3.83398 43.5 6.50098s30.5 5.66699 45.5 9s28.5 7 40.5 11l40 -132c-20 -10.667 -42.167 -19.667 -66.5 -27s-48.5 -13.166 -72.5 -17.499s-46.167 -7.33301 -66.5 -9
s-36.5 -2.5 -48.5 -2.5c-52 0 -94 6.33301 -126 19s-57 29.5 -75 50.5s-30.167 44.667 -36.5 71s-9.5 53.5 -9.5 81.5c0 39.333 6 77.333 18 114s31 69 57 97s59.667 50.333 101 67s91.333 25 150 25zM238.999 748.996c33.333 0 57.333 -7.33398 72 -22.001s22 -34 22 -58
c0 -31.333 -9.66699 -56.666 -29 -75.999s-48.333 -29 -87 -29c-34 0 -58 8 -72 24s-21 36 -21 60c0 31.333 10.167 56 30.5 74s48.5 27 84.5 27zM484.999 748.995c33.333 0 57.333 -7.33398 72 -22.001s22 -34 22 -58c0 -31.333 -9.66699 -56.666 -29 -75.999
s-48.333 -29 -87 -29c-34 0 -58 8 -72 24s-21 36 -21 60c0 31.333 10.167 56 30.5 74s48.5 27 84.5 27zM265.999 273.994c57.333 4 86 21.667 86 53c0 4.66699 -2 10.667 -6 18s-11.667 11 -23 11c-13.333 0 -25.333 -6 -36 -18s-17.667 -33.333 -21 -64z" />
    <glyph glyph-name="igrave" unicode="&#xec;" horiz-adv-x="361" 
d="M37 0l61 498h237l-61 -498h-237zM5 677l101 136l201 -191l-70 -85z" />
    <glyph glyph-name="iacute" unicode="&#xed;" horiz-adv-x="361" 
d="M37 0l61 498h237l-61 -498h-237zM193 537l-65 86l211 187l86 -133z" />
    <glyph glyph-name="icircumflex" unicode="&#xee;" horiz-adv-x="361" 
d="M37 0l61 498h237l-61 -498h-237zM406 526l-164 98l-187 -96l-46 60l175 172h138l137 -172z" />
    <glyph glyph-name="idieresis" unicode="&#xef;" horiz-adv-x="361" 
d="M37 0l61 498h237l-61 -498h-237zM373 757c33.333 0 57.333 -7.33398 72 -22.001s22 -34 22 -58c0 -31.333 -9.66699 -56.666 -29 -75.999s-48.333 -29 -87 -29c-34 0 -58 8 -72 24s-21 36 -21 60c0 31.333 10.167 56 30.5 74s48.5 27 84.5 27zM127 756.999
c33.333 0 57.333 -7.33398 72 -22.001s22 -34 22 -58c0 -31.333 -9.66699 -56.666 -29 -75.999s-48.333 -29 -87 -29c-34 0 -58 8 -72 24s-21 36 -21 60c0 31.333 10.167 56 30.5 74s48.5 27 84.5 27z" />
    <glyph glyph-name="eth" unicode="&#xf0;" horiz-adv-x="666" 
d="M552 757l31.001 -52.9971l-60 -37c78.667 -64 118 -161 118 -291c0 -17.333 -1 -39 -3 -65s-6.83301 -53.333 -14.5 -82s-19 -57.334 -34 -86.001s-35.333 -54.334 -61 -77.001s-57.5 -41.167 -95.5 -55.5s-84 -21.5 -138 -21.5c-49.333 0 -90.333 6.16699 -123 18.5
s-58.667 28.666 -78 48.999s-33 43.833 -41 70.5s-12 54.667 -12 84c0 38.667 7 74.334 21 107.001s33.333 61 58 85s54 42.833 88 56.5s71 20.5 111 20.5c10 0 24.333 -0.833008 43 -2.5s35.334 -6.5 50.001 -14.5c-2.66699 21.333 -7.83398 40.666 -15.501 57.999
s-17.167 33.666 -28.5 48.999l-87 -55l-27 54l71 45c-18.667 15.333 -40.334 30 -65.001 44l63 113c26.667 -9.33301 52.667 -19.666 78 -30.999s48 -23.333 68 -36zM350.001 332.003c-16 0 -28.833 -3.83203 -38.5 -11.499s-17.167 -17.5 -22.5 -29.5s-9 -25.333 -11 -40
s-3 -29.334 -3 -44.001c0 -17.333 3 -32.333 9 -45s18.667 -19 38 -19c16 0 29.167 4.66699 39.5 14s18.5 21.833 24.5 37.5s10.5 34 13.5 55s5.5 43.167 7.5 66.5c-17.333 10.667 -36.333 16 -57 16z" />
    <glyph glyph-name="ntilde" unicode="&#xf1;" horiz-adv-x="640" 
d="M291 432c35.333 28.667 69.834 49.334 103.501 62.001s62.167 19 85.5 19c51.333 0 87.5 -11.667 108.5 -35s31.5 -58.333 31.5 -105c0 -15.333 -1 -32 -3 -50l-39 -323h-237l35 273c0.666992 3.33301 1 6.33301 1 9v7c0 13.333 -2.83301 22.5 -8.5 27.5
s-15.167 7.5 -28.5 7.5c-6 0 -13.833 -1.33301 -23.5 -4s-19.167 -7.33398 -28.5 -14.001l-39 -306h-239c10.667 83.333 20.667 166.5 30 249.5s19.666 166.167 30.999 249.5h226c-2 -11.333 -3.5 -21 -4.5 -29s-3.16699 -19.667 -6.5 -35zM448.001 562
c-19.333 0 -38.8311 2.00391 -58.498 6.00391s-38.667 8.33301 -57 13l-51.5 13c-16 4 -30 6 -42 6l-57 -39l-54 48c10.667 23.333 21.667 42.666 33 57.999s22.666 27.666 33.999 36.999s23 15.833 35 19.5s24.333 5.5 37 5.5c17.333 0 35 -1.83301 53 -5.5
s35.667 -7.83398 53 -12.501s34.666 -8.83398 51.999 -12.501s34 -5.5 50 -5.5l58 41l52 -48c-18.667 -42.667 -39 -74 -61 -94s-47.333 -30 -76 -30z" />
    <glyph glyph-name="ograve" unicode="&#xf2;" horiz-adv-x="643" 
d="M349 511c46 0 85.832 -5.5 119.499 -16.5s61.5 -26.667 83.5 -47s38.5 -44.833 49.5 -73.5s16.5 -60.334 16.5 -95.001c0 -43.333 -6.66699 -82.833 -20 -118.5s-33.333 -66.167 -60 -91.5s-60.167 -45 -100.5 -59s-87.166 -21 -140.499 -21c-48.667 0 -90 5.5 -124 16.5
s-61.5 26.667 -82.5 47s-36.333 44.833 -46 73.5s-14.5 60.334 -14.5 95.001c0 43.333 7 82.833 21 118.5s34.5 66.167 61.5 91.5s60.333 45 100 59s85.167 21 136.5 21zM334.999 345c-12 0 -21.833 -4.16602 -29.5 -12.499s-14 -19 -19 -32s-8.5 -27.333 -10.5 -43
s-3 -31.167 -3 -46.5c0 -17.333 2.66699 -31.5 8 -42.5s15.333 -16.5 30 -16.5c21.333 0 37.333 12.333 48 37s16 57.667 16 99c0 17.333 -2.83301 31.166 -8.5 41.499s-16.167 15.5 -31.5 15.5zM150.999 677.001l101 136l201 -191l-70 -85z" />
    <glyph glyph-name="oacute" unicode="&#xf3;" horiz-adv-x="643" 
d="M349 511c46 0 85.832 -5.5 119.499 -16.5s61.5 -26.667 83.5 -47s38.5 -44.833 49.5 -73.5s16.5 -60.334 16.5 -95.001c0 -43.333 -6.66699 -82.833 -20 -118.5s-33.333 -66.167 -60 -91.5s-60.167 -45 -100.5 -59s-87.166 -21 -140.499 -21c-48.667 0 -90 5.5 -124 16.5
s-61.5 26.667 -82.5 47s-36.333 44.833 -46 73.5s-14.5 60.334 -14.5 95.001c0 43.333 7 82.833 21 118.5s34.5 66.167 61.5 91.5s60.333 45 100 59s85.167 21 136.5 21zM334.999 345c-12 0 -21.833 -4.16602 -29.5 -12.499s-14 -19 -19 -32s-8.5 -27.333 -10.5 -43
s-3 -31.167 -3 -46.5c0 -17.333 2.66699 -31.5 8 -42.5s15.333 -16.5 30 -16.5c21.333 0 37.333 12.333 48 37s16 57.667 16 99c0 17.333 -2.83301 31.166 -8.5 41.499s-16.167 15.5 -31.5 15.5zM314.999 537.001l-65 86l211 187l86 -133z" />
    <glyph glyph-name="ocircumflex" unicode="&#xf4;" horiz-adv-x="643" 
d="M349 511c46 0 85.832 -5.5 119.499 -16.5s61.5 -26.667 83.5 -47s38.5 -44.833 49.5 -73.5s16.5 -60.334 16.5 -95.001c0 -43.333 -6.66699 -82.833 -20 -118.5s-33.333 -66.167 -60 -91.5s-60.167 -45 -100.5 -59s-87.166 -21 -140.499 -21c-48.667 0 -90 5.5 -124 16.5
s-61.5 26.667 -82.5 47s-36.333 44.833 -46 73.5s-14.5 60.334 -14.5 95.001c0 43.333 7 82.833 21 118.5s34.5 66.167 61.5 91.5s60.333 45 100 59s85.167 21 136.5 21zM334.999 345c-12 0 -21.833 -4.16602 -29.5 -12.499s-14 -19 -19 -32s-8.5 -27.333 -10.5 -43
s-3 -31.167 -3 -46.5c0 -17.333 2.66699 -31.5 8 -42.5s15.333 -16.5 30 -16.5c21.333 0 37.333 12.333 48 37s16 57.667 16 99c0 17.333 -2.83301 31.166 -8.5 41.499s-16.167 15.5 -31.5 15.5zM529.999 526.001l-164 98l-187 -96l-46 60l175 172h138l137 -172z" />
    <glyph glyph-name="otilde" unicode="&#xf5;" horiz-adv-x="643" 
d="M349 511c46 0 85.832 -5.5 119.499 -16.5s61.5 -26.667 83.5 -47s38.5 -44.833 49.5 -73.5s16.5 -60.334 16.5 -95.001c0 -43.333 -6.66699 -82.833 -20 -118.5s-33.333 -66.167 -60 -91.5s-60.167 -45 -100.5 -59s-87.166 -21 -140.499 -21c-48.667 0 -90 5.5 -124 16.5
s-61.5 26.667 -82.5 47s-36.333 44.833 -46 73.5s-14.5 60.334 -14.5 95.001c0 43.333 7 82.833 21 118.5s34.5 66.167 61.5 91.5s60.333 45 100 59s85.167 21 136.5 21zM334.999 345c-12 0 -21.833 -4.16602 -29.5 -12.499s-14 -19 -19 -32s-8.5 -27.333 -10.5 -43
s-3 -31.167 -3 -46.5c0 -17.333 2.66699 -31.5 8 -42.5s15.333 -16.5 30 -16.5c21.333 0 37.333 12.333 48 37s16 57.667 16 99c0 17.333 -2.83301 31.166 -8.5 41.499s-16.167 15.5 -31.5 15.5zM446.999 546.001c-19.333 0 -38.8311 2.00391 -58.498 6.00391
s-38.667 8.33301 -57 13l-51.5 13c-16 4 -30 6 -42 6l-57 -39l-54 48c10.667 23.333 21.667 42.666 33 57.999s22.666 27.666 33.999 36.999s23 15.833 35 19.5s24.333 5.5 37 5.5c17.333 0 35 -1.83301 53 -5.5s35.667 -7.83398 53 -12.501s34.666 -8.83398 51.999 -12.501
s34 -5.5 50 -5.5l58 41l52 -48c-18.667 -42.667 -39 -74 -61 -94s-47.333 -30 -76 -30z" />
    <glyph glyph-name="odieresis" unicode="&#xf6;" horiz-adv-x="643" 
d="M349 511c46 0 85.832 -5.5 119.499 -16.5s61.5 -26.667 83.5 -47s38.5 -44.833 49.5 -73.5s16.5 -60.334 16.5 -95.001c0 -43.333 -6.66699 -82.833 -20 -118.5s-33.333 -66.167 -60 -91.5s-60.167 -45 -100.5 -59s-87.166 -21 -140.499 -21c-48.667 0 -90 5.5 -124 16.5
s-61.5 26.667 -82.5 47s-36.333 44.833 -46 73.5s-14.5 60.334 -14.5 95.001c0 43.333 7 82.833 21 118.5s34.5 66.167 61.5 91.5s60.333 45 100 59s85.167 21 136.5 21zM334.999 345c-12 0 -21.833 -4.16602 -29.5 -12.499s-14 -19 -19 -32s-8.5 -27.333 -10.5 -43
s-3 -31.167 -3 -46.5c0 -17.333 2.66699 -31.5 8 -42.5s15.333 -16.5 30 -16.5c21.333 0 37.333 12.333 48 37s16 57.667 16 99c0 17.333 -2.83301 31.166 -8.5 41.499s-16.167 15.5 -31.5 15.5zM497.999 749.001c33.333 0 57.333 -7.33398 72 -22.001s22 -34 22 -58
c0 -31.333 -9.66699 -56.666 -29 -75.999s-48.333 -29 -87 -29c-34 0 -58 8 -72 24s-21 36 -21 60c0 31.333 10.167 56 30.5 74s48.5 27 84.5 27zM251.999 749c33.333 0 57.333 -7.33398 72 -22.001s22 -34 22 -58c0 -31.333 -9.66699 -56.666 -29 -75.999
s-48.333 -29 -87 -29c-34 0 -58 8 -72 24s-21 36 -21 60c0 31.333 10.167 56 30.5 74s48.5 27 84.5 27z" />
    <glyph glyph-name="divide" unicode="&#xf7;" horiz-adv-x="623" 
d="M357 594c22.667 0 41.499 -7.66699 56.499 -23s22.5 -34.333 22.5 -57c0 -14 -2.83301 -27.167 -8.5 -39.5s-13.167 -23.166 -22.5 -32.499s-20.166 -16.666 -32.499 -21.999s-24.833 -8 -37.5 -8c-22.667 0 -41.5 7.66699 -56.5 23s-22.5 34.333 -22.5 57
c0 14 2.83301 27.167 8.5 39.5s13.167 23.166 22.5 32.499s20 16.666 32 21.999s24.667 8 38 8zM88.999 248l15 124h452l-15 -124h-452zM309.999 208c22.667 0 41.5 -7.66602 56.5 -22.999s22.5 -34.333 22.5 -57c0 -13.333 -2.83301 -26.333 -8.5 -39
s-13.167 -23.667 -22.5 -33s-20 -16.833 -32 -22.5s-24.667 -8.5 -38 -8.5c-22.667 0 -41.5 7.83301 -56.5 23.5s-22.5 34.834 -22.5 57.501c0 14 2.83301 27.167 8.5 39.5s13.167 23.166 22.5 32.499s20 16.666 32 21.999s24.667 8 38 8z" />
    <glyph glyph-name="oslash" unicode="&#xf8;" horiz-adv-x="637" 
d="M349 511c38.667 0 72.998 -3.99902 102.998 -11.999s55.667 -19.333 77 -34l46 41h68l-78 -71c35.333 -39.333 53 -91.333 53 -156c0 -43.333 -6.66699 -82.833 -20 -118.5s-33.333 -66.167 -60 -91.5s-60.167 -45 -100.5 -59s-87.166 -21 -140.499 -21
c-40 0 -74.667 3.66699 -104 11s-54.666 17.666 -75.999 30.999l-43 -39h-67l75 68c-18.667 20 -32 43.667 -40 71s-12 57.333 -12 90c0 43.333 7 82.833 21 118.5s34.5 66.167 61.5 91.5s60.333 45 100 59s85.167 21 136.5 21zM334.998 345.001
c-10.667 0 -19.666 -3.33398 -26.999 -10.001s-13.5 -15.167 -18.5 -25.5s-8.83301 -22.166 -11.5 -35.499s-4.33398 -27 -5.00098 -41l97 88c-5.33301 16 -17 24 -35 24zM310.999 152c18.667 0 33.333 10 44 30s17 47 19 81l-96 -87c5.33301 -16 16.333 -24 33 -24z" />
    <glyph glyph-name="ugrave" unicode="&#xf9;" horiz-adv-x="631" 
d="M341 67c-36 -30.667 -68.835 -51.834 -98.502 -63.501s-56.167 -17.5 -79.5 -17.5c-51.333 0 -87.166 11.667 -107.499 35s-30.5 58.333 -30.5 105c0 15.333 1 32 3 50l39 323h237l-35 -273c-0.666992 -3.33301 -1 -6.33301 -1 -9v-7c0 -13.333 2.83301 -22.5 8.5 -27.5
s15.167 -7.5 28.5 -7.5c6 0 12.333 1.33301 19 4s14.667 7.33398 24 14.001l39 306h239c-10.667 -83.333 -20.667 -166.5 -30 -249.5s-19.666 -166.167 -30.999 -249.5h-219v64zM155.998 677l101 136l201 -191l-70 -85z" />
    <glyph glyph-name="uacute" unicode="&#xfa;" horiz-adv-x="631" 
d="M341 67c-36 -30.667 -68.835 -51.834 -98.502 -63.501s-56.167 -17.5 -79.5 -17.5c-51.333 0 -87.166 11.667 -107.499 35s-30.5 58.333 -30.5 105c0 15.333 1 32 3 50l39 323h237l-35 -273c-0.666992 -3.33301 -1 -6.33301 -1 -9v-7c0 -13.333 2.83301 -22.5 8.5 -27.5
s15.167 -7.5 28.5 -7.5c6 0 12.333 1.33301 19 4s14.667 7.33398 24 14.001l39 306h239c-10.667 -83.333 -20.667 -166.5 -30 -249.5s-19.666 -166.167 -30.999 -249.5h-219v64zM309.998 537l-65 86l211 187l86 -133z" />
    <glyph glyph-name="ucircumflex" unicode="&#xfb;" horiz-adv-x="631" 
d="M341 67c-36 -30.667 -68.835 -51.834 -98.502 -63.501s-56.167 -17.5 -79.5 -17.5c-51.333 0 -87.166 11.667 -107.499 35s-30.5 58.333 -30.5 105c0 15.333 1 32 3 50l39 323h237l-35 -273c-0.666992 -3.33301 -1 -6.33301 -1 -9v-7c0 -13.333 2.83301 -22.5 8.5 -27.5
s15.167 -7.5 28.5 -7.5c6 0 12.333 1.33301 19 4s14.667 7.33398 24 14.001l39 306h239c-10.667 -83.333 -20.667 -166.5 -30 -249.5s-19.666 -166.167 -30.999 -249.5h-219v64zM525.998 526l-164 98l-187 -96l-46 60l175 172h138l137 -172z" />
    <glyph glyph-name="udieresis" unicode="&#xfc;" horiz-adv-x="631" 
d="M341 67c-36 -30.667 -68.835 -51.834 -98.502 -63.501s-56.167 -17.5 -79.5 -17.5c-51.333 0 -87.166 11.667 -107.499 35s-30.5 58.333 -30.5 105c0 15.333 1 32 3 50l39 323h237l-35 -273c-0.666992 -3.33301 -1 -6.33301 -1 -9v-7c0 -13.333 2.83301 -22.5 8.5 -27.5
s15.167 -7.5 28.5 -7.5c6 0 12.333 1.33301 19 4s14.667 7.33398 24 14.001l39 306h239c-10.667 -83.333 -20.667 -166.5 -30 -249.5s-19.666 -166.167 -30.999 -249.5h-219v64zM494.998 757c33.333 0 57.333 -7.33398 72 -22.001s22 -34 22 -58
c0 -31.333 -9.66699 -56.666 -29 -75.999s-48.333 -29 -87 -29c-34 0 -58 8 -72 24s-21 36 -21 60c0 31.333 10.167 56 30.5 74s48.5 27 84.5 27zM248.998 756.999c33.333 0 57.333 -7.33398 72 -22.001s22 -34 22 -58c0 -31.333 -9.66699 -56.666 -29 -75.999
s-48.333 -29 -87 -29c-34 0 -58 8 -72 24s-21 36 -21 60c0 31.333 10.167 56 30.5 74s48.5 27 84.5 27z" />
    <glyph glyph-name="yacute" unicode="&#xfd;" horiz-adv-x="630" 
d="M299 143l49.0029 166l73 216l230 -55l-259 -557c-21.333 -47.333 -49.833 -81.833 -85.5 -103.5s-78.834 -32.5 -129.501 -32.5c-24.667 0 -47.334 1.66699 -68.001 5s-45 9 -73 17l33 152c16 -2.66699 28.167 -4.5 36.5 -5.5s19.166 -1.5 32.499 -1.5
c21.333 0 37 3.5 47 10.5s18.667 19.833 26 38.5l6 16.5c2 5.66699 4.33301 11.167 7 16.5h-101l-46.5 236.5l-46.5 235.5h232l19 -192l10 -162zM314.003 537l-65 86l211 187l86 -133z" />
    <glyph glyph-name="thorn" unicode="&#xfe;" horiz-adv-x="643" 
d="M323 150c4 0 9.83496 1.16602 17.502 3.49902s15.5 7.66602 23.5 15.999s15 20.5 21 36.5s9 38 9 66c0 24 -4.33301 40.667 -13 50s-19.667 14 -33 14c-10.667 0 -21.5 -2.16699 -32.5 -6.5s-21.5 -9.16602 -31.5 -14.499l-20 -153
c11.333 -5.33301 22.666 -8.66602 33.999 -9.99902s19.666 -2 24.999 -2zM-14.998 -210.001l9.00293 68.002l14 106.5c5.33301 40.333 10.833 84.333 16.5 132l17.5 144.5l17.5 144.5l15.5 132l12.5 106c3.66699 30.333 6.16699 53.166 7.5 68.499h225
c-0.666992 -3.33301 -1.83398 -11.5 -3.50098 -24.5s-3.5 -28.333 -5.5 -46s-4.33301 -36.667 -7 -57l-7.5 -57.5c-2.33301 -18 -4.5 -33.833 -6.5 -47.5l-4 -27.5l4 -2c20 17.333 39.167 31.166 57.5 41.499s35.666 18.166 51.999 23.499s31.166 8.66602 44.499 9.99902
s24.666 2 33.999 2c27.333 0 50.5 -5.16699 69.5 -15.5s34.5 -24.333 46.5 -42s20.667 -38 26 -61s8 -46.833 8 -71.5c0 -41.333 -5.16699 -81.666 -15.5 -120.999s-26.333 -74.333 -48 -105s-49.5 -55.334 -83.5 -74.001s-74.333 -28 -121 -28
c-6 0 -13.667 0.166992 -23 0.5s-19.333 1.33301 -30 3s-21.667 3.83398 -33 6.50098s-21.666 6.33398 -30.999 11.001c-4 -36 -8.33301 -72.5 -13 -109.5s-9 -73.833 -13 -110.5h-232z" />
    <glyph glyph-name="ydieresis" unicode="&#xff;" horiz-adv-x="630" 
d="M299 143l49.0029 166l73 216l230 -55l-259 -557c-21.333 -47.333 -49.833 -81.833 -85.5 -103.5s-78.834 -32.5 -129.501 -32.5c-24.667 0 -47.334 1.66699 -68.001 5s-45 9 -73 17l33 152c16 -2.66699 28.167 -4.5 36.5 -5.5s19.166 -1.5 32.499 -1.5
c21.333 0 37 3.5 47 10.5s18.667 19.833 26 38.5l6 16.5c2 5.66699 4.33301 11.167 7 16.5h-101l-46.5 236.5l-46.5 235.5h232l19 -192l10 -162zM497.003 749c33.333 0 57.333 -7.33398 72 -22.001s22 -34 22 -58c0 -31.333 -9.66699 -56.666 -29 -75.999
s-48.333 -29 -87 -29c-34 0 -58 8 -72 24s-21 36 -21 60c0 31.333 10.167 56 30.5 74s48.5 27 84.5 27zM251.003 748.999c33.333 0 57.333 -7.33398 72 -22.001s22 -34 22 -58c0 -31.333 -9.66699 -56.666 -29 -75.999s-48.333 -29 -87 -29c-34 0 -58 8 -72 24
s-21 36 -21 60c0 31.333 10.167 56 30.5 74s48.5 27 84.5 27z" />
    <glyph glyph-name="Amacron" unicode="&#x100;" horiz-adv-x="781" 
d="M488 123h-214l-53 -123h-241l326 693h306l139 -693h-245zM282 885h388l-17 -136h-388zM431 525l-46 -141l-42 -103h119l-14 116l-9 128h-8z" />
    <glyph glyph-name="amacron" unicode="&#x101;" horiz-adv-x="681" 
d="M329 348c-4 0 -9.83203 -0.998047 -17.499 -2.99805s-15.334 -6.83301 -23.001 -14.5s-14.5 -19.334 -20.5 -35.001s-9 -37.167 -9 -64.5c0 -24.667 4.5 -41.667 13.5 -51s20.167 -14 33.5 -14c9.33301 0 19 1.66699 29 5s19.333 7.33301 28 12l9.5 76.5
c3 24.333 6.5 49.833 10.5 76.5c-11.333 5.33301 -21.833 8.66602 -31.5 9.99902s-17.167 2 -22.5 2zM636.001 510.002l-26.502 -176.5c-8.33301 -57 -15.833 -115.833 -22.5 -176.5h53l8 -127c-25.333 -13.333 -53.666 -23.5 -84.999 -30.5s-63.666 -10.5 -96.999 -10.5
c-14 0 -26.833 1.16699 -38.5 3.5s-22 6.5 -31 12.5s-16.333 14.333 -22 25s-8.83398 24.667 -9.50098 42l-4 2c-17.333 -20 -35 -35.5 -53 -46.5s-34.833 -19.333 -50.5 -25s-29.5 -9.16699 -41.5 -10.5s-21 -2 -27 -2c-34 0 -61.667 5.5 -83 16.5s-38 25.5 -50 43.5
s-20.167 38.333 -24.5 61s-6.5 45.667 -6.5 69c0 45.333 5.66699 88.166 17 128.499s28.333 75.5 51 105.5s51.334 53.833 86.001 71.5s75.667 26.5 123 26.5c11.333 0 27.833 -1.66699 49.5 -5s44.167 -11.666 67.5 -24.999l14 35zM199.999 704.002h407l-17 -136h-407z" />
    <glyph glyph-name="Abreve" unicode="&#x102;" horiz-adv-x="781" 
d="M488 123h-214l-53 -123h-241l326 693h306l139 -693h-245zM453 731c-22 0 -42.5 4 -61.5 12s-36.5 19 -52.5 33s-30.667 30.5 -44 49.5s-25 39.833 -35 62.5l83 64c10 -16 20.833 -29.667 32.5 -41s23.5 -20.5 35.5 -27.5s23.5 -12 34.5 -15s20.5 -4.5 28.5 -4.5
c6 0 13.833 0.5 23.5 1.5s21.5 4 35.5 9s30.333 13 49 24s40 26.833 64 47.5l48 -59c-20.667 -30 -41.667 -55 -63 -75s-42.5 -36 -63.5 -48s-41.167 -20.5 -60.5 -25.5s-37.333 -7.5 -54 -7.5zM431 525l-46 -141l-42 -103h119l-14 116l-9 128h-8z" />
    <glyph glyph-name="abreve" unicode="&#x103;" horiz-adv-x="681" 
d="M329 348c-4 0 -9.83203 -0.998047 -17.499 -2.99805s-15.334 -6.83301 -23.001 -14.5s-14.5 -19.334 -20.5 -35.001s-9 -37.167 -9 -64.5c0 -24.667 4.5 -41.667 13.5 -51s20.167 -14 33.5 -14c9.33301 0 19 1.66699 29 5s19.333 7.33301 28 12l9.5 76.5
c3 24.333 6.5 49.833 10.5 76.5c-11.333 5.33301 -21.833 8.66602 -31.5 9.99902s-17.167 2 -22.5 2zM636.001 510.002l-26.502 -176.5c-8.33301 -57 -15.833 -115.833 -22.5 -176.5h53l8 -127c-25.333 -13.333 -53.666 -23.5 -84.999 -30.5s-63.666 -10.5 -96.999 -10.5
c-14 0 -26.833 1.16699 -38.5 3.5s-22 6.5 -31 12.5s-16.333 14.333 -22 25s-8.83398 24.667 -9.50098 42l-4 2c-17.333 -20 -35 -35.5 -53 -46.5s-34.833 -19.333 -50.5 -25s-29.5 -9.16699 -41.5 -10.5s-21 -2 -27 -2c-34 0 -61.667 5.5 -83 16.5s-38 25.5 -50 43.5
s-20.167 38.333 -24.5 61s-6.5 45.667 -6.5 69c0 45.333 5.66699 88.166 17 128.499s28.333 75.5 51 105.5s51.334 53.833 86.001 71.5s75.667 26.5 123 26.5c11.333 0 27.833 -1.66699 49.5 -5s44.167 -11.666 67.5 -24.999l14 35zM382.999 541.002
c-22 0 -42.8281 4.3291 -62.4951 12.9961s-37.834 20.5 -54.501 35.5s-31.834 32.5 -45.501 52.5s-25.5 41.333 -35.5 64l85 63c10 -17.333 21 -31.666 33 -42.999s23.667 -20.5 35 -27.5s22.5 -12 33.5 -15s20.5 -4.5 28.5 -4.5h21.5c8.33301 0 19.166 2.33301 32.499 7
s29.5 12.834 48.5 24.501s42.167 29.167 69.5 52.5l63 -63c-20.667 -30 -42.334 -55.167 -65.001 -75.5s-45 -36.666 -67 -48.999s-43.333 -21.166 -64 -26.499s-39.334 -8 -56.001 -8z" />
    <glyph glyph-name="Aogonek" unicode="&#x104;" horiz-adv-x="781" 
d="M583 0c-13.333 -21.333 -23.334 -42.5029 -30.001 -63.5029s-10.667 -39.167 -12 -54.5c-1.33301 -11.333 0.666992 -20.666 6 -27.999s15.333 -11 30 -11c6.66699 0 12.834 0.333008 18.501 1s11 1.5 16 2.5s10.333 2.33301 16 4l19.5 5.5l11 -69
c-24 -13.333 -48.5 -23.166 -73.5 -29.499s-48.167 -9.5 -69.5 -9.5c-40 0 -69.167 8.83301 -87.5 26.5s-25.833 41.834 -22.5 72.501c2.66699 20 11 44.333 25 73s38.667 59 74 91l-16 112h-214l-53 -123h-241l326 693h306l139 -693h-168zM430.999 524.997l-46 -141
l-42 -103h119l-14 116l-9 128h-8z" />
    <glyph glyph-name="aogonek" unicode="&#x105;" horiz-adv-x="681" 
d="M636 510l-26.501 -176.503c-8.33301 -57 -15.833 -115.833 -22.5 -176.5h53l8 -127c-47.333 -23.333 -101 -36.666 -161 -39.999c-8.66699 -18 -15.334 -35.333 -20.001 -52s-7.66699 -31.334 -9 -44.001c-1.33301 -11.333 0.666992 -20.666 6 -27.999s15.333 -11 30 -11
c6.66699 0 12.834 0.333008 18.501 1s11 1.5 16 2.5s10.333 2.33301 16 4l19.5 5.5l11 -69c-24 -13.333 -48.5 -23.166 -73.5 -29.499s-48.167 -9.5 -69.5 -9.5c-40 0 -69.167 8.83301 -87.5 26.5s-25.833 41.834 -22.5 72.501c2.66699 17.333 9.5 38.5 20.5 63.5
s30.167 51.5 57.5 79.5c-10 6 -18 14.5 -24 25.5s-9.66699 25.833 -11 44.5l-4 2c-17.333 -20 -35 -35.5 -53 -46.5s-34.833 -19.333 -50.5 -25s-29.5 -9.16699 -41.5 -10.5s-21 -2 -27 -2c-34 0 -61.667 5.5 -83 16.5s-38 25.5 -50 43.5s-20.167 38.333 -24.5 61
s-6.5 45.667 -6.5 69c0 45.333 5.66699 88.166 17 128.499s28.333 75.5 51 105.5s51.334 53.833 86.001 71.5s75.667 26.5 123 26.5c11.333 0 27.833 -1.66699 49.5 -5s44.167 -11.666 67.5 -24.999l14 35zM328.999 347.997c-4 0 -9.83203 -0.998047 -17.499 -2.99805
s-15.334 -6.83301 -23.001 -14.5s-14.5 -19.334 -20.5 -35.001s-9 -37.167 -9 -64.5c0 -24.667 4.5 -41.667 13.5 -51s20.167 -14 33.5 -14c9.33301 0 19 1.66699 29 5s19.333 7.33301 28 12l9.5 76.5c3 24.333 6.5 49.833 10.5 76.5
c-11.333 5.33301 -21.833 8.66602 -31.5 9.99902s-17.167 2 -22.5 2z" />
    <glyph glyph-name="Cacute" unicode="&#x106;" horiz-adv-x="663" 
d="M474 710c22 0 50.1611 -2.33301 84.4941 -7s67.5 -11.667 99.5 -21l-41 -179c-23.333 4 -46.166 7 -68.499 9s-43.166 3 -62.499 3c-24 0 -46.667 -2.66699 -68 -8s-39.833 -15.5 -55.5 -30.5s-28.167 -35.833 -37.5 -62.5s-14 -61 -14 -103
c0 -28.667 3.33301 -51.334 10 -68.001s16.334 -29.334 29.001 -38.001s27.667 -14.167 45 -16.5s37 -3.5 59 -3.5c6.66699 0 16 0.333008 28 1s25 1.66699 39 3s28.333 3 43 5s28 4.33301 40 7l27 -170c-19.333 -7.33301 -40 -13.666 -62 -18.999
s-44.333 -9.66602 -67 -12.999s-45.167 -6 -67.5 -8s-43.166 -3 -62.499 -3c-66 0 -119.5 8.33301 -160.5 25s-73.167 38.667 -96.5 66s-39.166 59 -47.499 95s-12.5 73.667 -12.5 113c0 54 6.33301 106.333 19 157s34.834 95.667 66.501 135s74.5 71 128.5 95
s122.333 36 205 36zM426.994 747l-62 85l206 184l92 -128z" />
    <glyph glyph-name="cacute" unicode="&#x107;" horiz-adv-x="527" 
d="M324 510c13.333 0 28.1699 -0.831055 44.5029 -2.49805s33.166 -4.5 50.499 -8.5s34.5 -9.5 51.5 -16.5s32.5 -15.833 46.5 -26.5l-54 -140c-18 5.33301 -36 9.83301 -54 13.5s-35.333 5.5 -52 5.5c-13.333 0 -25.833 -1.83301 -37.5 -5.5
s-21.834 -9.83398 -30.501 -18.501s-15.334 -20.334 -20.001 -35.001s-7 -33 -7 -55c0 -23.333 7 -39 21 -47s31.667 -12 53 -12c17.333 0 35.5 1.83301 54.5 5.5s37.167 7.5 54.5 11.5l40 -138c-16.667 -9.33301 -34.834 -17.5 -54.501 -24.5s-39.667 -12.667 -60 -17
s-40.166 -7.5 -59.499 -9.5s-37.333 -3 -54 -3c-39.333 0 -73.333 5.16699 -102 15.5s-52.167 24.5 -70.5 42.5s-32 39.333 -41 64s-13.5 51.667 -13.5 81c0 36 4.16699 72.833 12.5 110.5s23.5 72 45.5 103s52 56.5 90 76.5s86.667 30 146 30zM262.004 537.002l-65 86
l211 187l86 -133z" />
    <glyph glyph-name="Ccircumflex" unicode="&#x108;" horiz-adv-x="663" 
d="M474 710c22 0 50.1611 -2.33301 84.4941 -7s67.5 -11.667 99.5 -21l-41 -179c-23.333 4 -46.166 7 -68.499 9s-43.166 3 -62.499 3c-24 0 -46.667 -2.66699 -68 -8s-39.833 -15.5 -55.5 -30.5s-28.167 -35.833 -37.5 -62.5s-14 -61 -14 -103
c0 -28.667 3.33301 -51.334 10 -68.001s16.334 -29.334 29.001 -38.001s27.667 -14.167 45 -16.5s37 -3.5 59 -3.5c6.66699 0 16 0.333008 28 1s25 1.66699 39 3s28.333 3 43 5s28 4.33301 40 7l27 -170c-19.333 -7.33301 -40 -13.666 -62 -18.999
s-44.333 -9.66602 -67 -12.999s-45.167 -6 -67.5 -8s-43.166 -3 -62.499 -3c-66 0 -119.5 8.33301 -160.5 25s-73.167 38.667 -96.5 66s-39.166 59 -47.499 95s-12.5 73.667 -12.5 113c0 54 6.33301 106.333 19 157s34.834 95.667 66.501 135s74.5 71 128.5 95
s122.333 36 205 36zM606.994 735l-164 95l-184 -93l-42 60l174 162h138l138 -162z" />
    <glyph glyph-name="ccircumflex" unicode="&#x109;" horiz-adv-x="527" 
d="M324 510c13.333 0 28.1699 -0.831055 44.5029 -2.49805s33.166 -4.5 50.499 -8.5s34.5 -9.5 51.5 -16.5s32.5 -15.833 46.5 -26.5l-54 -140c-18 5.33301 -36 9.83301 -54 13.5s-35.333 5.5 -52 5.5c-13.333 0 -25.833 -1.83301 -37.5 -5.5
s-21.834 -9.83398 -30.501 -18.501s-15.334 -20.334 -20.001 -35.001s-7 -33 -7 -55c0 -23.333 7 -39 21 -47s31.667 -12 53 -12c17.333 0 35.5 1.83301 54.5 5.5s37.167 7.5 54.5 11.5l40 -138c-16.667 -9.33301 -34.834 -17.5 -54.501 -24.5s-39.667 -12.667 -60 -17
s-40.166 -7.5 -59.499 -9.5s-37.333 -3 -54 -3c-39.333 0 -73.333 5.16699 -102 15.5s-52.167 24.5 -70.5 42.5s-32 39.333 -41 64s-13.5 51.667 -13.5 81c0 36 4.16699 72.833 12.5 110.5s23.5 72 45.5 103s52 56.5 90 76.5s86.667 30 146 30zM499.004 526.002l-164 98
l-187 -96l-46 60l175 172h138l137 -172z" />
    <glyph glyph-name="Cdotaccent" unicode="&#x10a;" horiz-adv-x="663" 
d="M474 710c22 0 50.1611 -2.33301 84.4941 -7s67.5 -11.667 99.5 -21l-41 -179c-23.333 4 -46.166 7 -68.499 9s-43.166 3 -62.499 3c-24 0 -46.667 -2.66699 -68 -8s-39.833 -15.5 -55.5 -30.5s-28.167 -35.833 -37.5 -62.5s-14 -61 -14 -103
c0 -28.667 3.33301 -51.334 10 -68.001s16.334 -29.334 29.001 -38.001s27.667 -14.167 45 -16.5s37 -3.5 59 -3.5c6.66699 0 16 0.333008 28 1s25 1.66699 39 3s28.333 3 43 5s28 4.33301 40 7l27 -170c-19.333 -7.33301 -40 -13.666 -62 -18.999
s-44.333 -9.66602 -67 -12.999s-45.167 -6 -67.5 -8s-43.166 -3 -62.499 -3c-66 0 -119.5 8.33301 -160.5 25s-73.167 38.667 -96.5 66s-39.166 59 -47.499 95s-12.5 73.667 -12.5 113c0 54 6.33301 106.333 19 157s34.834 95.667 66.501 135s74.5 71 128.5 95
s122.333 36 205 36zM429.994 966c37.333 0 65.335 -8.5 84.002 -25.5s28 -40.167 28 -69.5c0 -15.333 -2.66699 -30.5 -8 -45.5s-13.333 -28.5 -24 -40.5s-24.5 -21.667 -41.5 -29s-36.833 -11 -59.5 -11c-40 0 -68.5 9.16699 -85.5 27.5s-25.5 41.5 -25.5 69.5
c0 16.667 2.83301 32.667 8.5 48s14.167 28.5 25.5 39.5s25.166 19.833 41.499 26.5s35.166 10 56.499 10z" />
    <glyph glyph-name="cdotaccent" unicode="&#x10b;" horiz-adv-x="527" 
d="M324 510c13.333 0 28.1699 -0.831055 44.5029 -2.49805s33.166 -4.5 50.499 -8.5s34.5 -9.5 51.5 -16.5s32.5 -15.833 46.5 -26.5l-54 -140c-18 5.33301 -36 9.83301 -54 13.5s-35.333 5.5 -52 5.5c-13.333 0 -25.833 -1.83301 -37.5 -5.5
s-21.834 -9.83398 -30.501 -18.501s-15.334 -20.334 -20.001 -35.001s-7 -33 -7 -55c0 -23.333 7 -39 21 -47s31.667 -12 53 -12c17.333 0 35.5 1.83301 54.5 5.5s37.167 7.5 54.5 11.5l40 -138c-16.667 -9.33301 -34.834 -17.5 -54.501 -24.5s-39.667 -12.667 -60 -17
s-40.166 -7.5 -59.499 -9.5s-37.333 -3 -54 -3c-39.333 0 -73.333 5.16699 -102 15.5s-52.167 24.5 -70.5 42.5s-32 39.333 -41 64s-13.5 51.667 -13.5 81c0 36 4.16699 72.833 12.5 110.5s23.5 72 45.5 103s52 56.5 90 76.5s86.667 30 146 30zM325.004 783.002
c33.333 0 58.334 -8.33398 75.001 -25.001s25 -39 25 -67c0 -15.333 -2.33301 -30.166 -7 -44.499s-11.834 -27.166 -21.501 -38.499s-22 -20.5 -37 -27.5s-32.833 -10.5 -53.5 -10.5c-36 0 -61.667 8.66699 -77 26s-23 39.666 -23 66.999c0 16.667 2.66699 32.167 8 46.5
s13 27 23 38s22.333 19.667 37 26s31.667 9.5 51 9.5z" />
    <glyph glyph-name="Ccaron" unicode="&#x10c;" horiz-adv-x="663" 
d="M474 710c22 0 50.1611 -2.33301 84.4941 -7s67.5 -11.667 99.5 -21l-41 -179c-23.333 4 -46.166 7 -68.499 9s-43.166 3 -62.499 3c-24 0 -46.667 -2.66699 -68 -8s-39.833 -15.5 -55.5 -30.5s-28.167 -35.833 -37.5 -62.5s-14 -61 -14 -103
c0 -28.667 3.33301 -51.334 10 -68.001s16.334 -29.334 29.001 -38.001s27.667 -14.167 45 -16.5s37 -3.5 59 -3.5c6.66699 0 16 0.333008 28 1s25 1.66699 39 3s28.333 3 43 5s28 4.33301 40 7l27 -170c-19.333 -7.33301 -40 -13.666 -62 -18.999
s-44.333 -9.66602 -67 -12.999s-45.167 -6 -67.5 -8s-43.166 -3 -62.499 -3c-66 0 -119.5 8.33301 -160.5 25s-73.167 38.667 -96.5 66s-39.166 59 -47.499 95s-12.5 73.667 -12.5 113c0 54 6.33301 106.333 19 157s34.834 95.667 66.501 135s74.5 71 128.5 95
s122.333 36 205 36zM662.994 911l-178 -162h-138l-134 162l58 60l160 -95l188 97z" />
    <glyph glyph-name="ccaron" unicode="&#x10d;" horiz-adv-x="527" 
d="M324 510c13.333 0 28.1699 -0.831055 44.5029 -2.49805s33.166 -4.5 50.499 -8.5s34.5 -9.5 51.5 -16.5s32.5 -15.833 46.5 -26.5l-54 -140c-18 5.33301 -36 9.83301 -54 13.5s-35.333 5.5 -52 5.5c-13.333 0 -25.833 -1.83301 -37.5 -5.5
s-21.834 -9.83398 -30.501 -18.501s-15.334 -20.334 -20.001 -35.001s-7 -33 -7 -55c0 -23.333 7 -39 21 -47s31.667 -12 53 -12c17.333 0 35.5 1.83301 54.5 5.5s37.167 7.5 54.5 11.5l40 -138c-16.667 -9.33301 -34.834 -17.5 -54.501 -24.5s-39.667 -12.667 -60 -17
s-40.166 -7.5 -59.499 -9.5s-37.333 -3 -54 -3c-39.333 0 -73.333 5.16699 -102 15.5s-52.167 24.5 -70.5 42.5s-32 39.333 -41 64s-13.5 51.667 -13.5 81c0 36 4.16699 72.833 12.5 110.5s23.5 72 45.5 103s52 56.5 90 76.5s86.667 30 146 30zM560.004 714.002l-179 -172
h-138l-133 172l55 60l163 -96l188 98z" />
    <glyph glyph-name="Dcaron" unicode="&#x10e;" horiz-adv-x="742" 
d="M33 0l85 692.998h299c60 0 109.667 -7.33301 149 -22s70.5 -35 93.5 -61s39.167 -56.5 48.5 -91.5s14 -72.833 14 -113.5c0 -56 -7 -108.667 -21 -158s-36.333 -92.166 -67 -128.499s-70.167 -65.166 -118.5 -86.499s-106.5 -32 -174.5 -32h-308zM342 524.998
l-44.001 -354.998h40c24.667 0 45.5 7 62.5 21s30.667 32.167 41 54.5s17.666 47.166 21.999 74.499s6.5 54.666 6.5 81.999c0 18 -1.5 34.5 -4.5 49.5s-8.16699 28 -15.5 39s-17.166 19.5 -29.499 25.5s-28.166 9 -47.499 9h-31zM643.999 911l-178 -162h-138l-134 162
l58 60l160 -95l188 97z" />
    <glyph glyph-name="dcaron" unicode="&#x10f;" horiz-adv-x="876" 
d="M821 756c16.667 0 30.666 -2.83691 41.999 -8.50391s20.333 -13 27 -22s11.5 -19.167 14.5 -30.5s4.5 -23 4.5 -35c0 -22 -5.16699 -43.667 -15.5 -65s-23.666 -41.5 -39.999 -60.5s-34.666 -36.167 -54.999 -51.5s-40.833 -27.333 -61.5 -36l-42 63
c19.333 13.333 35.166 26.333 47.499 39s21.166 28.334 26.499 47.001c-19.333 4.66699 -33.166 12.334 -41.499 23.001s-12.5 25.334 -12.5 44.001c0 10.667 2.5 21.667 7.5 33s12 21.333 21 30s20 15.834 33 21.501s27.833 8.5 44.5 8.5zM328.999 347.996
c-4 0 -9.83008 -1.16797 -17.4971 -3.50098s-15.334 -7.66602 -23.001 -15.999s-14.5 -20.166 -20.5 -35.499s-9 -36 -9 -62c0 -25.333 4.83301 -42.666 14.5 -51.999s21.167 -14 34.5 -14c9.33301 0 19.166 1.66699 29.499 5s20.166 7.66602 29.499 12.999l9.5 76.5
c3 24.333 6.5 49.833 10.5 76.5c-11.333 5.33301 -22.5 8.66602 -33.5 9.99902s-19.167 2 -24.5 2zM670.002 723.995l-11.5029 -87l-16.5 -127.5l-18 -147.5l-17.5 -147.5l-15 -127.5c-4.33301 -38 -7.5 -67 -9.5 -87h-225c1.33301 8.66699 2.66602 19 3.99902 31
s3 23.333 5 34l-4 2c-19.333 -17.333 -38.166 -31 -56.499 -41s-35.666 -17.667 -51.999 -23s-31.166 -8.83301 -44.499 -10.5s-24.666 -2.5 -33.999 -2.5c-27.333 0 -50.5 5.16699 -69.5 15.5s-34.5 24.333 -46.5 42s-20.667 37.834 -26 60.501s-8 46.667 -8 72
c0 41.333 5.16699 82.166 15.5 122.499s26.333 76.333 48 108s49.334 57.334 83.001 77.001s74.167 29.5 121.5 29.5c6 0 13.667 -0.333008 23 -1s19.333 -1.66699 30 -3s21.667 -3.33301 33 -6s21.666 -6.33398 30.999 -11.001l28 228h232z" />
    <glyph glyph-name="Dcroat" unicode="&#x110;" horiz-adv-x="742" 
d="M33 0l38 307.998h-51l12 92h50l36 293h299c60 0 109.667 -7.33301 149 -22s70.5 -35 93.5 -61s39.167 -56.5 48.5 -91.5s14 -72.833 14 -113.5c0 -56 -7 -108.667 -21 -158s-36.333 -92.166 -67 -128.499s-70.167 -65.166 -118.5 -86.499s-106.5 -32 -174.5 -32h-308z
M342 524.998l-16.001 -124.998h66l-12 -92h-65l-17 -138h40c24.667 0 45.5 7 62.5 21s30.667 32.167 41 54.5s17.666 47.166 21.999 74.499s6.5 54.666 6.5 81.999c0 18 -1.5 34.5 -4.5 49.5s-8.16699 28 -15.5 39s-17.166 19.5 -29.499 25.5s-28.166 9 -47.499 9h-31z" />
    <glyph glyph-name="dcroat" unicode="&#x111;" horiz-adv-x="643" 
d="M325 610h98.9971l14 114h232l-16 -114h53l-8 -69h-53l-12.5 -101l-13 -106l-12.5 -104l-11 -95l-9 -79c-2.66699 -23.333 -4.66699 -42 -6 -56h-224c1.33301 8.66699 2.5 19 3.5 31s2.5 23.333 4.5 34l-4 2c-19.333 -17.333 -38.166 -31 -56.499 -41
s-35.666 -17.667 -51.999 -23s-31.166 -8.83301 -44.499 -10.5s-24.666 -2.5 -33.999 -2.5c-27.333 0 -50.5 5.16699 -69.5 15.5s-34.5 24.333 -46.5 42s-20.667 37.834 -26 60.501s-8 46.667 -8 72c0 40 4.83301 78.667 14.5 116s25.167 70.5 46.5 99.5
s48.5 52.167 81.5 69.5s73.167 26 120.5 26c6 0 13.667 -0.333008 23 -1s19.333 -1.83398 30 -3.50098s21.667 -4 33 -7s21.666 -6.83301 30.999 -11.5l10 73h-98zM326.997 320c-16 0 -30.9971 -8.83105 -44.9971 -26.498s-21 -41.834 -21 -72.501
c0 -21.333 4.66699 -36 14 -44s20.333 -12 33 -12c9.33301 0 19.166 1.66699 29.499 5s20.166 7.66602 29.499 12.999c1.33301 13.333 2.66602 24.833 3.99902 34.5s2.5 19.167 3.5 28.5s2.16699 18.833 3.5 28.5s3 21.167 5 34.5c-12 5.33301 -23 8.5 -33 9.5
s-17.667 1.5 -23 1.5z" />
    <glyph glyph-name="Emacron" unicode="&#x112;" horiz-adv-x="656" 
d="M32 0l85 693h549l-21 -168h-303l-11 -88h254l-19 -160h-254l-14 -107h315l-20 -170h-561zM223 885h388l-17 -136h-388z" />
    <glyph glyph-name="emacron" unicode="&#x113;" horiz-adv-x="588" 
d="M356 513c31.333 0 59.999 -2.83691 85.999 -8.50391s48.333 -14.667 67 -27s33.167 -28.666 43.5 -48.999s15.5 -45.5 15.5 -75.5c0 -15.333 -3.66699 -32 -11 -50s-21.833 -35.167 -43.5 -51.5s-52.167 -30.666 -91.5 -42.999s-90.666 -20.5 -153.999 -24.5v-8
c0 -11.333 3.83301 -19 11.5 -23s23.167 -6 46.5 -6c10 0 21.833 0.833008 35.5 2.5s28.167 3.83398 43.5 6.50098s30.5 5.66699 45.5 9s28.5 7 40.5 11l40 -132c-20 -10.667 -42.167 -19.667 -66.5 -27s-48.5 -13.166 -72.5 -17.499s-46.167 -7.33301 -66.5 -9
s-36.5 -2.5 -48.5 -2.5c-52 0 -94 6.33301 -126 19s-57 29.5 -75 50.5s-30.167 44.667 -36.5 71s-9.5 53.5 -9.5 81.5c0 39.333 6 77.333 18 114s31 69 57 97s59.667 50.333 101 67s91.333 25 150 25zM162.999 703.996h407l-17 -136h-407zM265.999 273.996
c57.333 4 86 21.667 86 53c0 4.66699 -2 10.667 -6 18s-11.667 11 -23 11c-13.333 0 -25.333 -6 -36 -18s-17.667 -33.333 -21 -64z" />
    <glyph glyph-name="Ebreve" unicode="&#x114;" horiz-adv-x="656" 
d="M32 0l85 693h549l-21 -168h-303l-11 -88h254l-19 -160h-254l-14 -107h315l-20 -170h-561zM399 727c-22 0 -42.5 4 -61.5 12s-36.5 19 -52.5 33s-30.667 30.5 -44 49.5s-25 39.833 -35 62.5l83 64c10 -16 20.833 -29.667 32.5 -41s23.5 -20.5 35.5 -27.5
s23.5 -12 34.5 -15s20.5 -4.5 28.5 -4.5c6 0 13.833 0.5 23.5 1.5s21.5 4 35.5 9s30.333 13 49 24s40 26.833 64 47.5l48 -59c-20.667 -30 -41.667 -55 -63 -75s-42.5 -36 -63.5 -48s-41.167 -20.5 -60.5 -25.5s-37.333 -7.5 -54 -7.5z" />
    <glyph glyph-name="ebreve" unicode="&#x115;" horiz-adv-x="588" 
d="M356 513c31.333 0 59.999 -2.83691 85.999 -8.50391s48.333 -14.667 67 -27s33.167 -28.666 43.5 -48.999s15.5 -45.5 15.5 -75.5c0 -15.333 -3.66699 -32 -11 -50s-21.833 -35.167 -43.5 -51.5s-52.167 -30.666 -91.5 -42.999s-90.666 -20.5 -153.999 -24.5v-8
c0 -11.333 3.83301 -19 11.5 -23s23.167 -6 46.5 -6c10 0 21.833 0.833008 35.5 2.5s28.167 3.83398 43.5 6.50098s30.5 5.66699 45.5 9s28.5 7 40.5 11l40 -132c-20 -10.667 -42.167 -19.667 -66.5 -27s-48.5 -13.166 -72.5 -17.499s-46.167 -7.33301 -66.5 -9
s-36.5 -2.5 -48.5 -2.5c-52 0 -94 6.33301 -126 19s-57 29.5 -75 50.5s-30.167 44.667 -36.5 71s-9.5 53.5 -9.5 81.5c0 39.333 6 77.333 18 114s31 69 57 97s59.667 50.333 101 67s91.333 25 150 25zM347.999 540.996c-22 0 -42.8281 4.3291 -62.4951 12.9961
s-37.834 20.5 -54.501 35.5s-31.834 32.5 -45.501 52.5s-25.5 41.333 -35.5 64l85 63c10 -17.333 21 -31.666 33 -42.999s23.667 -20.5 35 -27.5s22.5 -12 33.5 -15s20.5 -4.5 28.5 -4.5h21.5c8.33301 0 19.166 2.33301 32.499 7s29.5 12.834 48.5 24.501
s42.167 29.167 69.5 52.5l63 -63c-20.667 -30 -42.334 -55.167 -65.001 -75.5s-45 -36.666 -67 -48.999s-43.333 -21.166 -64 -26.499s-39.334 -8 -56.001 -8zM266.004 273.992c57.333 4 86 21.667 86 53c0 4.66699 -2 10.667 -6 18s-11.667 11 -23 11
c-13.333 0 -25.333 -6 -36 -18s-17.667 -33.333 -21 -64z" />
    <glyph glyph-name="Edotaccent" unicode="&#x116;" horiz-adv-x="656" 
d="M32 0l85 693h549l-21 -168h-303l-11 -88h254l-19 -160h-254l-14 -107h315l-20 -170h-561zM422 962c37.333 0 65.335 -8.5 84.002 -25.5s28 -40.167 28 -69.5c0 -15.333 -2.66699 -30.5 -8 -45.5s-13.333 -28.5 -24 -40.5s-24.5 -21.667 -41.5 -29s-36.833 -11 -59.5 -11
c-40 0 -68.5 9.16699 -85.5 27.5s-25.5 41.5 -25.5 69.5c0 16.667 2.83301 32.667 8.5 48s14.167 28.5 25.5 39.5s25.166 19.833 41.499 26.5s35.166 10 56.499 10z" />
    <glyph glyph-name="edotaccent" unicode="&#x117;" horiz-adv-x="588" 
d="M356 513c31.333 0 59.999 -2.83691 85.999 -8.50391s48.333 -14.667 67 -27s33.167 -28.666 43.5 -48.999s15.5 -45.5 15.5 -75.5c0 -15.333 -3.66699 -32 -11 -50s-21.833 -35.167 -43.5 -51.5s-52.167 -30.666 -91.5 -42.999s-90.666 -20.5 -153.999 -24.5v-8
c0 -11.333 3.83301 -19 11.5 -23s23.167 -6 46.5 -6c10 0 21.833 0.833008 35.5 2.5s28.167 3.83398 43.5 6.50098s30.5 5.66699 45.5 9s28.5 7 40.5 11l40 -132c-20 -10.667 -42.167 -19.667 -66.5 -27s-48.5 -13.166 -72.5 -17.499s-46.167 -7.33301 -66.5 -9
s-36.5 -2.5 -48.5 -2.5c-52 0 -94 6.33301 -126 19s-57 29.5 -75 50.5s-30.167 44.667 -36.5 71s-9.5 53.5 -9.5 81.5c0 39.333 6 77.333 18 114s31 69 57 97s59.667 50.333 101 67s91.333 25 150 25zM377.999 787.996c37.333 0 65.335 -8.5 84.002 -25.5
s28 -40.167 28 -69.5c0 -15.333 -2.66699 -30.5 -8 -45.5s-13.333 -28.5 -24 -40.5s-24.5 -21.667 -41.5 -29s-36.833 -11 -59.5 -11c-40 0 -68.5 9.16699 -85.5 27.5s-25.5 41.5 -25.5 69.5c0 16.667 2.83301 32.667 8.5 48s14.167 28.5 25.5 39.5
s25.166 19.833 41.499 26.5s35.166 10 56.499 10zM266.001 273.996c57.333 4 86 21.667 86 53c0 4.66699 -2 10.667 -6 18s-11.667 11 -23 11c-13.333 0 -25.333 -6 -36 -18s-17.667 -33.333 -21 -64z" />
    <glyph glyph-name="Eogonek" unicode="&#x118;" horiz-adv-x="656" 
d="M550 0c-11.333 -20 -20.1689 -40.0029 -26.502 -60.0029s-10.166 -37 -11.499 -51c-1.33301 -11.333 0.666992 -20.666 6 -27.999s15.333 -11 30 -11c6.66699 0 12.834 0.333008 18.501 1s11 1.5 16 2.5s10.333 2.33301 16 4l19.5 5.5l11 -69
c-24 -13.333 -48.5 -23.166 -73.5 -29.499s-48.167 -9.5 -69.5 -9.5c-40 0 -69.167 8.83301 -87.5 26.5s-25.833 41.834 -22.5 72.501c2.66699 18 9.66699 39.833 21 65.5s31 52.5 59 80.5h-424l85 693h549l-21 -168h-303l-11 -88h254l-19 -160h-254l-14 -107h315l-20 -170
h-43z" />
    <glyph glyph-name="eogonek" unicode="&#x119;" horiz-adv-x="588" 
d="M356 513c31.333 0 59.998 -2.83594 85.998 -8.50293s48.333 -14.667 67 -27s33.167 -28.666 43.5 -48.999s15.5 -45.5 15.5 -75.5c0 -15.333 -3.66699 -32 -11 -50s-21.833 -35.167 -43.5 -51.5s-52.167 -30.666 -91.5 -42.999s-90.666 -20.5 -153.999 -24.5v-8
c0 -11.333 3.83301 -19 11.5 -23s23.167 -6 46.5 -6c10 0 21.833 0.833008 35.5 2.5s28.167 3.83398 43.5 6.50098s30.5 5.66699 45.5 9s28.5 7 40.5 11l40 -132c-11.333 -6.66699 -23.666 -12.334 -36.999 -17.001s-27 -9 -41 -13
c-8.66699 -17.333 -15.334 -34.333 -20.001 -51s-7.66699 -31 -9 -43c-1.33301 -11.333 0.666992 -20.666 6 -27.999s15.333 -11 30 -11c6.66699 0 12.834 0.333008 18.501 1s11 1.5 16 2.5s10.333 2.33301 16 4l19.5 5.5l11 -69c-24 -13.333 -48.5 -23.166 -73.5 -29.499
s-48.167 -9.5 -69.5 -9.5c-40 0 -69.167 8.83301 -87.5 26.5s-25.833 41.834 -22.5 72.501c2 13.333 6.33301 29.166 13 47.499s17.667 38.166 33 59.499c-11.333 -1.33301 -22 -2.33301 -32 -3s-18.333 -1 -25 -1c-52 0 -94 6.33301 -126 19s-57 29.5 -75 50.5
s-30.167 44.667 -36.5 71s-9.5 53.5 -9.5 81.5c0 39.333 6 77.333 18 114s31 69 57 97s59.667 50.333 101 67s91.333 25 150 25zM265.998 273.997c57.333 4 86 21.667 86 53c0 4.66699 -2 10.667 -6 18s-11.667 11 -23 11c-13.333 0 -25.333 -6 -36 -18
s-17.667 -33.333 -21 -64z" />
    <glyph glyph-name="Ecaron" unicode="&#x11a;" horiz-adv-x="656" 
d="M32 0l85 693h549l-21 -168h-303l-11 -88h254l-19 -160h-254l-14 -107h315l-20 -170h-561zM645 895l-178 -162h-138l-134 162l58 60l160 -95l188 97z" />
    <glyph glyph-name="ecaron" unicode="&#x11b;" horiz-adv-x="588" 
d="M356 513c31.333 0 59.999 -2.83691 85.999 -8.50391s48.333 -14.667 67 -27s33.167 -28.666 43.5 -48.999s15.5 -45.5 15.5 -75.5c0 -15.333 -3.66699 -32 -11 -50s-21.833 -35.167 -43.5 -51.5s-52.167 -30.666 -91.5 -42.999s-90.666 -20.5 -153.999 -24.5v-8
c0 -11.333 3.83301 -19 11.5 -23s23.167 -6 46.5 -6c10 0 21.833 0.833008 35.5 2.5s28.167 3.83398 43.5 6.50098s30.5 5.66699 45.5 9s28.5 7 40.5 11l40 -132c-20 -10.667 -42.167 -19.667 -66.5 -27s-48.5 -13.166 -72.5 -17.499s-46.167 -7.33301 -66.5 -9
s-36.5 -2.5 -48.5 -2.5c-52 0 -94 6.33301 -126 19s-57 29.5 -75 50.5s-30.167 44.667 -36.5 71s-9.5 53.5 -9.5 81.5c0 39.333 6 77.333 18 114s31 69 57 97s59.667 50.333 101 67s91.333 25 150 25zM589.999 713.996l-179 -172h-138l-133 172l55 60l163 -96l188 98z
M265.999 273.996c57.333 4 86 21.667 86 53c0 4.66699 -2 10.667 -6 18s-11.667 11 -23 11c-13.333 0 -25.333 -6 -36 -18s-17.667 -33.333 -21 -64z" />
    <glyph glyph-name="Gcircumflex" unicode="&#x11c;" horiz-adv-x="706" 
d="M486 710c30 0 62.3301 -2.66797 96.9971 -8.00098s68 -12.666 100 -21.999l-42 -174c-23.333 4 -48.5 7.33301 -75.5 10s-50.167 4 -69.5 4c-27.333 0 -52.5 -3.33301 -75.5 -10s-42.667 -18.5 -59 -35.5s-29.166 -40 -38.499 -69s-14 -65.833 -14 -110.5
c0 -42.667 8.5 -72.334 25.5 -89.001s40.5 -25 70.5 -25c6 0 12.333 0.333008 19 1s14 1.66699 22 3l24 197h219l-42 -348c-47.333 -16.667 -94.166 -28.5 -140.499 -35.5s-88.833 -10.5 -127.5 -10.5c-65.333 0 -119.166 8.33301 -161.499 25s-75.833 38.834 -100.5 66.501
s-41.667 59.5 -51 95.5s-14 73 -14 111c0 52 6.5 103.333 19.5 154s36 96 69 136s77.333 72.333 133 97s126.5 37 212.5 37zM622.997 738.999l-164 95l-184 -93l-42 60l174 162h138l138 -162z" />
    <glyph glyph-name="gcircumflex" unicode="&#x11d;" horiz-adv-x="653" 
d="M633 444c-6 -40 -11.502 -78.332 -16.502 -114.999s-9.66699 -73 -14 -109l-12.5 -108c-4 -36 -7.66699 -73 -11 -111c-4 -42.667 -13.833 -78.5 -29.5 -107.5s-35.5 -52.5 -59.5 -70.5s-51.333 -30.833 -82 -38.5s-63 -11.5 -97 -11.5c-20 0 -41.333 1 -64 3
s-45 5 -67 9s-42.833 8.66699 -62.5 14s-36.834 11.333 -51.501 18l46 157c18.667 -5.33301 41 -10.833 67 -16.5s50.667 -8.5 74 -8.5c30 0 53.833 6.5 71.5 19.5s28.834 35.5 33.501 67.5l5 37l-7 3c-18.667 -16 -36.5 -28.5 -53.5 -37.5s-32.667 -15.833 -47 -20.5
s-26.666 -7.5 -36.999 -8.5s-18.5 -1.5 -24.5 -1.5c-31.333 0 -57.5 4.5 -78.5 13.5s-37.833 21.167 -50.5 36.5s-21.667 33.666 -27 54.999s-8 44.333 -8 69c0 20 1.5 42.167 4.5 66.5s8.5 48.833 16.5 73.5s19.333 48.5 34 71.5s34 43.5 58 61.5s52.833 32.5 86.5 43.5
s73.834 16.5 120.501 16.5c8.66699 0 23.5 -0.5 44.5 -1.5s44.5 -3.33301 70.5 -7s53.167 -9.16699 81.5 -16.5s54.5 -17 78.5 -29zM343.998 344.001c-9.33301 0 -18.667 -2.16992 -28 -6.50293s-17.833 -10.833 -25.5 -19.5s-14 -19.667 -19 -33s-7.5 -28.666 -7.5 -45.999
c0 -23.333 4.33301 -39.166 13 -47.499s19 -12.5 31 -12.5c10 0 20.333 1.83301 31 5.5s20.667 7.83398 30 12.501l23 139c-9.33301 3.33301 -18.333 5.5 -27 6.5s-15.667 1.5 -21 1.5zM549.997 525.998l-164 98l-187 -96l-46 60l175 172h138l137 -172z" />
    <glyph glyph-name="Gbreve" unicode="&#x11e;" horiz-adv-x="706" 
d="M486 710c30 0 62.3301 -2.66797 96.9971 -8.00098s68 -12.666 100 -21.999l-42 -174c-23.333 4 -48.5 7.33301 -75.5 10s-50.167 4 -69.5 4c-27.333 0 -52.5 -3.33301 -75.5 -10s-42.667 -18.5 -59 -35.5s-29.166 -40 -38.499 -69s-14 -65.833 -14 -110.5
c0 -42.667 8.5 -72.334 25.5 -89.001s40.5 -25 70.5 -25c6 0 12.333 0.333008 19 1s14 1.66699 22 3l24 197h219l-42 -348c-47.333 -16.667 -94.166 -28.5 -140.499 -35.5s-88.833 -10.5 -127.5 -10.5c-65.333 0 -119.166 8.33301 -161.499 25s-75.833 38.834 -100.5 66.501
s-41.667 59.5 -51 95.5s-14 73 -14 111c0 52 6.5 103.333 19.5 154s36 96 69 136s77.333 72.333 133 97s126.5 37 212.5 37zM433.997 739.999c-22 0 -42.5 4 -61.5 12s-36.5 19 -52.5 33s-30.667 30.5 -44 49.5s-25 39.833 -35 62.5l83 64c10 -16 20.833 -29.667 32.5 -41
s23.5 -20.5 35.5 -27.5s23.5 -12 34.5 -15s20.5 -4.5 28.5 -4.5c6 0 13.833 0.5 23.5 1.5s21.5 4 35.5 9s30.333 13 49 24s40 26.833 64 47.5l48 -59c-20.667 -30 -41.667 -55 -63 -75s-42.5 -36 -63.5 -48s-41.167 -20.5 -60.5 -25.5s-37.333 -7.5 -54 -7.5z" />
    <glyph glyph-name="gbreve" unicode="&#x11f;" horiz-adv-x="653" 
d="M633 444c-6 -40 -11.502 -78.332 -16.502 -114.999s-9.66699 -73 -14 -109l-12.5 -108c-4 -36 -7.66699 -73 -11 -111c-4 -42.667 -13.833 -78.5 -29.5 -107.5s-35.5 -52.5 -59.5 -70.5s-51.333 -30.833 -82 -38.5s-63 -11.5 -97 -11.5c-20 0 -41.333 1 -64 3
s-45 5 -67 9s-42.833 8.66699 -62.5 14s-36.834 11.333 -51.501 18l46 157c18.667 -5.33301 41 -10.833 67 -16.5s50.667 -8.5 74 -8.5c30 0 53.833 6.5 71.5 19.5s28.834 35.5 33.501 67.5l5 37l-7 3c-18.667 -16 -36.5 -28.5 -53.5 -37.5s-32.667 -15.833 -47 -20.5
s-26.666 -7.5 -36.999 -8.5s-18.5 -1.5 -24.5 -1.5c-31.333 0 -57.5 4.5 -78.5 13.5s-37.833 21.167 -50.5 36.5s-21.667 33.666 -27 54.999s-8 44.333 -8 69c0 20 1.5 42.167 4.5 66.5s8.5 48.833 16.5 73.5s19.333 48.5 34 71.5s34 43.5 58 61.5s52.833 32.5 86.5 43.5
s73.834 16.5 120.501 16.5c8.66699 0 23.5 -0.5 44.5 -1.5s44.5 -3.33301 70.5 -7s53.167 -9.16699 81.5 -16.5s54.5 -17 78.5 -29zM343.998 344.001c-9.33301 0 -18.667 -2.16992 -28 -6.50293s-17.833 -10.833 -25.5 -19.5s-14 -19.667 -19 -33s-7.5 -28.666 -7.5 -45.999
c0 -23.333 4.33301 -39.166 13 -47.499s19 -12.5 31 -12.5c10 0 20.333 1.83301 31 5.5s20.667 7.83398 30 12.501l23 139c-9.33301 3.33301 -18.333 5.5 -27 6.5s-15.667 1.5 -21 1.5zM343.997 540.998c-22 0 -42.8281 4.3291 -62.4951 12.9961s-37.834 20.5 -54.501 35.5
s-31.834 32.5 -45.501 52.5s-25.5 41.333 -35.5 64l85 63c10 -17.333 21 -31.666 33 -42.999s23.667 -20.5 35 -27.5s22.5 -12 33.5 -15s20.5 -4.5 28.5 -4.5h21.5c8.33301 0 19.166 2.33301 32.499 7s29.5 12.834 48.5 24.501s42.167 29.167 69.5 52.5l63 -63
c-20.667 -30 -42.334 -55.167 -65.001 -75.5s-45 -36.666 -67 -48.999s-43.333 -21.166 -64 -26.499s-39.334 -8 -56.001 -8z" />
    <glyph glyph-name="Gdotaccent" unicode="&#x120;" horiz-adv-x="706" 
d="M486 710c30 0 62.3301 -2.66797 96.9971 -8.00098s68 -12.666 100 -21.999l-42 -174c-23.333 4 -48.5 7.33301 -75.5 10s-50.167 4 -69.5 4c-27.333 0 -52.5 -3.33301 -75.5 -10s-42.667 -18.5 -59 -35.5s-29.166 -40 -38.499 -69s-14 -65.833 -14 -110.5
c0 -42.667 8.5 -72.334 25.5 -89.001s40.5 -25 70.5 -25c6 0 12.333 0.333008 19 1s14 1.66699 22 3l24 197h219l-42 -348c-47.333 -16.667 -94.166 -28.5 -140.499 -35.5s-88.833 -10.5 -127.5 -10.5c-65.333 0 -119.166 8.33301 -161.499 25s-75.833 38.834 -100.5 66.501
s-41.667 59.5 -51 95.5s-14 73 -14 111c0 52 6.5 103.333 19.5 154s36 96 69 136s77.333 72.333 133 97s126.5 37 212.5 37zM446.997 973.999c37.333 0 65.335 -8.5 84.002 -25.5s28 -40.167 28 -69.5c0 -15.333 -2.66699 -30.5 -8 -45.5s-13.333 -28.5 -24 -40.5
s-24.5 -21.667 -41.5 -29s-36.833 -11 -59.5 -11c-40 0 -68.5 9.16699 -85.5 27.5s-25.5 41.5 -25.5 69.5c0 16.667 2.83301 32.667 8.5 48s14.167 28.5 25.5 39.5s25.166 19.833 41.499 26.5s35.166 10 56.499 10z" />
    <glyph glyph-name="gdotaccent" unicode="&#x121;" horiz-adv-x="653" 
d="M633 444c-6 -40 -11.502 -78.332 -16.502 -114.999s-9.66699 -73 -14 -109l-12.5 -108c-4 -36 -7.66699 -73 -11 -111c-4 -42.667 -13.833 -78.5 -29.5 -107.5s-35.5 -52.5 -59.5 -70.5s-51.333 -30.833 -82 -38.5s-63 -11.5 -97 -11.5c-20 0 -41.333 1 -64 3
s-45 5 -67 9s-42.833 8.66699 -62.5 14s-36.834 11.333 -51.501 18l46 157c18.667 -5.33301 41 -10.833 67 -16.5s50.667 -8.5 74 -8.5c30 0 53.833 6.5 71.5 19.5s28.834 35.5 33.501 67.5l5 37l-7 3c-18.667 -16 -36.5 -28.5 -53.5 -37.5s-32.667 -15.833 -47 -20.5
s-26.666 -7.5 -36.999 -8.5s-18.5 -1.5 -24.5 -1.5c-31.333 0 -57.5 4.5 -78.5 13.5s-37.833 21.167 -50.5 36.5s-21.667 33.666 -27 54.999s-8 44.333 -8 69c0 20 1.5 42.167 4.5 66.5s8.5 48.833 16.5 73.5s19.333 48.5 34 71.5s34 43.5 58 61.5s52.833 32.5 86.5 43.5
s73.834 16.5 120.501 16.5c8.66699 0 23.5 -0.5 44.5 -1.5s44.5 -3.33301 70.5 -7s53.167 -9.16699 81.5 -16.5s54.5 -17 78.5 -29zM343.998 344.001c-9.33301 0 -18.667 -2.16992 -28 -6.50293s-17.833 -10.833 -25.5 -19.5s-14 -19.667 -19 -33s-7.5 -28.666 -7.5 -45.999
c0 -23.333 4.33301 -39.166 13 -47.499s19 -12.5 31 -12.5c10 0 20.333 1.83301 31 5.5s20.667 7.83398 30 12.501l23 139c-9.33301 3.33301 -18.333 5.5 -27 6.5s-15.667 1.5 -21 1.5zM377.997 787.998c37.333 0 65.335 -8.5 84.002 -25.5s28 -40.167 28 -69.5
c0 -15.333 -2.66699 -30.5 -8 -45.5s-13.333 -28.5 -24 -40.5s-24.5 -21.667 -41.5 -29s-36.833 -11 -59.5 -11c-40 0 -68.5 9.16699 -85.5 27.5s-25.5 41.5 -25.5 69.5c0 16.667 2.83301 32.667 8.5 48s14.167 28.5 25.5 39.5s25.166 19.833 41.499 26.5
s35.166 10 56.499 10z" />
    <glyph glyph-name="Gcommaaccent" unicode="&#x122;" horiz-adv-x="706" 
d="M486 710c30 0 62.3301 -2.66797 96.9971 -8.00098s68 -12.666 100 -21.999l-42 -174c-23.333 4 -48.5 7.33301 -75.5 10s-50.167 4 -69.5 4c-27.333 0 -52.5 -3.33301 -75.5 -10s-42.667 -18.5 -59 -35.5s-29.166 -40 -38.499 -69s-14 -65.833 -14 -110.5
c0 -42.667 8.5 -72.334 25.5 -89.001s40.5 -25 70.5 -25c6 0 12.333 0.333008 19 1s14 1.66699 22 3l24 197h219l-42 -348c-47.333 -16.667 -94.166 -28.5 -140.499 -35.5s-88.833 -10.5 -127.5 -10.5c-65.333 0 -119.166 8.33301 -161.499 25s-75.833 38.834 -100.5 66.501
s-41.667 59.5 -51 95.5s-14 73 -14 111c0 52 6.5 103.333 19.5 154s36 96 69 136s77.333 72.333 133 97s126.5 37 212.5 37zM382.997 -42.001c16.667 0 30.666 -2.83691 41.999 -8.50391s20.333 -13 27 -22s11.5 -19.167 14.5 -30.5s4.5 -23 4.5 -35
c0 -22 -5.16699 -43.667 -15.5 -65s-23.666 -41.5 -39.999 -60.5s-34.666 -36.167 -54.999 -51.5s-40.833 -27.333 -61.5 -36l-42 63c19.333 13.333 35.166 26.333 47.499 39s21.166 28.334 26.499 47.001c-19.333 4.66699 -33.166 12.334 -41.499 23.001
s-12.5 25.334 -12.5 44.001c0 10.667 2.5 21.667 7.5 33s12 21.333 21 30s20 15.834 33 21.501s27.833 8.5 44.5 8.5z" />
    <glyph glyph-name="gcommaaccent" unicode="&#x123;" horiz-adv-x="653" 
d="M390 546c-18 0 -33.168 2.83594 -45.501 8.50293s-22.333 13.167 -30 22.5s-13 19.666 -16 30.999s-4.5 22.666 -4.5 33.999c0 22.667 5.66699 46.167 17 70.5s26.333 47.333 45 69s40.334 41.334 65.001 59.001s50.667 31.5 78 41.5l43 -68
c-22 -14.667 -40.167 -28.834 -54.5 -42.501s-24.833 -30.834 -31.5 -51.501c19.333 -2.66699 33.833 -9.33398 43.5 -20.001s14.5 -24.667 14.5 -42c0 -14 -2.83301 -27.833 -8.5 -41.5s-13.834 -25.667 -24.501 -36s-23.667 -18.666 -39 -24.999
s-32.666 -9.5 -51.999 -9.5zM632.999 444.003c-6 -40 -11.502 -78.332 -16.502 -114.999s-9.66699 -73 -14 -109l-12.5 -108c-4 -36 -7.66699 -73 -11 -111c-4 -42.667 -13.833 -78.5 -29.5 -107.5s-35.5 -52.5 -59.5 -70.5s-51.333 -30.833 -82 -38.5s-63 -11.5 -97 -11.5
c-20 0 -41.333 1 -64 3s-45 5 -67 9s-42.833 8.66699 -62.5 14s-36.834 11.333 -51.501 18l46 157c18.667 -5.33301 41 -10.833 67 -16.5s50.667 -8.5 74 -8.5c30 0 53.833 6.5 71.5 19.5s28.834 35.5 33.501 67.5l5 37l-7 3c-18.667 -16 -36.5 -28.5 -53.5 -37.5
s-32.667 -15.833 -47 -20.5s-26.666 -7.5 -36.999 -8.5s-18.5 -1.5 -24.5 -1.5c-31.333 0 -57.5 4.5 -78.5 13.5s-37.833 21.167 -50.5 36.5s-21.667 33.666 -27 54.999s-8 44.333 -8 69c0 20 1.5 42.167 4.5 66.5s8.5 48.833 16.5 73.5s19.333 48.5 34 71.5
s34 43.5 58 61.5s52.833 32.5 86.5 43.5s73.834 16.5 120.501 16.5c8.66699 0 23.5 -0.5 44.5 -1.5s44.5 -3.33301 70.5 -7s53.167 -9.16699 81.5 -16.5s54.5 -17 78.5 -29zM343.997 344.004c-9.33301 0 -18.667 -2.16992 -28 -6.50293s-17.833 -10.833 -25.5 -19.5
s-14 -19.667 -19 -33s-7.5 -28.666 -7.5 -45.999c0 -23.333 4.33301 -39.166 13 -47.499s19 -12.5 31 -12.5c10 0 20.333 1.83301 31 5.5s20.667 7.83398 30 12.501l23 139c-9.33301 3.33301 -18.333 5.5 -27 6.5s-15.667 1.5 -21 1.5z" />
    <glyph glyph-name="Hcircumflex" unicode="&#x124;" horiz-adv-x="779" 
d="M451 0l33 274h-174l-33 -274h-244l85 693h244l-31 -250h174l31 250h245l-85 -693h-245zM618 728l-164 95l-184 -93l-42 60l174 162h138l138 -162z" />
    <glyph glyph-name="hcircumflex" unicode="&#x125;" horiz-adv-x="640" 
d="M295 432c37.333 29.333 72.168 50.166 104.501 62.499s60.166 18.5 83.499 18.5c51.333 0 87 -11.667 107 -35s30 -58.333 30 -105c0 -15.333 -1 -32 -3 -50l-39 -323h-237l35 273c0.666992 3.33301 1 6.33301 1 9v7c0 13.333 -2.83301 22.5 -8.5 27.5
s-15.167 7.5 -28.5 7.5c-6 0 -13.833 -1.33301 -23.5 -4s-19.167 -7.33398 -28.5 -14.001l-39 -306h-239l12 99.5l15.5 125l17 137.5l16.5 137.5l15 124.5c4.66699 38.667 9 72 13 100h233l-21 -161c-3.33301 -21.333 -6.33301 -42.166 -9 -62.499
s-6.66699 -42.166 -12 -65.499zM384.002 741l-164 95l-184 -93l-42 60l174 162h138l138 -162z" />
    <glyph glyph-name="Hbar" unicode="&#x126;" horiz-adv-x="779" 
d="M451 0l33 274h-174l-33 -274h-244l63 517h-56l9 74h56l13 102h244l-13 -102h174l13 102h245l-13 -102h53l-9 -74h-53l-63 -517h-245zM505 443l9 74h-174l-9 -74h174z" />
    <glyph glyph-name="hbar" unicode="&#x127;" horiz-adv-x="640" 
d="M34 623l52.002 0.000976562l13 101h233l-13 -101h173l-11 -82h-173l-10.5 -67.5c-3.66699 -24.333 -7.5 -46.166 -11.5 -65.499l5 -3c37.333 29.333 72.166 50.166 104.499 62.499s60.166 18.5 83.499 18.5c51.333 0 87 -11.667 107 -35s30 -58.333 30 -105
c0 -15.333 -1 -32 -3 -50l-35 -296h-237l31 246c0.666992 3.33301 1 6.33301 1 9v7c0 13.333 -2.83301 22.5 -8.5 27.5s-15.167 7.5 -28.5 7.5c-6 0 -13.833 -1.33301 -23.5 -4s-19.167 -7.33398 -28.5 -14.001l-35 -279h-239l66 541h-53z" />
    <glyph glyph-name="Itilde" unicode="&#x128;" horiz-adv-x="370" 
d="M38 0l85 693h243l-85 -693h-243zM346 748c-19.333 0 -38.8311 2.00391 -58.498 6.00391s-38.667 8.33301 -57 13l-51.5 13c-16 4 -30 6 -42 6l-57 -39l-54 48c10.667 23.333 21.667 42.666 33 57.999s22.666 27.666 33.999 36.999s23 15.833 35 19.5s24.333 5.5 37 5.5
c17.333 0 35 -1.83301 53 -5.5s35.667 -7.83398 53 -12.501s34.666 -8.83398 51.999 -12.501s34 -5.5 50 -5.5l58 41l52 -48c-18.667 -42.667 -39 -74 -61 -94s-47.333 -30 -76 -30z" />
    <glyph glyph-name="itilde" unicode="&#x129;" horiz-adv-x="427" 
d="M63 0l61 498h237l-61 -498h-237zM350 570c-19.333 0 -38.8311 2.00391 -58.498 6.00391s-38.667 8.33301 -57 13l-51.5 13c-16 4 -30 6 -42 6l-57 -39l-54 48c10.667 23.333 21.667 42.666 33 57.999s22.666 27.666 33.999 36.999s23 15.833 35 19.5s24.333 5.5 37 5.5
c17.333 0 35 -1.83301 53 -5.5s35.667 -7.83398 53 -12.501s34.666 -8.83398 51.999 -12.501s34 -5.5 50 -5.5l58 41l52 -48c-18.667 -42.667 -39 -74 -61 -94s-47.333 -30 -76 -30z" />
    <glyph glyph-name="Imacron" unicode="&#x12a;" horiz-adv-x="370" 
d="M38 0l85 693h243l-85 -693h-243zM68 885h388l-17 -136h-388z" />
    <glyph glyph-name="imacron" unicode="&#x12b;" horiz-adv-x="383" 
d="M48 0l61 498h237l-61 -498h-237zM47 704h407l-17 -136h-407z" />
    <glyph glyph-name="Ibreve" unicode="&#x12c;" horiz-adv-x="370" 
d="M246 728c-22 0 -42.5 4 -61.5 12s-36.5 19 -52.5 33s-30.667 30.5 -44 49.5s-25 39.833 -35 62.5l83 64c10 -16 20.833 -29.667 32.5 -41s23.5 -20.5 35.5 -27.5s23.5 -12 34.5 -15s20.5 -4.5 28.5 -4.5c6 0 13.833 0.5 23.5 1.5s21.5 4 35.5 9s30.333 13 49 24
s40 26.833 64 47.5l48 -59c-20.667 -30 -41.667 -55 -63 -75s-42.5 -36 -63.5 -48s-41.167 -20.5 -60.5 -25.5s-37.333 -7.5 -54 -7.5zM38 0l85 693h243l-85 -693h-243z" />
    <glyph glyph-name="ibreve" unicode="&#x12d;" horiz-adv-x="412" 
d="M52 0l61 498h237l-61 -498h-237zM234 541c-22 0 -42.8281 4.3291 -62.4951 12.9961s-37.834 20.5 -54.501 35.5s-31.834 32.5 -45.501 52.5s-25.5 41.333 -35.5 64l85 63c10 -17.333 21 -31.666 33 -42.999s23.667 -20.5 35 -27.5s22.5 -12 33.5 -15s20.5 -4.5 28.5 -4.5
h21.5c8.33301 0 19.166 2.33301 32.499 7s29.5 12.834 48.5 24.501s42.167 29.167 69.5 52.5l63 -63c-20.667 -30 -42.334 -55.167 -65.001 -75.5s-45 -36.666 -67 -48.999s-43.333 -21.166 -64 -26.499s-39.334 -8 -56.001 -8z" />
    <glyph glyph-name="Iogonek" unicode="&#x12e;" horiz-adv-x="370" 
d="M204 0c-11.333 -19.333 -19.834 -38.835 -25.501 -58.502s-9.16699 -36.5 -10.5 -50.5c-1.33301 -11.333 0.666992 -20.666 6 -27.999s15.333 -11 30 -11c6.66699 0 12.834 0.333008 18.501 1s11 1.5 16 2.5s10.333 2.33301 16 4l19.5 5.5l11 -69
c-24 -13.333 -48.5 -23.166 -73.5 -29.499s-48.167 -9.5 -69.5 -9.5c-40 0 -69.167 8.83301 -87.5 26.5s-25.833 41.834 -22.5 72.501c2.66699 17.333 9.5 38.666 20.5 63.999s30.167 52 57.5 80h-72l85 693h243l-85 -693h-77z" />
    <glyph glyph-name="iogonek" unicode="&#x12f;" horiz-adv-x="361" 
d="M189 0c-9.33301 -18.667 -16.6689 -36.6699 -22.002 -54.0029s-8.66602 -32.666 -9.99902 -45.999c-1.33301 -11.333 0.666992 -20.666 6 -27.999s15.333 -11 30 -11c6.66699 0 12.834 0.333008 18.501 1s11 1.5 16 2.5s10.333 2.33301 16 4l19.5 5.5l11 -69
c-24 -13.333 -48.5 -23.166 -73.5 -29.499s-48.167 -9.5 -69.5 -9.5c-40 0 -69.167 8.83301 -87.5 26.5s-25.833 41.834 -22.5 72.501c2 17.333 8.16699 37.666 18.5 60.999s27.5 48 51.5 74h-54c10.667 83.333 20.667 166.333 30 249s19.666 165.667 30.999 249h237
c-11.333 -83.333 -21.666 -166.333 -30.999 -249s-19.333 -165.667 -30 -249h-85zM244.997 758.997c42 0 72.166 -9.16602 90.499 -27.499s27.5 -42.833 27.5 -73.5c0 -36.667 -12 -66.834 -36 -90.501s-59 -35.5 -105 -35.5c-40.667 0 -70 9.33301 -88 28s-27 43 -27 73
c0 38 11.833 68.5 35.5 91.5s57.834 34.5 102.501 34.5z" />
    <glyph glyph-name="Idotaccent" unicode="&#x130;" horiz-adv-x="370" 
d="M38 0l85 693h243l-85 -693h-243zM280 980c37.333 0 65.335 -8.5 84.002 -25.5s28 -40.167 28 -69.5c0 -15.333 -2.66699 -30.5 -8 -45.5s-13.333 -28.5 -24 -40.5s-24.5 -21.667 -41.5 -29s-36.833 -11 -59.5 -11c-40 0 -68.5 9.16699 -85.5 27.5s-25.5 41.5 -25.5 69.5
c0 16.667 2.83301 32.667 8.5 48s14.167 28.5 25.5 39.5s25.166 19.833 41.499 26.5s35.166 10 56.499 10z" />
    <glyph glyph-name="dotlessi" unicode="&#x131;" horiz-adv-x="361" 
d="M37 0l61 498h237l-61 -498h-237z" />
    <glyph glyph-name="IJ" unicode="&#x132;" horiz-adv-x="818" 
d="M38 0l85 693h243l-85 -693h-243zM560 694l243 -0.000976562l-63 -510c-6.66699 -55.333 -19.667 -105.833 -39 -151.5s-46 -85.5 -80 -119.5s-75.833 -61.667 -125.5 -83s-108.5 -35 -176.5 -41l-32 167c46.667 17.333 83.334 34.833 110.001 52.5s47 36.334 61 56.001
s23.667 41 29 64s9.66602 48.5 12.999 76.5z" />
    <glyph glyph-name="ij" unicode="&#x133;" horiz-adv-x="741" 
d="M37 0c10.667 83.333 20.667 166.333 30 249s19.666 165.667 30.999 249h237c-11.333 -83.333 -21.666 -166.333 -30.999 -249s-19.333 -165.667 -30 -249h-237zM245 759c42 0 72.166 -9.16602 90.499 -27.499s27.5 -42.833 27.5 -73.5c0 -36.667 -12 -66.834 -36 -90.501
s-59 -35.5 -105 -35.5c-40.667 0 -70 9.33301 -88 28s-27 43 -27 73c0 38 11.833 68.5 35.5 91.5s57.834 34.5 102.501 34.5zM476.999 498.001l237.998 -0.000976562l-46 -385c-7.33301 -59.333 -18.166 -110.166 -32.499 -152.499s-34.666 -77.666 -60.999 -105.999
s-60 -50.666 -101 -66.999s-91.833 -27.5 -152.5 -33.5l-47 166c32 13.333 57.5 26 76.5 38s34 25.667 45 41s19 33.166 24 53.499s9.16699 45.166 12.5 74.499zM622.997 759c42 0 72.166 -9.16602 90.499 -27.499s27.5 -42.833 27.5 -73.5
c0 -36.667 -12 -66.834 -36 -90.501s-59 -35.5 -105 -35.5c-40.667 0 -70 9.33301 -88 28s-27 43 -27 73c0 38 11.833 68.5 35.5 91.5s57.834 34.5 102.501 34.5z" />
    <glyph glyph-name="Jcircumflex" unicode="&#x134;" horiz-adv-x="444" 
d="M187 695l243 -0.000976562l-63 -510c-6.66699 -55.333 -19.667 -105.833 -39 -151.5s-46 -85.5 -80 -119.5s-75.833 -61.667 -125.5 -83s-108.5 -35 -176.5 -41l-32 167c46.667 17.333 83.334 34.833 110.001 52.5s47 36.334 61 56.001s23.667 41 29 64
s9.66602 48.5 12.999 76.5zM483 736.999l-164 95l-184 -93l-42 60l174 162h138l138 -162z" />
    <glyph glyph-name="jcircumflex" unicode="&#x135;" horiz-adv-x="408" 
d="M120 498l237.998 -0.000976562l-46 -385c-7.33301 -59.333 -18.166 -110.166 -32.499 -152.499s-34.666 -77.666 -60.999 -105.999s-60 -50.666 -101 -66.999s-91.833 -27.5 -152.5 -33.5l-47 166c32 13.333 57.5 26 76.5 38s34 25.667 45 41s19 33.166 24 53.499
s9.16699 45.166 12.5 74.499zM425.998 525.999l-164 98l-187 -96l-46 60l175 172h138l137 -172z" />
    <glyph glyph-name="Kcommaaccent" unicode="&#x136;" horiz-adv-x="782" 
d="M338 488l82 93l114 112h281l-282 -263l219 -430h-266l-121 280l-65 -56l-25 -224h-242l85 693h239l-26 -203zM336 -42c16.667 0 30.666 -2.83691 41.999 -8.50391s20.333 -13 27 -22s11.5 -19.167 14.5 -30.5s4.5 -23 4.5 -35c0 -22 -5.16699 -43.667 -15.5 -65
s-23.666 -41.5 -39.999 -60.5s-34.666 -36.167 -54.999 -51.5s-40.833 -27.333 -61.5 -36l-42 63c19.333 13.333 35.166 26.333 47.499 39s21.166 28.334 26.499 47.001c-19.333 4.66699 -33.166 12.334 -41.499 23.001s-12.5 25.334 -12.5 44.001
c0 10.667 2.5 21.667 7.5 33s12 21.333 21 30s20 15.834 33 21.501s27.833 8.5 44.5 8.5z" />
    <glyph glyph-name="kcommaaccent" unicode="&#x137;" horiz-adv-x="644" 
d="M297 387l100.999 110.999h256l-199 -195l42 -48l111 -255h-235l-64 178l-41 -43l-17 -135h-241l44 361l44 361h242l-23 -178c-3.33301 -27.333 -6.66602 -53.166 -9.99902 -77.499s-8.33301 -50.833 -15 -79.5h5zM283.999 -42.001
c16.667 0 30.666 -2.83691 41.999 -8.50391s20.333 -13 27 -22s11.5 -19.167 14.5 -30.5s4.5 -23 4.5 -35c0 -22 -5.16699 -43.667 -15.5 -65s-23.666 -41.5 -39.999 -60.5s-34.666 -36.167 -54.999 -51.5s-40.833 -27.333 -61.5 -36l-42 63
c19.333 13.333 35.166 26.333 47.499 39s21.166 28.334 26.499 47.001c-19.333 4.66699 -33.166 12.334 -41.499 23.001s-12.5 25.334 -12.5 44.001c0 10.667 2.5 21.667 7.5 33s12 21.333 21 30s20 15.834 33 21.501s27.833 8.5 44.5 8.5z" />
    <glyph glyph-name="kgreenlandic" unicode="&#x138;" horiz-adv-x="644" 
d="M311 499l-7 -44.002c-1.33301 -7.33301 -2.83301 -16.166 -4.5 -26.499s-4.16699 -24.166 -7.5 -41.499h5l101 111h256l-199 -195l42 -48l111 -255h-235l-64 178l-41 -43l-17 -135h-241l30.5 249l29.5 249z" />
    <glyph glyph-name="Lacute" unicode="&#x139;" horiz-adv-x="630" 
d="M32 0l85 693h244l-65 -523h317l-20 -170h-561zM242 737l-62 85l206 184l92 -128z" />
    <glyph glyph-name="lacute" unicode="&#x13a;" horiz-adv-x="365" 
d="M344 725c-2 -18.667 -4.83203 -42.832 -8.49902 -72.499l-11.5 -97l-13 -109l-13 -109l-11 -97l-8 -72.5l64 1l7 -148c-36 -14.667 -71.833 -24.5 -107.5 -29.5s-64.834 -7.5 -87.501 -7.5c-23.333 0 -42.833 2.83301 -58.5 8.5s-28 13.5 -37 23.5
s-15.333 21.833 -19 35.5s-5.5 28.5 -5.5 44.5c0 13.333 1 27.666 3 42.999l73 586h233zM199.001 757.002l-62 85l206 184l92 -128z" />
    <glyph glyph-name="Lcommaaccent" unicode="&#x13b;" horiz-adv-x="630" 
d="M32 0l85 693h244l-65 -523h317l-20 -170h-561zM322 -42c16.667 0 30.666 -2.83691 41.999 -8.50391s20.333 -13 27 -22s11.5 -19.167 14.5 -30.5s4.5 -23 4.5 -35c0 -22 -5.16699 -43.667 -15.5 -65s-23.666 -41.5 -39.999 -60.5s-34.666 -36.167 -54.999 -51.5
s-40.833 -27.333 -61.5 -36l-42 63c19.333 13.333 35.166 26.333 47.499 39s21.166 28.334 26.499 47.001c-19.333 4.66699 -33.166 12.334 -41.499 23.001s-12.5 25.334 -12.5 44.001c0 10.667 2.5 21.667 7.5 33s12 21.333 21 30s20 15.834 33 21.501s27.833 8.5 44.5 8.5
z" />
    <glyph glyph-name="lcommaaccent" unicode="&#x13c;" horiz-adv-x="365" 
d="M344 725c-2 -18.667 -4.83203 -42.832 -8.49902 -72.499l-11.5 -97l-13 -109l-13 -109l-11 -97l-8 -72.5l64 1l7 -148c-36 -14.667 -71.833 -24.5 -107.5 -29.5s-64.834 -7.5 -87.501 -7.5c-23.333 0 -42.833 2.83301 -58.5 8.5s-28 13.5 -37 23.5
s-15.333 21.833 -19 35.5s-5.5 28.5 -5.5 44.5c0 13.333 1 27.666 3 42.999l73 586h233zM131.001 -41.998c16.667 0 30.666 -2.83691 41.999 -8.50391s20.333 -13 27 -22s11.5 -19.167 14.5 -30.5s4.5 -23 4.5 -35c0 -22 -5.16699 -43.667 -15.5 -65
s-23.666 -41.5 -39.999 -60.5s-34.666 -36.167 -54.999 -51.5s-40.833 -27.333 -61.5 -36l-42 63c19.333 13.333 35.166 26.333 47.499 39s21.166 28.334 26.499 47.001c-19.333 4.66699 -33.166 12.334 -41.499 23.001s-12.5 25.334 -12.5 44.001
c0 10.667 2.5 21.667 7.5 33s12 21.333 21 30s20 15.834 33 21.501s27.833 8.5 44.5 8.5z" />
    <glyph glyph-name="Lcaron" unicode="&#x13d;" horiz-adv-x="630" 
d="M32 0l85 693h244l-65 -523h317l-20 -170h-561zM556 717c16.667 0 30.666 -2.83691 41.999 -8.50391s20.333 -13 27 -22s11.5 -19.167 14.5 -30.5s4.5 -23 4.5 -35c0 -22 -5.16699 -43.667 -15.5 -65s-23.666 -41.5 -39.999 -60.5s-34.666 -36.167 -54.999 -51.5
s-40.833 -27.333 -61.5 -36l-42 63c19.333 13.333 35.166 26.333 47.499 39s21.166 28.334 26.499 47.001c-19.333 4.66699 -33.166 12.334 -41.499 23.001s-12.5 25.334 -12.5 44.001c0 10.667 2.5 21.667 7.5 33s12 21.333 21 30s20 15.834 33 21.501s27.833 8.5 44.5 8.5
z" />
    <glyph glyph-name="lcaron" unicode="&#x13e;" horiz-adv-x="549" 
d="M492 744c16.667 0 30.666 -2.83691 41.999 -8.50391s20.333 -13 27 -22s11.5 -19.167 14.5 -30.5s4.5 -23 4.5 -35c0 -22 -5.16699 -43.667 -15.5 -65s-23.666 -41.5 -39.999 -60.5s-34.666 -36.167 -54.999 -51.5s-40.833 -27.333 -61.5 -36l-42 63
c19.333 13.333 35.166 26.333 47.499 39s21.166 28.334 26.499 47.001c-19.333 4.66699 -33.166 12.334 -41.499 23.001s-12.5 25.334 -12.5 44.001c0 10.667 2.5 21.667 7.5 33s12 21.333 21 30s20 15.834 33 21.501s27.833 8.5 44.5 8.5zM343.999 724.996
c-2 -18.667 -4.83203 -42.832 -8.49902 -72.499l-11.5 -97l-13 -109l-13 -109l-11 -97l-8 -72.5l64 1l7 -148c-36 -14.667 -71.833 -24.5 -107.5 -29.5s-64.834 -7.5 -87.501 -7.5c-23.333 0 -42.833 2.83301 -58.5 8.5s-28 13.5 -37 23.5s-15.333 21.833 -19 35.5
s-5.5 28.5 -5.5 44.5c0 13.333 1 27.666 3 42.999l73 586h233z" />
    <glyph glyph-name="Ldot" unicode="&#x13f;" horiz-adv-x="630" 
d="M32 0l85 693h244l-65 -523h317l-20 -170h-561zM559 530c37.333 0 65.335 -8.5 84.002 -25.5s28 -40.167 28 -69.5c0 -15.333 -2.66699 -30.5 -8 -45.5s-13.333 -28.5 -24 -40.5s-24.5 -21.667 -41.5 -29s-36.833 -11 -59.5 -11c-40 0 -68.5 9.16699 -85.5 27.5
s-25.5 41.5 -25.5 69.5c0 16.667 2.83301 32.667 8.5 48s14.167 28.5 25.5 39.5s25.166 19.833 41.499 26.5s35.166 10 56.499 10z" />
    <glyph glyph-name="ldot" unicode="&#x140;" horiz-adv-x="596" 
d="M499 522c37.333 0 65.335 -8.5 84.002 -25.5s28 -40.167 28 -69.5c0 -15.333 -2.66699 -30.5 -8 -45.5s-13.333 -28.5 -24 -40.5s-24.5 -21.667 -41.5 -29s-36.833 -11 -59.5 -11c-40 0 -68.5 9.16699 -85.5 27.5s-25.5 41.5 -25.5 69.5c0 16.667 2.83301 32.667 8.5 48
s14.167 28.5 25.5 39.5s25.166 19.833 41.499 26.5s35.166 10 56.499 10zM347.002 725c-2 -18.667 -4.83203 -42.832 -8.49902 -72.499l-11.5 -97l-13 -109l-13 -109l-11 -97l-8 -72.5l64 1l7 -148c-36 -14.667 -71.833 -24.5 -107.5 -29.5s-64.834 -7.5 -87.501 -7.5
c-23.333 0 -42.833 2.83301 -58.5 8.5s-28 13.5 -37 23.5s-15.333 21.833 -19 35.5s-5.5 28.5 -5.5 44.5c0 13.333 1 27.666 3 42.999l73 586h233z" />
    <glyph glyph-name="Lslash" unicode="&#x141;" horiz-adv-x="659" 
d="M61 0l24 198l-51 -28l-32 92l97 55l47 376h244l-29 -231l93 52l32 -91l-139 -78l-22 -175h317l-20 -170h-561z" />
    <glyph glyph-name="lslash" unicode="&#x142;" horiz-adv-x="420" 
d="M371 725l-28.999 -238.999l64 35l35 -81l-111 -62l-24 -210l64 1l7 -148c-36 -14.667 -71.833 -24.5 -107.5 -29.5s-64.834 -7.5 -87.501 -7.5c-23.333 0 -42.833 2.83301 -58.5 8.5s-28 13.5 -37 23.5s-15.333 21.833 -19 35.5s-5.5 28.5 -5.5 44.5
c0 13.333 1 27.666 3 42.999l12 100l-50 -28l-29 84l93 51l47 379h233z" />
    <glyph glyph-name="Nacute" unicode="&#x143;" horiz-adv-x="816" 
d="M538 335l44 358h236l-85 -693h-248l-112 237l-54 127h-6l-44 -364h-236l85 693h248l116 -244l48 -114h8zM436 721l-62 85l206 184l92 -128z" />
    <glyph glyph-name="nacute" unicode="&#x144;" horiz-adv-x="640" 
d="M291 432c35.333 28.667 69.834 49.334 103.501 62.001s62.167 19 85.5 19c51.333 0 87.5 -11.667 108.5 -35s31.5 -58.333 31.5 -105c0 -15.333 -1 -32 -3 -50l-39 -323h-237l35 273c0.666992 3.33301 1 6.33301 1 9v7c0 13.333 -2.83301 22.5 -8.5 27.5
s-15.167 7.5 -28.5 7.5c-6 0 -13.833 -1.33301 -23.5 -4s-19.167 -7.33398 -28.5 -14.001l-39 -306h-239c10.667 83.333 20.667 166.5 30 249.5s19.666 166.167 30.999 249.5h226c-2 -11.333 -3.5 -21 -4.5 -29s-3.16699 -19.667 -6.5 -35zM313.001 537l-65 86l211 187
l86 -133z" />
    <glyph glyph-name="Ncommaaccent" unicode="&#x145;" horiz-adv-x="816" 
d="M538 335l44 358h236l-85 -693h-248l-112 237l-54 127h-6l-44 -364h-236l85 693h248l116 -244l48 -114h8zM374 -42c16.667 0 30.666 -2.83691 41.999 -8.50391s20.333 -13 27 -22s11.5 -19.167 14.5 -30.5s4.5 -23 4.5 -35c0 -22 -5.16699 -43.667 -15.5 -65
s-23.666 -41.5 -39.999 -60.5s-34.666 -36.167 -54.999 -51.5s-40.833 -27.333 -61.5 -36l-42 63c19.333 13.333 35.166 26.333 47.499 39s21.166 28.334 26.499 47.001c-19.333 4.66699 -33.166 12.334 -41.499 23.001s-12.5 25.334 -12.5 44.001
c0 10.667 2.5 21.667 7.5 33s12 21.333 21 30s20 15.834 33 21.501s27.833 8.5 44.5 8.5z" />
    <glyph glyph-name="ncommaaccent" unicode="&#x146;" horiz-adv-x="640" 
d="M291 432c35.333 28.667 69.834 49.334 103.501 62.001s62.167 19 85.5 19c51.333 0 87.5 -11.667 108.5 -35s31.5 -58.333 31.5 -105c0 -15.333 -1 -32 -3 -50l-39 -323h-237l35 273c0.666992 3.33301 1 6.33301 1 9v7c0 13.333 -2.83301 22.5 -8.5 27.5
s-15.167 7.5 -28.5 7.5c-6 0 -13.833 -1.33301 -23.5 -4s-19.167 -7.33398 -28.5 -14.001l-39 -306h-239c10.667 83.333 20.667 166.5 30 249.5s19.666 166.167 30.999 249.5h226c-2 -11.333 -3.5 -21 -4.5 -29s-3.16699 -19.667 -6.5 -35zM290.001 -42
c16.667 0 30.666 -2.83691 41.999 -8.50391s20.333 -13 27 -22s11.5 -19.167 14.5 -30.5s4.5 -23 4.5 -35c0 -22 -5.16699 -43.667 -15.5 -65s-23.666 -41.5 -39.999 -60.5s-34.666 -36.167 -54.999 -51.5s-40.833 -27.333 -61.5 -36l-42 63
c19.333 13.333 35.166 26.333 47.499 39s21.166 28.334 26.499 47.001c-19.333 4.66699 -33.166 12.334 -41.499 23.001s-12.5 25.334 -12.5 44.001c0 10.667 2.5 21.667 7.5 33s12 21.333 21 30s20 15.834 33 21.501s27.833 8.5 44.5 8.5z" />
    <glyph glyph-name="Ncaron" unicode="&#x147;" horiz-adv-x="816" 
d="M538 335l44 358h236l-85 -693h-248l-112 237l-54 127h-6l-44 -364h-236l85 693h248l116 -244l48 -114h8zM730 893l-178 -162h-138l-134 162l58 60l160 -95l188 97z" />
    <glyph glyph-name="ncaron" unicode="&#x148;" horiz-adv-x="640" 
d="M291 432c35.333 28.667 69.834 49.334 103.501 62.001s62.167 19 85.5 19c51.333 0 87.5 -11.667 108.5 -35s31.5 -58.333 31.5 -105c0 -15.333 -1 -32 -3 -50l-39 -323h-237l35 273c0.666992 3.33301 1 6.33301 1 9v7c0 13.333 -2.83301 22.5 -8.5 27.5
s-15.167 7.5 -28.5 7.5c-6 0 -13.833 -1.33301 -23.5 -4s-19.167 -7.33398 -28.5 -14.001l-39 -306h-239c10.667 83.333 20.667 166.5 30 249.5s19.666 166.167 30.999 249.5h226c-2 -11.333 -3.5 -21 -4.5 -29s-3.16699 -19.667 -6.5 -35zM580.001 714l-179 -172h-138
l-133 172l55 60l163 -96l188 98z" />
    <glyph glyph-name="napostrophe" unicode="&#x149;" horiz-adv-x="824" 
d="M475 432c35.333 28.667 69.834 49.334 103.501 62.001s62.167 19 85.5 19c51.333 0 87.5 -11.667 108.5 -35s31.5 -58.333 31.5 -105c0 -15.333 -1 -32 -3 -50l-39 -323h-237l35 273c0.666992 3.33301 1 6.33301 1 9v7c0 13.333 -2.83301 22.5 -8.5 27.5
s-15.167 7.5 -28.5 7.5c-6 0 -13.833 -1.33301 -23.5 -4s-19.167 -7.33398 -28.5 -14.001l-39 -306h-239c10.667 83.333 20.667 166.5 30 249.5s19.666 166.167 30.999 249.5h226c-2 -11.333 -3.5 -21 -4.5 -29s-3.16699 -19.667 -6.5 -35zM203.001 786
c16.667 0 30.666 -2.83691 41.999 -8.50391s20.333 -13 27 -22s11.5 -19.167 14.5 -30.5s4.5 -23 4.5 -35c0 -22 -5.16699 -43.667 -15.5 -65s-23.666 -41.5 -39.999 -60.5s-34.666 -36.167 -54.999 -51.5s-40.833 -27.333 -61.5 -36l-42 63
c19.333 13.333 35.166 26.333 47.499 39s21.166 28.334 26.499 47.001c-19.333 4.66699 -33.166 12.334 -41.499 23.001s-12.5 25.334 -12.5 44.001c0 10.667 2.5 21.667 7.5 33s12 21.333 21 30s20 15.834 33 21.501s27.833 8.5 44.5 8.5z" />
    <glyph glyph-name="Eng" unicode="&#x14a;" horiz-adv-x="816" 
d="M538 339l44.002 354h236l-84 -691c-4 -31.333 -9.16699 -62.333 -15.5 -93s-18.5 -58.334 -36.5 -83.001s-44.167 -44.5 -78.5 -59.5s-81.5 -22.5 -141.5 -22.5c-7.33301 0 -16.5 0.333008 -27.5 1s-22.5 1.83398 -34.5 3.50098s-23.833 3.5 -35.5 5.5
s-21.834 4.33301 -30.501 7l35 165c11.333 -2 20.666 -3.33301 27.999 -4s12.333 -1 15 -1c10 0 19.5 0.166992 28.5 0.5s17.167 1.83301 24.5 4.5s13.5 7.16699 18.5 13.5s8.16699 15.5 9.5 27.5l4 25l-124 245l-54 127h-6l-44 -364h-236l85 693h248l116 -240l48 -114h8z
" />
    <glyph glyph-name="eng" unicode="&#x14b;" horiz-adv-x="640" 
d="M579 0c-3.33301 -29.333 -9.16504 -57.667 -17.498 -85s-22.166 -51.666 -41.499 -72.999s-45.666 -38.5 -78.999 -51.5s-76.666 -19.5 -129.999 -19.5c-7.33301 0 -16.5 0.333008 -27.5 1s-22.333 1.66699 -34 3s-22.834 2.83301 -33.501 4.5s-19.334 3.5 -26.001 5.5
l35 158c7.33301 -0.666992 14.333 -1.16699 21 -1.5s13 -0.5 19 -0.5c21.333 0 38.666 3.66699 51.999 11s21.666 23.666 24.999 48.999l34 272c0.666992 3.33301 1 6.33301 1 9v7c0 13.333 -2.83301 22.5 -8.5 27.5s-15.167 7.5 -28.5 7.5c-6 0 -13.833 -1.33301 -23.5 -4
s-19.167 -7.33398 -28.5 -14.001l-39 -306h-239c10.667 83.333 20.667 166.5 30 249.5s19.666 166.167 30.999 249.5h226c-2 -11.333 -3.5 -21 -4.5 -29s-3.16699 -19.667 -6.5 -35l5 -3c35.333 28.667 69.833 49.334 103.5 62.001s62.167 19 85.5 19
c51.333 0 87.5 -11.667 108.5 -35s31.5 -58.333 31.5 -105c0 -15.333 -1 -32 -3 -50z" />
    <glyph glyph-name="Omacron" unicode="&#x14c;" horiz-adv-x="800" 
d="M452 709c56 0 104.5 -7.83496 145.5 -23.502s75 -37.5 102 -65.5s47.167 -61.667 60.5 -101s20 -82.666 20 -129.999c0 -58 -9 -111.667 -27 -161s-44.167 -91.666 -78.5 -126.999s-76.333 -63 -126 -83s-106.167 -30 -169.5 -30c-55.333 0 -103.333 7.66699 -144 23
s-74.334 36.833 -101.001 64.5s-46.667 60.5 -60 98.5s-20 80 -20 126c0 58.667 8.66699 113 26 163s42.833 93.167 76.5 129.5s75.334 64.833 125.001 85.5s106.5 31 170.5 31zM437 533.998c-25.333 0 -46.167 -7.66895 -62.5 -23.002s-29.333 -34.833 -39 -58.5
s-16.334 -50 -20.001 -79s-5.5 -57.5 -5.5 -85.5c0 -37.333 6.33301 -67.833 19 -91.5s35.667 -35.5 69 -35.5c24 0 43.833 7.16699 59.5 21.5s28.334 33.333 38.001 57s16.5 50.334 20.5 80.001s6 59.834 6 90.501c0 38 -6.16699 68.167 -18.5 90.5s-34.5 33.5 -66.5 33.5z
M285.999 884.996h388l-17 -136h-388z" />
    <glyph glyph-name="omacron" unicode="&#x14d;" horiz-adv-x="643" 
d="M349 511c46 0 85.832 -5.5 119.499 -16.5s61.5 -26.667 83.5 -47s38.5 -44.833 49.5 -73.5s16.5 -60.334 16.5 -95.001c0 -43.333 -6.66699 -82.833 -20 -118.5s-33.333 -66.167 -60 -91.5s-60.167 -45 -100.5 -59s-87.166 -21 -140.499 -21c-48.667 0 -90 5.5 -124 16.5
s-61.5 26.667 -82.5 47s-36.333 44.833 -46 73.5s-14.5 60.334 -14.5 95.001c0 43.333 7 82.833 21 118.5s34.5 66.167 61.5 91.5s60.333 45 100 59s85.167 21 136.5 21zM334.999 345c-12 0 -21.833 -4.16602 -29.5 -12.499s-14 -19 -19 -32s-8.5 -27.333 -10.5 -43
s-3 -31.167 -3 -46.5c0 -17.333 2.66699 -31.5 8 -42.5s15.333 -16.5 30 -16.5c21.333 0 37.333 12.333 48 37s16 57.667 16 99c0 17.333 -2.83301 31.166 -8.5 41.499s-16.167 15.5 -31.5 15.5zM175.999 704.001h407l-17 -136h-407z" />
    <glyph glyph-name="Obreve" unicode="&#x14e;" horiz-adv-x="800" 
d="M452 709c56 0 104.5 -7.83496 145.5 -23.502s75 -37.5 102 -65.5s47.167 -61.667 60.5 -101s20 -82.666 20 -129.999c0 -58 -9 -111.667 -27 -161s-44.167 -91.666 -78.5 -126.999s-76.333 -63 -126 -83s-106.167 -30 -169.5 -30c-55.333 0 -103.333 7.66699 -144 23
s-74.334 36.833 -101.001 64.5s-46.667 60.5 -60 98.5s-20 80 -20 126c0 58.667 8.66699 113 26 163s42.833 93.167 76.5 129.5s75.334 64.833 125.001 85.5s106.5 31 170.5 31zM437 533.998c-25.333 0 -46.167 -7.66895 -62.5 -23.002s-29.333 -34.833 -39 -58.5
s-16.334 -50 -20.001 -79s-5.5 -57.5 -5.5 -85.5c0 -37.333 6.33301 -67.833 19 -91.5s35.667 -35.5 69 -35.5c24 0 43.833 7.16699 59.5 21.5s28.334 33.333 38.001 57s16.5 50.334 20.5 80.001s6 59.834 6 90.501c0 38 -6.16699 68.167 -18.5 90.5s-34.5 33.5 -66.5 33.5z
M455.999 746.996c-22 0 -42.5 4 -61.5 12s-36.5 19 -52.5 33s-30.667 30.5 -44 49.5s-25 39.833 -35 62.5l83 64c10 -16 20.833 -29.667 32.5 -41s23.5 -20.5 35.5 -27.5s23.5 -12 34.5 -15s20.5 -4.5 28.5 -4.5c6 0 13.833 0.5 23.5 1.5s21.5 4 35.5 9s30.333 13 49 24
s40 26.833 64 47.5l48 -59c-20.667 -30 -41.667 -55 -63 -75s-42.5 -36 -63.5 -48s-41.167 -20.5 -60.5 -25.5s-37.333 -7.5 -54 -7.5z" />
    <glyph glyph-name="obreve" unicode="&#x14f;" horiz-adv-x="643" 
d="M349 511c46 0 85.832 -5.5 119.499 -16.5s61.5 -26.667 83.5 -47s38.5 -44.833 49.5 -73.5s16.5 -60.334 16.5 -95.001c0 -43.333 -6.66699 -82.833 -20 -118.5s-33.333 -66.167 -60 -91.5s-60.167 -45 -100.5 -59s-87.166 -21 -140.499 -21c-48.667 0 -90 5.5 -124 16.5
s-61.5 26.667 -82.5 47s-36.333 44.833 -46 73.5s-14.5 60.334 -14.5 95.001c0 43.333 7 82.833 21 118.5s34.5 66.167 61.5 91.5s60.333 45 100 59s85.167 21 136.5 21zM334.999 345c-12 0 -21.833 -4.16602 -29.5 -12.499s-14 -19 -19 -32s-8.5 -27.333 -10.5 -43
s-3 -31.167 -3 -46.5c0 -17.333 2.66699 -31.5 8 -42.5s15.333 -16.5 30 -16.5c21.333 0 37.333 12.333 48 37s16 57.667 16 99c0 17.333 -2.83301 31.166 -8.5 41.499s-16.167 15.5 -31.5 15.5zM352.999 541.001c-22 0 -42.8281 4.3291 -62.4951 12.9961
s-37.834 20.5 -54.501 35.5s-31.834 32.5 -45.501 52.5s-25.5 41.333 -35.5 64l85 63c10 -17.333 21 -31.666 33 -42.999s23.667 -20.5 35 -27.5s22.5 -12 33.5 -15s20.5 -4.5 28.5 -4.5h21.5c8.33301 0 19.166 2.33301 32.499 7s29.5 12.834 48.5 24.501
s42.167 29.167 69.5 52.5l63 -63c-20.667 -30 -42.334 -55.167 -65.001 -75.5s-45 -36.666 -67 -48.999s-43.333 -21.166 -64 -26.499s-39.334 -8 -56.001 -8z" />
    <glyph glyph-name="Ohungarumlaut" unicode="&#x150;" horiz-adv-x="800" 
d="M452 709c56 0 104.5 -7.83496 145.5 -23.502s75 -37.5 102 -65.5s47.167 -61.667 60.5 -101s20 -82.666 20 -129.999c0 -58 -9 -111.667 -27 -161s-44.167 -91.666 -78.5 -126.999s-76.333 -63 -126 -83s-106.167 -30 -169.5 -30c-55.333 0 -103.333 7.66699 -144 23
s-74.334 36.833 -101.001 64.5s-46.667 60.5 -60 98.5s-20 80 -20 126c0 58.667 8.66699 113 26 163s42.833 93.167 76.5 129.5s75.334 64.833 125.001 85.5s106.5 31 170.5 31zM437 533.998c-25.333 0 -46.167 -7.66895 -62.5 -23.002s-29.333 -34.833 -39 -58.5
s-16.334 -50 -20.001 -79s-5.5 -57.5 -5.5 -85.5c0 -37.333 6.33301 -67.833 19 -91.5s35.667 -35.5 69 -35.5c24 0 43.833 7.16699 59.5 21.5s28.334 33.333 38.001 57s16.5 50.334 20.5 80.001s6 59.834 6 90.501c0 38 -6.16699 68.167 -18.5 90.5s-34.5 33.5 -66.5 33.5z
M373.999 739.996l-67 64l172 216l107 -98zM578.999 739.996l-68 64l173 216l106 -98z" />
    <glyph glyph-name="ohungarumlaut" unicode="&#x151;" horiz-adv-x="643" 
d="M349 511c46 0 85.832 -5.5 119.499 -16.5s61.5 -26.667 83.5 -47s38.5 -44.833 49.5 -73.5s16.5 -60.334 16.5 -95.001c0 -43.333 -6.66699 -82.833 -20 -118.5s-33.333 -66.167 -60 -91.5s-60.167 -45 -100.5 -59s-87.166 -21 -140.499 -21c-48.667 0 -90 5.5 -124 16.5
s-61.5 26.667 -82.5 47s-36.333 44.833 -46 73.5s-14.5 60.334 -14.5 95.001c0 43.333 7 82.833 21 118.5s34.5 66.167 61.5 91.5s60.333 45 100 59s85.167 21 136.5 21zM334.999 345c-12 0 -21.833 -4.16602 -29.5 -12.499s-14 -19 -19 -32s-8.5 -27.333 -10.5 -43
s-3 -31.167 -3 -46.5c0 -17.333 2.66699 -31.5 8 -42.5s15.333 -16.5 30 -16.5c21.333 0 37.333 12.333 48 37s16 57.667 16 99c0 17.333 -2.83301 31.166 -8.5 41.499s-16.167 15.5 -31.5 15.5zM232.999 525.001l-68 64l171 216l107 -98zM436.999 525.001l-67 64l171 216
l106 -98z" />
    <glyph glyph-name="OE" unicode="&#x152;" horiz-adv-x="987" 
d="M481 0c-33.333 -8 -69.666 -12.001 -108.999 -12.001c-55.333 0 -103 7.66699 -143 23s-73 36.666 -99 63.999s-45.167 60 -57.5 98s-18.5 80 -18.5 126c0 62.667 8.16699 119.334 24.5 170.001s40.666 93.834 72.999 129.501s72.5 63 120.5 82s103.667 28.5 167 28.5
c10.667 0 22.667 -0.333008 36 -1s26.5 -1.66699 39.5 -3s25.5 -3 37.5 -5s22.667 -4.33301 32 -7h413l-21 -168h-282l-11 -88h237l-19 -159h-237l-14 -108h302l-20 -170h-451zM404 160.999l46.001 373h-18c-20.667 -2.66699 -38.834 -11 -54.501 -25
s-28.667 -32.333 -39 -55s-18 -48.667 -23 -78s-7.5 -60.333 -7.5 -93c0 -38 6.33301 -67.833 19 -89.5s34.667 -32.5 66 -32.5h11z" />
    <glyph glyph-name="oe" unicode="&#x153;" horiz-adv-x="942" 
d="M710 513c31.333 0 59.998 -2.83594 85.998 -8.50293s48.333 -14.667 67 -27s33.167 -28.666 43.5 -48.999s15.5 -45.5 15.5 -75.5c0 -15.333 -3.66699 -32 -11 -50s-21.833 -35.167 -43.5 -51.5s-52.167 -30.666 -91.5 -42.999s-90.666 -20.5 -153.999 -24.5v-8
c0 -11.333 3.83301 -19 11.5 -23s23.167 -6 46.5 -6c10 0 21.833 0.833008 35.5 2.5s28.167 3.83398 43.5 6.50098s30.5 5.66699 45.5 9s28.5 7 40.5 11l40 -132c-20 -10.667 -42.167 -19.667 -66.5 -27s-48.5 -13.166 -72.5 -17.499s-46.167 -7.33301 -66.5 -9
s-36.5 -2.5 -48.5 -2.5c-36 0 -68.167 4.83301 -96.5 14.5s-49.833 23.167 -64.5 40.5c-11.333 -8.66699 -24.166 -16.334 -38.499 -23.001s-29.166 -12.334 -44.499 -17.001s-30.666 -8.16699 -45.999 -10.5s-30 -3.5 -44 -3.5c-48.667 0 -90 5.5 -124 16.5
s-61.5 26.667 -82.5 47s-36.333 44.833 -46 73.5s-14.5 60.334 -14.5 95.001c0 43.333 6.66699 82.833 20 118.5s32.666 66.167 57.999 91.5s56.833 45 94.5 59s80.834 21 129.501 21c36 0 70.5 -5.33301 103.5 -16s61.833 -25.667 86.5 -45
c23.333 20 50.666 35.5 81.999 46.5s66.666 16.5 105.999 16.5zM334.998 344.997c-12 0 -21.833 -4.16602 -29.5 -12.499s-14 -19 -19 -32s-8.5 -27.333 -10.5 -43s-3 -31.167 -3 -46.5c0 -17.333 2.66699 -31.5 8 -42.5s15.333 -16.5 30 -16.5
c21.333 0 37.333 12.333 48 37s16 57.667 16 99c0 17.333 -2.83301 31.166 -8.5 41.499s-16.167 15.5 -31.5 15.5zM619.998 273.998c57.333 4 86 21.667 86 53c0 4.66699 -2 10.667 -6 18s-11.667 11 -23 11c-13.333 0 -25.333 -6 -36 -18s-17.667 -33.333 -21 -64z" />
    <glyph glyph-name="Racute" unicode="&#x154;" horiz-adv-x="718" 
d="M552 303c14.667 -5.33301 26.8369 -11.8311 36.5039 -19.498s17.667 -16.334 24 -26.001s11.166 -20.667 14.499 -33s6.33301 -25.833 9 -40.5l31 -184h-241l-27 168c-4.66699 29.333 -12.334 49.333 -23.001 60s-29.334 16 -56.001 16h-14l-29 -244h-244l85 693h344
c43.333 0 79.5 -5.16699 108.5 -15.5s52.167 -24 69.5 -41s29.666 -36.5 36.999 -58.5s11 -44.667 11 -68c0 -44 -11.5 -83.833 -34.5 -119.5s-56.833 -63.834 -101.5 -84.501v-3zM326.003 405.002h45.999c18.667 0 34.5 6.16699 47.5 18.5s19.5 29.5 19.5 51.5
c0 14 -4.16699 25.833 -12.5 35.5s-21.166 14.5 -38.499 14.5h-47zM337.002 726.002l-62 85l206 184l92 -128z" />
    <glyph glyph-name="racute" unicode="&#x155;" horiz-adv-x="508" 
d="M25 0l29.999 246.002c10.667 84 20.667 168.333 30 253h225c-2 -22 -4.33301 -39.833 -7 -53.5s-5.66699 -30.5 -9 -50.5h4c20 38 41 67 63 87s48.333 30 79 30c16.667 0 32.334 -2.5 47.001 -7.5s28.334 -13.5 41.001 -25.5l-45 -199
c-15.333 3.33301 -29.833 6.16602 -43.5 8.49902s-26.834 3.5 -39.501 3.5c-20 0 -38.833 -2.83301 -56.5 -8.5s-35.167 -14.834 -52.5 -27.501l-31 -256h-235zM220.999 537.002l-65 86l211 187l86 -133z" />
    <glyph glyph-name="Rcommaaccent" unicode="&#x156;" horiz-adv-x="718" 
d="M552 303c14.667 -5.33301 26.8369 -11.8311 36.5039 -19.498s17.667 -16.334 24 -26.001s11.166 -20.667 14.499 -33s6.33301 -25.833 9 -40.5l31 -184h-241l-27 168c-4.66699 29.333 -12.334 49.333 -23.001 60s-29.334 16 -56.001 16h-14l-29 -244h-244l85 693h344
c43.333 0 79.5 -5.16699 108.5 -15.5s52.167 -24 69.5 -41s29.666 -36.5 36.999 -58.5s11 -44.667 11 -68c0 -44 -11.5 -83.833 -34.5 -119.5s-56.833 -63.834 -101.5 -84.501v-3zM326.003 405.002h45.999c18.667 0 34.5 6.16699 47.5 18.5s19.5 29.5 19.5 51.5
c0 14 -4.16699 25.833 -12.5 35.5s-21.166 14.5 -38.499 14.5h-47zM330.002 -41.998c16.667 0 30.666 -2.83691 41.999 -8.50391s20.333 -13 27 -22s11.5 -19.167 14.5 -30.5s4.5 -23 4.5 -35c0 -22 -5.16699 -43.667 -15.5 -65s-23.666 -41.5 -39.999 -60.5
s-34.666 -36.167 -54.999 -51.5s-40.833 -27.333 -61.5 -36l-42 63c19.333 13.333 35.166 26.333 47.499 39s21.166 28.334 26.499 47.001c-19.333 4.66699 -33.166 12.334 -41.499 23.001s-12.5 25.334 -12.5 44.001c0 10.667 2.5 21.667 7.5 33s12 21.333 21 30
s20 15.834 33 21.501s27.833 8.5 44.5 8.5z" />
    <glyph glyph-name="rcommaaccent" unicode="&#x157;" horiz-adv-x="508" 
d="M25 0l29.999 246.002c10.667 84 20.667 168.333 30 253h225c-2 -22 -4.33301 -39.833 -7 -53.5s-5.66699 -30.5 -9 -50.5h4c20 38 41 67 63 87s48.333 30 79 30c16.667 0 32.334 -2.5 47.001 -7.5s28.334 -13.5 41.001 -25.5l-45 -199
c-15.333 3.33301 -29.833 6.16602 -43.5 8.49902s-26.834 3.5 -39.501 3.5c-20 0 -38.833 -2.83301 -56.5 -8.5s-35.167 -14.834 -52.5 -27.501l-31 -256h-235zM133.999 -41.998c16.667 0 30.666 -2.83691 41.999 -8.50391s20.333 -13 27 -22s11.5 -19.167 14.5 -30.5
s4.5 -23 4.5 -35c0 -22 -5.16699 -43.667 -15.5 -65s-23.666 -41.5 -39.999 -60.5s-34.666 -36.167 -54.999 -51.5s-40.833 -27.333 -61.5 -36l-42 63c19.333 13.333 35.166 26.333 47.499 39s21.166 28.334 26.499 47.001c-19.333 4.66699 -33.166 12.334 -41.499 23.001
s-12.5 25.334 -12.5 44.001c0 10.667 2.5 21.667 7.5 33s12 21.333 21 30s20 15.834 33 21.501s27.833 8.5 44.5 8.5z" />
    <glyph glyph-name="Rcaron" unicode="&#x158;" horiz-adv-x="718" 
d="M552 303c14.667 -5.33301 26.8369 -11.8311 36.5039 -19.498s17.667 -16.334 24 -26.001s11.166 -20.667 14.499 -33s6.33301 -25.833 9 -40.5l31 -184h-241l-27 168c-4.66699 29.333 -12.334 49.333 -23.001 60s-29.334 16 -56.001 16h-14l-29 -244h-244l85 693h344
c43.333 0 79.5 -5.16699 108.5 -15.5s52.167 -24 69.5 -41s29.666 -36.5 36.999 -58.5s11 -44.667 11 -68c0 -44 -11.5 -83.833 -34.5 -119.5s-56.833 -63.834 -101.5 -84.501v-3zM326.003 405.002h45.999c18.667 0 34.5 6.16699 47.5 18.5s19.5 29.5 19.5 51.5
c0 14 -4.16699 25.833 -12.5 35.5s-21.166 14.5 -38.499 14.5h-47zM653.002 897.002l-178 -162h-138l-134 162l58 60l160 -95l188 97z" />
    <glyph glyph-name="rcaron" unicode="&#x159;" horiz-adv-x="508" 
d="M25 0l29.999 246.002c10.667 84 20.667 168.333 30 253h225c-2 -22 -4.33301 -39.833 -7 -53.5s-5.66699 -30.5 -9 -50.5h4c20 38 41 67 63 87s48.333 30 79 30c16.667 0 32.334 -2.5 47.001 -7.5s28.334 -13.5 41.001 -25.5l-45 -199
c-15.333 3.33301 -29.833 6.16602 -43.5 8.49902s-26.834 3.5 -39.501 3.5c-20 0 -38.833 -2.83301 -56.5 -8.5s-35.167 -14.834 -52.5 -27.501l-31 -256h-235zM518.999 714.002l-179 -172h-138l-133 172l55 60l163 -96l188 98z" />
    <glyph glyph-name="Sacute" unicode="&#x15a;" horiz-adv-x="684" 
d="M413 710c14.667 0 32.335 -1.16406 53.002 -3.49707s42.334 -5.66602 65.001 -9.99902s45.167 -10.166 67.5 -17.499s42.833 -16 61.5 -26l-68 -168c-16 6 -33.167 11.167 -51.5 15.5s-36.333 7.83301 -54 10.5s-34.834 4.5 -51.501 5.5s-31.667 1.5 -45 1.5
c-30 0 -45 -10.333 -45 -31c0 -8.66699 9.5 -16 28.5 -22s43.167 -12.667 72.5 -20c19.333 -4.66699 41.333 -10.5 66 -17.5s48 -17.833 70 -32.5s40.5 -34.5 55.5 -59.5s22.5 -57.833 22.5 -98.5c0 -34.667 -6.16699 -67.334 -18.5 -98.001s-32.833 -57.334 -61.5 -80.001
s-66.167 -40.5 -112.5 -53.5s-103.5 -19.5 -171.5 -19.5c-16.667 0 -36.167 1 -58.5 3s-45.833 5.33301 -70.5 10s-49.834 10.667 -75.501 18s-49.834 16.666 -72.501 27.999l60 173c28.667 -10 56.667 -17.833 84 -23.5s52.5 -9.83398 75.5 -12.501
s43.167 -4.33398 60.5 -5.00098s30.666 -1 39.999 -1c22 0 37.167 3.33301 45.5 10s12.5 14.667 12.5 24c0 8.66699 -4.33301 15.5 -13 20.5s-21.667 9.83301 -39 14.5c-36 9.33301 -70 19 -102 29s-59.833 22.5 -83.5 37.5s-42.5 34.167 -56.5 57.5s-21 53.333 -21 90
c0 38 6.33301 72.5 19 103.5s32.334 57.333 59.001 79s61 38.5 103 50.5s92 18 150 18zM384.001 735.003l-62 85l206 184l92 -128z" />
    <glyph glyph-name="sacute" unicode="&#x15b;" horiz-adv-x="549" 
d="M315 512c34.667 0 69.499 -3.16699 104.499 -9.5s67.833 -17.166 98.5 -32.499l-52 -138c-28 10 -53.833 16.667 -77.5 20s-46.167 5 -67.5 5c-10 0 -17.333 -1 -22 -3s-7 -6 -7 -12c0 -4.66699 5.83301 -8.33398 17.5 -11.001l43.5 -10c17.333 -4 36 -9 56 -15
s38.667 -14.833 56 -26.5s31.833 -26.667 43.5 -45s17.5 -41.5 17.5 -69.5c0 -27.333 -5.33301 -52 -16 -74s-27.5 -40.667 -50.5 -56s-52.833 -27 -89.5 -35s-81 -12 -133 -12c-13.333 0 -29 0.666992 -47 2s-37 3.66602 -57 6.99902s-40.667 7.66602 -62 12.999
s-41.666 12.333 -60.999 21l49 144c51.333 -16 91.666 -25.5 120.999 -28.5s51 -4.5 65 -4.5c24 0 36 4.66699 36 14c0 7.33301 -4.33301 12.5 -13 15.5s-22.667 6.5 -42 10.5c-22 4.66699 -43.333 10.167 -64 16.5s-39 15 -55 26s-28.833 24.667 -38.5 41
s-14.5 36.833 -14.5 61.5c0 26.667 4.83301 51.334 14.5 74.001s24.834 42.334 45.501 59.001s47.5 29.5 80.5 38.5s73.167 13.5 120.5 13.5zM248.999 537l-65 86l211 187l86 -133z" />
    <glyph glyph-name="Scircumflex" unicode="&#x15c;" horiz-adv-x="684" 
d="M413 710c14.667 0 32.335 -1.16406 53.002 -3.49707s42.334 -5.66602 65.001 -9.99902s45.167 -10.166 67.5 -17.499s42.833 -16 61.5 -26l-68 -168c-16 6 -33.167 11.167 -51.5 15.5s-36.333 7.83301 -54 10.5s-34.834 4.5 -51.501 5.5s-31.667 1.5 -45 1.5
c-30 0 -45 -10.333 -45 -31c0 -8.66699 9.5 -16 28.5 -22s43.167 -12.667 72.5 -20c19.333 -4.66699 41.333 -10.5 66 -17.5s48 -17.833 70 -32.5s40.5 -34.5 55.5 -59.5s22.5 -57.833 22.5 -98.5c0 -34.667 -6.16699 -67.334 -18.5 -98.001s-32.833 -57.334 -61.5 -80.001
s-66.167 -40.5 -112.5 -53.5s-103.5 -19.5 -171.5 -19.5c-16.667 0 -36.167 1 -58.5 3s-45.833 5.33301 -70.5 10s-49.834 10.667 -75.501 18s-49.834 16.666 -72.501 27.999l60 173c28.667 -10 56.667 -17.833 84 -23.5s52.5 -9.83398 75.5 -12.501
s43.167 -4.33398 60.5 -5.00098s30.666 -1 39.999 -1c22 0 37.167 3.33301 45.5 10s12.5 14.667 12.5 24c0 8.66699 -4.33301 15.5 -13 20.5s-21.667 9.83301 -39 14.5c-36 9.33301 -70 19 -102 29s-59.833 22.5 -83.5 37.5s-42.5 34.167 -56.5 57.5s-21 53.333 -21 90
c0 38 6.33301 72.5 19 103.5s32.334 57.333 59.001 79s61 38.5 103 50.5s92 18 150 18zM583.001 730.003l-164 95l-184 -93l-42 60l174 162h138l138 -162z" />
    <glyph glyph-name="scircumflex" unicode="&#x15d;" horiz-adv-x="549" 
d="M315 512c34.667 0 69.499 -3.16699 104.499 -9.5s67.833 -17.166 98.5 -32.499l-52 -138c-28 10 -53.833 16.667 -77.5 20s-46.167 5 -67.5 5c-10 0 -17.333 -1 -22 -3s-7 -6 -7 -12c0 -4.66699 5.83301 -8.33398 17.5 -11.001l43.5 -10c17.333 -4 36 -9 56 -15
s38.667 -14.833 56 -26.5s31.833 -26.667 43.5 -45s17.5 -41.5 17.5 -69.5c0 -27.333 -5.33301 -52 -16 -74s-27.5 -40.667 -50.5 -56s-52.833 -27 -89.5 -35s-81 -12 -133 -12c-13.333 0 -29 0.666992 -47 2s-37 3.66602 -57 6.99902s-40.667 7.66602 -62 12.999
s-41.666 12.333 -60.999 21l49 144c51.333 -16 91.666 -25.5 120.999 -28.5s51 -4.5 65 -4.5c24 0 36 4.66699 36 14c0 7.33301 -4.33301 12.5 -13 15.5s-22.667 6.5 -42 10.5c-22 4.66699 -43.333 10.167 -64 16.5s-39 15 -55 26s-28.833 24.667 -38.5 41
s-14.5 36.833 -14.5 61.5c0 26.667 4.83301 51.334 14.5 74.001s24.834 42.334 45.501 59.001s47.5 29.5 80.5 38.5s73.167 13.5 120.5 13.5zM493.999 524l-164 98l-187 -96l-46 60l175 172h138l137 -172z" />
    <glyph glyph-name="Scedilla" unicode="&#x15e;" horiz-adv-x="684" 
d="M413 710c14.667 0 32.333 -1.16406 53 -3.49707s42.334 -5.66602 65.001 -9.99902s45.167 -10.166 67.5 -17.499s42.833 -16 61.5 -26l-68 -168c-16 6 -33.167 11.167 -51.5 15.5s-36.333 7.83301 -54 10.5s-34.834 4.5 -51.501 5.5s-31.667 1.5 -45 1.5
c-30 0 -45 -10.333 -45 -31c0 -8.66699 9.5 -16 28.5 -22s43.167 -12.667 72.5 -20c19.333 -4.66699 41.333 -10.5 66 -17.5s48 -17.833 70 -32.5s40.5 -34.5 55.5 -59.5s22.5 -57.833 22.5 -98.5c0 -32 -5.16699 -62.167 -15.5 -90.5s-27.166 -53.5 -50.499 -75.5
s-54 -40.167 -92 -54.5s-84.667 -23.5 -140 -27.5l-37 -47c29.333 -4 51.166 -13.833 65.499 -29.5s21.5 -35.167 21.5 -58.5c0 -16 -4.16699 -31.833 -12.5 -47.5s-21.5 -29.834 -39.5 -42.501s-41.333 -22.834 -70 -30.501s-63.334 -11.834 -104.001 -12.501l3 69
c34 2.66699 58.833 9.16699 74.5 19.5s23.5 21.166 23.5 32.499c0 8.66699 -4.16699 14.334 -12.5 17.001s-17.166 4 -26.499 4c-5.33301 0 -10 -0.166992 -14 -0.5s-7.66699 -0.5 -11 -0.5l-18 37l73 87c-17.333 0.666992 -36.5 2.16699 -57.5 4.5s-43 5.83301 -66 10.5
s-46.167 10.667 -69.5 18s-45.333 16 -66 26l60 173c28.667 -10 56.667 -17.833 84 -23.5s52.5 -9.83398 75.5 -12.501s43.167 -4.33398 60.5 -5.00098s30.666 -1 39.999 -1c22 0 37.167 3.33301 45.5 10s12.5 14.667 12.5 24c0 8.66699 -4.33301 15.5 -13 20.5
s-21.667 9.83301 -39 14.5c-36 9.33301 -70 19 -102 29s-59.833 22.5 -83.5 37.5s-42.5 34.167 -56.5 57.5s-21 53.333 -21 90c0 38 6.33301 72.5 19 103.5s32.334 57.333 59.001 79s61 38.5 103 50.5s92 18 150 18z" />
    </font>
</defs>
</svg>
