<?xml version="1.0" standalone="no"?>
<!DOCTYPE svg PUBLIC "-//W3C//DTD SVG 1.1//EN" "http://www.w3.org/Graphics/SVG/1.1/DTD/svg11.dtd" >
<svg>
<metadata>
Created by FontForge 20090914 at Thu Aug 14 10:57:24 2014
 By www-data
Copyright (c) 2006 Parachute&#194;&#168;, www.parachute.gr.  All rights reserved.
</metadata>
<defs>
<font id="PFAgoraSansPro-UltraBlack" horiz-adv-x="1818" >
  <font-face 
    font-family="PF Agora Sans Pro UltraBlack"
    font-weight="1000"
    font-stretch="normal"
    units-per-em="1000"
    panose-1="2 0 5 7 0 0 0 2 0 3"
    ascent="750"
    descent="-250"
    x-height="496"
    cap-height="693"
    bbox="-494 -351.007 1760 1033"
    underline-thickness="20"
    underline-position="-123"
    unicode-range="U+0020-U+FB05"
  />
<missing-glyph horiz-adv-x="460" 
d="M0 690h458v-690h-458v690zM322 94l-93 164l-92 -164h185zM322 596h-187l94 -162zM95 196l82 150l-82 151v-301zM363 196v300l-82 -152z" />
    <glyph glyph-name="fj" unicode="fj" horiz-adv-x="766" 
d="M93 348l-73 0.00292969v132l74 23v26c0 22 2.33301 46.167 7 72.5s15.667 51 33 74s43.5 42.333 78.5 58s82.5 23.5 142.5 23.5c10.667 0 25 -0.333008 43 -1s38.333 -2.33398 61 -5.00098s47 -6.16699 73 -10.5s52.333 -10.5 79 -18.5l-30 -168
c-41.333 6.66699 -74.166 11.167 -98.499 13.5s-46.5 3.5 -66.5 3.5c-27.333 0 -48.5 -4.33301 -63.5 -13s-22.5 -24.667 -22.5 -48v-12h371v-385c0 -54.667 -6.16699 -102 -18.5 -142s-31.333 -74 -57 -102s-58.334 -50.667 -98.001 -68s-86.834 -30.333 -141.501 -39
l-55 144c28.667 16 51.334 30.167 68.001 42.5s29.167 25.666 37.5 39.999s13.5 31.166 15.5 50.499s3 44 3 74v235h-125c0 -57.333 -0.166992 -115.333 -0.5 -174s-0.5 -116.667 -0.5 -174h-237z" />
    <glyph glyph-name="ffj" unicode="ffj" horiz-adv-x="1138" 
d="M100 348l-72.9961 0.00292969v132l74 23v22c0 22 2.83301 45.333 8.5 70s17.5 47.167 35.5 67.5s44.333 37.333 79 51s81 20.5 139 20.5c19.333 0 43.5 -1 72.5 -3s61.167 -8.66699 96.5 -20c19.333 16.667 44.833 30.167 76.5 40.5s71.834 15.5 120.501 15.5
c10.667 0 25.167 -0.333008 43.5 -1s38.666 -2.33398 60.999 -5.00098s46.5 -6.16699 72.5 -10.5s52.667 -10.5 80 -18.5l-31 -168c-41.333 6.66699 -74 11.167 -98 13.5s-46 3.5 -66 3.5c-28 0 -49.333 -4.33301 -64 -13s-22 -24.667 -22 -48v-22h371v-385
c0 -54.667 -6.16699 -102 -18.5 -142s-31.333 -74 -57 -102s-58.334 -50.667 -98.001 -68s-86.834 -30.333 -141.501 -39l-55 144c28.667 16 51.167 30.167 67.5 42.5s28.666 25.666 36.999 39.999s13.666 31.166 15.999 50.499s3.5 44 3.5 74v235h-125
c0 -57.333 0.166992 -115.333 0.5 -174s0.5 -116.667 0.5 -174h-238l-1 348h-129c0 -57.333 -0.166992 -115.333 -0.5 -174s-0.5 -116.667 -0.5 -174h-238zM402.004 554.003c-21.333 0 -37.333 -3.16797 -48 -9.50098s-16 -18.166 -16 -35.499v-12
c9.33301 0 18.833 0.166992 28.5 0.5s19.167 0.5 28.5 0.5h73v50c-22 4 -44 6 -66 6z" />
    <glyph glyph-name="ff" unicode="ff" horiz-adv-x="893" 
d="M465 348h-128.004c0 -57.333 -0.166992 -115.333 -0.5 -174s-0.5 -116.667 -0.5 -174h-238l1 348h-73v132l74 23v22c0 22 2.83301 45.333 8.5 70s17.5 47.167 35.5 67.5s44.167 37.333 78.5 51s80.5 20.5 138.5 20.5c19.333 0 42.833 -0.833008 70.5 -2.5
s58.834 -7.83398 93.501 -18.501c17.333 13.333 39.833 23.833 67.5 31.5s62.834 11.5 105.501 11.5c10.667 0 23.334 -0.5 38.001 -1.5s30.5 -2.5 47.5 -4.5s34.333 -4.66699 52 -8s35.167 -7.66602 52.5 -12.999l-34 -162c-17.333 4 -35.166 7 -53.499 9
s-33.166 3 -44.499 3c-16.667 0 -29.834 -2.5 -39.501 -7.5s-14.5 -13.833 -14.5 -26.5v-48h138v-149h-138v-348h-237v348zM400.996 554c-21.333 0 -37.333 -3.16797 -48 -9.50098s-16 -18.166 -16 -35.499v-12h129v51c-23.333 4 -45 6 -65 6z" />
    <glyph glyph-name="fi" unicode="fi" horiz-adv-x="767" 
d="M462 0l-1.00195 348.001h-126c0 -57.333 -0.166992 -115.333 -0.5 -174s-0.5 -116.667 -0.5 -174h-237l1 348h-73v132l74 23v26c0 22 2.33301 46.167 7 72.5s15.834 51 33.501 74s43.834 42.333 78.501 58s82 23.5 142 23.5c10.667 0 25 -0.333008 43 -1
s38.333 -2.33398 61 -5.00098s47 -6.16699 73 -10.5s52.333 -10.5 79 -18.5l-30 -168c-20.667 3.33301 -39 6 -55 8s-30.5 3.66699 -43.5 5s-24.833 2.33301 -35.5 3s-21 1 -31 1c-27.333 0 -48.5 -4.33301 -63.5 -13s-22.5 -24.667 -22.5 -48v-12h371l1 -498h-245z" />
    <glyph glyph-name="fl" unicode="fl" horiz-adv-x="776" 
d="M715 0h-244.004l1 569c-9.33301 1.33301 -18.166 2 -26.499 2h-24.5c-27.333 0 -48.5 -4.33301 -63.5 -13s-22.5 -24.667 -22.5 -48v-12h102v-150h-102v-348h-238l1 348h-73v132l74 23v26c0 22 2.33301 46.167 7 72.5s15.834 51 33.501 74s43.834 42.333 78.501 58
s82 23.5 142 23.5c15.333 0 37.333 -0.833008 66 -2.5s60.334 -5.5 95.001 -11.5l195 18z" />
    <glyph glyph-name="ffi" unicode="ffi" horiz-adv-x="1139" 
d="M831 0v348.001h-126c0 -57.333 0.166992 -115.333 0.5 -174s0.5 -116.667 0.5 -174h-238l-1 348h-129c0 -57.333 -0.166992 -115.333 -0.5 -174s-0.5 -116.667 -0.5 -174h-238l1 348h-73v132l74 23v22c0 22 2.83301 45.333 8.5 70s17.5 47.167 35.5 67.5
s44.333 37.333 79 51s81 20.5 139 20.5c19.333 0 43.5 -1 72.5 -3s61.167 -8.66699 96.5 -20c19.333 16.667 44.833 30.167 76.5 40.5s71.834 15.5 120.501 15.5c10.667 0 25.167 -0.333008 43.5 -1s38.666 -2.33398 60.999 -5.00098s46.5 -6.16699 72.5 -10.5
s52.667 -10.5 80 -18.5l-31 -168c-41.333 6.66699 -74 11.167 -98 13.5s-46 3.5 -66 3.5c-28 0 -49.333 -4.33301 -64 -13s-22 -24.667 -22 -48v-22h371l1 -498h-246zM402 554.001c-21.333 0 -37.333 -3.16797 -48 -9.50098s-16 -18.166 -16 -35.499v-11h130v50
c-22 4 -44 6 -66 6z" />
    <glyph glyph-name="ffl" unicode="ffl" horiz-adv-x="1149" 
d="M1086 0h-244.001l-1 579c-9.33301 1.33301 -18.166 2 -26.499 2h-23.5c-28 0 -49.333 -4.33301 -64 -13s-22 -24.667 -22 -48v-22h101v-150h-101c0 -57.333 0.166992 -115.333 0.5 -174s0.5 -116.667 0.5 -174h-238l-1 348h-129c0 -57.333 -0.166992 -115.333 -0.5 -174
s-0.5 -116.667 -0.5 -174h-237l1 348h-73v132l74 23v22c0 22 2.66699 45.333 8 70s17.166 47.167 35.499 67.5s44.666 37.333 78.999 51s80.5 20.5 138.5 20.5c19.333 0 43.5 -1 72.5 -3s61.167 -8.66699 96.5 -20c19.333 16.667 44.833 30.167 76.5 40.5
s72.167 15.5 121.5 15.5c14.667 0 36.334 -0.833008 65.001 -2.5s60.334 -5.5 95.001 -11.5l195 18zM401.999 554c-21.333 0 -37.333 -3.16797 -48 -9.50098s-16 -18.166 -16 -35.499v-11h130v50c-22 4 -44 6 -66 6z" />
    <glyph glyph-name="ft" unicode="ft" horiz-adv-x="894" 
d="M99 348l-72.999 0.00195312v132l74 23v52c0 22 2 44.667 6 68s13.833 44.666 29.5 63.999s39 35.166 70 47.499s73.167 18.5 126.5 18.5c21.333 0 46.166 -1.5 74.499 -4.5s59.5 -9.83301 93.5 -20.5l-34 -162c-17.333 4 -31.5 6.66699 -42.5 8s-22.167 2 -33.5 2
c-16.667 0 -29.667 -2.5 -39 -7.5s-14 -13.833 -14 -26.5v-45h155l52 143l164 12v-154h134v-150h-134v-113c0 -15.333 1.16699 -27.666 3.5 -36.999s6 -16.333 11 -21s11.5 -7.66699 19.5 -9s17.667 -2 29 -2c4.66699 0 14.167 0.666992 28.5 2s29.5 3.33301 45.5 6l26 -157
c-13.333 -5.33301 -27.5 -9.83301 -42.5 -13.5s-30 -6.83398 -45 -9.50098s-29.5 -4.5 -43.5 -5.5s-26.667 -1.5 -38 -1.5c-54.667 0 -97.5 6.33301 -128.5 19s-54.333 28.5 -70 47.5s-25.5 39.5 -29.5 61.5s-6 42.333 -6 61v172h-131
c0 -57.333 -0.166992 -115.333 -0.5 -174s-0.5 -116.667 -0.5 -174h-238z" />
    <glyph glyph-name=".notdef" horiz-adv-x="460" 
d="M0 690h458v-690h-458v690zM322 94l-93 164l-92 -164h185zM322 596h-187l94 -162zM95 196l82 150l-82 151v-301zM363 196v300l-82 -152z" />
    <glyph glyph-name="space" unicode=" " horiz-adv-x="330" 
 />
    <glyph glyph-name="exclam" unicode="!" horiz-adv-x="377" 
d="M297 720v-216l-20 -270h-185l-19 270v216h224zM299 90c0 -28 -8.66602 -51.167 -25.999 -69.5s-46.333 -27.5 -87 -27.5s-69.334 9.16699 -86.001 27.5s-25 41.5 -25 69.5c0 29.333 8.5 52.833 25.5 70.5s45.5 26.5 85.5 26.5c41.333 0 70.5 -8.83301 87.5 -26.5
s25.5 -41.167 25.5 -70.5z" />
    <glyph glyph-name="quotedbl" unicode="&#x22;" horiz-adv-x="515" 
d="M87 390l-24 305h183l-26 -305h-133zM300 390l-25 305h183l-26 -305h-132z" />
    <glyph glyph-name="numbersign" unicode="#" horiz-adv-x="642" 
d="M482 370l-19 -69h91l2 -101h-115l-50 -201h-118l48 201h-59l-50 -201h-119l49 201h-74l-1 101h99l20 69h-87l-2 98h113l47 183h117l-45 -183h59l48 183h116l-45 -183h80l2 -98h-107zM286 301h59l19 69h-59z" />
    <glyph glyph-name="dollar" unicode="$" horiz-adv-x="642" 
d="M301 -77l-59 0.000976562v87c-29.333 3.33301 -61.333 8.5 -96 15.5s-66 16.167 -94 27.5l45 149c21.333 -6.66699 39.5 -12 54.5 -16s27.667 -7 38 -9s19 -3.33301 26 -4s13.167 -1.33398 18.5 -2.00098c2.66699 0 4.16699 0.166992 4.5 0.5s1.5 0.166016 3.5 -0.500977
v103c-25.333 7.33301 -49.833 16.666 -73.5 27.999s-44.5 25 -62.5 41s-32.5 34.667 -43.5 56s-16.5 46 -16.5 74c0 58.667 17.5 105.834 52.5 141.501s82.833 57.834 143.5 66.501v72h59v-830zM332 753.001l59.998 0.00292969v-73c25.333 -3.33301 52.5 -8 81.5 -14
s53.833 -13.667 74.5 -23l-36 -141c-14 4 -26.167 7.16699 -36.5 9.5s-20 4.33301 -29 6s-17.833 3 -26.5 4s-18 2.16699 -28 3.5v-104c22.667 -6.66699 46.334 -15 71.001 -25s47.334 -22.833 68.001 -38.5s37.5 -34.834 50.5 -57.501s19.5 -49.334 19.5 -80.001
c0 -58 -19 -104.333 -57 -139s-88.667 -57.334 -152 -68.001v-90h-60v830zM418.998 201.004c0 7.33301 -1.99902 14 -5.99902 20s-11 10.667 -21 14v-67c11.333 2.66699 18.666 7.5 21.999 14.5s5 13.167 5 18.5zM211.999 486.004c0 -6.66699 1.66699 -13.167 5 -19.5
s11.666 -10.5 24.999 -12.5v65c-11.333 -1.33301 -19.166 -5.33301 -23.499 -12s-6.5 -13.667 -6.5 -21z" />
    <glyph glyph-name="percent" unicode="%" horiz-adv-x="1010" 
d="M433 468c0 -30 -3.66699 -57.833 -11 -83.5s-19 -47.834 -35 -66.501s-37 -33.334 -63 -44.001s-57.667 -16 -95 -16s-69 5.33301 -95 16s-47.167 25.334 -63.5 44.001s-28.166 40.834 -35.499 66.501s-11 53.5 -11 83.5c0 30.667 3.66699 58.667 11 84
s19.166 47.166 35.499 65.499s37.5 32.666 63.5 42.999s57.667 15.5 95 15.5s69 -5.16699 95 -15.5s47 -24.666 63 -42.999s27.667 -40.166 35 -65.499s11 -53.333 11 -84zM269 468c0 28 -2.83301 50.499 -8.5 67.499s-16.167 25.5 -31.5 25.5c-16.667 0 -27.667 -9 -33 -27
s-8 -40 -8 -66c0 -29.333 2.66699 -52.166 8 -68.499s16.333 -24.5 33 -24.5c15.333 0 25.833 8 31.5 24s8.5 39 8.5 69zM407 -18.001h-140l350 738h140zM986 199.999c0 -30 -3.66699 -57.833 -11 -83.5s-19 -47.834 -35 -66.501s-37 -33.334 -63 -44.001
s-57.667 -16 -95 -16s-69 5.33301 -95 16s-47.167 25.334 -63.5 44.001s-28.166 40.834 -35.499 66.501s-11 53.5 -11 83.5c0 30.667 3.66699 58.667 11 84s19.166 47.166 35.499 65.499s37.5 32.666 63.5 42.999s57.667 15.5 95 15.5s69 -5.16699 95 -15.5
s47 -24.666 63 -42.999s27.667 -40.166 35 -65.499s11 -53.333 11 -84zM822 199.999c0 28 -2.83301 50.499 -8.5 67.499s-16.167 25.5 -31.5 25.5c-16.667 0 -27.667 -9 -33 -27s-8 -40 -8 -66c0 -29.333 2.66699 -52.166 8 -68.499s16.333 -24.5 33 -24.5
c15.333 0 25.833 8 31.5 24s8.5 39 8.5 69z" />
    <glyph glyph-name="ampersand" unicode="&#x26;" horiz-adv-x="895" 
d="M347 -19c-40 0 -77.3311 4.66895 -111.998 14.002s-64.5 23.333 -89.5 42s-44.667 41.834 -59 69.501s-21.5 59.5 -21.5 95.5c0 18 2.33301 36.667 7 56s12.334 38.333 23.001 57s25 36.667 43 54s40.667 33 68 47c-12.667 18 -22.334 38.5 -29.001 61.5
s-10 45.167 -10 66.5c0 13.333 2.5 29.833 7.5 49.5s15 38.834 30 57.501s36 34.5 63 47.5s62.167 19.5 105.5 19.5c48 0 86.333 -6.33301 115 -19s50.667 -27.834 66 -45.501s25.333 -35.834 30 -54.501s7 -34.334 7 -47.001c0 -21.333 -4.33301 -41.166 -13 -59.499
s-19.334 -35 -32.001 -50s-26.5 -28.333 -41.5 -40s-28.833 -21.5 -41.5 -29.5l54.5 -62l57.5 -60c8.66699 8.66699 16.5 18.5 23.5 29.5s13.333 23.833 19 38.5s11 31.667 16 51s10.167 41.666 15.5 66.999h171c-1.33301 -30 -3.83301 -58 -7.5 -84
s-9.83398 -51.167 -18.501 -75.5s-20 -48.166 -34 -71.499s-31.667 -47 -53 -71l32.5 -23l35.5 -23.5l34.5 -21.5c11 -6.66699 21.167 -12.334 30.5 -17.001l-82 -133c-32 14 -65.333 31.167 -100 51.5s-65.667 41.166 -93 62.499c-61.333 -33.333 -134 -50 -218 -50z
M282.002 217.002c0 -22 9 -39.335 27 -52.002s41.667 -19 71 -19c16 0 31.667 2 47 6l-38 40.5l-31 32l-26 27.5c-8 8.66699 -15.333 17.667 -22 27c-7.33301 -7.33301 -13.833 -16.666 -19.5 -27.999s-8.5 -22.666 -8.5 -33.999zM354.002 551
c0 -6.66699 1.83301 -15.3311 5.5 -25.998s8.5 -21.334 14.5 -32.001c10 7.33301 20.5 15.666 31.5 24.999s16.5 20.333 16.5 33c0 10.667 -3.33301 18.5 -10 23.5s-15.667 7.5 -27 7.5c-8.66699 0 -16 -3 -22 -9s-9 -13.333 -9 -22z" />
    <glyph glyph-name="quotesingle" unicode="'" horiz-adv-x="315" 
d="M87 390l-24 305h183l-26 -305h-133z" />
    <glyph glyph-name="parenleft" unicode="(" horiz-adv-x="410" 
d="M66 271c0 37.333 4.33301 75.3291 13 113.996s21.334 76.834 38.001 114.501s37.334 74.5 62.001 110.5s53 70 85 102l104 -65c-10 -14 -21.333 -32 -34 -54s-24.834 -48.167 -36.501 -78.5s-21.334 -65.166 -29.001 -104.499s-11.5 -83 -11.5 -131
c0 -52 3.83301 -98.833 11.5 -140.5s17.167 -78 28.5 -109s23.333 -57.167 36 -78.5s24 -38 34 -50l-100 -66c-66 64.667 -116 134.834 -150 210.501s-51 150.834 -51 225.501z" />
    <glyph glyph-name="parenright" unicode=")" horiz-adv-x="410" 
d="M350 272c0 -74.667 -17.001 -149.83 -51.001 -225.497s-84 -145.834 -150 -210.501l-100 66c10 12 21.167 28.667 33.5 50s24.166 47.5 35.499 78.5s20.833 67.333 28.5 109s11.5 88.5 11.5 140.5c0 48 -3.83301 91.667 -11.5 131s-17.167 74.166 -28.5 104.499
s-23.333 56.5 -36 78.5s-24 40 -34 54l104 65c32 -32 60.333 -66 85 -102s45.334 -72.833 62.001 -110.5s29.334 -75.834 38.001 -114.501s13 -76.667 13 -114z" />
    <glyph glyph-name="asterisk" unicode="*" horiz-adv-x="475" 
d="M319 491l93 -85l-116 -84l-53 115l-54 -115l-117 84l94 87l-128 16l44 140l112 -65l-25 123h147l-26 -122l114 64l44 -140z" />
    <glyph glyph-name="plus" unicode="+" horiz-adv-x="642" 
d="M402 247v-175h-127v175h-165v123h165v172h127v-172h164v-123h-164z" />
    <glyph glyph-name="comma" unicode="," horiz-adv-x="349" 
d="M55 96c0 28.667 9.99902 52.668 29.999 72.001s48.333 29 85 29c23.333 0 42.833 -3.33301 58.5 -10s28.334 -15.5 38.001 -26.5s16.5 -23.667 20.5 -38s6 -29.5 6 -45.5c0 -26.667 -4.66699 -53.334 -14 -80.001s-22.166 -52 -38.499 -76s-35.333 -46 -57 -66
s-44.834 -36 -69.501 -48l-59 75c42.667 38 67.667 79.333 75 124c-26 3.33301 -45 12.833 -57 28.5s-18 36.167 -18 61.5z" />
    <glyph glyph-name="hyphen" unicode="-" horiz-adv-x="437" 
d="M68 201v151h301v-151h-301z" />
    <glyph glyph-name="period" unicode="." horiz-adv-x="326" 
d="M281 95c0 -30 -9.16602 -54.5 -27.499 -73.5s-48.833 -28.5 -91.5 -28.5s-72.834 9.5 -90.501 28.5s-26.5 43.5 -26.5 73.5c0 30.667 9 55.334 27 74.001s48 28 90 28c43.333 0 74 -9.33301 92 -28s27 -43.334 27 -74.001z" />
    <glyph glyph-name="slash" unicode="/" horiz-adv-x="434" 
d="M166 -41h-168l263 756h169z" />
    <glyph glyph-name="zero" unicode="0" horiz-adv-x="642" 
d="M624 336c0 -50 -5.5 -96 -16.5 -138s-28.833 -78.5 -53.5 -109.5s-56.5 -55.167 -95.5 -72.5s-86.5 -26 -142.5 -26s-103.5 8.66699 -142.5 26s-70.833 41.5 -95.5 72.5s-42.5 67.5 -53.5 109.5s-16.5 88 -16.5 138s5.5 96 16.5 138s28.833 78.167 53.5 108.5
s56.5 54.166 95.5 71.499s86.5 26 142.5 26s103.5 -8.66699 142.5 -26s70.833 -41.166 95.5 -71.499s42.5 -66.5 53.5 -108.5s16.5 -88 16.5 -138zM383 336c0 24.667 -0.999023 47.167 -2.99902 67.5s-5.66699 37.833 -11 52.5s-12.333 26.167 -21 34.5
s-19.334 12.5 -32.001 12.5c-13.333 0 -24.333 -4.5 -33 -13.5s-15.5 -21.167 -20.5 -36.5s-8.5 -33.166 -10.5 -53.499s-3 -41.5 -3 -63.5c0 -24.667 1 -47.334 3 -68.001s5.5 -38.334 10.5 -53.001s11.833 -26.167 20.5 -34.5s19.667 -12.5 33 -12.5
c26 0 43.667 15.333 53 46s14 71.334 14 122.001z" />
    <glyph glyph-name="one" unicode="1" horiz-adv-x="642" 
d="M218 465l-125 -17v159l149 65h216v-672h-241z" />
    <glyph glyph-name="two" unicode="2" horiz-adv-x="642" 
d="M396 164l215 -0.00195312v-164h-555v143l122 92.5c35.333 27.667 65 52.834 89 75.501s42.333 43.5 55 62.5s19 36.833 19 53.5c0 21.333 -8 36.333 -24 45s-35.333 13 -58 13c-25.333 0 -51.5 -3.83301 -78.5 -11.5s-49.833 -16.5 -68.5 -26.5l-71 147
c46 28.667 93.5 50 142.5 64s95.833 21 140.5 21c84.667 0 149 -20.167 193 -60.5s66 -94.5 66 -162.5c0 -30 -5.33301 -58.167 -16 -84.5s-25 -51.166 -43 -74.499s-38.5 -45.5 -61.5 -66.5s-46.833 -41.167 -71.5 -60.5z" />
    <glyph glyph-name="three" unicode="3" horiz-adv-x="642" 
d="M463 418c48 -17.333 83.498 -42.002 106.498 -74.002s34.5 -70 34.5 -114c0 -40 -7.5 -75 -22.5 -105s-35.833 -55 -62.5 -75s-58.667 -35.167 -96 -45.5s-78 -15.5 -122 -15.5c-10 0 -24.833 0.833008 -44.5 2.5s-41.834 4.66699 -66.501 9s-50 10.333 -76 18
s-50 17.834 -72 30.501l58 164c22 -8 41 -14.167 57 -18.5s30.333 -7.66602 43 -9.99902s24.334 -3.83301 35.001 -4.5s21.334 -1 32.001 -1c32 0 55.667 5.33301 71 16s23 24 23 40c0 6.66699 -1 13.5 -3 20.5s-6.33301 13.5 -13 19.5s-16.5 11 -29.5 15s-30.833 6 -53.5 6
c-6 0 -12.167 -0.166992 -18.5 -0.5s-13.166 -0.833008 -20.499 -1.5l-23 118l91 78l-3 8h-207v174h485l26 -147l-129 -97v-10z" />
    <glyph glyph-name="four" unicode="4" horiz-adv-x="642" 
d="M531 672v-363h96v-161h-96v-148h-233v148h-277v131l261 393h249zM295 443l-83 -134h92l-1 134h-8z" />
    <glyph glyph-name="five" unicode="5" horiz-adv-x="642" 
d="M276 294c-11.333 0 -23.8291 -1.66992 -37.4961 -5.00293s-28.5 -8.66602 -44.5 -15.999l-118 46l34 353h455v-173h-273l-5 -40c7.33301 0.666992 15.166 1.16699 23.499 1.5s15.166 0.5 20.499 0.5c42.667 0 80.834 -5.33301 114.501 -16s62.167 -26 85.5 -46
s41.166 -44.167 53.499 -72.5s18.5 -60.166 18.5 -95.499c0 -40 -7.5 -75 -22.5 -105s-35.833 -55 -62.5 -75s-58.667 -35.167 -96 -45.5s-78 -15.5 -122 -15.5c-10 0 -24.833 0.833008 -44.5 2.5s-41.834 4.66699 -66.501 9s-50 10.333 -76 18s-50 17.834 -72 30.501
l56 161c22 -7.33301 41.333 -13.333 58 -18s31.5 -8.16699 44.5 -10.5s25 -4 36 -5s22.167 -1.5 33.5 -1.5c33.333 0 57.333 5.5 72 16.5s22 25.833 22 44.5c0 20 -8.33301 34.5 -25 43.5s-37.334 13.5 -62.001 13.5z" />
    <glyph glyph-name="six" unicode="6" horiz-adv-x="642" 
d="M279 415c23.333 11.333 45.1719 18.5 65.5049 21.5s37.166 4.5 50.499 4.5c31.333 0 60 -4.66699 86 -14s48.167 -23 66.5 -41s32.666 -40.167 42.999 -66.5s15.5 -56.833 15.5 -91.5c0 -39.333 -6.83301 -74 -20.5 -104s-32.667 -55 -57 -75s-53.333 -35 -87 -45
s-70.167 -15 -109.5 -15c-52 0 -96.833 7.66699 -134.5 23s-68.834 36.666 -93.501 63.999s-42.834 60 -54.501 98s-17.5 79.667 -17.5 125c0 50 5.5 98 16.5 144s29.667 86.333 56 121s61.333 62.334 105 83.001s98.167 31 163.5 31c34 0 64.333 -1.83301 91 -5.5
s50 -8.16699 70 -13.5l-30 -169c-23.333 5.33301 -44.5 8.83301 -63.5 10.5s-35.167 2.5 -48.5 2.5c-36 0 -63.333 -7.33301 -82 -22s-31.334 -34.667 -38.001 -60zM380.006 228c0 12.667 -2.83301 24.166 -8.5 34.499s-18.834 15.5 -39.501 15.5
c-9.33301 0 -19.166 -2 -29.499 -6s-20.166 -9 -29.499 -15v-16c0 -19.333 4.16699 -35.333 12.5 -48s23.166 -19 44.499 -19c13.333 0 25 4.33301 35 13s15 22.334 15 41.001z" />
    <glyph glyph-name="seven" unicode="7" horiz-adv-x="642" 
d="M82 499v173h497v-145l-245 -527h-239l246 499h-259z" />
    <glyph glyph-name="eight" unicode="8" horiz-adv-x="642" 
d="M272 485c0 -8 2.16797 -14.8311 6.50098 -20.498s10.333 -10.834 18 -15.501s16.667 -9.16699 27 -13.5l32.5 -13.5c12 12 20.167 23.167 24.5 33.5s6.5 19.5 6.5 27.5c0 13.333 -4.83301 24.166 -14.5 32.499s-24.834 12.5 -45.501 12.5
c-17.333 0 -30.833 -4.66699 -40.5 -14s-14.5 -19 -14.5 -29zM321.001 161.002c10.667 0 19.666 1.83398 26.999 5.50098s13.166 8 17.499 13s7.66602 10.167 9.99902 15.5s3.5 9.66602 3.5 12.999c0.666992 6 0.333984 12 -0.999023 18s-5 12 -11 18
s-14.667 12.167 -26 18.5s-26.666 12.833 -45.999 19.5c-14.667 -13.333 -24.5 -25.5 -29.5 -36.5s-7.5 -22.833 -7.5 -35.5s5.33301 -24 16 -34s26.334 -15 47.001 -15zM595 493.003c0 -20 -5.33008 -42.999 -15.9971 -68.999s-30.334 -50.333 -59.001 -73
c32.667 -17.333 57 -38.5 73 -63.5s24 -55.833 24 -92.5c0 -29.333 -7.16699 -56.5 -21.5 -81.5s-34.5 -46.5 -60.5 -64.5s-57.333 -32.167 -94 -42.5s-77.334 -15.5 -122.001 -15.5c-45.333 0 -86.333 4.5 -123 13.5s-67.834 22.167 -93.501 39.5
s-45.334 38.5 -59.001 63.5s-20.5 53.167 -20.5 84.5c0 12.667 1.83301 26.334 5.5 41.001s9.5 29.667 17.5 45s18.667 30.5 32 45.5s29.666 28.833 48.999 41.5c-22 15.333 -38.833 32.666 -50.5 51.999s-17.5 43 -17.5 71c0 28.667 6.66699 55 20 79
s31.833 44.667 55.5 62s51.834 30.666 84.501 39.999s68.334 14 107.001 14c30 0 60.833 -3.33301 92.5 -10s60.667 -17.5 87 -32.5s47.833 -34.667 64.5 -59s25 -53.833 25 -88.5z" />
    <glyph glyph-name="nine" unicode="9" horiz-adv-x="642" 
d="M359 253c-23.333 -11.333 -45.1719 -18.5 -65.5049 -21.5s-37.166 -4.5 -50.499 -4.5c-31.333 0 -60 4.66699 -86 14s-48.167 23 -66.5 41s-32.666 40.167 -42.999 66.5s-15.5 56.833 -15.5 91.5c0 39.333 6.83301 74 20.5 104s32.667 55 57 75s53.333 35 87 45
s70.167 15 109.5 15c52 0 96.833 -7.66699 134.5 -23s68.834 -36.666 93.501 -63.999s42.834 -60 54.501 -98s17.5 -79.667 17.5 -125c0 -50 -5.5 -98 -16.5 -144s-29.667 -86.333 -56 -121s-61.333 -62.334 -105 -83.001s-98.167 -31 -163.5 -31
c-34 0 -64.333 1.83301 -91 5.5s-50 8.16699 -70 13.5l30 169c23.333 -5.33301 44.5 -8.83301 63.5 -10.5s35.167 -2.5 48.5 -2.5c36 0 63.333 7.33301 82 22s31.334 34.667 38.001 60zM257.994 440c0 -12.667 2.83301 -24.166 8.5 -34.499s18.834 -15.5 39.501 -15.5
c9.33301 0 19.166 2 29.499 6s20.166 9 29.499 15v16c0 19.333 -4.16699 35.333 -12.5 48s-23.166 19 -44.499 19c-13.333 0 -25 -4.33301 -35 -13s-15 -22.334 -15 -41.001z" />
    <glyph glyph-name="colon" unicode=":" horiz-adv-x="349" 
d="M291 95c0 -30 -9.16602 -54.5 -27.499 -73.5s-48.833 -28.5 -91.5 -28.5s-72.834 9.5 -90.501 28.5s-26.5 43.5 -26.5 73.5c0 30.667 9 55.334 27 74.001s48 28 90 28c43.333 0 74 -9.33301 92 -28s27 -43.334 27 -74.001zM291.001 378
c0 -30 -9.16602 -54.5 -27.499 -73.5s-48.833 -28.5 -91.5 -28.5s-72.834 9.5 -90.501 28.5s-26.5 43.5 -26.5 73.5c0 30.667 9 55.334 27 74.001s48 28 90 28c43.333 0 74 -9.33301 92 -28s27 -43.334 27 -74.001z" />
    <glyph glyph-name="semicolon" unicode=";" horiz-adv-x="349" 
d="M291 378c0 -30 -9.16602 -54.5 -27.499 -73.5s-48.833 -28.5 -91.5 -28.5s-72.834 9.5 -90.501 28.5s-26.5 43.5 -26.5 73.5c0 30.667 9 55.334 27 74.001s48 28 90 28c43.333 0 74 -9.33301 92 -28s27 -43.334 27 -74.001zM52.001 96
c0 28.667 9.99902 52.668 29.999 72.001s48.333 29 85 29c23.333 0 42.833 -3.33301 58.5 -10s28.334 -15.5 38.001 -26.5s16.5 -23.667 20.5 -38s6 -29.5 6 -45.5c0 -26.667 -4.66699 -53.334 -14 -80.001s-22.166 -52 -38.499 -76s-35.333 -46 -57 -66
s-44.834 -36 -69.501 -48l-59 75c42.667 38 67.667 79.333 75 124c-26 3.33301 -45 12.833 -57 28.5s-18 36.167 -18 61.5z" />
    <glyph glyph-name="less" unicode="&#x3c;" horiz-adv-x="662" 
d="M593 9l-520 242v99l520 245v-144l-343 -150l343 -151v-141z" />
    <glyph glyph-name="equal" unicode="=" horiz-adv-x="662" 
d="M101 333v119h460v-119h-460zM101 146v118h460v-118h-460z" />
    <glyph glyph-name="greater" unicode="&#x3e;" horiz-adv-x="662" 
d="M74 150l343 151l-343 150v144l520 -245v-99l-520 -242v141z" />
    <glyph glyph-name="question" unicode="?" horiz-adv-x="587" 
d="M299 722c42 0 78.999 -5.1709 110.999 -15.5039s59 -24.666 81 -42.999s38.5 -40.166 49.5 -65.499s16.5 -53 16.5 -83c0 -20 -3.16699 -38.333 -9.5 -55s-14.5 -32.167 -24.5 -46.5s-21.167 -27.5 -33.5 -39.5l-37.5 -35c-20 -17.333 -37.667 -34.666 -53 -51.999
s-23 -36.333 -23 -57v-20h-201v54c0 20 2.33301 38 7 54s10.834 30.167 18.501 42.5s16 23.5 25 33.5l26.5 29c12.667 12 23.5 23.667 32.5 35s13.5 24 13.5 38c0 14.667 -5 26.334 -15 35.001s-25 13 -45 13c-44.667 0 -90.667 -8.66699 -138 -26l-49 157
c52 20 98.333 32.833 139 38.5s77 8.5 109 8.5zM388.999 81.9961c0 -28 -8.66602 -51.167 -25.999 -69.5s-46.333 -27.5 -87 -27.5s-69.334 9.16699 -86.001 27.5s-25 41.5 -25 69.5c0 29.333 8.5 52.833 25.5 70.5s45.5 26.5 85.5 26.5c41.333 0 70.5 -8.83301 87.5 -26.5
s25.5 -41.167 25.5 -70.5z" />
    <glyph glyph-name="at" unicode="@" horiz-adv-x="1043" 
d="M545 741c65.333 0 123.835 -9.00195 175.502 -27.002s95.5 -43.5 131.5 -76.5s63.5 -72.833 82.5 -119.5s28.5 -98.667 28.5 -156c0 -38 -6 -72.167 -18 -102.5s-29 -56.333 -51 -78s-48.5 -38.167 -79.5 -49.5s-65.5 -17 -103.5 -17
c-13.333 0 -27.666 1.16699 -42.999 3.5s-30 6.33301 -44 12s-26.5 13.167 -37.5 22.5s-19.5 21 -25.5 35c-20 -21.333 -41.667 -35.333 -65 -42s-43 -10 -59 -10c-27.333 0 -49.5 4.16699 -66.5 12.5s-30.333 18.666 -40 30.999s-16.167 25.5 -19.5 39.5s-5 26.667 -5 38
c0 9.33301 1 19.833 3 31.5s6.83301 22.834 14.5 33.501s18.667 20.167 33 28.5s34.166 14.5 59.499 18.5l119 14v5c0 6.66699 -1.5 12.334 -4.5 17.001s-13.5 7 -31.5 7c-15.333 0 -33 -1.33301 -53 -4s-39.333 -6.33398 -58 -11.001l-27 113
c26 9.33301 54 16.666 84 21.999s60.667 8 92 8c25.333 0 49 -2.16699 71 -6.5s41.167 -11.666 57.5 -21.999s29.166 -24.166 38.499 -41.499s14 -39.333 14 -66v-137c0 -5.33301 1.83301 -10.333 5.5 -15s12.167 -7 25.5 -7c18 0 34.333 7.83301 49 23.5
s22 42.834 22 81.501c0 37.333 -6 71.666 -18 102.999s-29.667 58.333 -53 81s-52 40.334 -86 53.001s-73.333 19 -118 19c-46 0 -88.667 -7.33301 -128 -22s-73.333 -34.667 -102 -60s-51.167 -55.333 -67.5 -90s-24.5 -72 -24.5 -112c0 -41.333 7.33301 -79.5 22 -114.5
s35 -65.167 61 -90.5s57.167 -45.166 93.5 -59.499s76.5 -21.5 120.5 -21.5c18 0 40.333 2 67 6s60 12.333 100 25l45 -116c-37.333 -20 -75.166 -33.333 -113.499 -40s-71.833 -10 -100.5 -10c-72 0 -135.333 10.667 -190 32s-100.334 50.666 -137.001 87.999
s-64.334 81.5 -83.001 132.5s-28 106.167 -28 165.5c0 60.667 11.5 116.667 34.5 168s55.167 95.833 96.5 133.5s90.333 67.167 147 88.5s119 32 187 32zM516.002 256.998c7.33301 0 13.668 2 19.001 6v36l-21 -4c-5.33301 -1.33301 -8.83301 -3.5 -10.5 -6.5
s-2.5 -6.16699 -2.5 -9.5c0 -6 1.16699 -11.167 3.5 -15.5s6.16602 -6.5 11.499 -6.5z" />
    <glyph glyph-name="A" unicode="A" horiz-adv-x="805" 
d="M510 123h-220l-39 -123h-246l249 693h315l231 -693h-256zM401 525l-30 -141l-30 -103h123l-29 106l-26 138h-8z" />
    <glyph glyph-name="B" unicode="B" horiz-adv-x="738" 
d="M591 362c24 -6 43.168 -15.666 57.501 -28.999s25.166 -27.666 32.499 -42.999s12.166 -30.333 14.499 -45s3.5 -26.667 3.5 -36c0 -32 -6 -60.833 -18 -86.5s-29.167 -47.667 -51.5 -66s-49.5 -32.333 -81.5 -42s-68 -14.5 -108 -14.5h-381v693h389
c38.667 0 72.5 -4.83301 101.5 -14.5s53 -23.167 72 -40.5s33.167 -38 42.5 -62s14 -50.667 14 -80c0 -6.66699 -1 -15.667 -3 -27s-6.16699 -23.333 -12.5 -36s-15.166 -24.834 -26.499 -36.501s-26.333 -20.834 -45 -27.501v-7zM311.001 279.001v-109.001h66
c18.667 0 33.167 4.83301 43.5 14.5s15.5 23.167 15.5 40.5c0 16.667 -4.66699 29.834 -14 39.501s-24.333 14.5 -45 14.5h-66zM311.001 525v-99h59c33.333 0 50 16.333 50 49c0 15.333 -4 27.5 -12 36.5s-20.667 13.5 -38 13.5h-59z" />
    <glyph glyph-name="C" unicode="C" horiz-adv-x="683" 
d="M427 710c31.333 0 63.8301 -2.66992 97.4971 -8.00293s67.5 -12.666 101.5 -21.999l-27 -179c-25.333 4 -49.666 7.33301 -72.999 10s-44.666 4 -63.999 4c-22 0 -42.667 -2.16699 -62 -6.5s-36 -12.166 -50 -23.499s-25 -27.333 -33 -48s-12 -47 -12 -79
c0 -39.333 3.83301 -70.5 11.5 -93.5s18.834 -40.333 33.501 -52s32.167 -19.167 52.5 -22.5s43.166 -5 68.499 -5c6.66699 0 16.5 0.5 29.5 1.5s27 2.33301 42 4s30.167 3.66699 45.5 6s29 4.83301 41 7.5l36 -173c-38 -14 -79.667 -24.667 -125 -32s-88.333 -11 -129 -11
c-76.667 0 -139.167 10 -187.5 30s-86.166 46.5 -113.499 79.5s-46 70.833 -56 113.5s-15 86.334 -15 131.001c0 46.667 5.83301 92 17.5 136s32.167 83.167 61.5 117.5s69 62 119 83s113.333 31.5 190 31.5z" />
    <glyph glyph-name="D" unicode="D" horiz-adv-x="765" 
d="M60 0l-0.000976562 692.999h317c69.333 0 126.5 -9.16699 171.5 -27.5s80.5 -43.166 106.5 -74.499s44.167 -68 54.5 -110s15.5 -86.333 15.5 -133c0 -45.333 -6 -89 -18 -131s-31.667 -79 -59 -111s-63.166 -57.667 -107.499 -77s-98.833 -29 -163.5 -29h-317z
M311.999 524.999l-0.000976562 -354.998h47c21.333 0 38.833 4.83301 52.5 14.5s24.334 22.667 32.001 39s13 35.166 16 56.499s4.5 43.666 4.5 66.999c0 24 -1.66699 46.833 -5 68.5s-9.16602 40.5 -17.499 56.5s-19.833 28.833 -34.5 38.5s-33.334 14.5 -56.001 14.5h-39z
" />
    <glyph glyph-name="E" unicode="E" horiz-adv-x="676" 
d="M59 0v693h566v-168h-313v-88h262v-160h-262v-107h325v-170h-578z" />
    <glyph glyph-name="F" unicode="F" horiz-adv-x="640" 
d="M59 0v693h561v-168h-310v-113h218v-159h-218v-253h-251z" />
    <glyph glyph-name="G" unicode="G" horiz-adv-x="728" 
d="M437 710c31.333 0 65.998 -2.66895 103.998 -8.00195s74 -12.666 108 -21.999l-26 -174c-25.333 4 -52 7.33301 -80 10s-51.667 4 -71 4c-26.667 0 -50.334 -2.83301 -71.001 -8.5s-38.167 -15.5 -52.5 -29.5s-25.166 -33.167 -32.499 -57.5s-11 -54.833 -11 -91.5
c0 -30 2.83301 -54.667 8.5 -74s13.5 -34.833 23.5 -46.5s22.167 -19.834 36.5 -24.501s30.166 -7 47.499 -7c6 0 12.333 0.333008 19 1s14.334 1.66699 23.001 3v197h226v-348c-46.667 -16.667 -94.667 -28.5 -144 -35.5s-94 -10.5 -134 -10.5
c-76.667 0 -139.167 10.667 -187.5 32s-86.166 49 -113.499 83s-46 72.333 -56 115s-15 85.667 -15 129c0 46.667 5.83301 91.834 17.5 135.501s32.334 82.334 62.001 116.001s70.167 60.667 121.5 81s117 30.5 197 30.5z" />
    <glyph glyph-name="H" unicode="H" horiz-adv-x="803" 
d="M491 0v274h-180v-274h-251v693h251v-250h180v250h252v-693h-252z" />
    <glyph glyph-name="I" unicode="I" horiz-adv-x="381" 
d="M65 0v693h250v-693h-250z" />
    <glyph glyph-name="J" unicode="J" horiz-adv-x="458" 
d="M131 694l250.001 0.000976562v-510c0 -110.667 -32.167 -199.834 -96.5 -267.501s-160.5 -110.167 -288.5 -127.5l-54 167c40.667 20 73.5 38.5 98.5 55.5s44.167 34.833 57.5 53.5s22.166 39.167 26.499 61.5s6.5 48.5 6.5 78.5v489z" />
    <glyph glyph-name="K" unicode="K" horiz-adv-x="806" 
d="M317 489l71 91l96 113h294l-256 -263l279 -430h-304l-150 266l-38 -39v-227h-249v693h249v-202z" />
    <glyph glyph-name="L" unicode="L" horiz-adv-x="649" 
d="M59 0v693h251v-523h327v-170h-578z" />
    <glyph glyph-name="M" unicode="M" horiz-adv-x="1005" 
d="M692 373c-3.33301 -9.33301 -6.83301 -19.834 -10.5 -31.501s-7.16699 -23.5 -10.5 -35.5s-6.83301 -23.833 -10.5 -35.5l-9.5 -30.5l-60 -162h-189l-56 156l-37 127h-5v-361h-242v693h322l70 -210l41 -164h10c4 10.667 7.83301 23 11.5 37l11 43l11 42.5
c3.66699 13.667 7.5 25.834 11.5 36.501l78 215h315v-693h-246v373h-5z" />
    <glyph glyph-name="N" unicode="N" horiz-adv-x="841" 
d="M538 339v354h243v-693h-255l-146 237l-71 127h-6v-364h-243v693h255l151 -240l64 -114h8z" />
    <glyph glyph-name="O" unicode="O" horiz-adv-x="825" 
d="M785 350c0 -52 -7.83301 -100.167 -23.5 -144.5s-39.167 -82.666 -70.5 -114.999s-70.166 -57.5 -116.499 -75.5s-100.5 -27 -162.5 -27s-116.167 9 -162.5 27s-85 43.167 -116 75.5s-54.333 70.666 -70 114.999s-23.5 92.5 -23.5 144.5s7.83301 100 23.5 144
s39 81.833 70 113.5s69.667 56.5 116 74.5s100.5 27 162.5 27s116.167 -9 162.5 -27s85.166 -42.833 116.499 -74.5s54.833 -69.5 70.5 -113.5s23.5 -92 23.5 -144zM517 350c0 27.333 -1.66797 52.334 -5.00098 75.001s-9 42 -17 58s-18.667 28.5 -32 37.5
s-30.333 13.5 -51 13.5c-22 0 -39.833 -4.83301 -53.5 -14.5s-24.334 -23 -32.001 -40s-13 -36.667 -16 -59s-4.5 -45.833 -4.5 -70.5c0 -28.667 1.5 -54.667 4.5 -78s8.33301 -43.166 16 -59.499s18.334 -29 32.001 -38s31.5 -13.5 53.5 -13.5
c21.333 0 38.833 4.33301 52.5 13s24.334 21.167 32.001 37.5s13 36.166 16 59.499s4.5 49.666 4.5 78.999z" />
    <glyph glyph-name="P" unicode="P" horiz-adv-x="664" 
d="M655 464c0 -31.333 -5.5 -60.832 -16.5 -88.499s-27.5 -51.834 -49.5 -72.501s-49 -37 -81 -49s-69 -18 -111 -18h-86v-236h-252v693h322c52 0 95.667 -6 131 -18s63.5 -28.333 84.5 -49s36 -45 45 -73s13.5 -57.667 13.5 -89zM311 525.001v-126.999h31
c18.667 0 33.167 5.33301 43.5 16s15.5 25.667 15.5 45c0 25.333 -6 42.666 -18 51.999s-27.667 14 -47 14h-25z" />
    <glyph glyph-name="Q" unicode="Q" horiz-adv-x="837" 
d="M785 350c0 -60.667 -9.99902 -115.333 -29.999 -164s-51 -89 -93 -121l71.5 -20.5l70.5 -19.5l-68 -178l-410 148h1c-47.333 8 -88.833 22.333 -124.5 43s-65.5 46.5 -89.5 77.5s-42 66.333 -54 106s-18 82.5 -18 128.5c0 52 7.66699 100 23 144s38.5 81.833 69.5 113.5
s69.667 56.5 116 74.5s100.5 27 162.5 27s116.167 -9 162.5 -27s85.166 -42.833 116.499 -74.5s54.833 -69.5 70.5 -113.5s23.5 -92 23.5 -144zM517.001 350.001c0 27.333 -1.66699 52.334 -5 75.001s-9 42 -17 58s-18.833 28.5 -32.5 37.5s-30.5 13.5 -50.5 13.5
s-36.833 -4.83301 -50.5 -14.5s-24.667 -23 -33 -40s-14.166 -36.667 -17.499 -59s-5 -45.833 -5 -70.5c0 -28.667 1.66699 -54.667 5 -78s9.16602 -43.166 17.499 -59.499s19.333 -29 33 -38s30.5 -13.5 50.5 -13.5s36.833 4.33301 50.5 13s24.5 21.167 32.5 37.5
s13.667 36.166 17 59.499s5 49.666 5 78.999z" />
    <glyph glyph-name="R" unicode="R" horiz-adv-x="740" 
d="M561 303c16 -5.33301 29.3311 -12.332 39.998 -20.999s19.834 -18.334 27.501 -29.001s13.834 -21.834 18.501 -33.501s8.66699 -23.5 12 -35.5l54 -184h-248l-49 168c-4 14.667 -8.5 26.834 -13.5 36.501s-10.833 17.5 -17.5 23.5s-14.834 10.167 -24.501 12.5
s-21.167 3.5 -34.5 3.5h-15v-244h-251v693h354c48.667 0 89.5 -6.33301 122.5 -19s59.5 -29 79.5 -49s34.333 -42.5 43 -67.5s13 -50.167 13 -75.5c0 -16.667 -2.16699 -33.5 -6.5 -50.5s-11.166 -33.333 -20.499 -49s-21 -30.167 -35 -43.5s-30.333 -24.333 -49 -33v-3z
M419.998 468.001c0 15.333 -5.16797 28.666 -15.501 39.999s-25.166 17 -44.499 17h-49v-120h48c18.667 0 33.5 5.83301 44.5 17.5s16.5 26.834 16.5 45.501z" />
    <glyph glyph-name="S" unicode="S" horiz-adv-x="705" 
d="M369 710c43.333 0 88.332 -4.8291 134.999 -14.4961s90.334 -24.5 131.001 -44.5l-56 -166c-17.333 6 -35.833 11.167 -55.5 15.5s-39 7.83301 -58 10.5s-37.333 4.5 -55 5.5s-33.5 1.5 -47.5 1.5c-16 0 -27.167 -2.5 -33.5 -7.5s-9.5 -12.167 -9.5 -21.5
s10.333 -17.166 31 -23.499s47 -13.166 79 -20.499c14.667 -3.33301 30.834 -7.33301 48.501 -12s35.5 -10.667 53.5 -18s35.667 -16.666 53 -27.999s32.833 -25.333 46.5 -42s24.5 -36.334 32.5 -59.001s12 -49 12 -79c0 -30.667 -5.83301 -59.334 -17.5 -86.001
s-31.167 -50 -58.5 -70s-63.333 -35.833 -108 -47.5s-100 -17.5 -166 -17.5c-17.333 0 -37.833 1 -61.5 3s-49 5.33301 -76 10s-54.5 10.667 -82.5 18s-54.333 16.666 -79 27.999l52 173c31.333 -10 61.5 -17.833 90.5 -23.5s55.667 -9.83398 80 -12.501
s45.5 -4.33398 63.5 -5.00098s31.667 -1 41 -1c21.333 0 35.833 3 43.5 9s11.5 13.333 11.5 22c0 16.667 -19.333 29.334 -58 38.001c-40 10 -78 20 -114 30s-67.5 23 -94.5 39s-48.5 36.667 -64.5 62s-24 58.666 -24 99.999c0 32 5.16699 62.167 15.5 90.5
s27.833 53.166 52.5 74.499s57.167 38.166 97.5 50.499s90.166 18.5 149.499 18.5z" />
    <glyph glyph-name="T" unicode="T" horiz-adv-x="689" 
d="M219 0v520h-214v173h679v-173h-215v-520h-250z" />
    <glyph glyph-name="U" unicode="U" horiz-adv-x="781" 
d="M720 266c0 -90 -25.668 -158.668 -77.001 -206.001s-134.666 -71 -249.999 -71c-61.333 0 -113 6.33301 -155 19s-76.333 30.834 -103 54.501s-45.834 52.667 -57.501 87s-17.5 73.166 -17.5 116.499v427h247v-441c0 -34 7.16699 -57.667 21.5 -71s36.5 -20 66.5 -20
c10 0 20 1.33301 30 4s18.833 7.33398 26.5 14.001s13.834 16 18.501 28s7 27 7 45l-1 441h245z" />
    <glyph glyph-name="V" unicode="V" horiz-adv-x="801" 
d="M404 212c3.33301 12 6.83301 26.332 10.5 42.999s7.16699 33.834 10.5 51.501l9.5 51.5c3 16.667 6.16699 31 9.5 43l81 293h271l-241 -694h-313l-237 694h270l78 -288l40 -194h11z" />
    <glyph glyph-name="W" unicode="W" horiz-adv-x="1118" 
d="M554 398c-2.66699 -14 -5.33301 -30.1699 -8 -48.5029l-8 -56c-2.66699 -19 -5.16699 -37.667 -7.5 -56s-4.83301 -34.5 -7.5 -48.5l-37 -189h-319l-162 693h269l47 -260c2 -10 3.83301 -22.167 5.5 -36.5s3.16699 -29.166 4.5 -44.499s2.83301 -30.333 4.5 -45
s3.5 -27 5.5 -37h8c2 10 3.83301 22.167 5.5 36.5l5 45c1.66699 15.667 3.5 30.667 5.5 45s4 26.5 6 36.5l51 260h274l49 -253l24 -170h8c2 10 3.83301 22.333 5.5 37s3.16699 29.834 4.5 45.501s2.83301 30.834 4.5 45.501s3.5 27 5.5 37l46 258h270l-162 -693h-319
l-38 188l-32 209z" />
    <glyph glyph-name="X" unicode="X" horiz-adv-x="793" 
d="M291 0h-286l244 360l-221 333h287l92 -184c15.333 28 30.833 58.667 46.5 92s31.167 64 46.5 92h287l-234 -333l117.5 -180l117.5 -180h-286l-106 201z" />
    <glyph glyph-name="Y" unicode="Y" horiz-adv-x="774" 
d="M394 387c4 9.33301 7.83301 20.167 11.5 32.5l11.5 38l12 37.5c4 12 8 22.667 12 32l70 166h258l-243 -466v-227h-272v213l-249 480h262l73 -172l44 -134h10z" />
    <glyph glyph-name="Z" unicode="Z" horiz-adv-x="696" 
d="M356 170h330v-170h-675v154l308 363l-3 8h-275v168h628v-147l-317 -370z" />
    <glyph glyph-name="bracketleft" unicode="[" horiz-adv-x="399" 
d="M77 -159v862h287v-122h-92v-628h92v-112h-287z" />
    <glyph glyph-name="backslash" unicode="\" horiz-adv-x="434" 
d="M-2 715h169l263 -756h-168z" />
    <glyph glyph-name="bracketright" unicode="]" horiz-adv-x="399" 
d="M48 -159v112h92v628h-92v122h287v-862h-287z" />
    <glyph glyph-name="asciicircum" unicode="^" horiz-adv-x="558" 
d="M382 316l-107.999 195c-6.66699 -13.333 -13.834 -26.5 -21.501 -39.5l-23.5 -41.5l-64 -114h-148l206 360h99l208 -360h-148z" />
    <glyph glyph-name="underscore" unicode="_" horiz-adv-x="500" 
d="M0 -167v108h501v-108h-501z" />
    <glyph glyph-name="grave" unicode="`" horiz-adv-x="571" 
d="M177 660l113 137l193 -174l-79 -97z" />
    <glyph glyph-name="a" unicode="a" horiz-adv-x="661" 
d="M360 45c-14.667 -14.667 -30.833 -26.001 -48.5 -34.001s-34.834 -14 -51.501 -18s-31.5 -6.33301 -44.5 -7s-22.5 -1 -28.5 -1c-34.667 0 -63 5.16699 -85 15.5s-39.333 23 -52 38s-21.334 31.333 -26.001 49s-7 33.834 -7 48.501c0 11.333 1.5 24.333 4.5 39
s9.33301 29 19 43s23.834 26.5 42.501 37.5s44 18.167 76 21.5l187 20v4c0 28 -23 42 -69 42c-12 0 -25.333 -0.5 -40 -1.5s-29.667 -2.5 -45 -4.5s-29.833 -4.16699 -43.5 -6.5s-25.5 -4.83301 -35.5 -7.5l-34 144c16 6.66699 34.5 12.667 55.5 18s43 9.83301 66 13.5
s46.333 6.5 70 8.5s45.834 3 66.501 3c35.333 0 67.833 -3.16699 97.5 -9.5s55.334 -16.666 77.001 -30.999s38.667 -33.333 51 -57s18.5 -52.834 18.5 -87.501v-170h54l9 -134c-21.333 -11.333 -47.5 -20.333 -78.5 -27s-63.5 -10 -97.5 -10
c-24.667 0 -46.834 4 -66.501 12s-32.167 23.667 -37.5 47zM288.001 191.999c-8.66699 -2 -14.499 -5.66602 -17.499 -10.999s-4.5 -10.333 -4.5 -15c0 -11.333 2 -20.5 6 -27.5s11.667 -10.5 23 -10.5c5.33301 0 13.666 1.16699 24.999 3.5s19.333 5.16602 24 8.49902v61z
" />
    <glyph glyph-name="b" unicode="b" horiz-adv-x="662" 
d="M280 724v-149l-6 -107l11 -3c12.667 10 25.834 18 39.501 24s26.667 10.667 39 14s23.5 5.66602 33.5 6.99902s18 2 24 2c40 0 73.667 -6.5 101 -19.5s49.333 -31.167 66 -54.5s28.667 -51 36 -83s11 -67 11 -105c0 -34 -3.83301 -66.667 -11.5 -98
s-22 -59.166 -43 -83.499s-50.167 -43.833 -87.5 -58.5s-85.333 -22 -144 -22c-9.33301 0 -25.5 0.5 -48.5 1.5s-49.167 3.5 -78.5 7.5s-60.333 10 -93 18s-63.334 19 -92.001 33c0.666992 113.333 0.666992 226 0 338s-0.666992 224.667 0 338h243zM336 343
c-8.66699 0 -17.502 -1.5 -26.502 -4.5s-18.167 -6.83301 -27.5 -11.5v-164c10.667 -4 20.834 -6.66699 30.501 -8s17.834 -2 24.501 -2c6 0 12.5 0.666992 19.5 2s13.167 5.16602 18.5 11.499s9.83301 15.833 13.5 28.5s5.5 30.334 5.5 53.001c0 23.333 -2 41.5 -6 54.5
s-9 22.5 -15 28.5s-12.333 9.5 -19 10.5s-12.667 1.5 -18 1.5z" />
    <glyph glyph-name="c" unicode="c" horiz-adv-x="531" 
d="M307 510c19.333 0 44.832 -1.66602 76.499 -4.99902s63.5 -9.33301 95.5 -18l-31 -167c-18 2.66699 -35.167 4.5 -51.5 5.5s-30.166 1.5 -41.499 1.5c-29.333 0 -50.333 -6.5 -63 -19.5s-19.667 -33.167 -21 -60.5c0 -29.333 5.66699 -48.833 17 -58.5
s31.666 -14.5 60.999 -14.5c19.333 0 39.5 1.66699 60.5 5s40.167 6.66602 57.5 9.99902l34 -161c-31.333 -14 -65.666 -24.333 -102.999 -31s-74 -10 -110 -10c-56 0 -101.167 7 -135.5 21s-61 32.667 -80 56s-31.667 50 -38 80s-9.5 60.667 -9.5 92
c0 34.667 3.83301 68.5 11.5 101.5s22 62.167 43 87.5s49.833 45.833 86.5 61.5s83.667 23.5 141 23.5z" />
    <glyph glyph-name="d" unicode="d" horiz-adv-x="663" 
d="M324 343c-4.66699 0 -10.168 -0.49707 -16.501 -1.49707s-12.333 -4.83301 -18 -11.5s-10.5 -16.834 -14.5 -30.501s-6 -32.834 -6 -57.501c0 -21.333 1.83301 -37.833 5.5 -49.5s8.33398 -20.334 14.001 -26.001s11.834 -9 18.501 -10s13 -1.5 19 -1.5
c6.66699 0 15.167 1.5 25.5 4.5s20.166 6.83301 29.499 11.5v158c-11.333 5.33301 -22.333 9 -33 11s-18.667 3 -24 3zM392.999 44.0029c-15.333 -12 -30.667 -21.4971 -46 -28.4971s-29.833 -12.5 -43.5 -16.5s-26 -6.66699 -37 -8s-19.5 -2 -25.5 -2
c-43.333 0 -78.833 6.66699 -106.5 20s-49.5 31.5 -65.5 54.5s-27 49.333 -33 79s-9 61.167 -9 94.5c0 39.333 4 75.833 12 109.5s21.167 62.667 39.5 87s42.333 43.5 72 57.5s66.167 21 109.5 21c6 0 14 -0.333008 24 -1s21 -1.83398 33 -3.50098
s24.167 -3.83398 36.5 -6.50098s23.5 -6.33398 33.5 -11.001v28v40v64.5v101.5h239c0 -62 -0.166992 -122.833 -0.5 -182.5s-0.5 -119.167 -0.5 -178.5v-179c0 -60 0.333008 -121.333 1 -184h-220l-6 41z" />
    <glyph glyph-name="e" unicode="e" horiz-adv-x="608" 
d="M308 511c59.333 0 107 -6.83398 143 -20.501s63.667 -32 83 -55s32 -49.667 38 -80s9 -62.166 9 -95.499v-36h-312c1.33301 -25.333 11.166 -41.5 29.499 -48.5s41.5 -10.5 69.5 -10.5c10.667 0 22.834 0.666992 36.501 2s27.667 3.33301 42 6l42.5 8
c14 2.66699 26.667 5.66699 38 9l44 -148c-19.333 -10 -40 -18.5 -62 -25.5s-44 -12.667 -66 -17s-43.5 -7.33301 -64.5 -9s-40.5 -2.5 -58.5 -2.5c-59.333 0 -107.833 7.33301 -145.5 22s-67.5 34 -89.5 58s-37.167 51.5 -45.5 82.5s-12.5 63.167 -12.5 96.5
c0 36 4.83301 70 14.5 102s25.5 60 47.5 84s51 43 87 57s80 21 132 21zM321 369.999c-18.667 0 -31.168 -5.66699 -37.501 -17s-10.166 -23.666 -11.499 -36.999h92c-0.666992 15.333 -3.5 28.166 -8.5 38.499s-16.5 15.5 -34.5 15.5z" />
    <glyph glyph-name="f" unicode="f" horiz-adv-x="488" 
d="M84 348l-72 -0.000976562v132l73 23v32c0 22 2 44.667 6 68s13.833 44.833 29.5 64.5s39 35.667 70 48s73.167 18.5 126.5 18.5c10.667 0 23.667 -0.5 39 -1.5s31.5 -2.5 48.5 -4.5s34.333 -4.66699 52 -8s34.5 -7.66602 50.5 -12.999l-27 -157c-18 4 -37 7 -57 9
s-36 3 -48 3c-16 0 -28.833 -2.5 -38.5 -7.5s-14.5 -13.833 -14.5 -26.5v-31h137v-149h-137c0 -57.333 -0.166992 -115.333 -0.5 -174s-0.5 -116.667 -0.5 -174h-237v348z" />
    <glyph glyph-name="g" unicode="g" horiz-adv-x="676" 
d="M107 188c-18 12 -32.167 28.9961 -42.5 50.9961s-15.5 47 -15.5 75c0 34 7.5 63.333 22.5 88s35.167 44.834 60.5 60.501s54.666 27.334 87.999 35.001s68.333 11.5 105 11.5c24.667 0 47.834 -1.16699 69.501 -3.5s38.5 -5.16602 50.5 -8.49902h207v-104h-61l-4 -6
c6 -10.667 9.66699 -22.5 11 -35.5s2 -23.167 2 -30.5c0 -31.333 -7.16699 -58.166 -21.5 -80.499s-33.5 -40.833 -57.5 -55.5s-51.833 -25.5 -83.5 -32.5s-64.5 -10.833 -98.5 -11.5l-61 -1c-10.667 0 -18.5 -2.16699 -23.5 -6.5s-7.5 -9.16602 -7.5 -14.499
c0 -2.66699 1.16699 -5 3.5 -7s7.16602 -3 14.499 -3h171c32 0 61.167 -2.16699 87.5 -6.5s48.833 -12 67.5 -23s33 -25.5 43 -43.5s15 -40.667 15 -68c0 -20 -4.66699 -41 -14 -63s-27.166 -42.167 -53.499 -60.5s-62.833 -33.5 -109.5 -45.5s-107.334 -18 -182.001 -18
c-60.667 0 -108.5 4.16699 -143.5 12.5s-61.5 19 -79.5 32s-29.333 27.333 -34 43s-7 30.834 -7 45.501c0 19.333 4.33301 37.166 13 53.499s23.334 30.5 44.001 42.5c-14.667 7.33301 -25.5 17.666 -32.5 30.999s-10.5 28 -10.5 44c0 17.333 5 34.833 15 52.5
s26.667 32.5 50 44.5zM276 -18.0039c-7.33301 -5.33301 -12.167 -9.83203 -14.5 -13.499s-3.5 -6.83398 -3.5 -9.50098c0 -7.33301 3.66699 -13.833 11 -19.5s25 -8.5 53 -8.5c30.667 0 51.667 2.5 63 7.5s17 12.5 17 22.5c0 14 -7.66699 21 -23 21h-103zM365.999 322.997
c0 16.667 -3.83301 28.5029 -11.5 35.5029s-18.167 10.5 -31.5 10.5c-8.66699 0 -15.5 -1.66699 -20.5 -5s-9 -7.33301 -12 -12s-5 -9.83398 -6 -15.501s-1.5 -10.834 -1.5 -15.501c0 -14.667 3 -25.334 9 -32.001s17 -10 33 -10c11.333 0 21 3 29 9s12 17.667 12 35z" />
    <glyph glyph-name="h" unicode="h" horiz-adv-x="660" 
d="M280 451c12 9.33301 25.166 17.834 39.499 25.501s29 14 44 19s29.5 8.83301 43.5 11.5s27 4 39 4c66 0 112 -15.833 138 -47.5s39 -78.5 39 -140.5v-323h-245v275c0 19.333 -3 32.833 -9 40.5s-17.667 11.5 -35 11.5c-6 0 -13.667 -1.33301 -23 -4
s-18.666 -7.33398 -27.999 -14.001v-309h-246c0.666992 121.333 0.5 242 -0.5 362s-0.833008 240.667 0.5 362h240v-162l-5 -106z" />
    <glyph glyph-name="i" unicode="i" horiz-adv-x="372" 
d="M64 0c0.666992 83.333 0.666992 166.333 0 249s-0.666992 165.667 0 249h244c-0.666992 -83.333 -0.666992 -166.333 0 -249s0.666992 -165.667 0 -249h-244zM318 645c0 -32.667 -10.333 -59.667 -31 -81s-54.667 -32 -102 -32c-23.333 0 -43.333 2.83301 -60 8.5
s-30.167 13.5 -40.5 23.5s-17.833 22 -22.5 36s-7 29 -7 45c0 34 10 61.5 30 82.5s53.333 31.5 100 31.5c48 0 82.167 -10.5 102.5 -31.5s30.5 -48.5 30.5 -82.5z" />
    <glyph glyph-name="j" unicode="j" horiz-adv-x="374" 
d="M67 498l245.001 0.00292969v-385c0 -54.667 -6.16699 -102.334 -18.5 -143.001s-31.333 -75.334 -57 -104.001s-58.167 -52 -97.5 -70s-86.333 -31.333 -141 -40l-63 165c28.667 16.667 51.667 31.167 69 43.5s30.666 25.666 39.999 39.999s15.5 31 18.5 50
s4.5 43.167 4.5 72.5v371zM322.001 645.003c0 -32.667 -10.333 -59.667 -31 -81s-54.667 -32 -102 -32c-23.333 0 -43.333 2.83301 -60 8.5s-30.167 13.5 -40.5 23.5s-17.833 22 -22.5 36s-7 29 -7 45c0 34 10 61.5 30 82.5s53.333 31.5 100 31.5
c48 0 82.167 -10.5 102.5 -31.5s30.5 -48.5 30.5 -82.5z" />
    <glyph glyph-name="k" unicode="k" horiz-adv-x="662" 
d="M283 382l92 116.002h273l-180 -192c6.66699 -7.33301 14.5 -15.5 23.5 -24.5s14.5 -15.167 16.5 -18.5l149 -263h-270l-79 165l-22 -25v-140h-249c0.666992 121.333 0.5 241.666 -0.5 360.999s-0.833008 239.666 0.5 360.999h249v-178l-8 -162h5z" />
    <glyph glyph-name="l" unicode="l" horiz-adv-x="344" 
d="M50 0c0.666992 121.333 0.5 242 -0.5 362s-0.833008 240.667 0.5 362h243c0.666992 -121.333 1 -242 1 -362v-362h-244z" />
    <glyph glyph-name="m" unicode="m" horiz-adv-x="954" 
d="M272 440c14.667 13.333 30.501 24.5 47.501 33.5s33.5 16.333 49.5 22s31.167 9.66699 45.5 12s26.833 3.5 37.5 3.5c32 0 57 -5.66699 75 -17s33.333 -29.333 46 -54c12.667 10.667 26.834 20.5 42.501 29.5s31.5 16.5 47.5 22.5s31.667 10.667 47 14s29 5 41 5
c59.333 0 101.5 -15.833 126.5 -47.5s37.5 -78.5 37.5 -140.5v-323h-245v295c0 12.667 -2.33301 21.167 -7 25.5s-10.667 6.5 -18 6.5c-6 0 -13.5 -1.66699 -22.5 -5s-17.167 -7.66602 -24.5 -12.999v-309h-240l-1 294c0 9.33301 -1.83301 17.166 -5.5 23.499
s-10.5 9.5 -20.5 9.5c-4.66699 0 -11.334 -1.5 -20.001 -4.5s-17.334 -7.5 -26.001 -13.5v-309h-246c1.33301 83.333 1.5 166.5 0.5 249.5s-1.16699 166.167 -0.5 249.5h224l5 -57z" />
    <glyph glyph-name="n" unicode="n" horiz-adv-x="660" 
d="M275 445c30 22.667 61.166 39.335 93.499 50.002s60.5 16 84.5 16c61.333 0 105 -15.833 131 -47.5s39 -78.5 39 -140.5v-323h-245v276c0 19.333 -3.5 32.666 -10.5 39.999s-18.167 11 -33.5 11c-6 0 -13.667 -1.33301 -23 -4s-18.666 -7.33398 -27.999 -14.001v-309
h-246c0.666992 83.333 0.666992 166.5 0 249.5s-0.666992 166.167 0 249.5h226l5 -51z" />
    <glyph glyph-name="o" unicode="o" horiz-adv-x="657" 
d="M630 250c0 -38.667 -5.66797 -74 -17.001 -106s-29.166 -59.5 -53.499 -82.5s-55.5 -40.833 -93.5 -53.5s-84 -19 -138 -19c-54.667 0 -101 6.33301 -139 19s-69 30.5 -93 53.5s-41.5 50.5 -52.5 82.5s-16.5 67.333 -16.5 106c0 38 5.5 73 16.5 105s28.667 59.333 53 82
s55.5 40.334 93.5 53.001s84 19 138 19s100.167 -6.33301 138.5 -19s69.5 -30.334 93.5 -53.001s41.667 -50 53 -82s17 -67 17 -105zM379.999 250c0 32.667 -3.66699 56.5 -11 71.5s-21 22.5 -41 22.5s-33.667 -8.66699 -41 -26s-11 -40 -11 -68
c0 -35.333 3.66699 -60.666 11 -75.999s21 -23 41 -23s33.667 7.66699 41 23s11 40.666 11 75.999z" />
    <glyph glyph-name="p" unicode="p" horiz-adv-x="663" 
d="M274 448c30 25.333 58.1689 41.665 84.502 48.998s48.166 11 65.499 11c42.667 0 77.667 -6.83301 105 -20.5s49 -32.167 65 -55.5s27 -51 33 -83s9 -66.333 9 -103c0 -37.333 -4.16699 -71.666 -12.5 -102.999s-21.833 -58.333 -40.5 -81
s-42.834 -40.334 -72.501 -53.001s-65.5 -19 -107.5 -19c-6.66699 0 -15.167 0.333008 -25.5 1s-21.5 1.83398 -33.5 3.50098s-24 3.83398 -36 6.50098s-23 6 -33 10c0 -36 0.166992 -73 0.5 -111s0.5 -74.667 0.5 -110h-239c0.666992 118.667 0.5 236.5 -0.5 353.5
s-0.833008 234.833 0.5 353.5h224l5 -45zM339.002 158.999c4.66699 0 10.1709 0.998047 16.5039 2.99805s12.333 6.33301 18 13s10.5 16.334 14.5 29.001s6 29.667 6 51s-1.83301 37.833 -5.5 49.5s-8.33398 20.334 -14.001 26.001s-11.834 9 -18.501 10s-13 1.5 -19 1.5
c-6.66699 0 -15.334 -1.5 -26.001 -4.5s-20.667 -6.83301 -30 -11.5v-154c11.333 -5.33301 21.666 -8.83301 30.999 -10.5s18.333 -2.5 27 -2.5z" />
    <glyph glyph-name="q" unicode="q" horiz-adv-x="663" 
d="M382 16c-10.667 -5.33301 -22.001 -9.83398 -34.001 -13.501s-23.667 -6.66699 -35 -9s-21.666 -4 -30.999 -5s-17 -1.5 -23 -1.5c-40.667 0 -75.667 5.66699 -105 17s-53.333 27.166 -72 47.499s-32.5 45 -41.5 74s-13.5 61.5 -13.5 97.5
c0 36.667 4.5 72.334 13.5 107.001s25.5 65.334 49.5 92.001s56.667 48.167 98 64.5s94.333 24.5 159 24.5c9.33301 0 24.833 -0.5 46.5 -1.5s46 -3.16699 73 -6.5s54.667 -8 83 -14s53.5 -13.667 75.5 -23c1.33301 -113.333 1.5 -226 0.5 -338s-0.833008 -224.667 0.5 -338
h-240v123v40.5c0 15.667 0.666992 33.5 2 53.5zM325.999 155.999c8 0 16.668 1.50098 26.001 4.50098s18.666 6.5 27.999 10.5v165c-5.33301 1.33301 -11.833 2.83301 -19.5 4.5s-15.167 2.5 -22.5 2.5c-8.66699 0 -17.167 -1.33301 -25.5 -4
s-15.833 -7.33398 -22.5 -14.001s-12 -16.167 -16 -28.5s-6 -27.833 -6 -46.5c0 -23.333 2 -41.333 6 -54s9 -22 15 -28s12.333 -9.5 19 -10.5s12.667 -1.5 18 -1.5z" />
    <glyph glyph-name="r" unicode="r" horiz-adv-x="523" 
d="M284 381c15.333 18 32.165 35 50.498 51s37 30 56 42s37.833 21.5 56.5 28.5s36 10.5 52 10.5c13.333 0 21.833 -5 25.5 -15s5.5 -21 5.5 -33c0 -17.333 -2.33301 -38 -7 -62s-10.667 -48 -18 -72s-15.166 -46.667 -23.499 -68s-16.5 -37.666 -24.5 -48.999l-163 42v-256
h-244c0.666992 68 1 126.5 1 175.5s-0.166992 92.333 -0.5 130s-0.5 71.5 -0.5 101.5v92h242c0 -6.66699 -0.333008 -15.334 -1 -26.001s-1.5 -21.667 -2.5 -33s-2.16699 -22.333 -3.5 -33s-2.66602 -19 -3.99902 -25z" />
    <glyph glyph-name="s" unicode="s" horiz-adv-x="566" 
d="M297 512c36 0 73 -3.50586 111 -10.5059s74 -18.167 108 -33.5l-42 -138c-30 10 -59 17 -87 21s-53 6 -75 6c-10 0 -17 -1.33301 -21 -4s-6 -7 -6 -13c0 -3.33301 5.66699 -6.5 17 -9.5s25 -6.16699 41 -9.5c20 -3.33301 42 -8.16602 66 -14.499s46.333 -15.833 67 -28.5
s37.834 -29.5 51.501 -50.5s20.5 -47.833 20.5 -80.5c0 -22 -4.66699 -42.667 -14 -62s-25.166 -36.166 -47.499 -50.499s-51.833 -25.666 -88.5 -33.999s-82 -12.5 -136 -12.5c-14 0 -30.5 0.666992 -49.5 2s-39.5 3.66602 -61.5 6.99902s-44.5 7.83301 -67.5 13.5
s-44.833 12.834 -65.5 21.501l40 144c55.333 -16 98.666 -25.5 129.999 -28.5s54.333 -4.5 69 -4.5c11.333 0 20.666 0.833008 27.999 2.5s11 5.16699 11 10.5c0 4.66699 -2 8.33398 -6 11.001s-9 4.83398 -15 6.50098s-12.5 3.16699 -19.5 4.5s-13.5 2.66602 -19.5 3.99902
c-24.667 6 -48.834 12.333 -72.501 19s-44.667 15.667 -63 27s-33.166 25.833 -44.499 43.5s-17 40.834 -17 69.501c0 23.333 4.33301 45.333 13 66s23 38.834 43 54.501s46.5 28 79.5 37s73.833 13.5 122.5 13.5z" />
    <glyph glyph-name="t" unicode="t" horiz-adv-x="484" 
d="M313 652v-154h134v-150h-134v-113c0 -15.333 1.16699 -27.666 3.5 -36.999s6 -16.333 11 -21s11.5 -7.66699 19.5 -9s17.667 -2 29 -2c4.66699 0 14 0.666992 28 2s29.333 3.33301 46 6l26 -157c-13.333 -5.33301 -27.5 -9.83301 -42.5 -13.5s-30 -6.83398 -45 -9.50098
s-29.667 -4.5 -44 -5.5s-26.833 -1.5 -37.5 -1.5c-54.667 0 -97.667 6.33301 -129 19s-54.833 28.5 -70.5 47.5s-25.5 39.5 -29.5 61.5s-6 42.333 -6 61v172h-66v133l84 25l26 67l25 67z" />
    <glyph glyph-name="u" unicode="u" horiz-adv-x="647" 
d="M373 54c-13.333 -11.333 -27.667 -20.9971 -43 -28.9971s-30.833 -14.833 -46.5 -20.5s-30.834 -9.83398 -45.501 -12.501s-27.667 -4 -39 -4c-31.333 0 -57.333 4 -78 12s-37.167 19.833 -49.5 35.5s-21.166 35.167 -26.499 58.5s-8 50.333 -8 81v323h245v-274
c0 -19.333 2.33301 -32.833 7 -40.5s15 -11.5 31 -11.5c6 0 12.667 1.16699 20 3.5s15.333 7.16602 24 14.499v308h246c1.33301 -82.667 1.5 -165.334 0.5 -248.001s-1.16699 -166 -0.5 -250h-221l-7 52z" />
    <glyph glyph-name="v" unicode="v" horiz-adv-x="696" 
d="M357 148l32 163l49 185h248l-80.5 -248c-27.667 -82 -54.167 -164.667 -79.5 -248h-353l-81 248l-82 248h259l51 -190l31 -158h6z" />
    <glyph glyph-name="w" unicode="w" horiz-adv-x="983" 
d="M674 172l17.001 143.001l32 182h234c-18 -84 -36.833 -167 -56.5 -249l-57.5 -248h-296l-35 183l-17 137h-8l-15 -136l-33 -184h-294l-60 247c-20.667 81.333 -40.334 164.666 -59.001 249.999h239l32 -186l17 -143h6l21 144l38 185h230l37 -183l21 -142h7z" />
    <glyph glyph-name="x" unicode="x" horiz-adv-x="665" 
d="M329 140c-10.667 -21.333 -21.332 -44.668 -31.999 -70.001s-21.334 -48.666 -32.001 -69.999h-260l177 259l-82 119l-83 119h264l55 -125h6l29.5 62l29.5 63h258l-170 -237l85.5 -130.5l85.5 -129.5h-263l-62 140h-6z" />
    <glyph glyph-name="y" unicode="y" horiz-adv-x="661" 
d="M326 151c2.66699 10 5.33301 21.5 8 34.5s5.16699 26.333 7.5 40s4.83301 27 7.5 40s5.33398 24.833 8.00098 35.5l47 197h252l-206 -598c-16 -43.333 -41.333 -74.5 -76 -93.5s-74.667 -28.5 -120 -28.5c-25.333 0 -52.166 2.16699 -80.499 6.5s-57.5 10.5 -87.5 18.5
l30 154c15.333 -1.33301 27.166 -2.33301 35.499 -3s16.166 -1 23.499 -1c28 0 47.333 3.5 58 10.5s18.667 19.833 24 38.5l7 24h-105l-76 236.5l-76 235.5h240l47 -202c2 -10 4 -21.333 6 -34l6 -38.5l6 -38c2 -12.333 4 -23.5 6 -33.5z" />
    <glyph glyph-name="z" unicode="z" horiz-adv-x="559" 
d="M333 156h219v-156h-545v122l203 210l-3 9h-184l1 157h513v-118l-207 -216z" />
    <glyph glyph-name="braceleft" unicode="{" horiz-adv-x="426" 
d="M273 -163c-22.667 0 -43.6689 4.00195 -63.002 12.002s-36.166 19.167 -50.499 33.5s-25.666 31.166 -33.999 50.499s-12.5 40.333 -12.5 63v145c0 25.333 -6.16699 43.666 -18.5 54.999s-29.5 17 -51.5 17h-8v120h8c22 0 39.167 5.5 51.5 16.5s18.5 29.167 18.5 54.5
v144c0 22.667 3.5 43.667 10.5 63s17.167 36 30.5 50s30 25 50 33s43 12 69 12h139v-120h-34c-14.667 0 -26.334 -1.83301 -35.001 -5.5s-15.334 -8.5 -20.001 -14.5s-7.83398 -13 -9.50098 -21s-2.5 -16 -2.5 -24v-150c0 -26.667 -8 -47.834 -24 -63.501
s-36.333 -25.5 -61 -29.5v-4c30 -4 51.667 -15.667 65 -35s20 -41.666 20 -66.999v-154c0 -8.66699 0.833008 -17 2.5 -25s4.83398 -15 9.50098 -21s11.334 -10.833 20.001 -14.5s20.334 -5.5 35.001 -5.5h34v-115h-139z" />
    <glyph glyph-name="bar" unicode="|" horiz-adv-x="426" 
d="M136 -158v877h157v-877h-157z" />
    <glyph glyph-name="braceright" unicode="}" horiz-adv-x="426" 
d="M21 -163l-0.00195312 114.998h34c14.667 0 26.334 1.83301 35.001 5.5s15.334 8.5 20.001 14.5s7.83398 13 9.50098 21s2.5 16.333 2.5 25v154c0 25.333 6.66699 47.666 20 66.999s35 31 65 35v4c-24.667 4 -45 13.833 -61 29.5s-24 36.834 -24 63.501v150
c0 8 -0.833008 16 -2.5 24s-4.83398 15 -9.50098 21s-11.334 10.833 -20.001 14.5s-20.334 5.5 -35.001 5.5h-34v120h139c26 0 49 -4 69 -12s36.667 -19 50 -33s23.5 -30.667 30.5 -50s10.5 -40.333 10.5 -63v-144c0 -25.333 6.16699 -43.5 18.5 -54.5
s29.5 -16.5 51.5 -16.5h8v-120h-8c-22 0 -39.167 -5.66699 -51.5 -17s-18.5 -29.666 -18.5 -54.999v-145c0 -22.667 -4.16699 -43.667 -12.5 -63s-19.666 -36.166 -33.999 -50.499s-31.166 -25.5 -50.499 -33.5s-40.333 -12 -63 -12h-139z" />
    <glyph glyph-name="asciitilde" unicode="~" horiz-adv-x="642" 
d="M451 203c-23.333 0 -47.499 2.33203 -72.499 6.99902s-49.167 9.83398 -72.5 15.501l-65.5 15.5c-20.333 4.66699 -37.833 7 -52.5 7l-65 -46l-74 54c10 28 20.833 51.167 32.5 69.5s24 33 37 44s26.667 18.667 41 23s29.166 6.5 44.499 6.5
c20.667 0 42.167 -2.16699 64.5 -6.5s44.5 -9.33301 66.5 -15s43.833 -10.667 65.5 -15s42.5 -6.5 62.5 -6.5l66 48l73 -54c-17.333 -50 -38 -87 -62 -111s-53.667 -36 -89 -36z" />
    <glyph glyph-name="exclamdown" unicode="&#xa1;" horiz-adv-x="377" 
d="M76 -221v216l19 270h185l20 -270v-216h-224zM302 409c0 -29.333 -8.50098 -52.833 -25.501 -70.5s-46.167 -26.5 -87.5 -26.5c-40 0 -68.5 8.83301 -85.5 26.5s-25.5 41.167 -25.5 70.5c0 28 8.33301 51.167 25 69.5s45.334 27.5 86.001 27.5s69.667 -9.16699 87 -27.5
s26 -41.5 26 -69.5z" />
    <glyph glyph-name="cent" unicode="&#xa2;" horiz-adv-x="642" 
d="M314 247c0 -29.333 5.99902 -48.835 17.999 -58.502s32.333 -14.5 61 -14.5c19.333 0 39.5 1.66699 60.5 5s40.167 6.66602 57.5 9.99902l37 -161c-20.667 -9.33301 -42.667 -16.833 -66 -22.5s-47.333 -10.167 -72 -13.5v-124h-157v126
c-39.333 6.66699 -71 18.334 -95 35.001s-42.667 36.334 -56 59.001s-22.333 47.667 -27 75s-7 55 -7 83c0 28.667 2.66699 56.5 8 83.5s14.833 52 28.5 75s32.5 42.833 56.5 59.5s54.667 29 92 37v114h157v-109c16.667 -1.33301 34.334 -3.66602 53.001 -6.99902
s37 -7.33301 55 -12l-27 -167c-18 2.66699 -35.5 4.5 -52.5 5.5s-31.167 1.5 -42.5 1.5c-29.333 0 -50.333 -6.5 -63 -19.5s-19 -33.167 -19 -60.5z" />
    <glyph glyph-name="sterling" unicode="&#xa3;" horiz-adv-x="642" 
d="M104 391l2 31.9941c0.666992 10.667 1.66699 21.334 3 32.001c7.33301 79.333 32.5 139 75.5 179s105.167 60 186.5 60c48 0 89.333 -4.83301 124 -14.5s65 -19.5 91 -29.5l-53 -150c-38 13.333 -68.333 20.833 -91 22.5s-37 2.5 -43 2.5
c-20.667 0 -37.167 -5.66699 -49.5 -17s-19.833 -32.666 -22.5 -63.999c-0.666992 -9.33301 -1.5 -18.166 -2.5 -26.499s-1.83301 -17.166 -2.5 -26.499h109v-107h-117c0 -3.33301 -0.333008 -6.66602 -1 -9.99902s-1 -6.66602 -1 -9.99902
c-2 -23.333 -6 -44.666 -12 -63.999s-15.667 -36.666 -29 -51.999h308v-148h-548l1 146c21.333 21.333 36 40.666 44 57.999s13.667 36.666 17 57.999l2 22h-54v107h63z" />
    <glyph glyph-name="currency" unicode="&#xa4;" horiz-adv-x="586" 
d="M204 305c0 -24 8.5 -44.501 25.5 -61.501s37.5 -25.5 61.5 -25.5c24.667 0 45.667 8.33301 63 25s26 37.334 26 62.001c0 12 -2.16699 23.333 -6.5 34s-10.5 20.167 -18.5 28.5s-17.5 14.833 -28.5 19.5s-22.833 7 -35.5 7c-24 0 -44.5 -8.66699 -61.5 -26
s-25.5 -38.333 -25.5 -63zM32 472.999l91.0039 93.0049l66 -66c15.333 7.33301 32 13.166 50 17.499s35.667 6.5 53 6.5s35.166 -2 53.499 -6s35.5 -10.667 51.5 -20l64 68l92 -93l-66 -66c7.33301 -15.333 13.166 -31.833 17.499 -49.5s6.5 -35.167 6.5 -52.5
c0 -16.667 -2.33301 -34 -7 -52s-10.667 -34.667 -18 -50l67 -64l-92 -93l-66 66c-30.667 -16.667 -65 -25 -103 -25s-72.333 8.33301 -103 25l-66 -66l-91 93l66 65c-8.66699 15.333 -14.834 31.666 -18.501 48.999s-5.5 34.666 -5.5 51.999s2.16699 34.666 6.5 51.999
s10.166 33.666 17.499 48.999z" />
    <glyph glyph-name="yen" unicode="&#xa5;" horiz-adv-x="642" 
d="M320 399l34 114l50 160h233l-115 -274h74v-78h-554v78h67l-110 274h237l47 -161l31 -113h6zM596 284v-77h-154v-207h-245v207h-155v77h554z" />
    <glyph glyph-name="brokenbar" unicode="&#xa6;" horiz-adv-x="426" 
d="M136 365v354h157v-354h-157zM293 232v-390h-157v390h157z" />
    <glyph glyph-name="section" unicode="&#xa7;" horiz-adv-x="594" 
d="M314 720c18 0 36.6689 -1 56.002 -3s38.166 -4.83301 56.499 -8.5s35.333 -8 51 -13s28.5 -10.167 38.5 -15.5l-40 -125c-26.667 7.33301 -54.167 13 -82.5 17s-53.5 6 -75.5 6c-16 -0.666992 -29.333 -2.33398 -40 -5.00098s-16 -9 -16 -19c0 -6 5 -12.5 15 -19.5
s21.5 -13.5 34.5 -19.5s26 -11.333 39 -16l28.5 -10c20.667 -7.33301 40.5 -15.166 59.5 -23.499s35.833 -18.333 50.5 -30s26.5 -25.667 35.5 -42s13.5 -36.166 13.5 -59.499c0 -28 -4.83301 -52 -14.5 -72s-24.167 -37.333 -43.5 -52c22 -16.667 39.667 -35.167 53 -55.5
s20 -41.833 20 -64.5c0 -23.333 -4.66699 -46 -14 -68s-25 -41.5 -47 -58.5s-50.667 -30.667 -86 -41s-79 -15.5 -131 -15.5c-38.667 0 -76.834 3.5 -114.501 10.5s-70.5 15.833 -98.5 26.5l41 127c38 -11.333 70 -18.5 96 -21.5s50.333 -4.5 73 -4.5
c21.333 0 38.333 2.33301 51 7s19 12.334 19 23.001c0 3.33301 -0.666992 6.66602 -2 9.99902s-4.66602 6.83301 -9.99902 10.5s-13.5 8 -24.5 13s-25.833 10.5 -44.5 16.5c-26 9.33301 -51.167 19 -75.5 29s-46 21.667 -65 35s-34.167 29 -45.5 47s-17 40 -17 66
c0 28.667 5.33301 53.167 16 73.5s25.667 38.166 45 53.499c-14.667 12 -27.834 27 -39.501 45s-17.5 41 -17.5 69c0 32 6.66699 59.167 20 81.5s31.5 40.5 54.5 54.5s49.667 24.333 80 31s62.833 10 97.5 10zM254.002 365c-6.66699 -5.33301 -11.167 -11.166 -13.5 -17.499
s-3.5 -12.5 -3.5 -18.5c0 -8.66699 5 -15.834 15 -21.501s27.333 -12.834 52 -21.501l45 -17c4 4 7.5 9.33301 10.5 16s4.5 12.667 4.5 18c0 16.667 -36.667 37.334 -110 62.001z" />
    <glyph glyph-name="dieresis" unicode="&#xa8;" horiz-adv-x="661" 
d="M301 656c0 -26 -8.66699 -47.833 -26 -65.5s-45.666 -26.5 -84.999 -26.5c-38 0 -64.833 8.83301 -80.5 26.5s-23.5 39.5 -23.5 65.5c0 28 7.83301 50.5 23.5 67.5s42.5 25.5 80.5 25.5c39.333 0 67.666 -8.5 84.999 -25.5s26 -39.5 26 -67.5zM552 656
c0 -26 -8.16699 -47.833 -24.5 -65.5s-44.166 -26.5 -83.499 -26.5c-38 0 -65.333 8.83301 -82 26.5s-25 39.5 -25 65.5c0 28 8.33301 50.5 25 67.5s44 25.5 82 25.5c39.333 0 67.166 -8.5 83.499 -25.5s24.5 -39.5 24.5 -67.5z" />
    <glyph glyph-name="copyright" unicode="&#xa9;" horiz-adv-x="878" 
d="M837 326c0 -55.333 -10.5 -107.5 -31.5 -156.5s-49.833 -91.667 -86.5 -128s-79.334 -65 -128.001 -86s-100.334 -31.5 -155.001 -31.5c-55.333 0 -107.5 10.5 -156.5 31.5s-91.833 49.667 -128.5 86s-65.667 79 -87 128s-32 101.167 -32 156.5s10.667 107.333 32 156
s50.333 91.167 87 127.5s79.5 65 128.5 86s101.167 31.5 156.5 31.5c54.667 0 106.334 -10.5 155.001 -31.5s91.334 -49.667 128.001 -86s65.5 -78.833 86.5 -127.5s31.5 -100.667 31.5 -156zM751 326c0 43.333 -8.33301 84.166 -25 122.499s-39.167 71.833 -67.5 100.5
s-61.666 51.334 -99.999 68.001s-79.166 25 -122.499 25s-84.333 -8.33301 -123 -25s-72.334 -39.334 -101.001 -68.001s-51.334 -62.167 -68.001 -100.5s-25 -79.166 -25 -122.499s8.33301 -84.166 25 -122.499s39.334 -71.666 68.001 -99.999
s62.334 -50.833 101.001 -67.5s79.667 -25 123 -25s84.166 8.33301 122.499 25s71.666 39.167 99.999 67.5s50.833 61.666 67.5 99.999s25 79.166 25 122.499zM371 324c0 -27.333 3.16699 -48.6689 9.5 -64.002s15 -26.833 26 -34.5s23.667 -12.5 38 -14.5s29.5 -3 45.5 -3
c4.66699 0 11.167 0.166992 19.5 0.5s17.166 1 26.499 2s18.833 2.16699 28.5 3.5s17.834 2.66602 24.501 3.99902l21 -105c-24 -9.33301 -51 -16 -81 -20s-58 -6 -84 -6c-49.333 0 -89.666 6.66699 -120.999 20s-55.833 30.833 -73.5 52.5s-29.834 46.334 -36.501 74.001
s-10 55.834 -10 84.501c0 30 4 59.167 12 87.5s21.833 53.5 41.5 75.5s46.334 39.667 80.001 53s76.5 20 128.5 20c23.333 0 44.166 -1.33301 62.499 -4s39.166 -7.33398 62.499 -14.001l-18 -109c-14.667 2.66699 -29 4.66699 -43 6s-28.333 2 -43 2
c-16 0 -31 -1.66699 -45 -5s-26.167 -9.16602 -36.5 -17.499s-18.666 -19.666 -24.999 -33.999s-9.5 -32.5 -9.5 -54.5z" />
    <glyph glyph-name="ordfeminine" unicode="&#xaa;" horiz-adv-x="448" 
d="M390 378l33.001 0.00390625l5 -96c-16 -8 -35.333 -14 -58 -18s-42 -6 -58 -6c-16.667 0 -31.834 3.66699 -45.501 11s-23.167 17.666 -28.5 30.999c-10 -10.667 -20.167 -18.834 -30.5 -24.501s-20.333 -9.83398 -30 -12.501s-18.167 -4.16699 -25.5 -4.5
s-13 -0.5 -17 -0.5c-24.667 0 -44.667 3.5 -60 10.5s-27.5 15.667 -36.5 26s-15.167 21.333 -18.5 33s-5 22.5 -5 32.5c0 7.33301 1.16699 16 3.5 26s7 19.667 14 29s17.167 17.5 30.5 24.5s30.666 11.5 51.999 13.5c18 1.33301 34.667 2.5 50 3.5s35 2.16699 59 3.5v6
c0 8 -2.5 13.833 -7.5 17.5s-14.833 5.5 -29.5 5.5s-32.5 -1.33301 -53.5 -4s-38.5 -6 -52.5 -10l-27 102c24 9.33301 52 16.5 84 21.5s62.333 7.5 91 7.5c24.667 0 46.834 -2.16699 66.501 -6.5s36.5 -11.333 50.5 -21s24.833 -22.334 32.5 -38.001
s11.5 -35.167 11.5 -58.5v-104zM205.001 394.004c-12 -2 -17.999 -8.33301 -17.999 -19c0 -5.33301 1.16699 -9.5 3.5 -12.5s7.16602 -4.5 14.499 -4.5c2 0 5.16699 0.5 9.5 1.5s7.83301 2.16699 10.5 3.5v35z" />
    <glyph glyph-name="guillemotleft" unicode="&#xab;" horiz-adv-x="593" 
d="M30 229l198 212l95 -63l-109 -167l106 -163l-97 -68l-193 212v37zM278 229l198 212l96 -63l-109 -167l105 -163l-96 -68l-194 212v37z" />
    <glyph glyph-name="logicalnot" unicode="&#xac;" horiz-adv-x="642" 
d="M566 72h-127v175h-329v123h456v-298z" />
    <glyph glyph-name="sfthyphen" unicode="&#xad;" horiz-adv-x="437" 
d="M68 201v151h301v-151h-301z" />
    <glyph glyph-name="registered" unicode="&#xae;" horiz-adv-x="634" 
d="M599 457c0 -38.667 -6.83398 -75 -20.501 -109s-33 -63.833 -58 -89.5s-54.667 -45.834 -89 -60.501s-72.166 -22 -113.499 -22c-40.667 0 -78.334 7.33301 -113.001 22s-64.5 34.834 -89.5 60.501s-44.667 55.5 -59 89.5s-21.5 70.333 -21.5 109
c0 39.333 6.83301 76.166 20.5 110.499s33 64.166 58 89.499s54.833 45.333 89.5 60s73 22 115 22s80.167 -7.33301 114.5 -22s63.833 -34.667 88.5 -60s43.834 -55.166 57.501 -89.499s20.5 -71.166 20.5 -110.499zM535.999 457c0 30 -5.33301 58.167 -16 84.5
s-25.5 49.333 -44.5 69s-42 35.334 -69 47.001s-56.5 17.5 -88.5 17.5s-61.5 -5.83301 -88.5 -17.5s-50 -27.334 -69 -47.001s-33.833 -42.667 -44.5 -69s-16 -54.5 -16 -84.5s5 -58.167 15 -84.5s24.5 -49.333 43.5 -69s42 -35.167 69 -46.5s57.167 -17 90.5 -17
c35.333 0 66.5 5.66699 93.5 17s49.833 26.833 68.5 46.5s32.667 42.667 42 69s14 54.5 14 84.5zM348.999 523c0 18.667 -9.66699 28 -29 28h-20v-60h16c10 0 18 2.33301 24 7s9 13 9 25zM365.999 325l-40.999 107h-25l-1 -107h-98v287h146c21.333 0 39 -2.66699 53 -8
s25 -12.333 33 -21s13.5 -18.5 16.5 -29.5s4.5 -21.833 4.5 -32.5c0 -12.667 -3.33301 -26 -10 -40s-17.334 -24.667 -32.001 -32l55 -124h-101z" />
    <glyph glyph-name="macron" unicode="&#xaf;" horiz-adv-x="644" 
d="M115 704h420v-136h-420v136z" />
    <glyph glyph-name="degree" unicode="&#xb0;" horiz-adv-x="418" 
d="M377 537c0 -23.333 -4.66699 -45.5 -14 -66.5s-21.833 -39.333 -37.5 -55s-34 -28.167 -55 -37.5s-43.5 -14 -67.5 -14c-23.333 0 -45.5 4.16699 -66.5 12.5s-39.333 20 -55 35s-28.167 33.167 -37.5 54.5s-14 45 -14 71c0 24.667 4.66699 47.5 14 68.5
s21.833 39.167 37.5 54.5s34 27.5 55 36.5s43.167 13.5 66.5 13.5c24 0 46.5 -4.5 67.5 -13.5s39.333 -21.167 55 -36.5s28.167 -33.5 37.5 -54.5s14 -43.833 14 -68.5zM272 537c0 21.333 -6.33301 38.1699 -19 50.5029s-29.334 18.5 -50.001 18.5
c-20 0 -36.333 -6.33301 -49 -19s-19 -29.334 -19 -50.001s6.33301 -37.334 19 -50.001s29 -19 49 -19c20.667 0 37.334 6.16699 50.001 18.5s19 29.166 19 50.499z" />
    <glyph glyph-name="plusminus" unicode="&#xb1;" horiz-adv-x="642" 
d="M402 292v-133h-127v133h-165v123h165v140h127v-140h164v-123h-164zM566 123v-123h-456v123h456z" />
    <glyph glyph-name="twosuperior" unicode="&#xb2;" horiz-adv-x="438" 
d="M287 471h115v-117h-370v103l57.5 42c20.333 15.333 39 30.333 56 45s31 28.667 42 42s16.5 25 16.5 35c0 11.333 -8.66699 17 -26 17c-10 0 -24.667 -1.66699 -44 -5s-39 -10.333 -59 -21l-52 107c31.333 19.333 63 33.5 95 42.5s63 13.5 93 13.5
c62 0 106.667 -13.167 134 -39.5s41 -60.833 41 -103.5c0 -28.667 -9.16699 -57 -27.5 -85s-42.5 -51 -72.5 -69z" />
    <glyph glyph-name="threesuperior" unicode="&#xb3;" horiz-adv-x="438" 
d="M177 654l-124.001 0.000976562v114h325l20 -88l-76 -67c30.667 -11.333 52 -26.333 64 -45s18 -41.667 18 -69c0 -24.667 -5.16699 -46.334 -15.5 -65.001s-24.5 -34.167 -42.5 -46.5s-39.5 -21.666 -64.5 -27.999s-52.5 -9.5 -82.5 -9.5c-6 0 -15.5 0.333008 -28.5 1
s-27.833 2.5 -44.5 5.5s-34.167 7 -52.5 12s-35.833 12.167 -52.5 21.5l41 112c26 -8 48.833 -13.833 68.5 -17.5s36.167 -5.5 49.5 -5.5c31.333 0 47 6.66699 47 20c0 3.33301 -0.833008 6.66602 -2.5 9.99902s-6 6.5 -13 9.5s-17.167 5.33301 -30.5 7
s-31.666 2.5 -54.999 2.5v77l52 45z" />
    <glyph glyph-name="acute" unicode="&#xb4;" horiz-adv-x="571" 
d="M249 528l-73 87l190 182l104 -129z" />
    <glyph glyph-name="mu" unicode="&#xb5;" horiz-adv-x="637" 
d="M355 55c-12 -10.667 -24.167 -20.1699 -36.5 -28.5029s-24.166 -15.166 -35.499 -20.499v-217h-246c0.666992 118.667 0.5 236.667 -0.5 354s-0.833008 235.333 0.5 354h245v-290c0 -10 2.16699 -18 6.5 -24s13.166 -9 26.499 -9c4.66699 0 10.667 1.16699 18 3.5
s15 6.83301 23 13.5c0 50.667 0.166992 101.834 0.5 153.501s0.5 102.834 0.5 153.501h243c0.666992 -83.333 0.5 -166 -0.5 -248s-0.833008 -165.333 0.5 -250h-230l-8 49z" />
    <glyph glyph-name="mu" unicode="&#x3bc;" horiz-adv-x="637" 
d="M355 55c-12 -10.667 -24.167 -20.1699 -36.5 -28.5029s-24.166 -15.166 -35.499 -20.499v-217h-246c0.666992 118.667 0.5 236.667 -0.5 354s-0.833008 235.333 0.5 354h245v-290c0 -10 2.16699 -18 6.5 -24s13.166 -9 26.499 -9c4.66699 0 10.667 1.16699 18 3.5
s15 6.83301 23 13.5c0 50.667 0.166992 101.834 0.5 153.501s0.5 102.834 0.5 153.501h243c0.666992 -83.333 0.5 -166 -0.5 -248s-0.833008 -165.333 0.5 -250h-230l-8 49z" />
    <glyph glyph-name="paragraph" unicode="&#xb6;" horiz-adv-x="728" 
d="M276 246c-34 0 -65.333 5.33203 -94 15.999s-53.5 26 -74.5 46s-37.333 44.333 -49 73s-17.5 61.334 -17.5 98.001c0 32.667 5.33301 63.667 16 93s26 55 46 77s44.5 39.333 73.5 52s62.167 19 99.5 19h376v-948h-153v800h-50v-800h-155l1 474h-19z" />
    <glyph glyph-name="periodcentered" unicode="&#xb7;" horiz-adv-x="349" 
d="M291 258c0 -30 -9.16602 -54.5 -27.499 -73.5s-48.833 -28.5 -91.5 -28.5s-72.834 9.5 -90.501 28.5s-26.5 43.5 -26.5 73.5c0 30.667 9 55.334 27 74.001s48 28 90 28c43.333 0 74 -9.33301 92 -28s27 -43.334 27 -74.001z" />
    <glyph glyph-name="cedilla" unicode="&#xb8;" horiz-adv-x="527" 
d="M314 -52c32 -4 56.833 -14.166 74.5 -30.499s26.5 -37.166 26.5 -62.499c0 -15.333 -3.83301 -30.5 -11.5 -45.5s-20.167 -28.5 -37.5 -40.5s-40 -21.833 -68 -29.5s-62.333 -11.834 -103 -12.501l-1 69c32.667 2.66699 56.667 8.66699 72 18s23 19.666 23 30.999
c0 10 -4.66699 16.5 -14 19.5s-19.333 4.5 -30 4.5c-5.33301 0 -10 -0.166992 -14 -0.5s-7.66699 -0.5 -11 -0.5l-24 37l109 147l58 -34z" />
    <glyph glyph-name="onesuperior" unicode="&#xb9;" horiz-adv-x="403" 
d="M128 629l-81 -7l-19 102l130 44h148v-414h-178v275z" />
    <glyph glyph-name="ordmasculine" unicode="&#xba;" horiz-adv-x="470" 
d="M442 435c0 -52 -17.499 -94 -52.499 -126s-87.5 -48 -157.5 -48c-70.667 0 -123.334 16 -158.001 48s-52 74 -52 126c0 50.667 17.5 91.667 52.5 123s87.5 47 157.5 47s122.5 -15.667 157.5 -47s52.5 -72.333 52.5 -123zM263.001 435c0 16 -2.16699 29.165 -6.5 39.498
s-12.5 15.5 -24.5 15.5c-12.667 0 -21.167 -5.83301 -25.5 -17.5s-6.5 -24.167 -6.5 -37.5c0 -17.333 2.16699 -31.666 6.5 -42.999s12.833 -17 25.5 -17c12 0 20.167 5.33301 24.5 16s6.5 25.334 6.5 44.001z" />
    <glyph glyph-name="guillemotright" unicode="&#xbb;" horiz-adv-x="593" 
d="M572 192l-194 -212l-96 68l105 163l-109 167l96 63l198 -212v-37zM323 192l-193 -212l-97 68l106 163l-109 167l95 63l198 -212v-37z" />
    <glyph glyph-name="onequarter" unicode="&#xbc;" horiz-adv-x="1010" 
d="M174 539l-81 -7l-19 102l130 44h148v-414h-178v275zM399 -18h-140l350 738h140zM894 410v-207h53v-107h-53v-96h-172v96h-180v88l162 226h190zM717 266l-41 -63h47v63h-6z" />
    <glyph glyph-name="onehalf" unicode="&#xbd;" horiz-adv-x="1010" 
d="M160 539l-81 -7l-19 102l130 44h148v-414h-178v275zM372 -18h-140l350 738h140zM835 113h125v-117h-380v103l57.5 42c20.333 15.333 39 30.333 56 45s31 28.667 42 42s16.5 25 16.5 35c0 11.333 -8.66699 17 -26 17c-10 0 -24.667 -1.66699 -44 -5s-39 -10.333 -59 -21
l-52 107c31.333 19.333 63 33.5 95 42.5s63 13.5 93 13.5c62 0 106.667 -13.167 134 -39.5s41 -60.833 41 -103.5c0 -28.667 -9.16699 -57 -27.5 -85s-42.5 -51 -72.5 -69z" />
    <glyph glyph-name="threequarters" unicode="&#xbe;" horiz-adv-x="1010" 
d="M214 564l-124.001 0.000976562v114h325l20 -88l-76 -67c30.667 -11.333 52 -26.333 64 -45s18 -41.667 18 -69c0 -24.667 -5.16699 -46.334 -15.5 -65.001s-24.5 -34.167 -42.5 -46.5s-39.5 -21.666 -64.5 -27.999s-52.5 -9.5 -82.5 -9.5c-6 0 -15.5 0.333008 -28.5 1
s-27.833 2.5 -44.5 5.5s-34.167 7 -52.5 12s-35.833 12.167 -52.5 21.5l41 112c26 -8 48.833 -13.833 68.5 -17.5s36.167 -5.5 49.5 -5.5c31.333 0 47 6.66699 47 20c0 3.33301 -0.833008 6.66602 -2.5 9.99902s-6 6.5 -13 9.5s-17.167 5.33301 -30.5 7
s-31.666 2.5 -54.999 2.5v77l52 45zM429.999 -17.999h-140l350 738h140zM923.999 410.001v-207h53v-107h-53v-96h-172v96h-180v88l162 226h190zM746.999 266.001l-41 -63h47v63h-6z" />
    <glyph glyph-name="questiondown" unicode="&#xbf;" horiz-adv-x="587" 
d="M314 -230c-42 0 -78.999 5.16992 -110.999 15.5029s-59 24.666 -81 42.999s-38.5 40.166 -49.5 65.499s-16.5 53 -16.5 83c0 20 3.16699 38.333 9.5 55s14.5 32.167 24.5 46.5s21.167 27.5 33.5 39.5l37.5 35c20 17.333 37.667 34.666 53 51.999s23 36.333 23 57v20h201
v-54c0 -20 -2.33301 -38 -7 -54s-10.834 -30.167 -18.501 -42.5s-16 -23.666 -25 -33.999s-17.833 -19.833 -26.5 -28.5c-12.667 -12 -23.5 -23.667 -32.5 -35s-13.5 -24 -13.5 -38c0 -14.667 5 -26.334 15 -35.001s25 -13 45 -13c44.667 0 90.667 8.66699 138 26l49 -157
c-52 -20 -98.333 -32.833 -139 -38.5s-77 -8.5 -109 -8.5zM224.001 410.003c0 28 8.66602 51.167 25.999 69.5s46.333 27.5 87 27.5s69.334 -9.16699 86.001 -27.5s25 -41.5 25 -69.5c0 -29.333 -8.5 -52.833 -25.5 -70.5s-45.5 -26.5 -85.5 -26.5
c-41.333 0 -70.5 8.83301 -87.5 26.5s-25.5 41.167 -25.5 70.5z" />
    <glyph glyph-name="Agrave" unicode="&#xc0;" horiz-adv-x="805" 
d="M510 123h-220l-39 -123h-246l249 693h315l231 -693h-256zM216 868l96 120l190 -182l-65 -78zM401 525l-30 -141l-30 -103h123l-29 106l-26 138h-8z" />
    <glyph glyph-name="Aacute" unicode="&#xc1;" horiz-adv-x="805" 
d="M510 123h-220l-39 -123h-246l249 693h315l231 -693h-256zM408 723l-65 78l189 183l101 -120zM401 525l-30 -141l-30 -103h123l-29 106l-26 138h-8z" />
    <glyph glyph-name="Acircumflex" unicode="&#xc2;" horiz-adv-x="805" 
d="M510 123h-220l-39 -123h-246l249 693h315l231 -693h-256zM592 713l-181 95l-178 -93l-51 60l159 162h142l163 -162zM401 525l-30 -141l-30 -103h123l-29 106l-26 138h-8z" />
    <glyph glyph-name="Atilde" unicode="&#xc3;" horiz-adv-x="805" 
d="M510 123h-220l-39 -123h-246l249 693h315l231 -693h-256zM509 755c-20 0 -40.334 2.00098 -61.001 6.00098s-40.834 8.33301 -60.501 13l-55 13c-17 4 -31.5 6 -43.5 6l-54 -39l-62 48c16.667 46.667 35.834 78.334 57.501 95.001s45.5 25 71.5 25
c18 0 36.333 -1.83301 55 -5.5s37.334 -7.83398 56.001 -12.501s37 -8.83398 55 -12.501s35.333 -5.5 52 -5.5l55 41l60 -48c-14 -42.667 -31 -74 -51 -94s-45 -30 -75 -30zM400.999 525.001l-30 -141l-30 -103h123l-29 106l-26 138h-8z" />
    <glyph glyph-name="Adieresis" unicode="&#xc4;" horiz-adv-x="805" 
d="M510 123h-220l-39 -123h-246l249 693h315l231 -693h-256zM377 828c0 -26 -8.66699 -47.833 -26 -65.5s-45.666 -26.5 -84.999 -26.5c-38 0 -64.833 8.83301 -80.5 26.5s-23.5 39.5 -23.5 65.5c0 28 7.83301 50.5 23.5 67.5s42.5 25.5 80.5 25.5
c39.333 0 67.666 -8.5 84.999 -25.5s26 -39.5 26 -67.5zM628 828c0 -26 -8.16699 -47.833 -24.5 -65.5s-44.166 -26.5 -83.499 -26.5c-38 0 -65.333 8.83301 -82 26.5s-25 39.5 -25 65.5c0 28 8.33301 50.5 25 67.5s44 25.5 82 25.5c39.333 0 67.166 -8.5 83.499 -25.5
s24.5 -39.5 24.5 -67.5zM401 525l-30 -141l-30 -103h123l-29 106l-26 138h-8z" />
    <glyph glyph-name="Aring" unicode="&#xc5;" horiz-adv-x="805" 
d="M510 123l-220.001 -0.000976562l-39 -123h-246l249 693h63c-17.333 13.333 -31.333 29.833 -42 49.5s-16 41.167 -16 64.5c0 19.333 3.83301 37.833 11.5 55.5s18.334 33.167 32.001 46.5s29.5 23.833 47.5 31.5s37.667 11.5 59 11.5s41 -3.83301 59 -11.5
s33.333 -18.167 46 -31.5s22.5 -28.666 29.5 -45.999s10.5 -36 10.5 -56c0 -23.333 -5 -44.833 -15 -64.5s-23.667 -36.167 -41 -49.5h71l231 -693h-256zM400.999 524.999l-30 -141l-30 -103h123l-29 106l-26 138h-8zM408.999 854.999
c-14.667 0 -26.834 -5.16699 -36.501 -15.5s-14.5 -22.166 -14.5 -35.499c0 -11.333 4.33301 -22.166 13 -32.499s21.334 -15.5 38.001 -15.5c14.667 0 26 5.16699 34 15.5s12 21.166 12 32.499c0 13.333 -3.83301 25.166 -11.5 35.499s-19.167 15.5 -34.5 15.5z" />
    <glyph glyph-name="AE" unicode="&#xc6;" horiz-adv-x="1192" 
d="M578 141h-221l-81 -141h-271l427 693h687l-1 -168h-289v-88h240v-160h-240v-107h298v-170h-549v141zM571 523c-10.667 -19.333 -20.668 -38.668 -30.001 -58.001s-18.666 -36.666 -27.999 -51.999l-66 -115h130v225h-6z" />
    <glyph glyph-name="Ccedilla" unicode="&#xc7;" horiz-adv-x="683" 
d="M427 710c31.333 0 63.8311 -2.66602 97.498 -7.99902s67.5 -12.666 101.5 -21.999l-27 -179c-25.333 4 -49.666 7.33301 -72.999 10s-44.666 4 -63.999 4c-22 0 -42.667 -2.16699 -62 -6.5s-36 -12.166 -50 -23.499s-25 -27.333 -33 -48s-12 -47 -12 -79
c0 -39.333 3.83301 -70.5 11.5 -93.5s18.834 -40.333 33.501 -52s32.167 -19.167 52.5 -22.5s43.166 -5 68.499 -5c6.66699 0 16.5 0.5 29.5 1.5s27 2.33301 42 4s30.167 3.66699 45.5 6s29 4.83301 41 7.5l36 -173c-32 -12 -67.167 -21.5 -105.5 -28.5
s-75.833 -11.5 -112.5 -13.5l-40 -58c32 -4 56.833 -14.167 74.5 -30.5s26.5 -37.166 26.5 -62.499c0 -15.333 -3.83301 -30.5 -11.5 -45.5s-20.167 -28.5 -37.5 -40.5s-40 -21.833 -68 -29.5s-62.333 -11.834 -103 -12.501l-1 69c32.667 2.66699 56.667 8.66699 72 18
s23 19.666 23 30.999c0 10 -4.66699 16.5 -14 19.5s-19.333 4.5 -30 4.5c-5.33301 0 -10 -0.166992 -14 -0.5s-7.66699 -0.5 -11 -0.5l-24 37l75 102c-66.667 4 -121.167 16.667 -163.5 38s-75.5 48.166 -99.5 80.499s-40.333 68.666 -49 108.999s-13 81.833 -13 124.5
c0 46.667 5.83301 92 17.5 136s32.167 83.167 61.5 117.5s69 62 119 83s113.333 31.5 190 31.5z" />
    <glyph glyph-name="Egrave" unicode="&#xc8;" horiz-adv-x="676" 
d="M59 0v693h566v-168h-313v-88h262v-160h-262v-107h325v-170h-578zM195 868l96 120l190 -182l-65 -78z" />
    <glyph glyph-name="Eacute" unicode="&#xc9;" horiz-adv-x="676" 
d="M59 0v693h566v-168h-313v-88h262v-160h-262v-107h325v-170h-578zM326 726l-65 78l189 183l101 -120z" />
    <glyph glyph-name="Ecircumflex" unicode="&#xca;" horiz-adv-x="676" 
d="M59 0v693h566v-168h-313v-88h262v-160h-262v-107h325v-170h-578zM534 733l-181 95l-178 -93l-51 60l159 162h142l163 -162z" />
    <glyph glyph-name="Edieresis" unicode="&#xcb;" horiz-adv-x="676" 
d="M59 0v693h566v-168h-313v-88h262v-160h-262v-107h325v-170h-578zM324 827c0 -26 -8.66699 -47.833 -26 -65.5s-45.666 -26.5 -84.999 -26.5c-38 0 -64.833 8.83301 -80.5 26.5s-23.5 39.5 -23.5 65.5c0 28 7.83301 50.5 23.5 67.5s42.5 25.5 80.5 25.5
c39.333 0 67.666 -8.5 84.999 -25.5s26 -39.5 26 -67.5zM575 827c0 -26 -8.16699 -47.833 -24.5 -65.5s-44.166 -26.5 -83.499 -26.5c-38 0 -65.333 8.83301 -82 26.5s-25 39.5 -25 65.5c0 28 8.33301 50.5 25 67.5s44 25.5 82 25.5c39.333 0 67.166 -8.5 83.499 -25.5
s24.5 -39.5 24.5 -67.5z" />
    <glyph glyph-name="Igrave" unicode="&#xcc;" horiz-adv-x="381" 
d="M65 0v693h250v-693h-250zM7 870l96 120l190 -182l-65 -78z" />
    <glyph glyph-name="Iacute" unicode="&#xcd;" horiz-adv-x="381" 
d="M65 0v693h250v-693h-250zM171 737l-65 78l189 183l101 -120z" />
    <glyph glyph-name="Icircumflex" unicode="&#xce;" horiz-adv-x="381" 
d="M65 0v693h250v-693h-250zM364 737l-181 95l-178 -93l-51 60l159 162h142l163 -162z" />
    <glyph glyph-name="Idieresis" unicode="&#xcf;" horiz-adv-x="381" 
d="M65 0v693h250v-693h-250zM175 845c0 -26 -8.66699 -47.833 -26 -65.5s-45.666 -26.5 -84.999 -26.5c-38 0 -64.833 8.83301 -80.5 26.5s-23.5 39.5 -23.5 65.5c0 28 7.83301 50.5 23.5 67.5s42.5 25.5 80.5 25.5c39.333 0 67.666 -8.5 84.999 -25.5s26 -39.5 26 -67.5z
M426 845c0 -26 -8.16699 -47.833 -24.5 -65.5s-44.166 -26.5 -83.499 -26.5c-38 0 -65.333 8.83301 -82 26.5s-25 39.5 -25 65.5c0 28 8.33301 50.5 25 67.5s44 25.5 82 25.5c39.333 0 67.166 -8.5 83.499 -25.5s24.5 -39.5 24.5 -67.5z" />
    <glyph glyph-name="Eth" unicode="&#xd0;" horiz-adv-x="765" 
d="M60 0l-0.000976562 307.999h-52v92h52v293h317c69.333 0 126.5 -9.16699 171.5 -27.5s80.5 -43.166 106.5 -74.499s44.167 -68 54.5 -110s15.5 -86.333 15.5 -133c0 -45.333 -6 -89 -18 -131s-31.667 -79 -59 -111s-63.166 -57.667 -107.499 -77s-98.833 -29 -163.5 -29
h-317zM311.999 524.999l-0.000976562 -124.998h67v-92h-67v-138h47c21.333 0 38.833 4.83301 52.5 14.5s24.334 22.667 32.001 39s13 35.166 16 56.499s4.5 43.666 4.5 66.999c0 24 -1.66699 46.833 -5 68.5s-9.16602 40.5 -17.499 56.5s-19.833 28.833 -34.5 38.5
s-33.334 14.5 -56.001 14.5h-39z" />
    <glyph glyph-name="Ntilde" unicode="&#xd1;" horiz-adv-x="841" 
d="M538 339v354h243v-693h-255l-146 237l-71 127h-6v-364h-243v693h255l151 -240l64 -114h8zM532 756c-20 0 -40.334 2.00098 -61.001 6.00098s-40.834 8.33301 -60.501 13l-55 13c-17 4 -31.5 6 -43.5 6l-54 -39l-62 48c16.667 46.667 35.834 78.334 57.501 95.001
s45.5 25 71.5 25c18 0 36.333 -1.83301 55 -5.5s37.334 -7.83398 56.001 -12.501s37 -8.83398 55 -12.501s35.333 -5.5 52 -5.5l55 41l60 -48c-14 -42.667 -31 -74 -51 -94s-45 -30 -75 -30z" />
    <glyph glyph-name="Ograve" unicode="&#xd2;" horiz-adv-x="825" 
d="M785 350c0 -52 -7.83301 -100.167 -23.5 -144.5s-39.167 -82.666 -70.5 -114.999s-70.166 -57.5 -116.499 -75.5s-100.5 -27 -162.5 -27s-116.167 9 -162.5 27s-85 43.167 -116 75.5s-54.333 70.666 -70 114.999s-23.5 92.5 -23.5 144.5s7.83301 100 23.5 144
s39 81.833 70 113.5s69.667 56.5 116 74.5s100.5 27 162.5 27s116.167 -9 162.5 -27s85.166 -42.833 116.499 -74.5s54.833 -69.5 70.5 -113.5s23.5 -92 23.5 -144zM517 350c0 27.333 -1.66797 52.334 -5.00098 75.001s-9 42 -17 58s-18.667 28.5 -32 37.5
s-30.333 13.5 -51 13.5c-22 0 -39.833 -4.83301 -53.5 -14.5s-24.334 -23 -32.001 -40s-13 -36.667 -16 -59s-4.5 -45.833 -4.5 -70.5c0 -28.667 1.5 -54.667 4.5 -78s8.33301 -43.166 16 -59.499s18.334 -29 32.001 -38s31.5 -13.5 53.5 -13.5
c21.333 0 38.833 4.33301 52.5 13s24.334 21.167 32.001 37.5s13 36.166 16 59.499s4.5 49.666 4.5 78.999zM241.999 886.001l96 120l190 -182l-65 -78z" />
    <glyph glyph-name="Oacute" unicode="&#xd3;" horiz-adv-x="825" 
d="M785 350c0 -52 -7.83301 -100.167 -23.5 -144.5s-39.167 -82.666 -70.5 -114.999s-70.166 -57.5 -116.499 -75.5s-100.5 -27 -162.5 -27s-116.167 9 -162.5 27s-85 43.167 -116 75.5s-54.333 70.666 -70 114.999s-23.5 92.5 -23.5 144.5s7.83301 100 23.5 144
s39 81.833 70 113.5s69.667 56.5 116 74.5s100.5 27 162.5 27s116.167 -9 162.5 -27s85.166 -42.833 116.499 -74.5s54.833 -69.5 70.5 -113.5s23.5 -92 23.5 -144zM517 350c0 27.333 -1.66797 52.334 -5.00098 75.001s-9 42 -17 58s-18.667 28.5 -32 37.5
s-30.333 13.5 -51 13.5c-22 0 -39.833 -4.83301 -53.5 -14.5s-24.334 -23 -32.001 -40s-13 -36.667 -16 -59s-4.5 -45.833 -4.5 -70.5c0 -28.667 1.5 -54.667 4.5 -78s8.33301 -43.166 16 -59.499s18.334 -29 32.001 -38s31.5 -13.5 53.5 -13.5
c21.333 0 38.833 4.33301 52.5 13s24.334 21.167 32.001 37.5s13 36.166 16 59.499s4.5 49.666 4.5 78.999zM423.999 747.001l-65 78l189 183l101 -120z" />
    <glyph glyph-name="Ocircumflex" unicode="&#xd4;" horiz-adv-x="825" 
d="M785 350c0 -52 -7.83301 -100.167 -23.5 -144.5s-39.167 -82.666 -70.5 -114.999s-70.166 -57.5 -116.499 -75.5s-100.5 -27 -162.5 -27s-116.167 9 -162.5 27s-85 43.167 -116 75.5s-54.333 70.666 -70 114.999s-23.5 92.5 -23.5 144.5s7.83301 100 23.5 144
s39 81.833 70 113.5s69.667 56.5 116 74.5s100.5 27 162.5 27s116.167 -9 162.5 -27s85.166 -42.833 116.499 -74.5s54.833 -69.5 70.5 -113.5s23.5 -92 23.5 -144zM517 350c0 27.333 -1.66797 52.334 -5.00098 75.001s-9 42 -17 58s-18.667 28.5 -32 37.5
s-30.333 13.5 -51 13.5c-22 0 -39.833 -4.83301 -53.5 -14.5s-24.334 -23 -32.001 -40s-13 -36.667 -16 -59s-4.5 -45.833 -4.5 -70.5c0 -28.667 1.5 -54.667 4.5 -78s8.33301 -43.166 16 -59.499s18.334 -29 32.001 -38s31.5 -13.5 53.5 -13.5
c21.333 0 38.833 4.33301 52.5 13s24.334 21.167 32.001 37.5s13 36.166 16 59.499s4.5 49.666 4.5 78.999zM597.999 733.001l-181 95l-178 -93l-51 60l159 162h142l163 -162z" />
    <glyph glyph-name="Otilde" unicode="&#xd5;" horiz-adv-x="825" 
d="M785 350c0 -52 -7.83301 -100.167 -23.5 -144.5s-39.167 -82.666 -70.5 -114.999s-70.166 -57.5 -116.499 -75.5s-100.5 -27 -162.5 -27s-116.167 9 -162.5 27s-85 43.167 -116 75.5s-54.333 70.666 -70 114.999s-23.5 92.5 -23.5 144.5s7.83301 100 23.5 144
s39 81.833 70 113.5s69.667 56.5 116 74.5s100.5 27 162.5 27s116.167 -9 162.5 -27s85.166 -42.833 116.499 -74.5s54.833 -69.5 70.5 -113.5s23.5 -92 23.5 -144zM517 350c0 27.333 -1.66797 52.334 -5.00098 75.001s-9 42 -17 58s-18.667 28.5 -32 37.5
s-30.333 13.5 -51 13.5c-22 0 -39.833 -4.83301 -53.5 -14.5s-24.334 -23 -32.001 -40s-13 -36.667 -16 -59s-4.5 -45.833 -4.5 -70.5c0 -28.667 1.5 -54.667 4.5 -78s8.33301 -43.166 16 -59.499s18.334 -29 32.001 -38s31.5 -13.5 53.5 -13.5
c21.333 0 38.833 4.33301 52.5 13s24.334 21.167 32.001 37.5s13 36.166 16 59.499s4.5 49.666 4.5 78.999zM520.999 770.001c-20 0 -40.334 2.00098 -61.001 6.00098s-40.834 8.33301 -60.501 13l-55 13c-17 4 -31.5 6 -43.5 6l-54 -39l-62 48
c16.667 46.667 35.834 78.334 57.501 95.001s45.5 25 71.5 25c18 0 36.333 -1.83301 55 -5.5s37.334 -7.83398 56.001 -12.501s37 -8.83398 55 -12.501s35.333 -5.5 52 -5.5l55 41l60 -48c-14 -42.667 -31 -74 -51 -94s-45 -30 -75 -30z" />
    <glyph glyph-name="Odieresis" unicode="&#xd6;" horiz-adv-x="825" 
d="M785 350c0 -52 -7.83301 -100.167 -23.5 -144.5s-39.167 -82.666 -70.5 -114.999s-70.166 -57.5 -116.499 -75.5s-100.5 -27 -162.5 -27s-116.167 9 -162.5 27s-85 43.167 -116 75.5s-54.333 70.666 -70 114.999s-23.5 92.5 -23.5 144.5s7.83301 100 23.5 144
s39 81.833 70 113.5s69.667 56.5 116 74.5s100.5 27 162.5 27s116.167 -9 162.5 -27s85.166 -42.833 116.499 -74.5s54.833 -69.5 70.5 -113.5s23.5 -92 23.5 -144zM517 350c0 27.333 -1.66797 52.334 -5.00098 75.001s-9 42 -17 58s-18.667 28.5 -32 37.5
s-30.333 13.5 -51 13.5c-22 0 -39.833 -4.83301 -53.5 -14.5s-24.334 -23 -32.001 -40s-13 -36.667 -16 -59s-4.5 -45.833 -4.5 -70.5c0 -28.667 1.5 -54.667 4.5 -78s8.33301 -43.166 16 -59.499s18.334 -29 32.001 -38s31.5 -13.5 53.5 -13.5
c21.333 0 38.833 4.33301 52.5 13s24.334 21.167 32.001 37.5s13 36.166 16 59.499s4.5 49.666 4.5 78.999zM381.999 850.001c0 -26 -8.66699 -47.833 -26 -65.5s-45.666 -26.5 -84.999 -26.5c-38 0 -64.833 8.83301 -80.5 26.5s-23.5 39.5 -23.5 65.5
c0 28 7.83301 50.5 23.5 67.5s42.5 25.5 80.5 25.5c39.333 0 67.666 -8.5 84.999 -25.5s26 -39.5 26 -67.5zM632.999 850.001c0 -26 -8.16699 -47.833 -24.5 -65.5s-44.166 -26.5 -83.499 -26.5c-38 0 -65.333 8.83301 -82 26.5s-25 39.5 -25 65.5
c0 28 8.33301 50.5 25 67.5s44 25.5 82 25.5c39.333 0 67.166 -8.5 83.499 -25.5s24.5 -39.5 24.5 -67.5z" />
    <glyph glyph-name="multiply" unicode="&#xd7;" horiz-adv-x="662" 
d="M341 219l-124 -123l-90 89l124 124l-124 124l87 87l124 -124l122 122l89 -90l-121 -122l123 -123l-87 -87z" />
    <glyph glyph-name="Oslash" unicode="&#xd8;" horiz-adv-x="825" 
d="M785 350c0 -52 -7.83398 -100.167 -23.501 -144.5s-39.167 -82.666 -70.5 -114.999s-70.166 -57.5 -116.499 -75.5s-100.5 -27 -162.5 -27c-47.333 0 -89.833 5.33301 -127.5 16s-71.5 25.667 -101.5 45l-54 -59h-83l89 98c-32 32.667 -55.833 71.167 -71.5 115.5
s-23.5 93.166 -23.5 146.499c0 52 7.83301 100 23.5 144s39 81.833 70 113.5s69.667 56.5 116 74.5s100.5 27 162.5 27c48 0 90.833 -5.5 128.5 -16.5s71.5 -26.167 101.5 -45.5l56 62h95l-98 -106c30 -32 52.5 -69.5 67.5 -112.5s22.5 -89.833 22.5 -140.5zM305.999 350
c0 -26 1.00195 -49.333 3.00195 -70l186 205c-16.667 32.667 -44.334 49 -83.001 49c-22 0 -39.833 -4.83301 -53.5 -14.5s-24.334 -23 -32.001 -40s-13 -36.667 -16 -59s-4.5 -45.833 -4.5 -70.5zM517.001 350c0 20.667 -1.00098 39.6689 -3.00098 57.002l-185 -200
c8 -15.333 18.667 -26.833 32 -34.5s30.333 -11.5 51 -11.5c21.333 0 38.833 4.33301 52.5 13s24.334 21.167 32.001 37.5s13 36.166 16 59.499s4.5 49.666 4.5 78.999z" />
    <glyph glyph-name="Ugrave" unicode="&#xd9;" horiz-adv-x="781" 
d="M720 266c0 -90 -25.668 -158.668 -77.001 -206.001s-134.666 -71 -249.999 -71c-61.333 0 -113 6.33301 -155 19s-76.333 30.834 -103 54.501s-45.834 52.667 -57.501 87s-17.5 73.166 -17.5 116.499v427h247v-441c0 -34 7.16699 -57.667 21.5 -71s36.5 -20 66.5 -20
c10 0 20 1.33301 30 4s18.833 7.33398 26.5 14.001s13.834 16 18.501 28s7 27 7 45l-1 441h245zM202.999 885.999l96 120l190 -182l-65 -78z" />
    <glyph glyph-name="Uacute" unicode="&#xda;" horiz-adv-x="781" 
d="M720 266c0 -90 -25.668 -158.668 -77.001 -206.001s-134.666 -71 -249.999 -71c-61.333 0 -113 6.33301 -155 19s-76.333 30.834 -103 54.501s-45.834 52.667 -57.501 87s-17.5 73.166 -17.5 116.499v427h247v-441c0 -34 7.16699 -57.667 21.5 -71s36.5 -20 66.5 -20
c10 0 20 1.33301 30 4s18.833 7.33398 26.5 14.001s13.834 16 18.501 28s7 27 7 45l-1 441h245zM378.999 746.999l-65 78l189 183l101 -120z" />
    <glyph glyph-name="Ucircumflex" unicode="&#xdb;" horiz-adv-x="781" 
d="M720 266c0 -90 -25.668 -158.668 -77.001 -206.001s-134.666 -71 -249.999 -71c-61.333 0 -113 6.33301 -155 19s-76.333 30.834 -103 54.501s-45.834 52.667 -57.501 87s-17.5 73.166 -17.5 116.499v427h247v-441c0 -34 7.16699 -57.667 21.5 -71s36.5 -20 66.5 -20
c10 0 20 1.33301 30 4s18.833 7.33398 26.5 14.001s13.834 16 18.501 28s7 27 7 45l-1 441h245zM573.999 746.999l-188 93l-184 -91l-53 59l165 159h147l170 -159z" />
    <glyph glyph-name="Udieresis" unicode="&#xdc;" horiz-adv-x="781" 
d="M720 266c0 -90 -25.668 -158.668 -77.001 -206.001s-134.666 -71 -249.999 -71c-61.333 0 -113 6.33301 -155 19s-76.333 30.834 -103 54.501s-45.834 52.667 -57.501 87s-17.5 73.166 -17.5 116.499v427h247v-441c0 -34 7.16699 -57.667 21.5 -71s36.5 -20 66.5 -20
c10 0 20 1.33301 30 4s18.833 7.33398 26.5 14.001s13.834 16 18.501 28s7 27 7 45l-1 441h245zM373.999 834.999c0 -26 -8.66699 -47.833 -26 -65.5s-45.666 -26.5 -84.999 -26.5c-38 0 -64.833 8.83301 -80.5 26.5s-23.5 39.5 -23.5 65.5c0 28 7.83301 50.5 23.5 67.5
s42.5 25.5 80.5 25.5c39.333 0 67.666 -8.5 84.999 -25.5s26 -39.5 26 -67.5zM624.999 834.999c0 -26 -8.16699 -47.833 -24.5 -65.5s-44.166 -26.5 -83.499 -26.5c-38 0 -65.333 8.83301 -82 26.5s-25 39.5 -25 65.5c0 28 8.33301 50.5 25 67.5s44 25.5 82 25.5
c39.333 0 67.166 -8.5 83.499 -25.5s24.5 -39.5 24.5 -67.5z" />
    <glyph glyph-name="Yacute" unicode="&#xdd;" horiz-adv-x="774" 
d="M394 387c4 9.33301 7.83301 20.167 11.5 32.5l11.5 38l12 37.5c4 12 8 22.667 12 32l70 166h258l-243 -466v-227h-272v213l-249 480h262l73 -172l44 -134h10zM384 735.001l-65 78l189 183l101 -120z" />
    <glyph glyph-name="Thorn" unicode="&#xde;" horiz-adv-x="664" 
d="M655 344c0 -31.333 -5.5 -60.832 -16.5 -88.499s-27.5 -51.834 -49.5 -72.501s-49 -37 -81 -49s-69 -18 -111 -18h-86v-116h-252v692h252v-119h70c52 0 95.667 -6 131 -18s63.5 -28.333 84.5 -49s36 -45 45 -73s13.5 -57.667 13.5 -89zM311 405.001v-126.999h31
c18.667 0 33.167 5.33301 43.5 16s15.5 25.667 15.5 45c0 25.333 -6 42.666 -18 51.999s-27.667 14 -47 14h-25z" />
    <glyph glyph-name="germandbls" unicode="&#xdf;" horiz-adv-x="775" 
d="M371 754c54 0 98.499 -6 133.499 -18s62.667 -26.833 83 -44.5s34.333 -36.167 42 -55.5s11.5 -36.333 11.5 -51c0 -24 -4.66699 -45 -14 -63s-19.833 -33.833 -31.5 -47.5s-22.167 -25 -31.5 -34s-14 -16.5 -14 -22.5s5.16699 -12.667 15.5 -20s23.333 -15.833 39 -25.5
s32.5 -20.834 50.5 -33.501s34.833 -27.167 50.5 -43.5s28.667 -34.833 39 -55.5s15.5 -43.667 15.5 -69c0 -64 -22.333 -112.333 -67 -145s-105.334 -49 -182.001 -49c-14 0 -26.667 0.333008 -38 1s-22.5 1.66699 -33.5 3s-22.333 3.16602 -34 5.49902
s-24.834 5.5 -39.501 9.5l31 154c20.667 -4.66699 36.667 -7.66699 48 -9s19.666 -2 24.999 -2c11.333 0 20.833 1.83301 28.5 5.5s11.5 10.167 11.5 19.5c0 10.667 -4.16699 21.5 -12.5 32.5s-18.666 22.333 -30.999 34l-40 36.5c-14.333 12.667 -27.666 26.5 -39.999 41.5
s-22.666 31 -30.999 48s-12.5 35.833 -12.5 56.5c0 22.667 4.16699 41.334 12.5 56.001s17.5 27.167 27.5 37.5l27.5 27.5c8.33301 8 12.5 16.667 12.5 26c0 10.667 -4.83301 18.667 -14.5 24s-20.5 8 -32.5 8c-21.333 0 -35.666 -6.83301 -42.999 -20.5
s-11 -30.167 -11 -49.5v-521h-238v361h-60v123h60v65c0 19.333 4 40.833 12 64.5s22.5 45.834 43.5 66.501s50.167 38 87.5 52s85.333 21 144 21z" />
    <glyph glyph-name="agrave" unicode="&#xe0;" horiz-adv-x="661" 
d="M360 45c-14.667 -14.667 -30.833 -26.001 -48.5 -34.001s-34.834 -14 -51.501 -18s-31.5 -6.33301 -44.5 -7s-22.5 -1 -28.5 -1c-34.667 0 -63 5.16699 -85 15.5s-39.333 23 -52 38s-21.334 31.333 -26.001 49s-7 33.834 -7 48.501c0 11.333 1.5 24.333 4.5 39
s9.33301 29 19 43s23.834 26.5 42.501 37.5s44 18.167 76 21.5l187 20v4c0 28 -23 42 -69 42c-12 0 -25.333 -0.5 -40 -1.5s-29.667 -2.5 -45 -4.5s-29.833 -4.16699 -43.5 -6.5s-25.5 -4.83301 -35.5 -7.5l-34 144c16 6.66699 34.5 12.667 55.5 18s43 9.83301 66 13.5
s46.333 6.5 70 8.5s45.834 3 66.501 3c35.333 0 67.833 -3.16699 97.5 -9.5s55.334 -16.666 77.001 -30.999s38.667 -33.333 51 -57s18.5 -52.834 18.5 -87.501v-170h54l9 -134c-21.333 -11.333 -47.5 -20.333 -78.5 -27s-63.5 -10 -97.5 -10
c-24.667 0 -46.834 4 -66.501 12s-32.167 23.667 -37.5 47zM288.001 191.999c-8.66699 -2 -14.499 -5.66602 -17.499 -10.999s-4.5 -10.333 -4.5 -15c0 -11.333 2 -20.5 6 -27.5s11.667 -10.5 23 -10.5c5.33301 0 13.666 1.16699 24.999 3.5s19.333 5.16602 24 8.49902v61z
M153.002 660l113 137l193 -174l-79 -97z" />
    <glyph glyph-name="aacute" unicode="&#xe1;" horiz-adv-x="661" 
d="M360 45c-14.667 -14.667 -30.833 -26.001 -48.5 -34.001s-34.834 -14 -51.501 -18s-31.5 -6.33301 -44.5 -7s-22.5 -1 -28.5 -1c-34.667 0 -63 5.16699 -85 15.5s-39.333 23 -52 38s-21.334 31.333 -26.001 49s-7 33.834 -7 48.501c0 11.333 1.5 24.333 4.5 39
s9.33301 29 19 43s23.834 26.5 42.501 37.5s44 18.167 76 21.5l187 20v4c0 28 -23 42 -69 42c-12 0 -25.333 -0.5 -40 -1.5s-29.667 -2.5 -45 -4.5s-29.833 -4.16699 -43.5 -6.5s-25.5 -4.83301 -35.5 -7.5l-34 144c16 6.66699 34.5 12.667 55.5 18s43 9.83301 66 13.5
s46.333 6.5 70 8.5s45.834 3 66.501 3c35.333 0 67.833 -3.16699 97.5 -9.5s55.334 -16.666 77.001 -30.999s38.667 -33.333 51 -57s18.5 -52.834 18.5 -87.501v-170h54l9 -134c-21.333 -11.333 -47.5 -20.333 -78.5 -27s-63.5 -10 -97.5 -10
c-24.667 0 -46.834 4 -66.501 12s-32.167 23.667 -37.5 47zM288.001 191.999c-8.66699 -2 -14.499 -5.66602 -17.499 -10.999s-4.5 -10.333 -4.5 -15c0 -11.333 2 -20.5 6 -27.5s11.667 -10.5 23 -10.5c5.33301 0 13.666 1.16699 24.999 3.5s19.333 5.16602 24 8.49902v61z
M297.002 528l-73 87l190 182l104 -129z" />
    <glyph glyph-name="acircumflex" unicode="&#xe2;" horiz-adv-x="661" 
d="M360 45c-14.667 -14.667 -30.833 -26.001 -48.5 -34.001s-34.834 -14 -51.501 -18s-31.5 -6.33301 -44.5 -7s-22.5 -1 -28.5 -1c-34.667 0 -63 5.16699 -85 15.5s-39.333 23 -52 38s-21.334 31.333 -26.001 49s-7 33.834 -7 48.501c0 11.333 1.5 24.333 4.5 39
s9.33301 29 19 43s23.834 26.5 42.501 37.5s44 18.167 76 21.5l187 20v4c0 28 -23 42 -69 42c-12 0 -25.333 -0.5 -40 -1.5s-29.667 -2.5 -45 -4.5s-29.833 -4.16699 -43.5 -6.5s-25.5 -4.83301 -35.5 -7.5l-34 144c16 6.66699 34.5 12.667 55.5 18s43 9.83301 66 13.5
s46.333 6.5 70 8.5s45.834 3 66.501 3c35.333 0 67.833 -3.16699 97.5 -9.5s55.334 -16.666 77.001 -30.999s38.667 -33.333 51 -57s18.5 -52.834 18.5 -87.501v-170h54l9 -134c-21.333 -11.333 -47.5 -20.333 -78.5 -27s-63.5 -10 -97.5 -10
c-24.667 0 -46.834 4 -66.501 12s-32.167 23.667 -37.5 47zM288.001 191.999c-8.66699 -2 -14.499 -5.66602 -17.499 -10.999s-4.5 -10.333 -4.5 -15c0 -11.333 2 -20.5 6 -27.5s11.667 -10.5 23 -10.5c5.33301 0 13.666 1.16699 24.999 3.5s19.333 5.16602 24 8.49902v61z
M503.002 526l-181 98l-181 -96l-48 60l159 172h142l163 -172z" />
    <glyph glyph-name="atilde" unicode="&#xe3;" horiz-adv-x="661" 
d="M360 45c-14.667 -14.667 -30.833 -26.001 -48.5 -34.001s-34.834 -14 -51.501 -18s-31.5 -6.33301 -44.5 -7s-22.5 -1 -28.5 -1c-34.667 0 -63 5.16699 -85 15.5s-39.333 23 -52 38s-21.334 31.333 -26.001 49s-7 33.834 -7 48.501c0 11.333 1.5 24.333 4.5 39
s9.33301 29 19 43s23.834 26.5 42.501 37.5s44 18.167 76 21.5l187 20v4c0 28 -23 42 -69 42c-12 0 -25.333 -0.5 -40 -1.5s-29.667 -2.5 -45 -4.5s-29.833 -4.16699 -43.5 -6.5s-25.5 -4.83301 -35.5 -7.5l-34 144c16 6.66699 34.5 12.667 55.5 18s43 9.83301 66 13.5
s46.333 6.5 70 8.5s45.834 3 66.501 3c35.333 0 67.833 -3.16699 97.5 -9.5s55.334 -16.666 77.001 -30.999s38.667 -33.333 51 -57s18.5 -52.834 18.5 -87.501v-170h54l9 -134c-21.333 -11.333 -47.5 -20.333 -78.5 -27s-63.5 -10 -97.5 -10
c-24.667 0 -46.834 4 -66.501 12s-32.167 23.667 -37.5 47zM288.001 191.999c-8.66699 -2 -14.499 -5.66602 -17.499 -10.999s-4.5 -10.333 -4.5 -15c0 -11.333 2 -20.5 6 -27.5s11.667 -10.5 23 -10.5c5.33301 0 13.666 1.16699 24.999 3.5s19.333 5.16602 24 8.49902v61z
M430.002 562c-20 0 -40.334 2.00098 -61.001 6.00098s-40.834 8.33301 -60.501 13l-55 13c-17 4 -31.5 6 -43.5 6l-54 -39l-62 48c16.667 46.667 35.834 78.334 57.501 95.001s45.5 25 71.5 25c18 0 36.333 -1.83301 55 -5.5s37.334 -7.83398 56.001 -12.501
s37 -8.83398 55 -12.501s35.333 -5.5 52 -5.5l55 41l60 -48c-14 -42.667 -31 -74 -51 -94s-45 -30 -75 -30z" />
    <glyph glyph-name="adieresis" unicode="&#xe4;" horiz-adv-x="661" 
d="M360 45c-14.667 -14.667 -30.833 -26.001 -48.5 -34.001s-34.834 -14 -51.501 -18s-31.5 -6.33301 -44.5 -7s-22.5 -1 -28.5 -1c-34.667 0 -63 5.16699 -85 15.5s-39.333 23 -52 38s-21.334 31.333 -26.001 49s-7 33.834 -7 48.501c0 11.333 1.5 24.333 4.5 39
s9.33301 29 19 43s23.834 26.5 42.501 37.5s44 18.167 76 21.5l187 20v4c0 28 -23 42 -69 42c-12 0 -25.333 -0.5 -40 -1.5s-29.667 -2.5 -45 -4.5s-29.833 -4.16699 -43.5 -6.5s-25.5 -4.83301 -35.5 -7.5l-34 144c16 6.66699 34.5 12.667 55.5 18s43 9.83301 66 13.5
s46.333 6.5 70 8.5s45.834 3 66.501 3c35.333 0 67.833 -3.16699 97.5 -9.5s55.334 -16.666 77.001 -30.999s38.667 -33.333 51 -57s18.5 -52.834 18.5 -87.501v-170h54l9 -134c-21.333 -11.333 -47.5 -20.333 -78.5 -27s-63.5 -10 -97.5 -10
c-24.667 0 -46.834 4 -66.501 12s-32.167 23.667 -37.5 47zM288.001 191.999c-8.66699 -2 -14.499 -5.66602 -17.499 -10.999s-4.5 -10.333 -4.5 -15c0 -11.333 2 -20.5 6 -27.5s11.667 -10.5 23 -10.5c5.33301 0 13.666 1.16699 24.999 3.5s19.333 5.16602 24 8.49902v61z
M301.002 656c0 -26 -8.66699 -47.833 -26 -65.5s-45.666 -26.5 -84.999 -26.5c-38 0 -64.833 8.83301 -80.5 26.5s-23.5 39.5 -23.5 65.5c0 28 7.83301 50.5 23.5 67.5s42.5 25.5 80.5 25.5c39.333 0 67.666 -8.5 84.999 -25.5s26 -39.5 26 -67.5zM552.002 656
c0 -26 -8.16699 -47.833 -24.5 -65.5s-44.166 -26.5 -83.499 -26.5c-38 0 -65.333 8.83301 -82 26.5s-25 39.5 -25 65.5c0 28 8.33301 50.5 25 67.5s44 25.5 82 25.5c39.333 0 67.166 -8.5 83.499 -25.5s24.5 -39.5 24.5 -67.5z" />
    <glyph glyph-name="aring" unicode="&#xe5;" horiz-adv-x="661" 
d="M360 45c-14.667 -14.667 -30.833 -26.001 -48.5 -34.001s-34.834 -14 -51.501 -18s-31.5 -6.33301 -44.5 -7s-22.5 -1 -28.5 -1c-34.667 0 -63 5.16699 -85 15.5s-39.333 23 -52 38s-21.334 31.333 -26.001 49s-7 33.834 -7 48.501c0 11.333 1.5 24.333 4.5 39
s9.33301 29 19 43s23.834 26.5 42.501 37.5s44 18.167 76 21.5l187 20v4c0 28 -23 42 -69 42c-12 0 -25.333 -0.5 -40 -1.5s-29.667 -2.5 -45 -4.5s-29.833 -4.16699 -43.5 -6.5s-25.5 -4.83301 -35.5 -7.5l-34 144c16 6.66699 34.5 12.667 55.5 18s43 9.83301 66 13.5
s46.333 6.5 70 8.5s45.834 3 66.501 3c35.333 0 67.833 -3.16699 97.5 -9.5s55.334 -16.666 77.001 -30.999s38.667 -33.333 51 -57s18.5 -52.834 18.5 -87.501v-170h54l9 -134c-21.333 -11.333 -47.5 -20.333 -78.5 -27s-63.5 -10 -97.5 -10
c-24.667 0 -46.834 4 -66.501 12s-32.167 23.667 -37.5 47zM288.001 191.999c-8.66699 -2 -14.499 -5.66602 -17.499 -10.999s-4.5 -10.333 -4.5 -15c0 -11.333 2 -20.5 6 -27.5s11.667 -10.5 23 -10.5c5.33301 0 13.666 1.16699 24.999 3.5s19.333 5.16602 24 8.49902v61z
M336.002 543c-21.333 0 -41 3.83203 -59 11.499s-33.833 18 -47.5 31s-24.334 28.167 -32.001 45.5s-11.5 36 -11.5 56c0 19.333 3.83301 37.833 11.5 55.5s18.334 33.167 32.001 46.5s29.5 23.833 47.5 31.5s37.667 11.5 59 11.5s41 -3.83301 59 -11.5
s33.333 -18.167 46 -31.5s22.5 -28.666 29.5 -45.999s10.5 -36 10.5 -56s-3.83301 -38.833 -11.5 -56.5s-18 -33 -31 -46s-28.333 -23.167 -46 -30.5s-36.5 -11 -56.5 -11zM336.002 734.999c-14.667 0 -26.834 -5.16699 -36.501 -15.5s-14.5 -22.166 -14.5 -35.499
c0 -11.333 4.33301 -22.166 13 -32.499s21.334 -15.5 38.001 -15.5c14.667 0 26 5.16699 34 15.5s12 21.166 12 32.499c0 13.333 -3.83301 25.166 -11.5 35.499s-19.167 15.5 -34.5 15.5z" />
    <glyph glyph-name="ae" unicode="&#xe6;" horiz-adv-x="896" 
d="M622 511c47.333 0 86.8311 -6.83496 118.498 -20.502s57 -32 76 -55s32.5 -49.667 40.5 -80s12 -62.166 12 -95.499v-45h-284c0.666992 -12.667 3 -22.667 7 -30s9.66699 -13 17 -17s16.166 -6.66699 26.499 -8s22.5 -2 36.5 -2c20.667 0 44.167 2.66699 70.5 8
s50.833 11 73.5 17l43 -141c-38 -20.667 -78.167 -34.834 -120.5 -42.501s-80.5 -11.5 -114.5 -11.5c-28 0 -52.667 1.33301 -74 4s-40.333 6.83398 -57 12.501s-31.334 12.834 -44.001 21.501s-24 19 -34 31c-30 -28 -63 -47 -99 -57s-70.667 -15 -104 -15
c-38 0 -69.167 5.16699 -93.5 15.5s-43.5 23 -57.5 38s-23.5 31.333 -28.5 49s-7.5 33.834 -7.5 48.501c0 10.667 1.16699 25.167 3.5 43.5s9.5 36 21.5 53s30.333 31.833 55 44.5s59 19 103 19h143v5c0 14 -5.66699 24.5 -17 31.5s-29.666 10.5 -54.999 10.5
c-34 0 -65.667 -2 -95 -6s-53.666 -8.66699 -72.999 -14l-35 144c16 6.66699 34 12.667 54 18s41.167 9.83301 63.5 13.5s44.833 6.5 67.5 8.5s44.334 3 65.001 3c10.667 0 23 -1 37 -3s28 -5.33301 42 -10s27.167 -10.334 39.5 -17.001s22.5 -15 30.5 -25
c18 15.333 39.833 28.5 65.5 39.5s52.834 16.5 81.501 16.5zM309.998 130.998c5.33301 0 12.832 1.5 22.499 4.5s18.167 8.16699 25.5 15.5c-3.33301 10.667 -5.66602 20.667 -6.99902 30s-2.33301 19.666 -3 30.999h-15c-40.667 0 -61 -14 -61 -42
c0 -15.333 3.83301 -25.666 11.5 -30.999s16.5 -8 26.5 -8zM624.997 350.998c-12 0 -20.833 -4.66699 -26.5 -14s-9.16699 -22.333 -10.5 -39h70c2 35.333 -9 53 -33 53z" />
    <glyph glyph-name="ccedilla" unicode="&#xe7;" horiz-adv-x="531" 
d="M307 510c19.333 0 44.832 -1.66602 76.499 -4.99902s63.5 -9.33301 95.5 -18l-31 -167c-18 2.66699 -35.167 4.5 -51.5 5.5s-30.166 1.5 -41.499 1.5c-29.333 0 -50.333 -6.5 -63 -19.5s-19.667 -33.167 -21 -60.5c0 -29.333 5.66699 -48.833 17 -58.5
s31.666 -14.5 60.999 -14.5c19.333 0 39.5 1.66699 60.5 5s40.167 6.66602 57.5 9.99902l34 -161c-28 -12.667 -58.5 -22.167 -91.5 -28.5s-65.833 -10.166 -98.5 -11.499l-27 -40c32 -4 56.833 -14.167 74.5 -30.5s26.5 -37.166 26.5 -62.499
c0 -15.333 -3.83301 -30.5 -11.5 -45.5s-20.167 -28.5 -37.5 -40.5s-40 -21.833 -68 -29.5s-62.333 -11.834 -103 -12.501l-1 69c32.667 2.66699 56.667 8.66699 72 18s23 19.666 23 30.999c0 10 -4.66699 16.5 -14 19.5s-19.333 4.5 -30 4.5
c-5.33301 0 -10 -0.166992 -14 -0.5s-7.66699 -0.5 -11 -0.5l-24 37l63 85c-43.333 4.66699 -78.166 14.834 -104.499 30.501s-47 34.667 -62 57s-25 47.166 -30 74.499s-7.5 55.333 -7.5 84c0 34.667 3.83301 68.5 11.5 101.5s22 62.167 43 87.5s49.833 45.833 86.5 61.5
s83.667 23.5 141 23.5z" />
    <glyph glyph-name="egrave" unicode="&#xe8;" horiz-adv-x="608" 
d="M308 511c59.333 0 107 -6.83398 143 -20.501s63.667 -32 83 -55s32 -49.667 38 -80s9 -62.166 9 -95.499v-36h-312c1.33301 -25.333 11.166 -41.5 29.499 -48.5s41.5 -10.5 69.5 -10.5c10.667 0 22.834 0.666992 36.501 2s27.667 3.33301 42 6l42.5 8
c14 2.66699 26.667 5.66699 38 9l44 -148c-19.333 -10 -40 -18.5 -62 -25.5s-44 -12.667 -66 -17s-43.5 -7.33301 -64.5 -9s-40.5 -2.5 -58.5 -2.5c-59.333 0 -107.833 7.33301 -145.5 22s-67.5 34 -89.5 58s-37.167 51.5 -45.5 82.5s-12.5 63.167 -12.5 96.5
c0 36 4.83301 70 14.5 102s25.5 60 47.5 84s51 43 87 57s80 21 132 21zM321 369.999c-18.667 0 -31.168 -5.66699 -37.501 -17s-10.166 -23.666 -11.499 -36.999h92c-0.666992 15.333 -3.5 28.166 -8.5 38.499s-16.5 15.5 -34.5 15.5zM152.999 659.999l113 137l193 -174
l-79 -97z" />
    <glyph glyph-name="eacute" unicode="&#xe9;" horiz-adv-x="608" 
d="M308 511c59.333 0 107 -6.83398 143 -20.501s63.667 -32 83 -55s32 -49.667 38 -80s9 -62.166 9 -95.499v-36h-312c1.33301 -25.333 11.166 -41.5 29.499 -48.5s41.5 -10.5 69.5 -10.5c10.667 0 22.834 0.666992 36.501 2s27.667 3.33301 42 6l42.5 8
c14 2.66699 26.667 5.66699 38 9l44 -148c-19.333 -10 -40 -18.5 -62 -25.5s-44 -12.667 -66 -17s-43.5 -7.33301 -64.5 -9s-40.5 -2.5 -58.5 -2.5c-59.333 0 -107.833 7.33301 -145.5 22s-67.5 34 -89.5 58s-37.167 51.5 -45.5 82.5s-12.5 63.167 -12.5 96.5
c0 36 4.83301 70 14.5 102s25.5 60 47.5 84s51 43 87 57s80 21 132 21zM321 369.999c-18.667 0 -31.168 -5.66699 -37.501 -17s-10.166 -23.666 -11.499 -36.999h92c-0.666992 15.333 -3.5 28.166 -8.5 38.499s-16.5 15.5 -34.5 15.5zM289.999 527.999l-73 87l190 182
l104 -129z" />
    <glyph glyph-name="ecircumflex" unicode="&#xea;" horiz-adv-x="608" 
d="M308 511c59.333 0 107 -6.83398 143 -20.501s63.667 -32 83 -55s32 -49.667 38 -80s9 -62.166 9 -95.499v-36h-312c1.33301 -25.333 11.166 -41.5 29.499 -48.5s41.5 -10.5 69.5 -10.5c10.667 0 22.834 0.666992 36.501 2s27.667 3.33301 42 6l42.5 8
c14 2.66699 26.667 5.66699 38 9l44 -148c-19.333 -10 -40 -18.5 -62 -25.5s-44 -12.667 -66 -17s-43.5 -7.33301 -64.5 -9s-40.5 -2.5 -58.5 -2.5c-59.333 0 -107.833 7.33301 -145.5 22s-67.5 34 -89.5 58s-37.167 51.5 -45.5 82.5s-12.5 63.167 -12.5 96.5
c0 36 4.83301 70 14.5 102s25.5 60 47.5 84s51 43 87 57s80 21 132 21zM321 369.999c-18.667 0 -31.168 -5.66699 -37.501 -17s-10.166 -23.666 -11.499 -36.999h92c-0.666992 15.333 -3.5 28.166 -8.5 38.499s-16.5 15.5 -34.5 15.5zM505.999 525.999l-181 98l-181 -96
l-48 60l159 172h142l163 -172z" />
    <glyph glyph-name="edieresis" unicode="&#xeb;" horiz-adv-x="608" 
d="M308 511c59.333 0 107 -6.83398 143 -20.501s63.667 -32 83 -55s32 -49.667 38 -80s9 -62.166 9 -95.499v-36h-312c1.33301 -25.333 11.166 -41.5 29.499 -48.5s41.5 -10.5 69.5 -10.5c10.667 0 22.834 0.666992 36.501 2s27.667 3.33301 42 6l42.5 8
c14 2.66699 26.667 5.66699 38 9l44 -148c-19.333 -10 -40 -18.5 -62 -25.5s-44 -12.667 -66 -17s-43.5 -7.33301 -64.5 -9s-40.5 -2.5 -58.5 -2.5c-59.333 0 -107.833 7.33301 -145.5 22s-67.5 34 -89.5 58s-37.167 51.5 -45.5 82.5s-12.5 63.167 -12.5 96.5
c0 36 4.83301 70 14.5 102s25.5 60 47.5 84s51 43 87 57s80 21 132 21zM321 369.999c-18.667 0 -31.168 -5.66699 -37.501 -17s-10.166 -23.666 -11.499 -36.999h92c-0.666992 15.333 -3.5 28.166 -8.5 38.499s-16.5 15.5 -34.5 15.5zM296.999 655.999
c0 -26 -8.66699 -47.833 -26 -65.5s-45.666 -26.5 -84.999 -26.5c-38 0 -64.833 8.83301 -80.5 26.5s-23.5 39.5 -23.5 65.5c0 28 7.83301 50.5 23.5 67.5s42.5 25.5 80.5 25.5c39.333 0 67.666 -8.5 84.999 -25.5s26 -39.5 26 -67.5zM547.999 655.999
c0 -26 -8.16699 -47.833 -24.5 -65.5s-44.166 -26.5 -83.499 -26.5c-38 0 -65.333 8.83301 -82 26.5s-25 39.5 -25 65.5c0 28 8.33301 50.5 25 67.5s44 25.5 82 25.5c39.333 0 67.166 -8.5 83.499 -25.5s24.5 -39.5 24.5 -67.5z" />
    <glyph glyph-name="igrave" unicode="&#xec;" horiz-adv-x="372" 
d="M64 0v495h244v-495h-244zM1 660l113 137l193 -174l-79 -97z" />
    <glyph glyph-name="iacute" unicode="&#xed;" horiz-adv-x="372" 
d="M64 0v495h244v-495h-244zM169 528l-73 87l190 182l104 -129z" />
    <glyph glyph-name="icircumflex" unicode="&#xee;" horiz-adv-x="372" 
d="M64 0v495h244v-495h-244zM368 526l-181 98l-181 -96l-48 60l159 172h142l163 -172z" />
    <glyph glyph-name="idieresis" unicode="&#xef;" horiz-adv-x="372" 
d="M64 0v495h244v-495h-244zM177 664c0 -26 -8.66699 -47.833 -26 -65.5s-45.666 -26.5 -84.999 -26.5c-38 0 -64.833 8.83301 -80.5 26.5s-23.5 39.5 -23.5 65.5c0 28 7.83301 50.5 23.5 67.5s42.5 25.5 80.5 25.5c39.333 0 67.666 -8.5 84.999 -25.5s26 -39.5 26 -67.5z
M428 664c0 -26 -8.16699 -47.833 -24.5 -65.5s-44.166 -26.5 -83.499 -26.5c-38 0 -65.333 8.83301 -82 26.5s-25 39.5 -25 65.5c0 28 8.33301 50.5 25 67.5s44 25.5 82 25.5c39.333 0 67.166 -8.5 83.499 -25.5s24.5 -39.5 24.5 -67.5z" />
    <glyph glyph-name="eth" unicode="&#xf0;" horiz-adv-x="687" 
d="M500 757l37.998 -52.998l-57 -37c62.667 -45.333 107.334 -100 134.001 -164s36.334 -141.333 29.001 -232c-2.66699 -30.667 -9 -62.667 -19 -96s-26.667 -63.666 -50 -90.999s-54.666 -50 -93.999 -68s-89 -27 -149 -27c-54.667 0 -100.5 7 -137.5 21
s-67 32.5 -90 55.5s-39.5 49.167 -49.5 78.5s-15 59.666 -15 90.999c0 33.333 6.5 64.833 19.5 94.5s31.167 55.667 54.5 78s51.166 40 83.499 53s67.833 19.5 106.5 19.5c10.667 0 24.167 -0.833008 40.5 -2.5s32.5 -6.5 48.5 -14.5c-6 21.333 -14 40.666 -24 57.999
s-21.667 33.666 -35 48.999l-83 -55l-35 54l68 45c-20.667 14.667 -45 29.334 -73 44.001l57 111c28.667 -9.33301 55.667 -19.333 81 -30s49.333 -22.334 72 -35.001zM344.998 332.002c-13.333 0 -24.001 -2.33301 -32.001 -7s-14.5 -11 -19.5 -19
s-8.33301 -17.333 -10 -28s-2.5 -21.667 -2.5 -33s0.666992 -23 2 -35s4 -23 8 -33s9.83301 -18.167 17.5 -24.5s18.167 -9.5 31.5 -9.5s24.333 3.66699 33 11s15.5 16.833 20.5 28.5s8.5 25 10.5 40s3 30.5 3 46.5v21.5c0 7 -0.333008 14.167 -1 21.5
c-9.33301 5.33301 -19.166 10 -29.499 14s-20.833 6 -31.5 6z" />
    <glyph glyph-name="ntilde" unicode="&#xf1;" horiz-adv-x="660" 
d="M275 445c30 22.667 61.166 39.335 93.499 50.002s60.5 16 84.5 16c61.333 0 105 -15.833 131 -47.5s39 -78.5 39 -140.5v-323h-245v276c0 19.333 -3.5 32.666 -10.5 39.999s-18.167 11 -33.5 11c-6 0 -13.667 -1.33301 -23 -4s-18.666 -7.33398 -27.999 -14.001v-309
h-246c0.666992 83.333 0.666992 166.5 0 249.5s-0.666992 166.167 0 249.5h226l5 -51zM419.999 562.001c-20 0 -40.334 2.00098 -61.001 6.00098s-40.834 8.33301 -60.501 13l-55 13c-17 4 -31.5 6 -43.5 6l-54 -39l-62 48c16.667 46.667 35.834 78.334 57.501 95.001
s45.5 25 71.5 25c18 0 36.333 -1.83301 55 -5.5s37.334 -7.83398 56.001 -12.501s37 -8.83398 55 -12.501s35.333 -5.5 52 -5.5l55 41l60 -48c-14 -42.667 -31 -74 -51 -94s-45 -30 -75 -30z" />
    <glyph glyph-name="ograve" unicode="&#xf2;" horiz-adv-x="657" 
d="M630 250c0 -38.667 -5.66797 -74 -17.001 -106s-29.166 -59.5 -53.499 -82.5s-55.5 -40.833 -93.5 -53.5s-84 -19 -138 -19c-54.667 0 -101 6.33301 -139 19s-69 30.5 -93 53.5s-41.5 50.5 -52.5 82.5s-16.5 67.333 -16.5 106c0 38 5.5 73 16.5 105s28.667 59.333 53 82
s55.5 40.334 93.5 53.001s84 19 138 19s100.167 -6.33301 138.5 -19s69.5 -30.334 93.5 -53.001s41.667 -50 53 -82s17 -67 17 -105zM379.999 250c0 32.667 -3.66699 56.5 -11 71.5s-21 22.5 -41 22.5s-33.667 -8.66699 -41 -26s-11 -40 -11 -68
c0 -35.333 3.66699 -60.666 11 -75.999s21 -23 41 -23s33.667 7.66699 41 23s11 40.666 11 75.999zM145.999 660l113 137l193 -174l-79 -97z" />
    <glyph glyph-name="oacute" unicode="&#xf3;" horiz-adv-x="657" 
d="M630 250c0 -38.667 -5.66797 -74 -17.001 -106s-29.166 -59.5 -53.499 -82.5s-55.5 -40.833 -93.5 -53.5s-84 -19 -138 -19c-54.667 0 -101 6.33301 -139 19s-69 30.5 -93 53.5s-41.5 50.5 -52.5 82.5s-16.5 67.333 -16.5 106c0 38 5.5 73 16.5 105s28.667 59.333 53 82
s55.5 40.334 93.5 53.001s84 19 138 19s100.167 -6.33301 138.5 -19s69.5 -30.334 93.5 -53.001s41.667 -50 53 -82s17 -67 17 -105zM379.999 250c0 32.667 -3.66699 56.5 -11 71.5s-21 22.5 -41 22.5s-33.667 -8.66699 -41 -26s-11 -40 -11 -68
c0 -35.333 3.66699 -60.666 11 -75.999s21 -23 41 -23s33.667 7.66699 41 23s11 40.666 11 75.999zM317.999 528l-73 87l190 182l104 -129z" />
    <glyph glyph-name="ocircumflex" unicode="&#xf4;" horiz-adv-x="657" 
d="M630 250c0 -38.667 -5.66797 -74 -17.001 -106s-29.166 -59.5 -53.499 -82.5s-55.5 -40.833 -93.5 -53.5s-84 -19 -138 -19c-54.667 0 -101 6.33301 -139 19s-69 30.5 -93 53.5s-41.5 50.5 -52.5 82.5s-16.5 67.333 -16.5 106c0 38 5.5 73 16.5 105s28.667 59.333 53 82
s55.5 40.334 93.5 53.001s84 19 138 19s100.167 -6.33301 138.5 -19s69.5 -30.334 93.5 -53.001s41.667 -50 53 -82s17 -67 17 -105zM379.999 250c0 32.667 -3.66699 56.5 -11 71.5s-21 22.5 -41 22.5s-33.667 -8.66699 -41 -26s-11 -40 -11 -68
c0 -35.333 3.66699 -60.666 11 -75.999s21 -23 41 -23s33.667 7.66699 41 23s11 40.666 11 75.999zM509.999 526l-181 98l-181 -96l-48 60l159 172h142l163 -172z" />
    <glyph glyph-name="otilde" unicode="&#xf5;" horiz-adv-x="657" 
d="M630 250c0 -38.667 -5.66797 -74 -17.001 -106s-29.166 -59.5 -53.499 -82.5s-55.5 -40.833 -93.5 -53.5s-84 -19 -138 -19c-54.667 0 -101 6.33301 -139 19s-69 30.5 -93 53.5s-41.5 50.5 -52.5 82.5s-16.5 67.333 -16.5 106c0 38 5.5 73 16.5 105s28.667 59.333 53 82
s55.5 40.334 93.5 53.001s84 19 138 19s100.167 -6.33301 138.5 -19s69.5 -30.334 93.5 -53.001s41.667 -50 53 -82s17 -67 17 -105zM379.999 250c0 32.667 -3.66699 56.5 -11 71.5s-21 22.5 -41 22.5s-33.667 -8.66699 -41 -26s-11 -40 -11 -68
c0 -35.333 3.66699 -60.666 11 -75.999s21 -23 41 -23s33.667 7.66699 41 23s11 40.666 11 75.999zM434.999 546c-20 0 -40.334 2.00098 -61.001 6.00098s-40.834 8.33301 -60.501 13l-55 13c-17 4 -31.5 6 -43.5 6l-54 -39l-62 48
c16.667 46.667 35.834 78.334 57.501 95.001s45.5 25 71.5 25c18 0 36.333 -1.83301 55 -5.5s37.334 -7.83398 56.001 -12.501s37 -8.83398 55 -12.501s35.333 -5.5 52 -5.5l55 41l60 -48c-14 -42.667 -31 -74 -51 -94s-45 -30 -75 -30z" />
    <glyph glyph-name="odieresis" unicode="&#xf6;" horiz-adv-x="657" 
d="M630 250c0 -38.667 -5.66797 -74 -17.001 -106s-29.166 -59.5 -53.499 -82.5s-55.5 -40.833 -93.5 -53.5s-84 -19 -138 -19c-54.667 0 -101 6.33301 -139 19s-69 30.5 -93 53.5s-41.5 50.5 -52.5 82.5s-16.5 67.333 -16.5 106c0 38 5.5 73 16.5 105s28.667 59.333 53 82
s55.5 40.334 93.5 53.001s84 19 138 19s100.167 -6.33301 138.5 -19s69.5 -30.334 93.5 -53.001s41.667 -50 53 -82s17 -67 17 -105zM379.999 250c0 32.667 -3.66699 56.5 -11 71.5s-21 22.5 -41 22.5s-33.667 -8.66699 -41 -26s-11 -40 -11 -68
c0 -35.333 3.66699 -60.666 11 -75.999s21 -23 41 -23s33.667 7.66699 41 23s11 40.666 11 75.999zM310.999 656c0 -26 -8.66699 -47.833 -26 -65.5s-45.666 -26.5 -84.999 -26.5c-38 0 -64.833 8.83301 -80.5 26.5s-23.5 39.5 -23.5 65.5c0 28 7.83301 50.5 23.5 67.5
s42.5 25.5 80.5 25.5c39.333 0 67.666 -8.5 84.999 -25.5s26 -39.5 26 -67.5zM561.999 656c0 -26 -8.16699 -47.833 -24.5 -65.5s-44.166 -26.5 -83.499 -26.5c-38 0 -65.333 8.83301 -82 26.5s-25 39.5 -25 65.5c0 28 8.33301 50.5 25 67.5s44 25.5 82 25.5
c39.333 0 67.166 -8.5 83.499 -25.5s24.5 -39.5 24.5 -67.5z" />
    <glyph glyph-name="divide" unicode="&#xf7;" horiz-adv-x="642" 
d="M411 503c0 -25.333 -8.83301 -46.833 -26.5 -64.5s-39.167 -26.5 -64.5 -26.5c-12.667 0 -24.667 2.33301 -36 7s-21.166 11.167 -29.499 19.5s-14.833 18 -19.5 29s-7 22.833 -7 35.5s2.33301 24.5 7 35.5s11.167 20.667 19.5 29s18.166 14.833 29.499 19.5
s23.333 7 36 7c25.333 0 46.833 -8.83301 64.5 -26.5s26.5 -39.167 26.5 -64.5zM87 248v124h466v-124h-466zM411 117c0 -25.333 -8.83301 -47 -26.5 -65s-39.167 -27 -64.5 -27c-12.667 0 -24.667 2.5 -36 7.5s-21.166 11.667 -29.499 20s-14.833 18 -19.5 29
s-7 22.833 -7 35.5s2.33301 24.5 7 35.5s11.167 20.667 19.5 29s18.166 14.833 29.499 19.5s23.333 7 36 7c25.333 0 46.833 -8.83301 64.5 -26.5s26.5 -39.167 26.5 -64.5z" />
    <glyph glyph-name="oslash" unicode="&#xf8;" horiz-adv-x="657" 
d="M630 250c0 -38.667 -5.66797 -74.001 -17.001 -106.001s-29.166 -59.5 -53.499 -82.5s-55.5 -40.833 -93.5 -53.5s-84 -19 -138 -19c-40 0 -75.167 3.33301 -105.5 10s-57.166 16.334 -80.499 29.001l-36 -36h-72l66 65c-25.333 23.333 -43.833 51.333 -55.5 84
s-17.5 69 -17.5 109c0 38 5.5 73 16.5 105s28.667 59.333 53 82s55.5 40.334 93.5 53.001s84 19 138 19c40 0 75.667 -3.5 107 -10.5s58.666 -17.167 81.999 -30.5l38 38h73l-69 -68c24.667 -23.333 42.667 -50.833 54 -82.5s17 -66.834 17 -105.501zM327.999 343.999
c-20 0 -33.667 -8.66699 -41 -26s-11 -40 -11 -68v-19l92 91c-8 14.667 -21.333 22 -40 22zM327.999 150.999c20 0 33.668 7.66797 41.001 23.001s11 40.666 11 75.999v11l-92 -90c7.33301 -13.333 20.666 -20 39.999 -20z" />
    <glyph glyph-name="ugrave" unicode="&#xf9;" horiz-adv-x="647" 
d="M373 54c-13.333 -11.333 -27.667 -20.9971 -43 -28.9971s-30.833 -14.833 -46.5 -20.5s-30.834 -9.83398 -45.501 -12.501s-27.667 -4 -39 -4c-31.333 0 -57.333 4 -78 12s-37.167 19.833 -49.5 35.5s-21.166 35.167 -26.499 58.5s-8 50.333 -8 81v323h245v-274
c0 -19.333 2.33301 -32.833 7 -40.5s15 -11.5 31 -11.5c6 0 12.667 1.16699 20 3.5s15.333 7.16602 24 14.499v308h246c1.33301 -82.667 1.5 -165.334 0.5 -248.001s-1.16699 -166 -0.5 -250h-221l-7 52zM155.999 660.003l113 137l193 -174l-79 -97z" />
    <glyph glyph-name="uacute" unicode="&#xfa;" horiz-adv-x="647" 
d="M373 54c-13.333 -11.333 -27.667 -20.9971 -43 -28.9971s-30.833 -14.833 -46.5 -20.5s-30.834 -9.83398 -45.501 -12.501s-27.667 -4 -39 -4c-31.333 0 -57.333 4 -78 12s-37.167 19.833 -49.5 35.5s-21.166 35.167 -26.499 58.5s-8 50.333 -8 81v323h245v-274
c0 -19.333 2.33301 -32.833 7 -40.5s15 -11.5 31 -11.5c6 0 12.667 1.16699 20 3.5s15.333 7.16602 24 14.499v308h246c1.33301 -82.667 1.5 -165.334 0.5 -248.001s-1.16699 -166 -0.5 -250h-221l-7 52zM317.999 528.003l-73 87l190 182l104 -129z" />
    <glyph glyph-name="ucircumflex" unicode="&#xfb;" horiz-adv-x="647" 
d="M373 54c-13.333 -11.333 -27.667 -20.9971 -43 -28.9971s-30.833 -14.833 -46.5 -20.5s-30.834 -9.83398 -45.501 -12.501s-27.667 -4 -39 -4c-31.333 0 -57.333 4 -78 12s-37.167 19.833 -49.5 35.5s-21.166 35.167 -26.499 58.5s-8 50.333 -8 81v323h245v-274
c0 -19.333 2.33301 -32.833 7 -40.5s15 -11.5 31 -11.5c6 0 12.667 1.16699 20 3.5s15.333 7.16602 24 14.499v308h246c1.33301 -82.667 1.5 -165.334 0.5 -248.001s-1.16699 -166 -0.5 -250h-221l-7 52zM498.999 526.003l-181 98l-181 -96l-48 60l159 172h142l163 -172z
" />
    <glyph glyph-name="udieresis" unicode="&#xfc;" horiz-adv-x="647" 
d="M373 54c-13.333 -11.333 -27.667 -20.9971 -43 -28.9971s-30.833 -14.833 -46.5 -20.5s-30.834 -9.83398 -45.501 -12.501s-27.667 -4 -39 -4c-31.333 0 -57.333 4 -78 12s-37.167 19.833 -49.5 35.5s-21.166 35.167 -26.499 58.5s-8 50.333 -8 81v323h245v-274
c0 -19.333 2.33301 -32.833 7 -40.5s15 -11.5 31 -11.5c6 0 12.667 1.16699 20 3.5s15.333 7.16602 24 14.499v308h246c1.33301 -82.667 1.5 -165.334 0.5 -248.001s-1.16699 -166 -0.5 -250h-221l-7 52zM302.999 664.003c0 -26 -8.66699 -47.833 -26 -65.5
s-45.666 -26.5 -84.999 -26.5c-38 0 -64.833 8.83301 -80.5 26.5s-23.5 39.5 -23.5 65.5c0 28 7.83301 50.5 23.5 67.5s42.5 25.5 80.5 25.5c39.333 0 67.666 -8.5 84.999 -25.5s26 -39.5 26 -67.5zM553.999 664.003c0 -26 -8.16699 -47.833 -24.5 -65.5
s-44.166 -26.5 -83.499 -26.5c-38 0 -65.333 8.83301 -82 26.5s-25 39.5 -25 65.5c0 28 8.33301 50.5 25 67.5s44 25.5 82 25.5c39.333 0 67.166 -8.5 83.499 -25.5s24.5 -39.5 24.5 -67.5z" />
    <glyph glyph-name="yacute" unicode="&#xfd;" horiz-adv-x="661" 
d="M326 151c2.66699 10 5.33301 21.5 8 34.5s5.16699 26.333 7.5 40s4.83301 27 7.5 40s5.33398 24.833 8.00098 35.5l47 197h252l-206 -598c-16 -43.333 -41.333 -74.5 -76 -93.5s-74.667 -28.5 -120 -28.5c-25.333 0 -52.166 2.16699 -80.499 6.5s-57.5 10.5 -87.5 18.5
l30 154c15.333 -1.33301 27.166 -2.33301 35.499 -3s16.166 -1 23.499 -1c28 0 47.333 3.5 58 10.5s18.667 19.833 24 38.5l7 24h-105l-76 236.5l-76 235.5h240l47 -202c2 -10 4 -21.333 6 -34l6 -38.5l6 -38c2 -12.333 4 -23.5 6 -33.5zM311.999 528l-73 87l190 182
l104 -129z" />
    <glyph glyph-name="thorn" unicode="&#xfe;" horiz-adv-x="663" 
d="M274 448c30 25.333 58.1689 41.665 84.502 48.998s48.166 11 65.499 11c42.667 0 77.667 -6.83301 105 -20.5s49 -32.167 65 -55.5s27 -51 33 -83s9 -66.333 9 -103c0 -37.333 -4.16699 -71.666 -12.5 -102.999s-21.833 -58.333 -40.5 -81
s-42.834 -40.334 -72.501 -53.001s-65.5 -19 -107.5 -19c-6.66699 0 -15 0.333008 -25 1s-20.667 1.83398 -32 3.50098s-22.833 3.83398 -34.5 6.50098s-22.5 6 -32.5 10c0 -36 0.166992 -73 0.5 -111s0.5 -74.667 0.5 -110h-243v902h229v-240zM339.002 158.999
c4.66699 0 10.1709 0.998047 16.5039 2.99805s12.333 6.33301 18 13s10.5 16.334 14.5 29.001s6 29.667 6 51s-1.83301 37.833 -5.5 49.5s-8.33398 20.334 -14.001 26.001s-11.834 9 -18.501 10s-13 1.5 -19 1.5c-6.66699 0 -15.334 -1.5 -26.001 -4.5
s-20.667 -6.83301 -30 -11.5v-154c11.333 -5.33301 21.666 -8.83301 30.999 -10.5s18.333 -2.5 27 -2.5z" />
    <glyph glyph-name="ydieresis" unicode="&#xff;" horiz-adv-x="661" 
d="M326 151c2.66699 10 5.33301 21.5 8 34.5s5.16699 26.333 7.5 40s4.83301 27 7.5 40s5.33398 24.833 8.00098 35.5l47 197h252l-206 -598c-16 -43.333 -41.333 -74.5 -76 -93.5s-74.667 -28.5 -120 -28.5c-25.333 0 -52.166 2.16699 -80.499 6.5s-57.5 10.5 -87.5 18.5
l30 154c15.333 -1.33301 27.166 -2.33301 35.499 -3s16.166 -1 23.499 -1c28 0 47.333 3.5 58 10.5s18.667 19.833 24 38.5l7 24h-105l-76 236.5l-76 235.5h240l47 -202c2 -10 4 -21.333 6 -34l6 -38.5l6 -38c2 -12.333 4 -23.5 6 -33.5zM310.999 656
c0 -26 -8.66699 -47.833 -26 -65.5s-45.666 -26.5 -84.999 -26.5c-38 0 -64.833 8.83301 -80.5 26.5s-23.5 39.5 -23.5 65.5c0 28 7.83301 50.5 23.5 67.5s42.5 25.5 80.5 25.5c39.333 0 67.666 -8.5 84.999 -25.5s26 -39.5 26 -67.5zM561.999 656
c0 -26 -8.16699 -47.833 -24.5 -65.5s-44.166 -26.5 -83.499 -26.5c-38 0 -65.333 8.83301 -82 26.5s-25 39.5 -25 65.5c0 28 8.33301 50.5 25 67.5s44 25.5 82 25.5c39.333 0 67.166 -8.5 83.499 -25.5s24.5 -39.5 24.5 -67.5z" />
    <glyph glyph-name="Amacron" unicode="&#x100;" horiz-adv-x="805" 
d="M510 123h-220l-39 -123h-246l249 693h315l231 -693h-256zM206 885h400v-136h-400v136zM401 525l-30 -141l-30 -103h123l-29 106l-26 138h-8z" />
    <glyph glyph-name="amacron" unicode="&#x101;" horiz-adv-x="661" 
d="M360 45c-14.667 -14.667 -30.833 -26.001 -48.5 -34.001s-34.834 -14 -51.501 -18s-31.5 -6.33301 -44.5 -7s-22.5 -1 -28.5 -1c-34.667 0 -63 5.16699 -85 15.5s-39.333 23 -52 38s-21.334 31.333 -26.001 49s-7 33.834 -7 48.501c0 11.333 1.5 24.333 4.5 39
s9.33301 29 19 43s23.834 26.5 42.501 37.5s44 18.167 76 21.5l187 20v4c0 28 -23 42 -69 42c-12 0 -25.333 -0.5 -40 -1.5s-29.667 -2.5 -45 -4.5s-29.833 -4.16699 -43.5 -6.5s-25.5 -4.83301 -35.5 -7.5l-34 144c16 6.66699 34.5 12.667 55.5 18s43 9.83301 66 13.5
s46.333 6.5 70 8.5s45.834 3 66.501 3c35.333 0 67.833 -3.16699 97.5 -9.5s55.334 -16.666 77.001 -30.999s38.667 -33.333 51 -57s18.5 -52.834 18.5 -87.501v-170h54l9 -134c-21.333 -11.333 -47.5 -20.333 -78.5 -27s-63.5 -10 -97.5 -10
c-24.667 0 -46.834 4 -66.501 12s-32.167 23.667 -37.5 47zM288.001 191.999c-8.66699 -2 -14.499 -5.66602 -17.499 -10.999s-4.5 -10.333 -4.5 -15c0 -11.333 2 -20.5 6 -27.5s11.667 -10.5 23 -10.5c5.33301 0 13.666 1.16699 24.999 3.5s19.333 5.16602 24 8.49902v61z
M110.002 704h420v-136h-420v136z" />
    <glyph glyph-name="Abreve" unicode="&#x102;" horiz-adv-x="805" 
d="M510 123h-220l-39 -123h-246l249 693h315l231 -693h-256zM400 731c-22.667 0 -44.335 4 -65.002 12s-40.167 19 -58.5 33s-35.5 30.5 -51.5 49.5s-30.667 39.833 -44 62.5l78 64c12 -16 24.667 -29.667 38 -41s26.5 -20.5 39.5 -27.5s25.333 -12 37 -15
s21.834 -4.5 30.501 -4.5c6 0 13.833 0.5 23.5 1.5s21.5 4 35.5 9s30 13 48 24s38 26.833 60 47.5l58 -59c-18 -30 -36.667 -55 -56 -75s-39 -36 -59 -48s-39.667 -20.5 -59 -25.5s-37.666 -7.5 -54.999 -7.5zM400.999 525l-30 -141l-30 -103h123l-29 106l-26 138h-8z" />
    <glyph glyph-name="abreve" unicode="&#x103;" horiz-adv-x="661" 
d="M360 45c-14.667 -14.667 -30.833 -26.001 -48.5 -34.001s-34.834 -14 -51.501 -18s-31.5 -6.33301 -44.5 -7s-22.5 -1 -28.5 -1c-34.667 0 -63 5.16699 -85 15.5s-39.333 23 -52 38s-21.334 31.333 -26.001 49s-7 33.834 -7 48.501c0 11.333 1.5 24.333 4.5 39
s9.33301 29 19 43s23.834 26.5 42.501 37.5s44 18.167 76 21.5l187 20v4c0 28 -23 42 -69 42c-12 0 -25.333 -0.5 -40 -1.5s-29.667 -2.5 -45 -4.5s-29.833 -4.16699 -43.5 -6.5s-25.5 -4.83301 -35.5 -7.5l-34 144c16 6.66699 34.5 12.667 55.5 18s43 9.83301 66 13.5
s46.333 6.5 70 8.5s45.834 3 66.501 3c35.333 0 67.833 -3.16699 97.5 -9.5s55.334 -16.666 77.001 -30.999s38.667 -33.333 51 -57s18.5 -52.834 18.5 -87.501v-170h54l9 -134c-21.333 -11.333 -47.5 -20.333 -78.5 -27s-63.5 -10 -97.5 -10
c-24.667 0 -46.834 4 -66.501 12s-32.167 23.667 -37.5 47zM288.001 191.999c-8.66699 -2 -14.499 -5.66602 -17.499 -10.999s-4.5 -10.333 -4.5 -15c0 -11.333 2 -20.5 6 -27.5s11.667 -10.5 23 -10.5c5.33301 0 13.666 1.16699 24.999 3.5s19.333 5.16602 24 8.49902v61z
M320.002 541c-22.667 0 -44.6709 4.3291 -66.0039 12.9961s-41.5 20.5 -60.5 35.5s-36.833 32.5 -53.5 52.5s-31.667 41.333 -45 64l84 63c12.667 -17.333 25.834 -31.666 39.501 -42.999s26.834 -20.5 39.501 -27.5s24.667 -12 36 -15s21.333 -4.5 30 -4.5h22
c8.66699 0 19.667 2.33301 33 7s29 12.834 47 24.501s39.667 29.167 65 52.5l69 -63c-18 -30 -37.333 -55.167 -58 -75.5s-41.667 -36.666 -63 -48.999s-42.166 -21.166 -62.499 -26.499s-39.166 -8 -56.499 -8z" />
    <glyph glyph-name="Aogonek" unicode="&#x104;" horiz-adv-x="805" 
d="M623 0c-10.667 -21.333 -18 -42.5029 -22 -63.5029s-6 -39.167 -6 -54.5c0 -11.333 3.16699 -20.666 9.5 -27.999s17.166 -11 32.499 -11c14.667 0 26.5 1.16699 35.5 3.5l35.5 9.5l20 -69c-23.333 -13.333 -47.333 -23.166 -72 -29.499s-48 -9.5 -70 -9.5
c-42 0 -73.5 8.83301 -94.5 26.5s-31.5 41.834 -31.5 72.501c0 20 5.33301 44.333 16 73s32.334 59 65.001 91l-31 112h-220l-39 -123h-246l249 693h315l231 -693h-177zM401 524.997l-30 -141l-30 -103h123l-29 106l-26 138h-8z" />
    <glyph glyph-name="aogonek" unicode="&#x105;" horiz-adv-x="661" 
d="M360 45c-14.667 -14.667 -30.834 -26.0039 -48.501 -34.0039s-34.834 -14 -51.501 -18s-31.5 -6.33301 -44.5 -7s-22.5 -1 -28.5 -1c-34.667 0 -63 5.16699 -85 15.5s-39.333 23 -52 38s-21.334 31.333 -26.001 49s-7 33.834 -7 48.501c0 11.333 1.5 24.333 4.5 39
s9.33301 29 19 43s23.834 26.5 42.501 37.5s44 18.167 76 21.5l187 20v4c0 28 -23 42 -69 42c-12 0 -25.333 -0.5 -40 -1.5s-29.667 -2.5 -45 -4.5s-29.833 -4.16699 -43.5 -6.5s-25.5 -4.83301 -35.5 -7.5l-34 144c16 6.66699 34.5 12.667 55.5 18s43 9.83301 66 13.5
s46.333 6.5 70 8.5s45.834 3 66.501 3c35.333 0 67.833 -3.16699 97.5 -9.5s55.334 -16.666 77.001 -30.999s38.667 -33.333 51 -57s18.5 -52.834 18.5 -87.501v-170h54l9 -134c-32 -16.667 -72 -28 -120 -34c-6.66699 -17.333 -11.167 -34.166 -13.5 -50.499
s-3.5 -30.5 -3.5 -42.5c0 -11.333 3.16699 -20.666 9.5 -27.999s17.166 -11 32.499 -11c14.667 0 26.5 1.16699 35.5 3.5l35.5 9.5l20 -69c-23.333 -13.333 -47.333 -23.166 -72 -29.499s-48 -9.5 -70 -9.5c-42 0 -73.5 8.83301 -94.5 26.5s-31.5 41.834 -31.5 72.501
c0 16 3.5 35.333 10.5 58s20.167 46.667 39.5 72c-14.667 3.33301 -27.167 9.16602 -37.5 17.499s-17.166 20.5 -20.499 36.5zM288 191.996c-8.66699 -2 -14.499 -5.66602 -17.499 -10.999s-4.5 -10.333 -4.5 -15c0 -11.333 2 -20.5 6 -27.5s11.667 -10.5 23 -10.5
c5.33301 0 13.666 1.16699 24.999 3.5s19.333 5.16602 24 8.49902v61z" />
    <glyph glyph-name="Cacute" unicode="&#x106;" horiz-adv-x="683" 
d="M427 710c31.333 0 63.8301 -2.66992 97.4971 -8.00293s67.5 -12.666 101.5 -21.999l-27 -179c-25.333 4 -49.666 7.33301 -72.999 10s-44.666 4 -63.999 4c-22 0 -42.667 -2.16699 -62 -6.5s-36 -12.166 -50 -23.499s-25 -27.333 -33 -48s-12 -47 -12 -79
c0 -39.333 3.83301 -70.5 11.5 -93.5s18.834 -40.333 33.501 -52s32.167 -19.167 52.5 -22.5s43.166 -5 68.499 -5c6.66699 0 16.5 0.5 29.5 1.5s27 2.33301 42 4s30.167 3.66699 45.5 6s29 4.83301 41 7.5l36 -173c-38 -14 -79.667 -24.667 -125 -32s-88.333 -11 -129 -11
c-76.667 0 -139.167 10 -187.5 30s-86.166 46.5 -113.499 79.5s-46 70.833 -56 113.5s-15 86.334 -15 131.001c0 46.667 5.83301 92 17.5 136s32.167 83.167 61.5 117.5s69 62 119 83s113.333 31.5 190 31.5zM373.997 746.997l-65 78l189 183l101 -120z" />
    <glyph glyph-name="cacute" unicode="&#x107;" horiz-adv-x="531" 
d="M307 510c19.333 0 44.832 -1.66602 76.499 -4.99902s63.5 -9.33301 95.5 -18l-31 -167c-18 2.66699 -35.167 4.5 -51.5 5.5s-30.166 1.5 -41.499 1.5c-29.333 0 -50.333 -6.5 -63 -19.5s-19.667 -33.167 -21 -60.5c0 -29.333 5.66699 -48.833 17 -58.5
s31.666 -14.5 60.999 -14.5c19.333 0 39.5 1.66699 60.5 5s40.167 6.66602 57.5 9.99902l34 -161c-31.333 -14 -65.666 -24.333 -102.999 -31s-74 -10 -110 -10c-56 0 -101.167 7 -135.5 21s-61 32.667 -80 56s-31.667 50 -38 80s-9.5 60.667 -9.5 92
c0 34.667 3.83301 68.5 11.5 101.5s22 62.167 43 87.5s49.833 45.833 86.5 61.5s83.667 23.5 141 23.5zM223.999 528.001l-73 87l190 182l104 -129z" />
    <glyph glyph-name="Ccircumflex" unicode="&#x108;" horiz-adv-x="683" 
d="M427 710c31.333 0 63.8301 -2.66992 97.4971 -8.00293s67.5 -12.666 101.5 -21.999l-27 -179c-25.333 4 -49.666 7.33301 -72.999 10s-44.666 4 -63.999 4c-22 0 -42.667 -2.16699 -62 -6.5s-36 -12.166 -50 -23.499s-25 -27.333 -33 -48s-12 -47 -12 -79
c0 -39.333 3.83301 -70.5 11.5 -93.5s18.834 -40.333 33.501 -52s32.167 -19.167 52.5 -22.5s43.166 -5 68.499 -5c6.66699 0 16.5 0.5 29.5 1.5s27 2.33301 42 4s30.167 3.66699 45.5 6s29 4.83301 41 7.5l36 -173c-38 -14 -79.667 -24.667 -125 -32s-88.333 -11 -129 -11
c-76.667 0 -139.167 10 -187.5 30s-86.166 46.5 -113.499 79.5s-46 70.833 -56 113.5s-15 86.334 -15 131.001c0 46.667 5.83301 92 17.5 136s32.167 83.167 61.5 117.5s69 62 119 83s113.333 31.5 190 31.5zM580.997 746.997l-181 95l-178 -93l-51 60l159 162h142l163 -162
z" />
    <glyph glyph-name="ccircumflex" unicode="&#x109;" horiz-adv-x="531" 
d="M307 510c19.333 0 44.832 -1.66602 76.499 -4.99902s63.5 -9.33301 95.5 -18l-31 -167c-18 2.66699 -35.167 4.5 -51.5 5.5s-30.166 1.5 -41.499 1.5c-29.333 0 -50.333 -6.5 -63 -19.5s-19.667 -33.167 -21 -60.5c0 -29.333 5.66699 -48.833 17 -58.5
s31.666 -14.5 60.999 -14.5c19.333 0 39.5 1.66699 60.5 5s40.167 6.66602 57.5 9.99902l34 -161c-31.333 -14 -65.666 -24.333 -102.999 -31s-74 -10 -110 -10c-56 0 -101.167 7 -135.5 21s-61 32.667 -80 56s-31.667 50 -38 80s-9.5 60.667 -9.5 92
c0 34.667 3.83301 68.5 11.5 101.5s22 62.167 43 87.5s49.833 45.833 86.5 61.5s83.667 23.5 141 23.5zM477.999 526.001l-181 98l-181 -96l-48 60l159 172h142l163 -172z" />
    <glyph glyph-name="Cdotaccent" unicode="&#x10a;" horiz-adv-x="683" 
d="M427 710c31.333 0 63.8301 -2.66992 97.4971 -8.00293s67.5 -12.666 101.5 -21.999l-27 -179c-25.333 4 -49.666 7.33301 -72.999 10s-44.666 4 -63.999 4c-22 0 -42.667 -2.16699 -62 -6.5s-36 -12.166 -50 -23.499s-25 -27.333 -33 -48s-12 -47 -12 -79
c0 -39.333 3.83301 -70.5 11.5 -93.5s18.834 -40.333 33.501 -52s32.167 -19.167 52.5 -22.5s43.166 -5 68.499 -5c6.66699 0 16.5 0.5 29.5 1.5s27 2.33301 42 4s30.167 3.66699 45.5 6s29 4.83301 41 7.5l36 -173c-38 -14 -79.667 -24.667 -125 -32s-88.333 -11 -129 -11
c-76.667 0 -139.167 10 -187.5 30s-86.166 46.5 -113.499 79.5s-46 70.833 -56 113.5s-15 86.334 -15 131.001c0 46.667 5.83301 92 17.5 136s32.167 83.167 61.5 117.5s69 62 119 83s113.333 31.5 190 31.5zM496.997 854.997c0 -31.333 -10 -57.5 -30 -78.5
s-52.667 -31.5 -98 -31.5c-44.667 0 -76.334 10.5 -95.001 31.5s-28 47.167 -28 78.5c0 34 9.33301 61 28 81s50.334 30 95.001 30c46 0 78.833 -10 98.5 -30s29.5 -47 29.5 -81z" />
    <glyph glyph-name="cdotaccent" unicode="&#x10b;" horiz-adv-x="531" 
d="M307 510c19.333 0 44.832 -1.66602 76.499 -4.99902s63.5 -9.33301 95.5 -18l-31 -167c-18 2.66699 -35.167 4.5 -51.5 5.5s-30.166 1.5 -41.499 1.5c-29.333 0 -50.333 -6.5 -63 -19.5s-19.667 -33.167 -21 -60.5c0 -29.333 5.66699 -48.833 17 -58.5
s31.666 -14.5 60.999 -14.5c19.333 0 39.5 1.66699 60.5 5s40.167 6.66602 57.5 9.99902l34 -161c-31.333 -14 -65.666 -24.333 -102.999 -31s-74 -10 -110 -10c-56 0 -101.167 7 -135.5 21s-61 32.667 -80 56s-31.667 50 -38 80s-9.5 60.667 -9.5 92
c0 34.667 3.83301 68.5 11.5 101.5s22 62.167 43 87.5s49.833 45.833 86.5 61.5s83.667 23.5 141 23.5zM381.999 676.001c0 -30.667 -9 -56 -27 -76s-47.333 -30 -88 -30c-40 0 -68.333 10 -85 30s-25 45.333 -25 76c0 32 8.33301 57.833 25 77.5s45 29.5 85 29.5
c40.667 0 70 -9.83301 88 -29.5s27 -45.5 27 -77.5z" />
    <glyph glyph-name="Ccaron" unicode="&#x10c;" horiz-adv-x="683" 
d="M427 710c31.333 0 63.8301 -2.66992 97.4971 -8.00293s67.5 -12.666 101.5 -21.999l-27 -179c-25.333 4 -49.666 7.33301 -72.999 10s-44.666 4 -63.999 4c-22 0 -42.667 -2.16699 -62 -6.5s-36 -12.166 -50 -23.499s-25 -27.333 -33 -48s-12 -47 -12 -79
c0 -39.333 3.83301 -70.5 11.5 -93.5s18.834 -40.333 33.501 -52s32.167 -19.167 52.5 -22.5s43.166 -5 68.499 -5c6.66699 0 16.5 0.5 29.5 1.5s27 2.33301 42 4s30.167 3.66699 45.5 6s29 4.83301 41 7.5l36 -173c-38 -14 -79.667 -24.667 -125 -32s-88.333 -11 -129 -11
c-76.667 0 -139.167 10 -187.5 30s-86.166 46.5 -113.499 79.5s-46 70.833 -56 113.5s-15 86.334 -15 131.001c0 46.667 5.83301 92 17.5 136s32.167 83.167 61.5 117.5s69 62 119 83s113.333 31.5 190 31.5zM596.997 910.997l-163 -162h-142l-159 162l51 60l178 -95l181 97
z" />
    <glyph glyph-name="ccaron" unicode="&#x10d;" horiz-adv-x="531" 
d="M307 510c19.333 0 44.832 -1.66602 76.499 -4.99902s63.5 -9.33301 95.5 -18l-31 -167c-18 2.66699 -35.167 4.5 -51.5 5.5s-30.166 1.5 -41.499 1.5c-29.333 0 -50.333 -6.5 -63 -19.5s-19.667 -33.167 -21 -60.5c0 -29.333 5.66699 -48.833 17 -58.5
s31.666 -14.5 60.999 -14.5c19.333 0 39.5 1.66699 60.5 5s40.167 6.66602 57.5 9.99902l34 -161c-31.333 -14 -65.666 -24.333 -102.999 -31s-74 -10 -110 -10c-56 0 -101.167 7 -135.5 21s-61 32.667 -80 56s-31.667 50 -38 80s-9.5 60.667 -9.5 92
c0 34.667 3.83301 68.5 11.5 101.5s22 62.167 43 87.5s49.833 45.833 86.5 61.5s83.667 23.5 141 23.5zM511.999 714.001l-163 -172h-142l-159 172l48 60l181 -96l181 98z" />
    <glyph glyph-name="Dcaron" unicode="&#x10e;" horiz-adv-x="765" 
d="M60 0l-0.000976562 692.999h317c69.333 0 126.5 -9.16699 171.5 -27.5s80.5 -43.166 106.5 -74.499s44.167 -68 54.5 -110s15.5 -86.333 15.5 -133c0 -45.333 -6 -89 -18 -131s-31.667 -79 -59 -111s-63.166 -57.667 -107.499 -77s-98.833 -29 -163.5 -29h-317z
M311.999 524.999l-0.000976562 -354.998h47c21.333 0 38.833 4.83301 52.5 14.5s24.334 22.667 32.001 39s13 35.166 16 56.499s4.5 43.666 4.5 66.999c0 24 -1.66699 46.833 -5 68.5s-9.16602 40.5 -17.499 56.5s-19.833 28.833 -34.5 38.5s-33.334 14.5 -56.001 14.5h-39z
M577.998 911.001l-163 -162h-142l-159 162l51 60l178 -95l181 97z" />
    <glyph glyph-name="dcaron" unicode="&#x10f;" horiz-adv-x="907" 
d="M682 671c0 23.333 9.16699 43.332 27.5 59.999s43.166 25 74.499 25c18.667 0 34.334 -3.16699 47.001 -9.5s23 -14.5 31 -24.5s13.833 -21.333 17.5 -34s5.5 -25.334 5.5 -38.001c0 -21.333 -4.5 -42.166 -13.5 -62.499s-20.667 -39.5 -35 -57.5
s-30.5 -34.167 -48.5 -48.5s-36.333 -25.833 -55 -34.5l-51 63c18 13.333 32.5 26.333 43.5 39s17.833 28.334 20.5 47.001c-22.667 3.33301 -39 11.5 -49 24.5s-15 29.833 -15 50.5zM324 342.999c-4.66699 0 -10.168 -0.49707 -16.501 -1.49707s-12.333 -4.83301 -18 -11.5
s-10.5 -16.834 -14.5 -30.501s-6 -32.834 -6 -57.501c0 -21.333 1.83301 -37.833 5.5 -49.5s8.33398 -20.334 14.001 -26.001s11.834 -9 18.501 -10s13 -1.5 19 -1.5c6.66699 0 15.167 1.5 25.5 4.5s20.166 6.83301 29.499 11.5v158c-11.333 5.33301 -22.333 9 -33 11
s-18.667 3 -24 3zM392.999 44.002c-15.333 -12 -30.667 -21.4971 -46 -28.4971s-29.833 -12.5 -43.5 -16.5s-26 -6.66699 -37 -8s-19.5 -2 -25.5 -2c-43.333 0 -78.833 6.66699 -106.5 20s-49.5 31.5 -65.5 54.5s-27 49.333 -33 79s-9 61.167 -9 94.5
c0 39.333 4 75.833 12 109.5s21.167 62.667 39.5 87s42.333 43.5 72 57.5s66.167 21 109.5 21c6 0 14 -0.333008 24 -1s21 -1.83398 33 -3.50098s24.167 -3.83398 36.5 -6.50098s23.5 -6.33398 33.5 -11.001v28v40v64.5v101.5h239c0 -62 -0.166992 -122.833 -0.5 -182.5
s-0.5 -119.167 -0.5 -178.5v-179c0 -60 0.333008 -121.333 1 -184h-220l-6 41z" />
    <glyph glyph-name="Dcroat" unicode="&#x110;" horiz-adv-x="765" 
d="M60 0l-0.000976562 307.999h-52v92h52v293h317c69.333 0 126.5 -9.16699 171.5 -27.5s80.5 -43.166 106.5 -74.499s44.167 -68 54.5 -110s15.5 -86.333 15.5 -133c0 -45.333 -6 -89 -18 -131s-31.667 -79 -59 -111s-63.166 -57.667 -107.499 -77s-98.833 -29 -163.5 -29
h-317zM311.999 524.999l-0.000976562 -124.998h67v-92h-67v-138h47c21.333 0 38.833 4.83301 52.5 14.5s24.334 22.667 32.001 39s13 35.166 16 56.499s4.5 43.666 4.5 66.999c0 24 -1.66699 46.833 -5 68.5s-9.16602 40.5 -17.499 56.5s-19.833 28.833 -34.5 38.5
s-33.334 14.5 -56.001 14.5h-39z" />
    <glyph glyph-name="dcroat" unicode="&#x111;" horiz-adv-x="663" 
d="M678 610l-0.00195312 -69h-52v-541h-220l-6 41l-7 3c-15.333 -12 -30.666 -21.5 -45.999 -28.5s-29.833 -12.5 -43.5 -16.5s-26 -6.66699 -37 -8s-19.5 -2 -25.5 -2c-43.333 0 -78.833 6.5 -106.5 19.5s-49.5 30.5 -65.5 52.5s-27 47.167 -33 75.5s-9 58.166 -9 89.499
c0 38 4 73.167 12 105.5s21.167 60.333 39.5 84s42.333 42.167 72 55.5s66.167 20 109.5 20c12 0 28.833 -1.33301 50.5 -4s42.834 -8.66699 63.501 -18l8 8c-0.666992 5.33301 -1 14 -1 26v38h-96v69h96c0 16 0.166992 32.833 0.5 50.5s0.5 38.834 0.5 63.501h244v-114h52z
M323.998 320c-4.66699 0 -10.1689 -1.33105 -16.502 -3.99805s-12.333 -7.33398 -18 -14.001s-10.5 -15.834 -14.5 -27.501s-6 -26.167 -6 -43.5c0 -16 1.83301 -28.833 5.5 -38.5s8.33398 -17.334 14.001 -23.001s11.834 -9.33398 18.501 -11.001s13 -2.5 19 -2.5
c6.66699 0 15 0.833008 25 2.5s20 5.83398 30 12.501v137c-13.333 6.66699 -24.833 10.334 -34.5 11.001s-17.167 1 -22.5 1z" />
    <glyph glyph-name="Emacron" unicode="&#x112;" horiz-adv-x="676" 
d="M59 0v693h566v-168h-313v-88h262v-160h-262v-107h325v-170h-578zM147 885h400v-136h-400v136z" />
    <glyph glyph-name="emacron" unicode="&#x113;" horiz-adv-x="608" 
d="M308 511c59.333 0 107 -6.83398 143 -20.501s63.667 -32 83 -55s32 -49.667 38 -80s9 -62.166 9 -95.499v-36h-312c1.33301 -25.333 11.166 -41.5 29.499 -48.5s41.5 -10.5 69.5 -10.5c10.667 0 22.834 0.666992 36.501 2s27.667 3.33301 42 6l42.5 8
c14 2.66699 26.667 5.66699 38 9l44 -148c-19.333 -10 -40 -18.5 -62 -25.5s-44 -12.667 -66 -17s-43.5 -7.33301 -64.5 -9s-40.5 -2.5 -58.5 -2.5c-59.333 0 -107.833 7.33301 -145.5 22s-67.5 34 -89.5 58s-37.167 51.5 -45.5 82.5s-12.5 63.167 -12.5 96.5
c0 36 4.83301 70 14.5 102s25.5 60 47.5 84s51 43 87 57s80 21 132 21zM321 369.999c-18.667 0 -31.168 -5.66699 -37.501 -17s-10.166 -23.666 -11.499 -36.999h92c-0.666992 15.333 -3.5 28.166 -8.5 38.499s-16.5 15.5 -34.5 15.5zM110.999 703.999h420v-136h-420v136z
" />
    <glyph glyph-name="Ebreve" unicode="&#x114;" horiz-adv-x="676" 
d="M59 0v693h566v-168h-313v-88h262v-160h-262v-107h325v-170h-578zM346 727c-22.667 0 -44.335 4 -65.002 12s-40.167 19 -58.5 33s-35.5 30.5 -51.5 49.5s-30.667 39.833 -44 62.5l78 64c12 -16 24.667 -29.667 38 -41s26.5 -20.5 39.5 -27.5s25.333 -12 37 -15
s21.834 -4.5 30.501 -4.5c6 0 13.833 0.5 23.5 1.5s21.5 4 35.5 9s30 13 48 24s38 26.833 60 47.5l58 -59c-18 -30 -36.667 -55 -56 -75s-39 -36 -59 -48s-39.667 -20.5 -59 -25.5s-37.666 -7.5 -54.999 -7.5z" />
    <glyph glyph-name="ebreve" unicode="&#x115;" horiz-adv-x="608" 
d="M308 511c59.333 0 107 -6.83398 143 -20.501s63.667 -32 83 -55s32 -49.667 38 -80s9 -62.166 9 -95.499v-36h-312c1.33301 -25.333 11.166 -41.5 29.499 -48.5s41.5 -10.5 69.5 -10.5c10.667 0 22.834 0.666992 36.501 2s27.667 3.33301 42 6l42.5 8
c14 2.66699 26.667 5.66699 38 9l44 -148c-19.333 -10 -40 -18.5 -62 -25.5s-44 -12.667 -66 -17s-43.5 -7.33301 -64.5 -9s-40.5 -2.5 -58.5 -2.5c-59.333 0 -107.833 7.33301 -145.5 22s-67.5 34 -89.5 58s-37.167 51.5 -45.5 82.5s-12.5 63.167 -12.5 96.5
c0 36 4.83301 70 14.5 102s25.5 60 47.5 84s51 43 87 57s80 21 132 21zM321 369.999c-18.667 0 -31.168 -5.66699 -37.501 -17s-10.166 -23.666 -11.499 -36.999h92c-0.666992 15.333 -3.5 28.166 -8.5 38.499s-16.5 15.5 -34.5 15.5zM309.999 540.999
c-22.667 0 -44.6709 4.3291 -66.0039 12.9961s-41.5 20.5 -60.5 35.5s-36.833 32.5 -53.5 52.5s-31.667 41.333 -45 64l84 63c12.667 -17.333 25.834 -31.666 39.501 -42.999s26.834 -20.5 39.501 -27.5s24.667 -12 36 -15s21.333 -4.5 30 -4.5h22
c8.66699 0 19.667 2.33301 33 7s29 12.834 47 24.501s39.667 29.167 65 52.5l69 -63c-18 -30 -37.333 -55.167 -58 -75.5s-41.667 -36.666 -63 -48.999s-42.166 -21.166 -62.499 -26.499s-39.166 -8 -56.499 -8z" />
    <glyph glyph-name="Edotaccent" unicode="&#x116;" horiz-adv-x="676" 
d="M59 0v693h566v-168h-313v-88h262v-160h-262v-107h325v-170h-578zM489 851c0 -31.333 -10 -57.5 -30 -78.5s-52.667 -31.5 -98 -31.5c-44.667 0 -76.334 10.5 -95.001 31.5s-28 47.167 -28 78.5c0 34 9.33301 61 28 81s50.334 30 95.001 30c46 0 78.833 -10 98.5 -30
s29.5 -47 29.5 -81z" />
    <glyph glyph-name="edotaccent" unicode="&#x117;" horiz-adv-x="608" 
d="M308 511c59.333 0 107 -6.83398 143 -20.501s63.667 -32 83 -55s32 -49.667 38 -80s9 -62.166 9 -95.499v-36h-312c1.33301 -25.333 11.166 -41.5 29.499 -48.5s41.5 -10.5 69.5 -10.5c10.667 0 22.834 0.666992 36.501 2s27.667 3.33301 42 6l42.5 8
c14 2.66699 26.667 5.66699 38 9l44 -148c-19.333 -10 -40 -18.5 -62 -25.5s-44 -12.667 -66 -17s-43.5 -7.33301 -64.5 -9s-40.5 -2.5 -58.5 -2.5c-59.333 0 -107.833 7.33301 -145.5 22s-67.5 34 -89.5 58s-37.167 51.5 -45.5 82.5s-12.5 63.167 -12.5 96.5
c0 36 4.83301 70 14.5 102s25.5 60 47.5 84s51 43 87 57s80 21 132 21zM321 369.999c-18.667 0 -31.168 -5.66699 -37.501 -17s-10.166 -23.666 -11.499 -36.999h92c-0.666992 15.333 -3.5 28.166 -8.5 38.499s-16.5 15.5 -34.5 15.5zM437.999 676.999
c0 -31.333 -10 -57.5 -30 -78.5s-52.667 -31.5 -98 -31.5c-44.667 0 -76.334 10.5 -95.001 31.5s-28 47.167 -28 78.5c0 34 9.33301 61 28 81s50.334 30 95.001 30c46 0 78.833 -10 98.5 -30s29.5 -47 29.5 -81z" />
    <glyph glyph-name="Eogonek" unicode="&#x118;" horiz-adv-x="676" 
d="M591 0c-9.33301 -20 -15.832 -40.0029 -19.499 -60.0029s-5.5 -37 -5.5 -51c0 -11.333 3.16699 -20.666 9.5 -27.999s17.166 -11 32.499 -11c14.667 0 26.5 1.16699 35.5 3.5l35.5 9.5l20 -69c-23.333 -13.333 -47.333 -23.166 -72 -29.499s-48 -9.5 -70 -9.5
c-42 0 -73.5 8.83301 -94.5 26.5s-31.5 41.834 -31.5 72.501c0 18 4.33301 39.833 13 65.5s25.667 52.5 51 80.5h-436v693h566v-168h-313v-88h262v-160h-262v-107h325v-170h-46z" />
    <glyph glyph-name="eogonek" unicode="&#x119;" horiz-adv-x="608" 
d="M308 511c59.333 0 107 -6.83691 143 -20.5039s63.667 -32 83 -55s32 -49.667 38 -80s9 -62.166 9 -95.499v-36h-312c1.33301 -25.333 11.166 -41.5 29.499 -48.5s41.5 -10.5 69.5 -10.5c10.667 0 22.834 0.666992 36.501 2s27.667 3.33301 42 6l42.5 8
c14 2.66699 26.667 5.66699 38 9l44 -148c-13.333 -7.33301 -27 -13.666 -41 -18.999s-28.333 -10 -43 -14c-6 -16.667 -10.167 -32.834 -12.5 -48.501s-3.5 -29.167 -3.5 -40.5s3.16699 -20.666 9.5 -27.999s17.166 -11 32.499 -11c14.667 0 26.5 1.16699 35.5 3.5
l35.5 9.5l20 -69c-23.333 -13.333 -47.333 -23.166 -72 -29.499s-48 -9.5 -70 -9.5c-42 0 -73.5 8.83301 -94.5 26.5s-31.5 41.834 -31.5 72.501c0 13.333 2.33301 29 7 47s13.334 37.333 26.001 58c-8.66699 -1.33301 -17.167 -2 -25.5 -2h-23.5
c-59.333 0 -107.833 7.33301 -145.5 22s-67.5 34 -89.5 58s-37.167 51.5 -45.5 82.5s-12.5 63.167 -12.5 96.5c0 36 4.83301 70 14.5 102s25.5 60 47.5 84s51 43 87 57s80 21 132 21zM321 369.996c-18.667 0 -31.168 -5.66699 -37.501 -17s-10.166 -23.666 -11.499 -36.999
h92c-0.666992 15.333 -3.5 28.166 -8.5 38.499s-16.5 15.5 -34.5 15.5z" />
    <glyph glyph-name="Ecaron" unicode="&#x11a;" horiz-adv-x="676" 
d="M59 0v693h566v-168h-313v-88h262v-160h-262v-107h325v-170h-578zM579 895l-163 -162h-142l-159 162l51 60l178 -95l181 97z" />
    <glyph glyph-name="ecaron" unicode="&#x11b;" horiz-adv-x="608" 
d="M308 511c59.333 0 107 -6.83398 143 -20.501s63.667 -32 83 -55s32 -49.667 38 -80s9 -62.166 9 -95.499v-36h-312c1.33301 -25.333 11.166 -41.5 29.499 -48.5s41.5 -10.5 69.5 -10.5c10.667 0 22.834 0.666992 36.501 2s27.667 3.33301 42 6l42.5 8
c14 2.66699 26.667 5.66699 38 9l44 -148c-19.333 -10 -40 -18.5 -62 -25.5s-44 -12.667 -66 -17s-43.5 -7.33301 -64.5 -9s-40.5 -2.5 -58.5 -2.5c-59.333 0 -107.833 7.33301 -145.5 22s-67.5 34 -89.5 58s-37.167 51.5 -45.5 82.5s-12.5 63.167 -12.5 96.5
c0 36 4.83301 70 14.5 102s25.5 60 47.5 84s51 43 87 57s80 21 132 21zM321 369.999c-18.667 0 -31.168 -5.66699 -37.501 -17s-10.166 -23.666 -11.499 -36.999h92c-0.666992 15.333 -3.5 28.166 -8.5 38.499s-16.5 15.5 -34.5 15.5zM537.999 713.999l-163 -172h-142
l-159 172l48 60l181 -96l181 98z" />
    <glyph glyph-name="Gcircumflex" unicode="&#x11c;" horiz-adv-x="728" 
d="M437 710c31.333 0 65.998 -2.66895 103.998 -8.00195s74 -12.666 108 -21.999l-26 -174c-25.333 4 -52 7.33301 -80 10s-51.667 4 -71 4c-26.667 0 -50.334 -2.83301 -71.001 -8.5s-38.167 -15.5 -52.5 -29.5s-25.166 -33.167 -32.499 -57.5s-11 -54.833 -11 -91.5
c0 -30 2.83301 -54.667 8.5 -74s13.5 -34.833 23.5 -46.5s22.167 -19.834 36.5 -24.501s30.166 -7 47.499 -7c6 0 12.333 0.333008 19 1s14.334 1.66699 23.001 3v197h226v-348c-46.667 -16.667 -94.667 -28.5 -144 -35.5s-94 -10.5 -134 -10.5
c-76.667 0 -139.167 10.667 -187.5 32s-86.166 49 -113.499 83s-46 72.333 -56 115s-15 85.667 -15 129c0 46.667 5.83301 91.834 17.5 135.501s32.334 82.334 62.001 116.001s70.167 60.667 121.5 81s117 30.5 197 30.5zM574.998 738.998l-181 95l-178 -93l-51 60l159 162
h142l163 -162z" />
    <glyph glyph-name="gcircumflex" unicode="&#x11d;" horiz-adv-x="676" 
d="M107 188c-18 12 -32.167 28.9961 -42.5 50.9961s-15.5 47 -15.5 75c0 34 7.5 63.333 22.5 88s35.167 44.834 60.5 60.501s54.666 27.334 87.999 35.001s68.333 11.5 105 11.5c24.667 0 47.834 -1.16699 69.501 -3.5s38.5 -5.16602 50.5 -8.49902h207v-104h-61l-4 -6
c6 -10.667 9.66699 -22.5 11 -35.5s2 -23.167 2 -30.5c0 -31.333 -7.16699 -58.166 -21.5 -80.499s-33.5 -40.833 -57.5 -55.5s-51.833 -25.5 -83.5 -32.5s-64.5 -10.833 -98.5 -11.5l-61 -1c-10.667 0 -18.5 -2.16699 -23.5 -6.5s-7.5 -9.16602 -7.5 -14.499
c0 -2.66699 1.16699 -5 3.5 -7s7.16602 -3 14.499 -3h171c32 0 61.167 -2.16699 87.5 -6.5s48.833 -12 67.5 -23s33 -25.5 43 -43.5s15 -40.667 15 -68c0 -20 -4.66699 -41 -14 -63s-27.166 -42.167 -53.499 -60.5s-62.833 -33.5 -109.5 -45.5s-107.334 -18 -182.001 -18
c-60.667 0 -108.5 4.16699 -143.5 12.5s-61.5 19 -79.5 32s-29.333 27.333 -34 43s-7 30.834 -7 45.501c0 19.333 4.33301 37.166 13 53.499s23.334 30.5 44.001 42.5c-14.667 7.33301 -25.5 17.666 -32.5 30.999s-10.5 28 -10.5 44c0 17.333 5 34.833 15 52.5
s26.667 32.5 50 44.5zM276 -18.0039c-7.33301 -5.33301 -12.167 -9.83203 -14.5 -13.499s-3.5 -6.83398 -3.5 -9.50098c0 -7.33301 3.66699 -13.833 11 -19.5s25 -8.5 53 -8.5c30.667 0 51.667 2.5 63 7.5s17 12.5 17 22.5c0 14 -7.66699 21 -23 21h-103zM365.999 322.997
c0 16.667 -3.83301 28.5029 -11.5 35.5029s-18.167 10.5 -31.5 10.5c-8.66699 0 -15.5 -1.66699 -20.5 -5s-9 -7.33301 -12 -12s-5 -9.83398 -6 -15.501s-1.5 -10.834 -1.5 -15.501c0 -14.667 3 -25.334 9 -32.001s17 -10 33 -10c11.333 0 21 3 29 9s12 17.667 12 35z
M501.999 526l-181 98l-181 -96l-48 60l159 172h142l163 -172z" />
    <glyph glyph-name="Gbreve" unicode="&#x11e;" horiz-adv-x="728" 
d="M437 710c31.333 0 65.998 -2.66895 103.998 -8.00195s74 -12.666 108 -21.999l-26 -174c-25.333 4 -52 7.33301 -80 10s-51.667 4 -71 4c-26.667 0 -50.334 -2.83301 -71.001 -8.5s-38.167 -15.5 -52.5 -29.5s-25.166 -33.167 -32.499 -57.5s-11 -54.833 -11 -91.5
c0 -30 2.83301 -54.667 8.5 -74s13.5 -34.833 23.5 -46.5s22.167 -19.834 36.5 -24.501s30.166 -7 47.499 -7c6 0 12.333 0.333008 19 1s14.334 1.66699 23.001 3v197h226v-348c-46.667 -16.667 -94.667 -28.5 -144 -35.5s-94 -10.5 -134 -10.5
c-76.667 0 -139.167 10.667 -187.5 32s-86.166 49 -113.499 83s-46 72.333 -56 115s-15 85.667 -15 129c0 46.667 5.83301 91.834 17.5 135.501s32.334 82.334 62.001 116.001s70.167 60.667 121.5 81s117 30.5 197 30.5zM380.998 739.998c-22.667 0 -44.335 4 -65.002 12
s-40.167 19 -58.5 33s-35.5 30.5 -51.5 49.5s-30.667 39.833 -44 62.5l78 64c12 -16 24.667 -29.667 38 -41s26.5 -20.5 39.5 -27.5s25.333 -12 37 -15s21.834 -4.5 30.501 -4.5c6 0 13.833 0.5 23.5 1.5s21.5 4 35.5 9s30 13 48 24s38 26.833 60 47.5l58 -59
c-18 -30 -36.667 -55 -56 -75s-39 -36 -59 -48s-39.667 -20.5 -59 -25.5s-37.666 -7.5 -54.999 -7.5z" />
    <glyph glyph-name="gbreve" unicode="&#x11f;" horiz-adv-x="676" 
d="M107 188c-18 12 -32.167 28.9961 -42.5 50.9961s-15.5 47 -15.5 75c0 34 7.5 63.333 22.5 88s35.167 44.834 60.5 60.501s54.666 27.334 87.999 35.001s68.333 11.5 105 11.5c24.667 0 47.834 -1.16699 69.501 -3.5s38.5 -5.16602 50.5 -8.49902h207v-104h-61l-4 -6
c6 -10.667 9.66699 -22.5 11 -35.5s2 -23.167 2 -30.5c0 -31.333 -7.16699 -58.166 -21.5 -80.499s-33.5 -40.833 -57.5 -55.5s-51.833 -25.5 -83.5 -32.5s-64.5 -10.833 -98.5 -11.5l-61 -1c-10.667 0 -18.5 -2.16699 -23.5 -6.5s-7.5 -9.16602 -7.5 -14.499
c0 -2.66699 1.16699 -5 3.5 -7s7.16602 -3 14.499 -3h171c32 0 61.167 -2.16699 87.5 -6.5s48.833 -12 67.5 -23s33 -25.5 43 -43.5s15 -40.667 15 -68c0 -20 -4.66699 -41 -14 -63s-27.166 -42.167 -53.499 -60.5s-62.833 -33.5 -109.5 -45.5s-107.334 -18 -182.001 -18
c-60.667 0 -108.5 4.16699 -143.5 12.5s-61.5 19 -79.5 32s-29.333 27.333 -34 43s-7 30.834 -7 45.501c0 19.333 4.33301 37.166 13 53.499s23.334 30.5 44.001 42.5c-14.667 7.33301 -25.5 17.666 -32.5 30.999s-10.5 28 -10.5 44c0 17.333 5 34.833 15 52.5
s26.667 32.5 50 44.5zM276 -18.0039c-7.33301 -5.33301 -12.167 -9.83203 -14.5 -13.499s-3.5 -6.83398 -3.5 -9.50098c0 -7.33301 3.66699 -13.833 11 -19.5s25 -8.5 53 -8.5c30.667 0 51.667 2.5 63 7.5s17 12.5 17 22.5c0 14 -7.66699 21 -23 21h-103zM365.999 322.997
c0 16.667 -3.83301 28.5029 -11.5 35.5029s-18.167 10.5 -31.5 10.5c-8.66699 0 -15.5 -1.66699 -20.5 -5s-9 -7.33301 -12 -12s-5 -9.83398 -6 -15.501s-1.5 -10.834 -1.5 -15.501c0 -14.667 3 -25.334 9 -32.001s17 -10 33 -10c11.333 0 21 3 29 9s12 17.667 12 35z
M312.999 541c-22.667 0 -44.6709 4.3291 -66.0039 12.9961s-41.5 20.5 -60.5 35.5s-36.833 32.5 -53.5 52.5s-31.667 41.333 -45 64l84 63c12.667 -17.333 25.834 -31.666 39.501 -42.999s26.834 -20.5 39.501 -27.5s24.667 -12 36 -15s21.333 -4.5 30 -4.5h22
c8.66699 0 19.667 2.33301 33 7s29 12.834 47 24.501s39.667 29.167 65 52.5l69 -63c-18 -30 -37.333 -55.167 -58 -75.5s-41.667 -36.666 -63 -48.999s-42.166 -21.166 -62.499 -26.499s-39.166 -8 -56.499 -8z" />
    <glyph glyph-name="Gdotaccent" unicode="&#x120;" horiz-adv-x="728" 
d="M437 710c31.333 0 65.998 -2.66895 103.998 -8.00195s74 -12.666 108 -21.999l-26 -174c-25.333 4 -52 7.33301 -80 10s-51.667 4 -71 4c-26.667 0 -50.334 -2.83301 -71.001 -8.5s-38.167 -15.5 -52.5 -29.5s-25.166 -33.167 -32.499 -57.5s-11 -54.833 -11 -91.5
c0 -30 2.83301 -54.667 8.5 -74s13.5 -34.833 23.5 -46.5s22.167 -19.834 36.5 -24.501s30.166 -7 47.499 -7c6 0 12.333 0.333008 19 1s14.334 1.66699 23.001 3v197h226v-348c-46.667 -16.667 -94.667 -28.5 -144 -35.5s-94 -10.5 -134 -10.5
c-76.667 0 -139.167 10.667 -187.5 32s-86.166 49 -113.499 83s-46 72.333 -56 115s-15 85.667 -15 129c0 46.667 5.83301 91.834 17.5 135.501s32.334 82.334 62.001 116.001s70.167 60.667 121.5 81s117 30.5 197 30.5zM513.998 862.998c0 -31.333 -10 -57.5 -30 -78.5
s-52.667 -31.5 -98 -31.5c-44.667 0 -76.334 10.5 -95.001 31.5s-28 47.167 -28 78.5c0 34 9.33301 61 28 81s50.334 30 95.001 30c46 0 78.833 -10 98.5 -30s29.5 -47 29.5 -81z" />
    <glyph glyph-name="gdotaccent" unicode="&#x121;" horiz-adv-x="676" 
d="M107 188c-18 12 -32.167 28.9961 -42.5 50.9961s-15.5 47 -15.5 75c0 34 7.5 63.333 22.5 88s35.167 44.834 60.5 60.501s54.666 27.334 87.999 35.001s68.333 11.5 105 11.5c24.667 0 47.834 -1.16699 69.501 -3.5s38.5 -5.16602 50.5 -8.49902h207v-104h-61l-4 -6
c6 -10.667 9.66699 -22.5 11 -35.5s2 -23.167 2 -30.5c0 -31.333 -7.16699 -58.166 -21.5 -80.499s-33.5 -40.833 -57.5 -55.5s-51.833 -25.5 -83.5 -32.5s-64.5 -10.833 -98.5 -11.5l-61 -1c-10.667 0 -18.5 -2.16699 -23.5 -6.5s-7.5 -9.16602 -7.5 -14.499
c0 -2.66699 1.16699 -5 3.5 -7s7.16602 -3 14.499 -3h171c32 0 61.167 -2.16699 87.5 -6.5s48.833 -12 67.5 -23s33 -25.5 43 -43.5s15 -40.667 15 -68c0 -20 -4.66699 -41 -14 -63s-27.166 -42.167 -53.499 -60.5s-62.833 -33.5 -109.5 -45.5s-107.334 -18 -182.001 -18
c-60.667 0 -108.5 4.16699 -143.5 12.5s-61.5 19 -79.5 32s-29.333 27.333 -34 43s-7 30.834 -7 45.501c0 19.333 4.33301 37.166 13 53.499s23.334 30.5 44.001 42.5c-14.667 7.33301 -25.5 17.666 -32.5 30.999s-10.5 28 -10.5 44c0 17.333 5 34.833 15 52.5
s26.667 32.5 50 44.5zM276 -18.0039c-7.33301 -5.33301 -12.167 -9.83203 -14.5 -13.499s-3.5 -6.83398 -3.5 -9.50098c0 -7.33301 3.66699 -13.833 11 -19.5s25 -8.5 53 -8.5c30.667 0 51.667 2.5 63 7.5s17 12.5 17 22.5c0 14 -7.66699 21 -23 21h-103zM365.999 322.997
c0 16.667 -3.83301 28.5029 -11.5 35.5029s-18.167 10.5 -31.5 10.5c-8.66699 0 -15.5 -1.66699 -20.5 -5s-9 -7.33301 -12 -12s-5 -9.83398 -6 -15.501s-1.5 -10.834 -1.5 -15.501c0 -14.667 3 -25.334 9 -32.001s17 -10 33 -10c11.333 0 21 3 29 9s12 17.667 12 35z
M444.999 677c0 -31.333 -10 -57.5 -30 -78.5s-52.667 -31.5 -98 -31.5c-44.667 0 -76.334 10.5 -95.001 31.5s-28 47.167 -28 78.5c0 34 9.33301 61 28 81s50.334 30 95.001 30c46 0 78.833 -10 98.5 -30s29.5 -47 29.5 -81z" />
    <glyph glyph-name="Gcommaaccent" unicode="&#x122;" horiz-adv-x="728" 
d="M437 710c31.333 0 65.998 -2.66895 103.998 -8.00195s74 -12.666 108 -21.999l-26 -174c-25.333 4 -52 7.33301 -80 10s-51.667 4 -71 4c-26.667 0 -50.334 -2.83301 -71.001 -8.5s-38.167 -15.5 -52.5 -29.5s-25.166 -33.167 -32.499 -57.5s-11 -54.833 -11 -91.5
c0 -30 2.83301 -54.667 8.5 -74s13.5 -34.833 23.5 -46.5s22.167 -19.834 36.5 -24.501s30.166 -7 47.499 -7c6 0 12.333 0.333008 19 1s14.334 1.66699 23.001 3v197h226v-348c-46.667 -16.667 -94.667 -28.5 -144 -35.5s-94 -10.5 -134 -10.5
c-76.667 0 -139.167 10.667 -187.5 32s-86.166 49 -113.499 83s-46 72.333 -56 115s-15 85.667 -15 129c0 46.667 5.83301 91.834 17.5 135.501s32.334 82.334 62.001 116.001s70.167 60.667 121.5 81s117 30.5 197 30.5zM327.998 -127.002
c0 23.333 9.16699 43.332 27.5 59.999s43.166 25 74.499 25c18.667 0 34.334 -3.16699 47.001 -9.5s23 -14.5 31 -24.5s13.833 -21.333 17.5 -34s5.5 -25.334 5.5 -38.001c0 -21.333 -4.5 -42.166 -13.5 -62.499s-20.667 -39.5 -35 -57.5s-30.5 -34.167 -48.5 -48.5
s-36.333 -25.833 -55 -34.5l-51 63c18 13.333 32.5 26.333 43.5 39s17.833 28.334 20.5 47.001c-22.667 3.33301 -39 11.5 -49 24.5s-15 29.833 -15 50.5z" />
    <glyph glyph-name="gcommaaccent" unicode="&#x123;" horiz-adv-x="676" 
d="M446 639c0 -25.333 -10.001 -47.167 -30.001 -65.5s-47 -27.5 -81 -27.5c-20 0 -37 3.33301 -51 10s-25.333 15.5 -34 26.5s-15 23.333 -19 37s-6 27.5 -6 41.5c0 22.667 4.83301 45.334 14.5 68.001s22.334 43.667 38.001 63s33.5 36.833 53.5 52.5s40 28.167 60 37.5
l55 -68c-19.333 -14.667 -35 -28.834 -47 -42.501s-19.667 -30.834 -23 -51.501c24.667 -3.33301 42.5 -12.166 53.5 -26.499s16.5 -32.5 16.5 -54.5zM106.999 187.999c-18 12 -32.167 28.9961 -42.5 50.9961s-15.5 47 -15.5 75c0 34 7.5 63.333 22.5 88
s35.167 44.834 60.5 60.501s54.666 27.334 87.999 35.001s68.333 11.5 105 11.5c24.667 0 47.834 -1.16699 69.501 -3.5s38.5 -5.16602 50.5 -8.49902h207v-104h-61l-4 -6c6 -10.667 9.66699 -22.5 11 -35.5s2 -23.167 2 -30.5c0 -31.333 -7.16699 -58.166 -21.5 -80.499
s-33.5 -40.833 -57.5 -55.5s-51.833 -25.5 -83.5 -32.5s-64.5 -10.833 -98.5 -11.5l-61 -1c-10.667 0 -18.5 -2.16699 -23.5 -6.5s-7.5 -9.16602 -7.5 -14.499c0 -2.66699 1.16699 -5 3.5 -7s7.16602 -3 14.499 -3h171c32 0 61.167 -2.16699 87.5 -6.5s48.833 -12 67.5 -23
s33 -25.5 43 -43.5s15 -40.667 15 -68c0 -20 -4.66699 -41 -14 -63s-27.166 -42.167 -53.499 -60.5s-62.833 -33.5 -109.5 -45.5s-107.334 -18 -182.001 -18c-60.667 0 -108.5 4.16699 -143.5 12.5s-61.5 19 -79.5 32s-29.333 27.333 -34 43s-7 30.834 -7 45.501
c0 19.333 4.33301 37.166 13 53.499s23.334 30.5 44.001 42.5c-14.667 7.33301 -25.5 17.666 -32.5 30.999s-10.5 28 -10.5 44c0 17.333 5 34.833 15 52.5s26.667 32.5 50 44.5zM275.999 -18.0049c-7.33301 -5.33301 -12.167 -9.83203 -14.5 -13.499
s-3.5 -6.83398 -3.5 -9.50098c0 -7.33301 3.66699 -13.833 11 -19.5s25 -8.5 53 -8.5c30.667 0 51.667 2.5 63 7.5s17 12.5 17 22.5c0 14 -7.66699 21 -23 21h-103zM365.998 322.996c0 16.667 -3.83301 28.5029 -11.5 35.5029s-18.167 10.5 -31.5 10.5
c-8.66699 0 -15.5 -1.66699 -20.5 -5s-9 -7.33301 -12 -12s-5 -9.83398 -6 -15.501s-1.5 -10.834 -1.5 -15.501c0 -14.667 3 -25.334 9 -32.001s17 -10 33 -10c11.333 0 21 3 29 9s12 17.667 12 35z" />
    <glyph glyph-name="Hcircumflex" unicode="&#x124;" horiz-adv-x="803" 
d="M491 0v274h-180v-274h-251v693h251v-250h180v250h252v-693h-252zM578 728l-181 95l-178 -93l-51 60l159 162h142l163 -162z" />
    <glyph glyph-name="hcircumflex" unicode="&#x125;" horiz-adv-x="660" 
d="M280 451c12 9.33301 25.166 17.834 39.499 25.501s29 14 44 19s29.5 8.83301 43.5 11.5s27 4 39 4c66 0 112 -15.833 138 -47.5s39 -78.5 39 -140.5v-323h-245v275c0 19.333 -3 32.833 -9 40.5s-17.667 11.5 -35 11.5c-6 0 -13.667 -1.33301 -23 -4
s-18.666 -7.33398 -27.999 -14.001v-309h-246c0.666992 121.333 0.5 242 -0.5 362s-0.833008 240.667 0.5 362h240v-162l-5 -106zM335.999 741.001l-181 95l-178 -93l-51 60l159 162h142l163 -162z" />
    <glyph glyph-name="Hbar" unicode="&#x126;" horiz-adv-x="803" 
d="M491 0v274h-180v-274h-251v517h-58v74h58v102h251v-102h180v102h252v-102h55v-74h-55v-517h-252zM491 443v74h-180v-74h180z" />
    <glyph glyph-name="hbar" unicode="&#x127;" horiz-adv-x="677" 
d="M6 549l-1.00098 0.000976562v74h49v101h240v-101h177l-1 -82h-177l-4 -115l8 -5c12 9.33301 25.167 17.833 39.5 25.5s29 14 44 19s29.5 8.83301 43.5 11.5s27 4 39 4c66 0 112 -15.833 138 -47.5s39 -78.5 39 -140.5v-293h-245v245c0 19.333 -3 32.833 -9 40.5
s-17.667 11.5 -35 11.5c-6 0 -13.667 -1.33301 -23 -4s-18.666 -7.33398 -27.999 -14.001v-279h-246v541h-48v8z" />
    <glyph glyph-name="Itilde" unicode="&#x128;" horiz-adv-x="381" 
d="M65 0v693h250v-693h-250zM296 748c-20 0 -40.334 2.00098 -61.001 6.00098s-40.834 8.33301 -60.501 13l-55 13c-17 4 -31.5 6 -43.5 6l-54 -39l-62 48c16.667 46.667 35.834 78.334 57.501 95.001s45.5 25 71.5 25c18 0 36.333 -1.83301 55 -5.5
s37.334 -7.83398 56.001 -12.501s37 -8.83398 55 -12.501s35.333 -5.5 52 -5.5l55 41l60 -48c-14 -42.667 -31 -74 -51 -94s-45 -30 -75 -30z" />
    <glyph glyph-name="itilde" unicode="&#x129;" horiz-adv-x="442" 
d="M95 0v495h244v-495h-244zM326 570c-20 0 -40.334 2.00098 -61.001 6.00098s-40.834 8.33301 -60.501 13l-55 13c-17 4 -31.5 6 -43.5 6l-54 -39l-62 48c16.667 46.667 35.834 78.334 57.501 95.001s45.5 25 71.5 25c18 0 36.333 -1.83301 55 -5.5
s37.334 -7.83398 56.001 -12.501s37 -8.83398 55 -12.501s35.333 -5.5 52 -5.5l55 41l60 -48c-14 -42.667 -31 -74 -51 -94s-45 -30 -75 -30z" />
    <glyph glyph-name="Imacron" unicode="&#x12a;" horiz-adv-x="381" 
d="M65 0v693h250v-693h-250zM-8 885h400v-136h-400v136z" />
    <glyph glyph-name="imacron" unicode="&#x12b;" horiz-adv-x="372" 
d="M64 0v495h244v-495h-244zM-22 704h420v-136h-420v136z" />
    <glyph glyph-name="Ibreve" unicode="&#x12c;" horiz-adv-x="381" 
d="M193 728c-22.667 0 -44.335 4 -65.002 12s-40.167 19 -58.5 33s-35.5 30.5 -51.5 49.5s-30.667 39.833 -44 62.5l78 64c12 -16 24.667 -29.667 38 -41s26.5 -20.5 39.5 -27.5s25.333 -12 37 -15s21.834 -4.5 30.501 -4.5c6 0 13.833 0.5 23.5 1.5s21.5 4 35.5 9
s30 13 48 24s38 26.833 60 47.5l58 -59c-18 -30 -36.667 -55 -56 -75s-39 -36 -59 -48s-39.667 -20.5 -59 -25.5s-37.666 -7.5 -54.999 -7.5zM64.999 0v693h250v-693h-250z" />
    <glyph glyph-name="ibreve" unicode="&#x12d;" horiz-adv-x="435" 
d="M86 0v495h244v-495h-244zM210 541c-22.667 0 -44.6709 4.3291 -66.0039 12.9961s-41.5 20.5 -60.5 35.5s-36.833 32.5 -53.5 52.5s-31.667 41.333 -45 64l84 63c12.667 -17.333 25.834 -31.666 39.501 -42.999s26.834 -20.5 39.501 -27.5s24.667 -12 36 -15
s21.333 -4.5 30 -4.5h22c8.66699 0 19.667 2.33301 33 7s29 12.834 47 24.501s39.667 29.167 65 52.5l69 -63c-18 -30 -37.333 -55.167 -58 -75.5s-41.667 -36.666 -63 -48.999s-42.166 -21.166 -62.499 -26.499s-39.166 -8 -56.499 -8z" />
    <glyph glyph-name="Iogonek" unicode="&#x12e;" horiz-adv-x="381" 
d="M246 0c-9.33301 -20 -15.666 -39.6689 -18.999 -59.002s-5 -36 -5 -50c0 -11.333 3.16699 -20.666 9.5 -27.999s17.166 -11 32.499 -11c14.667 0 26.5 1.16699 35.5 3.5l35.5 9.5l20 -69c-23.333 -13.333 -47.333 -23.166 -72 -29.499s-48 -9.5 -70 -9.5
c-42 0 -73.5 8.83301 -94.5 26.5s-31.5 41.834 -31.5 72.501c0 17.333 4.16699 38.666 12.5 63.999s24.833 52 49.5 80h-84v693h250v-693h-69z" />
    <glyph glyph-name="iogonek" unicode="&#x12f;" horiz-adv-x="372" 
d="M231 0c-7.33301 -18.667 -12.498 -36.6719 -15.498 -54.0049s-4.5 -32.666 -4.5 -45.999c0 -11.333 3.16699 -20.666 9.5 -27.999s17.166 -11 32.499 -11c14.667 0 26.5 1.16699 35.5 3.5l35.5 9.5l20 -69c-23.333 -13.333 -47.333 -23.166 -72 -29.499
s-48 -9.5 -70 -9.5c-42 0 -73.5 8.83301 -94.5 26.5s-31.5 41.834 -31.5 72.501c0 16.667 3.66699 36.834 11 60.501s21.666 48.5 42.999 74.5h-66c0.666992 83.333 0.666992 166.333 0 249s-0.666992 165.667 0 249h244c-0.666992 -83.333 -0.666992 -166.333 0 -249
s0.666992 -165.667 0 -249h-77zM318.002 644.995c0 -32.667 -10.333 -59.667 -31 -81s-54.667 -32 -102 -32c-23.333 0 -43.333 2.83301 -60 8.5s-30.167 13.5 -40.5 23.5s-17.833 22 -22.5 36s-7 29 -7 45c0 34 10 61.5 30 82.5s53.333 31.5 100 31.5
c48 0 82.167 -10.5 102.5 -31.5s30.5 -48.5 30.5 -82.5z" />
    <glyph glyph-name="Idotaccent" unicode="&#x130;" horiz-adv-x="381" 
d="M65 0v693h250v-693h-250zM315 869c0 -31.333 -10 -57.5 -30 -78.5s-52.667 -31.5 -98 -31.5c-44.667 0 -76.334 10.5 -95.001 31.5s-28 47.167 -28 78.5c0 34 9.33301 61 28 81s50.334 30 95.001 30c46 0 78.833 -10 98.5 -30s29.5 -47 29.5 -81z" />
    <glyph glyph-name="dotlessi" unicode="&#x131;" horiz-adv-x="372" 
d="M64 0v495h244v-495h-244z" />
    <glyph glyph-name="IJ" unicode="&#x132;" horiz-adv-x="831" 
d="M65 0v693h250v-693h-250zM504 694l250.001 0.000976562v-510c0 -110.667 -32.167 -199.834 -96.5 -267.501s-160.5 -110.167 -288.5 -127.5l-54 167c40.667 20 73.5 38.5 98.5 55.5s44.167 34.833 57.5 53.5s22.166 39.167 26.499 61.5s6.5 48.5 6.5 78.5v489z" />
    <glyph glyph-name="ij" unicode="&#x133;" horiz-adv-x="745" 
d="M59 0c0.666992 83.333 0.666992 166.333 0 249s-0.666992 165.667 0 249h244c-0.666992 -83.333 -0.666992 -166.333 0 -249s0.666992 -165.667 0 -249h-244zM313 645c0 -32.667 -10.333 -59.667 -31 -81s-54.667 -32 -102 -32c-23.333 0 -43.333 2.83301 -60 8.5
s-30.167 13.5 -40.5 23.5s-17.833 22 -22.5 36s-7 29 -7 45c0 34 10 61.5 30 82.5s53.333 31.5 100 31.5c48 0 82.167 -10.5 102.5 -31.5s30.5 -48.5 30.5 -82.5zM440 498l245.001 0.00292969v-385c0 -54.667 -6.16699 -102.334 -18.5 -143.001
s-31.333 -75.334 -57 -104.001s-58.167 -52 -97.5 -70s-86.333 -31.333 -141 -40l-63 165c28.667 16.667 51.667 31.167 69 43.5s30.666 25.666 39.999 39.999s15.5 31 18.5 50s4.5 43.167 4.5 72.5v371zM695.001 645.003c0 -32.667 -10.333 -59.667 -31 -81
s-54.667 -32 -102 -32c-23.333 0 -43.333 2.83301 -60 8.5s-30.167 13.5 -40.5 23.5s-17.833 22 -22.5 36s-7 29 -7 45c0 34 10 61.5 30 82.5s53.333 31.5 100 31.5c48 0 82.167 -10.5 102.5 -31.5s30.5 -48.5 30.5 -82.5z" />
    <glyph glyph-name="Jcircumflex" unicode="&#x134;" horiz-adv-x="458" 
d="M131 695l250.001 0.000976562v-510c0 -110.667 -32.167 -199.834 -96.5 -267.501s-160.5 -110.167 -288.5 -127.5l-54 167c40.667 20 73.5 38.5 98.5 55.5s44.167 34.833 57.5 53.5s22.166 39.167 26.499 61.5s6.5 48.5 6.5 78.5v489zM435.001 737.001l-181 95l-178 -93
l-51 60l159 162h142l163 -162z" />
    <glyph glyph-name="jcircumflex" unicode="&#x135;" horiz-adv-x="453" 
d="M112 495l245.001 0.00292969v-382c0 -54.667 -6.16699 -102.334 -18.5 -143.001s-31.333 -75.334 -57 -104.001s-58.167 -52 -97.5 -70s-86.333 -31.333 -141 -40l-63 165c28.667 16.667 51.667 31.167 69 43.5s30.666 25.666 39.999 39.999s15.5 31 18.5 50
s4.5 43.167 4.5 72.5v368zM419.001 526.003l-181 98l-181 -96l-48 60l159 172h142l163 -172z" />
    <glyph glyph-name="Kcommaaccent" unicode="&#x136;" horiz-adv-x="806" 
d="M317 489l71 91l96 113h294l-256 -263l279 -430h-304l-150 266l-38 -39v-227h-249v693h249v-202zM281 -127c0 23.333 9.16699 43.332 27.5 59.999s43.166 25 74.499 25c18.667 0 34.334 -3.16699 47.001 -9.5s23 -14.5 31 -24.5s13.833 -21.333 17.5 -34
s5.5 -25.334 5.5 -38.001c0 -21.333 -4.5 -42.166 -13.5 -62.499s-20.667 -39.5 -35 -57.5s-30.5 -34.167 -48.5 -48.5s-36.333 -25.833 -55 -34.5l-51 63c18 13.333 32.5 26.333 43.5 39s17.833 28.334 20.5 47.001c-22.667 3.33301 -39 11.5 -49 24.5s-15 29.833 -15 50.5
z" />
    <glyph glyph-name="kcommaaccent" unicode="&#x137;" horiz-adv-x="662" 
d="M283 382l92 116.002h273l-180 -192c6.66699 -7.33301 14.5 -15.5 23.5 -24.5s14.5 -15.167 16.5 -18.5l149 -263h-270l-79 165l-22 -25v-140h-249c0.666992 121.333 0.5 241.666 -0.5 360.999s-0.833008 239.666 0.5 360.999h249v-178l-8 -162h5zM230 -126.998
c0 23.333 9.16699 43.332 27.5 59.999s43.166 25 74.499 25c18.667 0 34.334 -3.16699 47.001 -9.5s23 -14.5 31 -24.5s13.833 -21.333 17.5 -34s5.5 -25.334 5.5 -38.001c0 -21.333 -4.5 -42.166 -13.5 -62.499s-20.667 -39.5 -35 -57.5s-30.5 -34.167 -48.5 -48.5
s-36.333 -25.833 -55 -34.5l-51 63c18 13.333 32.5 26.333 43.5 39s17.833 28.334 20.5 47.001c-22.667 3.33301 -39 11.5 -49 24.5s-15 29.833 -15 50.5z" />
    <glyph glyph-name="kgreenlandic" unicode="&#x138;" horiz-adv-x="658" 
d="M283 382l92 116.002h273l-180 -192c6.66699 -7.33301 14.5 -15.5 23.5 -24.5s14.5 -15.167 16.5 -18.5l149 -263h-270l-79 165l-22 -25v-140h-249c1.33301 83.333 1.33301 166.166 0 248.499s-1.33301 165.166 0 248.499h249l-3 -48l-5 -67h5z" />
    <glyph glyph-name="Lacute" unicode="&#x139;" horiz-adv-x="649" 
d="M59 0v693h251v-523h327v-170h-578zM189 737l-65 78l189 183l101 -120z" />
    <glyph glyph-name="lacute" unicode="&#x13a;" horiz-adv-x="344" 
d="M50 0c0.666992 121.333 0.5 242 -0.5 362s-0.833008 240.667 0.5 362h243c0.666992 -121.333 1 -242 1 -362v-362h-244zM149 757l-65 78l189 183l101 -120z" />
    <glyph glyph-name="Lcommaaccent" unicode="&#x13b;" horiz-adv-x="649" 
d="M59 0v693h251v-523h327v-170h-578zM267 -127c0 23.333 9.16699 43.332 27.5 59.999s43.166 25 74.499 25c18.667 0 34.334 -3.16699 47.001 -9.5s23 -14.5 31 -24.5s13.833 -21.333 17.5 -34s5.5 -25.334 5.5 -38.001c0 -21.333 -4.5 -42.166 -13.5 -62.499
s-20.667 -39.5 -35 -57.5s-30.5 -34.167 -48.5 -48.5s-36.333 -25.833 -55 -34.5l-51 63c18 13.333 32.5 26.333 43.5 39s17.833 28.334 20.5 47.001c-22.667 3.33301 -39 11.5 -49 24.5s-15 29.833 -15 50.5z" />
    <glyph glyph-name="lcommaaccent" unicode="&#x13c;" horiz-adv-x="344" 
d="M50 0c0.666992 121.333 0.5 242 -0.5 362s-0.833008 240.667 0.5 362h243c0.666992 -121.333 1 -242 1 -362v-362h-244zM79 -127c0 23.333 9.16699 43.332 27.5 59.999s43.166 25 74.499 25c18.667 0 34.334 -3.16699 47.001 -9.5s23 -14.5 31 -24.5
s13.833 -21.333 17.5 -34s5.5 -25.334 5.5 -38.001c0 -21.333 -4.5 -42.166 -13.5 -62.499s-20.667 -39.5 -35 -57.5s-30.5 -34.167 -48.5 -48.5s-36.333 -25.833 -55 -34.5l-51 63c18 13.333 32.5 26.333 43.5 39s17.833 28.334 20.5 47.001
c-22.667 3.33301 -39 11.5 -49 24.5s-15 29.833 -15 50.5z" />
    <glyph glyph-name="Lcaron" unicode="&#x13d;" horiz-adv-x="649" 
d="M59 0v693h251v-523h327v-170h-578zM457 632c0 23.333 9.16699 43.332 27.5 59.999s43.166 25 74.499 25c18.667 0 34.334 -3.16699 47.001 -9.5s23 -14.5 31 -24.5s13.833 -21.333 17.5 -34s5.5 -25.334 5.5 -38.001c0 -21.333 -4.5 -42.166 -13.5 -62.499
s-20.667 -39.5 -35 -57.5s-30.5 -34.167 -48.5 -48.5s-36.333 -25.833 -55 -34.5l-51 63c18 13.333 32.5 26.333 43.5 39s17.833 28.334 20.5 47.001c-22.667 3.33301 -39 11.5 -49 24.5s-15 29.833 -15 50.5z" />
    <glyph glyph-name="lcaron" unicode="&#x13e;" horiz-adv-x="589" 
d="M365 659c0 23.333 9.16699 43.332 27.5 59.999s43.166 25 74.499 25c18.667 0 34.334 -3.16699 47.001 -9.5s23 -14.5 31 -24.5s13.833 -21.333 17.5 -34s5.5 -25.334 5.5 -38.001c0 -21.333 -4.5 -42.166 -13.5 -62.499s-20.667 -39.5 -35 -57.5
s-30.5 -34.167 -48.5 -48.5s-36.333 -25.833 -55 -34.5l-51 63c18 13.333 32.5 26.333 43.5 39s17.833 28.334 20.5 47.001c-22.667 3.33301 -39 11.5 -49 24.5s-15 29.833 -15 50.5zM50 -0.000976562c0.666992 121.333 0.5 242 -0.5 362s-0.833008 240.667 0.5 362h243
c0.666992 -121.333 1 -242 1 -362v-362h-244z" />
    <glyph glyph-name="Ldot" unicode="&#x13f;" horiz-adv-x="702" 
d="M59 0v693h251v-523h327v-170h-578zM676 419c0 -31.333 -10 -57.5 -30 -78.5s-52.667 -31.5 -98 -31.5c-44.667 0 -76.334 10.5 -95.001 31.5s-28 47.167 -28 78.5c0 34 9.33301 61 28 81s50.334 30 95.001 30c46 0 78.833 -10 98.5 -30s29.5 -47 29.5 -81z" />
    <glyph glyph-name="ldot" unicode="&#x140;" horiz-adv-x="636" 
d="M613 411c0 -31.333 -10 -57.5 -30 -78.5s-52.667 -31.5 -98 -31.5c-44.667 0 -76.334 10.5 -95.001 31.5s-28 47.167 -28 78.5c0 34 9.33301 61 28 81s50.334 30 95.001 30c46 0 78.833 -10 98.5 -30s29.5 -47 29.5 -81zM50 0c0.666992 121.333 0.5 242 -0.5 362
s-0.833008 240.667 0.5 362h243c0.666992 -121.333 1 -242 1 -362v-362h-244z" />
    <glyph glyph-name="Lslash" unicode="&#x141;" horiz-adv-x="649" 
d="M59 0v198l-49 -28l-46 92l95 55v376h251v-231l89 52l45 -91l-134 -78v-175h327v-170h-578z" />
    <glyph glyph-name="lslash" unicode="&#x142;" horiz-adv-x="384" 
d="M309 0h-244v239l-48 -28l-42 84l90 52v377h243v-238l60 35l45 -81l-105 -61z" />
    <glyph glyph-name="Nacute" unicode="&#x143;" horiz-adv-x="841" 
d="M538 339v354h243v-693h-255l-146 237l-71 127h-6v-364h-243v693h255l151 -240l64 -114h8zM417 721l-65 78l189 183l101 -120z" />
    <glyph glyph-name="nacute" unicode="&#x144;" horiz-adv-x="660" 
d="M275 445c30 22.667 61.166 39.335 93.499 50.002s60.5 16 84.5 16c61.333 0 105 -15.833 131 -47.5s39 -78.5 39 -140.5v-323h-245v276c0 19.333 -3.5 32.666 -10.5 39.999s-18.167 11 -33.5 11c-6 0 -13.667 -1.33301 -23 -4s-18.666 -7.33398 -27.999 -14.001v-309
h-246c0.666992 83.333 0.666992 166.5 0 249.5s-0.666992 166.167 0 249.5h226l5 -51zM296.999 528.001l-73 87l190 182l104 -129z" />
    <glyph glyph-name="Ncommaaccent" unicode="&#x145;" horiz-adv-x="841" 
d="M538 339v354h243v-693h-255l-146 237l-71 127h-6v-364h-243v693h255l151 -240l64 -114h8zM319 -127c0 23.333 9.16699 43.332 27.5 59.999s43.166 25 74.499 25c18.667 0 34.334 -3.16699 47.001 -9.5s23 -14.5 31 -24.5s13.833 -21.333 17.5 -34
s5.5 -25.334 5.5 -38.001c0 -21.333 -4.5 -42.166 -13.5 -62.499s-20.667 -39.5 -35 -57.5s-30.5 -34.167 -48.5 -48.5s-36.333 -25.833 -55 -34.5l-51 63c18 13.333 32.5 26.333 43.5 39s17.833 28.334 20.5 47.001c-22.667 3.33301 -39 11.5 -49 24.5s-15 29.833 -15 50.5
z" />
    <glyph glyph-name="ncommaaccent" unicode="&#x146;" horiz-adv-x="660" 
d="M275 445c30 22.667 61.166 39.335 93.499 50.002s60.5 16 84.5 16c61.333 0 105 -15.833 131 -47.5s39 -78.5 39 -140.5v-323h-245v276c0 19.333 -3.5 32.666 -10.5 39.999s-18.167 11 -33.5 11c-6 0 -13.667 -1.33301 -23 -4s-18.666 -7.33398 -27.999 -14.001v-309
h-246c0.666992 83.333 0.666992 166.5 0 249.5s-0.666992 166.167 0 249.5h226l5 -51zM235.999 -126.999c0 23.333 9.16699 43.332 27.5 59.999s43.166 25 74.499 25c18.667 0 34.334 -3.16699 47.001 -9.5s23 -14.5 31 -24.5s13.833 -21.333 17.5 -34
s5.5 -25.334 5.5 -38.001c0 -21.333 -4.5 -42.166 -13.5 -62.499s-20.667 -39.5 -35 -57.5s-30.5 -34.167 -48.5 -48.5s-36.333 -25.833 -55 -34.5l-51 63c18 13.333 32.5 26.333 43.5 39s17.833 28.334 20.5 47.001c-22.667 3.33301 -39 11.5 -49 24.5s-15 29.833 -15 50.5
z" />
    <glyph glyph-name="Ncaron" unicode="&#x147;" horiz-adv-x="841" 
d="M538 339v354h243v-693h-255l-146 237l-71 127h-6v-364h-243v693h255l151 -240l64 -114h8zM664 893l-163 -162h-142l-159 162l51 60l178 -95l181 97z" />
    <glyph glyph-name="ncaron" unicode="&#x148;" horiz-adv-x="660" 
d="M275 445c30 22.667 61.166 39.335 93.499 50.002s60.5 16 84.5 16c61.333 0 105 -15.833 131 -47.5s39 -78.5 39 -140.5v-323h-245v276c0 19.333 -3.5 32.666 -10.5 39.999s-18.167 11 -33.5 11c-6 0 -13.667 -1.33301 -23 -4s-18.666 -7.33398 -27.999 -14.001v-309
h-246c0.666992 83.333 0.666992 166.5 0 249.5s-0.666992 166.167 0 249.5h226l5 -51zM562.999 714.001l-163 -172h-142l-159 172l48 60l181 -96l181 98z" />
    <glyph glyph-name="napostrophe" unicode="&#x149;" horiz-adv-x="830" 
d="M445 445c30 22.667 61.166 39.335 93.499 50.002s60.5 16 84.5 16c61.333 0 105 -15.833 131 -47.5s39 -78.5 39 -140.5v-323h-245v276c0 19.333 -3.5 32.666 -10.5 39.999s-18.167 11 -33.5 11c-6 0 -13.667 -1.33301 -23 -4s-18.666 -7.33398 -27.999 -14.001v-309
h-246c0.666992 83.333 0.666992 166.5 0 249.5s-0.666992 166.167 0 249.5h226l5 -51zM26.999 701.001c0 23.333 9.16699 43.332 27.5 59.999s43.166 25 74.499 25c18.667 0 34.334 -3.16699 47.001 -9.5s23 -14.5 31 -24.5s13.833 -21.333 17.5 -34
s5.5 -25.334 5.5 -38.001c0 -21.333 -4.5 -42.166 -13.5 -62.499s-20.667 -39.5 -35 -57.5s-30.5 -34.167 -48.5 -48.5s-36.333 -25.833 -55 -34.5l-51 63c18 13.333 32.5 26.333 43.5 39s17.833 28.334 20.5 47.001c-22.667 3.33301 -39 11.5 -49 24.5s-15 29.833 -15 50.5
z" />
    <glyph glyph-name="Eng" unicode="&#x14a;" horiz-adv-x="841" 
d="M538 339l-0.00195312 353.999h243l1 -691c0 -18.667 -0.333008 -38.167 -1 -58.5s-3.33398 -40 -8.00098 -59s-12 -37 -22 -54s-24.167 -32 -42.5 -45s-41.666 -23.167 -69.999 -30.5s-62.833 -11 -103.5 -11c-8 0 -17.667 0.333008 -29 1
s-23.166 1.83398 -35.499 3.50098s-24.666 3.5 -36.999 5.5s-23.166 4.33301 -32.499 7l16 165c11.333 -2 20.833 -3.33301 28.5 -4s12.834 -1 15.501 -1c10 0 19.667 0.166992 29 0.5s17.666 1.83301 24.999 4.5s13.166 7.16699 17.499 13.5s6.5 15.5 6.5 27.5v25l-159 245
l-71 127h-6v-364h-243v693h255l151 -240l64 -114h8z" />
    <glyph glyph-name="eng" unicode="&#x14b;" horiz-adv-x="660" 
d="M275 445c30 22.667 61.165 39.3359 93.498 50.0029s60.5 16 84.5 16c61.333 0 105 -15.833 131 -47.5s39 -78.5 39 -140.5v-323c0 -27.333 -2.33301 -54.5 -7 -81.5s-15.5 -51.5 -32.5 -73.5s-41.833 -39.833 -74.5 -53.5s-77 -20.5 -133 -20.5
c-8 0 -17.667 0.333008 -29 1s-23 1.66699 -35 3s-23.667 2.83301 -35 4.5s-20.666 3.5 -27.999 5.5l16 158c8 -0.666992 15.5 -1.16699 22.5 -1.5s13.5 -0.5 19.5 -0.5c22.667 0 40.167 3.66699 52.5 11s18.5 23.666 18.5 48.999v275c0 19.333 -3.5 32.666 -10.5 39.999
s-18.167 11 -33.5 11c-6 0 -13.667 -1.33301 -23 -4s-18.666 -7.33398 -27.999 -14.001v-309h-246v499h226l5 -51z" />
    <glyph glyph-name="Omacron" unicode="&#x14c;" horiz-adv-x="825" 
d="M785 350c0 -52 -7.83301 -100.167 -23.5 -144.5s-39.167 -82.666 -70.5 -114.999s-70.166 -57.5 -116.499 -75.5s-100.5 -27 -162.5 -27s-116.167 9 -162.5 27s-85 43.167 -116 75.5s-54.333 70.666 -70 114.999s-23.5 92.5 -23.5 144.5s7.83301 100 23.5 144
s39 81.833 70 113.5s69.667 56.5 116 74.5s100.5 27 162.5 27s116.167 -9 162.5 -27s85.166 -42.833 116.499 -74.5s54.833 -69.5 70.5 -113.5s23.5 -92 23.5 -144zM517 350c0 27.333 -1.66797 52.334 -5.00098 75.001s-9 42 -17 58s-18.667 28.5 -32 37.5
s-30.333 13.5 -51 13.5c-22 0 -39.833 -4.83301 -53.5 -14.5s-24.334 -23 -32.001 -40s-13 -36.667 -16 -59s-4.5 -45.833 -4.5 -70.5c0 -28.667 1.5 -54.667 4.5 -78s8.33301 -43.166 16 -59.499s18.334 -29 32.001 -38s31.5 -13.5 53.5 -13.5
c21.333 0 38.833 4.33301 52.5 13s24.334 21.167 32.001 37.5s13 36.166 16 59.499s4.5 49.666 4.5 78.999zM209.999 885.001h400v-136h-400v136z" />
    <glyph glyph-name="omacron" unicode="&#x14d;" horiz-adv-x="657" 
d="M630 250c0 -38.667 -5.66797 -74 -17.001 -106s-29.166 -59.5 -53.499 -82.5s-55.5 -40.833 -93.5 -53.5s-84 -19 -138 -19c-54.667 0 -101 6.33301 -139 19s-69 30.5 -93 53.5s-41.5 50.5 -52.5 82.5s-16.5 67.333 -16.5 106c0 38 5.5 73 16.5 105s28.667 59.333 53 82
s55.5 40.334 93.5 53.001s84 19 138 19s100.167 -6.33301 138.5 -19s69.5 -30.334 93.5 -53.001s41.667 -50 53 -82s17 -67 17 -105zM379.999 250c0 32.667 -3.66699 56.5 -11 71.5s-21 22.5 -41 22.5s-33.667 -8.66699 -41 -26s-11 -40 -11 -68
c0 -35.333 3.66699 -60.666 11 -75.999s21 -23 41 -23s33.667 7.66699 41 23s11 40.666 11 75.999zM116.999 704h420v-136h-420v136z" />
    <glyph glyph-name="Obreve" unicode="&#x14e;" horiz-adv-x="825" 
d="M785 350c0 -52 -7.83301 -100.167 -23.5 -144.5s-39.167 -82.666 -70.5 -114.999s-70.166 -57.5 -116.499 -75.5s-100.5 -27 -162.5 -27s-116.167 9 -162.5 27s-85 43.167 -116 75.5s-54.333 70.666 -70 114.999s-23.5 92.5 -23.5 144.5s7.83301 100 23.5 144
s39 81.833 70 113.5s69.667 56.5 116 74.5s100.5 27 162.5 27s116.167 -9 162.5 -27s85.166 -42.833 116.499 -74.5s54.833 -69.5 70.5 -113.5s23.5 -92 23.5 -144zM517 350c0 27.333 -1.66797 52.334 -5.00098 75.001s-9 42 -17 58s-18.667 28.5 -32 37.5
s-30.333 13.5 -51 13.5c-22 0 -39.833 -4.83301 -53.5 -14.5s-24.334 -23 -32.001 -40s-13 -36.667 -16 -59s-4.5 -45.833 -4.5 -70.5c0 -28.667 1.5 -54.667 4.5 -78s8.33301 -43.166 16 -59.499s18.334 -29 32.001 -38s31.5 -13.5 53.5 -13.5
c21.333 0 38.833 4.33301 52.5 13s24.334 21.167 32.001 37.5s13 36.166 16 59.499s4.5 49.666 4.5 78.999zM402.999 747.001c-22.667 0 -44.335 4 -65.002 12s-40.167 19 -58.5 33s-35.5 30.5 -51.5 49.5s-30.667 39.833 -44 62.5l78 64c12 -16 24.667 -29.667 38 -41
s26.5 -20.5 39.5 -27.5s25.333 -12 37 -15s21.834 -4.5 30.501 -4.5c6 0 13.833 0.5 23.5 1.5s21.5 4 35.5 9s30 13 48 24s38 26.833 60 47.5l58 -59c-18 -30 -36.667 -55 -56 -75s-39 -36 -59 -48s-39.667 -20.5 -59 -25.5s-37.666 -7.5 -54.999 -7.5z" />
    <glyph glyph-name="obreve" unicode="&#x14f;" horiz-adv-x="657" 
d="M630 250c0 -38.667 -5.66797 -74 -17.001 -106s-29.166 -59.5 -53.499 -82.5s-55.5 -40.833 -93.5 -53.5s-84 -19 -138 -19c-54.667 0 -101 6.33301 -139 19s-69 30.5 -93 53.5s-41.5 50.5 -52.5 82.5s-16.5 67.333 -16.5 106c0 38 5.5 73 16.5 105s28.667 59.333 53 82
s55.5 40.334 93.5 53.001s84 19 138 19s100.167 -6.33301 138.5 -19s69.5 -30.334 93.5 -53.001s41.667 -50 53 -82s17 -67 17 -105zM379.999 250c0 32.667 -3.66699 56.5 -11 71.5s-21 22.5 -41 22.5s-33.667 -8.66699 -41 -26s-11 -40 -11 -68
c0 -35.333 3.66699 -60.666 11 -75.999s21 -23 41 -23s33.667 7.66699 41 23s11 40.666 11 75.999zM320.999 541c-22.667 0 -44.6709 4.3291 -66.0039 12.9961s-41.5 20.5 -60.5 35.5s-36.833 32.5 -53.5 52.5s-31.667 41.333 -45 64l84 63
c12.667 -17.333 25.834 -31.666 39.501 -42.999s26.834 -20.5 39.501 -27.5s24.667 -12 36 -15s21.333 -4.5 30 -4.5h22c8.66699 0 19.667 2.33301 33 7s29 12.834 47 24.501s39.667 29.167 65 52.5l69 -63c-18 -30 -37.333 -55.167 -58 -75.5s-41.667 -36.666 -63 -48.999
s-42.166 -21.166 -62.499 -26.499s-39.166 -8 -56.499 -8z" />
    <glyph glyph-name="Ohungarumlaut" unicode="&#x150;" horiz-adv-x="825" 
d="M785 350c0 -52 -7.83301 -100.167 -23.5 -144.5s-39.167 -82.666 -70.5 -114.999s-70.166 -57.5 -116.499 -75.5s-100.5 -27 -162.5 -27s-116.167 9 -162.5 27s-85 43.167 -116 75.5s-54.333 70.666 -70 114.999s-23.5 92.5 -23.5 144.5s7.83301 100 23.5 144
s39 81.833 70 113.5s69.667 56.5 116 74.5s100.5 27 162.5 27s116.167 -9 162.5 -27s85.166 -42.833 116.499 -74.5s54.833 -69.5 70.5 -113.5s23.5 -92 23.5 -144zM517 350c0 27.333 -1.66797 52.334 -5.00098 75.001s-9 42 -17 58s-18.667 28.5 -32 37.5
s-30.333 13.5 -51 13.5c-22 0 -39.833 -4.83301 -53.5 -14.5s-24.334 -23 -32.001 -40s-13 -36.667 -16 -59s-4.5 -45.833 -4.5 -70.5c0 -28.667 1.5 -54.667 4.5 -78s8.33301 -43.166 16 -59.499s18.334 -29 32.001 -38s31.5 -13.5 53.5 -13.5
c21.333 0 38.833 4.33301 52.5 13s24.334 21.167 32.001 37.5s13 36.166 16 59.499s4.5 49.666 4.5 78.999zM318.999 740.001l-78 64l150 216l122 -98zM529.999 740.001l-78 64l150 216l122 -98z" />
    <glyph glyph-name="ohungarumlaut" unicode="&#x151;" horiz-adv-x="657" 
d="M630 250c0 -38.667 -5.66797 -74 -17.001 -106s-29.166 -59.5 -53.499 -82.5s-55.5 -40.833 -93.5 -53.5s-84 -19 -138 -19c-54.667 0 -101 6.33301 -139 19s-69 30.5 -93 53.5s-41.5 50.5 -52.5 82.5s-16.5 67.333 -16.5 106c0 38 5.5 73 16.5 105s28.667 59.333 53 82
s55.5 40.334 93.5 53.001s84 19 138 19s100.167 -6.33301 138.5 -19s69.5 -30.334 93.5 -53.001s41.667 -50 53 -82s17 -67 17 -105zM379.999 250c0 32.667 -3.66699 56.5 -11 71.5s-21 22.5 -41 22.5s-33.667 -8.66699 -41 -26s-11 -40 -11 -68
c0 -35.333 3.66699 -60.666 11 -75.999s21 -23 41 -23s33.667 7.66699 41 23s11 40.666 11 75.999zM197.999 525l-78 64l150 216l122 -98zM408.999 525l-78 64l150 216l122 -98z" />
    <glyph glyph-name="OE" unicode="&#x152;" horiz-adv-x="1029" 
d="M522 0c-33.333 -8 -70.333 -11.999 -111 -11.999c-62 0 -116.167 9 -162.5 27s-85 43.167 -116 75.5s-54.167 70.666 -69.5 114.999s-23 92.5 -23 144.5s7.66699 100 23 144s38.5 81.833 69.5 113.5s69.667 56.5 116 74.5s100.5 27 162.5 27
c23.333 0 45.833 -1.33301 67.5 -4s42.167 -6.66699 61.5 -12h441v-168h-306v-88h255v-159h-255v-108h314v-170h-467zM411 161.001c3.33301 0 5.33398 -0.169922 6.00098 -0.50293s2.66699 -0.166016 6 0.500977v373h-19c-18 -2 -33.167 -8.33301 -45.5 -19
s-22.5 -24.167 -30.5 -40.5s-13.833 -35.166 -17.5 -56.499s-5.5 -44 -5.5 -68c0 -28.667 1.66699 -54.667 5 -78s9.16602 -43.166 17.499 -59.499s19.333 -29 33 -38s30.5 -13.5 50.5 -13.5z" />
    <glyph glyph-name="oe" unicode="&#x153;" horiz-adv-x="950" 
d="M915 48c-19.333 -10 -39.665 -18.5 -60.998 -25.5s-42.5 -12.667 -63.5 -17s-41.667 -7.5 -62 -9.5s-38.833 -3 -55.5 -3c-72 0 -128.333 14 -169 42c-23.333 -14.667 -49.5 -26 -78.5 -34s-61.5 -12 -97.5 -12c-50 0 -93.833 6 -131.5 18s-69 29.167 -94 51.5
s-43.833 49.166 -56.5 80.499s-19 66.333 -19 105c0 38 6.33301 73.333 19 106s31.5 60.667 56.5 84s56.333 41.666 94 54.999s81.5 20 131.5 20c34 0 65.333 -3.33301 94 -10s54 -18 76 -34c20 18 44.5 31 73.5 39s62.167 12 99.5 12c48.667 0 89.167 -6.66699 121.5 -20
s58.166 -31.5 77.499 -54.5s33.166 -49.667 41.499 -80s12.5 -62.166 12.5 -95.499v-37h-292c1.33301 -27.333 9.5 -45.166 24.5 -53.499s36.5 -12.5 64.5 -12.5c22 0 46.5 2.5 73.5 7.5s52.167 10.833 75.5 17.5zM381.001 250c0 28.667 -3.66699 51.498 -11 68.498
s-21.333 25.5 -42 25.5c-20 0 -33.667 -9.33301 -41 -28s-11 -40.667 -11 -66c0 -29.333 3.66699 -53.166 11 -71.499s21 -27.5 41 -27.5c20.667 0 34.667 8.83301 42 26.5s11 41.834 11 72.501zM708.001 303.998c-1.33301 15.333 -4.33301 28 -9 38s-13 15 -25 15
c-13.333 0 -22.833 -5.33301 -28.5 -16s-9.16699 -23 -10.5 -37h73z" />
    <glyph glyph-name="Racute" unicode="&#x154;" horiz-adv-x="740" 
d="M561 303c16 -5.33301 29.3311 -12.332 39.998 -20.999s19.834 -18.334 27.501 -29.001s13.834 -21.834 18.501 -33.501s8.66699 -23.5 12 -35.5l54 -184h-248l-49 168c-4 14.667 -8.5 26.834 -13.5 36.501s-10.833 17.5 -17.5 23.5s-14.834 10.167 -24.501 12.5
s-21.167 3.5 -34.5 3.5h-15v-244h-251v693h354c48.667 0 89.5 -6.33301 122.5 -19s59.5 -29 79.5 -49s34.333 -42.5 43 -67.5s13 -50.167 13 -75.5c0 -16.667 -2.16699 -33.5 -6.5 -50.5s-11.166 -33.333 -20.499 -49s-21 -30.167 -35 -43.5s-30.333 -24.333 -49 -33v-3z
M419.998 468.001c0 15.333 -5.16797 28.666 -15.501 39.999s-25.166 17 -44.499 17h-49v-120h48c18.667 0 33.5 5.83301 44.5 17.5s16.5 26.834 16.5 45.501zM323.997 726.001l-65 78l189 183l101 -120z" />
    <glyph glyph-name="racute" unicode="&#x155;" horiz-adv-x="523" 
d="M284 381c15.333 18 32.165 35 50.498 51s37 30 56 42s37.833 21.5 56.5 28.5s36 10.5 52 10.5c13.333 0 21.833 -5 25.5 -15s5.5 -21 5.5 -33c0 -17.333 -2.33301 -38 -7 -62s-10.667 -48 -18 -72s-15.166 -46.667 -23.499 -68s-16.5 -37.666 -24.5 -48.999l-163 42v-256
h-244c0.666992 68 1 126.5 1 175.5s-0.166992 92.333 -0.5 130s-0.5 71.5 -0.5 101.5v92h242c0 -6.66699 -0.333008 -15.334 -1 -26.001s-1.5 -21.667 -2.5 -33s-2.16699 -22.333 -3.5 -33s-2.66602 -19 -3.99902 -25zM189.999 528l-73 87l190 182l104 -129z" />
    <glyph glyph-name="Rcommaaccent" unicode="&#x156;" horiz-adv-x="740" 
d="M561 303c16 -5.33301 29.3311 -12.332 39.998 -20.999s19.834 -18.334 27.501 -29.001s13.834 -21.834 18.501 -33.501s8.66699 -23.5 12 -35.5l54 -184h-248l-49 168c-4 14.667 -8.5 26.834 -13.5 36.501s-10.833 17.5 -17.5 23.5s-14.834 10.167 -24.501 12.5
s-21.167 3.5 -34.5 3.5h-15v-244h-251v693h354c48.667 0 89.5 -6.33301 122.5 -19s59.5 -29 79.5 -49s34.333 -42.5 43 -67.5s13 -50.167 13 -75.5c0 -16.667 -2.16699 -33.5 -6.5 -50.5s-11.166 -33.333 -20.499 -49s-21 -30.167 -35 -43.5s-30.333 -24.333 -49 -33v-3z
M419.998 468.001c0 15.333 -5.16797 28.666 -15.501 39.999s-25.166 17 -44.499 17h-49v-120h48c18.667 0 33.5 5.83301 44.5 17.5s16.5 26.834 16.5 45.501zM274.997 -126.999c0 23.333 9.16699 43.332 27.5 59.999s43.166 25 74.499 25
c18.667 0 34.334 -3.16699 47.001 -9.5s23 -14.5 31 -24.5s13.833 -21.333 17.5 -34s5.5 -25.334 5.5 -38.001c0 -21.333 -4.5 -42.166 -13.5 -62.499s-20.667 -39.5 -35 -57.5s-30.5 -34.167 -48.5 -48.5s-36.333 -25.833 -55 -34.5l-51 63c18 13.333 32.5 26.333 43.5 39
s17.833 28.334 20.5 47.001c-22.667 3.33301 -39 11.5 -49 24.5s-15 29.833 -15 50.5z" />
    <glyph glyph-name="rcommaaccent" unicode="&#x157;" horiz-adv-x="523" 
d="M284 381c15.333 18 32.165 35 50.498 51s37 30 56 42s37.833 21.5 56.5 28.5s36 10.5 52 10.5c13.333 0 21.833 -5 25.5 -15s5.5 -21 5.5 -33c0 -17.333 -2.33301 -38 -7 -62s-10.667 -48 -18 -72s-15.166 -46.667 -23.499 -68s-16.5 -37.666 -24.5 -48.999l-163 42v-256
h-244c0.666992 68 1 126.5 1 175.5s-0.166992 92.333 -0.5 130s-0.5 71.5 -0.5 101.5v92h242c0 -6.66699 -0.333008 -15.334 -1 -26.001s-1.5 -21.667 -2.5 -33s-2.16699 -22.333 -3.5 -33s-2.66602 -19 -3.99902 -25zM78.999 -127c0 23.333 9.16699 43.332 27.5 59.999
s43.166 25 74.499 25c18.667 0 34.334 -3.16699 47.001 -9.5s23 -14.5 31 -24.5s13.833 -21.333 17.5 -34s5.5 -25.334 5.5 -38.001c0 -21.333 -4.5 -42.166 -13.5 -62.499s-20.667 -39.5 -35 -57.5s-30.5 -34.167 -48.5 -48.5s-36.333 -25.833 -55 -34.5l-51 63
c18 13.333 32.5 26.333 43.5 39s17.833 28.334 20.5 47.001c-22.667 3.33301 -39 11.5 -49 24.5s-15 29.833 -15 50.5z" />
    <glyph glyph-name="Rcaron" unicode="&#x158;" horiz-adv-x="740" 
d="M561 303c16 -5.33301 29.3311 -12.332 39.998 -20.999s19.834 -18.334 27.501 -29.001s13.834 -21.834 18.501 -33.501s8.66699 -23.5 12 -35.5l54 -184h-248l-49 168c-4 14.667 -8.5 26.834 -13.5 36.501s-10.833 17.5 -17.5 23.5s-14.834 10.167 -24.501 12.5
s-21.167 3.5 -34.5 3.5h-15v-244h-251v693h354c48.667 0 89.5 -6.33301 122.5 -19s59.5 -29 79.5 -49s34.333 -42.5 43 -67.5s13 -50.167 13 -75.5c0 -16.667 -2.16699 -33.5 -6.5 -50.5s-11.166 -33.333 -20.499 -49s-21 -30.167 -35 -43.5s-30.333 -24.333 -49 -33v-3z
M419.998 468.001c0 15.333 -5.16797 28.666 -15.501 39.999s-25.166 17 -44.499 17h-49v-120h48c18.667 0 33.5 5.83301 44.5 17.5s16.5 26.834 16.5 45.501zM586.997 897.001l-163 -162h-142l-159 162l51 60l178 -95l181 97z" />
    <glyph glyph-name="rcaron" unicode="&#x159;" horiz-adv-x="523" 
d="M284 381c15.333 18 32.165 35 50.498 51s37 30 56 42s37.833 21.5 56.5 28.5s36 10.5 52 10.5c13.333 0 21.833 -5 25.5 -15s5.5 -21 5.5 -33c0 -17.333 -2.33301 -38 -7 -62s-10.667 -48 -18 -72s-15.166 -46.667 -23.499 -68s-16.5 -37.666 -24.5 -48.999l-163 42v-256
h-244c0.666992 68 1 126.5 1 175.5s-0.166992 92.333 -0.5 130s-0.5 71.5 -0.5 101.5v92h242c0 -6.66699 -0.333008 -15.334 -1 -26.001s-1.5 -21.667 -2.5 -33s-2.16699 -22.333 -3.5 -33s-2.66602 -19 -3.99902 -25zM473.999 714l-163 -172h-142l-159 172l48 60l181 -96
l181 98z" />
    <glyph glyph-name="Sacute" unicode="&#x15a;" horiz-adv-x="705" 
d="M369 710c43.333 0 88.332 -4.8291 134.999 -14.4961s90.334 -24.5 131.001 -44.5l-56 -166c-17.333 6 -35.833 11.167 -55.5 15.5s-39 7.83301 -58 10.5s-37.333 4.5 -55 5.5s-33.5 1.5 -47.5 1.5c-16 0 -27.167 -2.5 -33.5 -7.5s-9.5 -12.167 -9.5 -21.5
s10.333 -17.166 31 -23.499s47 -13.166 79 -20.499c14.667 -3.33301 30.834 -7.33301 48.501 -12s35.5 -10.667 53.5 -18s35.667 -16.666 53 -27.999s32.833 -25.333 46.5 -42s24.5 -36.334 32.5 -59.001s12 -49 12 -79c0 -30.667 -5.83301 -59.334 -17.5 -86.001
s-31.167 -50 -58.5 -70s-63.333 -35.833 -108 -47.5s-100 -17.5 -166 -17.5c-17.333 0 -37.833 1 -61.5 3s-49 5.33301 -76 10s-54.5 10.667 -82.5 18s-54.333 16.666 -79 27.999l52 173c31.333 -10 61.5 -17.833 90.5 -23.5s55.667 -9.83398 80 -12.501
s45.5 -4.33398 63.5 -5.00098s31.667 -1 41 -1c21.333 0 35.833 3 43.5 9s11.5 13.333 11.5 22c0 16.667 -19.333 29.334 -58 38.001c-40 10 -78 20 -114 30s-67.5 23 -94.5 39s-48.5 36.667 -64.5 62s-24 58.666 -24 99.999c0 32 5.16699 62.167 15.5 90.5
s27.833 53.166 52.5 74.499s57.167 38.166 97.5 50.499s90.166 18.5 149.499 18.5zM330.999 735.004l-65 78l189 183l101 -120z" />
    <glyph glyph-name="sacute" unicode="&#x15b;" horiz-adv-x="566" 
d="M297 512c36 0 73 -3.50586 111 -10.5059s74 -18.167 108 -33.5l-42 -138c-30 10 -59 17 -87 21s-53 6 -75 6c-10 0 -17 -1.33301 -21 -4s-6 -7 -6 -13c0 -3.33301 5.66699 -6.5 17 -9.5s25 -6.16699 41 -9.5c20 -3.33301 42 -8.16602 66 -14.499s46.333 -15.833 67 -28.5
s37.834 -29.5 51.501 -50.5s20.5 -47.833 20.5 -80.5c0 -22 -4.66699 -42.667 -14 -62s-25.166 -36.166 -47.499 -50.499s-51.833 -25.666 -88.5 -33.999s-82 -12.5 -136 -12.5c-14 0 -30.5 0.666992 -49.5 2s-39.5 3.66602 -61.5 6.99902s-44.5 7.83301 -67.5 13.5
s-44.833 12.834 -65.5 21.501l40 144c55.333 -16 98.666 -25.5 129.999 -28.5s54.333 -4.5 69 -4.5c11.333 0 20.666 0.833008 27.999 2.5s11 5.16699 11 10.5c0 4.66699 -2 8.33398 -6 11.001s-9 4.83398 -15 6.50098s-12.5 3.16699 -19.5 4.5s-13.5 2.66602 -19.5 3.99902
c-24.667 6 -48.834 12.333 -72.501 19s-44.667 15.667 -63 27s-33.166 25.833 -44.499 43.5s-17 40.834 -17 69.501c0 23.333 4.33301 45.333 13 66s23 38.834 43 54.501s46.5 28 79.5 37s73.833 13.5 122.5 13.5zM253 527.994l-73 87l190 182l104 -129z" />
    <glyph glyph-name="Scircumflex" unicode="&#x15c;" horiz-adv-x="705" 
d="M369 710c43.333 0 88.332 -4.8291 134.999 -14.4961s90.334 -24.5 131.001 -44.5l-56 -166c-17.333 6 -35.833 11.167 -55.5 15.5s-39 7.83301 -58 10.5s-37.333 4.5 -55 5.5s-33.5 1.5 -47.5 1.5c-16 0 -27.167 -2.5 -33.5 -7.5s-9.5 -12.167 -9.5 -21.5
s10.333 -17.166 31 -23.499s47 -13.166 79 -20.499c14.667 -3.33301 30.834 -7.33301 48.501 -12s35.5 -10.667 53.5 -18s35.667 -16.666 53 -27.999s32.833 -25.333 46.5 -42s24.5 -36.334 32.5 -59.001s12 -49 12 -79c0 -30.667 -5.83301 -59.334 -17.5 -86.001
s-31.167 -50 -58.5 -70s-63.333 -35.833 -108 -47.5s-100 -17.5 -166 -17.5c-17.333 0 -37.833 1 -61.5 3s-49 5.33301 -76 10s-54.5 10.667 -82.5 18s-54.333 16.666 -79 27.999l52 173c31.333 -10 61.5 -17.833 90.5 -23.5s55.667 -9.83398 80 -12.501
s45.5 -4.33398 63.5 -5.00098s31.667 -1 41 -1c21.333 0 35.833 3 43.5 9s11.5 13.333 11.5 22c0 16.667 -19.333 29.334 -58 38.001c-40 10 -78 20 -114 30s-67.5 23 -94.5 39s-48.5 36.667 -64.5 62s-24 58.666 -24 99.999c0 32 5.16699 62.167 15.5 90.5
s27.833 53.166 52.5 74.499s57.167 38.166 97.5 50.499s90.166 18.5 149.499 18.5zM554.999 730.004l-181 95l-178 -93l-51 60l159 162h142l163 -162z" />
    <glyph glyph-name="scircumflex" unicode="&#x15d;" horiz-adv-x="566" 
d="M297 512c36 0 73 -3.50586 111 -10.5059s74 -18.167 108 -33.5l-42 -138c-30 10 -59 17 -87 21s-53 6 -75 6c-10 0 -17 -1.33301 -21 -4s-6 -7 -6 -13c0 -3.33301 5.66699 -6.5 17 -9.5s25 -6.16699 41 -9.5c20 -3.33301 42 -8.16602 66 -14.499s46.333 -15.833 67 -28.5
s37.834 -29.5 51.501 -50.5s20.5 -47.833 20.5 -80.5c0 -22 -4.66699 -42.667 -14 -62s-25.166 -36.166 -47.499 -50.499s-51.833 -25.666 -88.5 -33.999s-82 -12.5 -136 -12.5c-14 0 -30.5 0.666992 -49.5 2s-39.5 3.66602 -61.5 6.99902s-44.5 7.83301 -67.5 13.5
s-44.833 12.834 -65.5 21.501l40 144c55.333 -16 98.666 -25.5 129.999 -28.5s54.333 -4.5 69 -4.5c11.333 0 20.666 0.833008 27.999 2.5s11 5.16699 11 10.5c0 4.66699 -2 8.33398 -6 11.001s-9 4.83398 -15 6.50098s-12.5 3.16699 -19.5 4.5s-13.5 2.66602 -19.5 3.99902
c-24.667 6 -48.834 12.333 -72.501 19s-44.667 15.667 -63 27s-33.166 25.833 -44.499 43.5s-17 40.834 -17 69.501c0 23.333 4.33301 45.333 13 66s23 38.834 43 54.501s46.5 28 79.5 37s73.833 13.5 122.5 13.5zM463 523.994l-181 98l-181 -96l-48 60l159 172h142
l163 -172z" />
    <glyph glyph-name="Scedilla" unicode="&#x15e;" horiz-adv-x="705" 
d="M369 710c43.333 0 88.332 -4.82812 134.999 -14.4951s90.334 -24.5 131.001 -44.5l-56 -166c-17.333 6 -35.833 11.167 -55.5 15.5s-39 7.83301 -58 10.5s-37.333 4.5 -55 5.5s-33.5 1.5 -47.5 1.5c-16 0 -27.167 -2.5 -33.5 -7.5s-9.5 -12.167 -9.5 -21.5
s10.333 -17.166 31 -23.499s47 -13.166 79 -20.499c14.667 -3.33301 30.834 -7.33301 48.501 -12s35.5 -10.667 53.5 -18s35.667 -16.666 53 -27.999s32.833 -25.333 46.5 -42s24.5 -36.334 32.5 -59.001s12 -49 12 -79c0 -27.333 -4.66699 -53.333 -14 -78
s-24.833 -46.667 -46.5 -66s-50.167 -35.5 -85.5 -48.5s-79 -21.5 -131 -25.5l-33 -47c32 -4 56.833 -14.167 74.5 -30.5s26.5 -37.166 26.5 -62.499c0 -15.333 -3.83301 -30.5 -11.5 -45.5s-20.167 -28.5 -37.5 -40.5s-40 -21.833 -68 -29.5s-62.333 -11.834 -103 -12.501
l-1 69c32.667 2.66699 56.667 8.66699 72 18s23 19.666 23 30.999c0 10 -4.66699 16.5 -14 19.5s-19.333 4.5 -30 4.5c-5.33301 0 -10 -0.166992 -14 -0.5s-7.66699 -0.5 -11 -0.5l-24 37l64 87c-18 0.666992 -38.5 2.16699 -61.5 4.5s-47.167 5.66602 -72.5 9.99902
s-51 10.166 -77 17.499s-50.667 16.333 -74 27l52 173c31.333 -10 61.5 -17.833 90.5 -23.5s55.667 -9.83398 80 -12.501s45.5 -4.33398 63.5 -5.00098s31.667 -1 41 -1c21.333 0 35.833 3 43.5 9s11.5 13.333 11.5 22c0 16.667 -19.333 29.334 -58 38.001
c-40 10 -78 20 -114 30s-67.5 23 -94.5 39s-48.5 36.667 -64.5 62s-24 58.666 -24 99.999c0 32 5.16699 62.167 15.5 90.5s27.833 53.166 52.5 74.499s57.167 38.166 97.5 50.499s90.166 18.5 149.499 18.5z" />
    <glyph glyph-name="scedilla" unicode="&#x15f;" horiz-adv-x="566" 
d="M297 512c36 0 73.002 -3.50391 111.002 -10.5039s74 -18.167 108 -33.5l-42 -138c-30 10 -59 17 -87 21s-53 6 -75 6c-10 0 -17 -1.33301 -21 -4s-6 -7 -6 -13c0 -3.33301 5.66699 -6.5 17 -9.5s25 -6.16699 41 -9.5c20 -3.33301 42 -8.16602 66 -14.499
s46.333 -15.833 67 -28.5s37.834 -29.5 51.501 -50.5s20.5 -47.833 20.5 -80.5c0 -20 -3.66699 -38.667 -11 -56s-19.333 -32.833 -36 -46.5s-38.834 -25.167 -66.501 -34.5s-61.5 -15.666 -101.5 -18.999l-30 -43c32 -4 56.833 -14.167 74.5 -30.5
s26.5 -37.166 26.5 -62.499c0 -15.333 -3.83301 -30.5 -11.5 -45.5s-20.167 -28.5 -37.5 -40.5s-40 -21.833 -68 -29.5s-62.333 -11.834 -103 -12.501l-1 69c32.667 2.66699 56.667 8.66699 72 18s23 19.666 23 30.999c0 10 -4.66699 16.5 -14 19.5s-19.333 4.5 -30 4.5
c-5.33301 0 -10 -0.166992 -14 -0.5s-7.66699 -0.5 -11 -0.5l-24 37l61 83c-14 0.666992 -30.333 1.83398 -49 3.50098s-38 4.16699 -58 7.5s-40.5 7.66602 -61.5 12.999s-40.833 12 -59.5 20l40 144c55.333 -16 98.666 -25.5 129.999 -28.5s54.333 -4.5 69 -4.5
c11.333 0 20.666 0.833008 27.999 2.5s11 5.16699 11 10.5c0 4.66699 -2 8.33398 -6 11.001s-9 4.83398 -15 6.50098s-12.5 3.16699 -19.5 4.5s-13.5 2.66602 -19.5 3.99902c-24.667 6 -48.834 12.333 -72.501 19s-44.667 15.667 -63 27s-33.166 25.833 -44.499 43.5
s-17 40.834 -17 69.501c0 23.333 4.33301 45.333 13 66s23 38.834 43 54.501s46.5 28 79.5 37s73.833 13.5 122.5 13.5z" />
    <glyph glyph-name="Scaron" unicode="&#x160;" horiz-adv-x="705" 
d="M369 710c43.333 0 88.332 -4.8291 134.999 -14.4961s90.334 -24.5 131.001 -44.5l-56 -166c-17.333 6 -35.833 11.167 -55.5 15.5s-39 7.83301 -58 10.5s-37.333 4.5 -55 5.5s-33.5 1.5 -47.5 1.5c-16 0 -27.167 -2.5 -33.5 -7.5s-9.5 -12.167 -9.5 -21.5
s10.333 -17.166 31 -23.499s47 -13.166 79 -20.499c14.667 -3.33301 30.834 -7.33301 48.501 -12s35.5 -10.667 53.5 -18s35.667 -16.666 53 -27.999s32.833 -25.333 46.5 -42s24.5 -36.334 32.5 -59.001s12 -49 12 -79c0 -30.667 -5.83301 -59.334 -17.5 -86.001
s-31.167 -50 -58.5 -70s-63.333 -35.833 -108 -47.5s-100 -17.5 -166 -17.5c-17.333 0 -37.833 1 -61.5 3s-49 5.33301 -76 10s-54.5 10.667 -82.5 18s-54.333 16.666 -79 27.999l52 173c31.333 -10 61.5 -17.833 90.5 -23.5s55.667 -9.83398 80 -12.501
s45.5 -4.33398 63.5 -5.00098s31.667 -1 41 -1c21.333 0 35.833 3 43.5 9s11.5 13.333 11.5 22c0 16.667 -19.333 29.334 -58 38.001c-40 10 -78 20 -114 30s-67.5 23 -94.5 39s-48.5 36.667 -64.5 62s-24 58.666 -24 99.999c0 32 5.16699 62.167 15.5 90.5
s27.833 53.166 52.5 74.499s57.167 38.166 97.5 50.499s90.166 18.5 149.499 18.5zM584.999 911.004l-163 -162h-142l-159 162l51 60l178 -95l181 97z" />
    <glyph glyph-name="scaron" unicode="&#x161;" horiz-adv-x="566" 
d="M297 512c36 0 73 -3.50586 111 -10.5059s74 -18.167 108 -33.5l-42 -138c-30 10 -59 17 -87 21s-53 6 -75 6c-10 0 -17 -1.33301 -21 -4s-6 -7 -6 -13c0 -3.33301 5.66699 -6.5 17 -9.5s25 -6.16699 41 -9.5c20 -3.33301 42 -8.16602 66 -14.499s46.333 -15.833 67 -28.5
s37.834 -29.5 51.501 -50.5s20.5 -47.833 20.5 -80.5c0 -22 -4.66699 -42.667 -14 -62s-25.166 -36.166 -47.499 -50.499s-51.833 -25.666 -88.5 -33.999s-82 -12.5 -136 -12.5c-14 0 -30.5 0.666992 -49.5 2s-39.5 3.66602 -61.5 6.99902s-44.5 7.83301 -67.5 13.5
s-44.833 12.834 -65.5 21.501l40 144c55.333 -16 98.666 -25.5 129.999 -28.5s54.333 -4.5 69 -4.5c11.333 0 20.666 0.833008 27.999 2.5s11 5.16699 11 10.5c0 4.66699 -2 8.33398 -6 11.001s-9 4.83398 -15 6.50098s-12.5 3.16699 -19.5 4.5s-13.5 2.66602 -19.5 3.99902
c-24.667 6 -48.834 12.333 -72.501 19s-44.667 15.667 -63 27s-33.166 25.833 -44.499 43.5s-17 40.834 -17 69.501c0 23.333 4.33301 45.333 13 66s23 38.834 43 54.501s46.5 28 79.5 37s73.833 13.5 122.5 13.5zM516 720.994l-163 -172h-142l-159 172l48 60l181 -96
l181 98z" />
    <glyph glyph-name="Tcommaaccent" unicode="&#x162;" horiz-adv-x="689" 
d="M219 0v520h-214v173h679v-173h-215v-520h-250zM253 -127c0 23.333 9.16699 43.332 27.5 59.999s43.166 25 74.499 25c18.667 0 34.334 -3.16699 47.001 -9.5s23 -14.5 31 -24.5s13.833 -21.333 17.5 -34s5.5 -25.334 5.5 -38.001c0 -21.333 -4.5 -42.166 -13.5 -62.499
s-20.667 -39.5 -35 -57.5s-30.5 -34.167 -48.5 -48.5s-36.333 -25.833 -55 -34.5l-51 63c18 13.333 32.5 26.333 43.5 39s17.833 28.334 20.5 47.001c-22.667 3.33301 -39 11.5 -49 24.5s-15 29.833 -15 50.5z" />
    <glyph glyph-name="tcommaaccent" unicode="&#x163;" horiz-adv-x="484" 
d="M313 652v-154h134v-150h-134v-113c0 -15.333 1.16699 -27.666 3.5 -36.999s6 -16.333 11 -21s11.5 -7.66699 19.5 -9s17.667 -2 29 -2c4.66699 0 14 0.666992 28 2s29.333 3.33301 46 6l26 -157c-13.333 -5.33301 -27.5 -9.83301 -42.5 -13.5s-30 -6.83398 -45 -9.50098
s-29.667 -4.5 -44 -5.5s-26.833 -1.5 -37.5 -1.5c-54.667 0 -97.667 6.33301 -129 19s-54.833 28.5 -70.5 47.5s-25.5 39.5 -29.5 61.5s-6 42.333 -6 61v172h-66v133l84 25l26 67l25 67zM153 -127c0 23.333 9.16699 43.332 27.5 59.999s43.166 25 74.499 25
c18.667 0 34.334 -3.16699 47.001 -9.5s23 -14.5 31 -24.5s13.833 -21.333 17.5 -34s5.5 -25.334 5.5 -38.001c0 -21.333 -4.5 -42.166 -13.5 -62.499s-20.667 -39.5 -35 -57.5s-30.5 -34.167 -48.5 -48.5s-36.333 -25.833 -55 -34.5l-51 63c18 13.333 32.5 26.333 43.5 39
s17.833 28.334 20.5 47.001c-22.667 3.33301 -39 11.5 -49 24.5s-15 29.833 -15 50.5z" />
    <glyph glyph-name="Tcaron" unicode="&#x164;" horiz-adv-x="689" 
d="M219 0v520h-214v173h679v-173h-215v-520h-250zM575 899l-163 -162h-142l-159 162l51 60l178 -95l181 97z" />
    <glyph glyph-name="tcaron" unicode="&#x165;" horiz-adv-x="671" 
d="M451 710c0 23.333 9.16699 43.332 27.5 59.999s43.166 25 74.499 25c18.667 0 34.334 -3.16699 47.001 -9.5s23 -14.5 31 -24.5s13.833 -21.333 17.5 -34s5.5 -25.334 5.5 -38.001c0 -21.333 -4.5 -42.166 -13.5 -62.499s-20.667 -39.5 -35 -57.5
s-30.5 -34.167 -48.5 -48.5s-36.333 -25.833 -55 -34.5l-51 63c18 13.333 32.5 26.333 43.5 39s17.833 28.334 20.5 47.001c-22.667 3.33301 -39 11.5 -49 24.5s-15 29.833 -15 50.5zM313 651.999v-154h134v-150h-134v-113c0 -15.333 1.16699 -27.666 3.5 -36.999
s6 -16.333 11 -21s11.5 -7.66699 19.5 -9s17.667 -2 29 -2c4.66699 0 14 0.666992 28 2s29.333 3.33301 46 6l26 -157c-13.333 -5.33301 -27.5 -9.83301 -42.5 -13.5s-30 -6.83398 -45 -9.50098s-29.667 -4.5 -44 -5.5s-26.833 -1.5 -37.5 -1.5
c-54.667 0 -97.667 6.33301 -129 19s-54.833 28.5 -70.5 47.5s-25.5 39.5 -29.5 61.5s-6 42.333 -6 61v172h-66v133l84 25l26 67l25 67z" />
    <glyph glyph-name="Tbar" unicode="&#x166;" horiz-adv-x="689" 
d="M219 0v275h-112v92h112v153h-214v173h679v-173h-215v-153h111v-92h-111v-275h-250z" />
    <glyph glyph-name="tbar" unicode="&#x167;" horiz-adv-x="509" 
d="M312 651l0.000976562 -156.005h136v-142h-136v-42h122v-87h-122c0 -15.333 1.5 -27.333 4.5 -36s7.16699 -15.167 12.5 -19.5s12.333 -7.16602 21 -8.49902s19 -2 31 -2c5.33301 0 14.833 0.666992 28.5 2s27.834 3 42.501 5l24 -149
c-12.667 -5.33301 -26.334 -9.66602 -41.001 -12.999s-29.334 -6.33301 -44.001 -9s-29 -4.5 -43 -5.5s-26.333 -1.5 -37 -1.5c-54 0 -96.5 6.33301 -127.5 19s-54.333 28.334 -70 47.001s-25.5 38.834 -29.5 60.501s-6 41.834 -6 60.501v50h-57v87h57v42h-67v126l84 25
l52 135z" />
    <glyph glyph-name="Utilde" unicode="&#x168;" horiz-adv-x="781" 
d="M720 266c0 -90 -25.668 -158.668 -77.001 -206.001s-134.666 -71 -249.999 -71c-61.333 0 -113 6.33301 -155 19s-76.333 30.834 -103 54.501s-45.834 52.667 -57.501 87s-17.5 73.166 -17.5 116.499v427h247v-441c0 -34 7.16699 -57.667 21.5 -71s36.5 -20 66.5 -20
c10 0 20 1.33301 30 4s18.833 7.33398 26.5 14.001s13.834 16 18.501 28s7 27 7 45l-1 441h245zM498.999 748.999c-20 0 -40.334 2.00098 -61.001 6.00098s-40.834 8.33301 -60.501 13l-55 13c-17 4 -31.5 6 -43.5 6l-54 -39l-62 48
c16.667 46.667 35.834 78.334 57.501 95.001s45.5 25 71.5 25c18 0 36.333 -1.83301 55 -5.5s37.334 -7.83398 56.001 -12.501s37 -8.83398 55 -12.501s35.333 -5.5 52 -5.5l55 41l60 -48c-14 -42.667 -31 -74 -51 -94s-45 -30 -75 -30z" />
    <glyph glyph-name="utilde" unicode="&#x169;" horiz-adv-x="647" 
d="M373 54c-13.333 -11.333 -27.667 -20.9971 -43 -28.9971s-30.833 -14.833 -46.5 -20.5s-30.834 -9.83398 -45.501 -12.501s-27.667 -4 -39 -4c-31.333 0 -57.333 4 -78 12s-37.167 19.833 -49.5 35.5s-21.166 35.167 -26.499 58.5s-8 50.333 -8 81v323h245v-274
c0 -19.333 2.33301 -32.833 7 -40.5s15 -11.5 31 -11.5c6 0 12.667 1.16699 20 3.5s15.333 7.16602 24 14.499v308h246c1.33301 -82.667 1.5 -165.334 0.5 -248.001s-1.16699 -166 -0.5 -250h-221l-7 52zM427.999 559.003c-20 0 -40.334 2.00098 -61.001 6.00098
s-40.834 8.33301 -60.501 13l-55 13c-17 4 -31.5 6 -43.5 6l-54 -39l-62 48c16.667 46.667 35.834 78.334 57.501 95.001s45.5 25 71.5 25c18 0 36.333 -1.83301 55 -5.5s37.334 -7.83398 56.001 -12.501s37 -8.83398 55 -12.501s35.333 -5.5 52 -5.5l55 41l60 -48
c-14 -42.667 -31 -74 -51 -94s-45 -30 -75 -30z" />
    <glyph glyph-name="Umacron" unicode="&#x16a;" horiz-adv-x="781" 
d="M720 266c0 -90 -25.668 -158.668 -77.001 -206.001s-134.666 -71 -249.999 -71c-61.333 0 -113 6.33301 -155 19s-76.333 30.834 -103 54.501s-45.834 52.667 -57.501 87s-17.5 73.166 -17.5 116.499v427h247v-441c0 -34 7.16699 -57.667 21.5 -71s36.5 -20 66.5 -20
c10 0 20 1.33301 30 4s18.833 7.33398 26.5 14.001s13.834 16 18.501 28s7 27 7 45l-1 441h245zM190.999 884.999h400v-136h-400v136z" />
    <glyph glyph-name="umacron" unicode="&#x16b;" horiz-adv-x="647" 
d="M373 54c-13.333 -11.333 -27.667 -20.9971 -43 -28.9971s-30.833 -14.833 -46.5 -20.5s-30.834 -9.83398 -45.501 -12.501s-27.667 -4 -39 -4c-31.333 0 -57.333 4 -78 12s-37.167 19.833 -49.5 35.5s-21.166 35.167 -26.499 58.5s-8 50.333 -8 81v323h245v-274
c0 -19.333 2.33301 -32.833 7 -40.5s15 -11.5 31 -11.5c6 0 12.667 1.16699 20 3.5s15.333 7.16602 24 14.499v308h246c1.33301 -82.667 1.5 -165.334 0.5 -248.001s-1.16699 -166 -0.5 -250h-221l-7 52zM117.999 704.003h420v-136h-420v136z" />
    <glyph glyph-name="Ubreve" unicode="&#x16c;" horiz-adv-x="781" 
d="M720 266c0 -90 -25.668 -158.668 -77.001 -206.001s-134.666 -71 -249.999 -71c-61.333 0 -113 6.33301 -155 19s-76.333 30.834 -103 54.501s-45.834 52.667 -57.501 87s-17.5 73.166 -17.5 116.499v427h247v-441c0 -34 7.16699 -57.667 21.5 -71s36.5 -20 66.5 -20
c10 0 20 1.33301 30 4s18.833 7.33398 26.5 14.001s13.834 16 18.501 28s7 27 7 45l-1 441h245zM386.999 734.999c-22.667 0 -44.6709 4.3291 -66.0039 12.9961s-41.5 20.5 -60.5 35.5s-36.833 32.5 -53.5 52.5s-31.667 41.333 -45 64l84 63
c12.667 -17.333 25.834 -31.666 39.501 -42.999s26.834 -20.5 39.501 -27.5s24.667 -12 36 -15s21.333 -4.5 30 -4.5h22c8.66699 0 19.667 2.33301 33 7s29 12.834 47 24.501s39.667 29.167 65 52.5l69 -63c-18 -30 -37.333 -55.167 -58 -75.5s-41.667 -36.666 -63 -48.999
s-42.166 -21.166 -62.499 -26.499s-39.166 -8 -56.499 -8z" />
    <glyph glyph-name="ubreve" unicode="&#x16d;" horiz-adv-x="647" 
d="M373 54c-13.333 -11.333 -27.667 -20.9971 -43 -28.9971s-30.833 -14.833 -46.5 -20.5s-30.834 -9.83398 -45.501 -12.501s-27.667 -4 -39 -4c-31.333 0 -57.333 4 -78 12s-37.167 19.833 -49.5 35.5s-21.166 35.167 -26.499 58.5s-8 50.333 -8 81v323h245v-274
c0 -19.333 2.33301 -32.833 7 -40.5s15 -11.5 31 -11.5c6 0 12.667 1.16699 20 3.5s15.333 7.16602 24 14.499v308h246c1.33301 -82.667 1.5 -165.334 0.5 -248.001s-1.16699 -166 -0.5 -250h-221l-7 52zM320.999 541.003c-22.667 0 -44.6709 4.3291 -66.0039 12.9961
s-41.5 20.5 -60.5 35.5s-36.833 32.5 -53.5 52.5s-31.667 41.333 -45 64l84 63c12.667 -17.333 25.834 -31.666 39.501 -42.999s26.834 -20.5 39.501 -27.5s24.667 -12 36 -15s21.333 -4.5 30 -4.5h22c8.66699 0 19.667 2.33301 33 7s29 12.834 47 24.501
s39.667 29.167 65 52.5l69 -63c-18 -30 -37.333 -55.167 -58 -75.5s-41.667 -36.666 -63 -48.999s-42.166 -21.166 -62.499 -26.499s-39.166 -8 -56.499 -8z" />
    <glyph glyph-name="Uring" unicode="&#x16e;" horiz-adv-x="781" 
d="M720 266c0 -90 -25.668 -158.668 -77.001 -206.001s-134.666 -71 -249.999 -71c-61.333 0 -113 6.33301 -155 19s-76.333 30.834 -103 54.501s-45.834 52.667 -57.501 87s-17.5 73.166 -17.5 116.499v427h247v-441c0 -34 7.16699 -57.667 21.5 -71s36.5 -20 66.5 -20
c10 0 20 1.33301 30 4s18.833 7.33398 26.5 14.001s13.834 16 18.501 28s7 27 7 45l-1 441h245zM392.999 715.999c-21.333 0 -41 3.83203 -59 11.499s-33.833 18 -47.5 31s-24.334 28.167 -32.001 45.5s-11.5 36 -11.5 56c0 19.333 3.83301 37.833 11.5 55.5
s18.334 33.167 32.001 46.5s29.5 23.833 47.5 31.5s37.667 11.5 59 11.5s41 -3.83301 59 -11.5s33.333 -18.167 46 -31.5s22.5 -28.666 29.5 -45.999s10.5 -36 10.5 -56s-3.83301 -38.833 -11.5 -56.5s-18 -33 -31 -46s-28.333 -23.167 -46 -30.5s-36.5 -11 -56.5 -11z
M392.999 907.998c-14.667 0 -26.834 -5.16699 -36.501 -15.5s-14.5 -22.166 -14.5 -35.499c0 -11.333 4.33301 -22.166 13 -32.499s21.334 -15.5 38.001 -15.5c14.667 0 26 5.16699 34 15.5s12 21.166 12 32.499c0 13.333 -3.83301 25.166 -11.5 35.499
s-19.167 15.5 -34.5 15.5z" />
    <glyph glyph-name="uring" unicode="&#x16f;" horiz-adv-x="647" 
d="M373 54c-13.333 -11.333 -27.667 -20.9971 -43 -28.9971s-30.833 -14.833 -46.5 -20.5s-30.834 -9.83398 -45.501 -12.501s-27.667 -4 -39 -4c-31.333 0 -57.333 4 -78 12s-37.167 19.833 -49.5 35.5s-21.166 35.167 -26.499 58.5s-8 50.333 -8 81v323h245v-274
c0 -19.333 2.33301 -32.833 7 -40.5s15 -11.5 31 -11.5c6 0 12.667 1.16699 20 3.5s15.333 7.16602 24 14.499v308h246c1.33301 -82.667 1.5 -165.334 0.5 -248.001s-1.16699 -166 -0.5 -250h-221l-7 52zM330.999 543.003c-21.333 0 -41 3.83203 -59 11.499
s-33.833 18 -47.5 31s-24.334 28.167 -32.001 45.5s-11.5 36 -11.5 56c0 19.333 3.83301 37.833 11.5 55.5s18.334 33.167 32.001 46.5s29.5 23.833 47.5 31.5s37.667 11.5 59 11.5s41 -3.83301 59 -11.5s33.333 -18.167 46 -31.5s22.5 -28.666 29.5 -45.999
s10.5 -36 10.5 -56s-3.83301 -38.833 -11.5 -56.5s-18 -33 -31 -46s-28.333 -23.167 -46 -30.5s-36.5 -11 -56.5 -11zM330.999 735.002c-14.667 0 -26.834 -5.16699 -36.501 -15.5s-14.5 -22.166 -14.5 -35.499c0 -11.333 4.33301 -22.166 13 -32.499
s21.334 -15.5 38.001 -15.5c14.667 0 26 5.16699 34 15.5s12 21.166 12 32.499c0 13.333 -3.83301 25.166 -11.5 35.499s-19.167 15.5 -34.5 15.5z" />
    <glyph glyph-name="Uhungarumlaut" unicode="&#x170;" horiz-adv-x="781" 
d="M720 266c0 -90 -25.668 -158.668 -77.001 -206.001s-134.666 -71 -249.999 -71c-61.333 0 -113 6.33301 -155 19s-76.333 30.834 -103 54.501s-45.834 52.667 -57.501 87s-17.5 73.166 -17.5 116.499v427h247v-441c0 -34 7.16699 -57.667 21.5 -71s36.5 -20 66.5 -20
c10 0 20 1.33301 30 4s18.833 7.33398 26.5 14.001s13.834 16 18.501 28s7 27 7 45l-1 441h245zM286.999 748.999l-78 64l150 216l122 -98zM497.999 748.999l-78 64l150 216l122 -98z" />
    <glyph glyph-name="uhungarumlaut" unicode="&#x171;" horiz-adv-x="647" 
d="M373 54c-13.333 -11.333 -27.667 -20.9971 -43 -28.9971s-30.833 -14.833 -46.5 -20.5s-30.834 -9.83398 -45.501 -12.501s-27.667 -4 -39 -4c-31.333 0 -57.333 4 -78 12s-37.167 19.833 -49.5 35.5s-21.166 35.167 -26.499 58.5s-8 50.333 -8 81v323h245v-274
c0 -19.333 2.33301 -32.833 7 -40.5s15 -11.5 31 -11.5c6 0 12.667 1.16699 20 3.5s15.333 7.16602 24 14.499v308h246c1.33301 -82.667 1.5 -165.334 0.5 -248.001s-1.16699 -166 -0.5 -250h-221l-7 52zM203.999 525.003l-78 64l150 216l122 -98zM414.999 525.003l-78 64
l150 216l122 -98z" />
    <glyph glyph-name="Uogonek" unicode="&#x172;" horiz-adv-x="781" 
d="M720 266c0 -88 -24.502 -155.671 -73.502 -203.004s-128.5 -72 -238.5 -74c-9.33301 -20 -15.666 -39.667 -18.999 -59s-5 -36 -5 -50c0 -11.333 3.16699 -20.666 9.5 -27.999s17.166 -11 32.499 -11c14.667 0 26.5 1.16699 35.5 3.5l35.5 9.5l20 -69
c-23.333 -13.333 -47.333 -23.166 -72 -29.499s-48 -9.5 -70 -9.5c-42 0 -73.5 8.83301 -94.5 26.5s-31.5 41.834 -31.5 72.501c0 18 4.5 40 13.5 66s26.5 53.333 52.5 82c-46.667 4.66699 -86.167 14.334 -118.5 29.001s-58.666 33.667 -78.999 57s-35 50.666 -44 81.999
s-13.5 66.333 -13.5 105v427h247v-441c0 -34 7.16699 -57.667 21.5 -71s36.5 -20 66.5 -20c10 0 20 1.33301 30 4s18.833 7.33398 26.5 14.001s13.834 16 18.501 28s7 27 7 45l-1 441h245z" />
    </font>
</defs>
</svg>
