<?xml version="1.0" standalone="no"?>
<!DOCTYPE svg PUBLIC "-//W3C//DTD SVG 1.1//EN" "http://www.w3.org/Graphics/SVG/1.1/DTD/svg11.dtd" >
<svg>
<metadata>
Created by FontForge 20090914 at Thu Aug 14 10:58:01 2014
 By www-data
Copyright (c) 2006 Parachute&#194;&#168;, www.parachute.gr.  All rights reserved.
</metadata>
<defs>
<font id="PFAgoraSansPro-XThinItalic" horiz-adv-x="1818" >
  <font-face 
    font-family="PF Agora Sans Pro XThin"
    font-weight="100"
    font-style="italic"
    font-stretch="normal"
    units-per-em="1000"
    panose-1="2 0 5 6 0 0 0 9 0 4"
    ascent="750"
    descent="-250"
    x-height="486"
    cap-height="682"
    bbox="-222.997 -240.994 1760 913.002"
    underline-thickness="50"
    underline-position="-50"
    unicode-range="U+0020-U+FB05"
  />
<missing-glyph horiz-adv-x="428" 
d="M0 683h428v-683h-428v683zM408 26v635l-179 -319zM20 28l179 314l-179 314v-628zM384 663h-340l170 -303zM384 20l-170 303l-170 -303h340z" />
    <glyph glyph-name="fj" unicode="fj" horiz-adv-x="460" 
d="M400 465l-248 0.000976562l-44 -401c-4 -38.667 -9 -75 -15 -109s-15 -63.833 -27 -89.5s-28.167 -45.834 -48.5 -60.501s-46.833 -22 -79.5 -22c-8.66699 0 -19.167 0.666992 -31.5 2s-24.833 3.66602 -37.5 6.99902l5 19c12 -2 23.333 -3.66699 34 -5
s20.334 -2 29.001 -2c19.333 0 36.5 3 51.5 9s28.167 16.5 39.5 31.5s20.833 35 28.5 60s13.834 56.5 18.501 94.5c4 28.667 7.66699 57.167 11 85.5l11 95l13.5 121l18.5 164.5h-67l2 16l69 8l11 89c4 28.667 11 52.167 21 70.5s22.333 32.833 37 43.5s31.5 18 50.5 22
s39.5 6 61.5 6c20 0 40.167 -1.16699 60.5 -3.5s38.833 -5.16602 55.5 -8.49902l-4 -21c-17.333 3.33301 -35.666 6 -54.999 8s-37.333 3 -54 3c-24.667 0 -45.834 -2 -63.501 -6s-32.667 -11 -45 -21s-22 -23.667 -29 -41s-12.167 -39.333 -15.5 -66l-10 -78h112h28.5
c11.667 0 24.5 0.166992 38.5 0.5s28.5 1 43.5 2s29.5 2.83301 43.5 5.5l7 -4l-54 -499c-3.33301 -26 -7.5 -49.167 -12.5 -69.5s-12.833 -38.5 -23.5 -54.5s-25.167 -30 -43.5 -42s-42.5 -22.667 -72.5 -32l-7 20c26.667 8 48.167 17.5 64.5 28.5s29.166 23.5 38.499 37.5
s16.166 29.333 20.499 46s7.83301 35 10.5 55z" />
    <glyph glyph-name="ffj" unicode="ffj" horiz-adv-x="732" 
d="M423 594c2.66699 18 6 33.167 10 45.5s8.66699 23.166 14 32.499c-19.333 6 -39.833 10.333 -61.5 13s-38.167 4 -49.5 4c-30.667 0 -56.334 -2.83301 -77.001 -8.5s-37.5 -14.667 -50.5 -27s-23.167 -28.166 -30.5 -47.499s-12.666 -42.333 -15.999 -69l-6 -51h254z
M432 466c-6 -56 -11.3311 -103.329 -15.998 -141.996s-8.5 -72 -11.5 -100s-5.83301 -52.333 -8.5 -73s-5 -41.334 -7 -62.001c-4 -38.667 -9 -75 -15 -109s-15 -63.833 -27 -89.5s-28.167 -45.834 -48.5 -60.501s-46.833 -22 -79.5 -22
c-8.66699 0 -19.167 0.666992 -31.5 2s-24.833 3.66602 -37.5 6.99902l6 19c12 -2 23.167 -3.66699 33.5 -5s19.833 -2 28.5 -2c19.333 0 36.666 3 51.999 9s28.666 16.5 39.999 31.5s20.833 35 28.5 60s13.834 56.5 18.501 94.5l53 442h-256l-15.5 -146
c-4.33301 -41.333 -8.33301 -77.5 -12 -108.5l-10 -81.5c-3 -23.333 -5.5 -45.333 -7.5 -66c-4 -38.667 -9 -75 -15 -109s-15 -63.833 -27 -89.5s-28.167 -45.834 -48.5 -60.501s-46.833 -22 -79.5 -22c-8.66699 0 -19.167 0.666992 -31.5 2s-24.833 3.66602 -37.5 6.99902
l5 18c12 -2 23.167 -3.66699 33.5 -5s19.833 -2 28.5 -2c19.333 0 36.666 3.16699 51.999 9.5s28.666 17 39.999 32s21 35 29 60s14.333 56.5 19 94.5c3.33301 28.667 6.83301 57.167 10.5 85.5s7.5 60.166 11.5 95.499l14 121.5c5.33301 45.667 11.333 100.5 18 164.5h-65
l1 13l67 9l9 70c3.33301 28.667 10.666 52.834 21.999 72.501s25.333 35.5 42 47.5s35.834 20.667 57.501 26s44.5 8 68.5 8c18.667 0 39.834 -1.33301 63.501 -4s46.167 -7.66699 67.5 -15c12.667 14 30.5 24.667 53.5 32s48.5 11 76.5 11c20 0 39.167 -1 57.5 -3
s35.833 -4.66699 52.5 -8l-4 -21c-17.333 3.33301 -34.666 5.83301 -51.999 7.5s-34.333 2.5 -51 2.5c-24 0 -44.833 -2.16699 -62.5 -6.5s-32.667 -11.666 -45 -21.999s-22.166 -24 -29.499 -41s-12.333 -38.5 -15 -64.5l-11 -93h109h28.5c11.667 0 24.5 0.166992 38.5 0.5
s28.5 1 43.5 2s29.5 2.83301 43.5 5.5l7 -4l-56 -474c-3.33301 -26 -7.5 -49.167 -12.5 -69.5s-12.833 -38.5 -23.5 -54.5s-25.167 -30 -43.5 -42s-42.5 -22.667 -72.5 -32l-7 20c26.667 8 48.167 17.5 64.5 28.5s29.166 23.5 38.499 37.5s16.166 29.333 20.499 46
s7.83301 35 10.5 55l53 460h-244z" />
    <glyph glyph-name="ff" unicode="ff" horiz-adv-x="558" 
d="M154 466l-15.4951 -145.995c-4.33301 -41.333 -8.33301 -77.5 -12 -108.5l-10 -81.5c-3 -23.333 -5.5 -45.333 -7.5 -66c-4 -38.667 -9 -75 -15 -109s-15 -63.833 -27 -89.5s-28.167 -45.834 -48.5 -60.501s-46.833 -22 -79.5 -22c-8.66699 0 -19.167 0.666992 -31.5 2
s-24.833 3.66602 -37.5 6.99902l5 18c12 -2 23.167 -3.66699 33.5 -5s19.833 -2 28.5 -2c19.333 0 36.666 3.16699 51.999 9.5s28.666 17 39.999 32s21 35 29 60s14.333 56.5 19 94.5c3.33301 28.667 6.83301 57.167 10.5 85.5s7.5 60.166 11.5 95.499l14 121.5
c5.33301 45.667 11.333 100.5 18 164.5h-65l1 13l67 9l9 70c3.33301 28.667 10.666 52.834 21.999 72.501s25.333 35.5 42 47.5s35.834 20.667 57.501 26s44.5 8 68.5 8c18.667 0 38.167 -1.33301 58.5 -4s41.166 -7.66699 62.499 -15c12.667 14 28 24.167 46 30.5
s38.667 9.5 62 9.5c22.667 0 45.334 -2.33301 68.001 -7l-6 -20l-31.5 4c-11 1.33301 -21.167 2 -30.5 2c-38 0 -66.833 -8.16699 -86.5 -24.5s-31.834 -44.5 -36.501 -84.5l-15 -117h143l-2 -20h-143c-6 -56 -11.333 -103.333 -16 -142s-8.5 -72 -11.5 -100
s-5.83301 -52.333 -8.5 -73s-5 -41.334 -7 -62.001c-4 -38.667 -9 -75 -15 -109s-15 -63.833 -27 -89.5s-28.167 -45.834 -48.5 -60.501s-46.833 -22 -79.5 -22c-8.66699 0 -19.167 0.666992 -31.5 2s-24.833 3.66602 -37.5 6.99902l5 18c12 -2 23.167 -3.66699 33.5 -5
s19.833 -2 28.5 -2c19.333 0 36.666 3.16699 51.999 9.5s28.666 17 39.999 32s21 35 29 60s14.333 56.5 19 94.5l53 442h-246zM416.005 600.005c4 28.667 10.998 52.666 20.998 71.999c-19.333 6 -38.166 10.333 -56.499 13s-33.166 4 -44.499 4
c-30.667 0 -56.334 -2.83301 -77.001 -8.5s-37.5 -14.667 -50.5 -27s-23.167 -28.166 -30.5 -47.499s-12.666 -42.333 -15.999 -69l-6 -51h246z" />
    <glyph glyph-name="fi" unicode="fi" horiz-adv-x="460" 
d="M348 0l55.998 465.001h-252l-44 -401c-4 -38.667 -9 -75 -15 -109s-15 -63.833 -27 -89.5s-28.167 -45.834 -48.5 -60.501s-46.833 -22 -79.5 -22c-8.66699 0 -19.167 0.666992 -31.5 2s-24.833 3.66602 -37.5 6.99902l5 19c12 -2 23.333 -3.66699 34 -5
s20.334 -2 29.001 -2c19.333 0 36.5 3 51.5 9s28.167 16.5 39.5 31.5s20.833 35 28.5 60s13.834 56.5 18.501 94.5c4 28.667 7.66699 57.167 11 85.5l11 95l13.5 121l18.5 164.5h-67l2 16l69 8l11 89c4 28.667 11 52.167 21 70.5s22.333 32.833 37 43.5s31.5 18 50.5 22
s39.5 6 61.5 6c20 0 40.167 -1.16699 60.5 -3.5s38.833 -5.16602 55.5 -8.49902l-4 -21c-17.333 3.33301 -35.666 6 -54.999 8s-37.333 3 -54 3c-24.667 0 -45.834 -2 -63.501 -6s-32.667 -11 -45 -21s-22 -23.667 -29 -41s-12.167 -39.333 -15.5 -66l-10 -78h117h28.5
c11.667 0 24.5 0.166992 38.5 0.5s28.5 1 43.5 2s29.5 2.83301 43.5 5.5l7 -4c-5.33301 -37.333 -13 -98.333 -23 -183l-37 -307h-24z" />
    <glyph glyph-name="fl" unicode="fl" horiz-adv-x="460" 
d="M374 24l65.0029 2l2 -16c-11.333 -4.66699 -22.5 -8 -33.5 -10s-20.5 -3 -28.5 -3c-19.333 0 -29 7 -29 21v7c0 2.66699 0.333008 5.66699 1 9l81 653c-17.333 3.33301 -36.333 5.83301 -57 7.5s-39.334 2.5 -56.001 2.5c-24.667 0 -45.834 -1.83301 -63.501 -5.5
s-32.667 -10.5 -45 -20.5s-22 -23.667 -29 -41s-12.167 -39.333 -15.5 -66l-10 -78h157l-3 -21h-156l-48 -417c-4.66699 -38 -9.66699 -73.333 -15 -106s-13.833 -60.834 -25.5 -84.501s-27.334 -42.167 -47.001 -55.5s-45.834 -20 -78.501 -20
c-8.66699 0 -19.167 0.666992 -31.5 2s-24.833 3.66602 -37.5 6.99902l5 19c12 -2 23.333 -3.66699 34 -5s20.334 -2 29.001 -2c19.333 0 36.5 3 51.5 9s28.167 16.5 39.5 31.5s20.833 35 28.5 60s13.834 56.5 18.501 94.5c4 28.667 7.66699 57.167 11 85.5l11 95
l13.5 121.5l18.5 165h-67l2 16l68 8l11 89c4 30.667 11.5 55.334 22.5 74.001s24.333 33 40 43s33 16.667 52 20s38.5 5 58.5 5c19.333 0 39.666 -1.16699 60.999 -3.5s40.333 -5.16602 57 -8.49902l23 6z" />
    <glyph glyph-name="ffi" unicode="ffi" horiz-adv-x="732" 
d="M597 714c-24 0 -44.833 -2.16309 -62.5 -6.49609s-32.667 -11.666 -45 -21.999s-22.166 -24 -29.499 -41s-12.333 -38.5 -15 -64.5l-11 -93h109h28.5c11.667 0 24.5 0.166992 38.5 0.5s28.5 1 43.5 2s29.5 2.83301 43.5 5.5l7 -4c-5.33301 -37.333 -13 -98.333 -23 -183
l-37 -307h-24l56 465h-244c-6 -56 -11.333 -103.333 -16 -142s-8.5 -72 -11.5 -100s-5.83301 -52.333 -8.5 -73s-5 -41.334 -7 -62.001c-4 -38.667 -9 -75 -15 -109s-15 -63.833 -27 -89.5s-28.167 -45.834 -48.5 -60.501s-46.833 -22 -79.5 -22
c-8.66699 0 -19.167 0.666992 -31.5 2s-24.833 3.66602 -37.5 6.99902l6 19c12 -2 23.167 -3.66699 33.5 -5s19.833 -2 28.5 -2c19.333 0 36.666 3 51.999 9s28.666 16.5 39.999 31.5s20.833 35 28.5 60s13.834 56.5 18.501 94.5l53 442h-256l-15.5 -146
c-4.33301 -41.333 -8.33301 -77.5 -12 -108.5l-10 -81.5c-3 -23.333 -5.5 -45.333 -7.5 -66c-4 -38.667 -9 -75 -15 -109s-15 -63.833 -27 -89.5s-28.167 -45.834 -48.5 -60.501s-46.833 -22 -79.5 -22c-8.66699 0 -19.167 0.666992 -31.5 2s-24.833 3.66602 -37.5 6.99902
l5 18c12 -2 23.167 -3.66699 33.5 -5s19.833 -2 28.5 -2c19.333 0 36.666 3.16699 51.999 9.5s28.666 17 39.999 32s21 35 29 60s14.333 56.5 19 94.5c3.33301 28.667 6.83301 57.167 10.5 85.5s7.5 60.166 11.5 95.499l14 121.5c5.33301 45.667 11.333 100.5 18 164.5h-65
l1 13l67 9l9 70c3.33301 28.667 10.666 52.834 21.999 72.501s25.333 35.5 42 47.5s35.834 20.667 57.501 26s44.5 8 68.5 8c18.667 0 39.834 -1.33301 63.501 -4s46.167 -7.66699 67.5 -15c12.667 14 30.5 24.667 53.5 32s48.5 11 76.5 11c20 0 39.167 -1 57.5 -3
s35.833 -4.66699 52.5 -8l-4 -21c-17.333 3.33301 -34.666 5.83301 -51.999 7.5s-34.333 2.5 -51 2.5zM423 594.004c2.66699 18 6 33.167 10 45.5s8.66699 23.166 14 32.499c-19.333 6 -39.833 10.333 -61.5 13s-38.167 4 -49.5 4c-30.667 0 -56.334 -2.83301 -77.001 -8.5
s-37.5 -14.667 -50.5 -27s-23.167 -28.166 -30.5 -47.499s-12.666 -42.333 -15.999 -69l-6 -51h254z" />
    <glyph glyph-name="ffl" unicode="ffl" horiz-adv-x="736" 
d="M424 594c2.66699 18 5.83301 33.167 9.5 45.5s8.16699 23.166 13.5 32.499c-19.333 6 -39.833 10.333 -61.5 13s-38.167 4 -49.5 4c-30.667 0 -56.334 -2.83301 -77.001 -8.5s-37.5 -14.667 -50.5 -27s-23.167 -28.166 -30.5 -47.499s-12.666 -42.333 -15.999 -69l-6 -51
h255zM584.999 466l-152.996 0.00292969c-6 -56 -11.333 -103.333 -16 -142s-8.5 -72 -11.5 -100s-5.83301 -52.333 -8.5 -73s-5 -41.334 -7 -62.001c-4 -38.667 -9 -75 -15 -109s-15 -63.833 -27 -89.5s-28.167 -45.834 -48.5 -60.501s-46.833 -22 -79.5 -22
c-8.66699 0 -19.167 0.666992 -31.5 2s-24.833 3.66602 -37.5 6.99902l6 19c12 -2 23.167 -3.66699 33.5 -5s19.833 -2 28.5 -2c19.333 0 36.666 3 51.999 9s28.666 16.5 39.999 31.5s20.833 35 28.5 60s13.834 56.5 18.501 94.5l52 442h-255l-15.5 -146
c-4.33301 -41.333 -8.33301 -77.5 -12 -108.5l-10 -81.5c-3 -23.333 -5.5 -45.333 -7.5 -66c-4 -38.667 -9 -75 -15 -109s-15 -63.833 -27 -89.5s-28.167 -45.834 -48.5 -60.501s-46.833 -22 -79.5 -22c-8.66699 0 -19.167 0.666992 -31.5 2s-24.833 3.66602 -37.5 6.99902
l5 18c12 -2 23.167 -3.66699 33.5 -5s19.833 -2 28.5 -2c19.333 0 36.666 3.16699 51.999 9.5s28.666 17 39.999 32s21 35 29 60s14.333 56.5 19 94.5c3.33301 28.667 6.83301 57.167 10.5 85.5s7.5 60.166 11.5 95.499l14 121.5c5.33301 45.667 11.333 100.5 18 164.5h-65
l1 13l67 9l9 70c3.33301 28.667 10.666 52.834 21.999 72.501s25.333 35.5 42 47.5s35.834 20.667 57.501 26s44.5 8 68.5 8c18.667 0 39.834 -1.33301 63.501 -4s46.167 -7.66699 67.5 -15c12.667 14 30.5 24.667 53.5 32s48.5 11 76.5 11
c19.333 0 39.666 -1.16699 60.999 -3.5s40.333 -5.16602 57 -8.49902l23 6l-86 -706l65 2l2 -16c-11.333 -4.66699 -22.5 -8 -33.5 -10s-20.5 -3 -28.5 -3c-19.333 0 -29 7 -29 21v7c0 2.66699 0.333008 5.66699 1 9l82 669c-17.333 3.33301 -36.333 6 -57 8
s-39.334 3 -56.001 3c-23.333 0 -43.833 -2.16699 -61.5 -6.5s-32.5 -11.666 -44.5 -21.999s-21.5 -24 -28.5 -41s-11.833 -38.5 -14.5 -64.5l-11 -93h153z" />
    <glyph glyph-name="ft" unicode="ft" horiz-adv-x="557" 
d="M370 101c-0.666992 -5.33301 -1.16797 -10.6641 -1.50098 -15.9971s-0.5 -10.333 -0.5 -15c0 -15.333 3.83301 -27.666 11.5 -36.999s23.167 -14 46.5 -14c13.333 0 29 1.5 47 4.5s36 7.16699 54 12.5l6 -17c-16 -6.66699 -34.333 -12 -55 -16s-39.667 -6 -57 -6
c-22 0 -40.167 4.83301 -54.5 14.5s-21.5 28.5 -21.5 56.5c0 4 0.166992 8 0.5 12s0.833008 8.33301 1.5 13l45 370h-238l-22 -203c-7.33301 -68.667 -14.666 -134 -21.999 -196c-4 -38.667 -9 -75 -15 -109s-15 -63.833 -27 -89.5s-28.167 -45.834 -48.5 -60.501
s-46.833 -22 -79.5 -22c-8.66699 0 -19.167 0.666992 -31.5 2s-24.833 3.66602 -37.5 6.99902l5 19c12 -2 23.167 -3.66699 33.5 -5s19.833 -2 28.5 -2c19.333 0 36.666 3 51.999 9s28.666 16.5 39.999 31.5s20.833 35 28.5 60s13.834 56.5 18.501 94.5
c8.66699 66.667 16 126 22 178l15.5 135c4.33301 38 7.66602 69.333 9.99902 94l5.5 57h-79l2 15l80 11l2 24c2.66699 35.333 7.5 66 14.5 92s16.833 47.667 29.5 65s28.667 30.166 48 38.499s42.666 12.5 69.999 12.5c8.66699 0 19 -0.333008 31 -1
s24 -2.33398 36 -5.00098l-4 -21c-13.333 2 -24.833 3.33301 -34.5 4s-18.834 1 -27.501 1c-17.333 0 -33.666 -1.66699 -48.999 -5s-29.166 -11.5 -41.499 -24.5s-22.666 -32 -30.999 -57s-14.166 -58.833 -17.499 -101.5l-2 -25h237l19 88l15 2l-11 -90h136l-3 -23h-136z
" />
    <glyph glyph-name=".notdef" horiz-adv-x="428" 
d="M0 683h428v-683h-428v683zM408 26v635l-179 -319zM20 28l179 314l-179 314v-628zM384 663h-340l170 -303zM384 20l-170 303l-170 -303h340z" />
    <glyph glyph-name="space" unicode=" " horiz-adv-x="247" 
 />
    <glyph glyph-name="exclam" unicode="!" horiz-adv-x="179" 
d="M83 158l19 213l39 319h25l-39 -319l-31 -213h-13zM77 53c7.33301 0 13.332 -2.5 17.999 -7.5s7 -11.167 7 -18.5c0 -10.667 -3.5 -19.5 -10.5 -26.5s-14.167 -10.5 -21.5 -10.5s-13.666 2.66699 -18.999 8s-8 12.333 -8 21c0 9.33301 3.66699 17.333 11 24s15 10 23 10z
" />
    <glyph glyph-name="quotedbl" unicode="&#x22;" horiz-adv-x="173" 
d="M155 506l15 176h29l-30 -176h-14zM84 506l11 176h30l-29 -176h-12z" />
    <glyph glyph-name="numbersign" unicode="#" horiz-adv-x="485" 
d="M400 431c-9.33301 -32 -20.166 -65.999 -32.499 -101.999s-23.5 -70 -33.5 -102h83l-7 -18h-82l-68 -209h-19l67 209h-177l-68 -209h-19l68 209h-70l7 18h68l34.5 102c12.333 36 23.166 70 32.499 102h-73l8 18h72c8 27.333 17 56.166 27 86.499l29 86.5h19l-57 -173h178
l28 86.5l29 86.5h20l-57 -173h81l-8 -18h-80zM137 227.001h176l34.5 102c12.333 36 23.5 70 33.5 102h-178z" />
    <glyph glyph-name="dollar" unicode="$" horiz-adv-x="485" 
d="M316 726l21 0.000976562l-8 -62c19.333 -1.33301 39 -5.16602 59 -11.499s37.667 -14.5 53 -24.5l-14 -21c-18.667 10.667 -36.167 18.167 -52.5 22.5s-32.5 7.5 -48.5 9.5l-36 -290c18 -8 35.167 -16.833 51.5 -26.5s30.666 -20.834 42.999 -33.501
s22.333 -27.334 30 -44.001s11.5 -36 11.5 -58c0 -28 -4.83301 -52.833 -14.5 -74.5s-22.667 -40 -39 -55s-35.166 -26.833 -56.499 -35.5s-44 -14 -68 -16l-10 -83h-21zM182 -76.999l-20 -0.000976562l10 80c-26 2.66699 -51.333 8.33398 -76 17.001
s-45.334 18.667 -62.001 30l13 19c26.667 -15.333 50 -25.666 70 -30.999s39 -9.33301 57 -12l40 323c-34 13.333 -62.167 31.5 -84.5 54.5s-33.5 53.5 -33.5 91.5c0 25.333 4.16699 47.666 12.5 66.999s19.833 35.833 34.5 49.5s31.334 24.667 50.001 33
s38.667 13.833 60 16.5l8 65h20zM251 30c20 2 38.999 6.5 56.999 13.5s34 16.667 48 29s25 27.833 33 46.5s12 41 12 67c0 32.667 -10.667 60 -32 82s-48.666 40 -81.999 54zM249.999 636c-17.333 -3.33301 -33.832 -8.33203 -49.499 -14.999s-29.334 -15.667 -41.001 -27
s-21 -25 -28 -41s-10.5 -35 -10.5 -57c0 -16 2.5 -30.333 7.5 -43s11.833 -23.834 20.5 -33.501s19 -18 31 -25s24.667 -13.5 38 -19.5z" />
    <glyph glyph-name="percent" unicode="%" horiz-adv-x="744" 
d="M229 666c24.667 0 44.8301 -4.32617 60.4971 -12.9932s27.834 -19.834 36.501 -33.501s14.5 -29 17.5 -46s4.5 -34.167 4.5 -51.5c0 -22.667 -2.16699 -48.834 -6.5 -78.501s-12.666 -57.834 -24.999 -84.501s-29.666 -49.334 -51.999 -68.001s-51.166 -28 -86.499 -28
c-25.333 0 -46 3.66699 -62 11s-28.667 17.166 -38 29.499s-15.833 26.833 -19.5 43.5s-5.5 34 -5.5 52c0 10 0.5 23.667 1.5 41s3.5 35.833 7.5 55.5s9.83301 39.667 17.5 60s18 38.666 31 54.999s29.167 29.666 48.5 39.999s42.666 15.5 69.999 15.5zM226.996 645.007
c-24.667 0 -45.6689 -5.16992 -63.002 -15.5029s-31.5 -23.666 -42.5 -39.999s-19.667 -34.166 -26 -53.499s-10.833 -38 -13.5 -56s-4.33398 -34.167 -5.00098 -48.5s-1 -24.5 -1 -30.5c0 -16.667 1.66699 -32.167 5 -46.5s9 -26.666 17 -36.999s18.833 -18.5 32.5 -24.5
s30.834 -9 51.501 -9c30 0 54.333 8.5 73 25.5s33.334 37.667 44.001 62s17.834 50 21.501 77s5.5 50.5 5.5 70.5c0 14.667 -1.33301 29.5 -4 44.5s-7.5 28.5 -14.5 40.5s-17 21.833 -30 29.5s-29.833 11.5 -50.5 11.5zM216.994 -22.9961h-23l358 719h21zM590.994 399.004
c24.667 0 44.8301 -4.32617 60.4971 -12.9932s27.834 -19.834 36.501 -33.501s14.5 -29 17.5 -46s4.5 -34.167 4.5 -51.5c0 -22.667 -2.16699 -48.834 -6.5 -78.501s-12.666 -57.834 -24.999 -84.501s-29.666 -49.334 -51.999 -68.001s-51.166 -28 -86.499 -28
c-25.333 0 -46 3.66699 -62 11s-28.667 17.166 -38 29.499s-15.833 26.833 -19.5 43.5s-5.5 34 -5.5 52c0 10 0.5 23.667 1.5 41s3.5 35.833 7.5 55.5s9.83301 39.667 17.5 60s18 38.666 31 54.999s29.167 29.666 48.5 39.999s42.666 15.5 69.999 15.5zM588.99 378.011
c-24.667 0 -45.6689 -5.16992 -63.002 -15.5029s-31.5 -23.666 -42.5 -39.999s-19.667 -34.166 -26 -53.499s-10.833 -38 -13.5 -56s-4.33398 -34.167 -5.00098 -48.5s-1 -24.5 -1 -30.5c0 -16.667 1.66699 -32.167 5 -46.5s9 -26.666 17 -36.999s18.833 -18.5 32.5 -24.5
s30.834 -9 51.501 -9c30 0 54.333 8.5 73 25.5s33.334 37.667 44.001 62s17.834 50 21.501 77s5.5 50.5 5.5 70.5c0 14.667 -1.33301 29.5 -4 44.5s-7.5 28.5 -14.5 40.5s-17 21.833 -30 29.5s-29.833 11.5 -50.5 11.5z" />
    <glyph glyph-name="ampersand" unicode="&#x26;" horiz-adv-x="792" 
d="M302 456c16.667 0 30.332 -2.66016 40.999 -7.99316s19 -12 25 -20s10.167 -16.5 12.5 -25.5s3.5 -16.833 3.5 -23.5c0 -12.667 -4.33301 -27.667 -13 -45s-22.667 -33.666 -42 -48.999l2 -3c23.333 5.33301 46.333 9.66602 69 12.999s43.667 5 63 5
c20.667 0 43.667 -1.33301 69 -4s53.666 -7.33398 84.999 -14.001c5.33301 19.333 9.5 38.666 12.5 57.999s4.5 37.666 4.5 54.999c0 32.667 -4.33301 64.334 -13 95.001s-23.167 57.5 -43.5 80.5s-47.166 41.5 -80.499 55.5s-74.333 21 -123 21
c-46.667 0 -89 -8.33301 -127 -25s-71 -39.334 -99 -68.001s-50.833 -62.5 -68.5 -101.5s-29.834 -80.833 -36.501 -125.5l-21 2c6.66699 42.667 18.834 84.5 36.501 125.5s41.167 77.167 70.5 108.5s64.833 56.666 106.5 75.999s90.167 29 145.5 29
c48.667 0 90.5 -7.16699 125.5 -21.5s63.667 -33.666 86 -57.999s38.666 -53 48.999 -86s15.5 -68.167 15.5 -105.5c0 -18 -1.5 -37 -4.5 -57s-7.16699 -40.333 -12.5 -61l32.5 -6c11 -2 19.167 -3 24.5 -3c24 0 44.333 5.66699 61 17s32.334 27.666 47.001 48.999l16 -8
c-13.333 -23.333 -30 -42 -50 -56s-45 -21 -75 -21c-4 0 -11 0.5 -21 1.5s-23.667 3.5 -41 7.5c-12.667 -34 -29.5 -67 -50.5 -99s-45.5 -60.333 -73.5 -85s-58.833 -44.334 -92.5 -59.001s-69.167 -22 -106.5 -22c-34.667 0 -64 5.5 -88 16.5s-43.667 25.167 -59 42.5
s-26.5 37.166 -33.5 59.499s-10.5 44.833 -10.5 67.5c0 45.333 5.66699 85.166 17 119.499s25.833 63 43.5 86s37.334 40.333 59.001 52s42.5 17.5 62.5 17.5zM301.998 437.007c-17.333 0 -35.5 -5.33398 -54.5 -16.001s-36.333 -26.5 -52 -47.5s-28.667 -47.167 -39 -78.5
s-15.5 -67.666 -15.5 -108.999c0 -56 15.833 -98.5 47.5 -127.5s73.167 -43.5 124.5 -43.5c29.333 0 59 6.16699 89 18.5s58.167 29.5 84.5 51.5s50.333 48.167 72 78.5s39.167 63.5 52.5 99.5c-58.667 11.333 -109.334 17 -152.001 17c-50.667 0 -104 -8.66699 -160 -26
l-11 18c21.333 16 39 33.167 53 51.5s21 36.166 21 53.499c0 16.667 -5.16699 30.834 -15.5 42.501s-25.166 17.5 -44.499 17.5z" />
    <glyph glyph-name="quotesingle" unicode="'" horiz-adv-x="127" 
d="M95 506l12 176h30l-29 -176h-13z" />
    <glyph glyph-name="parenleft" unicode="(" horiz-adv-x="245" 
d="M140 -172c-3.33301 8 -9.49902 21.1699 -18.499 39.5029s-18 42 -27 71s-17 63 -24 102s-10.5 83.167 -10.5 132.5c0 74 8.16699 141.5 24.5 202.5s35.166 114.333 56.499 160s42.333 83.5 63 113.5l45 64l9 -7c-9.33301 -13.333 -23.5 -35.333 -42.5 -66
s-38 -69.167 -57 -115.5s-35.667 -100.333 -50 -162s-21.5 -129.834 -21.5 -204.501c0 -44 2.5 -83.833 7.5 -119.5s11 -66.834 18 -93.501s14.167 -49.334 21.5 -68.001l17 -43z" />
    <glyph glyph-name="parenright" unicode=")" horiz-adv-x="245" 
d="M3 -166c8.66699 12.667 22.6699 34.3311 42.0029 64.998s38.833 69.834 58.5 117.501s37 103.167 52 166.5s22.5 134.333 22.5 213c0 41.333 -2.66699 79 -8 113s-11.666 64.167 -18.999 90.5s-14.833 48.333 -22.5 66s-13.834 31.167 -18.501 40.5l11 7l20 -41.5
c9.33301 -19 18.833 -42.667 28.5 -71s18 -61.166 25 -98.499s10.5 -78.333 10.5 -123c0 -78.667 -8.83301 -150 -26.5 -214s-37.834 -119.5 -60.501 -166.5s-44.334 -85 -65.001 -114s-34.334 -47.833 -41.001 -56.5z" />
    <glyph glyph-name="asterisk" unicode="*" horiz-adv-x="311" 
d="M323 606c5.33301 -11.333 6.99707 -23 4.99707 -35l-119 -22l67 -91c-3.33301 -5.33301 -8.16602 -9.83301 -14.499 -13.5s-12.166 -6.16699 -17.499 -7.5l-45 106l-67 -107c-6 1.33301 -11.5 3.83301 -16.5 7.5s-8.5 8.16699 -10.5 13.5l88 92l-113 23
c0.666992 6 2.16699 12.333 4.5 19s5.83301 12.334 10.5 17.001l103 -49l3 121c5.33301 2 11.333 3.16699 18 3.5s12.334 -0.833984 17.001 -3.50098l-28 -121z" />
    <glyph glyph-name="plus" unicode="+" horiz-adv-x="485" 
d="M264 283l-21 -170h-25l21 170h-162l3 25h162l20 164h25l-20 -164h161l-3 -25h-161z" />
    <glyph glyph-name="comma" unicode="," horiz-adv-x="113" 
d="M28 -2c-6.66699 0 -12 2.16602 -16 6.49902s-6 9.83301 -6 16.5c0 8.66699 3 16 9 22s12.667 9 20 9c17.333 0 26 -9.66699 26 -29c0 -7.33301 -1.5 -16.166 -4.5 -26.499s-7.16699 -21.166 -12.5 -32.499s-11.666 -22.5 -18.999 -33.5s-15.666 -20.167 -24.999 -27.5
l-7 8c11.333 14 19.666 29.167 24.999 45.5s8.66602 30.166 9.99902 41.499z" />
    <glyph glyph-name="hyphen" unicode="-" horiz-adv-x="310" 
d="M53 237l3 27h213l-3 -27h-213z" />
    <glyph glyph-name="period" unicode="." horiz-adv-x="135" 
d="M49 54c6 0 11.332 -2.33301 15.999 -7s7 -10.334 7 -17.001c0 -8 -3.16699 -15.167 -9.5 -21.5s-13.166 -9.5 -20.499 -9.5s-13 2.33301 -17 7s-6 10.334 -6 17.001c0 8 3 15.167 9 21.5s13 9.5 21 9.5z" />
    <glyph glyph-name="slash" unicode="/" horiz-adv-x="298" 
d="M3 -25h-25l341 722h23z" />
    <glyph glyph-name="zero" unicode="0" horiz-adv-x="485" 
d="M300 672c38 0 68.832 -6.99902 92.499 -20.999s42.167 -32.333 55.5 -55s22.333 -48.334 27 -77.001s7 -57.334 7 -86.001c0 -26.667 -1.5 -56.167 -4.5 -88.5s-8.16699 -64.833 -15.5 -97.5s-17.5 -64.334 -30.5 -95.001s-29.167 -57.667 -48.5 -81
s-42.5 -42.166 -69.5 -56.499s-58.5 -21.5 -94.5 -21.5c-38 0 -69.167 6.33301 -93.5 19s-43.333 29.5 -57 50.5s-23 45.333 -28 73s-7.5 56.834 -7.5 87.501c0 16 0.666992 38.333 2 67s5 59.5 11 92.5s14.667 66.667 26 101s26.833 65.5 46.5 93.5
s44.334 50.833 74.001 68.5s65.5 26.5 107.5 26.5zM300.999 649.001c-40 0 -73.9961 -9.16992 -101.996 -27.5029s-51 -41.666 -69 -69.999s-32 -59.666 -42 -93.999s-17.167 -67.333 -21.5 -99s-7 -60 -8 -85s-1.5 -42.5 -1.5 -52.5c0 -30 2.5 -57.667 7.5 -83
s13.667 -47.166 26 -65.499s29.166 -32.5 50.499 -42.5s48.666 -15 81.999 -15s62.333 7 87 21s45.667 32.5 63 55.5s31.5 49.167 42.5 78.5s19.667 59.5 26 90.5s10.666 61.333 12.999 91s3.5 56.5 3.5 80.5c0 26 -2 52 -6 78s-11.667 49.167 -23 69.5s-27.333 37 -48 50
s-47.334 19.5 -80.001 19.5z" />
    <glyph glyph-name="one" unicode="1" horiz-adv-x="485" 
d="M153 606l2 19l155 36h26l-81 -661h-23l77 633z" />
    <glyph glyph-name="two" unicode="2" horiz-adv-x="485" 
d="M0 0l2.00098 23.999l168 150c50 46.667 92.667 90.5 128 131.5s62.833 79.667 82.5 116s29.5 70.5 29.5 102.5c0 42 -12.167 72.333 -36.5 91s-55.166 28 -92.499 28c-28 0 -58.167 -5.16699 -90.5 -15.5s-62.5 -24.5 -90.5 -42.5l-13 19
c29.333 19.333 61.166 34.833 95.499 46.5s67.166 17.5 98.499 17.5c21.333 0 41.333 -2.66699 60 -8s35 -13.666 49 -24.999s25.167 -25.833 33.5 -43.5s12.5 -38.5 12.5 -62.5c0 -38 -10.667 -76.667 -32 -116s-50.333 -80 -87 -122s-79 -85.167 -127 -129.5l-153 -138.5
h361l-2 -23h-396z" />
    <glyph glyph-name="three" unicode="3" horiz-adv-x="485" 
d="M189 -9c-42 0 -77.8301 3.16211 -107.497 9.49512s-53.167 13.833 -70.5 22.5c1.33301 3.33301 2.83301 6.66602 4.5 9.99902l4.5 9c38.667 -14 71.5 -22.333 98.5 -25s50.167 -4 69.5 -4c29.333 0 57.5 4.16699 84.5 12.5s50.667 20.333 71 36
s36.666 34.834 48.999 57.501s18.5 48.667 18.5 78c0 26 -5.16699 48.833 -15.5 68.5s-24.333 36 -42 49s-38.5 22.667 -62.5 29s-49.333 9.5 -76 9.5c-5.33301 0 -10.833 -0.166992 -16.5 -0.5s-11.167 -0.833008 -16.5 -1.5l-5 23
c47.333 8.66699 86.166 19.834 116.499 33.501s54.333 28.334 72 44.001s30 31.834 37 48.501s10.5 33 10.5 49c0 14.667 -2.83301 28.334 -8.5 41.001s-14.334 23.834 -26.001 33.501s-26.667 17.334 -45 23.001s-40.166 8.5 -65.499 8.5c-22 0 -46.333 -3.33301 -73 -10
s-58 -17.667 -94 -33l-8 20c32.667 16.667 64.5 28.667 95.5 36s58.167 11 81.5 11c30 0 55.667 -3.5 77 -10.5s39 -16.333 53 -28s24.167 -25.167 30.5 -40.5s9.5 -31 9.5 -47c0 -16.667 -3.5 -33.667 -10.5 -51s-17.5 -34 -31.5 -50s-32 -30.667 -54 -44
s-48 -24.333 -78 -33v-3c20 -2 40.167 -7.33301 60.5 -16s38.666 -20.334 54.999 -35.001s29.5 -32 39.5 -52s15 -42.667 15 -68c0 -28 -5.66699 -54.833 -17 -80.5s-27.833 -48 -49.5 -67s-47.667 -34.167 -78 -45.5s-64.5 -17 -102.5 -17z" />
    <glyph glyph-name="four" unicode="4" horiz-adv-x="485" 
d="M426 661l-55 -442h97l-3 -23h-97l-22 -196h-26l23 196h-327l4 26l190 220l189 219h27zM346 219l50 406l-350 -406h300z" />
    <glyph glyph-name="five" unicode="5" horiz-adv-x="485" 
d="M268 400c20.667 0 41.166 -2.99707 61.499 -8.99707s38.666 -15.667 54.999 -29s29.5 -30.833 39.5 -52.5s15 -48.5 15 -80.5c0 -40.667 -6.66699 -75.834 -20 -105.501s-31.166 -54.334 -53.499 -74.001s-48 -34.334 -77 -44.001s-58.833 -14.5 -89.5 -14.5
c-37.333 0 -69.333 2.66699 -96 8s-52.667 13.666 -78 24.999l10 21c29.333 -12 57.333 -20.167 84 -24.5s49.667 -6.5 69 -6.5c32.667 0 62.834 4.33301 90.501 13s51.5 21.667 71.5 39s35.5 39.333 46.5 66s16.5 58 16.5 94c0 50.667 -14.667 88.334 -44 113.001
s-68 37 -116 37c-19.333 0 -40.5 -2.83301 -63.5 -8.5s-44.167 -13.167 -63.5 -22.5l-20 13l53 303h306l-3 -24h-285l-46 -266c6 2 12.667 4.66699 20 8s16.166 6.5 26.499 9.5s22.833 5.66699 37.5 8s32.334 3.5 53.001 3.5z" />
    <glyph glyph-name="six" unicode="6" horiz-adv-x="485" 
d="M339 671c30 0 55.667 -2.99512 77 -8.99512s39.666 -12.667 54.999 -20l-12 -21c-24.667 10.667 -47.167 17.667 -67.5 21s-38.5 5 -54.5 5c-27.333 0 -52.166 -5.5 -74.499 -16.5s-42 -25.5 -59 -43.5s-31.833 -38 -44.5 -60s-23.334 -44 -32.001 -66
s-15.667 -42.833 -21 -62.5s-9 -35.834 -11 -48.501l2 -3c23.333 15.333 52 28.333 86 39s70 16 108 16c22.667 0 43.834 -3 63.501 -9s36.834 -15.5 51.501 -28.5s26.167 -30.333 34.5 -52s12.5 -47.834 12.5 -78.501c0 -36.667 -5.5 -69.834 -16.5 -99.501
s-26.5 -55 -46.5 -76s-43.833 -37.167 -71.5 -48.5s-57.834 -17 -90.501 -17c-33.333 0 -60.833 5.5 -82.5 16.5s-39 26.167 -52 45.5s-22.167 42.166 -27.5 68.499s-8 55.166 -8 86.499c0 63.333 6.66699 123 20 179s32.166 104.833 56.499 146.5s53.833 74.667 88.5 99
s73.334 36.5 116.001 36.5zM286 377.005c-28.667 0 -54.6699 -3.16797 -78.0029 -9.50098s-43.5 -13.166 -60.5 -20.499s-30.333 -14.5 -40 -21.5s-15.167 -10.833 -16.5 -11.5l-4 -29c-1.33301 -11.333 -2.5 -23.666 -3.5 -36.999s-1.5 -27 -1.5 -41
c0 -22.667 1.83301 -45.334 5.5 -68.001s10.834 -43.167 21.501 -61.5s25.334 -33.166 44.001 -44.499s42.667 -17 72 -17c32 0 60.5 5.33301 85.5 16s46.333 25.5 64 44.5s31.167 41.667 40.5 68s14 55.166 14 86.499c0 22 -2.33301 42 -7 60s-12.667 33.333 -24 46
s-26.166 22.5 -44.499 29.5s-40.833 10.5 -67.5 10.5z" />
    <glyph glyph-name="seven" unicode="7" horiz-adv-x="485" 
d="M117 0h-27l354 637h-339l3 24h357l3 -26z" />
    <glyph glyph-name="eight" unicode="8" horiz-adv-x="485" 
d="M309 672c20 0 39.6699 -2.5 59.0029 -7.5s36.833 -12.833 52.5 -23.5s28.334 -24.667 38.001 -42s14.5 -38 14.5 -62c0 -36.667 -10.833 -70.834 -32.5 -102.501s-55.5 -62.5 -101.5 -92.5c36 -19.333 61.833 -41.333 77.5 -66s23.5 -55 23.5 -91
c0 -23.333 -4.83301 -46.5 -14.5 -69.5s-23.834 -43.5 -42.501 -61.5s-41.834 -32.667 -69.501 -44s-59.5 -17 -95.5 -17c-34.667 0 -63.834 4.33301 -87.501 13s-43 20.167 -58 34.5s-25.833 31 -32.5 50s-10 38.833 -10 59.5c0 48 13.667 91.833 41 131.5
s69.333 72.834 126 99.501c-55.333 32 -83 73 -83 123c0 20 4.66699 40 14 60s22.666 38 39.999 54s37.833 29 61.5 39s50.167 15 79.5 15zM223.003 16c34.667 0 64.165 5.66602 88.498 16.999s44.333 25.333 60 42s27 34.834 34 54.501s10.5 38.167 10.5 55.5
c0 28 -4.66699 51.167 -14 69.5s-22.666 34 -39.999 47s-38.333 24.667 -63 35l-82 33.5c-30 -14 -55.333 -29.667 -76 -47s-37.5 -35.333 -50.5 -54s-22.333 -37.667 -28 -57s-8.5 -38 -8.5 -56s2.66699 -35.333 8 -52s14.5 -31.5 27.5 -44.5s30.333 -23.5 52 -31.5
s48.834 -12 81.501 -12zM304.001 648.999c-32.667 0 -59.666 -5.83301 -80.999 -17.5s-38.5 -25.5 -51.5 -41.5s-22.167 -32.167 -27.5 -48.5s-8 -29.166 -8 -38.499c0 -20 5.33301 -37.667 16 -53s24.5 -28.833 41.5 -40.5s36.5 -22 58.5 -31l68 -26.5
c25.333 16 46.166 32 62.499 48s29.333 31.5 39 46.5s16.5 29.5 20.5 43.5s6 27.333 6 40c0 14 -2.16699 28.167 -6.5 42.5s-12 27.166 -23 38.499s-25.667 20.5 -44 27.5s-41.833 10.5 -70.5 10.5z" />
    <glyph glyph-name="nine" unicode="9" horiz-adv-x="485" 
d="M177 -7c-30 0 -56 2.99902 -78 8.99902s-40.667 12.667 -56 20l12 21c24.667 -10.667 47.167 -17.667 67.5 -21s38.5 -5 54.5 -5c27.333 0 52.166 5.5 74.499 16.5s42.166 25.5 59.499 43.5s32.333 38 45 60s23.334 44 32.001 66s15.667 42.833 21 62.5
s9 35.834 11 48.501l-2 3c-23.333 -15.333 -52.166 -28.333 -86.499 -39s-70.5 -16 -108.5 -16c-22.667 0 -43.834 3 -63.501 9s-36.834 15.5 -51.501 28.5s-26.167 30.167 -34.5 51.5s-12.5 47.666 -12.5 78.999c0 36.667 5.5 69.834 16.5 99.501s26.5 55 46.5 76
s43.833 37.167 71.5 48.5s57.834 17 90.501 17c32 0 58.833 -5 80.5 -15s39.334 -24.167 53.001 -42.5s23.5 -40.333 29.5 -66s9 -54.167 9 -85.5c0 -63.333 -6.66699 -123.333 -20 -180s-32.166 -106.5 -56.499 -149.5s-53.833 -77 -88.5 -102
s-73.334 -37.5 -116.001 -37.5zM228 284.999c28 0 53.833 3.16504 77.5 9.49805s44 13.333 61 21s30.5 14.834 40.5 21.501s15.667 10.667 17 12l4 29c1.33301 11.333 2.33301 23.833 3 37.5s1 27.5 1 41.5c0 22.667 -2 45.334 -6 68.001s-11.167 43.167 -21.5 61.5
s-24.833 33.166 -43.5 44.499s-42.667 17 -72 17c-32 0 -60.5 -5.33301 -85.5 -16s-46.333 -25.5 -64 -44.5s-31.167 -41.667 -40.5 -68s-14 -55.166 -14 -86.499c0 -22 2.33301 -42.167 7 -60.5s12.667 -34 24 -47s26 -23 44 -30s40.667 -10.5 68 -10.5z" />
    <glyph glyph-name="colon" unicode=":" horiz-adv-x="135" 
d="M49 54c6 0 11.332 -2.33301 15.999 -7s7 -10.334 7 -17.001c0 -8 -3.16699 -15.167 -9.5 -21.5s-13.166 -9.5 -20.499 -9.5s-13 2.33301 -17 7s-6 10.334 -6 17.001c0 8 3 15.167 9 21.5s13 9.5 21 9.5zM86.999 361c6.66699 0 12.167 -2.50098 16.5 -7.50098
s6.5 -10.833 6.5 -17.5c0 -8 -3.33301 -15 -10 -21s-13.334 -9 -20.001 -9c-7.33301 0 -13 2.33301 -17 7s-6 10.334 -6 17.001c0 8 2.83301 15.167 8.5 21.5s12.834 9.5 21.501 9.5z" />
    <glyph glyph-name="semicolon" unicode=";" horiz-adv-x="135" 
d="M87 361c6.66699 0 12.167 -2.50098 16.5 -7.50098s6.5 -10.833 6.5 -17.5c0 -8 -3.33301 -15 -10 -21s-13.334 -9 -20.001 -9c-7.33301 0 -13 2.33301 -17 7s-6 10.334 -6 17.001c0 8 2.83301 15.167 8.5 21.5s12.834 9.5 21.501 9.5zM47 51.999
c7.33301 0 13.5 -2.33398 18.5 -7.00098s7.5 -12 7.5 -22c0 -7.33301 -1.5 -16.166 -4.5 -26.499s-7.16699 -21.166 -12.5 -32.499s-11.666 -22.5 -18.999 -33.5s-15.666 -20.167 -24.999 -27.5l-7 8c11.333 14 19.666 29.167 24.999 45.5s8.66602 30.166 9.99902 41.499
c-7.33301 0 -12.833 2.16699 -16.5 6.5s-5.5 9.83301 -5.5 16.5c0 8.66699 2.83301 16 8.5 22s12.5 9 20.5 9z" />
    <glyph glyph-name="less" unicode="&#x3c;" horiz-adv-x="485" 
d="M79 281l4 29l367 186l-3 -28l-346 -172l304 -173l-4 -29z" />
    <glyph glyph-name="equal" unicode="=" horiz-adv-x="485" 
d="M86 357l3 25h348l-3 -25h-348zM69 219l3 24h348l-3 -24h-348z" />
    <glyph glyph-name="greater" unicode="&#x3e;" horiz-adv-x="485" 
d="M56 94l4 29l346 173l-304 172l3 28l323 -186l-4 -29z" />
    <glyph glyph-name="question" unicode="?" horiz-adv-x="391" 
d="M261 701c52.667 0 91.334 -9.66602 116.001 -28.999s37 -46 37 -80c0 -17.333 -3.16699 -33.333 -9.5 -48s-14.5 -28.5 -24.5 -41.5s-21.667 -25.167 -35 -36.5s-27 -22 -41 -32c-31.333 -22.667 -57.166 -43 -77.499 -61s-36.5 -35.333 -48.5 -52
s-20.5 -33.334 -25.5 -50.001s-7.5 -35.334 -7.5 -56.001c0 -6.66699 0.166992 -13.667 0.5 -21s0.833008 -14.666 1.5 -21.999l-23 -6c-0.666992 8.66699 -1.16699 16.667 -1.5 24s-0.5 14.666 -0.5 21.999c0 20 2.16699 38.833 6.5 56.5s12.166 35.5 23.499 53.5
s26.833 36.5 46.5 55.5s44.834 39.5 75.501 61.5c35.333 25.333 63.166 49.333 83.499 72s30.5 50 30.5 82c0 16 -3.33301 29.333 -10 40s-15.834 19.334 -27.501 26.001s-25 11.5 -40 14.5s-30.833 4.5 -47.5 4.5c-20 0 -43.167 -2 -69.5 -6s-56.5 -11 -90.5 -21l-6 21
c29.333 10 58.5 17.333 87.5 22s54.5 7 76.5 7zM141 53.001c7.33301 0 13.332 -2.33301 17.999 -7s7 -10.667 7 -18c0 -10 -3.33301 -18.333 -10 -25s-13.667 -10 -21 -10s-13.666 2.5 -18.999 7.5s-8 11.833 -8 20.5s3.5 16.167 10.5 22.5s14.5 9.5 22.5 9.5z" />
    <glyph glyph-name="at" unicode="@" horiz-adv-x="822" 
d="M500 695c96 0 169.002 -24.502 219.002 -73.502s75 -116.5 75 -202.5c0 -46.667 -6.5 -86.5 -19.5 -119.5s-29 -59.833 -48 -80.5s-39.5 -35.834 -61.5 -45.501s-42 -14.5 -60 -14.5c-28 0 -49.667 8.5 -65 25.5s-23 39.5 -23 67.5c0 4.66699 0.166992 10 0.5 16
s1.16602 12.333 2.49902 19c-20.667 -45.333 -44.667 -78.333 -72 -99s-56 -31 -86 -31c-31.333 0 -55.666 12.167 -72.999 36.5s-26 55.833 -26 94.5c0 36 4 70.167 12 102.5s20 60.833 36 85.5s36.167 44.167 60.5 58.5s52.5 21.5 84.5 21.5c18 0 36 -2.33301 54 -7
s35.667 -10.667 53 -18l10 21h14l-18 -89.5l-16.5 -83.5c-5 -26 -9.16699 -49.5 -12.5 -70.5s-5 -38.167 -5 -51.5c0 -24 6.16699 -43 18.5 -57s29.166 -21 50.499 -21c16.667 0 34.834 4.5 54.501 13.5s38 23 55 42s31.333 43.667 43 74s17.5 66.5 17.5 108.5
c0 84.667 -24.333 148.834 -73 192.501s-116.334 65.5 -203.001 65.5c-58 0 -111 -10.333 -159 -31s-89.167 -48.5 -123.5 -83.5s-61 -75.5 -80 -121.5s-28.5 -94.333 -28.5 -145c0 -42 6.66699 -80.667 20 -116s32 -65.666 56 -90.999s53.167 -45.166 87.5 -59.499
s72.5 -21.5 114.5 -21.5c19.333 0 37.666 0.833008 54.999 2.5s37.333 5.83398 60 12.501l6 -21c-7.33301 -2.66699 -16 -5 -26 -7s-20.5 -3.66699 -31.5 -5s-21.833 -2.33301 -32.5 -3s-20 -1 -28 -1c-45.333 0 -86.666 7.5 -123.999 22.5s-69.333 36 -96 63
s-47.334 59.333 -62.001 97s-22 79.167 -22 124.5c0 56 10.333 108.667 31 158s49.5 92.166 86.5 128.499s81 65 132 86s106.5 31.5 166.5 31.5zM367.002 177.998c11.333 0 23.4971 2.33301 36.4971 7s26.333 13.167 40 25.5s27.334 29 41.001 50s26.834 48.167 39.501 81.5
l34 167c-19.333 10.667 -38.166 18 -56.499 22s-35.166 6 -50.499 6c-24.667 0 -47.167 -5.83301 -67.5 -17.5s-37.833 -28 -52.5 -49s-26.167 -46 -34.5 -75s-12.833 -61.167 -13.5 -96.5c0 -40.667 7.66699 -71 23 -91s35.666 -30 60.999 -30z" />
    <glyph glyph-name="A" unicode="A" horiz-adv-x="500" 
d="M392 197h-286l-84 -197h-27l296 682h35l129 -682h-25zM243 513l-127 -292h271l-54 292l-26 143h-3z" />
    <glyph glyph-name="B" unicode="B" horiz-adv-x="532" 
d="M371 354c20 -6.66699 36.835 -15.499 50.502 -26.499s24.667 -23.333 33 -37s14.166 -28.167 17.499 -43.5s5 -30.333 5 -45c0 -30 -5.33301 -57.333 -16 -82s-24.834 -45.834 -42.501 -63.501s-38 -31.5 -61 -41.5s-47.167 -15 -72.5 -15h-235l83 682h198
c58 0 100.167 -13.5 126.5 -40.5s39.5 -61.833 39.5 -104.5c0 -15.333 -2 -31.333 -6 -48s-10.833 -33.167 -20.5 -49.5s-22.667 -31.833 -39 -46.5s-36.833 -27 -61.5 -37zM117.002 342.001l-38.999 -317.998h201c26.667 0 50.667 4.83301 72 14.5s39.5 22.667 54.5 39
s26.5 35.166 34.5 56.499s12 43.666 12 66.999c0 18.667 -3 36.5 -9 53.5s-14.833 32 -26.5 45s-25.834 23.333 -42.501 31s-36 11.5 -58 11.5h-199zM156.003 658.003l-34.999 -291h183c24 0 46.167 4.16699 66.5 12.5s38 20 53 35s26.667 33 35 54s12.5 43.833 12.5 68.5
c0 36 -11.333 65.167 -34 87.5s-59.334 33.5 -110.001 33.5h-171z" />
    <glyph glyph-name="C" unicode="C" horiz-adv-x="525" 
d="M469 18c-25.333 -9.33301 -54.502 -15.8301 -87.502 -19.4971s-63.167 -5.5 -90.5 -5.5c-40 0 -74 5.83301 -102 17.5s-50.833 28.667 -68.5 51s-30.5 49.5 -38.5 81.5s-12 68 -12 108c0 24.667 1.5 52.667 4.5 84s8.66699 63.333 17 96s19.666 64.667 33.999 96
s32.833 59.166 55.5 83.499s50 44 82 59s69.667 22.5 113 22.5c34 0 65 -2.66699 93 -8s50 -11.333 66 -18l-9 -21c-23.333 7.33301 -48.166 13.166 -74.499 17.499s-51.166 6.5 -74.499 6.5c-48.667 0 -90.667 -10.667 -126 -32s-64.333 -51 -87 -89
s-39.5 -82.833 -50.5 -134.5s-16.5 -107.5 -16.5 -167.5c0 -30.667 2.5 -59.834 7.5 -87.501s14.833 -52 29.5 -73s34.834 -37.667 60.501 -50s59.167 -18.5 100.5 -18.5c8.66699 0 19.5 0.333008 32.5 1s27 2 42 4s30.333 4.33301 46 7s31.167 6 46.5 10z" />
    <glyph glyph-name="D" unicode="D" horiz-adv-x="576" 
d="M315 682c43.333 0 79.3311 -6.83301 107.998 -20.5s51.334 -32.5 68.001 -56.5s28.334 -52.333 35.001 -85s10 -67.667 10 -105c0 -54.667 -5.33301 -107 -16 -157s-28.167 -94.167 -52.5 -132.5s-56.5 -68.833 -96.5 -91.5s-89 -34 -147 -34h-174l83 682h182zM77.998 25
l143.003 -0.000976562c10 0 24 0.666992 42 2s37.667 5.66602 59 12.999s43.166 18.833 65.499 34.5s42.666 37.834 60.999 66.501s33.333 65 45 109s17.5 98 17.5 162c0 40.667 -3.5 75 -10.5 103s-16.5 51.167 -28.5 69.5s-25.333 32.333 -40 42
s-29.667 16.834 -45 21.501s-30.333 7.5 -45 8.5s-27.334 1.5 -38.001 1.5h-149z" />
    <glyph glyph-name="E" unicode="E" horiz-adv-x="470" 
d="M133 682h347l-3 -24h-322l-35 -284h286l-2 -23l-287 -1l-40 -326h352l-2 -24h-377z" />
    <glyph glyph-name="F" unicode="F" horiz-adv-x="445" 
d="M75 0h-25l83 682h347l-3 -24h-322l-34 -283h286l-3 -24l-287 -1z" />
    <glyph glyph-name="G" unicode="G" horiz-adv-x="568" 
d="M390 691c34 0 64.502 -2 91.502 -6s50.833 -9.33301 71.5 -16l-7 -23c-25.333 7.33301 -51.833 12.833 -79.5 16.5s-53.167 5.5 -76.5 5.5c-48 0 -90.333 -10.333 -127 -31s-67.334 -49.667 -92.001 -87s-43.334 -81.833 -56.001 -133.5s-19 -108.834 -19 -171.501
c0 -30.667 2.83301 -59.667 8.5 -87s16.167 -51.333 31.5 -72s36.333 -37.167 63 -49.5s61.334 -18.5 104.001 -18.5c10 0 21.5 0.5 34.5 1.5s26.333 2.33301 40 4s27.167 3.83398 40.5 6.50098s25 6 35 10l37 298h25l-39 -319c-31.333 -9.33301 -62.333 -16 -93 -20
s-61 -6 -91 -6c-40 0 -74 5.83301 -102 17.5s-51 28.5 -69 50.5s-31 49 -39 81s-12 68 -12 108c0 23.333 1.66699 50.5 5 81.5s9.33301 62.833 18 95.5s20.5 64.667 35.5 96s34.333 59.5 58 84.5s52.167 45.167 85.5 60.5s72.666 23 117.999 23z" />
    <glyph glyph-name="H" unicode="H" horiz-adv-x="571" 
d="M442 0l42 349h-366l-42 -349h-26l83 682h26l-38 -309h366l37 309h27l-83 -682h-26z" />
    <glyph glyph-name="I" unicode="I" horiz-adv-x="199" 
d="M60 0l83 682h26l-83 -682h-26z" />
    <glyph glyph-name="J" unicode="J" horiz-adv-x="244" 
d="M179 682l25 -0.000976562l-70 -582c-4.66699 -38 -11.834 -71.833 -21.501 -101.5s-22.667 -55.5 -39 -77.5s-36.333 -41 -60 -57s-52.167 -29.667 -85.5 -41l-8 22c30.667 10 57 22.667 79 38s40.333 33.333 55 54s26.334 44.334 35.001 71.001s15 56.667 19 90z" />
    <glyph glyph-name="K" unicode="K" horiz-adv-x="495" 
d="M231 407l218 -407h-28l-207 389l-103 -94l-36 -295h-25l83 682h25l-43 -353l380 353h35z" />
    <glyph glyph-name="L" unicode="L" horiz-adv-x="507" 
d="M108 24h359l-2 -24h-385l83 682h25z" />
    <glyph glyph-name="M" unicode="M" horiz-adv-x="708" 
d="M619 627l-22.001 -50.5l-43 -95.5l-194 -424h-28l-104 424c-5.33301 20.667 -9.66602 38.5 -12.999 53.5l-8.5 39l-6 28.5c-1.66699 8 -3.5 15.333 -5.5 22h-4l-30 -151l-14 -70l-19.5 -97.5l-26.5 -132l-35 -173.5h-26l139 682h26l110 -456l32 -137h3l61 138l207 455h30
l-13 -682h-25l8 473l4 154h-3z" />
    <glyph glyph-name="N" unicode="N" horiz-adv-x="606" 
d="M482 49l77 633h27l-84 -682h-26l-267 528l-53 107h-3l-77 -635h-26l83 682h27l278 -550l41 -83h3z" />
    <glyph glyph-name="O" unicode="O" horiz-adv-x="629" 
d="M373 692c42 0 76.8291 -7.33301 104.496 -22s49.834 -34.5 66.501 -59.5s28.334 -54.333 35.001 -88s10 -69.167 10 -106.5c0 -56.667 -6.5 -110.5 -19.5 -161.5s-32 -95.833 -57 -134.5s-56 -69.5 -93 -92.5s-79.5 -34.5 -127.5 -34.5c-40.667 0 -75.167 6 -103.5 18
s-51.166 29.333 -68.499 52s-30 50.5 -38 83.5s-12 70.5 -12 112.5c0 52.667 5 105 15 157s26.833 98.333 50.5 139s54.834 73.667 93.501 99s86.667 38 144 38zM373.996 669c-55.333 0 -100.834 -12.832 -136.501 -38.499s-64.167 -58.5 -85.5 -98.5
s-36.166 -84.167 -44.499 -132.5s-12.5 -95.166 -12.5 -140.499c0 -80 15 -140.5 45 -181.5s79.667 -61.5 149 -61.5c48.667 0 90.334 12 125.001 36s63 55.167 85 93.5s38.167 81.166 48.5 128.499s15.5 94.333 15.5 141c0 31.333 -2.5 62.166 -7.5 92.499
s-14.5 57.5 -28.5 81.5s-33.333 43.333 -58 58s-56.334 22 -95.001 22z" />
    <glyph glyph-name="P" unicode="P" horiz-adv-x="468" 
d="M50 0l83.001 682h187c22.667 0 44.334 -3.16699 65.001 -9.5s38.5 -16 53.5 -29s27 -29.333 36 -49s13.5 -43.167 13.5 -70.5c0 -24 -3.33301 -49.333 -10 -76s-18.334 -51 -35.001 -73s-38.834 -40.333 -66.501 -55s-62.5 -22 -104.5 -22h-160l-36 -298h-26z
M283.001 322c17.333 0 36.499 3.16699 57.499 9.5s40.5 17 58.5 32s33.167 35.333 45.5 61s18.5 57.834 18.5 96.501c0 22.667 -3.66699 42.667 -11 60s-17.333 31.666 -30 42.999s-27.667 19.833 -45 25.5s-35.666 8.5 -54.999 8.5h-166l-41 -336h168z" />
    <glyph glyph-name="Q" unicode="Q" horiz-adv-x="629" 
d="M373 692c42 0 76.8301 -7.33398 104.497 -22.001s49.834 -34.5 66.501 -59.5s28.334 -54.333 35.001 -88s10 -69.167 10 -106.5c0 -49.333 -4.83301 -96.5 -14.5 -141.5s-24 -85.667 -43 -122s-42.333 -67.666 -70 -93.999s-59.834 -44.833 -96.501 -55.5l165 -45
l-16 -33l-196 70c-4.66699 -0.666992 -9 -1.16699 -13 -1.5s-8.33301 -0.5 -13 -0.5c-40.667 0 -75.167 6 -103.5 18s-51.166 29.333 -68.499 52s-30 50.5 -38 83.5s-12 70.5 -12 112.5c0 52.667 5 105 15 157s26.833 98.333 50.5 139s54.834 73.667 93.501 99
s86.667 38 144 38zM373.997 668.999c-55.333 0 -100.834 -12.832 -136.501 -38.499s-64.167 -58.5 -85.5 -98.5s-36.166 -84.167 -44.499 -132.5s-12.5 -95.166 -12.5 -140.499c0 -80 15 -140.5 45 -181.5s79.667 -61.5 149 -61.5c48.667 0 90.334 12 125.001 36
s63 55.167 85 93.5s38.167 81.166 48.5 128.499s15.5 94.333 15.5 141c0 31.333 -2.5 62.166 -7.5 92.499s-14.5 57.5 -28.5 81.5s-33.333 43.333 -58 58s-56.334 22 -95.001 22z" />
    <glyph glyph-name="R" unicode="R" horiz-adv-x="515" 
d="M76 0l-25.999 -0.00195312l83 682h185c32.667 0 60.167 -4.16699 82.5 -12.5s40 -19.666 53 -33.999s22.333 -31 28 -50s8.5 -39.167 8.5 -60.5c0 -20 -2.83301 -40.5 -8.5 -61.5s-14.334 -40.833 -26.001 -59.5s-26.667 -35.167 -45 -49.5
s-40.166 -24.166 -65.499 -29.499c28 -9.33301 48 -23.5 60 -42.5s20.667 -42.5 26 -70.5l33 -212h-26l-33 205c-4 22.667 -10.333 41.334 -19 56.001s-19 26.167 -31 34.5s-25.333 14.166 -40 17.499s-30.334 5 -47.001 5h-153zM156.001 657.998l-39 -316.001h167
c54 0 97.333 15.167 130 45.5s49 75.5 49 135.5c0 44.667 -12.833 78.334 -38.5 101.001s-60.5 34 -104.5 34h-164z" />
    <glyph glyph-name="S" unicode="S" horiz-adv-x="503" 
d="M313 693c10 0 21.3311 -0.330078 33.998 -0.99707s26 -2 40 -4s28.333 -4.66699 43 -8s29 -7.66602 43 -12.999l-10 -25c-32 10 -59.833 16.667 -83.5 20s-47.167 5 -70.5 5c-21.333 0 -43.333 -2.5 -66 -7.5s-43.167 -13.5 -61.5 -25.5s-33.5 -27.833 -45.5 -47.5
s-18 -44.167 -18 -73.5c0 -22 4.16699 -40.5 12.5 -55.5s19.833 -27.667 34.5 -38s32 -19.5 52 -27.5s41.667 -16 65 -24l67 -25c22.667 -8.66699 43 -19.667 61 -33s32.667 -29.833 44 -49.5s17 -44.5 17 -74.5c0 -36 -7.5 -66.333 -22.5 -91s-34.5 -44.5 -58.5 -59.5
s-51.333 -25.833 -82 -32.5s-61.667 -10 -93 -10c-32 0 -65.333 3.66699 -100 11s-66.334 19.666 -95.001 36.999l13 22c32.667 -17.333 64 -29.333 94 -36s59 -10 87 -10c27.333 0 54.666 2.66699 81.999 8s52 14.5 74 27.5s39.833 30.333 53.5 52s20.5 49.167 20.5 82.5
c0 22 -3.83301 40.833 -11.5 56.5s-18.834 29.5 -33.501 41.5s-32.167 22.5 -52.5 31.5s-43.166 17.833 -68.499 26.5c-28 9.33301 -53.667 18.666 -77 27.999s-43.166 20.166 -59.499 32.499s-29 27.166 -38 44.499s-13.5 38.666 -13.5 63.999c0 32 6.33301 59.5 19 82.5
s29.334 41.833 50.001 56.5s44.334 25.334 71.001 32.001s54.334 10 83.001 10z" />
    <glyph glyph-name="T" unicode="T" horiz-adv-x="482" 
d="M520 658h-212l-81 -658h-24l80 658h-213l3 24h449z" />
    <glyph glyph-name="U" unicode="U" horiz-adv-x="622" 
d="M577 682l25.002 0.000976562l-54 -443c-4.66699 -36 -13 -69.167 -25 -99.5s-28.167 -56.333 -48.5 -78s-45.333 -38.5 -75 -50.5s-64.167 -18 -103.5 -18c-80.667 0 -138.5 21.833 -173.5 65.5s-47.833 103.834 -38.5 180.501l54 443h24l-53 -440
c-9.33301 -74.667 2.16699 -130.834 34.5 -168.501s84.166 -56.5 155.499 -56.5c34 0 64.167 5.5 90.5 16.5s48.666 26.5 66.999 46.5s33 43.667 44 71s18.5 57.666 22.5 90.999z" />
    <glyph glyph-name="V" unicode="V" horiz-adv-x="476" 
d="M491 682h25l-286 -682h-35l-120 682h25l91 -528l22 -127h3l53 131z" />
    <glyph glyph-name="W" unicode="W" horiz-adv-x="745" 
d="M414 641l-66 -189l-160 -452h-37l-76 682h23l52 -469l21 -187h3l58 165l175 491h27l68 -478l25 -178h3l58 167l173 489h24l-242 -682h-36l-64 456l-25 185h-4z" />
    <glyph glyph-name="X" unicode="X" horiz-adv-x="474" 
d="M250 329l-231 -329h-29l248 352l-151 330h25l141 -306l214 306h27l-230 -330l163 -352h-26z" />
    <glyph glyph-name="Y" unicode="Y" horiz-adv-x="441" 
d="M193 450l39 -109h3l64 99l157 242h30l-241 -368l-38 -314h-25l38 311l-145 371h27z" />
    <glyph glyph-name="Z" unicode="Z" horiz-adv-x="451" 
d="M-3 0l-4 27l454 631h-354l3 24h374l3 -27l-452 -630h392l-3 -25h-413z" />
    <glyph glyph-name="bracketleft" unicode="[" horiz-adv-x="217" 
d="M16 -160l105 856h119l-4 -29h-92l-98 -799h92l-3 -28h-119z" />
    <glyph glyph-name="backslash" unicode="\" horiz-adv-x="298" 
d="M67 697h23l163 -722h-25z" />
    <glyph glyph-name="bracketright" unicode="]" horiz-adv-x="217" 
d="M-4 -160l3 28h92l98 799h-92l4 29h119l-105 -856h-119z" />
    <glyph glyph-name="asciicircum" unicode="^" horiz-adv-x="402" 
d="M368 404l-111 255l-174 -255h-30l194 279h29l120 -279h-28z" />
    <glyph glyph-name="underscore" unicode="_" horiz-adv-x="485" 
d="M-38 -113l2 21h484l-2 -21h-484z" />
    <glyph glyph-name="grave" unicode="`" horiz-adv-x="451" 
d="M296 543l-113 124l27 22l100 -135z" />
    <glyph glyph-name="a" unicode="a" horiz-adv-x="464" 
d="M433 26l1.00098 -16c-23.333 -8.66699 -43.666 -13 -60.999 -13c-12 0 -20.167 2.5 -24.5 7.5s-5.5 14.167 -3.5 27.5l5 37l-1 2c-30.667 -25.333 -60 -44.5 -88 -57.5s-57 -19.5 -87 -19.5c-38.667 0 -70.334 14.167 -95.001 42.5s-37.334 68.5 -38.001 120.5
c0 42.667 4.5 84 13.5 124s23.167 75.5 42.5 106.5s43.5 56 72.5 75s63.5 28.5 103.5 28.5c22 0 43.5 -3 64.5 -9s42.167 -14 63.5 -24l7 28h17l-57 -461zM269.001 469c-29.333 0 -56.333 -6.99902 -81 -20.999s-46.167 -34.167 -64.5 -60.5s-32.666 -58.333 -42.999 -96
s-15.5 -79.834 -15.5 -126.501c0 -51.333 11 -89.166 33 -113.499s48 -36.5 78 -36.5c30.667 0 60.667 8.33301 90 25s58.666 36.667 87.999 60l43 333c-24.667 13.333 -47.167 22.666 -67.5 27.999s-40.5 8 -60.5 8z" />
    <glyph glyph-name="b" unicode="b" horiz-adv-x="467" 
d="M40 33l86.001 675.002h23c-3.33301 -27.333 -6.33301 -53.166 -9 -77.499l-8 -72c-2.66699 -23.667 -5.66699 -47.5 -9 -71.5s-7 -49 -11 -75l1 -2c32 25.333 62 45.666 90 60.999s57 23 87 23c18.667 0 36.167 -3.33301 52.5 -10s30.666 -16.834 42.999 -30.501
s22.166 -30.834 29.499 -51.501s11 -44.667 11 -72c0 -44 -5 -86.333 -15 -127s-25.333 -76.5 -46 -107.5s-46.167 -55.667 -76.5 -74s-65.833 -27.5 -106.5 -27.5c-22.667 0 -46.167 2.5 -70.5 7.5s-47.166 13.167 -68.499 24.5zM184.001 16.002
c29.333 0 57.165 6.83105 83.498 20.498s49.333 33.5 69 59.5s35.334 58.333 47.001 97s17.5 83 17.5 133c0 26 -3 48.167 -9 66.5s-14.167 33.333 -24.5 45s-22.333 20.167 -36 25.5s-27.834 8 -42.501 8c-15.333 0 -30.666 -2.66699 -45.999 -8
s-30.666 -12.166 -45.999 -20.499s-30.333 -17.666 -45 -27.999s-28.667 -20.833 -42 -31.5l-45 -341c21.333 -10.667 42 -17.667 62 -21s39 -5 57 -5z" />
    <glyph glyph-name="c" unicode="c" horiz-adv-x="405" 
d="M269 492c23.333 0 46.165 -2.33398 68.498 -7.00098s41.5 -10.667 57.5 -18l-9 -20c-23.333 9.33301 -45.333 15.5 -66 18.5s-38.334 4.5 -53.001 4.5c-32.667 0 -61.5 -7.33301 -86.5 -22s-46.167 -35 -63.5 -61s-30.5 -57.167 -39.5 -93.5
s-13.5 -76.166 -13.5 -119.499c0 -22 2.16699 -42.833 6.5 -62.5s11.833 -36.667 22.5 -51s24.5 -25.666 41.5 -33.999s38.5 -12.5 64.5 -12.5c27.333 0 52.333 3 75 9s48 14.667 76 26l9 -17c-19.333 -10.667 -43.166 -19.834 -71.499 -27.501s-57.166 -11.5 -86.499 -11.5
s-54.166 4.5 -74.499 13.5s-36.833 21.5 -49.5 37.5s-21.834 35.333 -27.501 58s-8.5 47.667 -8.5 75c0 15.333 1 33.833 3 55.5s6 44.167 12 67.5s14.333 46.5 25 69.5s24.334 43.5 41.001 61.5s37 32.667 61 44s52.667 17 86 17z" />
    <glyph glyph-name="d" unicode="d" horiz-adv-x="451" 
d="M341 0l9.00195 69l-1 2c-30.667 -25.333 -60 -44.5 -88 -57.5s-57 -19.5 -87 -19.5c-38.667 0 -70.334 14.167 -95.001 42.5s-37.334 68.5 -38.001 120.5c0 42.667 4.5 84 13.5 124s23.167 75.5 42.5 106.5s43.5 56 72.5 75s63.5 28.5 103.5 28.5c22 0 43.5 -3 64.5 -9
s42.167 -14 63.5 -24l31 250h21l-88 -708h-24zM269.002 469c-29.333 0 -56.333 -7 -81 -21s-46.167 -34.167 -64.5 -60.5s-32.666 -58.333 -42.999 -96s-15.5 -79.834 -15.5 -126.501c0 -51.333 11 -89.166 33 -113.499s48 -36.5 78 -36.5c30.667 0 60.667 8.33301 90 25
s58.666 36.667 87.999 60l43 334c-24.667 13.333 -47.167 22.5 -67.5 27.5s-40.5 7.5 -60.5 7.5z" />
    <glyph glyph-name="e" unicode="e" horiz-adv-x="402" 
d="M194 -6c-30.667 0 -56.0039 4.83301 -76.0039 14.5s-35.667 22.834 -47 39.501s-19.333 36 -24 58s-7 45.333 -7 70c0 30 3.66699 63.333 11 100s19.833 70.834 37.5 102.501s41.334 58.334 71.001 80.001s66.834 32.5 111.501 32.5c22 0 40.667 -3.16699 56 -9.5
s27.833 -14.5 37.5 -24.5s16.667 -21.333 21 -34s6.5 -25.334 6.5 -38.001c0 -33.333 -9.16699 -61 -27.5 -83s-42.666 -39.833 -72.999 -53.5s-65.166 -23.834 -104.499 -30.501s-79.666 -11.334 -120.999 -14.001c-1.33301 -8.66699 -2 -15.667 -2 -21v-15
c0 -17.333 1.83301 -35 5.5 -53s10.334 -34.5 20.001 -49.5s23.167 -27.333 40.5 -37s39.666 -14.5 66.999 -14.5c48 0 96 11 144 33l8 -18c-42.667 -23.333 -94.334 -35 -155.001 -35zM266.996 469c-29.333 0 -55.667 -6.83203 -79 -20.499s-43.5 -31.834 -60.5 -54.501
s-30.667 -48.5 -41 -77.5s-16.833 -58.833 -19.5 -89.5c94 4.66699 167.5 19.167 220.5 43.5s79.5 60.833 79.5 109.5c0 26.667 -8.16699 48.167 -24.5 64.5s-41.5 24.5 -75.5 24.5z" />
    <glyph glyph-name="f" unicode="f" horiz-adv-x="268" 
d="M297 721c8.66699 0 19.0039 -0.331055 31.0039 -0.998047s24 -2.33398 36 -5.00098l-4 -21c-13.333 2 -24.833 3.33301 -34.5 4s-18.834 1 -27.501 1c-17.333 0 -33.5 -1.66699 -48.5 -5s-28.333 -11.5 -40 -24.5s-21.834 -32 -30.501 -57
s-15.334 -58.833 -20.001 -101.5l-2 -25h140l-3 -23h-140l-22 -203c-7.33301 -68.667 -14.666 -134 -21.999 -196c-4 -38.667 -9 -75 -15 -109s-15 -63.833 -27 -89.5s-28.167 -45.834 -48.5 -60.501s-46.833 -22 -79.5 -22c-8.66699 0 -19.167 0.666992 -31.5 2
s-24.833 3.66602 -37.5 6.99902l5 19l33.5 -5.5c10.333 -1.66699 19.833 -2.5 28.5 -2.5c19.333 0 36.666 3.16699 51.999 9.5s28.666 17 39.999 32s20.833 35 28.5 60s13.834 56.5 18.501 94.5c8.66699 66.667 16 126 22 178l15.5 135
c4.33301 38 7.66602 69.333 9.99902 94l5.5 57h-79l2 15l80 11l3 31c4 32.667 9.5 61.667 16.5 87s16.667 46.333 29 63s27.833 29.334 46.5 38.001s41.667 13 69 13z" />
    <glyph glyph-name="g" unicode="g" horiz-adv-x="466" 
d="M375 12c-3.33301 -26 -7.99902 -52.6699 -13.999 -80.0029s-16.333 -52.166 -31 -74.499s-35.334 -40.833 -62.001 -55.5s-62.667 -22 -108 -22c-23.333 0 -45.666 2.83301 -66.999 8.5s-39 11.5 -53 17.5l10 22c17.333 -8 36.166 -14 56.499 -18s40.166 -6 59.499 -6
c38 0 68.167 5.83301 90.5 17.5s40 27.667 53 48s22.5 44.5 28.5 72.5s11.333 58.333 16 91l6 41l-1 2c-30 -26 -59.667 -46.5 -89 -61.5s-59 -22.5 -89 -22.5c-18.667 0 -36.167 3.33301 -52.5 10s-30.666 16.834 -42.999 30.501s-22.166 30.834 -29.499 51.501
s-11 44.667 -11 72c0 44 5 86.333 15 127s25.333 76.5 46 107.5s46.167 55.667 76.5 74s65.833 27.5 106.5 27.5c22.667 0 46.167 -2.5 70.5 -7.5s47.166 -13.167 68.499 -24.5l3 -7zM287.001 469.997c-29.333 0 -57.1641 -6.83203 -83.4971 -20.499
s-49.333 -33.5 -69 -59.5s-35.334 -58.333 -47.001 -97s-17.5 -83 -17.5 -133c0 -26 3 -48.167 9 -66.5s14.167 -33.333 24.5 -45s22.166 -20.334 35.499 -26.001s27.666 -8.5 42.999 -8.5c30.667 0 61 8.83301 91 26.5s59.333 38.5 88 62.5l45 341
c-21.333 10.667 -42 17.667 -62 21s-39 5 -57 5z" />
    <glyph glyph-name="h" unicode="h" horiz-adv-x="446" 
d="M109 406c36 26.667 69.833 47.8301 101.5 63.4971s62.5 23.5 92.5 23.5c20.667 0 37.667 -2.66699 51 -8s24 -12.666 32 -21.999s13.5 -20.166 16.5 -32.499s4.5 -25.166 4.5 -38.499c0 -4 -0.166992 -8.16699 -0.5 -12.5s-0.833008 -8.83301 -1.5 -13.5l-41 -366h-23
l39 338c1.33301 6.66699 2.33301 15.667 3 27s1 19.333 1 24c0 11.333 -1.16699 22 -3.5 32s-6.66602 18.833 -12.999 26.5s-15 13.667 -26 18s-25.167 6.5 -42.5 6.5c-16 0 -32 -2.66699 -48 -8s-32 -12.333 -48 -21s-32.333 -18.667 -49 -30s-33.334 -23.333 -50.001 -36
l-47 -377h-22l86 708h23l-38 -300z" />
    <glyph glyph-name="i" unicode="i" horiz-adv-x="182" 
d="M55 0l60 486h22l-59 -486h-23zM142 633c6.66699 0 11.833 -1.99902 15.5 -5.99902s5.5 -9 5.5 -15c0 -7.33301 -2.5 -13.833 -7.5 -19.5s-11.5 -8.5 -19.5 -8.5c-5.33301 0 -9.83301 2.16699 -13.5 6.5s-5.5 9.5 -5.5 15.5c0 7.33301 2.83301 13.666 8.5 18.999
s11.167 8 16.5 8z" />
    <glyph glyph-name="j" unicode="j" horiz-adv-x="189" 
d="M122 486h23l-61 -495c-3.33301 -26 -7.5 -49.167 -12.5 -69.5s-12.833 -38.5 -23.5 -54.5s-25.167 -30 -43.5 -42s-42.5 -22.667 -72.5 -32l-5 19c26.667 8 48 17.5 64 28.5s28.667 23.167 38 36.5s16 28.333 20 45s7.33301 35 10 55zM148 633
c6.66699 0 11.833 -1.99902 15.5 -5.99902s5.5 -9 5.5 -15c0 -7.33301 -2.5 -13.833 -7.5 -19.5s-11.5 -8.5 -19.5 -8.5c-5.33301 0 -9.83301 2.16699 -13.5 6.5s-5.5 9.5 -5.5 15.5c0 7.33301 2.66699 13.666 8 18.999s11 8 17 8z" />
    <glyph glyph-name="k" unicode="k" horiz-adv-x="383" 
d="M90 239l27 23.5l44.5 40l78.5 70l128 113.5h30l-212 -189l24 -38l139 -259h-26l-152 283l-88 -77l-25 -206h-23l86 708h23l-38 -317l-9.5 -75.5l-9.5 -75.5z" />
    <glyph glyph-name="l" unicode="l" horiz-adv-x="182" 
d="M158 708l-84 -684l65 2l2 -16c-11.333 -4.66699 -22.5 -8 -33.5 -10s-20.5 -3 -28.5 -3c-19.333 0 -29 7 -29 21v7c0 2.66699 0.333008 5.66699 1 9l84 674h23z" />
    <glyph glyph-name="m" unicode="m" horiz-adv-x="737" 
d="M109 406c34.667 26.667 66.498 47.9971 95.498 63.9971s58.5 24 88.5 24c19.333 0 35.5 -2.5 48.5 -7.5s23.667 -11.667 32 -20s14.5 -18 18.5 -29s6.33301 -22.833 7 -35.5c35.333 29.333 69 52 101 68s63 24 93 24c20.667 0 37.667 -2.83301 51 -8.5
s24 -13.167 32 -22.5s13.5 -20.166 16.5 -32.499s4.5 -25.166 4.5 -38.499c0 -4 -0.166992 -8.16699 -0.5 -12.5s-0.833008 -8.83301 -1.5 -13.5l-41 -366h-23l40 349c2 12.667 3 26 3 40c0 11.333 -1.16699 22 -3.5 32s-6.66602 18.833 -12.999 26.5s-15 13.834 -26 18.501
s-25.167 7 -42.5 7c-32 0 -63.5 -9.33301 -94.5 -28s-63.167 -41.334 -96.5 -68.001c0 -1.33301 -0.166992 -3 -0.5 -5s-0.5 -4 -0.5 -6l-41 -366h-23l40 349c2 12.667 3 26 3 40c0 11.333 -1.16699 22 -3.5 32s-6.66602 18.833 -12.999 26.5s-15 13.834 -26 18.501
s-25.167 7 -42.5 7c-16 0 -31.833 -2.66699 -47.5 -8s-31.167 -12.5 -46.5 -21.5s-30.833 -19.167 -46.5 -30.5l-47.5 -36l-46 -377h-22l58 486h23l-10 -78z" />
    <glyph glyph-name="n" unicode="n" horiz-adv-x="447" 
d="M112 406c36 26.667 69.332 47.9971 99.999 63.9971s61 24 91 24c20.667 0 37.667 -2.83301 51 -8.5s24 -13.167 32 -22.5s13.5 -20.166 16.5 -32.499s4.5 -25.166 4.5 -38.499c0 -4 -0.166992 -8.16699 -0.5 -12.5s-0.833008 -8.83301 -1.5 -13.5l-41 -366h-23l40 349
c2 12.667 3 26 3 40c0 11.333 -1.16699 22 -3.5 32s-6.66602 18.833 -12.999 26.5s-15 13.834 -26 18.501s-25.167 7 -42.5 7c-16 0 -31.833 -2.66699 -47.5 -8s-31.5 -12.5 -47.5 -21.5s-32.167 -19.167 -48.5 -30.5l-49.5 -36l-49 -377h-22l61 486h23l-10 -78z" />
    <glyph glyph-name="o" unicode="o" horiz-adv-x="453" 
d="M256 491c30 0 55.1641 -5.33398 75.4971 -16.001s36.5 -24.667 48.5 -42s20.5 -37.666 25.5 -60.999s7.5 -47.333 7.5 -72c0 -30.667 -3.16699 -64 -9.5 -100s-17.5 -69.333 -33.5 -100s-38 -56.167 -66 -76.5s-63.333 -30.5 -106 -30.5c-31.333 0 -57.166 5 -77.499 15
s-36.5 23.5 -48.5 40.5s-20.333 36.833 -25 59.5s-7 46.667 -7 72c0 33.333 3.66699 68.333 11 105s19.333 70.167 36 100.5s38.834 55.5 66.501 75.5s61.834 30 102.501 30zM255.997 469.999c-36.667 0 -67.333 -9.33398 -92 -28.001s-44.5 -42.334 -59.5 -71.001
s-25.667 -60.167 -32 -94.5s-9.5 -66.833 -9.5 -97.5c0 -21.333 1.83301 -41.833 5.5 -61.5s10.5 -37.167 20.5 -52.5s24 -27.666 42 -36.999s41.333 -14 70 -14c26 0 48.667 4.66699 68 14s36 21.833 50 37.5s25.5 33.334 34.5 53.001s16.167 40 21.5 61s9 41.5 11 61.5
s3 38.333 3 55c0 21.333 -1.83301 42.5 -5.5 63.5s-10.5 39.667 -20.5 56s-23.667 29.5 -41 39.5s-39.333 15 -66 15z" />
    <glyph glyph-name="p" unicode="p" horiz-adv-x="457" 
d="M116 486l-9.00293 -69l1 -2c32 25.333 61.667 44.5 89 57.5s56 19.5 86 19.5c38.667 0 70.334 -14.167 95.001 -42.5s37.334 -68.5 38.001 -120.5c0 -42.667 -4.5 -84 -13.5 -124s-23.167 -75.5 -42.5 -106.5s-43.5 -56 -72.5 -75s-63.5 -28.5 -103.5 -28.5
c-22 0 -43.167 3 -63.5 9s-41.166 14 -62.499 24l-31 -241h-21l86 699h24zM187.997 17c28.667 0 55.5 7 80.5 21s46.667 34.167 65 60.5s32.666 58.333 42.999 96s15.5 79.834 15.5 126.501c0 51.333 -11 89.166 -33 113.499s-48 36.5 -78 36.5
c-30.667 0 -60.667 -8.33301 -90 -25s-58.666 -36.667 -87.999 -60l-43 -334c24.667 -13.333 47.167 -22.5 67.5 -27.5s40.5 -7.5 60.5 -7.5z" />
    <glyph glyph-name="q" unicode="q" horiz-adv-x="457" 
d="M427 453l-83.001 -666.002h-24l9.5 76.5l8.5 71c2.66699 23 5.5 45.833 8.5 68.5l9.5 71l-1 2c-30 -26 -59.667 -46.5 -89 -61.5s-59 -22.5 -89 -22.5c-18.667 0 -36.167 3.33301 -52.5 10s-30.666 16.834 -42.999 30.501s-22.166 30.834 -29.499 51.501
s-11 44.667 -11 72c0 44 5 86.333 15 127s25.333 76.5 46 107.5s46.167 55.667 76.5 74s65.833 27.5 106.5 27.5c22.667 0 46.167 -2.5 70.5 -7.5s47.166 -13.167 68.499 -24.5zM282.999 469.998c-29.333 0 -57.1641 -6.83203 -83.4971 -20.499s-49.333 -33.5 -69 -59.5
s-35.334 -58.333 -47.001 -97s-17.5 -83 -17.5 -133c0 -26 3 -48.167 9 -66.5s14.167 -33.333 24.5 -45s22.166 -20.334 35.499 -26.001s27.666 -8.5 42.999 -8.5c30.667 0 61 8.83301 91 26.5s59.333 38.5 88 62.5l45 341c-21.333 10.667 -42 17.667 -62 21s-39 5 -57 5z
" />
    <glyph glyph-name="r" unicode="r" horiz-adv-x="260" 
d="M118 393c17.333 37.333 35.3369 62.834 54.0039 76.501s37.667 20.5 57 20.5c11.333 0 22.166 -1.83301 32.499 -5.5s19.166 -11.167 26.499 -22.5l-13 -16c-10 5.33301 -18.833 8.66602 -26.5 9.99902s-14.834 2 -21.501 2c-15.333 0 -28.833 -3.66699 -40.5 -11
s-22.167 -16.833 -31.5 -28.5s-17.833 -24.667 -25.5 -39s-14.5 -28.5 -20.5 -42.5l-21.5 -168.5l-21.5 -168.5h-22l29.5 238l29.5 248h23c-2 -15.333 -3.83301 -30.5 -5.5 -45.5s-3.83398 -30.833 -6.50098 -47.5h4z" />
    <glyph glyph-name="s" unicode="s" horiz-adv-x="367" 
d="M226 490c6.66699 0 14.501 -0.50293 23.501 -1.50293s18.833 -2.5 29.5 -4.5s21.334 -4.66699 32.001 -8s21 -7.66602 31 -12.999l-10 -19c-20 9.33301 -40 16 -60 20s-36 6 -48 6c-17.333 0 -34 -1.83301 -50 -5.5s-30.5 -9.66699 -43.5 -18
s-23.333 -19.166 -31 -32.499s-11.5 -29.666 -11.5 -48.999c0 -14 3 -26.167 9 -36.5s14 -19.5 24 -27.5s21.5 -15 34.5 -21l40.5 -18c18 -7.33301 35.333 -14.833 52 -22.5s31.334 -16.167 44.001 -25.5s22.667 -20.5 30 -33.5s11 -28.5 11 -46.5
c0 -24 -4.83301 -44.833 -14.5 -62.5s-22.667 -32.334 -39 -44.001s-35.166 -20.167 -56.499 -25.5s-43.333 -8 -66 -8c-28 0 -55.5 2.83301 -82.5 8.5s-50.167 15.167 -69.5 28.5l11 17c22 -13.333 44.667 -22.333 68 -27s43.666 -7 60.999 -7c21.333 0 42 2 62 6
s37.667 10.667 53 20s27.5 21.5 36.5 36.5s13.5 33.5 13.5 55.5c0 13.333 -2.83301 25.166 -8.5 35.499s-13.334 19.5 -23.001 27.5s-21.167 15.5 -34.5 22.5s-28 13.5 -44 19.5c-17.333 6.66699 -34.166 13.834 -50.499 21.501s-30.833 16.167 -43.5 25.5
s-22.834 20.333 -30.501 33s-11.5 27.334 -11.5 44.001c0 24.667 4.83301 45.167 14.5 61.5s22.167 29.5 37.5 39.5s32.666 17.167 51.999 21.5s38.666 6.5 57.999 6.5z" />
    <glyph glyph-name="t" unicode="t" horiz-adv-x="296" 
d="M109 101c-0.666992 -5.33301 -1.16699 -10.668 -1.5 -16.001s-0.5 -10.333 -0.5 -15c0 -15.333 3.83301 -27.666 11.5 -36.999s23.167 -14 46.5 -14c13.333 0 29 1.5 47 4.5s36 7.16699 54 12.5l6 -17c-16 -6.66699 -34.333 -12 -55 -16s-39.667 -6 -57 -6
c-22 0 -40.167 4.83301 -54.5 14.5s-21.5 28.5 -21.5 56.5c0 4 0.166992 8 0.5 12s0.833008 8.33301 1.5 13l45 370h-67l2 15l68 11l18 85l15 2l-11 -90h136l-3 -23h-136z" />
    <glyph glyph-name="u" unicode="u" horiz-adv-x="437" 
d="M337 80c-39.333 -30 -73.667 -52.1641 -103 -66.4971s-58.666 -21.5 -87.999 -21.5c-20.667 0 -37.5 2.66699 -50.5 8s-23.333 12.666 -31 21.999s-12.834 20.166 -15.501 32.499s-4 25.166 -4 38.499c0 4 0.166992 8.16699 0.5 12.5s0.833008 8.83301 1.5 13.5l42 367
h23l-41 -350c-2 -13.333 -3 -26.666 -3 -39.999c0 -11.333 1 -22 3 -32s6 -18.833 12 -26.5s14.333 -13.667 25 -18s24.667 -6.5 42 -6.5c28 0 58 8.66699 90 26s66.333 40.666 103 69.999l47 377h22l-59 -486h-23l10 78z" />
    <glyph glyph-name="v" unicode="v" horiz-adv-x="373" 
d="M59 486l29.499 -140.5l31.5 -144.5c6.66699 -29.333 12.834 -59 18.501 -89l16.5 -88h2l36 87l37 85l131 300l22 -9l-215 -487h-31c-14.667 76.667 -31 154.667 -49 234s-35.667 163.333 -53 252h24v0z" />
    <glyph glyph-name="w" unicode="w" horiz-adv-x="620" 
d="M322 452l-41 -100l-143 -352h-33l-70 486h23l44 -317l20 -146h3l63 156l125 307h25l65 -343l22 -120h3l49 127l131 344l22 -5l-189 -489h-33l-63 336l-22 116h-1z" />
    <glyph glyph-name="x" unicode="x" horiz-adv-x="359" 
d="M184 240l-180 -254l-19 14l189 259l-110 227h25l99 -208l157 222l19 -13l-166 -227l129 -260h-26z" />
    <glyph glyph-name="y" unicode="y" horiz-adv-x="385" 
d="M133 -119c-14 -30.667 -28.832 -54.999 -44.499 -72.999s-37.834 -27 -66.501 -27c-9.33301 0 -21.5 1.16699 -36.5 3.5s-31.833 7.16602 -50.5 14.499l7 19c17.333 -6 32 -10.167 44 -12.5s23.333 -3.5 34 -3.5c5.33301 0 11.5 0.666992 18.5 2
s14.333 4.66602 22 9.99902s15.5 13.333 23.5 24s16 25.334 24 44.001l52 118h-13l-103 486h23l61 -291l37 -177h4c2 4 5.33301 11.333 10 22l17 40l22.5 54l26.5 62l128 298l23 -6z" />
    <glyph glyph-name="z" unicode="z" horiz-adv-x="377" 
d="M22 22l310 1l-2 -23h-335l-5 22l359 439l-2 2h-278l3 23h300l7 -23l-358 -439z" />
    <glyph glyph-name="braceleft" unicode="{" horiz-adv-x="217" 
d="M110 -160c-20.667 0 -34.499 6.99902 -41.499 20.999s-9.16699 31.667 -6.5 53l32 258c1.33301 10.667 2.16602 22.334 2.49902 35.001s-1 24.5 -4 35.5s-8.5 20.667 -16.5 29s-19.667 14.166 -35 17.499l3 21c15.333 2.66699 28 8.16699 38 16.5s17.833 18 23.5 29
s10 22.833 13 35.5s5.16699 25.334 6.5 38.001l23 188c2.66699 21.333 10 40 22 56s29 24 51 24h29l-3 -28h-21c-16 0 -28 -4.83301 -36 -14.5s-13.333 -25.167 -16 -46.5l-22 -181c-1.33301 -12.667 -3.5 -25.5 -6.5 -38.5s-7.33301 -25.333 -13 -37s-12.5 -22 -20.5 -31
s-17.667 -15.5 -29 -19.5c22 -12.667 34.667 -29.5 38 -50.5s3.33301 -46.5 0 -76.5l-30 -247c-2.66699 -16.667 -2.66699 -31 0 -43s13 -18 31 -18h26l-3 -26h-35z" />
    <glyph glyph-name="bar" unicode="|" horiz-adv-x="196" 
d="M105 -134v829h25v-829h-25z" />
    <glyph glyph-name="braceright" unicode="}" horiz-adv-x="217" 
d="M-14 -160l3.00195 25.998h26c18 0 29.667 6 35 18s9.33301 26.333 12 43l30 247c2 14.667 4.16699 28.334 6.5 41.001s6 24.334 11 35.001s11.5 20.334 19.5 29.001s18.333 16 31 22c-10 4 -17.833 10.5 -23.5 19.5s-9.83398 19.333 -12.501 31s-3.83398 24 -3.50098 37
s1.16602 25.833 2.49902 38.5l22 181c2.66699 21.333 1.33398 36.833 -3.99902 46.5s-16 14.5 -32 14.5h-21l3 28h29c22 0 37 -8 45 -24s10.667 -34.667 8 -56l-23 -188c-1.33301 -12.667 -2.16602 -25.334 -2.49902 -38.001s1.16699 -24.5 4.5 -35.5
s8.83301 -20.667 16.5 -29s19.167 -13.833 34.5 -16.5l-3 -21c-16 -3.33301 -29 -9.16602 -39 -17.499s-17.833 -18 -23.5 -29s-9.83398 -22.833 -12.501 -35.5s-4.66699 -24.334 -6 -35.001l-32 -258c-2.66699 -21.333 -9.16699 -39 -19.5 -53s-25.833 -21 -46.5 -21h-35z
" />
    <glyph glyph-name="asciitilde" unicode="~" horiz-adv-x="485" 
d="M421 308l10.001 -7c-10.667 -20 -20.334 -33.667 -29.001 -41s-18.667 -11 -30 -11c-16.667 0 -36 1.83301 -58 5.5s-44.333 7.66699 -67 12l-65.5 12c-21 3.66699 -38.833 5.5 -53.5 5.5l-46 -40l-12 8c12 20 22.667 34.167 32 42.5s20.333 12.5 33 12.5
c14.667 0 33.167 -1.83301 55.5 -5.5s45.333 -7.66699 69 -12l67.5 -12c21.333 -3.66699 38 -5.5 50 -5.5z" />
    <glyph glyph-name="exclamdown" unicode="&#xa1;" horiz-adv-x="179" 
d="M116 325l-21 -213l-39 -319h-25l39 319l33 213h13zM132 493c6.66699 0 12.334 -2.66699 17.001 -8s7 -12.333 7 -21c0 -9.33301 -3.33301 -17.333 -10 -24s-14.334 -10 -23.001 -10c-7.33301 0 -13.5 2.5 -18.5 7.5s-7.5 11.5 -7.5 19.5c0 10 3.66699 18.5 11 25.5
s15.333 10.5 24 10.5z" />
    <glyph glyph-name="cent" unicode="&#xa2;" horiz-adv-x="485" 
d="M307 492c23.333 0 46.166 -2.33105 68.499 -6.99805s41.5 -10.667 57.5 -18l-9 -20c-23.333 9.33301 -45.333 15.5 -66 18.5s-38.334 4.5 -53.001 4.5h-3l-56 -456c24.667 0.666992 47.834 3.83398 69.501 9.50098s45.834 14.167 72.501 25.5l9 -17
c-19.333 -10.667 -42.666 -19.667 -69.999 -27s-55.333 -11.333 -84 -12l-10 -83h-23l10 84c-26 2 -48 7.66699 -66 17s-32.5 22 -43.5 38s-19 34.833 -24 56.5s-7.5 45.5 -7.5 71.5c0 14.667 1 32.167 3 52.5s5.5 41.666 10.5 63.999s12.167 44.5 21.5 66.5
s21.5 42.167 36.5 60.5s33.167 33.666 54.5 45.999s46.666 20.166 75.999 23.499l9 68h23l-8 -66h2zM102 174.002c0 -21.333 2.00195 -41.333 6.00195 -60s10.667 -35.167 20 -49.5s21.666 -26 36.999 -35s34.666 -14.167 57.999 -15.5l56 454c-28.667 -4 -54 -14 -76 -30
s-40.5 -36.833 -55.5 -62.5s-26.333 -55.667 -34 -90s-11.5 -71.5 -11.5 -111.5z" />
    <glyph glyph-name="sterling" unicode="&#xa3;" horiz-adv-x="485" 
d="M16 0l3 25c16 6.66699 29.833 17 41.5 31s21.667 30 30 48s15.166 37 20.499 57s9.33301 38.667 12 56l19 110h-70l2 23h72l10.5 64l10.5 64c4 24.667 9.66699 48.334 17 71.001s18 42.667 32 60s31.667 31 53 41s48 15 80 15c24.667 0 50.5 -2.33301 77.5 -7
s48.833 -10.667 65.5 -18l-9 -21c-24 8.66699 -46.5 14.667 -67.5 18s-42.5 5 -64.5 5c-29.333 0 -53.5 -4.33301 -72.5 -13s-34.333 -20.5 -46 -35.5s-20.667 -32.667 -27 -53s-11.5 -42.166 -15.5 -65.499l-21 -125h202l-2 -23h-203l-18 -109
c-2.66699 -17.333 -6.5 -35.333 -11.5 -54s-11.167 -36.834 -18.5 -54.501s-16.166 -33.834 -26.499 -48.501s-21.833 -27 -34.5 -37h356l-2 -24h-395z" />
    <glyph glyph-name="currency" unicode="&#xa4;" horiz-adv-x="500" 
d="M69 489l18 17.001l64 -62c17.333 13.333 36 23.833 56 31.5s41.333 11.5 64 11.5c21.333 0 41.833 -3.83301 61.5 -11.5s38.5 -18.167 56.5 -31.5l64 62l18 -18l-67 -63c17.333 -20 29.333 -39.5 36 -58.5s10 -38.833 10 -59.5c0 -42 -15 -82 -45 -120l67 -60l-19 -20
l-65 63c-19.333 -17.333 -38.833 -29 -58.5 -35s-39.167 -9 -58.5 -9c-20 0 -39.833 3 -59.5 9s-39.5 17.667 -59.5 35l-64 -64l-20 19l65 62c-17.333 20.667 -29 41.167 -35 61.5s-9 39.166 -9 56.499c0 20 3.16699 40.5 9.5 61.5s17.833 40.5 34.5 58.5zM112 306.001
c0 -22 4.16699 -42.5 12.5 -61.5s19.666 -35.667 33.999 -50s31.166 -25.666 50.499 -33.999s39.666 -12.5 60.999 -12.5c20.667 0 40.5 4.16699 59.5 12.5s35.5 19.666 49.5 33.999s25.167 31 33.5 50s12.5 39.5 12.5 61.5c0 21.333 -4.16699 41.5 -12.5 60.5
s-19.5 35.5 -33.5 49.5s-30.333 25.167 -49 33.5s-38.667 12.5 -60 12.5s-41.666 -4.16699 -60.999 -12.5s-36.166 -19.5 -50.499 -33.5s-25.666 -30.5 -33.999 -49.5s-12.5 -39.167 -12.5 -60.5z" />
    <glyph glyph-name="yen" unicode="&#xa5;" horiz-adv-x="485" 
d="M257 323l77 120l139 218h27l-231 -358h163l-3 -23h-355l3 23h161l-136 358h27l79 -218l47 -120h2zM424 237l-3 -21h-167l-26 -216h-23l25 216h-164l3 21h355z" />
    <glyph glyph-name="brokenbar" unicode="&#xa6;" horiz-adv-x="196" 
d="M105 357v338h25v-338h-25zM130 256v-390h-25v390h25z" />
    <glyph glyph-name="section" unicode="&#xa7;" horiz-adv-x="422" 
d="M280 713c25.333 0 49.1699 -1.99512 71.5029 -5.99512s42.166 -9 59.499 -15l-8 -22c-20 6.66699 -39.833 11.667 -59.5 15s-41.167 5 -64.5 5c-15.333 0 -31.166 -2 -47.499 -6s-31.5 -10.833 -45.5 -20.5s-25.5 -22.334 -34.5 -38.001s-13.5 -34.834 -13.5 -57.501
c0 -14.667 3.66699 -27.834 11 -39.501s16.833 -22.334 28.5 -32.001s24.667 -18.667 39 -27l43.5 -24.5c23.333 -12.667 42.666 -24.667 57.999 -36s27.5 -22.333 36.5 -33s15.167 -21.334 18.5 -32.001s5 -21.334 5 -32.001c0 -45.333 -28.667 -93 -86 -143
c15.333 -10.667 27.5 -21.167 36.5 -31.5s15.833 -20.333 20.5 -30s7.66699 -18.667 9 -27s2 -15.5 2 -21.5c0 -26.667 -5.33301 -50 -16 -70s-24.834 -36.5 -42.501 -49.5s-37.667 -22.667 -60 -29s-44.833 -9.5 -67.5 -9.5c-26.667 0 -51.667 2.16699 -75 6.5
s-44 9.83301 -62 16.5l8 20c44.667 -14.667 89.334 -22 134.001 -22c18.667 0 37.5 2.66699 56.5 8s36 13.5 51 24.5s27.167 25 36.5 42s14 37.167 14 60.5c0 25.333 -7.83301 46.333 -23.5 63s-34.834 31.667 -57.501 45c-19.333 10.667 -39.666 20.834 -60.999 30.501
s-40.833 20.334 -58.5 32.001s-32.334 25.167 -44.001 40.5s-17.5 34 -17.5 56c0 24.667 7.66699 49.334 23 74.001s40 48.334 74 71.001c-20.667 15.333 -35.334 31.166 -44.001 47.499s-13 33.166 -13 50.499c0 24 4.5 45 13.5 63s21.167 33.167 36.5 45.5
s33 21.666 53 27.999s40.667 9.5 62 9.5zM189.004 459.005c-28.667 -19.333 -51.1641 -40.999 -67.4971 -64.999s-24.5 -46.333 -24.5 -67c0 -19.333 5.5 -35.666 16.5 -48.999s25.167 -25.5 42.5 -36.5s36.166 -21.167 56.499 -30.5s40.166 -19.666 59.499 -30.999
c31.333 25.333 52.833 49.166 64.5 71.499s17.5 42.166 17.5 59.499c0 15.333 -5 29.666 -15 42.999s-23 26 -39 38s-33.833 23.333 -53.5 34s-38.834 21.667 -57.501 33z" />
    <glyph glyph-name="dieresis" unicode="&#xa8;" horiz-adv-x="452" 
d="M192 633c6 0 11 -2 15 -6s6 -9 6 -15c0 -8 -2.66699 -14.833 -8 -20.5s-11.666 -8.5 -18.999 -8.5c-6 0 -11 2 -15 6s-6 9.33301 -6 16c0 7.33301 2.66699 13.833 8 19.5s11.666 8.5 18.999 8.5zM321 633c6 0 11 -2 15 -6s6 -9 6 -15c0 -8 -2.66699 -14.833 -8 -20.5
s-11.666 -8.5 -18.999 -8.5c-6 0 -11 2 -15 6s-6 9.33301 -6 16c0 7.33301 2.66699 13.833 8 19.5s11.666 8.5 18.999 8.5z" />
    <glyph glyph-name="copyright" unicode="&#xa9;" horiz-adv-x="819" 
d="M437 -19c-49.333 0 -95.666 9.16699 -138.999 27.5s-81.166 43.5 -113.499 75.5s-57.833 69.5 -76.5 112.5s-28 89.167 -28 138.5c0 48.667 9.33301 94.334 28 137.001s44.167 80 76.5 112s70.166 57.167 113.499 75.5s89.666 27.5 138.999 27.5
c48.667 0 94.834 -9.16699 138.501 -27.5s81.834 -43.5 114.501 -75.5s58.5 -69.333 77.5 -112s28.5 -88.334 28.5 -137.001c0 -49.333 -9.5 -95.5 -28.5 -138.5s-44.833 -80.5 -77.5 -112.5s-70.834 -57.167 -114.501 -75.5s-89.834 -27.5 -138.501 -27.5zM437 666
c-46 0 -89.5 -8.66699 -130.5 -26s-76.667 -41 -107 -71s-54.333 -65 -72 -105s-26.5 -83 -26.5 -129s8.83301 -89.167 26.5 -129.5s41.667 -75.5 72 -105.5s66 -53.667 107 -71s84.5 -26 130.5 -26c46.667 0 90.334 8.66699 131.001 26s76.167 41 106.5 71
s54.166 65.167 71.499 105.5s26 83.5 26 129.5s-8.66699 89 -26 129s-41.166 75 -71.499 105s-65.833 53.667 -106.5 71s-84.334 26 -131.001 26zM571 94c-15.333 -6 -34.999 -10.832 -58.999 -14.499s-47 -5.5 -69 -5.5c-71.333 0 -122.833 22.5 -154.5 67.5
s-47.5 106.833 -47.5 185.5c0 24.667 3 52.167 9 82.5s16.5 58.666 31.5 84.999s35.667 48.333 62 66s60.166 26.5 101.499 26.5c26.667 0 50 -2 70 -6s36.667 -8.33301 50 -13l-7 -23c-20 8 -39.333 13.333 -58 16s-36.667 4 -54 4c-30 0 -56.333 -5.83301 -79 -17.5
s-41.5 -28 -56.5 -49s-26.167 -46.167 -33.5 -75.5s-11 -62 -11 -98c0 -29.333 2.33301 -57.833 7 -85.5s13.5 -52 26.5 -73s31.333 -37.833 55 -50.5s54.167 -19 91.5 -19c14 0 32.333 1.16699 55 3.5s44 6.83301 64 13.5z" />
    <glyph glyph-name="ordfeminine" unicode="&#xaa;" horiz-adv-x="335" 
d="M331 289l1.00391 -16.999c-17.333 -6.66699 -32.333 -10 -45 -10c-18 0 -25.667 9 -23 27l2 15c-20.667 -14.667 -39.834 -25.667 -57.501 -33s-36.5 -11 -56.5 -11c-28.667 0 -51.834 9.16699 -69.501 27.5s-26.5 45.5 -26.5 81.5c0 28 3.16699 55.167 9.5 81.5
s16.166 49.666 29.499 69.999s30.166 36.5 50.499 48.5s44.5 18 72.5 18c14.667 0 29 -1.83301 43 -5.5s27.667 -8.16699 41 -13.5l5 16h19l-39 -296zM215.004 565.001c-18.667 0 -36.167 -4.50098 -52.5 -13.501s-30.666 -21.667 -42.999 -38s-22 -36.333 -29 -60
s-10.5 -50.167 -10.5 -79.5c0 -32 7.33301 -55.333 22 -70s31.667 -22 51 -22c17.333 0 35.5 4.16699 54.5 12.5s39.833 21.5 62.5 39.5c5.33301 35.333 10.166 70.833 14.499 106.5s8.83301 70.834 13.5 105.501c-14 7.33301 -28 12.333 -42 15s-27.667 4 -41 4z" />
    <glyph glyph-name="guillemotleft" unicode="&#xab;" horiz-adv-x="354" 
d="M93 178l96 -144l-14 -12l-113 141l3 31l148 140l11 -11zM189 178l97 -144l-15 -12l-113 141l3 31l148 140l11 -11z" />
    <glyph glyph-name="logicalnot" unicode="&#xac;" horiz-adv-x="485" 
d="M404 113h-25l21 170h-323l3 25h348z" />
    <glyph glyph-name="sfthyphen" unicode="&#xad;" horiz-adv-x="310" 
d="M53 237l3 27h213l-3 -27h-213z" />
    <glyph glyph-name="registered" unicode="&#xae;" horiz-adv-x="562" 
d="M539 475c0 -32.667 -6.16699 -62.833 -18.5 -90.5s-29 -51.5 -50 -71.5s-45.5 -35.667 -73.5 -47s-57.667 -17 -89 -17s-61 5.5 -89 16.5s-52.333 26.5 -73 46.5s-37 43.833 -49 71.5s-18 58.167 -18 91.5c0 31.333 6 61 18 89s28.333 52.333 49 73s45 37 73 49
s57.667 18 89 18s61 -6 89 -18s52.5 -28.333 73.5 -49s37.667 -45 50 -73s18.5 -57.667 18.5 -89zM519 475.001c0 28.667 -5.50195 55.835 -16.502 81.502s-26.167 48.167 -45.5 67.5s-41.833 34.5 -67.5 45.5s-52.834 16.5 -81.501 16.5c-28 0 -54.667 -5.5 -80 -16.5
s-47.5 -26.167 -66.5 -45.5s-34.167 -41.833 -45.5 -67.5s-17 -52.834 -17 -81.501c0 -30 5.33301 -57.5 16 -82.5s25.334 -46.833 44.001 -65.5s40.834 -33.167 66.501 -43.5s53.167 -15.5 82.5 -15.5c28.667 0 55.834 5 81.501 15s48.167 24.167 67.5 42.5
s34.5 40.166 45.5 65.499s16.5 53.333 16.5 84zM382.998 332.002l-61 131.999h-67v-132h-22v289h85c24.667 0 45.5 -5.83301 62.5 -17.5s25.5 -31.5 25.5 -59.5c0 -15.333 -4 -30.666 -12 -45.999s-24.333 -26.333 -49 -33l62 -133h-24zM382.998 543.001
c0 22 -6.16699 37.333 -18.5 46s-26.833 13 -43.5 13h-66v-119h66c16 0 30.333 4 43 12s19 24 19 48z" />
    <glyph glyph-name="macron" unicode="&#xaf;" horiz-adv-x="452" 
d="M411 626l-3 -26h-278l3 26h278z" />
    <glyph glyph-name="degree" unicode="&#xb0;" horiz-adv-x="328" 
d="M194 435c-37.333 0 -66 10.833 -86 32.5s-30 48.5 -30 80.5c0 15.333 3 30 9 44s14.333 26.333 25 37s23 19.167 37 25.5s29 9.5 45 9.5s30.833 -3.16699 44.5 -9.5s25.5 -14.833 35.5 -25.5s18 -23 24 -37s9 -28.667 9 -44c0 -16 -3 -30.833 -9 -44.5
s-14 -25.5 -24 -35.5s-21.833 -18 -35.5 -24s-28.5 -9 -44.5 -9zM192 641c-12 0 -23.667 -2.66699 -35 -8s-21.166 -12.333 -29.499 -21s-15 -18.667 -20 -30s-7.5 -23 -7.5 -35s2.5 -23.5 7.5 -34.5s11.667 -20.667 20 -29s18.166 -14.833 29.499 -19.5s23 -7 35 -7
s23.5 2.33301 34.5 7s20.667 11.167 29 19.5s15.166 18 20.499 29s8 22.5 8 34.5s-2.66699 23.667 -8 35s-12.166 21.333 -20.499 30s-18 15.667 -29 21s-22.5 8 -34.5 8z" />
    <glyph glyph-name="plusminus" unicode="&#xb1;" horiz-adv-x="485" 
d="M43 46h358l-3 -26h-358zM264 283l-21 -170h-25l21 170h-162l3 25h162l20 164h25l-20 -164h161l-3 -25h-161z" />
    <glyph glyph-name="twosuperior" unicode="&#xb2;" horiz-adv-x="325" 
d="M22 357l3.00098 19.999l107.5 89.5c31.667 27 58.5 52.167 80.5 75.5s38.833 45 50.5 65s17.5 39.333 17.5 58c0 24 -8.16699 41.167 -24.5 51.5s-35.833 15.5 -58.5 15.5c-15.333 0 -33.666 -3.16699 -54.999 -9.5s-41.333 -15.166 -60 -26.499l-11 18
c20.667 12.667 42.5 22.5 65.5 29.5s44.5 10.5 64.5 10.5c29.333 0 54.166 -6.66699 74.499 -20s30.5 -35 30.5 -65c0 -22.667 -6.83301 -45.667 -20.5 -69s-31.834 -47 -54.501 -71s-48.667 -48.5 -78 -73.5l-92 -76.5h223l-3 -22h-260z" />
    <glyph glyph-name="threesuperior" unicode="&#xb3;" horiz-adv-x="325" 
d="M190 759c42 0 71.3311 -7.66602 87.998 -22.999s25 -33 25 -53c0 -18.667 -7.33301 -38.334 -22 -59.001s-39 -35.667 -73 -45v-3c26 -5.33301 47.833 -16.5 65.5 -33.5s26.5 -38.833 26.5 -65.5c0 -17.333 -3.83301 -33.5 -11.5 -48.5s-18.667 -28.167 -33 -39.5
s-31.5 -20.333 -51.5 -27s-42 -10 -66 -10s-46 2.16699 -66 6.5s-36.667 9.5 -50 15.5l9 19c26.667 -9.33301 47.834 -14.833 63.501 -16.5s29.834 -2.5 42.501 -2.5c18.667 0 36.334 2.33301 53.001 7s31.5 11.334 44.5 20.001s23.333 19.167 31 31.5
s11.5 26.166 11.5 41.499c0 30 -13.167 53.333 -39.5 70s-62.5 22.334 -108.5 17.001l-3 19c30.667 5.33301 56 11.833 76 19.5s35.667 16 47 25s19.166 18.167 23.499 27.5s6.5 18.666 6.5 27.999c0 16 -6.5 29.667 -19.5 41s-36.5 17 -70.5 17c-14 0 -29.833 -2 -47.5 -6
s-38.834 -10.667 -63.501 -20l-7 18c21.333 10 42.333 17.333 63 22s39.334 7 56.001 7z" />
    <glyph glyph-name="acute" unicode="&#xb4;" horiz-adv-x="451" 
d="M174 564l114 143l23 -22l-123 -131z" />
    <glyph glyph-name="mu" unicode="&#xb5;" horiz-adv-x="438" 
d="M58 25l-29.0029 -236.999h-23l83 698h23l-44 -378c-0.666992 -3.33301 -1 -6.83301 -1 -10.5v-10.5c0 -22.667 6.16699 -40.667 18.5 -54s33.833 -20 64.5 -20c28 0 58 8.66699 90 26s66.333 40.666 103 69.999l47 377h22l-59 -486h-23l10 78l-3 2
c-39.333 -30 -73.666 -52.167 -102.999 -66.5s-58.666 -21.5 -87.999 -21.5c-22.667 0 -40.667 3 -54 9s-23.666 14.667 -30.999 26z" />
    <glyph glyph-name="mu" unicode="&#x3bc;" horiz-adv-x="438" 
d="M58 25l-29.0029 -236.999h-23l83 698h23l-44 -378c-0.666992 -3.33301 -1 -6.83301 -1 -10.5v-10.5c0 -22.667 6.16699 -40.667 18.5 -54s33.833 -20 64.5 -20c28 0 58 8.66699 90 26s66.333 40.666 103 69.999l47 377h22l-59 -486h-23l10 78l-3 2
c-39.333 -30 -73.666 -52.167 -102.999 -66.5s-58.666 -21.5 -87.999 -21.5c-22.667 0 -40.667 3 -54 9s-23.666 14.667 -30.999 26z" />
    <glyph glyph-name="paragraph" unicode="&#xb6;" horiz-adv-x="435" 
d="M307 -164h-25.001l103 835h-79l-103 -835h-25l68 550h-16c-20 0 -38.167 3.33301 -54.5 10s-30.333 16 -42 28s-20.5 26.167 -26.5 42.5s-9 33.833 -9 52.5c0 27.333 4.83301 51.833 14.5 73.5s22.334 40 38.001 55s33.667 26.5 54 34.5s41.5 12 63.5 12h144z" />
    <glyph glyph-name="periodcentered" unicode="&#xb7;" horiz-adv-x="144" 
d="M89 310c6.66699 0 12.668 -2.83398 18.001 -8.50098s8 -12.167 8 -19.5c0 -9.33301 -3.83301 -17.666 -11.5 -24.999s-15.167 -11 -22.5 -11c-8 0 -14.667 3 -20 9s-8 13 -8 21s3.66699 15.667 11 23s15.666 11 24.999 11z" />
    <glyph glyph-name="cedilla" unicode="&#xb8;" horiz-adv-x="517" 
d="M227 -75c33.333 0 59.8311 -4.3291 79.498 -12.9961s29.5 -25.667 29.5 -51c0 -12.667 -3.5 -25 -10.5 -37s-17.5 -22.667 -31.5 -32s-31.667 -16.833 -53 -22.5s-46.333 -8.5 -75 -8.5l1 17c26 2 47.833 5.66699 65.5 11s31.834 11.666 42.501 18.999
s18.334 15.666 23.001 24.999s7 18.666 7 27.999c0 15.333 -7.33301 26.666 -22 33.999s-33.667 11 -57 11c-3.33301 0 -6.83301 -0.166992 -10.5 -0.5s-7.16699 -0.5 -10.5 -0.5l-7 14l85 94l13 -11z" />
    <glyph glyph-name="onesuperior" unicode="&#xb9;" horiz-adv-x="325" 
d="M107 707l1 19l111 25h23l-49 -394h-23l45 366z" />
    <glyph glyph-name="ordmasculine" unicode="&#xba;" horiz-adv-x="308" 
d="M189 589c20.667 0 37.998 -3.50098 51.998 -10.501s25 -16.333 33 -28s13.667 -25.334 17 -41.001s5 -32.167 5 -49.5c0 -20 -2.16699 -41.667 -6.5 -65s-12 -44.833 -23 -64.5s-26.333 -36 -46 -49s-44.5 -19.5 -74.5 -19.5c-22 0 -40 3.33301 -54 10
s-25.167 15.834 -33.5 27.501s-14.166 25 -17.499 40s-5 31.167 -5 48.5c0 21.333 2.5 43.833 7.5 67.5s13.333 45.334 25 65.001s27.334 36 47.001 49s44.167 19.5 73.5 19.5zM187.998 569.999c-26 0 -47.502 -6.16797 -64.502 -18.501s-30.5 -27.833 -40.5 -46.5
s-16.833 -39 -20.5 -61s-5.5 -42.333 -5.5 -61c0 -14 1.33301 -27 4 -39s7.33398 -22.667 14.001 -32s16 -16.666 28 -21.999s27.333 -8 46 -8c26.667 0 48.167 6.33301 64.5 19s29 28.167 38 46.5s15 37.833 18 58.5s4.5 39 4.5 55c0 14 -1.16699 27.5 -3.5 40.5
s-6.66602 24.5 -12.999 34.5s-15 18.167 -26 24.5s-25.5 9.5 -43.5 9.5z" />
    <glyph glyph-name="guillemotright" unicode="&#xbb;" horiz-adv-x="354" 
d="M170 323l15 11l112 -140l-3 -31l-149 -141l-11 12l131 144zM74 323l15 11l112 -140l-3 -31l-149 -141l-11 12l131 144z" />
    <glyph glyph-name="onequarter" unicode="&#xbc;" horiz-adv-x="744" 
d="M639 394l-32 -259h63l-3 -21h-63l-14 -114h-25l15 114h-209l3 21l121 129.5l121 129.5h23zM583 135l27 223l-207 -223h180zM212 -23h-23l358 719h21zM152 617l1 19l111 25h23l-49 -394h-23l45 366z" />
    <glyph glyph-name="onehalf" unicode="&#xbd;" horiz-adv-x="744" 
d="M129 617l1 19l111 25h23l-49 -394h-23l45 366zM188 -23h-23l358 719h21zM396 0l3.00098 19.999l107.5 89.5c31.667 27 58.5 52.167 80.5 75.5s38.833 45 50.5 65s17.5 39.333 17.5 58c0 24 -8.16699 41.167 -24.5 51.5s-35.833 15.5 -58.5 15.5
c-15.333 0 -33.666 -3.16699 -54.999 -9.5s-41.333 -15.166 -60 -26.499l-11 18c20.667 12.667 42.5 22.5 65.5 29.5s44.5 10.5 64.5 10.5c29.333 0 54.166 -6.66699 74.499 -20s30.5 -35 30.5 -65c0 -22.667 -6.83301 -45.667 -20.5 -69s-31.834 -47 -54.501 -71
s-48.667 -48.5 -78 -73.5l-92 -76.5h223l-3 -22h-260z" />
    <glyph glyph-name="threequarters" unicode="&#xbe;" horiz-adv-x="744" 
d="M670 394l-32 -259h63l-3 -21h-63l-14 -114h-25l15 114h-209l3 21l121 129.5l121 129.5h23zM198 669c42 0 71.3311 -7.66602 87.998 -22.999s25 -33 25 -53c0 -18.667 -7.33301 -38.334 -22 -59.001s-39 -35.667 -73 -45v-3c26 -5.33301 47.833 -16.5 65.5 -33.5
s26.5 -38.833 26.5 -65.5c0 -17.333 -3.83301 -33.5 -11.5 -48.5s-18.667 -28.167 -33 -39.5s-31.5 -20.333 -51.5 -27s-42 -10 -66 -10s-46 2.16699 -66 6.5s-36.667 9.5 -50 15.5l9 19c26.667 -9.33301 47.834 -14.833 63.501 -16.5s29.834 -2.5 42.501 -2.5
c18.667 0 36.334 2.33301 53.001 7s31.5 11.334 44.5 20.001s23.333 19.167 31 31.5s11.5 26.166 11.5 41.499c0 30 -13.167 53.333 -39.5 70s-62.5 22.334 -108.5 17.001l-3 19c30.667 5.33301 56 11.833 76 19.5s35.667 16 47 25s19.166 18.167 23.499 27.5
s6.5 18.666 6.5 27.999c0 16 -6.5 29.667 -19.5 41s-36.5 17 -70.5 17c-14 0 -29.833 -2 -47.5 -6s-38.834 -10.667 -63.501 -20l-7 18c21.333 10 42.333 17.333 63 22s39.334 7 56.001 7zM613.998 135.001l27 223l-207 -223h180zM225.998 -22.999h-23l358 719h21z" />
    <glyph glyph-name="questiondown" unicode="&#xbf;" horiz-adv-x="391" 
d="M143 -214c-52.667 0 -91.334 9.66602 -116.001 28.999s-37 46 -37 80c0 16.667 3.16699 32.5 9.5 47.5s14.5 29 24.5 42s21.667 25.167 35 36.5s27 22 41 32c31.333 22.667 57.166 43 77.499 61s36.5 35.333 48.5 52s20.5 33.334 25.5 50.001s7.5 35.334 7.5 56.001
c0 6.66699 -0.166992 13.667 -0.5 21s-0.833008 14.666 -1.5 21.999l23 6c0.666992 -8.66699 1.16699 -16.667 1.5 -24s0.5 -14.666 0.5 -21.999c0 -20 -2.16699 -38.833 -6.5 -56.5s-12.166 -35.5 -23.499 -53.5s-26.833 -36.5 -46.5 -55.5s-44.834 -39.5 -75.501 -61.5
c-35.333 -25.333 -63.166 -49.333 -83.499 -72s-30.5 -50 -30.5 -82c0 -16 3.33301 -29.333 10 -40s15.834 -19.334 27.501 -26.001s25 -11.5 40 -14.5s30.833 -4.5 47.5 -4.5c20 0 43.167 2 69.5 6s56.5 11 90.5 21l6 -21c-29.333 -10 -58.5 -17.333 -87.5 -22
s-54.5 -7 -76.5 -7zM263 433.999c-7.33301 0 -13.332 2.33301 -17.999 7s-7 10.667 -7 18c0 10 3.33301 18.333 10 25s13.667 10 21 10s13.666 -2.5 18.999 -7.5s8 -11.833 8 -20.5s-3.5 -16.167 -10.5 -22.5s-14.5 -9.5 -22.5 -9.5z" />
    <glyph glyph-name="Agrave" unicode="&#xc0;" horiz-adv-x="500" 
d="M392 197h-286l-84 -197h-27l296 682h35l129 -682h-25zM243 513l-127 -292h271l-54 292l-26 143h-3zM311 713l-92 131l28 22l79 -143z" />
    <glyph glyph-name="Aacute" unicode="&#xc1;" horiz-adv-x="500" 
d="M392 197h-286l-84 -197h-27l296 682h35l129 -682h-25zM243 513l-127 -292h271l-54 292l-26 143h-3zM292 723l115 143l22 -22l-123 -131z" />
    <glyph glyph-name="Acircumflex" unicode="&#xc2;" horiz-adv-x="500" 
d="M392 197h-286l-84 -197h-27l296 682h35l129 -682h-25zM243 513l-127 -292h271l-54 292l-26 143h-3zM323 803l-141 -103l-9 12l140 123h27l109 -122l-10 -12z" />
    <glyph glyph-name="Atilde" unicode="&#xc3;" horiz-adv-x="500" 
d="M392 197h-286l-84 -197h-27l296 682h35l129 -682h-25zM243 513l-127 -292h271l-54 292l-26 143h-3zM179 740l-12 7.00391c7.33301 17.333 17.666 31.166 30.999 41.499s27 15.5 41 15.5c10 0 21 -1.83301 33 -5.5s24 -7.83398 36 -12.501s23.833 -8.83398 35.5 -12.501
s22.5 -5.5 32.5 -5.5l48 39l11 -7c-7.33301 -14.667 -16.666 -27.834 -27.999 -39.501s-24.333 -17.5 -39 -17.5c-8.66699 0 -19 2 -31 6l-37.5 13l-37.5 13c-12 4 -22.333 6 -31 6z" />
    <glyph glyph-name="Adieresis" unicode="&#xc4;" horiz-adv-x="500" 
d="M392 197h-286l-84 -197h-27l296 682h35l129 -682h-25zM243 513l-127 -292h271l-54 292l-26 143h-3zM252 781c6 0 11 -2 15 -6s6 -9 6 -15c0 -8 -2.66699 -14.833 -8 -20.5s-11.666 -8.5 -18.999 -8.5c-6 0 -11 2 -15 6s-6 9.33301 -6 16c0 7.33301 2.66699 13.833 8 19.5
s11.666 8.5 18.999 8.5zM381 781c6 0 11 -2 15 -6s6 -9 6 -15c0 -8 -2.66699 -14.833 -8 -20.5s-11.666 -8.5 -18.999 -8.5c-6 0 -11 2 -15 6s-6 9.33301 -6 16c0 7.33301 2.66699 13.833 8 19.5s11.666 8.5 18.999 8.5z" />
    <glyph glyph-name="Aring" unicode="&#xc5;" horiz-adv-x="500" 
d="M392 197h-286l-84 -197h-27l296 682h35l129 -682h-25zM243 513l-127 -292h271l-54 292l-26 143h-3zM325 870c22.667 0 40.167 -6.66699 52.5 -20s18.5 -30.666 18.5 -51.999c0 -26.667 -8.83301 -48.5 -26.5 -65.5s-39.167 -25.5 -64.5 -25.5
c-23.333 0 -40.833 7 -52.5 21s-17.5 30.667 -17.5 50c0 12 2 23.5 6 34.5s9.83301 20.667 17.5 29s17.167 15.166 28.5 20.499s24 8 38 8zM323 852c-19.333 0 -35 -7.16797 -47 -21.501s-18 -32.166 -18 -53.499c0 -16 4.16699 -28.5 12.5 -37.5s20.833 -13.5 37.5 -13.5
c18 0 33.667 6.5 47 19.5s20 30.833 20 53.5c0 15.333 -4.33301 28 -13 38s-21.667 15 -39 15z" />
    <glyph glyph-name="AE" unicode="&#xc6;" horiz-adv-x="828" 
d="M435 197h-285l-135 -197h-30l472 682h342l-1 -24h-304l-21 -283h267l-2 -25h-267l-23 -326h329l-1 -24h-355zM167 221h270l30 433h-3z" />
    <glyph glyph-name="Ccedilla" unicode="&#xc7;" horiz-adv-x="525" 
d="M469 18c-25.333 -9.33301 -54.3369 -15.8271 -87.0039 -19.4941s-62.667 -5.5 -90 -5.5l-62 -69c33.333 0 59.833 -4.33301 79.5 -13s29.5 -25.667 29.5 -51c0 -12.667 -3.5 -25 -10.5 -37s-17.5 -22.667 -31.5 -32s-31.667 -16.833 -53 -22.5s-46.333 -8.5 -75 -8.5
l1 17c26 2 47.833 5.66699 65.5 11s31.834 11.666 42.501 18.999s18.334 15.666 23.001 24.999s7 18.666 7 27.999c0 15.333 -7.33301 26.666 -22 33.999s-33.667 11 -57 11c-3.33301 0 -6.83301 -0.166992 -10.5 -0.5s-7.16699 -0.5 -10.5 -0.5l-7 14l68 76
c-36 2 -66.667 9.33301 -92 22s-45.833 30 -61.5 52s-27.167 48.333 -34.5 79s-11 65.334 -11 104.001c0 24.667 1.5 52.667 4.5 84s8.66699 63.333 17 96s19.666 64.667 33.999 96s32.833 59.166 55.5 83.499s50 44 82 59s69.667 22.5 113 22.5c34 0 65 -2.66699 93 -8
s50 -11.333 66 -18l-9 -21c-23.333 7.33301 -48.166 13.166 -74.499 17.499s-51.166 6.5 -74.499 6.5c-48.667 0 -90.667 -10.667 -126 -32s-64.333 -51 -87 -89s-39.5 -82.833 -50.5 -134.5s-16.5 -107.5 -16.5 -167.5c0 -30.667 2.5 -59.834 7.5 -87.501
s14.833 -52 29.5 -73s34.834 -37.667 60.501 -50s59.167 -18.5 100.5 -18.5c8.66699 0 19.5 0.333008 32.5 1s27 2 42 4s30.333 4.33301 46 7s31.167 6 46.5 10z" />
    <glyph glyph-name="Egrave" unicode="&#xc8;" horiz-adv-x="470" 
d="M133 682h347l-3 -24h-322l-35 -284h286l-2 -23l-287 -1l-40 -326h352l-2 -24h-377zM332 713l-92 131l28 22l79 -143z" />
    <glyph glyph-name="Eacute" unicode="&#xc9;" horiz-adv-x="470" 
d="M133 682h347l-3 -24h-322l-35 -284h286l-2 -23l-287 -1l-40 -326h352l-2 -24h-377zM271 723l115 143l22 -22l-123 -131z" />
    <glyph glyph-name="Ecircumflex" unicode="&#xca;" horiz-adv-x="470" 
d="M133 682h347l-3 -24h-322l-35 -284h286l-2 -23l-287 -1l-40 -326h352l-2 -24h-377zM316 819l-141 -103l-9 12l140 123h27l109 -122l-10 -12z" />
    <glyph glyph-name="Edieresis" unicode="&#xcb;" horiz-adv-x="470" 
d="M133 682h347l-3 -24h-322l-35 -284h286l-2 -23l-287 -1l-40 -326h352l-2 -24h-377zM253 788c6 0 11 -2 15 -6s6 -9 6 -15c0 -8 -2.66699 -14.833 -8 -20.5s-11.666 -8.5 -18.999 -8.5c-6 0 -11 2 -15 6s-6 9.33301 -6 16c0 7.33301 2.66699 13.833 8 19.5
s11.666 8.5 18.999 8.5zM382 788c6 0 11 -2 15 -6s6 -9 6 -15c0 -8 -2.66699 -14.833 -8 -20.5s-11.666 -8.5 -18.999 -8.5c-6 0 -11 2 -15 6s-6 9.33301 -6 16c0 7.33301 2.66699 13.833 8 19.5s11.666 8.5 18.999 8.5z" />
    <glyph glyph-name="Igrave" unicode="&#xcc;" horiz-adv-x="199" 
d="M60 0l83 682h26l-83 -682h-26zM152 713l-92 131l28 22l79 -143z" />
    <glyph glyph-name="Iacute" unicode="&#xcd;" horiz-adv-x="199" 
d="M60 0l83 682h26l-83 -682h-26zM137 723l115 143l22 -22l-123 -131z" />
    <glyph glyph-name="Icircumflex" unicode="&#xce;" horiz-adv-x="199" 
d="M60 0l83 682h26l-83 -682h-26zM168 805l-141 -103l-9 12l140 123h27l109 -122l-10 -12z" />
    <glyph glyph-name="Idieresis" unicode="&#xcf;" horiz-adv-x="199" 
d="M60 0l83 682h26l-83 -682h-26zM107 791c6 0 11 -2 15 -6s6 -9 6 -15c0 -8 -2.66699 -14.833 -8 -20.5s-11.666 -8.5 -18.999 -8.5c-6 0 -11 2 -15 6s-6 9.33301 -6 16c0 7.33301 2.66699 13.833 8 19.5s11.666 8.5 18.999 8.5zM236 791c6 0 11 -2 15 -6s6 -9 6 -15
c0 -8 -2.66699 -14.833 -8 -20.5s-11.666 -8.5 -18.999 -8.5c-6 0 -11 2 -15 6s-6 9.33301 -6 16c0 7.33301 2.66699 13.833 8 19.5s11.666 8.5 18.999 8.5z" />
    <glyph glyph-name="Eth" unicode="&#xd0;" horiz-adv-x="577" 
d="M315 682c43.333 0 79.3311 -6.83301 107.998 -20.5s51.334 -32.5 68.001 -56.5s28.334 -52.333 35.001 -85s10 -67.667 10 -105c0 -54.667 -5.33301 -107 -16 -157s-28.167 -94.167 -52.5 -132.5s-56.5 -68.833 -96.5 -91.5s-89 -34 -147 -34h-174l42 347h-61l3 22h60
l39 313h182zM119.998 369l207.003 -0.000976562l-3 -22h-207l-39 -322h143c10 0 24 0.666992 42 2s37.667 5.66602 59 12.999s43.166 18.833 65.499 34.5s42.666 37.834 60.999 66.501s33.333 65 45 109s17.5 98 17.5 162c0 40.667 -3.5 75 -10.5 103
s-16.5 51.167 -28.5 69.5s-25.333 32.333 -40 42s-29.667 16.834 -45 21.501s-30.333 7.5 -45 8.5s-27.334 1.5 -38.001 1.5h-149z" />
    <glyph glyph-name="Ntilde" unicode="&#xd1;" horiz-adv-x="606" 
d="M482 49l77 633h27l-84 -682h-26l-267 528l-53 107h-3l-77 -635h-26l83 682h27l278 -550l41 -83h3zM252 735l-12 7.00391c7.33301 17.333 17.666 31.166 30.999 41.499s27 15.5 41 15.5c10 0 21 -1.83301 33 -5.5s24 -7.83398 36 -12.501s23.833 -8.83398 35.5 -12.501
s22.5 -5.5 32.5 -5.5l48 39l11 -7c-7.33301 -14.667 -16.666 -27.834 -27.999 -39.501s-24.333 -17.5 -39 -17.5c-8.66699 0 -19 2 -31 6l-37.5 13l-37.5 13c-12 4 -22.333 6 -31 6z" />
    <glyph glyph-name="Ograve" unicode="&#xd2;" horiz-adv-x="629" 
d="M373 692c42 0 76.8291 -7.33301 104.496 -22s49.834 -34.5 66.501 -59.5s28.334 -54.333 35.001 -88s10 -69.167 10 -106.5c0 -56.667 -6.5 -110.5 -19.5 -161.5s-32 -95.833 -57 -134.5s-56 -69.5 -93 -92.5s-79.5 -34.5 -127.5 -34.5c-40.667 0 -75.167 6 -103.5 18
s-51.166 29.333 -68.499 52s-30 50.5 -38 83.5s-12 70.5 -12 112.5c0 52.667 5 105 15 157s26.833 98.333 50.5 139s54.834 73.667 93.501 99s86.667 38 144 38zM373.996 669c-55.333 0 -100.834 -12.832 -136.501 -38.499s-64.167 -58.5 -85.5 -98.5
s-36.166 -84.167 -44.499 -132.5s-12.5 -95.166 -12.5 -140.499c0 -80 15 -140.5 45 -181.5s79.667 -61.5 149 -61.5c48.667 0 90.334 12 125.001 36s63 55.167 85 93.5s38.167 81.166 48.5 128.499s15.5 94.333 15.5 141c0 31.333 -2.5 62.166 -7.5 92.499
s-14.5 57.5 -28.5 81.5s-33.333 43.333 -58 58s-56.334 22 -95.001 22zM387.995 713.001l-92 131l28 22l79 -143z" />
    <glyph glyph-name="Oacute" unicode="&#xd3;" horiz-adv-x="629" 
d="M373 692c42 0 76.8291 -7.33301 104.496 -22s49.834 -34.5 66.501 -59.5s28.334 -54.333 35.001 -88s10 -69.167 10 -106.5c0 -56.667 -6.5 -110.5 -19.5 -161.5s-32 -95.833 -57 -134.5s-56 -69.5 -93 -92.5s-79.5 -34.5 -127.5 -34.5c-40.667 0 -75.167 6 -103.5 18
s-51.166 29.333 -68.499 52s-30 50.5 -38 83.5s-12 70.5 -12 112.5c0 52.667 5 105 15 157s26.833 98.333 50.5 139s54.834 73.667 93.501 99s86.667 38 144 38zM373.996 669c-55.333 0 -100.834 -12.832 -136.501 -38.499s-64.167 -58.5 -85.5 -98.5
s-36.166 -84.167 -44.499 -132.5s-12.5 -95.166 -12.5 -140.499c0 -80 15 -140.5 45 -181.5s79.667 -61.5 149 -61.5c48.667 0 90.334 12 125.001 36s63 55.167 85 93.5s38.167 81.166 48.5 128.499s15.5 94.333 15.5 141c0 31.333 -2.5 62.166 -7.5 92.499
s-14.5 57.5 -28.5 81.5s-33.333 43.333 -58 58s-56.334 22 -95.001 22zM370.995 723.001l115 143l22 -22l-123 -131z" />
    <glyph glyph-name="Ocircumflex" unicode="&#xd4;" horiz-adv-x="629" 
d="M373 692c42 0 76.8291 -7.33301 104.496 -22s49.834 -34.5 66.501 -59.5s28.334 -54.333 35.001 -88s10 -69.167 10 -106.5c0 -56.667 -6.5 -110.5 -19.5 -161.5s-32 -95.833 -57 -134.5s-56 -69.5 -93 -92.5s-79.5 -34.5 -127.5 -34.5c-40.667 0 -75.167 6 -103.5 18
s-51.166 29.333 -68.499 52s-30 50.5 -38 83.5s-12 70.5 -12 112.5c0 52.667 5 105 15 157s26.833 98.333 50.5 139s54.834 73.667 93.501 99s86.667 38 144 38zM373.996 669c-55.333 0 -100.834 -12.832 -136.501 -38.499s-64.167 -58.5 -85.5 -98.5
s-36.166 -84.167 -44.499 -132.5s-12.5 -95.166 -12.5 -140.499c0 -80 15 -140.5 45 -181.5s79.667 -61.5 149 -61.5c48.667 0 90.334 12 125.001 36s63 55.167 85 93.5s38.167 81.166 48.5 128.499s15.5 94.333 15.5 141c0 31.333 -2.5 62.166 -7.5 92.499
s-14.5 57.5 -28.5 81.5s-33.333 43.333 -58 58s-56.334 22 -95.001 22zM398.995 819.001l-141 -103l-9 12l140 123h27l109 -122l-10 -12z" />
    <glyph glyph-name="Otilde" unicode="&#xd5;" horiz-adv-x="629" 
d="M373 692c42 0 76.8291 -7.33301 104.496 -22s49.834 -34.5 66.501 -59.5s28.334 -54.333 35.001 -88s10 -69.167 10 -106.5c0 -56.667 -6.5 -110.5 -19.5 -161.5s-32 -95.833 -57 -134.5s-56 -69.5 -93 -92.5s-79.5 -34.5 -127.5 -34.5c-40.667 0 -75.167 6 -103.5 18
s-51.166 29.333 -68.499 52s-30 50.5 -38 83.5s-12 70.5 -12 112.5c0 52.667 5 105 15 157s26.833 98.333 50.5 139s54.834 73.667 93.501 99s86.667 38 144 38zM373.996 669c-55.333 0 -100.834 -12.832 -136.501 -38.499s-64.167 -58.5 -85.5 -98.5
s-36.166 -84.167 -44.499 -132.5s-12.5 -95.166 -12.5 -140.499c0 -80 15 -140.5 45 -181.5s79.667 -61.5 149 -61.5c48.667 0 90.334 12 125.001 36s63 55.167 85 93.5s38.167 81.166 48.5 128.499s15.5 94.333 15.5 141c0 31.333 -2.5 62.166 -7.5 92.499
s-14.5 57.5 -28.5 81.5s-33.333 43.333 -58 58s-56.334 22 -95.001 22zM267.995 763.001l-12 7.00391c7.33301 17.333 17.666 31.166 30.999 41.499s27 15.5 41 15.5c10 0 21 -1.83301 33 -5.5s24 -7.83398 36 -12.501s23.833 -8.83398 35.5 -12.501s22.5 -5.5 32.5 -5.5
l48 39l11 -7c-7.33301 -14.667 -16.666 -27.834 -27.999 -39.501s-24.333 -17.5 -39 -17.5c-8.66699 0 -19 2 -31 6l-37.5 13l-37.5 13c-12 4 -22.333 6 -31 6z" />
    <glyph glyph-name="Odieresis" unicode="&#xd6;" horiz-adv-x="629" 
d="M373 692c42 0 76.8291 -7.33301 104.496 -22s49.834 -34.5 66.501 -59.5s28.334 -54.333 35.001 -88s10 -69.167 10 -106.5c0 -56.667 -6.5 -110.5 -19.5 -161.5s-32 -95.833 -57 -134.5s-56 -69.5 -93 -92.5s-79.5 -34.5 -127.5 -34.5c-40.667 0 -75.167 6 -103.5 18
s-51.166 29.333 -68.499 52s-30 50.5 -38 83.5s-12 70.5 -12 112.5c0 52.667 5 105 15 157s26.833 98.333 50.5 139s54.834 73.667 93.501 99s86.667 38 144 38zM373.996 669c-55.333 0 -100.834 -12.832 -136.501 -38.499s-64.167 -58.5 -85.5 -98.5
s-36.166 -84.167 -44.499 -132.5s-12.5 -95.166 -12.5 -140.499c0 -80 15 -140.5 45 -181.5s79.667 -61.5 149 -61.5c48.667 0 90.334 12 125.001 36s63 55.167 85 93.5s38.167 81.166 48.5 128.499s15.5 94.333 15.5 141c0 31.333 -2.5 62.166 -7.5 92.499
s-14.5 57.5 -28.5 81.5s-33.333 43.333 -58 58s-56.334 22 -95.001 22zM327.995 801.001c6 0 11 -2 15 -6s6 -9 6 -15c0 -8 -2.66699 -14.833 -8 -20.5s-11.666 -8.5 -18.999 -8.5c-6 0 -11 2 -15 6s-6 9.33301 -6 16c0 7.33301 2.66699 13.833 8 19.5
s11.666 8.5 18.999 8.5zM456.995 801.001c6 0 11 -2 15 -6s6 -9 6 -15c0 -8 -2.66699 -14.833 -8 -20.5s-11.666 -8.5 -18.999 -8.5c-6 0 -11 2 -15 6s-6 9.33301 -6 16c0 7.33301 2.66699 13.833 8 19.5s11.666 8.5 18.999 8.5z" />
    <glyph glyph-name="multiply" unicode="&#xd7;" horiz-adv-x="515" 
d="M260 265l-133 -125l-16 18l133 125l-106 125l20 18l105 -125l129 124l14 -19l-127 -124l106 -124l-20 -18z" />
    <glyph glyph-name="Oslash" unicode="&#xd8;" horiz-adv-x="609" 
d="M373 692c38.667 0 71.167 -6.5 97.5 -19.5s48.166 -30.167 65.499 -51.5l58 71h27l-73 -89c15.333 -24.667 26 -53 32 -85s9 -66 9 -102c0 -56.667 -6.5 -110.5 -19.5 -161.5s-32 -95.833 -57 -134.5s-56 -69.5 -93 -92.5s-79.5 -34.5 -127.5 -34.5
c-44 0 -80.333 6.83301 -109 20.5s-51.667 33.167 -69 58.5l-63 -77h-27l78 95c-21.333 42.667 -32 99 -32 169c0 52.667 5 105 15 157s26.833 98.333 50.5 139s54.834 73.667 93.501 99s86.667 38 144 38zM563 415c0 30 -2.33398 59.501 -7.00098 88.501
s-13 55.167 -25 78.5l-401 -490c30.667 -50.667 83.667 -76 159 -76c48.667 0 90.334 12 125.001 36s63 55.167 85 93.5s38.167 81.166 48.5 128.499s15.5 94.333 15.5 141zM373.999 669.001c-55.333 0 -100.834 -12.834 -136.501 -38.501s-64.167 -58.5 -85.5 -98.5
s-36.166 -84.167 -44.499 -132.5s-12.5 -95.166 -12.5 -140.499c0 -60.667 8.33301 -109.667 25 -147l399 489c-14 20.667 -32.667 37.167 -56 49.5s-53 18.5 -89 18.5z" />
    <glyph glyph-name="Ugrave" unicode="&#xd9;" horiz-adv-x="622" 
d="M577 682l25.002 0.000976562l-54 -443c-4.66699 -36 -13 -69.167 -25 -99.5s-28.167 -56.333 -48.5 -78s-45.333 -38.5 -75 -50.5s-64.167 -18 -103.5 -18c-80.667 0 -138.5 21.833 -173.5 65.5s-47.833 103.834 -38.5 180.501l54 443h24l-53 -440
c-9.33301 -74.667 2.16699 -130.834 34.5 -168.501s84.166 -56.5 155.499 -56.5c34 0 64.167 5.5 90.5 16.5s48.666 26.5 66.999 46.5s33 43.667 44 71s18.5 57.666 22.5 90.999zM385.002 713.001l-92 131l28 22l79 -143z" />
    <glyph glyph-name="Uacute" unicode="&#xda;" horiz-adv-x="622" 
d="M577 682l25.002 0.000976562l-54 -443c-4.66699 -36 -13 -69.167 -25 -99.5s-28.167 -56.333 -48.5 -78s-45.333 -38.5 -75 -50.5s-64.167 -18 -103.5 -18c-80.667 0 -138.5 21.833 -173.5 65.5s-47.833 103.834 -38.5 180.501l54 443h24l-53 -440
c-9.33301 -74.667 2.16699 -130.834 34.5 -168.501s84.166 -56.5 155.499 -56.5c34 0 64.167 5.5 90.5 16.5s48.666 26.5 66.999 46.5s33 43.667 44 71s18.5 57.666 22.5 90.999zM344.002 723.001l115 143l22 -22l-123 -131z" />
    <glyph glyph-name="Ucircumflex" unicode="&#xdb;" horiz-adv-x="622" 
d="M577 682l25.002 0.000976562l-54 -443c-4.66699 -36 -13 -69.167 -25 -99.5s-28.167 -56.333 -48.5 -78s-45.333 -38.5 -75 -50.5s-64.167 -18 -103.5 -18c-80.667 0 -138.5 21.833 -173.5 65.5s-47.833 103.834 -38.5 180.501l54 443h24l-53 -440
c-9.33301 -74.667 2.16699 -130.834 34.5 -168.501s84.166 -56.5 155.499 -56.5c34 0 64.167 5.5 90.5 16.5s48.666 26.5 66.999 46.5s33 43.667 44 71s18.5 57.666 22.5 90.999zM387.002 818.001l-147 -101l-9 12l145 120h28l113 -119l-10 -12z" />
    <glyph glyph-name="Udieresis" unicode="&#xdc;" horiz-adv-x="622" 
d="M577 682l25.002 0.000976562l-54 -443c-4.66699 -36 -13 -69.167 -25 -99.5s-28.167 -56.333 -48.5 -78s-45.333 -38.5 -75 -50.5s-64.167 -18 -103.5 -18c-80.667 0 -138.5 21.833 -173.5 65.5s-47.833 103.834 -38.5 180.501l54 443h24l-53 -440
c-9.33301 -74.667 2.16699 -130.834 34.5 -168.501s84.166 -56.5 155.499 -56.5c34 0 64.167 5.5 90.5 16.5s48.666 26.5 66.999 46.5s33 43.667 44 71s18.5 57.666 22.5 90.999zM318.002 785.001c6 0 11 -2 15 -6s6 -9 6 -15c0 -8 -2.66699 -14.833 -8 -20.5
s-11.666 -8.5 -18.999 -8.5c-6 0 -11 2 -15 6s-6 9.33301 -6 16c0 7.33301 2.66699 13.833 8 19.5s11.666 8.5 18.999 8.5zM447.002 785.001c6 0 11 -2 15 -6s6 -9 6 -15c0 -8 -2.66699 -14.833 -8 -20.5s-11.666 -8.5 -18.999 -8.5c-6 0 -11 2 -15 6s-6 9.33301 -6 16
c0 7.33301 2.66699 13.833 8 19.5s11.666 8.5 18.999 8.5z" />
    <glyph glyph-name="Yacute" unicode="&#xdd;" horiz-adv-x="441" 
d="M193 450l39 -109h3l64 99l157 242h30l-241 -368l-38 -314h-25l38 311l-145 371h27zM252 722l115 143l22 -22l-123 -131z" />
    <glyph glyph-name="Thorn" unicode="&#xde;" horiz-adv-x="473" 
d="M50 0l83.001 682h26l-16 -122h162c22.667 0 44.334 -3.16699 65.001 -9.5s38.5 -16 53.5 -29s27 -29.333 36 -49s13.5 -43.167 13.5 -70.5c0 -24 -3.33301 -49.333 -10 -76s-18.334 -51 -35.001 -73s-38.834 -40.333 -66.501 -55s-62.5 -22 -104.5 -22h-160l-21 -176h-26
zM268.001 200c17.333 0 36.499 3.16699 57.499 9.5s40.5 17 58.5 32s33.167 35.333 45.5 61s18.5 57.834 18.5 96.501c0 22.667 -3.66699 42.667 -11 60s-17.333 31.666 -30 42.999s-27.667 19.833 -45 25.5s-35.666 8.5 -54.999 8.5h-166l-41 -336h168z" />
    <glyph glyph-name="germandbls" unicode="&#xdf;" horiz-adv-x="516" 
d="M112 64c-4 -38.667 -8.99219 -75 -14.9922 -109s-15 -63.833 -27 -89.5s-28.167 -45.834 -48.5 -60.501s-46.833 -22 -79.5 -22c-8.66699 0 -19.167 0.666992 -31.5 2s-24.833 3.66602 -37.5 6.99902l5 19l33.5 -5.5c10.333 -1.66699 19.833 -2.5 28.5 -2.5
c19.333 0 36.666 3.16699 51.999 9.5s28.666 17 39.999 32s20.833 35 28.5 60s13.834 56.5 18.501 94.5l48 399h-72l3 23h70l11 100c2 14.667 6 33 12 55s15.667 43.167 29 63.5s31 37.666 53 51.999s50 21.5 84 21.5c24 0 44.333 -3.33301 61 -10
s30.167 -15.167 40.5 -25.5s17.666 -22 21.999 -35s6.5 -25.5 6.5 -37.5c0 -25.333 -7.33301 -47.666 -22 -66.999s-30.834 -37.333 -48.501 -54l-48.5 -47c-14.667 -14.667 -22 -30.334 -22 -47.001c0 -14 4.16699 -27.333 12.5 -40s18.666 -25.167 30.999 -37.5
s25.666 -25 39.999 -38s27.666 -27 39.999 -42s22.666 -31.333 30.999 -49s12.5 -37.5 12.5 -59.5c0 -12 -2.33301 -26 -7 -42s-12.834 -31 -24.501 -45s-27.334 -26 -47.001 -36s-44.834 -15 -75.501 -15c-21.333 0 -43.666 2.33301 -66.999 7s-42.333 10.334 -57 17.001
l9 21c29.333 -11.333 53.5 -18 72.5 -20s34.167 -3 45.5 -3c21.333 0 39.833 3 55.5 9s28.834 14.167 39.501 24.5s18.5 22.333 23.5 36s7.5 27.834 7.5 42.501c0 28 -6.5 51.667 -19.5 71s-27.167 36.666 -42.5 51.999l-35 34c-12 11.333 -23 23 -33 35
s-18.333 24.333 -25 37s-10 25.667 -10 39c0 18.667 7.16699 36.334 21.5 53.001s30.166 33.334 47.499 50.001s33.166 33.5 47.499 50.5s21.5 35.5 21.5 55.5c0 4 -0.5 11.167 -1.5 21.5s-5 20.833 -12 31.5s-17.833 20.167 -32.5 28.5s-35.667 12.5 -63 12.5
c-23.333 0 -43.666 -5 -60.999 -15s-32.166 -22.833 -44.499 -38.5s-22 -33.5 -29 -53.5s-11.833 -40 -14.5 -60z" />
    <glyph glyph-name="agrave" unicode="&#xe0;" horiz-adv-x="464" 
d="M433 26l1.00098 -16c-23.333 -8.66699 -43.666 -13 -60.999 -13c-12 0 -20.167 2.5 -24.5 7.5s-5.5 14.167 -3.5 27.5l5 37l-1 2c-30.667 -25.333 -60 -44.5 -88 -57.5s-57 -19.5 -87 -19.5c-38.667 0 -70.334 14.167 -95.001 42.5s-37.334 68.5 -38.001 120.5
c0 42.667 4.5 84 13.5 124s23.167 75.5 42.5 106.5s43.5 56 72.5 75s63.5 28.5 103.5 28.5c22 0 43.5 -3 64.5 -9s42.167 -14 63.5 -24l7 28h17l-57 -461zM269.001 469c-29.333 0 -56.333 -6.99902 -81 -20.999s-46.167 -34.167 -64.5 -60.5s-32.666 -58.333 -42.999 -96
s-15.5 -79.834 -15.5 -126.501c0 -51.333 11 -89.166 33 -113.499s48 -36.5 78 -36.5c30.667 0 60.667 8.33301 90 25s58.666 36.667 87.999 60l43 333c-24.667 13.333 -47.167 22.666 -67.5 27.999s-40.5 8 -60.5 8zM305.001 543.001l-113 124l27 22l100 -135z" />
    <glyph glyph-name="aacute" unicode="&#xe1;" horiz-adv-x="464" 
d="M433 26l1.00098 -16c-23.333 -8.66699 -43.666 -13 -60.999 -13c-12 0 -20.167 2.5 -24.5 7.5s-5.5 14.167 -3.5 27.5l5 37l-1 2c-30.667 -25.333 -60 -44.5 -88 -57.5s-57 -19.5 -87 -19.5c-38.667 0 -70.334 14.167 -95.001 42.5s-37.334 68.5 -38.001 120.5
c0 42.667 4.5 84 13.5 124s23.167 75.5 42.5 106.5s43.5 56 72.5 75s63.5 28.5 103.5 28.5c22 0 43.5 -3 64.5 -9s42.167 -14 63.5 -24l7 28h17l-57 -461zM269.001 469c-29.333 0 -56.333 -6.99902 -81 -20.999s-46.167 -34.167 -64.5 -60.5s-32.666 -58.333 -42.999 -96
s-15.5 -79.834 -15.5 -126.501c0 -51.333 11 -89.166 33 -113.499s48 -36.5 78 -36.5c30.667 0 60.667 8.33301 90 25s58.666 36.667 87.999 60l43 333c-24.667 13.333 -47.167 22.666 -67.5 27.999s-40.5 8 -60.5 8zM233.001 564.001l114 143l23 -22l-123 -131z" />
    <glyph glyph-name="acircumflex" unicode="&#xe2;" horiz-adv-x="464" 
d="M433 26l1.00098 -16c-23.333 -8.66699 -43.666 -13 -60.999 -13c-12 0 -20.167 2.5 -24.5 7.5s-5.5 14.167 -3.5 27.5l5 37l-1 2c-30.667 -25.333 -60 -44.5 -88 -57.5s-57 -19.5 -87 -19.5c-38.667 0 -70.334 14.167 -95.001 42.5s-37.334 68.5 -38.001 120.5
c0 42.667 4.5 84 13.5 124s23.167 75.5 42.5 106.5s43.5 56 72.5 75s63.5 28.5 103.5 28.5c22 0 43.5 -3 64.5 -9s42.167 -14 63.5 -24l7 28h17l-57 -461zM269.001 469c-29.333 0 -56.333 -6.99902 -81 -20.999s-46.167 -34.167 -64.5 -60.5s-32.666 -58.333 -42.999 -96
s-15.5 -79.834 -15.5 -126.501c0 -51.333 11 -89.166 33 -113.499s48 -36.5 78 -36.5c30.667 0 60.667 8.33301 90 25s58.666 36.667 87.999 60l43 333c-24.667 13.333 -47.167 22.666 -67.5 27.999s-40.5 8 -60.5 8zM286.001 653.001l-141 -103l-8 12l140 123h27l109 -122
l-12 -12z" />
    <glyph glyph-name="atilde" unicode="&#xe3;" horiz-adv-x="464" 
d="M433 26l1.00098 -16c-23.333 -8.66699 -43.666 -13 -60.999 -13c-12 0 -20.167 2.5 -24.5 7.5s-5.5 14.167 -3.5 27.5l5 37l-1 2c-30.667 -25.333 -60 -44.5 -88 -57.5s-57 -19.5 -87 -19.5c-38.667 0 -70.334 14.167 -95.001 42.5s-37.334 68.5 -38.001 120.5
c0 42.667 4.5 84 13.5 124s23.167 75.5 42.5 106.5s43.5 56 72.5 75s63.5 28.5 103.5 28.5c22 0 43.5 -3 64.5 -9s42.167 -14 63.5 -24l7 28h17l-57 -461zM269.001 469c-29.333 0 -56.333 -6.99902 -81 -20.999s-46.167 -34.167 -64.5 -60.5s-32.666 -58.333 -42.999 -96
s-15.5 -79.834 -15.5 -126.501c0 -51.333 11 -89.166 33 -113.499s48 -36.5 78 -36.5c30.667 0 60.667 8.33301 90 25s58.666 36.667 87.999 60l43 333c-24.667 13.333 -47.167 22.666 -67.5 27.999s-40.5 8 -60.5 8zM150.001 581.001l-12 7.00391
c7.33301 17.333 17.666 31.166 30.999 41.499s27 15.5 41 15.5c10 0 21 -1.83301 33 -5.5s24 -7.83398 36 -12.501s23.833 -8.83398 35.5 -12.501s22.5 -5.5 32.5 -5.5l48 39l11 -7c-7.33301 -14.667 -16.666 -27.834 -27.999 -39.501s-24.333 -17.5 -39 -17.5
c-8.66699 0 -19 2 -31 6l-37.5 13l-37.5 13c-12 4 -22.333 6 -31 6z" />
    <glyph glyph-name="adieresis" unicode="&#xe4;" horiz-adv-x="464" 
d="M433 26l1.00098 -16c-23.333 -8.66699 -43.666 -13 -60.999 -13c-12 0 -20.167 2.5 -24.5 7.5s-5.5 14.167 -3.5 27.5l5 37l-1 2c-30.667 -25.333 -60 -44.5 -88 -57.5s-57 -19.5 -87 -19.5c-38.667 0 -70.334 14.167 -95.001 42.5s-37.334 68.5 -38.001 120.5
c0 42.667 4.5 84 13.5 124s23.167 75.5 42.5 106.5s43.5 56 72.5 75s63.5 28.5 103.5 28.5c22 0 43.5 -3 64.5 -9s42.167 -14 63.5 -24l7 28h17l-57 -461zM269.001 469c-29.333 0 -56.333 -6.99902 -81 -20.999s-46.167 -34.167 -64.5 -60.5s-32.666 -58.333 -42.999 -96
s-15.5 -79.834 -15.5 -126.501c0 -51.333 11 -89.166 33 -113.499s48 -36.5 78 -36.5c30.667 0 60.667 8.33301 90 25s58.666 36.667 87.999 60l43 333c-24.667 13.333 -47.167 22.666 -67.5 27.999s-40.5 8 -60.5 8zM219.001 633.001c6 0 11 -2 15 -6s6 -9 6 -15
c0 -8 -2.66699 -14.833 -8 -20.5s-11.666 -8.5 -18.999 -8.5c-6 0 -11 2 -15 6s-6 9.33301 -6 16c0 7.33301 2.66699 13.833 8 19.5s11.666 8.5 18.999 8.5zM348.001 633.001c6 0 11 -2 15 -6s6 -9 6 -15c0 -8 -2.66699 -14.833 -8 -20.5s-11.666 -8.5 -18.999 -8.5
c-6 0 -11 2 -15 6s-6 9.33301 -6 16c0 7.33301 2.66699 13.833 8 19.5s11.666 8.5 18.999 8.5z" />
    <glyph glyph-name="aring" unicode="&#xe5;" horiz-adv-x="464" 
d="M433 26l1.00098 -16c-23.333 -8.66699 -43.666 -13 -60.999 -13c-12 0 -20.167 2.5 -24.5 7.5s-5.5 14.167 -3.5 27.5l5 37l-1 2c-30.667 -25.333 -60 -44.5 -88 -57.5s-57 -19.5 -87 -19.5c-38.667 0 -70.334 14.167 -95.001 42.5s-37.334 68.5 -38.001 120.5
c0 42.667 4.5 84 13.5 124s23.167 75.5 42.5 106.5s43.5 56 72.5 75s63.5 28.5 103.5 28.5c22 0 43.5 -3 64.5 -9s42.167 -14 63.5 -24l7 28h17l-57 -461zM269.001 469c-29.333 0 -56.333 -6.99902 -81 -20.999s-46.167 -34.167 -64.5 -60.5s-32.666 -58.333 -42.999 -96
s-15.5 -79.834 -15.5 -126.501c0 -51.333 11 -89.166 33 -113.499s48 -36.5 78 -36.5c30.667 0 60.667 8.33301 90 25s58.666 36.667 87.999 60l43 333c-24.667 13.333 -47.167 22.666 -67.5 27.999s-40.5 8 -60.5 8zM297.001 708.001c22.667 0 40.167 -6.66699 52.5 -20
s18.5 -30.666 18.5 -51.999c0 -26.667 -8.83301 -48.5 -26.5 -65.5s-39.167 -25.5 -64.5 -25.5c-23.333 0 -40.833 7 -52.5 21s-17.5 30.667 -17.5 50c0 12 2 23.5 6 34.5s9.83301 20.667 17.5 29s17.167 15.166 28.5 20.499s24 8 38 8zM295.001 690.001
c-19.333 0 -35 -7.16797 -47 -21.501s-18 -32.166 -18 -53.499c0 -16 4.16699 -28.5 12.5 -37.5s20.833 -13.5 37.5 -13.5c18 0 33.667 6.5 47 19.5s20 30.833 20 53.5c0 15.333 -4.33301 28 -13 38s-21.667 15 -39 15z" />
    <glyph glyph-name="ae" unicode="&#xe6;" horiz-adv-x="696" 
d="M249 491c18 0 34.9961 -1.99707 50.9961 -5.99707s29.833 -10.5 41.5 -19.5s20.834 -20.833 27.501 -35.5s10 -32.334 10 -53.001c0 -2 -0.166992 -4 -0.5 -6s-0.5 -4.33301 -0.5 -7c8.66699 17.333 18.834 33.666 30.501 48.999s25.167 28.833 40.5 40.5
s32.5 20.834 51.5 27.501s40.5 10 64.5 10c22 0 40.667 -3.16699 56 -9.5s27.833 -14.5 37.5 -24.5s16.667 -21.333 21 -34s6.5 -25.334 6.5 -38.001c0 -30 -8.66699 -55.333 -26 -76s-40.833 -37.167 -70.5 -49.5s-64.167 -21.166 -103.5 -26.499s-81 -8 -125 -8
c-1.33301 -8.66699 -2.16602 -19.167 -2.49902 -31.5s-0.5 -20.833 -0.5 -25.5c0 -17.333 1.83301 -35 5.5 -53s10.334 -34.5 20.001 -49.5s23.167 -27.333 40.5 -37s39.666 -14.5 66.999 -14.5c48 0 96 11 144 33l8 -18c-42.667 -23.333 -94.334 -35 -155.001 -35
c-37.333 0 -66.666 6.83301 -87.999 20.5s-36.333 30.5 -45 50.5c-25.333 -17.333 -49.5 -30.833 -72.5 -40.5s-44.333 -16.834 -64 -21.501s-37.167 -7.33398 -52.5 -8.00098s-27.666 -1 -36.999 -1c-21.333 0 -39 2.83301 -53 8.5s-25.167 13.5 -33.5 23.5
s-14.166 21.667 -17.499 35s-5 27.333 -5 42c0 34.667 9.16699 61.667 27.5 81s42.5 33.833 72.5 43.5s64 15.5 102 17.5s76.667 3 116 3c5.33301 23.333 9.66602 44.5 12.999 63.5s5 36.167 5 51.5c0 36 -8.83301 62.833 -26.5 80.5s-47.167 26.5 -88.5 26.5
c-23.333 0 -48.333 -2.5 -75 -7.5s-52 -12.167 -76 -21.5l-6 19c28.667 11.333 57.167 19.333 85.5 24s54.833 7 79.5 7zM144.996 15.0029c12.667 0 27.002 1.1709 43.002 3.50391s32.667 6.16602 50 11.499s35.166 12.5 53.499 21.5s36.166 20.167 53.499 33.5
c-4.66699 13.333 -8 27.666 -10 42.999s-3 30.666 -3 45.999c0 17.333 1 34.666 3 51.999c-32 0 -65.167 -0.833008 -99.5 -2.5s-65.833 -6.33398 -94.5 -14.001s-52.167 -19.667 -70.5 -36s-27.5 -39.166 -27.5 -68.499c0 -32 8.5 -55 25.5 -69s42.5 -21 76.5 -21z
M560.998 469.007c-29.333 0 -55.5 -6.66895 -78.5 -20.002s-42.833 -30.666 -59.5 -51.999s-30 -45 -40 -71s-17 -52 -21 -78c94 0 167.333 10.833 220 32.5s79 54.834 79 99.501c0 26.667 -8.16699 48.167 -24.5 64.5s-41.5 24.5 -75.5 24.5z" />
    <glyph glyph-name="ccedilla" unicode="&#xe7;" horiz-adv-x="405" 
d="M269 492c23.333 0 46.165 -2.33301 68.498 -7s41.5 -10.667 57.5 -18l-9 -20c-23.333 9.33301 -45.333 15.5 -66 18.5s-38.334 4.5 -53.001 4.5c-32.667 0 -61.5 -7.33301 -86.5 -22s-46.167 -35 -63.5 -61s-30.5 -57.167 -39.5 -93.5s-13.5 -76.166 -13.5 -119.499
c0 -22 2.16699 -42.833 6.5 -62.5s11.833 -36.667 22.5 -51s24.5 -25.666 41.5 -33.999s38.5 -12.5 64.5 -12.5c27.333 0 52.333 3 75 9s48 14.667 76 26l9 -17c-18 -9.33301 -39.667 -17.666 -65 -24.999s-51.333 -11.666 -78 -12.999l-61 -69
c33.333 0 59.833 -4.33301 79.5 -13s29.5 -25.667 29.5 -51c0 -12.667 -3.5 -25 -10.5 -37s-17.5 -22.667 -31.5 -32s-31.667 -16.833 -53 -22.5s-46.333 -8.5 -75 -8.5l1 17c26 2 47.833 5.66699 65.5 11s31.834 11.666 42.501 18.999s18.334 15.666 23.001 24.999
s7 18.666 7 27.999c0 15.333 -7.33301 26.666 -22 33.999s-33.667 11 -57 11c-3.33301 0 -6.83301 -0.166992 -10.5 -0.5s-7.16699 -0.5 -10.5 -0.5l-7 14l67 74c-28 0.666992 -51.667 5.66699 -71 15s-35 22 -47 38s-20.667 35 -26 57s-8 46.667 -8 74
c0 15.333 1 33.833 3 55.5s6 44.167 12 67.5s14.333 46.5 25 69.5s24.334 43.5 41.001 61.5s37 32.667 61 44s52.667 17 86 17z" />
    <glyph glyph-name="egrave" unicode="&#xe8;" horiz-adv-x="402" 
d="M194 -6c-30.667 0 -56.0039 4.83301 -76.0039 14.5s-35.667 22.834 -47 39.501s-19.333 36 -24 58s-7 45.333 -7 70c0 30 3.66699 63.333 11 100s19.833 70.834 37.5 102.501s41.334 58.334 71.001 80.001s66.834 32.5 111.501 32.5c22 0 40.667 -3.16699 56 -9.5
s27.833 -14.5 37.5 -24.5s16.667 -21.333 21 -34s6.5 -25.334 6.5 -38.001c0 -33.333 -9.16699 -61 -27.5 -83s-42.666 -39.833 -72.999 -53.5s-65.166 -23.834 -104.499 -30.501s-79.666 -11.334 -120.999 -14.001c-1.33301 -8.66699 -2 -15.667 -2 -21v-15
c0 -17.333 1.83301 -35 5.5 -53s10.334 -34.5 20.001 -49.5s23.167 -27.333 40.5 -37s39.666 -14.5 66.999 -14.5c48 0 96 11 144 33l8 -18c-42.667 -23.333 -94.334 -35 -155.001 -35zM266.996 469c-29.333 0 -55.667 -6.83203 -79 -20.499s-43.5 -31.834 -60.5 -54.501
s-30.667 -48.5 -41 -77.5s-16.833 -58.833 -19.5 -89.5c94 4.66699 167.5 19.167 220.5 43.5s79.5 60.833 79.5 109.5c0 26.667 -8.16699 48.167 -24.5 64.5s-41.5 24.5 -75.5 24.5zM297.995 543.001l-113 124l27 22l100 -135z" />
    <glyph glyph-name="eacute" unicode="&#xe9;" horiz-adv-x="402" 
d="M194 -6c-30.667 0 -56.0039 4.83301 -76.0039 14.5s-35.667 22.834 -47 39.501s-19.333 36 -24 58s-7 45.333 -7 70c0 30 3.66699 63.333 11 100s19.833 70.834 37.5 102.501s41.334 58.334 71.001 80.001s66.834 32.5 111.501 32.5c22 0 40.667 -3.16699 56 -9.5
s27.833 -14.5 37.5 -24.5s16.667 -21.333 21 -34s6.5 -25.334 6.5 -38.001c0 -33.333 -9.16699 -61 -27.5 -83s-42.666 -39.833 -72.999 -53.5s-65.166 -23.834 -104.499 -30.501s-79.666 -11.334 -120.999 -14.001c-1.33301 -8.66699 -2 -15.667 -2 -21v-15
c0 -17.333 1.83301 -35 5.5 -53s10.334 -34.5 20.001 -49.5s23.167 -27.333 40.5 -37s39.666 -14.5 66.999 -14.5c48 0 96 11 144 33l8 -18c-42.667 -23.333 -94.334 -35 -155.001 -35zM266.996 469c-29.333 0 -55.667 -6.83203 -79 -20.499s-43.5 -31.834 -60.5 -54.501
s-30.667 -48.5 -41 -77.5s-16.833 -58.833 -19.5 -89.5c94 4.66699 167.5 19.167 220.5 43.5s79.5 60.833 79.5 109.5c0 26.667 -8.16699 48.167 -24.5 64.5s-41.5 24.5 -75.5 24.5zM248.995 564.001l114 143l23 -22l-123 -131z" />
    <glyph glyph-name="ecircumflex" unicode="&#xea;" horiz-adv-x="402" 
d="M194 -6c-30.667 0 -56.0039 4.83301 -76.0039 14.5s-35.667 22.834 -47 39.501s-19.333 36 -24 58s-7 45.333 -7 70c0 30 3.66699 63.333 11 100s19.833 70.834 37.5 102.501s41.334 58.334 71.001 80.001s66.834 32.5 111.501 32.5c22 0 40.667 -3.16699 56 -9.5
s27.833 -14.5 37.5 -24.5s16.667 -21.333 21 -34s6.5 -25.334 6.5 -38.001c0 -33.333 -9.16699 -61 -27.5 -83s-42.666 -39.833 -72.999 -53.5s-65.166 -23.834 -104.499 -30.501s-79.666 -11.334 -120.999 -14.001c-1.33301 -8.66699 -2 -15.667 -2 -21v-15
c0 -17.333 1.83301 -35 5.5 -53s10.334 -34.5 20.001 -49.5s23.167 -27.333 40.5 -37s39.666 -14.5 66.999 -14.5c48 0 96 11 144 33l8 -18c-42.667 -23.333 -94.334 -35 -155.001 -35zM266.996 469c-29.333 0 -55.667 -6.83203 -79 -20.499s-43.5 -31.834 -60.5 -54.501
s-30.667 -48.5 -41 -77.5s-16.833 -58.833 -19.5 -89.5c94 4.66699 167.5 19.167 220.5 43.5s79.5 60.833 79.5 109.5c0 26.667 -8.16699 48.167 -24.5 64.5s-41.5 24.5 -75.5 24.5zM279.995 635.001l-141 -103l-8 12l140 123h27l109 -122l-12 -12z" />
    <glyph glyph-name="edieresis" unicode="&#xeb;" horiz-adv-x="402" 
d="M194 -6c-30.667 0 -56.0039 4.83301 -76.0039 14.5s-35.667 22.834 -47 39.501s-19.333 36 -24 58s-7 45.333 -7 70c0 30 3.66699 63.333 11 100s19.833 70.834 37.5 102.501s41.334 58.334 71.001 80.001s66.834 32.5 111.501 32.5c22 0 40.667 -3.16699 56 -9.5
s27.833 -14.5 37.5 -24.5s16.667 -21.333 21 -34s6.5 -25.334 6.5 -38.001c0 -33.333 -9.16699 -61 -27.5 -83s-42.666 -39.833 -72.999 -53.5s-65.166 -23.834 -104.499 -30.501s-79.666 -11.334 -120.999 -14.001c-1.33301 -8.66699 -2 -15.667 -2 -21v-15
c0 -17.333 1.83301 -35 5.5 -53s10.334 -34.5 20.001 -49.5s23.167 -27.333 40.5 -37s39.666 -14.5 66.999 -14.5c48 0 96 11 144 33l8 -18c-42.667 -23.333 -94.334 -35 -155.001 -35zM266.996 469c-29.333 0 -55.667 -6.83203 -79 -20.499s-43.5 -31.834 -60.5 -54.501
s-30.667 -48.5 -41 -77.5s-16.833 -58.833 -19.5 -89.5c94 4.66699 167.5 19.167 220.5 43.5s79.5 60.833 79.5 109.5c0 26.667 -8.16699 48.167 -24.5 64.5s-41.5 24.5 -75.5 24.5zM229.995 633.001c6 0 11 -2 15 -6s6 -9 6 -15c0 -8 -2.66699 -14.833 -8 -20.5
s-11.666 -8.5 -18.999 -8.5c-6 0 -11 2 -15 6s-6 9.33301 -6 16c0 7.33301 2.66699 13.833 8 19.5s11.666 8.5 18.999 8.5zM358.995 633.001c6 0 11 -2 15 -6s6 -9 6 -15c0 -8 -2.66699 -14.833 -8 -20.5s-11.666 -8.5 -18.999 -8.5c-6 0 -11 2 -15 6s-6 9.33301 -6 16
c0 7.33301 2.66699 13.833 8 19.5s11.666 8.5 18.999 8.5z" />
    <glyph glyph-name="igrave" unicode="&#xec;" horiz-adv-x="182" 
d="M55 0l60 486h22l-59 -486h-23zM148 543l-113 124l27 22l100 -135z" />
    <glyph glyph-name="iacute" unicode="&#xed;" horiz-adv-x="182" 
d="M55 0l60 486h22l-59 -486h-23zM114 564l114 143l23 -22l-123 -131z" />
    <glyph glyph-name="icircumflex" unicode="&#xee;" horiz-adv-x="199" 
d="M63 0l60 486h22l-59 -486h-23zM151 651l-141 -103l-8 12l140 123h27l109 -122l-12 -12z" />
    <glyph glyph-name="idieresis" unicode="&#xef;" horiz-adv-x="182" 
d="M55 0l60 486h22l-59 -486h-23zM75 633c6 0 11 -2 15 -6s6 -9 6 -15c0 -8 -2.66699 -14.833 -8 -20.5s-11.666 -8.5 -18.999 -8.5c-6 0 -11 2 -15 6s-6 9.33301 -6 16c0 7.33301 2.66699 13.833 8 19.5s11.666 8.5 18.999 8.5zM204 633c6 0 11 -2 15 -6s6 -9 6 -15
c0 -8 -2.66699 -14.833 -8 -20.5s-11.666 -8.5 -18.999 -8.5c-6 0 -11 2 -15 6s-6 9.33301 -6 16c0 7.33301 2.66699 13.833 8 19.5s11.666 8.5 18.999 8.5z" />
    <glyph glyph-name="eth" unicode="&#xf0;" horiz-adv-x="440" 
d="M247 428c-37.333 0 -67.999 -9.5 -91.999 -28.5s-42.833 -42 -56.5 -69s-23.167 -54.833 -28.5 -83.5s-8 -52.667 -8 -72c0 -20 2.16699 -39.667 6.5 -59s11.666 -36.5 21.999 -51.5s24.5 -27 42.5 -36s40.667 -13.5 68 -13.5c29.333 0 54.5 6.16699 75.5 18.5
s39 28.5 54 48.5s26.833 42.5 35.5 67.5s15.5 50.167 20.5 75.5s8 49.333 9 72s1.16699 42 0.5 58c-15.333 22.667 -36.5 40.5 -63.5 53.5s-55.5 19.5 -85.5 19.5zM394.001 396c-2 16 -4.49609 30.9971 -7.49609 44.9971s-7 27.5 -12 40.5s-11.333 25.833 -19 38.5
s-16.834 26.334 -27.501 41.001l-97 -63l-10 17l96 62c-17.333 21.333 -36.833 40.333 -58.5 57s-45.167 32.334 -70.5 47.001l9 18c28 -15.333 53.667 -32 77 -50s43.666 -38 60.999 -60l79 51l9 -18l-75 -49c46.667 -64.667 70 -142.667 70 -234
c0 -14.667 -0.833008 -33.334 -2.5 -56.001s-5.16699 -46.667 -10.5 -72s-12.833 -51 -22.5 -77s-22.834 -49.333 -39.501 -70s-37 -37.5 -61 -50.5s-52.667 -19.5 -86 -19.5c-30.667 0 -56 5.33301 -76 16s-36 24.834 -48 42.501s-20.5 37.667 -25.5 60
s-7.5 45.5 -7.5 69.5c0 23.333 3.33301 50.333 10 81s18.167 59.834 34.5 87.501s38 51 65 70s60.833 28.5 101.5 28.5c29.333 0 56.666 -5.66699 81.999 -17s44.333 -24 57 -38z" />
    <glyph glyph-name="ntilde" unicode="&#xf1;" horiz-adv-x="447" 
d="M112 406c36 26.667 69.332 47.9971 99.999 63.9971s61 24 91 24c20.667 0 37.667 -2.83301 51 -8.5s24 -13.167 32 -22.5s13.5 -20.166 16.5 -32.499s4.5 -25.166 4.5 -38.499c0 -4 -0.166992 -8.16699 -0.5 -12.5s-0.833008 -8.83301 -1.5 -13.5l-41 -366h-23l40 349
c2 12.667 3 26 3 40c0 11.333 -1.16699 22 -3.5 32s-6.66602 18.833 -12.999 26.5s-15 13.834 -26 18.501s-25.167 7 -42.5 7c-16 0 -31.833 -2.66699 -47.5 -8s-31.5 -12.5 -47.5 -21.5s-32.167 -19.167 -48.5 -30.5l-49.5 -36l-49 -377h-22l61 486h23l-10 -78z
M138.999 593.997l-12 7.00391c7.33301 17.333 17.666 31.166 30.999 41.499s27 15.5 41 15.5c10 0 21 -1.83301 33 -5.5s24 -7.83398 36 -12.501s23.833 -8.83398 35.5 -12.501s22.5 -5.5 32.5 -5.5l48 39l11 -7c-7.33301 -14.667 -16.666 -27.834 -27.999 -39.501
s-24.333 -17.5 -39 -17.5c-8.66699 0 -19 2 -31 6l-37.5 13l-37.5 13c-12 4 -22.333 6 -31 6z" />
    <glyph glyph-name="ograve" unicode="&#xf2;" horiz-adv-x="453" 
d="M256 491c30 0 55.1641 -5.33398 75.4971 -16.001s36.5 -24.667 48.5 -42s20.5 -37.666 25.5 -60.999s7.5 -47.333 7.5 -72c0 -30.667 -3.16699 -64 -9.5 -100s-17.5 -69.333 -33.5 -100s-38 -56.167 -66 -76.5s-63.333 -30.5 -106 -30.5c-31.333 0 -57.166 5 -77.499 15
s-36.5 23.5 -48.5 40.5s-20.333 36.833 -25 59.5s-7 46.667 -7 72c0 33.333 3.66699 68.333 11 105s19.333 70.167 36 100.5s38.834 55.5 66.501 75.5s61.834 30 102.501 30zM255.997 469.999c-36.667 0 -67.333 -9.33398 -92 -28.001s-44.5 -42.334 -59.5 -71.001
s-25.667 -60.167 -32 -94.5s-9.5 -66.833 -9.5 -97.5c0 -21.333 1.83301 -41.833 5.5 -61.5s10.5 -37.167 20.5 -52.5s24 -27.666 42 -36.999s41.333 -14 70 -14c26 0 48.667 4.66699 68 14s36 21.833 50 37.5s25.5 33.334 34.5 53.001s16.167 40 21.5 61s9 41.5 11 61.5
s3 38.333 3 55c0 21.333 -1.83301 42.5 -5.5 63.5s-10.5 39.667 -20.5 56s-23.667 29.5 -41 39.5s-39.333 15 -66 15zM290.998 542.998l-113 124l27 22l100 -135z" />
    <glyph glyph-name="oacute" unicode="&#xf3;" horiz-adv-x="453" 
d="M256 491c30 0 55.1641 -5.33398 75.4971 -16.001s36.5 -24.667 48.5 -42s20.5 -37.666 25.5 -60.999s7.5 -47.333 7.5 -72c0 -30.667 -3.16699 -64 -9.5 -100s-17.5 -69.333 -33.5 -100s-38 -56.167 -66 -76.5s-63.333 -30.5 -106 -30.5c-31.333 0 -57.166 5 -77.499 15
s-36.5 23.5 -48.5 40.5s-20.333 36.833 -25 59.5s-7 46.667 -7 72c0 33.333 3.66699 68.333 11 105s19.333 70.167 36 100.5s38.834 55.5 66.501 75.5s61.834 30 102.501 30zM255.997 469.999c-36.667 0 -67.333 -9.33398 -92 -28.001s-44.5 -42.334 -59.5 -71.001
s-25.667 -60.167 -32 -94.5s-9.5 -66.833 -9.5 -97.5c0 -21.333 1.83301 -41.833 5.5 -61.5s10.5 -37.167 20.5 -52.5s24 -27.666 42 -36.999s41.333 -14 70 -14c26 0 48.667 4.66699 68 14s36 21.833 50 37.5s25.5 33.334 34.5 53.001s16.167 40 21.5 61s9 41.5 11 61.5
s3 38.333 3 55c0 21.333 -1.83301 42.5 -5.5 63.5s-10.5 39.667 -20.5 56s-23.667 29.5 -41 39.5s-39.333 15 -66 15zM241.998 563.998l114 143l23 -22l-123 -131z" />
    <glyph glyph-name="ocircumflex" unicode="&#xf4;" horiz-adv-x="453" 
d="M256 491c30 0 55.1641 -5.33398 75.4971 -16.001s36.5 -24.667 48.5 -42s20.5 -37.666 25.5 -60.999s7.5 -47.333 7.5 -72c0 -30.667 -3.16699 -64 -9.5 -100s-17.5 -69.333 -33.5 -100s-38 -56.167 -66 -76.5s-63.333 -30.5 -106 -30.5c-31.333 0 -57.166 5 -77.499 15
s-36.5 23.5 -48.5 40.5s-20.333 36.833 -25 59.5s-7 46.667 -7 72c0 33.333 3.66699 68.333 11 105s19.333 70.167 36 100.5s38.834 55.5 66.501 75.5s61.834 30 102.501 30zM255.997 469.999c-36.667 0 -67.333 -9.33398 -92 -28.001s-44.5 -42.334 -59.5 -71.001
s-25.667 -60.167 -32 -94.5s-9.5 -66.833 -9.5 -97.5c0 -21.333 1.83301 -41.833 5.5 -61.5s10.5 -37.167 20.5 -52.5s24 -27.666 42 -36.999s41.333 -14 70 -14c26 0 48.667 4.66699 68 14s36 21.833 50 37.5s25.5 33.334 34.5 53.001s16.167 40 21.5 61s9 41.5 11 61.5
s3 38.333 3 55c0 21.333 -1.83301 42.5 -5.5 63.5s-10.5 39.667 -20.5 56s-23.667 29.5 -41 39.5s-39.333 15 -66 15zM285.998 652.998l-141 -103l-8 12l140 123h27l109 -122l-12 -12z" />
    <glyph glyph-name="otilde" unicode="&#xf5;" horiz-adv-x="453" 
d="M256 491c30 0 55.1641 -5.33398 75.4971 -16.001s36.5 -24.667 48.5 -42s20.5 -37.666 25.5 -60.999s7.5 -47.333 7.5 -72c0 -30.667 -3.16699 -64 -9.5 -100s-17.5 -69.333 -33.5 -100s-38 -56.167 -66 -76.5s-63.333 -30.5 -106 -30.5c-31.333 0 -57.166 5 -77.499 15
s-36.5 23.5 -48.5 40.5s-20.333 36.833 -25 59.5s-7 46.667 -7 72c0 33.333 3.66699 68.333 11 105s19.333 70.167 36 100.5s38.834 55.5 66.501 75.5s61.834 30 102.501 30zM255.997 469.999c-36.667 0 -67.333 -9.33398 -92 -28.001s-44.5 -42.334 -59.5 -71.001
s-25.667 -60.167 -32 -94.5s-9.5 -66.833 -9.5 -97.5c0 -21.333 1.83301 -41.833 5.5 -61.5s10.5 -37.167 20.5 -52.5s24 -27.666 42 -36.999s41.333 -14 70 -14c26 0 48.667 4.66699 68 14s36 21.833 50 37.5s25.5 33.334 34.5 53.001s16.167 40 21.5 61s9 41.5 11 61.5
s3 38.333 3 55c0 21.333 -1.83301 42.5 -5.5 63.5s-10.5 39.667 -20.5 56s-23.667 29.5 -41 39.5s-39.333 15 -66 15zM158.998 580.998l-12 7.00391c7.33301 17.333 17.666 31.166 30.999 41.499s27 15.5 41 15.5c10 0 21 -1.83301 33 -5.5s24 -7.83398 36 -12.501
s23.833 -8.83398 35.5 -12.501s22.5 -5.5 32.5 -5.5l48 39l11 -7c-7.33301 -14.667 -16.666 -27.834 -27.999 -39.501s-24.333 -17.5 -39 -17.5c-8.66699 0 -19 2 -31 6l-37.5 13l-37.5 13c-12 4 -22.333 6 -31 6z" />
    <glyph glyph-name="odieresis" unicode="&#xf6;" horiz-adv-x="453" 
d="M256 491c30 0 55.1641 -5.33398 75.4971 -16.001s36.5 -24.667 48.5 -42s20.5 -37.666 25.5 -60.999s7.5 -47.333 7.5 -72c0 -30.667 -3.16699 -64 -9.5 -100s-17.5 -69.333 -33.5 -100s-38 -56.167 -66 -76.5s-63.333 -30.5 -106 -30.5c-31.333 0 -57.166 5 -77.499 15
s-36.5 23.5 -48.5 40.5s-20.333 36.833 -25 59.5s-7 46.667 -7 72c0 33.333 3.66699 68.333 11 105s19.333 70.167 36 100.5s38.834 55.5 66.501 75.5s61.834 30 102.501 30zM255.997 469.999c-36.667 0 -67.333 -9.33398 -92 -28.001s-44.5 -42.334 -59.5 -71.001
s-25.667 -60.167 -32 -94.5s-9.5 -66.833 -9.5 -97.5c0 -21.333 1.83301 -41.833 5.5 -61.5s10.5 -37.167 20.5 -52.5s24 -27.666 42 -36.999s41.333 -14 70 -14c26 0 48.667 4.66699 68 14s36 21.833 50 37.5s25.5 33.334 34.5 53.001s16.167 40 21.5 61s9 41.5 11 61.5
s3 38.333 3 55c0 21.333 -1.83301 42.5 -5.5 63.5s-10.5 39.667 -20.5 56s-23.667 29.5 -41 39.5s-39.333 15 -66 15zM219.998 632.998c6 0 11 -2 15 -6s6 -9 6 -15c0 -8 -2.66699 -14.833 -8 -20.5s-11.666 -8.5 -18.999 -8.5c-6 0 -11 2 -15 6s-6 9.33301 -6 16
c0 7.33301 2.66699 13.833 8 19.5s11.666 8.5 18.999 8.5zM348.998 632.998c6 0 11 -2 15 -6s6 -9 6 -15c0 -8 -2.66699 -14.833 -8 -20.5s-11.666 -8.5 -18.999 -8.5c-6 0 -11 2 -15 6s-6 9.33301 -6 16c0 7.33301 2.66699 13.833 8 19.5s11.666 8.5 18.999 8.5z" />
    <glyph glyph-name="divide" unicode="&#xf7;" horiz-adv-x="485" 
d="M77 283l3 25h348l-3 -25h-348zM276 457c7.33301 0 13.333 -2.5 18 -7.5s7 -11.167 7 -18.5c0 -9.33301 -3.5 -17.333 -10.5 -24s-14.5 -10 -22.5 -10c-7.33301 0 -13.5 2.66699 -18.5 8s-7.5 11.666 -7.5 18.999c0 8.66699 3.5 16.334 10.5 23.001s14.833 10 23.5 10z
M243 192c7.33301 0 13.5 -2.66895 18.5 -8.00195s7.5 -11.666 7.5 -18.999c0 -9.33301 -3.66699 -17.166 -11 -23.499s-14.666 -9.5 -21.999 -9.5s-13.5 2.5 -18.5 7.5s-7.5 11.167 -7.5 18.5c0 8.66699 3.16699 16.5 9.5 23.5s14.166 10.5 23.499 10.5z" />
    <glyph glyph-name="oslash" unicode="&#xf8;" horiz-adv-x="443" 
d="M256 491c28.667 0 52.666 -4.83398 71.999 -14.501s35.333 -22.5 48 -38.5l43 53h23l-56 -68c9.33301 -17.333 16.166 -36.5 20.499 -57.5s6.5 -42.833 6.5 -65.5c0 -30.667 -3.16699 -64 -9.5 -100s-17.5 -69.333 -33.5 -100s-38 -56.167 -66 -76.5
s-63.333 -30.5 -106 -30.5c-30 0 -54.833 4.5 -74.5 13.5s-35.5 21.167 -47.5 36.5l-40 -48h-21l51 63c-9.33301 16.667 -16 35.334 -20 56.001s-6 42.667 -6 66c0 33.333 3.66699 68.333 11 105s19.333 70.167 36 100.5s38.834 55.5 66.501 75.5s61.834 30 102.501 30z
M255.999 469.999c-36.667 0 -67.333 -9.33105 -92 -27.998s-44.5 -42.334 -59.5 -71.001s-25.667 -60.167 -32 -94.5s-9.5 -66.833 -9.5 -97.5c0 -18.667 1.33301 -36.667 4 -54s7.66699 -33.333 15 -48l278 342c-10 15.333 -23.5 27.666 -40.5 36.999s-38.167 14 -63.5 14z
M389 296.001c0 18.667 -1.5 37.168 -4.5 55.501s-8.16699 35.166 -15.5 50.499l-278 -340c10 -14.667 23.833 -26.334 41.5 -35.001s40.5 -13 68.5 -13c26 0 48.667 4.66699 68 14s36 21.833 50 37.5s25.5 33.334 34.5 53.001s16.167 40 21.5 61s9 41.5 11 61.5
s3 38.333 3 55z" />
    <glyph glyph-name="ugrave" unicode="&#xf9;" horiz-adv-x="437" 
d="M337 80c-39.333 -30 -73.667 -52.1641 -103 -66.4971s-58.666 -21.5 -87.999 -21.5c-20.667 0 -37.5 2.66699 -50.5 8s-23.333 12.666 -31 21.999s-12.834 20.166 -15.501 32.499s-4 25.166 -4 38.499c0 4 0.166992 8.16699 0.5 12.5s0.833008 8.83301 1.5 13.5l42 367
h23l-41 -350c-2 -13.333 -3 -26.666 -3 -39.999c0 -11.333 1 -22 3 -32s6 -18.833 12 -26.5s14.333 -13.667 25 -18s24.667 -6.5 42 -6.5c28 0 58 8.66699 90 26s66.333 40.666 103 69.999l47 377h22l-59 -486h-23l10 78zM267.999 543.003l-113 124l27 22l100 -135z" />
    <glyph glyph-name="uacute" unicode="&#xfa;" horiz-adv-x="437" 
d="M337 80c-39.333 -30 -73.667 -52.1641 -103 -66.4971s-58.666 -21.5 -87.999 -21.5c-20.667 0 -37.5 2.66699 -50.5 8s-23.333 12.666 -31 21.999s-12.834 20.166 -15.501 32.499s-4 25.166 -4 38.499c0 4 0.166992 8.16699 0.5 12.5s0.833008 8.83301 1.5 13.5l42 367
h23l-41 -350c-2 -13.333 -3 -26.666 -3 -39.999c0 -11.333 1 -22 3 -32s6 -18.833 12 -26.5s14.333 -13.667 25 -18s24.667 -6.5 42 -6.5c28 0 58 8.66699 90 26s66.333 40.666 103 69.999l47 377h22l-59 -486h-23l10 78zM232.999 564.003l114 143l23 -22l-123 -131z" />
    <glyph glyph-name="ucircumflex" unicode="&#xfb;" horiz-adv-x="437" 
d="M337 80c-39.333 -30 -73.667 -52.1641 -103 -66.4971s-58.666 -21.5 -87.999 -21.5c-20.667 0 -37.5 2.66699 -50.5 8s-23.333 12.666 -31 21.999s-12.834 20.166 -15.501 32.499s-4 25.166 -4 38.499c0 4 0.166992 8.16699 0.5 12.5s0.833008 8.83301 1.5 13.5l42 367
h23l-41 -350c-2 -13.333 -3 -26.666 -3 -39.999c0 -11.333 1 -22 3 -32s6 -18.833 12 -26.5s14.333 -13.667 25 -18s24.667 -6.5 42 -6.5c28 0 58 8.66699 90 26s66.333 40.666 103 69.999l47 377h22l-59 -486h-23l10 78zM269.999 653.003l-141 -103l-8 12l140 123h27
l109 -122l-12 -12z" />
    <glyph glyph-name="udieresis" unicode="&#xfc;" horiz-adv-x="437" 
d="M337 80c-39.333 -30 -73.667 -52.1641 -103 -66.4971s-58.666 -21.5 -87.999 -21.5c-20.667 0 -37.5 2.66699 -50.5 8s-23.333 12.666 -31 21.999s-12.834 20.166 -15.501 32.499s-4 25.166 -4 38.499c0 4 0.166992 8.16699 0.5 12.5s0.833008 8.83301 1.5 13.5l42 367
h23l-41 -350c-2 -13.333 -3 -26.666 -3 -39.999c0 -11.333 1 -22 3 -32s6 -18.833 12 -26.5s14.333 -13.667 25 -18s24.667 -6.5 42 -6.5c28 0 58 8.66699 90 26s66.333 40.666 103 69.999l47 377h22l-59 -486h-23l10 78zM329.999 633.003c6 0 11 -2 15 -6s6 -9 6 -15
c0 -8 -2.66699 -14.833 -8 -20.5s-11.666 -8.5 -18.999 -8.5c-6 0 -11 2 -15 6s-6 9.33301 -6 16c0 7.33301 2.66699 13.833 8 19.5s11.666 8.5 18.999 8.5zM200.999 633.003c6 0 11 -2 15 -6s6 -9 6 -15c0 -8 -2.66699 -14.833 -8 -20.5s-11.666 -8.5 -18.999 -8.5
c-6 0 -11 2 -15 6s-6 9.33301 -6 16c0 7.33301 2.66699 13.833 8 19.5s11.666 8.5 18.999 8.5z" />
    <glyph glyph-name="yacute" unicode="&#xfd;" horiz-adv-x="385" 
d="M133 -119c-14 -30.667 -28.832 -54.999 -44.499 -72.999s-37.834 -27 -66.501 -27c-9.33301 0 -21.5 1.16699 -36.5 3.5s-31.833 7.16602 -50.5 14.499l7 19c17.333 -6 32 -10.167 44 -12.5s23.333 -3.5 34 -3.5c5.33301 0 11.5 0.666992 18.5 2
s14.333 4.66602 22 9.99902s15.5 13.333 23.5 24s16 25.334 24 44.001l52 118h-13l-103 486h23l61 -291l37 -177h4c2 4 5.33301 11.333 10 22l17 40l22.5 54l26.5 62l128 298l23 -6zM189.001 556.001l114 143l23 -22l-123 -131z" />
    <glyph glyph-name="thorn" unicode="&#xfe;" horiz-adv-x="452" 
d="M141 708l-36.0029 -291l1 -2c32 25.333 62 44.5 90 57.5s57 19.5 87 19.5c38.667 0 70.334 -14.167 95.001 -42.5s37.334 -68.5 38.001 -120.5c0 -42.667 -4.5 -84 -13.5 -124s-23.167 -75.5 -42.5 -106.5s-43.5 -56 -72.5 -75s-63.5 -28.5 -103.5 -28.5
c-22 0 -43.167 3 -63.5 9s-41.166 14 -62.499 24l-31 -241h-21l113 921h22zM187.997 17c28.667 0 55.5 7 80.5 21s46.667 34.167 65 60.5s32.666 58.333 42.999 96s15.5 79.834 15.5 126.501c0 51.333 -11 89.166 -33 113.499s-48 36.5 -78 36.5
c-30.667 0 -60.667 -8.33301 -90 -25s-58.666 -36.667 -87.999 -60l-43 -334c24.667 -13.333 47.167 -22.5 67.5 -27.5s40.5 -7.5 60.5 -7.5z" />
    <glyph glyph-name="ydieresis" unicode="&#xff;" horiz-adv-x="385" 
d="M133 -119c-14 -30.667 -28.832 -54.999 -44.499 -72.999s-37.834 -27 -66.501 -27c-9.33301 0 -21.5 1.16699 -36.5 3.5s-31.833 7.16602 -50.5 14.499l7 19c17.333 -6 32 -10.167 44 -12.5s23.333 -3.5 34 -3.5c5.33301 0 11.5 0.666992 18.5 2
s14.333 4.66602 22 9.99902s15.5 13.333 23.5 24s16 25.334 24 44.001l52 118h-13l-103 486h23l61 -291l37 -177h4c2 4 5.33301 11.333 10 22l17 40l22.5 54l26.5 62l128 298l23 -6zM308.001 633.001c6 0 11 -2 15 -6s6 -9 6 -15c0 -8 -2.66699 -14.833 -8 -20.5
s-11.666 -8.5 -18.999 -8.5c-6 0 -11 2 -15 6s-6 9.33301 -6 16c0 7.33301 2.66699 13.833 8 19.5s11.666 8.5 18.999 8.5zM179.001 633.001c6 0 11 -2 15 -6s6 -9 6 -15c0 -8 -2.66699 -14.833 -8 -20.5s-11.666 -8.5 -18.999 -8.5c-6 0 -11 2 -15 6s-6 9.33301 -6 16
c0 7.33301 2.66699 13.833 8 19.5s11.666 8.5 18.999 8.5z" />
    <glyph glyph-name="Amacron" unicode="&#x100;" horiz-adv-x="500" 
d="M392 197h-286l-84 -197h-27l296 682h35l129 -682h-25zM243 513l-127 -292h271l-54 292l-26 143h-3zM457 774l-4 -26h-277l4 26h277z" />
    <glyph glyph-name="amacron" unicode="&#x101;" horiz-adv-x="464" 
d="M433 26l1.00098 -16c-23.333 -8.66699 -43.666 -13 -60.999 -13c-12 0 -20.167 2.5 -24.5 7.5s-5.5 14.167 -3.5 27.5l5 37l-1 2c-30.667 -25.333 -60 -44.5 -88 -57.5s-57 -19.5 -87 -19.5c-38.667 0 -70.334 14.167 -95.001 42.5s-37.334 68.5 -38.001 120.5
c0 42.667 4.5 84 13.5 124s23.167 75.5 42.5 106.5s43.5 56 72.5 75s63.5 28.5 103.5 28.5c22 0 43.5 -3 64.5 -9s42.167 -14 63.5 -24l7 28h17l-57 -461zM269.001 469c-29.333 0 -56.333 -6.99902 -81 -20.999s-46.167 -34.167 -64.5 -60.5s-32.666 -58.333 -42.999 -96
s-15.5 -79.834 -15.5 -126.501c0 -51.333 11 -89.166 33 -113.499s48 -36.5 78 -36.5c30.667 0 60.667 8.33301 90 25s58.666 36.667 87.999 60l43 333c-24.667 13.333 -47.167 22.666 -67.5 27.999s-40.5 8 -60.5 8zM434.001 626.001l-3 -26h-278l3 26h278z" />
    <glyph glyph-name="Abreve" unicode="&#x102;" horiz-adv-x="500" 
d="M392 197h-286l-84 -197h-27l296 682h35l129 -682h-25zM243 513l-127 -292h271l-54 292l-26 143h-3zM306 718c-28.667 0 -53.499 8.99902 -74.499 26.999s-37.167 39 -48.5 63l24 14c12 -23.333 27 -42.166 45 -56.499s37.667 -21.5 59 -21.5
c17.333 0 37.166 5.5 59.499 16.5s48.5 30.167 78.5 57.5l11 -9c-30 -34.667 -57.833 -58.5 -83.5 -71.5s-49.167 -19.5 -70.5 -19.5z" />
    <glyph glyph-name="abreve" unicode="&#x103;" horiz-adv-x="464" 
d="M433 26l1.00098 -16c-23.333 -8.66699 -43.666 -13 -60.999 -13c-12 0 -20.167 2.5 -24.5 7.5s-5.5 14.167 -3.5 27.5l5 37l-1 2c-30.667 -25.333 -60 -44.5 -88 -57.5s-57 -19.5 -87 -19.5c-38.667 0 -70.334 14.167 -95.001 42.5s-37.334 68.5 -38.001 120.5
c0 42.667 4.5 84 13.5 124s23.167 75.5 42.5 106.5s43.5 56 72.5 75s63.5 28.5 103.5 28.5c22 0 43.5 -3 64.5 -9s42.167 -14 63.5 -24l7 28h17l-57 -461zM269.001 469c-29.333 0 -56.333 -6.99902 -81 -20.999s-46.167 -34.167 -64.5 -60.5s-32.666 -58.333 -42.999 -96
s-15.5 -79.834 -15.5 -126.501c0 -51.333 11 -89.166 33 -113.499s48 -36.5 78 -36.5c30.667 0 60.667 8.33301 90 25s58.666 36.667 87.999 60l43 333c-24.667 13.333 -47.167 22.666 -67.5 27.999s-40.5 8 -60.5 8zM265.001 566.001c-28.667 0 -53.5 8.99902 -74.5 26.999
s-37.167 39 -48.5 63l25 14c11.333 -23.333 26 -42.166 44 -56.499s37.667 -21.5 59 -21.5c17.333 0 37.333 5 60 15s48.667 29.667 78 59l11 -9c-29.333 -34.667 -56.833 -58.5 -82.5 -71.5s-49.5 -19.5 -71.5 -19.5z" />
    <glyph glyph-name="Aogonek" unicode="&#x104;" horiz-adv-x="500" 
d="M437 0c-29.333 -25.333 -49.834 -49.167 -61.501 -71.5s-18.167 -39.833 -19.5 -52.5c-2.66699 -20 1.83301 -33.5 13.5 -40.5s25.834 -10.5 42.501 -10.5c12.667 0 24.5 1 35.5 3s21.167 4.33301 30.5 7l5 -14c-15.333 -7.33301 -30.5 -12.666 -45.5 -15.999
s-28.833 -5 -41.5 -5c-28 0 -47.333 6.5 -58 19.5s-14.667 28.5 -12 46.5c2 18 10 39.167 24 63.5s40 51.166 78 80.499l-36 187h-286l-84 -197h-27l296 682h35l129 -682h-18zM242.999 512.999l-127 -292h271l-54 292l-26 143h-3z" />
    <glyph glyph-name="aogonek" unicode="&#x105;" horiz-adv-x="464" 
d="M433 26l1.00098 -16.002c-23.333 -8.66699 -43.666 -13 -60.999 -13c-10 0 -17.333 1.66699 -22 5c-28.667 -24.667 -48.5 -47.667 -59.5 -69s-17.167 -38.666 -18.5 -51.999c-2.66699 -20 1.83301 -33.5 13.5 -40.5s25.834 -10.5 42.501 -10.5c12.667 0 24.5 1 35.5 3
s21.167 4.33301 30.5 7l5 -14c-15.333 -7.33301 -30.5 -12.666 -45.5 -15.999s-28.833 -5 -41.5 -5c-28 0 -47.333 6.5 -58 19.5s-14.667 28.5 -12 46.5c2 18 10 39 24 63s39.667 50.667 77 80c-0.666992 3.33301 -0.333984 9.33301 0.999023 18l5 37l-1 2
c-30.667 -25.333 -60 -44.5 -88 -57.5s-57 -19.5 -87 -19.5c-38.667 0 -70.334 14.167 -95.001 42.5s-37.334 68.5 -38.001 120.5c0 42.667 4.5 84 13.5 124s23.167 75.5 42.5 106.5s43.5 56 72.5 75s63.5 28.5 103.5 28.5c22 0 43.5 -3 64.5 -9s42.167 -14 63.5 -24l7 28
h17l-57 -461zM269.001 468.998c-29.333 0 -56.333 -6.99902 -81 -20.999s-46.167 -34.167 -64.5 -60.5s-32.666 -58.333 -42.999 -96s-15.5 -79.834 -15.5 -126.501c0 -51.333 11 -89.166 33 -113.499s48 -36.5 78 -36.5c30.667 0 60.667 8.33301 90 25
s58.666 36.667 87.999 60l43 333c-24.667 13.333 -47.167 22.666 -67.5 27.999s-40.5 8 -60.5 8z" />
    <glyph glyph-name="Cacute" unicode="&#x106;" horiz-adv-x="525" 
d="M469 18c-25.333 -9.33301 -54.502 -15.8301 -87.502 -19.4971s-63.167 -5.5 -90.5 -5.5c-40 0 -74 5.83301 -102 17.5s-50.833 28.667 -68.5 51s-30.5 49.5 -38.5 81.5s-12 68 -12 108c0 24.667 1.5 52.667 4.5 84s8.66699 63.333 17 96s19.666 64.667 33.999 96
s32.833 59.166 55.5 83.499s50 44 82 59s69.667 22.5 113 22.5c34 0 65 -2.66699 93 -8s50 -11.333 66 -18l-9 -21c-23.333 7.33301 -48.166 13.166 -74.499 17.499s-51.166 6.5 -74.499 6.5c-48.667 0 -90.667 -10.667 -126 -32s-64.333 -51 -87 -89
s-39.5 -82.833 -50.5 -134.5s-16.5 -107.5 -16.5 -167.5c0 -30.667 2.5 -59.834 7.5 -87.501s14.833 -52 29.5 -73s34.834 -37.667 60.501 -50s59.167 -18.5 100.5 -18.5c8.66699 0 19.5 0.333008 32.5 1s27 2 42 4s30.333 4.33301 46 7s31.167 6 46.5 10zM348.998 723.003
l115 143l22 -22l-123 -131z" />
    <glyph glyph-name="cacute" unicode="&#x107;" horiz-adv-x="405" 
d="M269 492c23.333 0 46.165 -2.33398 68.498 -7.00098s41.5 -10.667 57.5 -18l-9 -20c-23.333 9.33301 -45.333 15.5 -66 18.5s-38.334 4.5 -53.001 4.5c-32.667 0 -61.5 -7.33301 -86.5 -22s-46.167 -35 -63.5 -61s-30.5 -57.167 -39.5 -93.5
s-13.5 -76.166 -13.5 -119.499c0 -22 2.16699 -42.833 6.5 -62.5s11.833 -36.667 22.5 -51s24.5 -25.666 41.5 -33.999s38.5 -12.5 64.5 -12.5c27.333 0 52.333 3 75 9s48 14.667 76 26l9 -17c-19.333 -10.667 -43.166 -19.834 -71.499 -27.501s-57.166 -11.5 -86.499 -11.5
s-54.166 4.5 -74.499 13.5s-36.833 21.5 -49.5 37.5s-21.834 35.333 -27.501 58s-8.5 47.667 -8.5 75c0 15.333 1 33.833 3 55.5s6 44.167 12 67.5s14.333 46.5 25 69.5s24.334 43.5 41.001 61.5s37 32.667 61 44s52.667 17 86 17zM221.999 563.999l114 143l23 -22
l-123 -131z" />
    <glyph glyph-name="Ccircumflex" unicode="&#x108;" horiz-adv-x="525" 
d="M469 18c-25.333 -9.33301 -54.502 -15.8301 -87.502 -19.4971s-63.167 -5.5 -90.5 -5.5c-40 0 -74 5.83301 -102 17.5s-50.833 28.667 -68.5 51s-30.5 49.5 -38.5 81.5s-12 68 -12 108c0 24.667 1.5 52.667 4.5 84s8.66699 63.333 17 96s19.666 64.667 33.999 96
s32.833 59.166 55.5 83.499s50 44 82 59s69.667 22.5 113 22.5c34 0 65 -2.66699 93 -8s50 -11.333 66 -18l-9 -21c-23.333 7.33301 -48.166 13.166 -74.499 17.499s-51.166 6.5 -74.499 6.5c-48.667 0 -90.667 -10.667 -126 -32s-64.333 -51 -87 -89
s-39.5 -82.833 -50.5 -134.5s-16.5 -107.5 -16.5 -167.5c0 -30.667 2.5 -59.834 7.5 -87.501s14.833 -52 29.5 -73s34.834 -37.667 60.501 -50s59.167 -18.5 100.5 -18.5c8.66699 0 19.5 0.333008 32.5 1s27 2 42 4s30.333 4.33301 46 7s31.167 6 46.5 10zM365.998 819.003
l-141 -103l-9 12l140 123h27l109 -122l-10 -12z" />
    <glyph glyph-name="ccircumflex" unicode="&#x109;" horiz-adv-x="405" 
d="M269 492c23.333 0 46.165 -2.33398 68.498 -7.00098s41.5 -10.667 57.5 -18l-9 -20c-23.333 9.33301 -45.333 15.5 -66 18.5s-38.334 4.5 -53.001 4.5c-32.667 0 -61.5 -7.33301 -86.5 -22s-46.167 -35 -63.5 -61s-30.5 -57.167 -39.5 -93.5
s-13.5 -76.166 -13.5 -119.499c0 -22 2.16699 -42.833 6.5 -62.5s11.833 -36.667 22.5 -51s24.5 -25.666 41.5 -33.999s38.5 -12.5 64.5 -12.5c27.333 0 52.333 3 75 9s48 14.667 76 26l9 -17c-19.333 -10.667 -43.166 -19.834 -71.499 -27.501s-57.166 -11.5 -86.499 -11.5
s-54.166 4.5 -74.499 13.5s-36.833 21.5 -49.5 37.5s-21.834 35.333 -27.501 58s-8.5 47.667 -8.5 75c0 15.333 1 33.833 3 55.5s6 44.167 12 67.5s14.333 46.5 25 69.5s24.334 43.5 41.001 61.5s37 32.667 61 44s52.667 17 86 17zM271.999 649.999l-141 -103l-8 12l140 123
h27l109 -122l-12 -12z" />
    <glyph glyph-name="Cdotaccent" unicode="&#x10a;" horiz-adv-x="525" 
d="M469 18c-25.333 -9.33301 -54.502 -15.8301 -87.502 -19.4971s-63.167 -5.5 -90.5 -5.5c-40 0 -74 5.83301 -102 17.5s-50.833 28.667 -68.5 51s-30.5 49.5 -38.5 81.5s-12 68 -12 108c0 24.667 1.5 52.667 4.5 84s8.66699 63.333 17 96s19.666 64.667 33.999 96
s32.833 59.166 55.5 83.499s50 44 82 59s69.667 22.5 113 22.5c34 0 65 -2.66699 93 -8s50 -11.333 66 -18l-9 -21c-23.333 7.33301 -48.166 13.166 -74.499 17.499s-51.166 6.5 -74.499 6.5c-48.667 0 -90.667 -10.667 -126 -32s-64.333 -51 -87 -89
s-39.5 -82.833 -50.5 -134.5s-16.5 -107.5 -16.5 -167.5c0 -30.667 2.5 -59.834 7.5 -87.501s14.833 -52 29.5 -73s34.834 -37.667 60.501 -50s59.167 -18.5 100.5 -18.5c8.66699 0 19.5 0.333008 32.5 1s27 2 42 4s30.333 4.33301 46 7s31.167 6 46.5 10zM362.998 816.003
c7.33301 0 13.333 -2.16699 18 -6.5s7 -9.83301 7 -16.5c0 -8 -3.16699 -15.167 -9.5 -21.5s-13.5 -9.5 -21.5 -9.5c-7.33301 0 -13.333 2.16699 -18 6.5s-7 9.83301 -7 16.5c0 8 3.16699 15.167 9.5 21.5s13.5 9.5 21.5 9.5z" />
    <glyph glyph-name="cdotaccent" unicode="&#x10b;" horiz-adv-x="405" 
d="M269 492c23.333 0 46.165 -2.33398 68.498 -7.00098s41.5 -10.667 57.5 -18l-9 -20c-23.333 9.33301 -45.333 15.5 -66 18.5s-38.334 4.5 -53.001 4.5c-32.667 0 -61.5 -7.33301 -86.5 -22s-46.167 -35 -63.5 -61s-30.5 -57.167 -39.5 -93.5
s-13.5 -76.166 -13.5 -119.499c0 -22 2.16699 -42.833 6.5 -62.5s11.833 -36.667 22.5 -51s24.5 -25.666 41.5 -33.999s38.5 -12.5 64.5 -12.5c27.333 0 52.333 3 75 9s48 14.667 76 26l9 -17c-19.333 -10.667 -43.166 -19.834 -71.499 -27.501s-57.166 -11.5 -86.499 -11.5
s-54.166 4.5 -74.499 13.5s-36.833 21.5 -49.5 37.5s-21.834 35.333 -27.501 58s-8.5 47.667 -8.5 75c0 15.333 1 33.833 3 55.5s6 44.167 12 67.5s14.333 46.5 25 69.5s24.334 43.5 41.001 61.5s37 32.667 61 44s52.667 17 86 17zM272.999 621.999
c6.66699 0 12.167 -2.16699 16.5 -6.5s6.5 -9.83301 6.5 -16.5c0 -8 -2.83301 -15 -8.5 -21s-12.167 -9 -19.5 -9c-6.66699 0 -12.167 2 -16.5 6s-6.5 9.33301 -6.5 16c0 8 2.83301 15.167 8.5 21.5s12.167 9.5 19.5 9.5z" />
    <glyph glyph-name="Ccaron" unicode="&#x10c;" horiz-adv-x="525" 
d="M469 18c-25.333 -9.33301 -54.502 -15.8301 -87.502 -19.4971s-63.167 -5.5 -90.5 -5.5c-40 0 -74 5.83301 -102 17.5s-50.833 28.667 -68.5 51s-30.5 49.5 -38.5 81.5s-12 68 -12 108c0 24.667 1.5 52.667 4.5 84s8.66699 63.333 17 96s19.666 64.667 33.999 96
s32.833 59.166 55.5 83.499s50 44 82 59s69.667 22.5 113 22.5c34 0 65 -2.66699 93 -8s50 -11.333 66 -18l-9 -21c-23.333 7.33301 -48.166 13.166 -74.499 17.499s-51.166 6.5 -74.499 6.5c-48.667 0 -90.667 -10.667 -126 -32s-64.333 -51 -87 -89
s-39.5 -82.833 -50.5 -134.5s-16.5 -107.5 -16.5 -167.5c0 -30.667 2.5 -59.834 7.5 -87.501s14.833 -52 29.5 -73s34.834 -37.667 60.501 -50s59.167 -18.5 100.5 -18.5c8.66699 0 19.5 0.333008 32.5 1s27 2 42 4s30.333 4.33301 46 7s31.167 6 46.5 10zM505.998 852.003
l8 -12l-139 -122h-27l-110 123l12 12l116 -103z" />
    <glyph glyph-name="ccaron" unicode="&#x10d;" horiz-adv-x="405" 
d="M269 492c23.333 0 46.165 -2.33398 68.498 -7.00098s41.5 -10.667 57.5 -18l-9 -20c-23.333 9.33301 -45.333 15.5 -66 18.5s-38.334 4.5 -53.001 4.5c-32.667 0 -61.5 -7.33301 -86.5 -22s-46.167 -35 -63.5 -61s-30.5 -57.167 -39.5 -93.5
s-13.5 -76.166 -13.5 -119.499c0 -22 2.16699 -42.833 6.5 -62.5s11.833 -36.667 22.5 -51s24.5 -25.666 41.5 -33.999s38.5 -12.5 64.5 -12.5c27.333 0 52.333 3 75 9s48 14.667 76 26l9 -17c-19.333 -10.667 -43.166 -19.834 -71.499 -27.501s-57.166 -11.5 -86.499 -11.5
s-54.166 4.5 -74.499 13.5s-36.833 21.5 -49.5 37.5s-21.834 35.333 -27.501 58s-8.5 47.667 -8.5 75c0 15.333 1 33.833 3 55.5s6 44.167 12 67.5s14.333 46.5 25 69.5s24.334 43.5 41.001 61.5s37 32.667 61 44s52.667 17 86 17zM408.999 693.999l8 -12l-139 -122h-27
l-111 123l13 12l115 -103z" />
    <glyph glyph-name="Dcaron" unicode="&#x10e;" horiz-adv-x="576" 
d="M315 682c43.333 0 79.3311 -6.83301 107.998 -20.5s51.334 -32.5 68.001 -56.5s28.334 -52.333 35.001 -85s10 -67.667 10 -105c0 -54.667 -5.33301 -107 -16 -157s-28.167 -94.167 -52.5 -132.5s-56.5 -68.833 -96.5 -91.5s-89 -34 -147 -34h-174l83 682h182zM77.998 25
l143.003 -0.000976562c10 0 24 0.666992 42 2s37.667 5.66602 59 12.999s43.166 18.833 65.499 34.5s42.666 37.834 60.999 66.501s33.333 65 45 109s17.5 98 17.5 162c0 40.667 -3.5 75 -10.5 103s-16.5 51.167 -28.5 69.5s-25.333 32.333 -40 42
s-29.667 16.834 -45 21.501s-30.333 7.5 -45 8.5s-27.334 1.5 -38.001 1.5h-149zM443.001 851.999l8 -12l-139 -122h-27l-110 123l12 12l116 -103z" />
    <glyph glyph-name="dcaron" unicode="&#x10f;" horiz-adv-x="514" 
d="M545 700c7.33301 0 13.499 -2.49609 18.499 -7.49609s7.5 -12.167 7.5 -21.5c0 -32.667 -18 -63.334 -54 -92.001l-7 8c11.333 11.333 18.5 21.166 21.5 29.499s5.16699 18.166 6.5 29.499c-7.33301 0 -13 2 -17 6s-6 9 -6 15c0 9.33301 2.83301 17.166 8.5 23.499
s12.834 9.5 21.501 9.5zM340.999 0.00390625l9.00195 69l-1 2c-30.667 -25.333 -60 -44.5 -88 -57.5s-57 -19.5 -87 -19.5c-38.667 0 -70.334 14.167 -95.001 42.5s-37.334 68.5 -38.001 120.5c0 42.667 4.5 84 13.5 124s23.167 75.5 42.5 106.5s43.5 56 72.5 75
s63.5 28.5 103.5 28.5c22 0 43.5 -3 64.5 -9s42.167 -14 63.5 -24l31 250h21l-88 -708h-24zM269.001 469.004c-29.333 0 -56.333 -7 -81 -21s-46.167 -34.167 -64.5 -60.5s-32.666 -58.333 -42.999 -96s-15.5 -79.834 -15.5 -126.501c0 -51.333 11 -89.166 33 -113.499
s48 -36.5 78 -36.5c30.667 0 60.667 8.33301 90 25s58.666 36.667 87.999 60l43 334c-24.667 13.333 -47.167 22.5 -67.5 27.5s-40.5 7.5 -60.5 7.5z" />
    <glyph glyph-name="Dcroat" unicode="&#x110;" horiz-adv-x="577" 
d="M315 682c43.333 0 79.3311 -6.83301 107.998 -20.5s51.334 -32.5 68.001 -56.5s28.334 -52.333 35.001 -85s10 -67.667 10 -105c0 -54.667 -5.33301 -107 -16 -157s-28.167 -94.167 -52.5 -132.5s-56.5 -68.833 -96.5 -91.5s-89 -34 -147 -34h-174l42 347h-61l3 22h60
l39 313h182zM119.998 369l207.003 -0.000976562l-3 -22h-207l-39 -322h143c10 0 24 0.666992 42 2s37.667 5.66602 59 12.999s43.166 18.833 65.499 34.5s42.666 37.834 60.999 66.501s33.333 65 45 109s17.5 98 17.5 162c0 40.667 -3.5 75 -10.5 103
s-16.5 51.167 -28.5 69.5s-25.333 32.333 -40 42s-29.667 16.834 -45 21.501s-30.333 7.5 -45 8.5s-27.334 1.5 -38.001 1.5h-149z" />
    <glyph glyph-name="dcroat" unicode="&#x111;" horiz-adv-x="453" 
d="M341 0l9.00195 69l-1 2c-30.667 -25.333 -60 -44.5 -88 -57.5s-57 -19.5 -87 -19.5c-38.667 0 -70.334 14.167 -95.001 42.5s-37.334 68.5 -38.001 120.5c0 42.667 4.5 84 13.5 124s23.167 75.5 42.5 106.5s43.5 56 72.5 75s63.5 28.5 103.5 28.5c22 0 43.5 -3 64.5 -9
s42.167 -14 63.5 -24l12 97h-158l2 23h159l16 130h21l-16 -130h56l-2 -23h-57l-69 -555h-24zM269.002 469c-29.333 0 -56.333 -7 -81 -21s-46.167 -34.167 -64.5 -60.5s-32.666 -58.333 -42.999 -96s-15.5 -79.834 -15.5 -126.501c0 -51.333 11 -89.166 33 -113.499
s48 -36.5 78 -36.5c30.667 0 60.667 8.33301 90 25s58.666 36.667 87.999 60l43 334c-24.667 13.333 -47.167 22.5 -67.5 27.5s-40.5 7.5 -60.5 7.5z" />
    <glyph glyph-name="Emacron" unicode="&#x112;" horiz-adv-x="470" 
d="M133 682h347l-3 -24h-322l-35 -284h286l-2 -23l-287 -1l-40 -326h352l-2 -24h-377zM460 774l-4 -26h-277l4 26h277z" />
    <glyph glyph-name="emacron" unicode="&#x113;" horiz-adv-x="402" 
d="M194 -6c-30.667 0 -56.0039 4.83301 -76.0039 14.5s-35.667 22.834 -47 39.501s-19.333 36 -24 58s-7 45.333 -7 70c0 30 3.66699 63.333 11 100s19.833 70.834 37.5 102.501s41.334 58.334 71.001 80.001s66.834 32.5 111.501 32.5c22 0 40.667 -3.16699 56 -9.5
s27.833 -14.5 37.5 -24.5s16.667 -21.333 21 -34s6.5 -25.334 6.5 -38.001c0 -33.333 -9.16699 -61 -27.5 -83s-42.666 -39.833 -72.999 -53.5s-65.166 -23.834 -104.499 -30.501s-79.666 -11.334 -120.999 -14.001c-1.33301 -8.66699 -2 -15.667 -2 -21v-15
c0 -17.333 1.83301 -35 5.5 -53s10.334 -34.5 20.001 -49.5s23.167 -27.333 40.5 -37s39.666 -14.5 66.999 -14.5c48 0 96 11 144 33l8 -18c-42.667 -23.333 -94.334 -35 -155.001 -35zM266.996 469c-29.333 0 -55.667 -6.83203 -79 -20.499s-43.5 -31.834 -60.5 -54.501
s-30.667 -48.5 -41 -77.5s-16.833 -58.833 -19.5 -89.5c94 4.66699 167.5 19.167 220.5 43.5s79.5 60.833 79.5 109.5c0 26.667 -8.16699 48.167 -24.5 64.5s-41.5 24.5 -75.5 24.5zM429.995 626.001l-3 -26h-278l3 26h278z" />
    <glyph glyph-name="Ebreve" unicode="&#x114;" horiz-adv-x="470" 
d="M133 682h347l-3 -24h-322l-35 -284h286l-2 -23l-287 -1l-40 -326h352l-2 -24h-377zM314 718c-28.667 0 -53.499 8.99902 -74.499 26.999s-37.167 39 -48.5 63l24 14c12 -23.333 27 -42.166 45 -56.499s37.667 -21.5 59 -21.5c17.333 0 37.166 5.5 59.499 16.5
s48.5 30.167 78.5 57.5l11 -9c-30 -34.667 -57.833 -58.5 -83.5 -71.5s-49.167 -19.5 -70.5 -19.5z" />
    <glyph glyph-name="ebreve" unicode="&#x115;" horiz-adv-x="402" 
d="M194 -6c-30.667 0 -56.0039 4.83301 -76.0039 14.5s-35.667 22.834 -47 39.501s-19.333 36 -24 58s-7 45.333 -7 70c0 30 3.66699 63.333 11 100s19.833 70.834 37.5 102.501s41.334 58.334 71.001 80.001s66.834 32.5 111.501 32.5c22 0 40.667 -3.16699 56 -9.5
s27.833 -14.5 37.5 -24.5s16.667 -21.333 21 -34s6.5 -25.334 6.5 -38.001c0 -33.333 -9.16699 -61 -27.5 -83s-42.666 -39.833 -72.999 -53.5s-65.166 -23.834 -104.499 -30.501s-79.666 -11.334 -120.999 -14.001c-1.33301 -8.66699 -2 -15.667 -2 -21v-15
c0 -17.333 1.83301 -35 5.5 -53s10.334 -34.5 20.001 -49.5s23.167 -27.333 40.5 -37s39.666 -14.5 66.999 -14.5c48 0 96 11 144 33l8 -18c-42.667 -23.333 -94.334 -35 -155.001 -35zM266.996 469c-29.333 0 -55.667 -6.83203 -79 -20.499s-43.5 -31.834 -60.5 -54.501
s-30.667 -48.5 -41 -77.5s-16.833 -58.833 -19.5 -89.5c94 4.66699 167.5 19.167 220.5 43.5s79.5 60.833 79.5 109.5c0 26.667 -8.16699 48.167 -24.5 64.5s-41.5 24.5 -75.5 24.5zM268.995 566.001c-28.667 0 -53.5 8.99902 -74.5 26.999s-37.167 39 -48.5 63l25 14
c11.333 -23.333 26 -42.166 44 -56.499s37.667 -21.5 59 -21.5c17.333 0 37.333 5 60 15s48.667 29.667 78 59l11 -9c-29.333 -34.667 -56.833 -58.5 -82.5 -71.5s-49.5 -19.5 -71.5 -19.5z" />
    <glyph glyph-name="Edotaccent" unicode="&#x116;" horiz-adv-x="470" 
d="M133 682h347l-3 -24h-322l-35 -284h286l-2 -23l-287 -1l-40 -326h352l-2 -24h-377zM330 808c7.33301 0 13.333 -2.16699 18 -6.5s7 -9.83301 7 -16.5c0 -8 -3.16699 -15.167 -9.5 -21.5s-13.5 -9.5 -21.5 -9.5c-7.33301 0 -13.333 2.16699 -18 6.5s-7 9.83301 -7 16.5
c0 8 3.16699 15.167 9.5 21.5s13.5 9.5 21.5 9.5z" />
    <glyph glyph-name="edotaccent" unicode="&#x117;" horiz-adv-x="402" 
d="M194 -6c-30.667 0 -56.0039 4.83301 -76.0039 14.5s-35.667 22.834 -47 39.501s-19.333 36 -24 58s-7 45.333 -7 70c0 30 3.66699 63.333 11 100s19.833 70.834 37.5 102.501s41.334 58.334 71.001 80.001s66.834 32.5 111.501 32.5c22 0 40.667 -3.16699 56 -9.5
s27.833 -14.5 37.5 -24.5s16.667 -21.333 21 -34s6.5 -25.334 6.5 -38.001c0 -33.333 -9.16699 -61 -27.5 -83s-42.666 -39.833 -72.999 -53.5s-65.166 -23.834 -104.499 -30.501s-79.666 -11.334 -120.999 -14.001c-1.33301 -8.66699 -2 -15.667 -2 -21v-15
c0 -17.333 1.83301 -35 5.5 -53s10.334 -34.5 20.001 -49.5s23.167 -27.333 40.5 -37s39.666 -14.5 66.999 -14.5c48 0 96 11 144 33l8 -18c-42.667 -23.333 -94.334 -35 -155.001 -35zM266.996 469c-29.333 0 -55.667 -6.83203 -79 -20.499s-43.5 -31.834 -60.5 -54.501
s-30.667 -48.5 -41 -77.5s-16.833 -58.833 -19.5 -89.5c94 4.66699 167.5 19.167 220.5 43.5s79.5 60.833 79.5 109.5c0 26.667 -8.16699 48.167 -24.5 64.5s-41.5 24.5 -75.5 24.5zM287.995 614.001c7.33301 0 13.333 -2.16699 18 -6.5s7 -9.83301 7 -16.5
c0 -8 -3.16699 -15.167 -9.5 -21.5s-13.5 -9.5 -21.5 -9.5c-7.33301 0 -13.333 2.16699 -18 6.5s-7 9.83301 -7 16.5c0 8 3.16699 15.167 9.5 21.5s13.5 9.5 21.5 9.5z" />
    <glyph glyph-name="Eogonek" unicode="&#x118;" horiz-adv-x="470" 
d="M133 682l346.998 -0.000976562l-3 -24h-322l-35 -284h286l-2 -23l-287 -1l-40 -326h352l-2 -24h-27c-29.333 -25.333 -49.666 -48.833 -60.999 -70.5s-17.666 -39.167 -18.999 -52.5c-2.66699 -20 1.83301 -33.5 13.5 -40.5s25.834 -10.5 42.501 -10.5
c12.667 0 24.5 1 35.5 3s21.167 4.33301 30.5 7l5 -14c-15.333 -7.33301 -30.5 -12.666 -45.5 -15.999s-28.833 -5 -41.5 -5c-28 0 -47.333 6.5 -58 19.5s-14.667 28.5 -12 46.5c1.33301 17.333 8.16602 37 20.499 59s34.833 46.667 67.5 74h-328z" />
    <glyph glyph-name="eogonek" unicode="&#x119;" horiz-adv-x="402" 
d="M194 -6c-30.667 0 -56.0029 4.83008 -76.0029 14.4971s-35.667 22.834 -47 39.501s-19.333 36 -24 58s-7 45.333 -7 70c0 30 3.66699 63.333 11 100s19.833 70.834 37.5 102.501s41.334 58.334 71.001 80.001s66.834 32.5 111.501 32.5c22 0 40.667 -3.16699 56 -9.5
s27.833 -14.5 37.5 -24.5s16.667 -21.333 21 -34s6.5 -25.334 6.5 -38.001c0 -33.333 -9.16699 -61 -27.5 -83s-42.666 -39.833 -72.999 -53.5s-65.166 -23.834 -104.499 -30.501s-79.666 -11.334 -120.999 -14.001c-1.33301 -8.66699 -2 -15.667 -2 -21v-15
c0 -17.333 1.83301 -35 5.5 -53s10.334 -34.5 20.001 -49.5s23.167 -27.333 40.5 -37s39.666 -14.5 66.999 -14.5c48 0 96 11 144 33l8 -18l-20 -10c-30.667 -25.333 -51.834 -49.166 -63.501 -71.499s-18.167 -40.166 -19.5 -53.499c-2.66699 -20 1.83301 -33.5 13.5 -40.5
s25.834 -10.5 42.501 -10.5c12.667 0 24.5 1 35.5 3s21.167 4.33301 30.5 7l5 -14c-15.333 -7.33301 -30.5 -12.666 -45.5 -15.999s-28.833 -5 -41.5 -5c-28 0 -47.333 6.5 -58 19.5s-14.667 28.5 -12 46.5c1.33301 15.333 7.16602 33.333 17.499 54s29.166 43 56.499 67
c-30.667 -7.33301 -62.667 -11 -96 -11zM266.997 468.997c-29.333 0 -55.667 -6.83203 -79 -20.499s-43.5 -31.834 -60.5 -54.501s-30.667 -48.5 -41 -77.5s-16.833 -58.833 -19.5 -89.5c94 4.66699 167.5 19.167 220.5 43.5s79.5 60.833 79.5 109.5
c0 26.667 -8.16699 48.167 -24.5 64.5s-41.5 24.5 -75.5 24.5z" />
    <glyph glyph-name="Ecaron" unicode="&#x11a;" horiz-adv-x="470" 
d="M133 682h347l-3 -24h-322l-35 -284h286l-2 -23l-287 -1l-40 -326h352l-2 -24h-377zM456 852l8 -12l-139 -122h-27l-110 123l12 12l116 -103z" />
    <glyph glyph-name="ecaron" unicode="&#x11b;" horiz-adv-x="402" 
d="M194 -6c-30.667 0 -56.0039 4.83301 -76.0039 14.5s-35.667 22.834 -47 39.501s-19.333 36 -24 58s-7 45.333 -7 70c0 30 3.66699 63.333 11 100s19.833 70.834 37.5 102.501s41.334 58.334 71.001 80.001s66.834 32.5 111.501 32.5c22 0 40.667 -3.16699 56 -9.5
s27.833 -14.5 37.5 -24.5s16.667 -21.333 21 -34s6.5 -25.334 6.5 -38.001c0 -33.333 -9.16699 -61 -27.5 -83s-42.666 -39.833 -72.999 -53.5s-65.166 -23.834 -104.499 -30.501s-79.666 -11.334 -120.999 -14.001c-1.33301 -8.66699 -2 -15.667 -2 -21v-15
c0 -17.333 1.83301 -35 5.5 -53s10.334 -34.5 20.001 -49.5s23.167 -27.333 40.5 -37s39.666 -14.5 66.999 -14.5c48 0 96 11 144 33l8 -18c-42.667 -23.333 -94.334 -35 -155.001 -35zM266.996 469c-29.333 0 -55.667 -6.83203 -79 -20.499s-43.5 -31.834 -60.5 -54.501
s-30.667 -48.5 -41 -77.5s-16.833 -58.833 -19.5 -89.5c94 4.66699 167.5 19.167 220.5 43.5s79.5 60.833 79.5 109.5c0 26.667 -8.16699 48.167 -24.5 64.5s-41.5 24.5 -75.5 24.5zM426.995 682.001l8 -12l-139 -122h-27l-111 123l13 12l115 -103z" />
    <glyph glyph-name="Gcircumflex" unicode="&#x11c;" horiz-adv-x="568" 
d="M390 691c34 0 64.502 -2 91.502 -6s50.833 -9.33301 71.5 -16l-7 -23c-25.333 7.33301 -51.833 12.833 -79.5 16.5s-53.167 5.5 -76.5 5.5c-48 0 -90.333 -10.333 -127 -31s-67.334 -49.667 -92.001 -87s-43.334 -81.833 -56.001 -133.5s-19 -108.834 -19 -171.501
c0 -30.667 2.83301 -59.667 8.5 -87s16.167 -51.333 31.5 -72s36.333 -37.167 63 -49.5s61.334 -18.5 104.001 -18.5c10 0 21.5 0.5 34.5 1.5s26.333 2.33301 40 4s27.167 3.83398 40.5 6.50098s25 6 35 10l37 298h25l-39 -319c-31.333 -9.33301 -62.333 -16 -93 -20
s-61 -6 -91 -6c-40 0 -74 5.83301 -102 17.5s-51 28.5 -69 50.5s-31 49 -39 81s-12 68 -12 108c0 23.333 1.66699 50.5 5 81.5s9.33301 62.833 18 95.5s20.5 64.667 35.5 96s34.333 59.5 58 84.5s52.167 45.167 85.5 60.5s72.666 23 117.999 23zM401.002 819l-141 -103
l-9 12l140 123h27l109 -122l-10 -12z" />
    <glyph glyph-name="gcircumflex" unicode="&#x11d;" horiz-adv-x="466" 
d="M375 12c-3.33301 -26 -7.99902 -52.6699 -13.999 -80.0029s-16.333 -52.166 -31 -74.499s-35.334 -40.833 -62.001 -55.5s-62.667 -22 -108 -22c-23.333 0 -45.666 2.83301 -66.999 8.5s-39 11.5 -53 17.5l10 22c17.333 -8 36.166 -14 56.499 -18s40.166 -6 59.499 -6
c38 0 68.167 5.83301 90.5 17.5s40 27.667 53 48s22.5 44.5 28.5 72.5s11.333 58.333 16 91l6 41l-1 2c-30 -26 -59.667 -46.5 -89 -61.5s-59 -22.5 -89 -22.5c-18.667 0 -36.167 3.33301 -52.5 10s-30.666 16.834 -42.999 30.501s-22.166 30.834 -29.499 51.501
s-11 44.667 -11 72c0 44 5 86.333 15 127s25.333 76.5 46 107.5s46.167 55.667 76.5 74s65.833 27.5 106.5 27.5c22.667 0 46.167 -2.5 70.5 -7.5s47.166 -13.167 68.499 -24.5l3 -7zM287.001 469.997c-29.333 0 -57.1641 -6.83203 -83.4971 -20.499
s-49.333 -33.5 -69 -59.5s-35.334 -58.333 -47.001 -97s-17.5 -83 -17.5 -133c0 -26 3 -48.167 9 -66.5s14.167 -33.333 24.5 -45s22.166 -20.334 35.499 -26.001s27.666 -8.5 42.999 -8.5c30.667 0 61 8.83301 91 26.5s59.333 38.5 88 62.5l45 341
c-21.333 10.667 -42 17.667 -62 21s-39 5 -57 5zM310.003 652.998l-141 -103l-8 12l140 123h27l109 -122l-12 -12z" />
    <glyph glyph-name="Gbreve" unicode="&#x11e;" horiz-adv-x="568" 
d="M390 691c34 0 64.502 -2 91.502 -6s50.833 -9.33301 71.5 -16l-7 -23c-25.333 7.33301 -51.833 12.833 -79.5 16.5s-53.167 5.5 -76.5 5.5c-48 0 -90.333 -10.333 -127 -31s-67.334 -49.667 -92.001 -87s-43.334 -81.833 -56.001 -133.5s-19 -108.834 -19 -171.501
c0 -30.667 2.83301 -59.667 8.5 -87s16.167 -51.333 31.5 -72s36.333 -37.167 63 -49.5s61.334 -18.5 104.001 -18.5c10 0 21.5 0.5 34.5 1.5s26.333 2.33301 40 4s27.167 3.83398 40.5 6.50098s25 6 35 10l37 298h25l-39 -319c-31.333 -9.33301 -62.333 -16 -93 -20
s-61 -6 -91 -6c-40 0 -74 5.83301 -102 17.5s-51 28.5 -69 50.5s-31 49 -39 81s-12 68 -12 108c0 23.333 1.66699 50.5 5 81.5s9.33301 62.833 18 95.5s20.5 64.667 35.5 96s34.333 59.5 58 84.5s52.167 45.167 85.5 60.5s72.666 23 117.999 23zM385.002 739
c-28.667 0 -53.499 8.99902 -74.499 26.999s-37.167 39 -48.5 63l24 14c12 -23.333 27 -42.166 45 -56.499s37.667 -21.5 59 -21.5c17.333 0 37.166 5.5 59.499 16.5s48.5 30.167 78.5 57.5l11 -9c-30 -34.667 -57.833 -58.5 -83.5 -71.5s-49.167 -19.5 -70.5 -19.5z" />
    <glyph glyph-name="gbreve" unicode="&#x11f;" horiz-adv-x="466" 
d="M375 12c-3.33301 -26 -7.99902 -52.6699 -13.999 -80.0029s-16.333 -52.166 -31 -74.499s-35.334 -40.833 -62.001 -55.5s-62.667 -22 -108 -22c-23.333 0 -45.666 2.83301 -66.999 8.5s-39 11.5 -53 17.5l10 22c17.333 -8 36.166 -14 56.499 -18s40.166 -6 59.499 -6
c38 0 68.167 5.83301 90.5 17.5s40 27.667 53 48s22.5 44.5 28.5 72.5s11.333 58.333 16 91l6 41l-1 2c-30 -26 -59.667 -46.5 -89 -61.5s-59 -22.5 -89 -22.5c-18.667 0 -36.167 3.33301 -52.5 10s-30.666 16.834 -42.999 30.501s-22.166 30.834 -29.499 51.501
s-11 44.667 -11 72c0 44 5 86.333 15 127s25.333 76.5 46 107.5s46.167 55.667 76.5 74s65.833 27.5 106.5 27.5c22.667 0 46.167 -2.5 70.5 -7.5s47.166 -13.167 68.499 -24.5l3 -7zM287.001 469.997c-29.333 0 -57.1641 -6.83203 -83.4971 -20.499
s-49.333 -33.5 -69 -59.5s-35.334 -58.333 -47.001 -97s-17.5 -83 -17.5 -133c0 -26 3 -48.167 9 -66.5s14.167 -33.333 24.5 -45s22.166 -20.334 35.499 -26.001s27.666 -8.5 42.999 -8.5c30.667 0 61 8.83301 91 26.5s59.333 38.5 88 62.5l45 341
c-21.333 10.667 -42 17.667 -62 21s-39 5 -57 5zM281.003 565.998c-28.667 0 -53.5 8.99902 -74.5 26.999s-37.167 39 -48.5 63l25 14c11.333 -23.333 26 -42.166 44 -56.499s37.667 -21.5 59 -21.5c17.333 0 37.333 5 60 15s48.667 29.667 78 59l11 -9
c-29.333 -34.667 -56.833 -58.5 -82.5 -71.5s-49.5 -19.5 -71.5 -19.5z" />
    <glyph glyph-name="Gdotaccent" unicode="&#x120;" horiz-adv-x="568" 
d="M390 691c34 0 64.502 -2 91.502 -6s50.833 -9.33301 71.5 -16l-7 -23c-25.333 7.33301 -51.833 12.833 -79.5 16.5s-53.167 5.5 -76.5 5.5c-48 0 -90.333 -10.333 -127 -31s-67.334 -49.667 -92.001 -87s-43.334 -81.833 -56.001 -133.5s-19 -108.834 -19 -171.501
c0 -30.667 2.83301 -59.667 8.5 -87s16.167 -51.333 31.5 -72s36.333 -37.167 63 -49.5s61.334 -18.5 104.001 -18.5c10 0 21.5 0.5 34.5 1.5s26.333 2.33301 40 4s27.167 3.83398 40.5 6.50098s25 6 35 10l37 298h25l-39 -319c-31.333 -9.33301 -62.333 -16 -93 -20
s-61 -6 -91 -6c-40 0 -74 5.83301 -102 17.5s-51 28.5 -69 50.5s-31 49 -39 81s-12 68 -12 108c0 23.333 1.66699 50.5 5 81.5s9.33301 62.833 18 95.5s20.5 64.667 35.5 96s34.333 59.5 58 84.5s52.167 45.167 85.5 60.5s72.666 23 117.999 23zM383.002 811
c7.33301 0 13.333 -2.16699 18 -6.5s7 -9.83301 7 -16.5c0 -8 -3.16699 -15.167 -9.5 -21.5s-13.5 -9.5 -21.5 -9.5c-7.33301 0 -13.333 2.16699 -18 6.5s-7 9.83301 -7 16.5c0 8 3.16699 15.167 9.5 21.5s13.5 9.5 21.5 9.5z" />
    <glyph glyph-name="gdotaccent" unicode="&#x121;" horiz-adv-x="466" 
d="M375 12c-3.33301 -26 -7.99902 -52.6699 -13.999 -80.0029s-16.333 -52.166 -31 -74.499s-35.334 -40.833 -62.001 -55.5s-62.667 -22 -108 -22c-23.333 0 -45.666 2.83301 -66.999 8.5s-39 11.5 -53 17.5l10 22c17.333 -8 36.166 -14 56.499 -18s40.166 -6 59.499 -6
c38 0 68.167 5.83301 90.5 17.5s40 27.667 53 48s22.5 44.5 28.5 72.5s11.333 58.333 16 91l6 41l-1 2c-30 -26 -59.667 -46.5 -89 -61.5s-59 -22.5 -89 -22.5c-18.667 0 -36.167 3.33301 -52.5 10s-30.666 16.834 -42.999 30.501s-22.166 30.834 -29.499 51.501
s-11 44.667 -11 72c0 44 5 86.333 15 127s25.333 76.5 46 107.5s46.167 55.667 76.5 74s65.833 27.5 106.5 27.5c22.667 0 46.167 -2.5 70.5 -7.5s47.166 -13.167 68.499 -24.5l3 -7zM287.001 469.997c-29.333 0 -57.1641 -6.83203 -83.4971 -20.499
s-49.333 -33.5 -69 -59.5s-35.334 -58.333 -47.001 -97s-17.5 -83 -17.5 -133c0 -26 3 -48.167 9 -66.5s14.167 -33.333 24.5 -45s22.166 -20.334 35.499 -26.001s27.666 -8.5 42.999 -8.5c30.667 0 61 8.83301 91 26.5s59.333 38.5 88 62.5l45 341
c-21.333 10.667 -42 17.667 -62 21s-39 5 -57 5zM287.003 627.998c7.33301 0 13.333 -2.16699 18 -6.5s7 -9.83301 7 -16.5c0 -8 -3.16699 -15.167 -9.5 -21.5s-13.5 -9.5 -21.5 -9.5c-7.33301 0 -13.333 2.16699 -18 6.5s-7 9.83301 -7 16.5c0 8 3.16699 15.167 9.5 21.5
s13.5 9.5 21.5 9.5z" />
    <glyph glyph-name="Gcommaaccent" unicode="&#x122;" horiz-adv-x="568" 
d="M390 691c34 0 64.502 -2 91.502 -6s50.833 -9.33301 71.5 -16l-7 -23c-25.333 7.33301 -51.833 12.833 -79.5 16.5s-53.167 5.5 -76.5 5.5c-48 0 -90.333 -10.333 -127 -31s-67.334 -49.667 -92.001 -87s-43.334 -81.833 -56.001 -133.5s-19 -108.834 -19 -171.501
c0 -30.667 2.83301 -59.667 8.5 -87s16.167 -51.333 31.5 -72s36.333 -37.167 63 -49.5s61.334 -18.5 104.001 -18.5c10 0 21.5 0.5 34.5 1.5s26.333 2.33301 40 4s27.167 3.83398 40.5 6.50098s25 6 35 10l37 298h25l-39 -319c-31.333 -9.33301 -62.333 -16 -93 -20
s-61 -6 -91 -6c-40 0 -74 5.83301 -102 17.5s-51 28.5 -69 50.5s-31 49 -39 81s-12 68 -12 108c0 23.333 1.66699 50.5 5 81.5s9.33301 62.833 18 95.5s20.5 64.667 35.5 96s34.333 59.5 58 84.5s52.167 45.167 85.5 60.5s72.666 23 117.999 23zM280.002 -80
c7.33301 0 13.499 -2.49609 18.499 -7.49609s7.5 -12.167 7.5 -21.5c0 -32.667 -18 -63.334 -54 -92.001l-7 8c11.333 11.333 18.5 21.166 21.5 29.499s5.16699 18.166 6.5 29.499c-7.33301 0 -13 2 -17 6s-6 9 -6 15c0 9.33301 2.83301 17.166 8.5 23.499
s12.834 9.5 21.501 9.5z" />
    <glyph glyph-name="gcommaaccent" unicode="&#x123;" horiz-adv-x="466" 
d="M318 614c14.667 0 22.001 -6.66895 22.001 -20.002c0 -9.33301 -2.83301 -17.333 -8.5 -24s-12.5 -10 -20.5 -10c-7.33301 0 -13.5 2.33301 -18.5 7s-7.5 11.667 -7.5 21c0 16 4.83301 32 14.5 48s23.167 31 40.5 45l7 -8
c-10.667 -11.333 -17.834 -21.166 -21.501 -29.499s-6.16699 -18.166 -7.5 -29.499zM375.001 11.998c-3.33301 -26 -7.99902 -52.6699 -13.999 -80.0029s-16.333 -52.166 -31 -74.499s-35.334 -40.833 -62.001 -55.5s-62.667 -22 -108 -22
c-23.333 0 -45.666 2.83301 -66.999 8.5s-39 11.5 -53 17.5l10 22c17.333 -8 36.166 -14 56.499 -18s40.166 -6 59.499 -6c38 0 68.167 5.83301 90.5 17.5s40 27.667 53 48s22.5 44.5 28.5 72.5s11.333 58.333 16 91l6 41l-1 2c-30 -26 -59.667 -46.5 -89 -61.5
s-59 -22.5 -89 -22.5c-18.667 0 -36.167 3.33301 -52.5 10s-30.666 16.834 -42.999 30.501s-22.166 30.834 -29.499 51.501s-11 44.667 -11 72c0 44 5 86.333 15 127s25.333 76.5 46 107.5s46.167 55.667 76.5 74s65.833 27.5 106.5 27.5c22.667 0 46.167 -2.5 70.5 -7.5
s47.166 -13.167 68.499 -24.5l3 -7zM287.002 469.995c-29.333 0 -57.1641 -6.83203 -83.4971 -20.499s-49.333 -33.5 -69 -59.5s-35.334 -58.333 -47.001 -97s-17.5 -83 -17.5 -133c0 -26 3 -48.167 9 -66.5s14.167 -33.333 24.5 -45s22.166 -20.334 35.499 -26.001
s27.666 -8.5 42.999 -8.5c30.667 0 61 8.83301 91 26.5s59.333 38.5 88 62.5l45 341c-21.333 10.667 -42 17.667 -62 21s-39 5 -57 5z" />
    <glyph glyph-name="Hcircumflex" unicode="&#x124;" horiz-adv-x="571" 
d="M442 0l42 349h-366l-42 -349h-26l83 682h26l-38 -309h366l37 309h27l-83 -682h-26zM358 819l-141 -103l-9 12l140 123h27l109 -122l-10 -12z" />
    <glyph glyph-name="hcircumflex" unicode="&#x125;" horiz-adv-x="446" 
d="M109 406c36 26.667 69.833 47.8301 101.5 63.4971s62.5 23.5 92.5 23.5c20.667 0 37.667 -2.66699 51 -8s24 -12.666 32 -21.999s13.5 -20.166 16.5 -32.499s4.5 -25.166 4.5 -38.499c0 -4 -0.166992 -8.16699 -0.5 -12.5s-0.833008 -8.83301 -1.5 -13.5l-41 -366h-23
l39 338c1.33301 6.66699 2.33301 15.667 3 27s1 19.333 1 24c0 11.333 -1.16699 22 -3.5 32s-6.66602 18.833 -12.999 26.5s-15 13.667 -26 18s-25.167 6.5 -42.5 6.5c-16 0 -32 -2.66699 -48 -8s-32 -12.333 -48 -21s-32.333 -18.667 -49 -30s-33.334 -23.333 -50.001 -36
l-47 -377h-22l86 708h23l-38 -300zM146 826.996l-141 -103l-8 12l140 123h27l109 -122l-12 -12z" />
    <glyph glyph-name="Hbar" unicode="&#x126;" horiz-adv-x="573" 
d="M445 0l42 348h-366l-42 -348h-26l63 521h-54l3 23h54l17 138h26l-17 -138h365l17 138h27l-17 -138h57l-3 -23h-57l-63 -521h-26zM507 521h-365l-18 -148h366z" />
    <glyph glyph-name="hbar" unicode="&#x127;" horiz-adv-x="446" 
d="M109 406c36 26.667 69.833 47.8301 101.5 63.4971s62.5 23.5 92.5 23.5c20.667 0 37.667 -2.66699 51 -8s24 -12.666 32 -21.999s13.5 -20.166 16.5 -32.499s4.5 -25.166 4.5 -38.499c0 -4 -0.166992 -8.16699 -0.5 -12.5s-0.833008 -8.83301 -1.5 -13.5l-41 -366h-23
l40 349c2 12.667 3 26 3 40c0 11.333 -1.16699 22 -3.5 32s-6.66602 18.833 -12.999 26.5s-15 13.667 -26 18s-25.167 6.5 -42.5 6.5c-16 0 -32 -2.66699 -48 -8s-32 -12.333 -48 -21s-32.333 -18.667 -49 -30s-33.334 -23.333 -50.001 -36l-47 -377h-22l71 586h-62l3 22h61
l13 100h23l-13 -100h204l-3 -22h-204l-22 -178z" />
    <glyph glyph-name="Itilde" unicode="&#x128;" horiz-adv-x="199" 
d="M60 0l83 682h26l-83 -682h-26zM42 761l-12 7.00391c7.33301 17.333 17.666 31.166 30.999 41.499s27 15.5 41 15.5c10 0 21 -1.83301 33 -5.5s24 -7.83398 36 -12.501s23.833 -8.83398 35.5 -12.501s22.5 -5.5 32.5 -5.5l48 39l11 -7
c-7.33301 -14.667 -16.666 -27.834 -27.999 -39.501s-24.333 -17.5 -39 -17.5c-8.66699 0 -19 2 -31 6l-37.5 13l-37.5 13c-12 4 -22.333 6 -31 6z" />
    <glyph glyph-name="itilde" unicode="&#x129;" horiz-adv-x="182" 
d="M55 0l60 486h22l-59 -486h-23zM16 583l-12 7.00391c7.33301 17.333 17.666 31.166 30.999 41.499s27 15.5 41 15.5c10 0 21 -1.83301 33 -5.5s24 -7.83398 36 -12.501s23.833 -8.83398 35.5 -12.501s22.5 -5.5 32.5 -5.5l48 39l11 -7
c-7.33301 -14.667 -16.666 -27.834 -27.999 -39.501s-24.333 -17.5 -39 -17.5c-8.66699 0 -19 2 -31 6l-37.5 13l-37.5 13c-12 4 -22.333 6 -31 6z" />
    <glyph glyph-name="Imacron" unicode="&#x12a;" horiz-adv-x="199" 
d="M60 0l83 682h26l-83 -682h-26zM300 774l-4 -26h-277l4 26h277z" />
    <glyph glyph-name="imacron" unicode="&#x12b;" horiz-adv-x="190" 
d="M63 0l60 486h22l-59 -486h-23zM287 626l-3 -26h-278l3 26h278z" />
    <glyph glyph-name="Ibreve" unicode="&#x12c;" horiz-adv-x="216" 
d="M152 721c-28.667 0 -53.499 8.99902 -74.499 26.999s-37.167 39 -48.5 63l24 14c12 -23.333 27 -42.166 45 -56.499s37.667 -21.5 59 -21.5c17.333 0 37.166 5.5 59.499 16.5s48.5 30.167 78.5 57.5l11 -9c-30 -34.667 -57.833 -58.5 -83.5 -71.5
s-49.167 -19.5 -70.5 -19.5zM62.001 -0.000976562l83 682h26l-83 -682h-26z" />
    <glyph glyph-name="ibreve" unicode="&#x12d;" horiz-adv-x="182" 
d="M55 0l60 486h22l-59 -486h-23zM126 566c-28.667 0 -53.5 8.99902 -74.5 26.999s-37.167 39 -48.5 63l25 14c11.333 -23.333 26 -42.166 44 -56.499s37.667 -21.5 59 -21.5c17.333 0 37.333 5 60 15s48.667 29.667 78 59l11 -9c-29.333 -34.667 -56.833 -58.5 -82.5 -71.5
s-49.5 -19.5 -71.5 -19.5z" />
    <glyph glyph-name="Iogonek" unicode="&#x12e;" horiz-adv-x="199" 
d="M60 0l-0.000976562 0.999023c-28 -24.667 -47.5 -47.5 -58.5 -68.5s-17.167 -38.167 -18.5 -51.5c-2.66699 -20 1.83301 -33.5 13.5 -40.5s25.834 -10.5 42.501 -10.5c12.667 0 24.5 1 35.5 3s21.167 4.33301 30.5 7l5 -14c-15.333 -7.33301 -30.5 -12.666 -45.5 -15.999
s-28.833 -5 -41.5 -5c-28 0 -47.333 6.5 -58 19.5s-14.667 28.5 -12 46.5c2 18.667 10.5 40.667 25.5 66s42.833 53.333 83.5 84l81 661h26l-83 -682h-26z" />
    <glyph glyph-name="iogonek" unicode="&#x12f;" horiz-adv-x="182" 
d="M55 0l-0.000976562 2.99902c-27.333 -24 -46.5 -46.667 -57.5 -68s-17.167 -38.333 -18.5 -51c-2.66699 -20 1.83301 -33.5 13.5 -40.5s25.834 -10.5 42.501 -10.5c12.667 0 24.5 1 35.5 3s21.167 4.33301 30.5 7l5 -14c-15.333 -7.33301 -30.5 -12.666 -45.5 -15.999
s-28.833 -5 -41.5 -5c-28 0 -47.333 6.5 -58 19.5s-14.667 28.5 -12 46.5c2 18.667 10.5 40.667 25.5 66s42.833 53.333 83.5 84l57 462h22l-59 -486h-23zM141.999 632.999c6.66699 0 11.833 -1.99902 15.5 -5.99902s5.5 -9 5.5 -15c0 -7.33301 -2.5 -13.833 -7.5 -19.5
s-11.5 -8.5 -19.5 -8.5c-5.33301 0 -9.83301 2.16699 -13.5 6.5s-5.5 9.5 -5.5 15.5c0 7.33301 2.83301 13.666 8.5 18.999s11.167 8 16.5 8z" />
    <glyph glyph-name="Idotaccent" unicode="&#x130;" horiz-adv-x="199" 
d="M60 0l83 682h26l-83 -682h-26zM172 813c7.33301 0 13.333 -2.16699 18 -6.5s7 -9.83301 7 -16.5c0 -8 -3.16699 -15.167 -9.5 -21.5s-13.5 -9.5 -21.5 -9.5c-7.33301 0 -13.333 2.16699 -18 6.5s-7 9.83301 -7 16.5c0 8 3.16699 15.167 9.5 21.5s13.5 9.5 21.5 9.5z" />
    <glyph glyph-name="dotlessi" unicode="&#x131;" horiz-adv-x="182" 
d="M55 0l60 486h22l-59 -486h-23z" />
    <glyph glyph-name="IJ" unicode="&#x132;" horiz-adv-x="438" 
d="M60 0l83 682h26l-83 -682h-26zM373 682l25 -0.000976562l-70 -582c-4.66699 -38 -11.834 -71.833 -21.501 -101.5s-22.667 -55.5 -39 -77.5s-36.333 -41 -60 -57s-52.167 -29.667 -85.5 -41l-8 22c30.667 10 57 22.667 79 38s40.333 33.333 55 54
s26.334 44.334 35.001 71.001s15 56.667 19 90z" />
    <glyph glyph-name="ij" unicode="&#x133;" horiz-adv-x="340" 
d="M55 0l60 486h22l-59 -486h-23zM142 633c6.66699 0 11.833 -1.99902 15.5 -5.99902s5.5 -9 5.5 -15c0 -7.33301 -2.5 -13.833 -7.5 -19.5s-11.5 -8.5 -19.5 -8.5c-5.33301 0 -9.83301 2.16699 -13.5 6.5s-5.5 9.5 -5.5 15.5c0 7.33301 2.83301 13.666 8.5 18.999
s11.167 8 16.5 8zM272.999 486.001h23l-61 -495c-3.33301 -26 -7.5 -49.167 -12.5 -69.5s-12.833 -38.5 -23.5 -54.5s-25.167 -30 -43.5 -42s-42.5 -22.667 -72.5 -32l-5 19c26.667 8 48 17.5 64 28.5s28.667 23.167 38 36.5s16 28.333 20 45s7.33301 35 10 55z
M298.999 633.001c6.66699 0 11.833 -1.99902 15.5 -5.99902s5.5 -9 5.5 -15c0 -7.33301 -2.5 -13.833 -7.5 -19.5s-11.5 -8.5 -19.5 -8.5c-5.33301 0 -9.83301 2.16699 -13.5 6.5s-5.5 9.5 -5.5 15.5c0 7.33301 2.66699 13.666 8 18.999s11 8 17 8z" />
    <glyph glyph-name="Jcircumflex" unicode="&#x134;" horiz-adv-x="244" 
d="M179 683l25 -0.000976562l-70 -582c-4.66699 -38 -11.834 -71.833 -21.501 -101.5s-22.667 -55.5 -39 -77.5s-36.333 -41 -60 -57s-52.167 -29.667 -85.5 -41l-8 22c30.667 10 57 22.667 79 38s40.333 33.333 55 54s26.334 44.334 35.001 71.001s15 56.667 19 90z
M204 818.999l-141 -103l-9 12l140 123h27l109 -122l-10 -12z" />
    <glyph glyph-name="jcircumflex" unicode="&#x135;" horiz-adv-x="189" 
d="M122 486h23l-61 -495c-3.33301 -26 -7.5 -49.167 -12.5 -69.5s-12.833 -38.5 -23.5 -54.5s-25.167 -30 -43.5 -42s-42.5 -22.667 -72.5 -32l-5 19c26.667 8 48 17.5 64 28.5s28.667 23.167 38 36.5s16 28.333 20 45s7.33301 35 10 55zM149 653l-141 -103l-8 12l140 123
h27l109 -122l-12 -12z" />
    <glyph glyph-name="Kcommaaccent" unicode="&#x136;" horiz-adv-x="495" 
d="M231 407l218 -407h-28l-207 389l-103 -94l-36 -295h-25l83 682h25l-43 -353l380 353h35zM220 -53c7.33301 0 13.499 -2.49609 18.499 -7.49609s7.5 -12.167 7.5 -21.5c0 -32.667 -18 -63.334 -54 -92.001l-7 8c11.333 11.333 18.5 21.166 21.5 29.499
s5.16699 18.166 6.5 29.499c-7.33301 0 -13 2 -17 6s-6 9 -6 15c0 9.33301 2.83301 17.166 8.5 23.499s12.834 9.5 21.501 9.5z" />
    <glyph glyph-name="kcommaaccent" unicode="&#x137;" horiz-adv-x="383" 
d="M90 239l27 23.5l44.5 40l78.5 70l128 113.5h30l-212 -189l24 -38l139 -259h-26l-152 283l-88 -77l-25 -206h-23l86 708h23l-38 -317l-9.5 -75.5l-9.5 -75.5zM169 -48c7.33301 0 13.499 -2.49609 18.499 -7.49609s7.5 -12.167 7.5 -21.5
c0 -32.667 -18 -63.334 -54 -92.001l-7 8c11.333 11.333 18.5 21.166 21.5 29.499s5.16699 18.166 6.5 29.499c-7.33301 0 -13 2 -17 6s-6 9 -6 15c0 9.33301 2.83301 17.166 8.5 23.499s12.834 9.5 21.501 9.5z" />
    <glyph glyph-name="kgreenlandic" unicode="&#x138;" horiz-adv-x="383" 
d="M117 485l-11 -94l-9.5 -75.5l-9.5 -75.5l3 -1l27 23.5l44.5 40l78.5 70l128 113.5h30l-212 -189l24 -38l139 -259h-26l-152 283l-88 -77l-25 -206h-23l59 485h23z" />
    <glyph glyph-name="Lacute" unicode="&#x139;" horiz-adv-x="507" 
d="M108 24h359l-2 -24h-385l83 682h25zM168 723l115 143l22 -22l-123 -131z" />
    <glyph glyph-name="lacute" unicode="&#x13a;" horiz-adv-x="182" 
d="M158 708l-84 -684l65 2l2 -16c-11.333 -4.66699 -22.5 -8 -33.5 -10s-20.5 -3 -28.5 -3c-19.333 0 -29 7 -29 21v7c0 2.66699 0.333008 5.66699 1 9l84 674h23zM122 733l115 143l22 -22l-123 -131z" />
    <glyph glyph-name="Lcommaaccent" unicode="&#x13b;" horiz-adv-x="507" 
d="M108 24h359l-2 -24h-385l83 682h25zM250 -80c7.33301 0 13.499 -2.49609 18.499 -7.49609s7.5 -12.167 7.5 -21.5c0 -32.667 -18 -63.334 -54 -92.001l-7 8c11.333 11.333 18.5 21.166 21.5 29.499s5.16699 18.166 6.5 29.499c-7.33301 0 -13 2 -17 6s-6 9 -6 15
c0 9.33301 2.83301 17.166 8.5 23.499s12.834 9.5 21.501 9.5z" />
    <glyph glyph-name="lcommaaccent" unicode="&#x13c;" horiz-adv-x="182" 
d="M158 708l-84 -684l65 2l2 -16c-11.333 -4.66699 -22.5 -8 -33.5 -10s-20.5 -3 -28.5 -3c-19.333 0 -29 7 -29 21v7c0 2.66699 0.333008 5.66699 1 9l84 674h23zM59 -80c7.33301 0 13.499 -2.49609 18.499 -7.49609s7.5 -12.167 7.5 -21.5
c0 -32.667 -18 -63.334 -54 -92.001l-7 8c11.333 11.333 18.5 21.166 21.5 29.499s5.16699 18.166 6.5 29.499c-7.33301 0 -13 2 -17 6s-6 9 -6 15c0 9.33301 2.83301 17.166 8.5 23.499s12.834 9.5 21.501 9.5z" />
    <glyph glyph-name="Lcaron" unicode="&#x13d;" horiz-adv-x="507" 
d="M108 24h359l-2 -24h-385l83 682h25zM404 679c7.33301 0 13.499 -2.49609 18.499 -7.49609s7.5 -12.167 7.5 -21.5c0 -32.667 -18 -63.334 -54 -92.001l-7 8c11.333 11.333 18.5 21.166 21.5 29.499s5.16699 18.166 6.5 29.499c-7.33301 0 -13 2 -17 6s-6 9 -6 15
c0 9.33301 2.83301 17.166 8.5 23.499s12.834 9.5 21.501 9.5z" />
    <glyph glyph-name="lcaron" unicode="&#x13e;" horiz-adv-x="218" 
d="M241 704c7.33301 0 13.499 -2.49609 18.499 -7.49609s7.5 -12.167 7.5 -21.5c0 -32.667 -18 -63.334 -54 -92.001l-7 8c11.333 11.333 18.5 21.166 21.5 29.499s5.16699 18.166 6.5 29.499c-7.33301 0 -13 2 -17 6s-6 9 -6 15c0 9.33301 2.83301 17.166 8.5 23.499
s12.834 9.5 21.501 9.5zM157.999 708.004l-84 -684l65 2l2 -16c-11.333 -4.66699 -22.5 -8 -33.5 -10s-20.5 -3 -28.5 -3c-19.333 0 -29 7 -29 21v7c0 2.66699 0.333008 5.66699 1 9l84 674h23z" />
    <glyph glyph-name="Ldot" unicode="&#x13f;" horiz-adv-x="507" 
d="M108 24h359l-2 -24h-385l83 682h25zM369 418c7.33301 0 13.333 -2.16699 18 -6.5s7 -9.83301 7 -16.5c0 -8 -3.16699 -15.167 -9.5 -21.5s-13.5 -9.5 -21.5 -9.5c-7.33301 0 -13.333 2.16699 -18 6.5s-7 9.83301 -7 16.5c0 8 3.16699 15.167 9.5 21.5s13.5 9.5 21.5 9.5z
" />
    <glyph glyph-name="ldot" unicode="&#x140;" horiz-adv-x="222" 
d="M208 398c7.33301 0 13.333 -2.16699 18 -6.5s7 -9.83301 7 -16.5c0 -8 -3.16699 -15.167 -9.5 -21.5s-13.5 -9.5 -21.5 -9.5c-7.33301 0 -13.333 2.16699 -18 6.5s-7 9.83301 -7 16.5c0 8 3.16699 15.167 9.5 21.5s13.5 9.5 21.5 9.5zM158 708l-84 -684l65 2l2 -16
c-11.333 -4.66699 -22.5 -8 -33.5 -10s-20.5 -3 -28.5 -3c-19.333 0 -29 7 -29 21v7c0 2.66699 0.333008 5.66699 1 9l84 674h23z" />
    <glyph glyph-name="Lslash" unicode="&#x141;" horiz-adv-x="507" 
d="M143 328l148 82l7 -21l-159 -89l-33 -276h359l-2 -24h-385l34 284l-72 -40l-8 22l84 46l45 370h25z" />
    <glyph glyph-name="lslash" unicode="&#x142;" horiz-adv-x="182" 
d="M158 708l-44 -355l116 64l7 -21l-126 -70l-37 -302l65 2l2 -16c-11.333 -4.66699 -22.5 -8 -33.5 -10s-20.5 -3 -28.5 -3c-19.333 0 -29 7 -29 21v7c0 2.66699 0.333008 5.66699 1 9l34 277l-102 -57l-8 22l114 63l46 369h23z" />
    <glyph glyph-name="Nacute" unicode="&#x143;" horiz-adv-x="606" 
d="M482 49l77 633h27l-84 -682h-26l-267 528l-53 107h-3l-77 -635h-26l83 682h27l278 -550l41 -83h3zM347 723l115 143l22 -22l-123 -131z" />
    <glyph glyph-name="nacute" unicode="&#x144;" horiz-adv-x="447" 
d="M112 406c36 26.667 69.332 47.9971 99.999 63.9971s61 24 91 24c20.667 0 37.667 -2.83301 51 -8.5s24 -13.167 32 -22.5s13.5 -20.166 16.5 -32.499s4.5 -25.166 4.5 -38.499c0 -4 -0.166992 -8.16699 -0.5 -12.5s-0.833008 -8.83301 -1.5 -13.5l-41 -366h-23l40 349
c2 12.667 3 26 3 40c0 11.333 -1.16699 22 -3.5 32s-6.66602 18.833 -12.999 26.5s-15 13.834 -26 18.501s-25.167 7 -42.5 7c-16 0 -31.833 -2.66699 -47.5 -8s-31.5 -12.5 -47.5 -21.5s-32.167 -19.167 -48.5 -30.5l-49.5 -36l-49 -377h-22l61 486h23l-10 -78z
M222.999 563.997l114 143l23 -22l-123 -131z" />
    <glyph glyph-name="Ncommaaccent" unicode="&#x145;" horiz-adv-x="606" 
d="M482 49l77 633h27l-84 -682h-26l-267 528l-53 107h-3l-77 -635h-26l83 682h27l278 -550l41 -83h3zM258 -68c7.33301 0 13.499 -2.49609 18.499 -7.49609s7.5 -12.167 7.5 -21.5c0 -32.667 -18 -63.334 -54 -92.001l-7 8c11.333 11.333 18.5 21.166 21.5 29.499
s5.16699 18.166 6.5 29.499c-7.33301 0 -13 2 -17 6s-6 9 -6 15c0 9.33301 2.83301 17.166 8.5 23.499s12.834 9.5 21.501 9.5z" />
    <glyph glyph-name="ncommaaccent" unicode="&#x146;" horiz-adv-x="447" 
d="M112 406c36 26.667 69.332 47.9971 99.999 63.9971s61 24 91 24c20.667 0 37.667 -2.83301 51 -8.5s24 -13.167 32 -22.5s13.5 -20.166 16.5 -32.499s4.5 -25.166 4.5 -38.499c0 -4 -0.166992 -8.16699 -0.5 -12.5s-0.833008 -8.83301 -1.5 -13.5l-41 -366h-23l40 349
c2 12.667 3 26 3 40c0 11.333 -1.16699 22 -3.5 32s-6.66602 18.833 -12.999 26.5s-15 13.834 -26 18.501s-25.167 7 -42.5 7c-16 0 -31.833 -2.66699 -47.5 -8s-31.5 -12.5 -47.5 -21.5s-32.167 -19.167 -48.5 -30.5l-49.5 -36l-49 -377h-22l61 486h23l-10 -78z
M188.999 -60.0029c7.33301 0 13.499 -2.49609 18.499 -7.49609s7.5 -12.167 7.5 -21.5c0 -32.667 -18 -63.334 -54 -92.001l-7 8c11.333 11.333 18.5 21.166 21.5 29.499s5.16699 18.166 6.5 29.499c-7.33301 0 -13 2 -17 6s-6 9 -6 15c0 9.33301 2.83301 17.166 8.5 23.499
s12.834 9.5 21.501 9.5z" />
    <glyph glyph-name="Ncaron" unicode="&#x147;" horiz-adv-x="606" 
d="M482 49l77 633h27l-84 -682h-26l-267 528l-53 107h-3l-77 -635h-26l83 682h27l278 -550l41 -83h3zM524 852l8 -12l-139 -122h-27l-110 123l12 12l116 -103z" />
    <glyph glyph-name="ncaron" unicode="&#x148;" horiz-adv-x="447" 
d="M112 406c36 26.667 69.332 47.9971 99.999 63.9971s61 24 91 24c20.667 0 37.667 -2.83301 51 -8.5s24 -13.167 32 -22.5s13.5 -20.166 16.5 -32.499s4.5 -25.166 4.5 -38.499c0 -4 -0.166992 -8.16699 -0.5 -12.5s-0.833008 -8.83301 -1.5 -13.5l-41 -366h-23l40 349
c2 12.667 3 26 3 40c0 11.333 -1.16699 22 -3.5 32s-6.66602 18.833 -12.999 26.5s-15 13.834 -26 18.501s-25.167 7 -42.5 7c-16 0 -31.833 -2.66699 -47.5 -8s-31.5 -12.5 -47.5 -21.5s-32.167 -19.167 -48.5 -30.5l-49.5 -36l-49 -377h-22l61 486h23l-10 -78z
M399.999 693.997l8 -12l-139 -122h-27l-111 123l13 12l115 -103z" />
    <glyph glyph-name="napostrophe" unicode="&#x149;" horiz-adv-x="489" 
d="M154 406c36 26.667 69.332 47.9971 99.999 63.9971s61 24 91 24c20.667 0 37.667 -2.83301 51 -8.5s24 -13.167 32 -22.5s13.5 -20.166 16.5 -32.499s4.5 -25.166 4.5 -38.499c0 -4 -0.166992 -8.16699 -0.5 -12.5s-0.833008 -8.83301 -1.5 -13.5l-41 -366h-23l40 349
c2 12.667 3 26 3 40c0 11.333 -1.16699 22 -3.5 32s-6.66602 18.833 -12.999 26.5s-15 13.834 -26 18.501s-25.167 7 -42.5 7c-16 0 -31.833 -2.66699 -47.5 -8s-31.5 -12.5 -47.5 -21.5s-32.167 -19.167 -48.5 -30.5l-49.5 -36l-49 -377h-22l61 486h23l-10 -78z
M78.999 619.997c7.33301 0 13.499 -2.49609 18.499 -7.49609s7.5 -12.167 7.5 -21.5c0 -32.667 -18 -63.334 -54 -92.001l-7 8c11.333 11.333 18.5 21.166 21.5 29.499s5.16699 18.166 6.5 29.499c-7.33301 0 -13 2 -17 6s-6 9 -6 15c0 9.33301 2.83301 17.166 8.5 23.499
s12.834 9.5 21.501 9.5z" />
    <glyph glyph-name="Eng" unicode="&#x14a;" horiz-adv-x="608" 
d="M485 50l77 632h27l-94 -758c-3.33301 -30 -12.666 -52.5 -27.999 -67.5s-39.333 -22.5 -72 -22.5c-9.33301 0 -18.833 0.5 -28.5 1.5s-19.834 3.16699 -30.501 6.5l6 21c12 -2.66699 21.833 -4.5 29.5 -5.5s15.167 -1.5 22.5 -1.5c24.667 0 42.5 5.16699 53.5 15.5
s17.833 25.833 20.5 46.5l11 82l-267 528l-53 107h-3l-77 -635h-26l83 682h28l277 -549l41 -83h3z" />
    <glyph glyph-name="eng" unicode="&#x14b;" horiz-adv-x="446" 
d="M112 406c36 26.667 69.332 47.998 99.999 63.998s61 24 91 24c20.667 0 37.667 -2.83301 51 -8.5s24 -13.167 32 -22.5s13.5 -20.166 16.5 -32.499s4.5 -25.166 4.5 -38.499c0 -4 -0.166992 -8.16699 -0.5 -12.5s-0.833008 -8.83301 -1.5 -13.5l-49 -422
c-4 -30 -13.5 -52.5 -28.5 -67.5s-38.833 -22.5 -71.5 -22.5c-9.33301 0 -19 0.5 -29 1.5s-20 3.16699 -30 6.5l6 21c8 -2 14.5 -3.33301 19.5 -4s9.16699 -1.33398 12.5 -2.00098s6.5 -1 9.5 -1h9.5c24.667 0 43.167 5.16699 55.5 15.5s19.833 25.833 22.5 46.5l49 411
c2 12.667 3 26 3 40c0 11.333 -1.16699 22 -3.5 32s-6.66602 18.833 -12.999 26.5s-15 13.834 -26 18.501s-25.167 7 -42.5 7c-16 0 -31.833 -2.66699 -47.5 -8s-31.5 -12.5 -47.5 -21.5s-32.167 -19.167 -48.5 -30.5l-49.5 -36l-49 -377h-22l61 486h23l-10 -78z" />
    <glyph glyph-name="Omacron" unicode="&#x14c;" horiz-adv-x="629" 
d="M373 692c42 0 76.8291 -7.33301 104.496 -22s49.834 -34.5 66.501 -59.5s28.334 -54.333 35.001 -88s10 -69.167 10 -106.5c0 -56.667 -6.5 -110.5 -19.5 -161.5s-32 -95.833 -57 -134.5s-56 -69.5 -93 -92.5s-79.5 -34.5 -127.5 -34.5c-40.667 0 -75.167 6 -103.5 18
s-51.166 29.333 -68.499 52s-30 50.5 -38 83.5s-12 70.5 -12 112.5c0 52.667 5 105 15 157s26.833 98.333 50.5 139s54.834 73.667 93.501 99s86.667 38 144 38zM373.996 669c-55.333 0 -100.834 -12.832 -136.501 -38.499s-64.167 -58.5 -85.5 -98.5
s-36.166 -84.167 -44.499 -132.5s-12.5 -95.166 -12.5 -140.499c0 -80 15 -140.5 45 -181.5s79.667 -61.5 149 -61.5c48.667 0 90.334 12 125.001 36s63 55.167 85 93.5s38.167 81.166 48.5 128.499s15.5 94.333 15.5 141c0 31.333 -2.5 62.166 -7.5 92.499
s-14.5 57.5 -28.5 81.5s-33.333 43.333 -58 58s-56.334 22 -95.001 22zM523.995 774.001l-4 -26h-277l4 26h277z" />
    <glyph glyph-name="omacron" unicode="&#x14d;" horiz-adv-x="453" 
d="M256 491c30 0 55.1641 -5.33398 75.4971 -16.001s36.5 -24.667 48.5 -42s20.5 -37.666 25.5 -60.999s7.5 -47.333 7.5 -72c0 -30.667 -3.16699 -64 -9.5 -100s-17.5 -69.333 -33.5 -100s-38 -56.167 -66 -76.5s-63.333 -30.5 -106 -30.5c-31.333 0 -57.166 5 -77.499 15
s-36.5 23.5 -48.5 40.5s-20.333 36.833 -25 59.5s-7 46.667 -7 72c0 33.333 3.66699 68.333 11 105s19.333 70.167 36 100.5s38.834 55.5 66.501 75.5s61.834 30 102.501 30zM255.997 469.999c-36.667 0 -67.333 -9.33398 -92 -28.001s-44.5 -42.334 -59.5 -71.001
s-25.667 -60.167 -32 -94.5s-9.5 -66.833 -9.5 -97.5c0 -21.333 1.83301 -41.833 5.5 -61.5s10.5 -37.167 20.5 -52.5s24 -27.666 42 -36.999s41.333 -14 70 -14c26 0 48.667 4.66699 68 14s36 21.833 50 37.5s25.5 33.334 34.5 53.001s16.167 40 21.5 61s9 41.5 11 61.5
s3 38.333 3 55c0 21.333 -1.83301 42.5 -5.5 63.5s-10.5 39.667 -20.5 56s-23.667 29.5 -41 39.5s-39.333 15 -66 15zM414.998 625.998l-3 -26h-278l3 26h278z" />
    <glyph glyph-name="Obreve" unicode="&#x14e;" horiz-adv-x="629" 
d="M373 692c42 0 76.8291 -7.33301 104.496 -22s49.834 -34.5 66.501 -59.5s28.334 -54.333 35.001 -88s10 -69.167 10 -106.5c0 -56.667 -6.5 -110.5 -19.5 -161.5s-32 -95.833 -57 -134.5s-56 -69.5 -93 -92.5s-79.5 -34.5 -127.5 -34.5c-40.667 0 -75.167 6 -103.5 18
s-51.166 29.333 -68.499 52s-30 50.5 -38 83.5s-12 70.5 -12 112.5c0 52.667 5 105 15 157s26.833 98.333 50.5 139s54.834 73.667 93.501 99s86.667 38 144 38zM373.996 669c-55.333 0 -100.834 -12.832 -136.501 -38.499s-64.167 -58.5 -85.5 -98.5
s-36.166 -84.167 -44.499 -132.5s-12.5 -95.166 -12.5 -140.499c0 -80 15 -140.5 45 -181.5s79.667 -61.5 149 -61.5c48.667 0 90.334 12 125.001 36s63 55.167 85 93.5s38.167 81.166 48.5 128.499s15.5 94.333 15.5 141c0 31.333 -2.5 62.166 -7.5 92.499
s-14.5 57.5 -28.5 81.5s-33.333 43.333 -58 58s-56.334 22 -95.001 22zM378.995 735.001c-28.667 0 -53.499 8.99902 -74.499 26.999s-37.167 39 -48.5 63l24 14c12 -23.333 27 -42.166 45 -56.499s37.667 -21.5 59 -21.5c17.333 0 37.166 5.5 59.499 16.5
s48.5 30.167 78.5 57.5l11 -9c-30 -34.667 -57.833 -58.5 -83.5 -71.5s-49.167 -19.5 -70.5 -19.5z" />
    <glyph glyph-name="obreve" unicode="&#x14f;" horiz-adv-x="453" 
d="M256 491c30 0 55.1641 -5.33398 75.4971 -16.001s36.5 -24.667 48.5 -42s20.5 -37.666 25.5 -60.999s7.5 -47.333 7.5 -72c0 -30.667 -3.16699 -64 -9.5 -100s-17.5 -69.333 -33.5 -100s-38 -56.167 -66 -76.5s-63.333 -30.5 -106 -30.5c-31.333 0 -57.166 5 -77.499 15
s-36.5 23.5 -48.5 40.5s-20.333 36.833 -25 59.5s-7 46.667 -7 72c0 33.333 3.66699 68.333 11 105s19.333 70.167 36 100.5s38.834 55.5 66.501 75.5s61.834 30 102.501 30zM255.997 469.999c-36.667 0 -67.333 -9.33398 -92 -28.001s-44.5 -42.334 -59.5 -71.001
s-25.667 -60.167 -32 -94.5s-9.5 -66.833 -9.5 -97.5c0 -21.333 1.83301 -41.833 5.5 -61.5s10.5 -37.167 20.5 -52.5s24 -27.666 42 -36.999s41.333 -14 70 -14c26 0 48.667 4.66699 68 14s36 21.833 50 37.5s25.5 33.334 34.5 53.001s16.167 40 21.5 61s9 41.5 11 61.5
s3 38.333 3 55c0 21.333 -1.83301 42.5 -5.5 63.5s-10.5 39.667 -20.5 56s-23.667 29.5 -41 39.5s-39.333 15 -66 15zM265.998 562.998c-28 0 -52.1689 9.16602 -72.502 27.499s-36.166 39.833 -47.499 64.5l25 15c11.333 -24 25.5 -43.333 42.5 -58s36.167 -22 57.5 -22
c17.333 0 36.833 5.16699 58.5 15.5s47.167 30.5 76.5 60.5l11 -10c-28.667 -35.333 -55.667 -59.666 -81 -72.999s-48.666 -20 -69.999 -20z" />
    <glyph glyph-name="Ohungarumlaut" unicode="&#x150;" horiz-adv-x="629" 
d="M373 692c42 0 76.8291 -7.33301 104.496 -22s49.834 -34.5 66.501 -59.5s28.334 -54.333 35.001 -88s10 -69.167 10 -106.5c0 -56.667 -6.5 -110.5 -19.5 -161.5s-32 -95.833 -57 -134.5s-56 -69.5 -93 -92.5s-79.5 -34.5 -127.5 -34.5c-40.667 0 -75.167 6 -103.5 18
s-51.166 29.333 -68.499 52s-30 50.5 -38 83.5s-12 70.5 -12 112.5c0 52.667 5 105 15 157s26.833 98.333 50.5 139s54.834 73.667 93.501 99s86.667 38 144 38zM373.996 669c-55.333 0 -100.834 -12.832 -136.501 -38.499s-64.167 -58.5 -85.5 -98.5
s-36.166 -84.167 -44.499 -132.5s-12.5 -95.166 -12.5 -140.499c0 -80 15 -140.5 45 -181.5s79.667 -61.5 149 -61.5c48.667 0 90.334 12 125.001 36s63 55.167 85 93.5s38.167 81.166 48.5 128.499s15.5 94.333 15.5 141c0 31.333 -2.5 62.166 -7.5 92.499
s-14.5 57.5 -28.5 81.5s-33.333 43.333 -58 58s-56.334 22 -95.001 22zM306.995 724.001l115 143l22 -22l-124 -131zM394.995 724.001l115 143l22 -22l-123 -131z" />
    <glyph glyph-name="ohungarumlaut" unicode="&#x151;" horiz-adv-x="453" 
d="M256 491c30 0 55.1641 -5.33398 75.4971 -16.001s36.5 -24.667 48.5 -42s20.5 -37.666 25.5 -60.999s7.5 -47.333 7.5 -72c0 -30.667 -3.16699 -64 -9.5 -100s-17.5 -69.333 -33.5 -100s-38 -56.167 -66 -76.5s-63.333 -30.5 -106 -30.5c-31.333 0 -57.166 5 -77.499 15
s-36.5 23.5 -48.5 40.5s-20.333 36.833 -25 59.5s-7 46.667 -7 72c0 33.333 3.66699 68.333 11 105s19.333 70.167 36 100.5s38.834 55.5 66.501 75.5s61.834 30 102.501 30zM255.997 469.999c-36.667 0 -67.333 -9.33398 -92 -28.001s-44.5 -42.334 -59.5 -71.001
s-25.667 -60.167 -32 -94.5s-9.5 -66.833 -9.5 -97.5c0 -21.333 1.83301 -41.833 5.5 -61.5s10.5 -37.167 20.5 -52.5s24 -27.666 42 -36.999s41.333 -14 70 -14c26 0 48.667 4.66699 68 14s36 21.833 50 37.5s25.5 33.334 34.5 53.001s16.167 40 21.5 61s9 41.5 11 61.5
s3 38.333 3 55c0 21.333 -1.83301 42.5 -5.5 63.5s-10.5 39.667 -20.5 56s-23.667 29.5 -41 39.5s-39.333 15 -66 15zM191.998 563.998l114 143l23 -22l-123 -131zM279.998 563.998l114 143l23 -22l-123 -131z" />
    <glyph glyph-name="OE" unicode="&#x152;" horiz-adv-x="722" 
d="M369 692c14 0 28.1689 -0.833008 42.502 -2.5s26.833 -4.16699 37.5 -7.5h276l-3 -24h-296l-35 -284h261l-2 -24h-262l-40 -326h329l-2 -24h-331c-9.33301 -1.33301 -18.5 -2.83301 -27.5 -4.5s-18.5 -2.5 -28.5 -2.5c-42 0 -77.333 6.16699 -106 18.5
s-51.834 29.833 -69.501 52.5s-30.334 50.167 -38.001 82.5s-11.5 68.5 -11.5 108.5c0 54.667 5.16699 108.167 15.5 160.5s27.5 99 51.5 140s55.5 74 94.5 99s87.167 37.5 144.5 37.5zM283.002 16c14 0 27 0.999023 39 2.99902l80 649
c-4.66699 0.666992 -10.334 1 -17.001 1h-18c-36.667 0 -69 -5.83301 -97 -17.5s-52.333 -27.5 -73 -47.5s-38 -43.5 -52 -70.5s-25.167 -56 -33.5 -87s-14.333 -63 -18 -96s-5.5 -65.5 -5.5 -97.5c0 -77.333 15.333 -136.166 46 -176.499s80.334 -60.5 149.001 -60.5z" />
    <glyph glyph-name="oe" unicode="&#x153;" horiz-adv-x="746" 
d="M538 -6c-26.667 0 -49.1729 3.66699 -67.5059 11s-33.5 17.333 -45.5 30s-21 27.667 -27 45s-10 36 -12 56c-7.33301 -19.333 -16.5 -37.666 -27.5 -54.999s-24.167 -32.5 -39.5 -45.5s-33 -23.333 -53 -31s-42.667 -11.5 -68 -11.5c-31.333 0 -57.166 5 -77.499 15
s-36.5 23.5 -48.5 40.5s-20.333 36.833 -25 59.5s-7 46.667 -7 72c0 33.333 3.66699 68.333 11 105s19.333 70.167 36 100.5s38.834 55.5 66.501 75.5s61.834 30 102.501 30c26.667 0 49.5 -4.16699 68.5 -12.5s34.5 -19.666 46.5 -33.999s21.167 -31.166 27.5 -50.499
s10.5 -39.666 12.5 -60.999c8 20.667 18 40.667 30 60s26.333 36.166 43 50.499s35.834 25.833 57.501 34.5s46.167 13 73.5 13c22 0 40.667 -3.16699 56 -9.5s27.833 -14.5 37.5 -24.5s16.667 -21.333 21 -34s6.5 -25.334 6.5 -38.001c0 -33.333 -9.16699 -61 -27.5 -83
s-42.666 -39.833 -72.999 -53.5s-65.166 -23.834 -104.499 -30.501s-79.666 -11.334 -120.999 -14.001c-1.33301 -8.66699 -2 -15.667 -2 -21v-15c0 -17.333 1.83301 -35 5.5 -53s10.334 -34.5 20.001 -49.5s23.167 -27.333 40.5 -37s39.666 -14.5 66.999 -14.5
c48 0 96 11 144 33l8 -18c-42.667 -23.333 -94.334 -35 -155.001 -35zM255.994 470c-36.667 0 -67.333 -9.33398 -92 -28.001s-44.5 -42.334 -59.5 -71.001s-25.667 -60.167 -32 -94.5s-9.5 -66.833 -9.5 -97.5c0 -21.333 1.83301 -41.833 5.5 -61.5
s10.5 -37.167 20.5 -52.5s24 -27.666 42 -36.999s41.333 -14 70 -14c26 0 48.667 4.66699 68 14s36 21.833 50 37.5s25.5 33.334 34.5 53.001s16.167 40 21.5 61s9 41.5 11 61.5s3 38.333 3 55c0 21.333 -1.83301 42.5 -5.5 63.5s-10.5 39.667 -20.5 56
s-23.667 29.5 -41 39.5s-39.333 15 -66 15zM610.995 468.999c-29.333 0 -55.667 -6.83203 -79 -20.499s-43.5 -31.834 -60.5 -54.501s-30.667 -48.5 -41 -77.5s-16.833 -58.833 -19.5 -89.5c94 4.66699 167.5 19.167 220.5 43.5s79.5 60.833 79.5 109.5
c0 26.667 -8.16699 48.167 -24.5 64.5s-41.5 24.5 -75.5 24.5z" />
    <glyph glyph-name="Racute" unicode="&#x154;" horiz-adv-x="515" 
d="M76 0l-25.999 -0.00195312l83 682h185c32.667 0 60.167 -4.16699 82.5 -12.5s40 -19.666 53 -33.999s22.333 -31 28 -50s8.5 -39.167 8.5 -60.5c0 -20 -2.83301 -40.5 -8.5 -61.5s-14.334 -40.833 -26.001 -59.5s-26.667 -35.167 -45 -49.5
s-40.166 -24.166 -65.499 -29.499c28 -9.33301 48 -23.5 60 -42.5s20.667 -42.5 26 -70.5l33 -212h-26l-33 205c-4 22.667 -10.333 41.334 -19 56.001s-19 26.167 -31 34.5s-25.333 14.166 -40 17.499s-30.334 5 -47.001 5h-153zM156.001 657.998l-39 -316.001h167
c54 0 97.333 15.167 130 45.5s49 75.5 49 135.5c0 44.667 -12.833 78.334 -38.5 101.001s-60.5 34 -104.5 34h-164zM280.001 722.997l115 143l22 -22l-123 -131z" />
    <glyph glyph-name="racute" unicode="&#x155;" horiz-adv-x="260" 
d="M118 393c17.333 37.333 35.3369 62.834 54.0039 76.501s37.667 20.5 57 20.5c11.333 0 22.166 -1.83301 32.499 -5.5s19.166 -11.167 26.499 -22.5l-13 -16c-10 5.33301 -18.833 8.66602 -26.5 9.99902s-14.834 2 -21.501 2c-15.333 0 -28.833 -3.66699 -40.5 -11
s-22.167 -16.833 -31.5 -28.5s-17.833 -24.667 -25.5 -39s-14.5 -28.5 -20.5 -42.5l-21.5 -168.5l-21.5 -168.5h-22l29.5 238l29.5 248h23c-2 -15.333 -3.83301 -30.5 -5.5 -45.5s-3.83398 -30.833 -6.50098 -47.5h4zM106.004 564.001l114 143l23 -22l-123 -131z" />
    <glyph glyph-name="Rcommaaccent" unicode="&#x156;" horiz-adv-x="515" 
d="M76 0l-25.999 -0.00195312l83 682h185c32.667 0 60.167 -4.16699 82.5 -12.5s40 -19.666 53 -33.999s22.333 -31 28 -50s8.5 -39.167 8.5 -60.5c0 -20 -2.83301 -40.5 -8.5 -61.5s-14.334 -40.833 -26.001 -59.5s-26.667 -35.167 -45 -49.5
s-40.166 -24.166 -65.499 -29.499c28 -9.33301 48 -23.5 60 -42.5s20.667 -42.5 26 -70.5l33 -212h-26l-33 205c-4 22.667 -10.333 41.334 -19 56.001s-19 26.167 -31 34.5s-25.333 14.166 -40 17.499s-30.334 5 -47.001 5h-153zM156.001 657.998l-39 -316.001h167
c54 0 97.333 15.167 130 45.5s49 75.5 49 135.5c0 44.667 -12.833 78.334 -38.5 101.001s-60.5 34 -104.5 34h-164zM224.001 -61.0029c7.33301 0 13.499 -2.49609 18.499 -7.49609s7.5 -12.167 7.5 -21.5c0 -32.667 -18 -63.334 -54 -92.001l-7 8
c11.333 11.333 18.5 21.166 21.5 29.499s5.16699 18.166 6.5 29.499c-7.33301 0 -13 2 -17 6s-6 9 -6 15c0 9.33301 2.83301 17.166 8.5 23.499s12.834 9.5 21.501 9.5z" />
    <glyph glyph-name="rcommaaccent" unicode="&#x157;" horiz-adv-x="260" 
d="M118 393c17.333 37.333 35.3369 62.834 54.0039 76.501s37.667 20.5 57 20.5c11.333 0 22.166 -1.83301 32.499 -5.5s19.166 -11.167 26.499 -22.5l-13 -16c-10 5.33301 -18.833 8.66602 -26.5 9.99902s-14.834 2 -21.501 2c-15.333 0 -28.833 -3.66699 -40.5 -11
s-22.167 -16.833 -31.5 -28.5s-17.833 -24.667 -25.5 -39s-14.5 -28.5 -20.5 -42.5l-21.5 -168.5l-21.5 -168.5h-22l29.5 238l29.5 248h23c-2 -15.333 -3.83301 -30.5 -5.5 -45.5s-3.83398 -30.833 -6.50098 -47.5h4zM38.0039 -63.999
c7.33301 0 13.499 -2.49609 18.499 -7.49609s7.5 -12.167 7.5 -21.5c0 -32.667 -18 -63.334 -54 -92.001l-7 8c11.333 11.333 18.5 21.166 21.5 29.499s5.16699 18.166 6.5 29.499c-7.33301 0 -13 2 -17 6s-6 9 -6 15c0 9.33301 2.83301 17.166 8.5 23.499
s12.834 9.5 21.501 9.5z" />
    <glyph glyph-name="Rcaron" unicode="&#x158;" horiz-adv-x="515" 
d="M76 0l-25.999 -0.00195312l83 682h185c32.667 0 60.167 -4.16699 82.5 -12.5s40 -19.666 53 -33.999s22.333 -31 28 -50s8.5 -39.167 8.5 -60.5c0 -20 -2.83301 -40.5 -8.5 -61.5s-14.334 -40.833 -26.001 -59.5s-26.667 -35.167 -45 -49.5
s-40.166 -24.166 -65.499 -29.499c28 -9.33301 48 -23.5 60 -42.5s20.667 -42.5 26 -70.5l33 -212h-26l-33 205c-4 22.667 -10.333 41.334 -19 56.001s-19 26.167 -31 34.5s-25.333 14.166 -40 17.499s-30.334 5 -47.001 5h-153zM156.001 657.998l-39 -316.001h167
c54 0 97.333 15.167 130 45.5s49 75.5 49 135.5c0 44.667 -12.833 78.334 -38.5 101.001s-60.5 34 -104.5 34h-164zM436.001 851.997l8 -12l-139 -122h-27l-110 123l12 12l116 -103z" />
    <glyph glyph-name="rcaron" unicode="&#x159;" horiz-adv-x="260" 
d="M118 393c17.333 37.333 35.3369 62.834 54.0039 76.501s37.667 20.5 57 20.5c11.333 0 22.166 -1.83301 32.499 -5.5s19.166 -11.167 26.499 -22.5l-13 -16c-10 5.33301 -18.833 8.66602 -26.5 9.99902s-14.834 2 -21.501 2c-15.333 0 -28.833 -3.66699 -40.5 -11
s-22.167 -16.833 -31.5 -28.5s-17.833 -24.667 -25.5 -39s-14.5 -28.5 -20.5 -42.5l-21.5 -168.5l-21.5 -168.5h-22l29.5 238l29.5 248h23c-2 -15.333 -3.83301 -30.5 -5.5 -45.5s-3.83398 -30.833 -6.50098 -47.5h4zM305.004 694.001l8 -12l-139 -122h-27l-111 123l13 12
l115 -103z" />
    <glyph glyph-name="Sacute" unicode="&#x15a;" horiz-adv-x="503" 
d="M313 693c10 0 21.3311 -0.330078 33.998 -0.99707s26 -2 40 -4s28.333 -4.66699 43 -8s29 -7.66602 43 -12.999l-10 -25c-32 10 -59.833 16.667 -83.5 20s-47.167 5 -70.5 5c-21.333 0 -43.333 -2.5 -66 -7.5s-43.167 -13.5 -61.5 -25.5s-33.5 -27.833 -45.5 -47.5
s-18 -44.167 -18 -73.5c0 -22 4.16699 -40.5 12.5 -55.5s19.833 -27.667 34.5 -38s32 -19.5 52 -27.5s41.667 -16 65 -24l67 -25c22.667 -8.66699 43 -19.667 61 -33s32.667 -29.833 44 -49.5s17 -44.5 17 -74.5c0 -36 -7.5 -66.333 -22.5 -91s-34.5 -44.5 -58.5 -59.5
s-51.333 -25.833 -82 -32.5s-61.667 -10 -93 -10c-32 0 -65.333 3.66699 -100 11s-66.334 19.666 -95.001 36.999l13 22c32.667 -17.333 64 -29.333 94 -36s59 -10 87 -10c27.333 0 54.666 2.66699 81.999 8s52 14.5 74 27.5s39.833 30.333 53.5 52s20.5 49.167 20.5 82.5
c0 22 -3.83301 40.833 -11.5 56.5s-18.834 29.5 -33.501 41.5s-32.167 22.5 -52.5 31.5s-43.166 17.833 -68.499 26.5c-28 9.33301 -53.667 18.666 -77 27.999s-43.166 20.166 -59.499 32.499s-29 27.166 -38 44.499s-13.5 38.666 -13.5 63.999c0 32 6.33301 59.5 19 82.5
s29.334 41.833 50.001 56.5s44.334 25.334 71.001 32.001s54.334 10 83.001 10zM263.998 721.003l115 143l22 -22l-123 -131z" />
    <glyph glyph-name="sacute" unicode="&#x15b;" horiz-adv-x="367" 
d="M226 490c6.66699 0 14.501 -0.50293 23.501 -1.50293s18.833 -2.5 29.5 -4.5s21.334 -4.66699 32.001 -8s21 -7.66602 31 -12.999l-10 -19c-20 9.33301 -40 16 -60 20s-36 6 -48 6c-17.333 0 -34 -1.83301 -50 -5.5s-30.5 -9.66699 -43.5 -18
s-23.333 -19.166 -31 -32.499s-11.5 -29.666 -11.5 -48.999c0 -14 3 -26.167 9 -36.5s14 -19.5 24 -27.5s21.5 -15 34.5 -21l40.5 -18c18 -7.33301 35.333 -14.833 52 -22.5s31.334 -16.167 44.001 -25.5s22.667 -20.5 30 -33.5s11 -28.5 11 -46.5
c0 -24 -4.83301 -44.833 -14.5 -62.5s-22.667 -32.334 -39 -44.001s-35.166 -20.167 -56.499 -25.5s-43.333 -8 -66 -8c-28 0 -55.5 2.83301 -82.5 8.5s-50.167 15.167 -69.5 28.5l11 17c22 -13.333 44.667 -22.333 68 -27s43.666 -7 60.999 -7c21.333 0 42 2 62 6
s37.667 10.667 53 20s27.5 21.5 36.5 36.5s13.5 33.5 13.5 55.5c0 13.333 -2.83301 25.166 -8.5 35.499s-13.334 19.5 -23.001 27.5s-21.167 15.5 -34.5 22.5s-28 13.5 -44 19.5c-17.333 6.66699 -34.166 13.834 -50.499 21.501s-30.833 16.167 -43.5 25.5
s-22.834 20.333 -30.501 33s-11.5 27.334 -11.5 44.001c0 24.667 4.83301 45.167 14.5 61.5s22.167 29.5 37.5 39.5s32.666 17.167 51.999 21.5s38.666 6.5 57.999 6.5zM175.001 563.997l114 143l23 -22l-123 -131z" />
    <glyph glyph-name="Scircumflex" unicode="&#x15c;" horiz-adv-x="503" 
d="M313 693c10 0 21.3311 -0.330078 33.998 -0.99707s26 -2 40 -4s28.333 -4.66699 43 -8s29 -7.66602 43 -12.999l-10 -25c-32 10 -59.833 16.667 -83.5 20s-47.167 5 -70.5 5c-21.333 0 -43.333 -2.5 -66 -7.5s-43.167 -13.5 -61.5 -25.5s-33.5 -27.833 -45.5 -47.5
s-18 -44.167 -18 -73.5c0 -22 4.16699 -40.5 12.5 -55.5s19.833 -27.667 34.5 -38s32 -19.5 52 -27.5s41.667 -16 65 -24l67 -25c22.667 -8.66699 43 -19.667 61 -33s32.667 -29.833 44 -49.5s17 -44.5 17 -74.5c0 -36 -7.5 -66.333 -22.5 -91s-34.5 -44.5 -58.5 -59.5
s-51.333 -25.833 -82 -32.5s-61.667 -10 -93 -10c-32 0 -65.333 3.66699 -100 11s-66.334 19.666 -95.001 36.999l13 22c32.667 -17.333 64 -29.333 94 -36s59 -10 87 -10c27.333 0 54.666 2.66699 81.999 8s52 14.5 74 27.5s39.833 30.333 53.5 52s20.5 49.167 20.5 82.5
c0 22 -3.83301 40.833 -11.5 56.5s-18.834 29.5 -33.501 41.5s-32.167 22.5 -52.5 31.5s-43.166 17.833 -68.499 26.5c-28 9.33301 -53.667 18.666 -77 27.999s-43.166 20.166 -59.499 32.499s-29 27.166 -38 44.499s-13.5 38.666 -13.5 63.999c0 32 6.33301 59.5 19 82.5
s29.334 41.833 50.001 56.5s44.334 25.334 71.001 32.001s54.334 10 83.001 10zM316.998 819.003l-141 -103l-9 12l140 123h27l109 -122l-10 -12z" />
    <glyph glyph-name="scircumflex" unicode="&#x15d;" horiz-adv-x="367" 
d="M226 490c6.66699 0 14.501 -0.50293 23.501 -1.50293s18.833 -2.5 29.5 -4.5s21.334 -4.66699 32.001 -8s21 -7.66602 31 -12.999l-10 -19c-20 9.33301 -40 16 -60 20s-36 6 -48 6c-17.333 0 -34 -1.83301 -50 -5.5s-30.5 -9.66699 -43.5 -18
s-23.333 -19.166 -31 -32.499s-11.5 -29.666 -11.5 -48.999c0 -14 3 -26.167 9 -36.5s14 -19.5 24 -27.5s21.5 -15 34.5 -21l40.5 -18c18 -7.33301 35.333 -14.833 52 -22.5s31.334 -16.167 44.001 -25.5s22.667 -20.5 30 -33.5s11 -28.5 11 -46.5
c0 -24 -4.83301 -44.833 -14.5 -62.5s-22.667 -32.334 -39 -44.001s-35.166 -20.167 -56.499 -25.5s-43.333 -8 -66 -8c-28 0 -55.5 2.83301 -82.5 8.5s-50.167 15.167 -69.5 28.5l11 17c22 -13.333 44.667 -22.333 68 -27s43.666 -7 60.999 -7c21.333 0 42 2 62 6
s37.667 10.667 53 20s27.5 21.5 36.5 36.5s13.5 33.5 13.5 55.5c0 13.333 -2.83301 25.166 -8.5 35.499s-13.334 19.5 -23.001 27.5s-21.167 15.5 -34.5 22.5s-28 13.5 -44 19.5c-17.333 6.66699 -34.166 13.834 -50.499 21.501s-30.833 16.167 -43.5 25.5
s-22.834 20.333 -30.501 33s-11.5 27.334 -11.5 44.001c0 24.667 4.83301 45.167 14.5 61.5s22.167 29.5 37.5 39.5s32.666 17.167 51.999 21.5s38.666 6.5 57.999 6.5zM222.001 652.997l-141 -103l-8 12l140 123h27l109 -122l-12 -12z" />
    <glyph glyph-name="Scedilla" unicode="&#x15e;" horiz-adv-x="503" 
d="M313 693c10 0 21.3281 -0.327148 33.9951 -0.994141s26 -2 40 -4s28.333 -4.66699 43 -8s29 -7.66602 43 -12.999l-10 -25c-32 10 -59.833 16.667 -83.5 20s-47.167 5 -70.5 5c-21.333 0 -43.333 -2.5 -66 -7.5s-43.167 -13.5 -61.5 -25.5s-33.5 -27.833 -45.5 -47.5
s-18 -44.167 -18 -73.5c0 -22 4.16699 -40.5 12.5 -55.5s19.833 -27.667 34.5 -38s32 -19.5 52 -27.5s41.667 -16 65 -24l67 -25c22.667 -8.66699 43 -19.667 61 -33s32.667 -29.833 44 -49.5s17 -44.5 17 -74.5c0 -34.667 -6.83301 -64 -20.5 -88s-31.667 -43.5 -54 -58.5
s-47.833 -26.167 -76.5 -33.5s-58 -11.333 -88 -12l-61 -69c33.333 0 59.833 -4.33301 79.5 -13s29.5 -25.667 29.5 -51c0 -12.667 -3.5 -25 -10.5 -37s-17.5 -22.667 -31.5 -32s-31.667 -16.833 -53 -22.5s-46.333 -8.5 -75 -8.5l1 17c26 2 47.833 5.66699 65.5 11
s31.834 11.666 42.501 18.999s18.334 15.666 23.001 24.999s7 18.666 7 27.999c0 15.333 -7.33301 26.666 -22 33.999s-33.667 11 -57 11c-3.33301 0 -6.83301 -0.166992 -10.5 -0.5s-7.16699 -0.5 -10.5 -0.5l-7 14l67 74c-32 0.666992 -64.5 4.66699 -97.5 12
s-63.5 19.333 -91.5 36l13 22c32.667 -17.333 64 -29.333 94 -36s59 -10 87 -10c27.333 0 54.666 2.66699 81.999 8s52 14.5 74 27.5s39.833 30.333 53.5 52s20.5 49.167 20.5 82.5c0 22 -3.83301 40.833 -11.5 56.5s-18.834 29.5 -33.501 41.5s-32.167 22.5 -52.5 31.5
s-43.166 17.833 -68.499 26.5c-28 9.33301 -53.667 18.666 -77 27.999s-43.166 20.166 -59.499 32.499s-29 27.166 -38 44.499s-13.5 38.666 -13.5 63.999c0 32 6.33301 59.5 19 82.5s29.334 41.833 50.001 56.5s44.334 25.334 71.001 32.001s54.334 10 83.001 10z" />
    <glyph glyph-name="scedilla" unicode="&#x15f;" horiz-adv-x="367" 
d="M226 490c6.66699 0 14.5 -0.5 23.5 -1.5s18.833 -2.5 29.5 -4.5s21.334 -4.66699 32.001 -8s21 -7.66602 31 -12.999l-10 -19c-20 9.33301 -40 16 -60 20s-36 6 -48 6c-17.333 0 -34 -1.83301 -50 -5.5s-30.5 -9.66699 -43.5 -18s-23.333 -19.166 -31 -32.499
s-11.5 -29.666 -11.5 -48.999c0 -14 3 -26.167 9 -36.5s14 -19.5 24 -27.5s21.5 -15 34.5 -21l40.5 -18c18 -7.33301 35.333 -14.833 52 -22.5s31.334 -16.167 44.001 -25.5s22.667 -20.5 30 -33.5s11 -28.5 11 -46.5c0 -23.333 -4.5 -43.5 -13.5 -60.5
s-21.167 -31.333 -36.5 -43s-32.833 -20.5 -52.5 -26.5s-40.5 -9.33301 -62.5 -10l-62 -69c33.333 0 59.833 -4.33301 79.5 -13s29.5 -25.667 29.5 -51c0 -12.667 -3.5 -25 -10.5 -37s-17.5 -22.667 -31.5 -32s-31.667 -16.833 -53 -22.5s-46.333 -8.5 -75 -8.5l1 17
c26 2 47.833 5.66699 65.5 11s31.834 11.666 42.501 18.999s18.334 15.666 23.001 24.999s7 18.666 7 27.999c0 15.333 -7.33301 26.666 -22 33.999s-33.667 11 -57 11c-3.33301 0 -6.83301 -0.166992 -10.5 -0.5s-7.16699 -0.5 -10.5 -0.5l-7 14l68 75
c-26 1.33301 -51.5 4.83301 -76.5 10.5s-46.167 14.5 -63.5 26.5l11 17c22 -13.333 44.667 -22.333 68 -27s43.666 -7 60.999 -7c21.333 0 42 2 62 6s37.667 10.667 53 20s27.5 21.5 36.5 36.5s13.5 33.5 13.5 55.5c0 13.333 -2.83301 25.166 -8.5 35.499
s-13.334 19.5 -23.001 27.5s-21.167 15.5 -34.5 22.5s-28 13.5 -44 19.5c-17.333 6.66699 -34.166 13.834 -50.499 21.501s-30.833 16.167 -43.5 25.5s-22.834 20.333 -30.501 33s-11.5 27.334 -11.5 44.001c0 24.667 4.83301 45.167 14.5 61.5s22.167 29.5 37.5 39.5
s32.666 17.167 51.999 21.5s38.666 6.5 57.999 6.5z" />
    <glyph glyph-name="Scaron" unicode="&#x160;" horiz-adv-x="503" 
d="M313 693c10 0 21.3311 -0.330078 33.998 -0.99707s26 -2 40 -4s28.333 -4.66699 43 -8s29 -7.66602 43 -12.999l-10 -25c-32 10 -59.833 16.667 -83.5 20s-47.167 5 -70.5 5c-21.333 0 -43.333 -2.5 -66 -7.5s-43.167 -13.5 -61.5 -25.5s-33.5 -27.833 -45.5 -47.5
s-18 -44.167 -18 -73.5c0 -22 4.16699 -40.5 12.5 -55.5s19.833 -27.667 34.5 -38s32 -19.5 52 -27.5s41.667 -16 65 -24l67 -25c22.667 -8.66699 43 -19.667 61 -33s32.667 -29.833 44 -49.5s17 -44.5 17 -74.5c0 -36 -7.5 -66.333 -22.5 -91s-34.5 -44.5 -58.5 -59.5
s-51.333 -25.833 -82 -32.5s-61.667 -10 -93 -10c-32 0 -65.333 3.66699 -100 11s-66.334 19.666 -95.001 36.999l13 22c32.667 -17.333 64 -29.333 94 -36s59 -10 87 -10c27.333 0 54.666 2.66699 81.999 8s52 14.5 74 27.5s39.833 30.333 53.5 52s20.5 49.167 20.5 82.5
c0 22 -3.83301 40.833 -11.5 56.5s-18.834 29.5 -33.501 41.5s-32.167 22.5 -52.5 31.5s-43.166 17.833 -68.499 26.5c-28 9.33301 -53.667 18.666 -77 27.999s-43.166 20.166 -59.499 32.499s-29 27.166 -38 44.499s-13.5 38.666 -13.5 63.999c0 32 6.33301 59.5 19 82.5
s29.334 41.833 50.001 56.5s44.334 25.334 71.001 32.001s54.334 10 83.001 10zM445.998 852.003l8 -12l-139 -122h-27l-110 123l12 12l116 -103z" />
    <glyph glyph-name="scaron" unicode="&#x161;" horiz-adv-x="367" 
d="M226 490c6.66699 0 14.501 -0.50293 23.501 -1.50293s18.833 -2.5 29.5 -4.5s21.334 -4.66699 32.001 -8s21 -7.66602 31 -12.999l-10 -19c-20 9.33301 -40 16 -60 20s-36 6 -48 6c-17.333 0 -34 -1.83301 -50 -5.5s-30.5 -9.66699 -43.5 -18
s-23.333 -19.166 -31 -32.499s-11.5 -29.666 -11.5 -48.999c0 -14 3 -26.167 9 -36.5s14 -19.5 24 -27.5s21.5 -15 34.5 -21l40.5 -18c18 -7.33301 35.333 -14.833 52 -22.5s31.334 -16.167 44.001 -25.5s22.667 -20.5 30 -33.5s11 -28.5 11 -46.5
c0 -24 -4.83301 -44.833 -14.5 -62.5s-22.667 -32.334 -39 -44.001s-35.166 -20.167 -56.499 -25.5s-43.333 -8 -66 -8c-28 0 -55.5 2.83301 -82.5 8.5s-50.167 15.167 -69.5 28.5l11 17c22 -13.333 44.667 -22.333 68 -27s43.666 -7 60.999 -7c21.333 0 42 2 62 6
s37.667 10.667 53 20s27.5 21.5 36.5 36.5s13.5 33.5 13.5 55.5c0 13.333 -2.83301 25.166 -8.5 35.499s-13.334 19.5 -23.001 27.5s-21.167 15.5 -34.5 22.5s-28 13.5 -44 19.5c-17.333 6.66699 -34.166 13.834 -50.499 21.501s-30.833 16.167 -43.5 25.5
s-22.834 20.333 -30.501 33s-11.5 27.334 -11.5 44.001c0 24.667 4.83301 45.167 14.5 61.5s22.167 29.5 37.5 39.5s32.666 17.167 51.999 21.5s38.666 6.5 57.999 6.5zM368.001 693.997l8 -12l-139 -122h-27l-111 123l13 12l115 -103z" />
    <glyph glyph-name="Tcommaaccent" unicode="&#x162;" horiz-adv-x="482" 
d="M520 658h-212l-81 -658h-24l80 658h-213l3 24h449zM200 -80c7.33301 0 13.499 -2.49609 18.499 -7.49609s7.5 -12.167 7.5 -21.5c0 -32.667 -18 -63.334 -54 -92.001l-7 8c11.333 11.333 18.5 21.166 21.5 29.499s5.16699 18.166 6.5 29.499c-7.33301 0 -13 2 -17 6
s-6 9 -6 15c0 9.33301 2.83301 17.166 8.5 23.499s12.834 9.5 21.501 9.5z" />
    <glyph glyph-name="tcommaaccent" unicode="&#x163;" horiz-adv-x="296" 
d="M109 101c-0.666992 -5.33301 -1.16699 -10.668 -1.5 -16.001s-0.5 -10.333 -0.5 -15c0 -15.333 3.83301 -27.666 11.5 -36.999s23.167 -14 46.5 -14c13.333 0 29 1.5 47 4.5s36 7.16699 54 12.5l6 -17c-16 -6.66699 -34.333 -12 -55 -16s-39.667 -6 -57 -6
c-22 0 -40.167 4.83301 -54.5 14.5s-21.5 28.5 -21.5 56.5c0 4 0.166992 8 0.5 12s0.833008 8.33301 1.5 13l45 370h-67l2 15l68 11l18 85l15 2l-11 -90h136l-3 -23h-136zM130 -80.002c7.33301 0 13.499 -2.49609 18.499 -7.49609s7.5 -12.167 7.5 -21.5
c0 -32.667 -18 -63.334 -54 -92.001l-7 8c11.333 11.333 18.5 21.166 21.5 29.499s5.16699 18.166 6.5 29.499c-7.33301 0 -13 2 -17 6s-6 9 -6 15c0 9.33301 2.83301 17.166 8.5 23.499s12.834 9.5 21.501 9.5z" />
    <glyph glyph-name="Tcaron" unicode="&#x164;" horiz-adv-x="482" 
d="M520 658h-212l-81 -658h-24l80 658h-213l3 24h449zM448 852l8 -12l-139 -122h-27l-110 123l12 12l116 -103z" />
    </font>
</defs>
</svg>
